<?xml version="1.0" encoding="utf-8"?>
<!-- Generator: Adobe Illustrator 25.2.0, SVG Export Plug-In . SVG Version: 6.00 Build 0)  -->
<svg version="1.1" id="Layer_1" xmlns="http://www.w3.org/2000/svg" xmlns:xlink="http://www.w3.org/1999/xlink" x="0px" y="0px"
	 viewBox="0 0 87.74 41.03" style="enable-background:new 0 0 87.74 41.03;" xml:space="preserve">
<style type="text/css">
	.st0{fill:#777677;}
	.st1{fill:none;}
	.st2{fill:#487CBF;}
	.st3{fill:#EF372C;}
	.st4{fill:#00AC4E;}
	.st5{fill:#FDB614;}
</style>
<g>
	<g>
		<path class="st0" d="M21.33,28.3v6.16h-1.95v-15.2h5.18c1.32,0,2.43,0.44,3.35,1.32c0.93,0.88,1.4,1.95,1.4,3.21
			c0,1.29-0.47,2.36-1.4,3.23c-0.91,0.86-2.02,1.3-3.35,1.3H21.33z M21.33,21.12v5.31h3.27c0.78,0,1.42-0.26,1.93-0.79
			c0.52-0.52,0.79-1.15,0.79-1.87c0-0.71-0.26-1.32-0.79-1.85c-0.51-0.54-1.15-0.81-1.93-0.81H21.33z"/>
		<path class="st0" d="M34.54,23.71c1.44,0,2.58,0.39,3.42,1.16c0.83,0.77,1.25,1.83,1.25,3.17v6.41h-1.87v-1.44h-0.08
			c-0.81,1.19-1.88,1.78-3.23,1.78c-1.15,0-2.11-0.34-2.88-1.02c-0.77-0.68-1.16-1.53-1.16-2.55c0-1.08,0.41-1.93,1.22-2.57
			c0.81-0.64,1.9-0.96,3.26-0.96c1.16,0,2.12,0.21,2.87,0.64v-0.45c0-0.68-0.27-1.26-0.81-1.73c-0.54-0.47-1.17-0.71-1.89-0.71
			c-1.09,0-1.95,0.46-2.59,1.38l-1.72-1.08C31.28,24.39,32.68,23.71,34.54,23.71z M32.01,31.27c0,0.51,0.22,0.93,0.65,1.27
			c0.43,0.34,0.94,0.51,1.52,0.51c0.82,0,1.55-0.3,2.2-0.91c0.64-0.61,0.97-1.32,0.97-2.14c-0.61-0.48-1.46-0.72-2.55-0.72
			c-0.79,0-1.45,0.19-1.99,0.57C32.28,30.23,32.01,30.7,32.01,31.27z"/>
		<path class="st0" d="M41.42,24.05h1.87v1.7h0.08c0.58-1.33,1.78-2,3.59-2l0.4,0.04v2.04l-0.87-0.08c-0.91,0-1.65,0.28-2.24,0.84
			c-0.59,0.56-0.88,1.27-0.88,2.13v5.73h-1.95V24.05z M53.6,34.62c-0.85,0-1.55-0.26-2.11-0.79c-0.56-0.52-0.85-1.25-0.86-2.19
			v-5.82H48.8v-1.78h1.83v-3.18h1.95v3.18h2.55v1.78h-2.55v5.18c0,0.69,0.13,1.16,0.4,1.41c0.27,0.25,0.57,0.37,0.91,0.37
			c0.16,0,0.31-0.02,0.46-0.05c0.15-0.04,0.29-0.08,0.41-0.14l0.62,1.74C54.88,34.53,54.28,34.62,53.6,34.62z"/>
		<path class="st0" d="M57.11,24.05h1.87v1.44h0.08c0.3-0.51,0.75-0.93,1.37-1.27c0.62-0.34,1.26-0.51,1.92-0.51
			c1.27,0,2.25,0.36,2.94,1.09c0.69,0.73,1.03,1.77,1.03,3.11v6.54h-1.95v-6.41c-0.04-1.7-0.9-2.55-2.57-2.55
			c-0.78,0-1.43,0.32-1.95,0.94c-0.52,0.63-0.79,1.38-0.79,2.26v5.75h-1.95V24.05z"/>
		<path class="st0" d="M73.28,34.79c-1.53,0-2.79-0.52-3.78-1.57c-0.99-1.05-1.49-2.37-1.49-3.97c0-1.59,0.48-2.9,1.44-3.96
			c0.96-1.05,2.19-1.58,3.69-1.58c1.54,0,2.77,0.5,3.68,1.5c0.91,1,1.37,2.4,1.37,4.19l-0.02,0.21h-8.17
			c0.03,1.02,0.37,1.84,1.02,2.46c0.65,0.62,1.43,0.93,2.34,0.93c1.25,0,2.22-0.62,2.93-1.87l1.74,0.85
			c-0.47,0.88-1.11,1.56-1.94,2.06S74.33,34.79,73.28,34.79z M70.16,28h5.97c-0.06-0.72-0.35-1.32-0.88-1.79
			c-0.53-0.47-1.24-0.71-2.13-0.71c-0.74,0-1.37,0.23-1.9,0.68C70.68,26.63,70.33,27.23,70.16,28z"/>
		<path class="st0" d="M81.95,34.45h-1.95v-10.4h1.87v1.7h0.08c0.2-0.55,0.61-1.02,1.22-1.41c0.62-0.39,1.22-0.58,1.82-0.58
			c0.57,0,1.05,0.08,1.44,0.25l-0.59,1.89c-0.24-0.1-0.62-0.15-1.15-0.15c-0.74,0-1.38,0.3-1.92,0.89
			c-0.55,0.59-0.82,1.29-0.82,2.08V34.45z"/>
	</g>
	<path class="st1" d="M31.95,10.64c-0.5,0-0.92,0.18-1.26,0.54c-0.34,0.35-0.51,0.8-0.51,1.35c0,0.54,0.17,0.99,0.51,1.35
		c0.34,0.36,0.76,0.54,1.26,0.54c0.49,0,0.9-0.18,1.24-0.54c0.35-0.37,0.52-0.82,0.52-1.35c0-0.55-0.17-1-0.51-1.35
		C32.87,10.82,32.45,10.64,31.95,10.64z"/>
	<path class="st1" d="M45.61,10.64c-0.47,0-0.88,0.19-1.23,0.56c-0.34,0.36-0.51,0.81-0.51,1.35c0,0.53,0.17,0.98,0.5,1.34
		c0.34,0.36,0.75,0.54,1.24,0.54c0.47,0,0.86-0.18,1.18-0.53c0.32-0.37,0.49-0.82,0.49-1.35c0-0.54-0.16-0.99-0.49-1.36
		C46.48,10.82,46.09,10.64,45.61,10.64z"/>
	<path class="st1" d="M38.79,10.64c-0.5,0-0.92,0.18-1.26,0.54c-0.34,0.35-0.51,0.8-0.51,1.35c0,0.54,0.17,0.99,0.51,1.35
		c0.34,0.36,0.76,0.54,1.26,0.54c0.49,0,0.9-0.18,1.24-0.54c0.35-0.37,0.52-0.82,0.52-1.35c0-0.55-0.17-1-0.51-1.35
		C39.71,10.82,39.29,10.64,38.79,10.64z"/>
	<path class="st1" d="M55.19,10.8c-0.21-0.12-0.45-0.18-0.72-0.18c-0.43,0-0.81,0.17-1.16,0.52c-0.33,0.34-0.49,0.77-0.47,1.3
		l2.79-1.16C55.55,11.08,55.41,10.92,55.19,10.8z"/>
	<path class="st2" d="M23.8,10.37v1.33h3.17c-0.1,0.84-0.45,1.49-1.04,1.95c-0.58,0.46-1.29,0.69-2.13,0.69
		c-0.98,0-1.8-0.34-2.47-1.03c-0.67-0.68-1.01-1.51-1.01-2.5c0-0.99,0.34-1.82,1.01-2.5c0.67-0.69,1.5-1.03,2.47-1.03
		c0.92,0,1.71,0.32,2.39,0.95l0.94-0.94c-0.94-0.89-2.05-1.34-3.33-1.34c-0.87,0-1.69,0.22-2.46,0.66
		c-0.77,0.43-1.37,1.03-1.81,1.79c-0.43,0.74-0.65,1.54-0.65,2.4c0,0.87,0.22,1.67,0.65,2.42c0.43,0.75,1.04,1.34,1.81,1.78
		c0.77,0.44,1.59,0.66,2.46,0.66c1.31,0,2.4-0.41,3.26-1.23c0.85-0.81,1.28-1.89,1.28-3.23c0-0.32-0.02-0.59-0.07-0.83H23.8z"/>
	<path class="st3" d="M31.95,9.41c-0.89,0-1.64,0.3-2.24,0.9c-0.6,0.59-0.9,1.33-0.9,2.23c0,0.88,0.3,1.62,0.91,2.23
		c0.6,0.6,1.34,0.9,2.23,0.9c0.88,0,1.63-0.3,2.23-0.9c0.61-0.61,0.91-1.35,0.91-2.23c0-0.89-0.3-1.63-0.91-2.23
		C33.58,9.71,32.83,9.41,31.95,9.41z M33.19,13.88c-0.34,0.36-0.75,0.54-1.24,0.54c-0.5,0-0.92-0.18-1.26-0.54
		c-0.34-0.36-0.51-0.81-0.51-1.35c0-0.55,0.17-1,0.51-1.35c0.34-0.36,0.76-0.54,1.26-0.54c0.5,0,0.92,0.18,1.26,0.54
		c0.34,0.35,0.51,0.8,0.51,1.35C33.71,13.06,33.54,13.51,33.19,13.88z"/>
	<rect x="49.44" y="6.28" class="st4" width="1.37" height="9.19"/>
	<path class="st5" d="M38.79,9.41c-0.89,0-1.64,0.3-2.24,0.9c-0.6,0.59-0.9,1.33-0.9,2.23c0,0.88,0.3,1.62,0.91,2.23
		c0.6,0.6,1.34,0.9,2.23,0.9c0.88,0,1.63-0.3,2.23-0.9c0.61-0.61,0.91-1.35,0.91-2.23c0-0.89-0.3-1.63-0.91-2.23
		C40.42,9.71,39.68,9.41,38.79,9.41z M40.04,13.88c-0.34,0.36-0.75,0.54-1.24,0.54c-0.5,0-0.92-0.18-1.26-0.54
		c-0.34-0.36-0.51-0.81-0.51-1.35c0-0.55,0.17-1,0.51-1.35c0.34-0.36,0.76-0.54,1.26-0.54s0.92,0.18,1.26,0.54
		c0.34,0.35,0.51,0.8,0.51,1.35C40.56,13.06,40.38,13.51,40.04,13.88z"/>
	<path class="st3" d="M54.58,14.43c-0.69,0-1.19-0.32-1.52-0.95l4.18-1.73L57.1,11.4c-0.11-0.29-0.25-0.56-0.43-0.81
		c-0.18-0.24-0.38-0.46-0.61-0.63c-0.23-0.18-0.48-0.31-0.76-0.41c-0.28-0.09-0.57-0.14-0.88-0.14c-0.84,0-1.54,0.3-2.11,0.89
		c-0.56,0.6-0.84,1.35-0.84,2.24c0,0.88,0.3,1.63,0.89,2.23c0.59,0.6,1.33,0.9,2.21,0.9c1.11,0,1.97-0.46,2.6-1.39l-1.07-0.71
		C55.73,14.14,55.22,14.43,54.58,14.43z M53.31,11.14c0.35-0.35,0.73-0.52,1.16-0.52c0.27,0,0.51,0.06,0.72,0.18
		c0.21,0.12,0.36,0.28,0.44,0.48l-2.79,1.16C52.82,11.91,52.98,11.48,53.31,11.14z"/>
	<path class="st2" d="M47.19,10.11h-0.05c-0.39-0.47-0.94-0.7-1.65-0.7c-0.81,0-1.51,0.31-2.11,0.92c-0.59,0.62-0.89,1.35-0.89,2.21
		c0,0.85,0.3,1.59,0.89,2.2c0.61,0.61,1.31,0.91,2.11,0.91c0.7,0,1.25-0.24,1.65-0.71h0.05v0.32c0,1.31-0.56,1.97-1.67,1.97
		c-0.36,0-0.67-0.1-0.95-0.31c-0.28-0.21-0.49-0.47-0.63-0.81l-1.2,0.5c0.12,0.28,0.27,0.53,0.45,0.75
		c0.18,0.23,0.39,0.42,0.63,0.58c0.24,0.16,0.5,0.29,0.79,0.38c0.28,0.09,0.58,0.14,0.9,0.14c0.93,0,1.66-0.28,2.18-0.85
		c0.52-0.56,0.79-1.37,0.79-2.41V9.6h-1.3V10.11z M46.8,13.9c-0.32,0.36-0.72,0.53-1.18,0.53c-0.49,0-0.9-0.18-1.24-0.54
		c-0.33-0.36-0.5-0.81-0.5-1.34c0-0.54,0.17-0.99,0.51-1.35c0.35-0.37,0.76-0.56,1.23-0.56c0.47,0,0.87,0.18,1.18,0.54
		c0.32,0.37,0.49,0.83,0.49,1.36C47.28,13.08,47.12,13.53,46.8,13.9z"/>
	<rect x="1.32" y="1.58" class="st2" width="9.96" height="37.86"/>
</g>
</svg>
