<?xml version="1.0" encoding="utf-8"?>
<!-- Generator: Adobe Illustrator 25.2.0, SVG Export Plug-In . SVG Version: 6.00 Build 0)  -->
<svg version="1.1" id="Layer_1" xmlns="http://www.w3.org/2000/svg" xmlns:xlink="http://www.w3.org/1999/xlink" x="0px" y="0px"
	 viewBox="0 0 780.9 227.4" style="enable-background:new 0 0 780.9 227.4;" xml:space="preserve">
<style type="text/css">
	.st0{fill:#45535E;}
	.st1{fill:#F8761F;}
</style>
<path class="st0" d="M11.1,43.4h26.5v58.8h55.8V43.4h26.5v144.4H93.4v-60H37.6v60H11.1V43.4z M203.8,140.7
	c0,12.1-9.8,21.9-21.9,21.9c-12.1,0-21.9-9.8-21.9-21.9V78.5h-25.1v62.1c0,25.9,21.1,47,47,47c25.9,0,47-21.1,47-47V78.5h-25.1
	V140.7 M298.9,79.3c-12.5,0-21.1,3.6-29.5,11.9V43.4h-25.2v88.5c0,33.1,24,55.8,50.9,55.8c29.9,0,56.1-23.1,56.1-54.2
	C351.2,102.8,327.1,79.3,298.9,79.3L298.9,79.3z M299.6,164.4c-17.1,0-30.1-14.3-30.1-30.9c0-16.7,13-30.9,30.1-30.9
	c14.5,0,27.5,14.3,27.5,30.9C327.1,150.2,314,164.4,299.6,164.4z M393.5,85.6c0-12.7,8.4-16.7,17.7-16.7c7.4,0,17.3,5.6,23.7,12.5
	l16.5-19.3c-8.2-11-24.9-18.7-38.5-18.7c-27.3,0-47,15.9-47,42.2c0,48.8,60,33.3,60,60.6c0,8.4-8.2,15.9-17.7,15.9
	c-14.9,0-19.7-7.2-26.5-14.9l-18.3,18.9c11.7,14.3,26.1,21.5,43.4,21.5c25.9,0,46.8-16.1,46.8-41.2
	C453.6,92.2,393.5,109.1,393.5,85.6 M519.9,77.9c-26.9,0-50.9,22.7-50.9,55.8v88.8h25.2v-48c8.4,8.2,17.1,11.9,29.5,11.9
	c28.1,0,52.3-23.5,52.3-54.2C576,100.9,549.8,77.9,519.9,77.9L519.9,77.9z M524.3,163c-17.1,0-30.1-14.3-30.1-30.9
	c0-16.7,13.1-30.9,30.1-30.9c14.5,0,27.5,14.3,27.5,30.9C551.9,148.7,538.8,163,524.3,163z M761.4,164.4c-14.9,0-19.1-6.4-19.1-16.3
	v-43.6h23.1V82.5h-23.1V53.4l-25.5,11.4v88.8c0,22.7,15.7,34.1,37.1,34.1c3.2,0,7.6-0.2,10-0.8l6.2-22.9
	C767.4,164.2,764.2,164.4,761.4,164.4"/>
<path class="st1" d="M695,105.9c-4.8-8.3-11.6-15-20.1-20c-6.3-3.7-12.9-6-20.3-7V52.4c7.4-3.1,12-10.1,12-18.2
	c0-11.1-8.9-20.1-20-20.1c-11.1,0-20.1,9-20.1,20.1c0,8.1,4.3,15.1,11.7,18.2v26.4c-5.9,0.9-12.1,2.7-17.7,5.5
	c-11.5-8.7-49.1-37.3-71.1-54c0.5-1.9,0.9-3.8,0.9-5.9c0-12.3-9.9-22.2-22.2-22.2c-12.3,0-22.2,9.9-22.2,22.2
	c0,12.3,9.9,22.2,22.2,22.2c4.2,0,8.1-1.2,11.4-3.2l4.6,3.5L608,93c-3.4,3.1-6.5,6.6-9,10.6c-5.1,8.1-8.2,16.9-8.2,26.6v2
	c0,6.8,1.3,13.2,3.5,19.2c1.9,5.3,4.8,10,8.3,14.4L581.3,187c-6.3-2.3-13.3-0.8-18,4c-3.2,3.2-5,7.6-5,12.1c0,4.6,1.8,8.9,5,12.1
	c3.2,3.2,7.6,5,12.1,5c4.6,0,8.9-1.8,12.1-5c3.2-3.2,5-7.6,5-12.1c0-1.8-0.3-3.5-0.8-5.2l21.9-21.9c3,2.1,6.2,3.8,9.7,5.3
	c6.9,3,14.5,4.8,22.8,4.8h1.5c9.2,0,17.8-2.2,26-6.6c8.6-4.7,15.3-11,20.4-19.2c5.1-8.2,7.9-17.2,7.9-27.1v-0.5
	C702,123.1,699.7,114.1,695,105.9L695,105.9z M668.2,151.8c-5.9,6.6-12.8,10.7-20.5,10.7h-1.3c-4.4,0-8.7-1.2-12.9-3.4
	c-4.8-2.4-8.4-5.9-11.3-10.3c-3.1-4.3-4.7-9.1-4.7-14.1v-1.5c0-4.9,0.9-9.6,3.3-14c2.5-4.8,6-8.6,10.6-11.5c4.5-3,9.3-4.4,14.6-4.4
	h0.5c4.8,0,9.4,1,13.8,3.2c4.4,2.4,8,5.6,10.8,9.8c2.7,4.2,4.3,8.8,4.8,13.8c0.1,1,0.1,2.1,0.1,3.1
	C676,139.8,673.4,146.1,668.2,151.8L668.2,151.8z"/>
</svg>
