<?xml version="1.0" encoding="utf-8"?>
<!-- Generator: Adobe Illustrator 23.0.1, SVG Export Plug-In . SVG Version: 6.00 Build 0)  -->
<svg version="1.1" id="layer" xmlns="" xmlns:xlink="http://www.w3.org/1999/xlink" x="0px" y="0px"
	 viewBox="0 0 600.1 107.3" style="enable-background:new 0 0 600.1 107.3;" xml:space="preserve">
<style type="text/css">
	.st0{fill:#FFFFFF;}
</style>
<g>
	<path class="st0" d="M206.1,16.7c0-3-0.5-6.9-3.7-9.7l0.2-0.3c3.6,1,6.4,4.3,7.2,6.9c2.5-8.6,12.1-11.7,19.7-10.7v0.4
		c-5.6,1.1-9.7,5-9.7,14.6V69c0,0,2.4,2.2,3.1,2.7c1.5,1.4,2.4,2.1,3.9,2.1c1.3,0,2.4-0.7,3-1.1c0.2-0.2,0.5-0.4,0.5-0.4l0.5,0.7
		l-13.5,10.9l-11.2-10.6V16.7z"/>
	<path class="st0" d="M158.1,73l-0.5-0.7c-0.7,0.5-1.9,1.5-3.5,1.5c-1.8,0-2.9-0.8-4.1-1.8c-2.1-1.7-3.6-3-3.6-3V36.7l-8.5-10.8
		l-16.1,10.9V18.4c0-9.4,3.6-13.7,9.7-14.9V3c-11.1-1.2-18.1,4.8-19.7,10.7c-1.5-4.4-5.3-6.6-7.2-6.9l-0.2,0.3
		c1.8,1.7,3.7,4.3,3.7,9.6v56.8l11.2,10.7l10-8.8l-7.6-6.6V38.3l5.4-3.7l5.5,7.8v31.1l12,10.7L158.1,73z"/>
	<path class="st0" d="M326.7,13.8l-9.5,9.3l-9.5-9.3l9.5-9.3L326.7,13.8z M284.1,87.7c-2-2.8-5.7-6.4-13.5-6.4
		c-6.7,0-12.3,4.9-12.3,11.2c0,8.2,7.3,14.8,21.7,14.8c24.8,0,31.6-18.3,45.9-18.3V36.8l-8.7-11l-10.8,9l5.9,7.5v42
		c0,12.7-15,19.2-24.2,19.2c-9.8,0-17.1-5.2-17.1-11.5c0-4,3.3-6.4,6.7-6.4c3.1,0,4.8,1.3,5.9,2.4L284.1,87.7z"/>
	<path class="st0" d="M67.9,73.1l5.7-5.1c-0.2-0.6-1-2.9-1.9-5.8c-1.9-6.9-4.9-17.4-4.9-17.4l-4.5-4.1v4.7c0,10-7.2,15.1-17,19.2
		C59,65.4,66.5,71.8,67.9,73.1 M65.5,1.2c-2.2,3.6-3.2,8.5-3.2,14.8v16.5L83.8,0.9c2.6,1.6,5.3,3.5,10.3,3.5c5.9,0,8.4-1.7,10.4-2.9
		l0.3,0.1C103.6,5.4,97.7,15,88.2,15c-5,0-8.8-2.2-10.5-3.2L67.4,27l11.7,9.3c0,0,5,16.7,7,23.2c2.2,7.2,4.3,8.1,8.5,10
		c1.7,0.8,3.4,1.5,5.8,2.6c2.6,1.1,3.4,1.1,4.7,1.1c1.6,0,2.7-0.8,2.9-0.9l0.5,0.6L96.8,84.1c0,0-7.3-3.3-12.5-5.6
		c-4.4-2-7.8-4.4-10.2-9.3C69,73.5,62.7,79.3,57.6,84c-4-2.6-11.3-6.7-23.3-6.7c-17.5,0-33,8.3-33,18c0,6.2,4.6,9.5,10.1,9.5
		l-0.1,0.9c-7.4,0-11.3-5-11.3-10.8C0,78.4,21.1,66,39.6,64.8c1.9-2.5,4.6-5.6,4.6-14.2c0,0,0-23.2,0-24.2c0-3.9,1.3-5.5,1.8-6.2
		l0,0c-0.2,0.6-0.7,2.2-0.7,6.5c0,8.5,0,24.9,0,24.9c0,7.7-2.7,10.7-4.6,13.2c0.7,0,1.3-0.1,2-0.1c0.4,0,0.8,0,1.1,0
		c4.1-4.6,4.5-9.7,4.5-14.5c0,0,0-17.3,0-24.3c0.1-8.1,2.7-11.2,7.8-16.1c1.2-1.2,2.5-2.4,3.4-3.3l-0.2-0.2
		C53.1,10.9,48,14.6,40,14.6c-6.4,0-11.9-2.8-17.9-2.8c-4.6,0-6.9,2.1-7.8,2.7l-0.2-0.1C16.7,10.1,23.7,0,34.1,0
		c7.8,0,11.4,3.3,19.1,3.3c4.5,0,8.4-0.6,11.8-2.3L65.5,1.2z"/>
	<path class="st0" d="M243.9,59.8l12-7.6l-12-15.7V59.8z M230.2,40.7l22.8-15l15.3,20L243.9,61v6.3c0,0,9.9,4.8,13.4,6.5
		c1.6,0.8,3.2,1.5,5.4,1.5c2.4,0,4.7-0.9,5.9-1.4c1.2-0.6,2.3-1.1,2.3-1.1v1.3l-20,10.1l-20.7-10.6L230.2,40.7L230.2,40.7z"/>
	<path class="st0" d="M533.7,59.8l12-7.6l-12-15.7V59.8z M519.9,40.7l22.9-15l15.3,20L533.7,61v6.3c0,0,9.9,4.8,13.4,6.5
		c1.6,0.8,3.2,1.5,5.4,1.5c2.4,0,4.7-0.9,5.9-1.4c0.4-0.2,1.9-0.9,1.9-0.9l0.4,1l-20,10.1L520,73.5V40.7H519.9z"/>
	<path class="st0" d="M284.6,59.8l12-7.6l-12-15.7V59.8z M270.8,40.7l22.9-15l15.3,20L284.6,61v6.3c0,0,9.9,4.8,13.4,6.5
		c1.6,0.8,3.5,1.2,5.4,1.2c2.5,0,4.7-1.1,5.8-1.6c1.1-0.6,3.2-1.6,3.2-1.6V73l-20.9,11.2l-20.7-10V40.7z"/>
	<path class="st0" d="M157.5,40.7l22.3-14.9L195,39.9v28.9c0,0,2.3,1.8,4.4,3.5c1.8,1.5,2.8,1.7,3.5,1.7c1.3,0,2.5-1,3.3-1.7
		l0.6,0.8l-13.4,11.1l-11.7-10.4l-10.3,10.4l-13.9-10.8V40.7z M171.2,68.3c0,0,4.2,3.2,5,3.9c1.4,1.1,2.2,1.3,3,1.3
		c1.2,0,2-0.8,2-0.8V46.6l-10.1-9.8v31.5H171.2z"/>
	<path class="st0" d="M482.7,36.8l-8.6-11l-16.8,11l-8.6-11l-10.5,8l5.5,6.9v32.7l12.8,10.7l8.9-8.3l-8-7.1V38l6.4-4.2l5.3,6.7v32.7
		l12.8,10.7l8.9-8.3l-8-7.1V37.8l6.7-4.3l5.4,6.8V73l12.8,10.7l12.7-10.3l-0.4-0.6c0,0-0.2,0.1-0.4,0.2c-0.5,0.4-1.2,0.7-2.5,0.7
		c-1.7,0-3.3-0.7-4.8-2.1c-1-0.9-3.7-3.3-3.7-3.3V36.4l-8.6-11L482.7,36.8z"/>
	<path class="st0" d="M600.1,26.3l-15.2,20.5l12.4,8.9v15l-18,13.6c-1.1-0.8-5.3-3.7-11.8-3.7c-5.4,0-8.7,2.5-10.6,3.7l-0.6-0.5
		l16-21.6l-11.4-6.3V39.2l17.7-13.5c1.6,1.1,4.8,3.4,10.9,3.4c5.4,0,8.6-2.4,9.9-3.4L600.1,26.3z M595.4,30.7l-0.3-0.2
		c-1.2,1.4-6.4,6.8-12.9,6.8c-4.4,0-6.8-1.6-7.8-2.2v12.5l6,3.4L595.4,30.7z M583.6,63.7l-7.4-5.1l-15.5,20.8l0.3,0.3
		c2.2-2.2,7.1-7,13.9-7c4.9,0,7.7,1.7,8.7,2.2V63.7z"/>
	<path class="st0" d="M413.7,33.7l10.6-8l8.6,11v31.9c0,0,1.8,1.6,3.1,2.8c1.6,1.4,3.1,1.9,4.5,1.9c1.6,0,2.8-0.7,3.2-1
		c0.1,0.1,0.4,0.5,0.4,0.5l-12.2,11.1c-1.8-1.6-12.7-10.6-12.7-10.6V40.6L413.7,33.7z M424.2,4.5l-9.5,9.3l9.5,9.3l9.5-9.3
		L424.2,4.5z"/>
	<path class="st0" d="M386.7,72.1c3.9,0,6.7-0.7,7.8-1V17.9c-2-0.1-4.5-0.4-5.7-0.5v28.9c0,14-14.6,18.8-18.7,20.9
		C374.6,70.1,380.4,72.1,386.7,72.1 M369.5,66.7c2.7-2.5,5.1-6.9,5.1-13.9V14.3c-0.8-0.2-2.4-0.6-3.1-0.8v39.4
		c0,7.6-2.6,10.6-3.9,12.4C368.1,65.7,369,66.3,369.5,66.7 M418.2,1.5C418,3.3,415.7,18,398.7,18c-1,0-2.3,0-3.1-0.1v52.9
		c8.9-2.7,16.2-9.9,19.4-20l0.4,0.1c-1.2,18.5-16.4,33.2-34.7,33.2c-19.8,0-34.5-15.1-34.5-35.7c0-13.5,7-25.8,17.8-31.8l0.3,0.3
		c-5.2,6-8,13-8,22c0,11.2,4.4,20.2,10.8,26c1.4-2,3.5-5.3,3.5-12.4V13.4c-0.6-0.1-3-0.7-5.5-0.7c-7.1,0-13.1,1.9-18.4,8l-0.3-0.2
		c1.7-11.9,10.3-20.4,26-20.4c14.1,0,21.4,5.2,32.4,5.2c7.3,0,11.7-2.8,13.2-3.9L418.2,1.5z"/>
</g>
</svg>
