<?xml version="1.0" encoding="utf-8"?>
<!-- Generator: Adobe Illustrator 23.0.1, SVG Export Plug-In . SVG Version: 6.00 Build 0)  -->
<svg version="1.1" id="Layer_1" xmlns="http://www.w3.org/2000/svg" xmlns:xlink="http://www.w3.org/1999/xlink" x="0px" y="0px"
	 viewBox="0 0 384 384" style="enable-background:new 0 0 384 384;" xml:space="preserve">
<style type="text/css">
	.st0{fill:none;stroke:#808080;stroke-width:10;stroke-miterlimit:10;}
</style>
<path class="st0" d="M128.5,253.6c3.9-3.8,7.9-7.8,11.9-11.6c1.7-1.6,2.6-3,1-5.2c-0.6-0.8-1.1-1.7-1.2-2.6
	c-0.9-6.2-4.8-7.4-10.3-6.7c-3.2,0.4-6.5,0-9.8,0.1c-2,0.1-2.8-0.6-2.8-2.7c0.1-8.5,0.1-16.9,0-25.4c0-2.1,0.8-2.7,2.8-2.7
	c5.1,0.1,10.2-0.1,15.2,0.1c1.9,0,2.9-0.6,3.3-2.5c0.4-1.5,1-3,1.6-4.4c2.3-5.3,2.3-5.3-1.9-9.5c-3.3-3.2-6.6-6.3-9.9-9.4
	c7.6-7.5,14.8-14.5,22.4-22.1c3.6,3.7,7.7,7.8,11.6,12.1c1.3,1.4,2.5,1.9,4.3,0.8c1.5-0.9,3.2-1.8,5-2.2c4.2-0.8,5.1-3.2,4.8-7.2
	c-0.4-4.8-0.1-9.6-0.1-14.7c10.3,0,20.3,0,30.7,0c0,5.7,0.1,11.3-0.1,16.8c-0.1,2.7,0.7,4.1,3.3,4.5c0.9,0.2,1.8,0.6,2.7,1
	c6.3,2.6,6.4,2.6,11.3-2.4c3-3,5.9-6.1,8.7-9.1c7.4,7.4,14.4,14.5,22.1,22.2c-3.7,3.6-7.6,7.5-11.7,11.2c-2,1.8-2.9,3.4-1.1,5.8
	c0.6,0.8,0.9,2,1.4,3c2.5,6,2.5,6,9.1,6c4,0,8,0,12,0.1c0.3,0,0.7,0.2,1.2,0.4c0,9.8,0,19.7,0,30.2c-5.4,0-10.6,0.2-15.9-0.1
	c-3.4-0.2-5.3,0.8-5.8,4.2c0,0.2-0.2,0.5-0.3,0.7c-4.2,5.8-1.9,9.9,3.1,13.7c2.9,2.2,5.3,4.9,7.7,7.1c-7.5,7.6-14.6,14.7-22.1,22.2
	c-3.5-3.5-7.3-7.3-11-11.3c-1.9-2-3.5-3-6.1-1.1c-1,0.8-2.4,1.3-3.6,1.6c-4.6,0.8-5.5,3.5-5.2,7.7c0.4,4.7,0.1,9.4,0.1,14.3
	c-10.4,0-20.3,0-30.7,0c0-5.8-0.1-11.3,0.1-16.8c0.1-2.4-0.5-4-3-4.4c-0.8-0.1-1.7-0.4-2.4-0.9c-5.2-3.9-9-1.9-12.5,2.7
	c-2.4,3.2-5.3,5.9-8,8.9C143.1,268.3,136.1,261.2,128.5,253.6z M191.8,249.6c20.8,0.1,37.5-16.4,37.5-37.1
	c0-21.1-16.3-37.5-37.4-37.5c-20.3,0-37,16.4-37.1,36.3C154.6,232.9,170.8,249.5,191.8,249.6z"/>
<path class="st0" d="M340.9,253.6c-4,15-9.9,28.5-18,40.9c-27.1,41.6-65.4,65.7-114.7,71.5c-69.6,8.3-138.8-35.3-161.7-101.6
	c-1.4-4.2-3.3-5.3-7.6-4.8c-7.9,1-16,1.2-25.3,1.8c13.7-17.6,26.7-34.3,40.2-51.5c15.4,15.1,30.6,29.9,46.7,45.6
	c-10.4,0.8-19.7,1.4-29.7,2.2c0.7,2,1.2,3.8,2,5.5c22.2,47.3,59,74.4,111.3,78.1c57.6,4.1,109-29.9,129.4-83.9
	c1.1-2.8,2.3-4,5.5-3.9C326,253.8,333,253.6,340.9,253.6z"/>
<path class="st0" d="M370.4,163.1c-13.7,17.6-26.7,34.2-40.2,51.4c-15.4-15-30.6-29.9-46.7-45.5c10.4-0.8,19.7-1.4,29.6-2.2
	c-0.6-1.6-0.9-3.1-1.5-4.5c-20.4-48.6-68.3-80.3-120.2-79.8c-53.9,0.6-101.5,33.6-120.5,83.6c-1.5,3.9-3.4,5-7.3,4.9
	c-6.5-0.3-13.1-0.1-20.7-0.1c1.6-4.8,2.7-9.1,4.4-13.1c25.2-60.3,70.1-94.7,135.5-99.6c68.4-5.1,131.1,36.7,154.4,101.2
	c1.7,4.7,3.7,6,8.6,5.3C353.6,163.7,361.4,163.6,370.4,163.1z"/>
</svg>
