<?xml version="1.0" encoding="utf-8"?>
<!-- Generator: Adobe Illustrator 23.0.1, SVG Export Plug-In . SVG Version: 6.00 Build 0)  -->
<svg version="1.1" id="Layer_1" xmlns="http://www.w3.org/2000/svg" xmlns:xlink="http://www.w3.org/1999/xlink" x="0px" y="0px"
	 viewBox="0 0 384 384" style="enable-background:new 0 0 384 384;" xml:space="preserve">
<style type="text/css">
	.st0{fill:#808080;}
</style>
<g>
	<path class="st0" d="M363.9,139.5c-2.4-1.2-4.7-2.1-6.8-2.9c-10.7-3.5-22-5.3-34.2-5.3c-6.3,0-12.8,0.5-19.6,1.4
		c-8.3,1.1-18.9,3.3-28.2,9.7c-5,3.5-7.5,8.1-7.5,14c0.1,62.4,0.1,127.9,0,194.7c0,6.2,2.4,10.8,7.1,13.6c4,2.4,9.4,5.4,15,7
		c5.2,1.5,10.6,2.4,15.9,3.3l0.2,0c2.2,0.4,4.5,0.8,6.7,1.2l19.3,0c0.2-0.1,0.5-0.1,0.8-0.2l0.2,0c0.8-0.2,1.8-0.4,2.8-0.5
		c10.3-1.3,22.2-3.2,32.3-9.8c5.7-3.7,8.3-8.6,8.3-15.3c-0.2-67.9-0.3-129.2,0.1-191C376.3,149.9,372.5,143.8,363.9,139.5z
		 M358.2,286.2c-12.9,5.6-26.3,6.4-36.5,6.4l-0.3,0c-12.5,0-22.6-1.5-31.6-4.7l-0.1,0c-1-0.4-2.2-0.8-3.4-1.3
		c-9-3.9-10.2-6.2-9.1-16.4l0.2-2.1l1.9,0.8c28.2,11.1,56.8,11.2,84.9,0.1l1.8-0.7l0.4,1.9C368.2,279.2,366.6,282.5,358.2,286.2z
		 M358.1,261.4c-9.8,4.2-20.9,6.1-35,6.3c-0.4,0-0.9,0-1.3,0c-12.6,0-22.8-1.5-32.1-4.7c-1.4-0.5-2.7-1-3.8-1.5
		c-8.7-3.9-10-6.3-8.6-16.5l0.3-2.1l1.9,0.8c13,5.7,26.8,8.4,42.2,8.4c0.2,0,0.3,0,0.5,0c15.3,0,29.1-2.7,42-8.3l1.8-0.8l0.4,1.9
		C368.2,254.4,366.4,257.9,358.1,261.4z M276.9,154.2c0.1-1.3,0.8-3,3.9-4.5c7.5-3.4,14.3-5.8,20.6-7.3c4.7-1.1,9.5-1.4,14.2-1.8
		c2-0.1,4.1-0.3,6.1-0.5l0.1,0c10.8,0.4,22.2,1.4,33.4,5.7c2.9,1.1,5.6,2.5,8,4.1c2.4,1.6,3.6,3.2,3.5,5c-0.1,1.7-1.3,3.1-3.6,4.2
		c-5,2.5-10.9,5.3-17.1,6.7c-8.3,1.9-16.6,2.8-24.8,2.8c-10.2,0-20.4-1.5-30.1-4.5c-3.4-1-6.9-2.6-10.5-4.8
		C277.5,157.5,276.9,155.5,276.9,154.2z M277.3,170.8L277.3,170.8l0.3-1.9l1.8,0.7c28.2,11.2,56.7,11.1,84.9,0l2-0.8l0.2,2.2
		c0,0.6,0.1,1.3,0.1,1.8l0,0.2c0.7,8.9,0.2,10.2-9.4,14.3c-9.8,4.2-20.6,6.2-33,6.2c-3.8,0-7.8-0.2-12-0.6c-5.5-0.5-11-1.7-16.2-2.8
		c-1.8-0.4-3.5-0.8-5.3-1.1c-1.7-0.3-3.2-1-4.7-1.7l-0.7-0.3C277.1,183.1,275.6,180.3,277.3,170.8z M356.5,212.4
		c-10.1,3.9-20.7,5.8-32.5,5.8c-4.1,0-8.5-0.2-12.9-0.7c-7.8-0.8-16.2-2.7-24.9-5.6c-9.2-3.1-10.2-6.2-9.1-16.2l0.2-2.1l1.9,0.8
		c28.3,11.1,56.9,11.1,85,0l1.5-0.6l0.7,1.8c0.1,0.2,0.2,0.5,0.2,0.8C367.5,206.5,366,208.8,356.5,212.4z M277.3,220.5l0.3-1.9
		l1.8,0.7c28.1,11.1,56.7,11.1,84.8,0l1.9-0.7l0.3,2c1.5,9.7-0.2,12.8-8.8,16.3c-10.2,4.2-21.3,6.3-33.7,6.3c-4.4,0-9-0.3-13.8-0.8
		c-7.5-0.8-15.7-2.8-24.8-6C276.7,233.2,275.7,229.7,277.3,220.5z M356.4,361.2c-9.9,3.8-20.9,5.7-33.6,5.7c-3.1,0-6.3-0.1-9.6-0.3
		c-10.7-0.7-19.3-2.5-27-5.8c-8.9-3.7-10.3-6.4-9-16.4l0.3-2l1.9,0.8c28.2,11.2,56.9,11.1,85.1-0.1l2-0.8l0.1,2.2
		C367.4,355.5,366.3,357.4,356.4,361.2z M356.6,336.4c-10,3.9-20.7,5.7-33.8,5.7c-2.4,0-4.9-0.1-7.5-0.2
		c-11.3-0.6-20.2-2.3-28.1-5.5c-0.1,0-0.2-0.1-0.3-0.1c-0.3-0.1-0.5-0.2-0.7-0.3c-8.7-3.7-10.2-6.5-8.9-16.4l0.3-2l1.9,0.8
		c28.2,11.2,56.8,11.2,85.1-0.1l2-0.8l0.2,2.2C367.5,330.4,366.2,332.6,356.6,336.4z M358.6,310.7c-13.4,5.9-26.9,6.6-36,6.6
		c-1.7,0-3.3,0-4.9-0.1c-11-0.3-20.4-1.9-28.6-4.9c-1.2-0.4-2.7-1-4.2-1.7c-7.9-3.7-9.4-7-7.6-15.9l0.4-1.9l1.8,0.7
		c28.1,11.1,56.6,11.1,84.6,0l1.7-0.7l0.4,1.8C368.4,303.7,366.7,307.2,358.6,310.7z"/>
	<path class="st0" d="M246,231.1c0-6.3-2.4-10.9-7.2-14c-4.7-3-9-5.1-12.9-6.3c-10.6-3.4-21.7-5.1-33.3-5.1
		c-7.2,0-14.6,0.6-22.2,1.9c-11,1.8-18.8,4.7-25.4,9.2c-5.2,3.6-7.6,8.1-7.5,14.3c0.1,39,0.1,79.3,0,119.8c0,6.3,2.4,11,7.3,13.9
		c5.9,3.5,10.5,5.7,15,6.9c5.2,1.5,10.6,2.4,15.9,3.3c2.1,0.4,4.5,0.8,6.9,1.2l18.6,0c0.9-0.1,2-0.3,3-0.4c2.3-0.3,4.6-0.6,6.8-1
		c9.2-1.5,18.8-3.6,27.2-9.3c5.4-3.7,7.9-8.4,7.9-14.8C245.9,313.8,245.9,274.8,246,231.1z M144.7,229c-0.1-0.3-0.1-0.6,0.1-0.9
		c0.6-1.4,3.7-3.9,10.3-6.5c14.2-5.5,28.6-7.6,44.1-6.3c7.3,0.6,14.7,2.3,21.7,3.9l0.6,0.1c1,0.2,2,0.5,3,0.7c3,0.7,5.7,2.3,8.3,4
		c2.6,1.7,3.8,3.4,3.8,5.1c-0.1,1.8-1.4,3.3-4,4.8c-4.1,2.2-9,4.7-14.1,5.7c-6.2,1.3-12.6,2.1-18.7,3c-2.6,0.3-5.2,0.7-7.8,1.1
		l-0.2,0l-0.2,0c-22.8-0.3-38.2-2.2-44.8-10.8C146,231.7,145.2,230.4,144.7,229z M147.1,245.2l0.3-2l1.9,0.7
		c28.2,11.1,56.8,11.1,84.9,0l1.8-0.7l0.4,1.9c1.7,9.3,0.3,12.3-7.7,15.9c-12.8,5.8-26.2,6.5-36.4,6.6l-0.6,0c-15,0-26.2-2-36.3-6.4
		C146.9,257.6,145.6,255,147.1,245.2z M228.2,286.1c-13,5.7-26.4,6.5-36.7,6.5l-0.5,0c-12.5,0-22.5-1.5-31.6-4.8
		c-1-0.4-2.3-0.8-3.5-1.3c-8.9-3.9-10.2-6.3-9-16.3l0.3-2l1.9,0.8c28.2,11.1,56.8,11.2,85,0.1l1.8-0.7l0.3,1.9
		C238,279.4,236.5,282.4,228.2,286.1z M226.4,311.6c-9.7,3.8-20.4,5.7-31.7,5.7c-2.7,0-5.4-0.1-8.2-0.3c-6.5-0.5-13-1.8-19.3-3.1
		l-0.2,0c-2.5-0.5-5.1-1-7.7-1.5c-0.9-0.2-1.7-0.5-2.5-0.9c-0.2-0.1-0.4-0.2-0.6-0.2c-9-3.8-10.5-6.5-9.2-16.7l0.3-2.1l2,0.9
		c13.2,5.7,27,8.5,42.2,8.5c15.9,0,29.9-2.8,42.8-8.6l2.1-0.9l0.2,2.3C237.4,305.7,236.2,307.8,226.4,311.6z M228.3,360.4
		c-10.2,4.5-21.5,6.6-34.4,6.6c-3.4,0-6.9-0.2-10.5-0.5c-5.8-0.5-11.7-1.8-17.3-3c-2.1-0.5-4.4-1-6.7-1.4c-1.2-0.2-2.3-0.8-3.4-1.2
		c-0.2-0.1-0.5-0.2-0.7-0.3c-8.5-3.8-9.9-6.5-8.4-16.2l0.3-2l1.9,0.7c28.1,11.2,56.7,11.2,84.9,0.1l1.8-0.7l0.4,1.9
		C238.1,353.6,236.5,356.8,228.3,360.4z M228.4,335.5c-10.3,4.5-21.6,6.6-35.6,6.6c-2.5,0-5.1-0.1-7.7-0.2
		c-11.1-0.5-19.9-2.3-27.8-5.4l-0.1,0c-0.2-0.1-0.4-0.1-0.6-0.2c-10-4.7-10.3-5.9-9.7-14.7l0-0.2c0-0.6,0.1-1.2,0.1-1.9l0.1-2.3
		l2.1,0.9c13.2,5.7,27.1,8.5,42.4,8.5c15.6,0,29.5-2.8,42.4-8.4l1.8-0.8l0.4,1.9C238.2,328.6,236.6,331.9,228.4,335.5z"/>
	<path class="st0" d="M75.2,375.4c10.4-1.3,22.3-3.2,32.6-10c5.6-3.7,8.1-8.4,8.1-15.1l0-2.1c-0.2-21.5-0.4-43.7,0.1-65.5
		c0.2-8.9-3.3-14.7-11.4-18.8c-2.4-1.2-4.7-2.4-7-3.1c-24.3-7.7-48.7-7.6-72.4,0.2c-9.2,3-14.9,7.6-17.7,14.5v80
		c0,0.1,0.1,0.2,0.1,0.3l0.1,0.4c0.1,0.2,0.1,0.3,0.2,0.5c0.1,0.1,0.1,0.3,0.2,0.4l0.2,0.4c0.1,0.2,0.1,0.3,0.2,0.5
		c0.1,0.1,0.2,0.3,0.2,0.4l0.2,0.3c0.1,0.1,0.2,0.3,0.2,0.4c0.1,0.1,0.2,0.3,0.3,0.4l0.2,0.3c0.1,0.1,0.2,0.3,0.3,0.4
		c0.1,0.1,0.2,0.3,0.3,0.4l0.2,0.3c0.1,0.1,0.2,0.3,0.3,0.4c0.1,0.1,0.2,0.2,0.3,0.4l0.3,0.3c0.1,0.1,0.2,0.2,0.3,0.4
		c0.1,0.1,0.2,0.2,0.3,0.3l0.3,0.3c0.1,0.1,0.2,0.3,0.4,0.4c0.1,0.1,0.2,0.2,0.3,0.3l0.3,0.3c0.1,0.1,0.3,0.2,0.4,0.3
		c0.1,0.1,0.2,0.2,0.3,0.3l0.4,0.3c0.1,0.1,0.3,0.2,0.4,0.3c0.1,0.1,0.2,0.2,0.4,0.3l0.4,0.3c0.2,0.1,0.3,0.2,0.5,0.3
		c0.1,0.1,0.2,0.1,0.3,0.2l0.4,0.3c0.2,0.1,0.3,0.2,0.5,0.3c0.1,0.1,0.2,0.1,0.4,0.2l0.4,0.2c0.2,0.1,0.4,0.2,0.6,0.3
		c0.1,0.1,0.2,0.1,0.4,0.2l0.5,0.2c0.2,0.1,0.4,0.2,0.6,0.3c0.1,0.1,0.3,0.1,0.4,0.2l0.5,0.2c0.2,0.1,0.4,0.2,0.7,0.3
		c0.1,0.1,0.3,0.1,0.5,0.2l0.5,0.2c0.2,0.1,0.4,0.2,0.6,0.2c0.6,0.2,1.1,0.4,1.7,0.6c5.3,1.6,11,2.7,16.4,3.8c2.5,0.5,5,1,7.4,1.5
		c0.6,0.1,1.2,0.3,1.8,0.4l1.2,0.3H71c0.3-0.1,0.7-0.1,1.1-0.2h0l0.1,0.5l0-0.5C73.2,375.7,74.2,375.5,75.2,375.4z M19.6,274.4
		c5.5-2.9,10.9-5.6,16.6-6.9c6.2-1.4,12.5-2.1,17.1-2.6c1.5-0.2,2.9-0.3,3.9-0.5l0.2,0c16.6,0.4,27.6,1.4,38.3,5.7
		c2.5,1,5.1,2.4,8.2,4.5c1.6,1.1,2.5,2.5,2.5,4.1c0,1.5-0.9,2.9-2.5,3.9c-3.2,2-6.6,4.1-10.3,5.2c-10.6,3.3-21.4,4.9-32.1,4.9
		c-11,0-22.2-1.8-33.1-5.3c-3.6-1.1-6.9-3.2-9-4.7c-2-1.4-3-2.9-2.9-4.5C16.6,276.7,17.6,275.4,19.6,274.4z M16.9,294.8l0.3-2
		l1.9,0.7c28.1,11.1,56.6,11.2,84.6,0.1l1.6-0.6l0.5,1.7c2.4,8.2,0.7,12.1-6.7,15.6c-10.3,4.8-22,7-36.8,7c-1.9,0-3.9,0-6.2-0.1
		c-11.4-0.4-20.6-2.1-28.9-5.4c-0.2-0.1-0.4-0.2-0.6-0.2c-0.4-0.1-0.8-0.3-1.1-0.5C16.9,307.3,15.4,304.4,16.9,294.8z M97.5,335.9
		c-10.2,4.3-21.3,6.3-35.1,6.3c-2.5,0-5-0.1-7.7-0.2c-11-0.5-19.9-2.3-27.8-5.5c-9.8-3.9-10.9-5.7-10.3-16.8l0.1-2.2l2.1,0.8
		c28.2,11.2,56.8,11.3,85.1,0.1l1.9-0.7l0.3,2C107.5,329.6,106.2,332.2,97.5,335.9z M64.2,367c-3.5,0-7.1-0.2-10.8-0.5
		c-8.5-0.8-17.4-2.6-26.5-5.5c-10-3.1-11.1-6.2-10.2-16.6l0.2-2.1l2,0.8c28.2,11.2,56.7,11.3,84.9,0.1l1.8-0.7l0.4,1.9
		c1.9,9.3,0.4,12.4-7.7,15.9C87.9,364.8,76.8,367,64.2,367z"/>
	<path class="st0" d="M16.3,231.8c0.6-0.5,1.2-0.9,1.7-1.4l12.8-11.2c26-22.7,52.9-46.3,79.3-69.4c2.2-1.9,4.3-2.7,7.2-2.7
		c0,0,0,0,0,0c18.9,0,37.9,0,56.8,0c22,0,43.9,0,65.9,0.1c2.5,0,4.3-0.7,6.2-2.6c33.5-33.6,67.6-67.6,100.5-100.6l14.5-14.5
		c0.6-0.6,1.3-1.2,2.1-2c0.4-0.4,0.9-0.9,1.5-1.4l1.9-1.7v48.2h9.8V7.2h-65.6v10h47.9L357,19c-0.4,0.4-0.7,0.8-0.9,1.1
		c-0.5,0.6-0.9,1-1.3,1.4l-11.4,11.4c-33.4,33.4-67.9,67.9-101.9,101.8c-1.6,1.6-4.3,2.3-6.2,2.3c-38.9,0.1-80.1,0.1-122.4,0
		c-2.6,0-4.5,0.7-6.4,2.4c-17.3,15.2-34.9,30.7-52,45.6L38,199.4c-6.5,5.7-13.1,11.5-19.7,17.3l-8.8,7.7l6.7,7.6
		C16.2,231.9,16.2,231.9,16.3,231.8z"/>
</g>
</svg>
