<?xml version="1.0" encoding="utf-8"?>
<!-- Generator: Adobe Illustrator 23.0.1, SVG Export Plug-In . SVG Version: 6.00 Build 0)  -->
<svg version="1.1" id="Layer_1" xmlns="http://www.w3.org/2000/svg" xmlns:xlink="http://www.w3.org/1999/xlink" x="0px" y="0px"
	 viewBox="0 0 384 384" style="enable-background:new 0 0 384 384;" xml:space="preserve">
<style type="text/css">
	.st0{fill:#808080;}
</style>
<path class="st0" d="M374.3,9.2H15.4v298.3c1.5,2.3,3.7,3.3,7.4,3.3c0,0,0,0,0,0c38.3-0.1,77.3-0.1,115-0.1l35.4,0v14.7l-21.9,0
	c-5.5,0-11,0-16.5,0c-9.1,0-18.2,0-27.3,0c-5.8,0-7,1.2-7,7c0,9.6,0,21,0,32.4c0,5.2,1.5,6.7,6.7,6.7c59.6,0,119.2,0,178.8,0
	c5,0,6.5-1.5,6.6-6.4c0.1-11.2,0-22.4,0-32.8c0-5.5-1.4-6.9-6.8-6.9c-14.8,0-29.6,0-44.4,0l-21.5,0v-14.7h149.4
	c7.5,0,8.4-0.9,8.4-8.2l0-43.4c0-79.5,0-161.7,0.1-242.6C377.7,12.7,376.7,10.6,374.3,9.2z M282.7,335.3v26.2H110.4v-26.2H282.7z
	 M183.3,325.1V311h26.4v14.1H183.3z M367.7,300.7H25.2V19h342.5V300.7z"/>
<path class="st0" d="M48,286.3l148.2,0l149.2,0c6.9,0,8-1.1,8-7.9V41.6c0-7.1-1.1-8.1-8.1-8.1H47.8c-7.1,0-8.2,1.1-8.2,8.1l0,236.5
	C39.6,285.4,40.6,286.3,48,286.3z M49.5,43.3h294v233.1h-294V43.3z"/>
<path class="st0" d="M277.2,60.1c-8.9,9-18,18.1-26.9,27c-6.6,6.6-13.3,13.3-19.9,20c-1.9,1.9-3.8,2.6-6.6,2.2
	c-1.8-0.2-3.5-0.5-5.3-0.7c-7.4-1-15-2-22.5-1.9c-43.3,1-80.8,17.4-111.5,48.8c-1.7,1.8-2.5,3.2-2.5,4.5c0,1.3,0.9,2.7,2.6,4.4
	c20.1,19.2,43.6,33.3,69.6,42c1.7,0.6,3.4,1.1,5.2,1.8l4.7,1.6l-1.4,1.4c-1.4,1.4-2.8,2.8-4.1,4.2c-3.5,3.5-6.8,6.9-10.3,10
	c-1.7,1.5-4.2,2.5-6.3,2.6C122,228,101.6,228,81.8,228l-17.6,0v9.6l8.2,0c25,0,50.8,0,76.2,0c0.7,0,1.9-0.6,2.7-1.4
	c8.5-8.3,15.4-15.3,21.9-21.9c1.9-1.9,3.8-2.5,6.4-2.1c11,1.7,22.4,1.8,33.7,0.1c34.5-4.9,65.5-20.5,94.7-47.7
	c1.9-1.7,2.8-3.2,2.8-4.5c0-1.3-0.8-2.8-2.6-4.7c-13.3-13.8-28.5-24.9-45.1-33c-4.9-2.4-9.9-4.4-15.1-6.6c-2.4-1-4.7-2-7.1-3
	l-1.5-0.6l1-1.3c0.1-0.1,0.2-0.2,0.3-0.4c0.2-0.3,0.5-0.7,0.8-1l6.2-6.2c11.2-11.2,22.7-22.7,34.1-34c1.4-1.4,3.7-1.8,5.3-1.9
	c9.2-0.1,18.6-0.1,27.7-0.1c3.8,0,7.6,0,11.5,0c0.8,0,1.6-0.1,2.5-0.1c0,0,0.1,0,0.1,0v-9.5h-3c-3.7,0-7.4,0-11.1,0
	c-10.4,0-21.1,0-31.7-0.1C280.6,57.7,279,58.3,277.2,60.1z M152.6,195c-21-7.4-39.9-18.7-57.7-34.4l-1-0.9l1-0.9
	c17.3-16.5,36.6-28,59-35.4l3.9-1.3l-2.5,3.2c-8,10.1-12.1,21.5-12.3,33.8c-0.2,12,3.5,23.4,11,33.9l2.3,3.2L152.6,195z
	 M196.4,203.7c-0.1,0-0.1,0-0.2,0c-24-0.1-43.5-19.8-43.5-43.8c0-11.6,4.6-22.6,12.9-30.9c8.3-8.3,19.4-12.9,31.1-12.8
	c11.7,0,22.8,4.7,31.1,13.1c8.2,8.3,12.7,19.3,12.6,30.9C240.2,184.2,220.5,203.7,196.4,203.7z M298,159.1l0.8,0.9l-0.9,0.8
	c-17.4,15.4-36.5,26.9-58.2,35l-3.7,1.4l2.2-3.3c16-23.4,15.9-45.7-0.3-68.4l-1.5-2.1l2.6,0.1C250.4,124.1,287.4,146.3,298,159.1z"
	/>
<polygon class="st0" points="64.2,91.4 73.7,91.4 73.7,67.4 97.7,67.4 97.7,58 64.2,58 "/>
<polygon class="st0" points="328.8,228.3 319.3,228.3 319.3,252.4 295.2,252.4 295.2,261.7 328.8,261.7 "/>
<rect x="289.1" y="82.3" class="st0" width="33.6" height="9.2"/>
<rect x="125" y="252.6" class="st0" width="33.5" height="9.2"/>
<rect x="289.1" y="106.6" class="st0" width="21.3" height="9.3"/>
<rect x="64.1" y="252.5" class="st0" width="21.5" height="9.2"/>
<rect x="100.7" y="252.6" class="st0" width="9.2" height="9.1"/>
<rect x="319.7" y="203.8" class="st0" width="9.2" height="9.3"/>
<path class="st0" d="M196.6,130.8C196.5,130.8,196.5,130.8,196.6,130.8c-16,0-29.1,13-29.2,28.9c-0.1,7.7,2.9,14.9,8.4,20.5
	c5.5,5.6,12.8,8.7,20.5,8.8c7.9,0.1,15.2-3,20.8-8.5c5.6-5.5,8.6-12.8,8.6-20.6C225.6,143.9,212.6,130.9,196.6,130.8z M196.5,179.4
	C196.5,179.4,196.5,179.4,196.5,179.4c-5.2,0-10.2-2.1-13.9-5.8c-3.7-3.7-5.7-8.7-5.7-13.8c0.1-10.6,8.8-19.2,19.4-19.3c0,0,0,0,0,0
	c5.3,0,10.2,2.1,13.9,5.8c3.7,3.7,5.7,8.6,5.6,13.8C215.9,170.7,207.1,179.4,196.5,179.4z"/>
</svg>
