<?xml version="1.0" encoding="utf-8"?>
<!-- Generator: Adobe Illustrator 23.0.1, SVG Export Plug-In . SVG Version: 6.00 Build 0)  -->
<svg version="1.1" id="Layer_1" xmlns="http://www.w3.org/2000/svg" xmlns:xlink="http://www.w3.org/1999/xlink" x="0px" y="0px"
	 viewBox="0 0 376 373.8" style="enable-background:new 0 0 376 373.8;" xml:space="preserve">
<style type="text/css">
	.st0{fill:none;stroke:#808080;stroke-width:10;stroke-miterlimit:10;}
</style>
<g>
	<g>
		<ellipse class="st0" cx="765.9" cy="2724" rx="30.1" ry="26.8"/>
		<path class="st0" d="M705.9,2849v-74c0-8.6,8.4-15.6,18.6-15.6h82.8c10.2,0,18.6,7,18.6,15.6v74"/>
		<line class="st0" x1="731.7" y1="2782.5" x2="731.7" y2="2835"/>
		<line class="st0" x1="801.7" y1="2782.5" x2="801.7" y2="2835"/>
	</g>
	<g>
		<ellipse class="st0" cx="645.9" cy="2704" rx="30.1" ry="26.8"/>
		<path class="st0" d="M585.9,2829v-74c0-8.6,8.4-15.6,18.6-15.6h82.8c10.2,0,18.6,7,18.6,15.6v74"/>
		<line class="st0" x1="611.7" y1="2762.5" x2="611.7" y2="2815"/>
		<line class="st0" x1="681.7" y1="2762.5" x2="681.7" y2="2815"/>
	</g>
	<g>
		<ellipse class="st0" cx="885.9" cy="2704" rx="30.1" ry="26.8"/>
		<path class="st0" d="M825.9,2829v-74c0-8.6,8.4-15.6,18.6-15.6h82.8c10.2,0,18.6,7,18.6,15.6v74"/>
		<line class="st0" x1="851.7" y1="2762.5" x2="851.7" y2="2815"/>
		<line class="st0" x1="921.7" y1="2762.5" x2="921.7" y2="2815"/>
	</g>
	<path class="st0" d="M859,2637.9h-62.8h-19.6l-6.3,25.6l-27.1-25.6h-71.6c-6,0-11-4.5-11-10.2v-134.3c0-5.6,4.9-10.2,11-10.2H859
		c6,0,11,4.5,11,10.2v134.4C870,2633.4,865,2637.9,859,2637.9z"/>
	<path class="st0" d="M765.3,2524.9c8.6-8.2,14.6-15.4,27.6-16.8c24.7-2.6,47.4,20.8,34.8,43.8c-3.6,6.6-10.7,14.4-18.7,22
		c-8.7,8.5-18.4,16.7-25.3,22.9l-18.6,17.1l-15.3-13.6c-18.3-16.4-48.4-37.1-49.4-62.8c-0.7-18,14.6-29.5,32.1-29.3
		C748.4,2508.5,755,2515.8,765.3,2524.9z"/>
</g>
<g>
	<g>
		<ellipse class="st0" cx="188.9" cy="251" rx="30.1" ry="26.8"/>
		<path class="st0" d="M128.9,376v-74c0-8.6,8.4-15.6,18.6-15.6h82.8c10.2,0,18.6,7,18.6,15.6v74"/>
		<line class="st0" x1="154.7" y1="309.5" x2="154.7" y2="362"/>
		<line class="st0" x1="224.7" y1="309.5" x2="224.7" y2="362"/>
	</g>
	<g>
		<ellipse class="st0" cx="68.9" cy="231" rx="30.1" ry="26.8"/>
		<path class="st0" d="M8.9,356v-74c0-8.6,8.4-15.6,18.6-15.6h82.8c10.2,0,18.6,7,18.6,15.6v74"/>
		<line class="st0" x1="34.7" y1="289.5" x2="34.7" y2="342"/>
		<line class="st0" x1="104.7" y1="289.5" x2="104.7" y2="342"/>
	</g>
	<g>
		<ellipse class="st0" cx="308.9" cy="231" rx="30.1" ry="26.8"/>
		<path class="st0" d="M248.9,356v-74c0-8.6,8.4-15.6,18.6-15.6h82.8c10.2,0,18.6,7,18.6,15.6v74"/>
		<line class="st0" x1="274.7" y1="289.5" x2="274.7" y2="342"/>
		<line class="st0" x1="344.7" y1="289.5" x2="344.7" y2="342"/>
	</g>
	<path class="st0" d="M282,164.9h-62.8h-19.6l-6.3,25.6l-27.1-25.6H94.6c-6,0-11-4.5-11-10.2V20.4c0-5.6,4.9-10.2,11-10.2H282
		c6,0,11,4.5,11,10.2v134.4C293,160.4,288,164.9,282,164.9z"/>
	<path class="st0" d="M188.3,51.9c8.6-8.2,14.6-15.4,27.6-16.8c24.7-2.6,47.4,20.8,34.8,43.8c-3.6,6.6-10.7,14.4-18.7,22
		c-8.7,8.5-18.4,16.7-25.3,22.9l-18.6,17.1l-15.3-13.6c-18.3-16.4-48.4-37.1-49.4-62.8c-0.7-18,14.6-29.5,32.1-29.3
		C171.4,35.5,178,42.8,188.3,51.9z"/>
</g>
</svg>
