<?xml version="1.0" encoding="utf-8"?>
<!-- Generator: Adobe Illustrator 23.0.1, SVG Export Plug-In . SVG Version: 6.00 Build 0)  -->
<svg version="1.1" id="Layer_1" xmlns="http://www.w3.org/2000/svg" xmlns:xlink="http://www.w3.org/1999/xlink" x="0px" y="0px"
	 viewBox="0 0 384 384" style="enable-background:new 0 0 384 384;" xml:space="preserve">
<style type="text/css">
	.st0{fill:#808080;}
</style>
<path class="st0" d="M353.8,23.1h-322c-13,0.5-17.6,10.6-17.4,21.3V287c0.6,1.5,1.2,3.1,1.7,4.6c1.3,3.8,2.6,7.3,4.6,10.1
	c4.3,6.1,11,7.4,15.8,7.4c6.7,0,13.4,0,20.5,0c3.2,0,6.5,0,9.9,0h4.8v41.7c0,1.4,0,2.9,0.1,4.3c0.1,3.4,0.2,7-0.2,10.6
	c-0.4,3.7,0.7,6.3,3.7,9h3.1c5.2-4.6,10.5-9.1,15.7-13.5c13.1-11.2,26.6-22.8,38.9-35c12.7-12.6,26.2-17.8,44.9-17.5
	c30,0.6,60.5,0.5,90.1,0.4c23.7-0.1,48.2-0.1,72.4,0.2c16.9,0.2,27.4-3.3,31.1-21.8v-243C371,33.4,366.8,23.2,353.8,23.1z
	 M359.5,218.8c0,21.6,0,43.2,0,64.8c0,11.7-3.6,15.1-15.9,15.2l-27.8,0c-52.5,0-106.8,0.1-160.3-0.1c-5.9,0-10,1.5-14.2,5.4
	c-11.5,10.5-23.1,20.8-35.4,31.7c-4.9,4.3-9.9,8.7-15,13.3l-7.9,7v-10.6c0-4.5,0-8.7,0-12.8c0-8.7,0-16.8,0-24.9
	c-0.1-8.2-1-9-9.4-9.1l-6.3,0c-8.6,0-17.5-0.1-26.2,0.1c-4.9,0.1-8.6-1.1-11.1-3.5c-2.5-2.4-3.7-5.9-3.7-10.6
	c0.1-83.1-0.9-161.5-1-237.6c0-4.7,1.1-8.2,3.5-10.5c3.2-3.2,7.8-3.6,11-3.6c108.6,0.1,211.1,0.1,307.1,0c0,0-1,0-1,0
	c3.2,0,8.9,0.4,12.1,3.6c3.2,3.3,3.6,7.9,3.6,11C361.5,104.4,359.5,163,359.5,218.8z"/>
<path class="st0" d="M292.4,81.1c-0.7,0-1.4,0-2.2,0l-1,0l-29.4,0c-53.9,0-107.9,0-161.8-0.1l-1.1,0c-0.4,0-0.8,0-1.1,0
	c-1.9,0-3.6,0-5.3,0.2c-3.3,0.4-4.5,1.7-4.5,5.1c0,2.6,0.8,4.4,4.9,5.2c1.2,0.2,2.7,0.2,4.3,0.1c0.7,0,1.4,0,2.2,0c0,0,0,0,0,0
	c26.8,0,53.6,0,80.3,0l16.1,0l27,0c24,0,47.9,0,71.9,0c3.8,0,8.3-0.9,8.3-5.2C300.8,85.1,300.8,81.4,292.4,81.1z"/>
<path class="st0" d="M270.8,147.2c3.3,0,5.9-0.9,7.1-2.5c0.8-1,0.9-2.4,0.3-4.2c-0.8-2.6-2.3-3.8-8.4-3.8c0,0,0,0-0.1,0
	c-39,0.1-78.7,0.1-117.1,0.1c-19,0-38,0-57,0l-1,0c-0.3,0-0.6,0-0.9,0c-1.3,0-2.4,0-3.4,0.3c-1.9,0.5-3.5,2-4,3.8
	c-0.2,0.9-0.3,2.2,0.8,3.3c1.5,1.5,5.1,2.8,8.1,2.8c22,0.3,44.4,0.2,66.1,0.2c7.3,0,14.7,0,22,0c8,0,15.9,0,23.9,0
	C228,147.3,249.5,147.3,270.8,147.2z"/>
<path class="st0" d="M211.9,192.4c-38.9-0.1-78.7-0.1-118.3,0c-3.2,0-5.5,0.7-6.7,1.8c-0.3,0.3-1.2,1.2-1.1,3.8c0,2,0.1,5.1,8.3,5.1
	c13.9,0,27.8,0,41.7,0l17,0l16.9,0c14,0,27.9,0,41.9,0c8.2,0,8.2-3.8,8.3-5.2c0-2.5-0.8-3.3-1.1-3.6
	C217.7,193,215.2,192.4,211.9,192.4z"/>
<path class="st0" d="M211.9,248c-38.9-0.1-78.7-0.1-118.3,0c-3.2,0-5.5,0.7-6.7,1.8c-0.3,0.3-1.2,1.2-1.1,3.8c0,2,0.1,5.1,8.3,5.1
	c13.9,0,27.8,0,41.7,0l17,0l16.9,0c14,0,27.9,0,41.9,0c8.2,0,8.2-3.8,8.3-5.2c0-2.5-0.8-3.3-1.1-3.6
	C217.7,248.7,215.2,248,211.9,248z"/>
</svg>
