<?xml version="1.0" encoding="utf-8"?>
<!-- Generator: Adobe Illustrator 23.0.1, SVG Export Plug-In . SVG Version: 6.00 Build 0)  -->
<svg version="1.1" id="Layer_1" xmlns="http://www.w3.org/2000/svg" xmlns:xlink="http://www.w3.org/1999/xlink" x="0px" y="0px"
	 viewBox="0 0 381.5 381.5" style="enable-background:new 0 0 381.5 381.5;" xml:space="preserve">
<style type="text/css">
	.st0{fill:#9A9A9A;}
</style>
<g>
	<path class="st0" d="M377.3,355.2c-0.7-0.8-1.5-1.6-2.3-2.4c-2.7-2.7-5.5-5.4-6.1-10c-0.1-0.5-0.9-1.4-1.6-2
		c-0.2-0.2-0.3-0.3-0.5-0.5l-4.7-4.8c-12.2-12.3-24.9-25-37.5-37.3c-1-1-2.4-1.6-3.9-2.3c-0.7-0.3-1.5-0.7-2.2-1.1
		c-0.3-0.2-0.6-0.3-1-0.5c-0.8-0.4-1.7-0.8-2.4-1.5c-4.7-4.6-9.8-9.6-14.6-14.6c-1.1-1.1-1.6-3.4-1.2-5c1.5-5.9,0.3-10.7-3.7-14.7
		c-1.4-1.4-2.9-2.8-4.4-4.3c-0.7-0.7-1.4-1.4-2.1-2.1l-0.7-0.7l0.5-0.9l3.9-6.5l7.2-11.8l0.6-0.9l1,0.4c3.5,1.5,3.5,4.5,3.5,6.7
		c0,0.3,0,0.7,0,1c0.3,9.1,6.7,15.8,15.3,15.8c1.5,0,3.1-0.2,4.7-0.6c7.1-1.9,11.2-7.7,11.3-16.1c0.1-6.3,0.1-12.7,0-18.9
		c0-2.7,0-5.4,0-8.1l0-18.3c0-37.3,0-75.8,0-113.7c0-0.3,0-0.7,0-1c0-1.2,0.1-2.7-0.4-3.3c-1.3-1.7-3.2-2.9-4.6-3.1
		c-0.1,0-0.3,0-0.4,0c-1.7,0-3,1.4-3.2,3.5c-0.1,1.1-0.1,2.2-0.1,3.4c0,0.3,0,0.6,0,0.9l0,47.4c0,36.3,0,72.6,0,108.9
		c0,1.7,0,3.4-0.4,5.1c-0.8,3.2-3.1,5.1-6.4,5.1c-0.3,0-0.6,0-0.9,0c-3.5-0.3-5.6-2.5-6-5.9c-0.1-1.1-0.1-2.2-0.1-3.3l0-0.6
		c0-72.7,0-145.5,0-218.2c0-4.5,0.8-9.7,6.7-9.8l0.2,0c6.9,0,6.9,7.5,6.9,9.9c0,3.5,0,7,0,10.5c0,6.4,0,13,0,19.5
		c0,5.7,3.2,5.8,4.2,5.8l0.1,0c3.6,0,4.4-3.2,4.4-6l0-5.5c0-8.6,0.1-17.6,0-26.3c-0.1-9.8-6.4-16.6-15.3-16.6
		c-1.5,0-3.1,0.2-4.6,0.6c-7,1.8-11.2,7.4-11.1,14.8c0,4-1.2,6.9-4.1,9.4c-6.3,5.6-12.7,11.3-18.9,16.9l-7,6.2l-0.8,0.7l-0.8-0.7
		c-2.5-2.1-4.9-4.1-7.1-6.1c-4.8-4.2-9.4-8.1-14.3-11.7C224.7,10.2,194.5,0,162.5,0h0c-7.1,0-14.5,0.5-21.8,1.5
		c-53.1,7.2-93.6,34-120.5,79.6C9.2,99.6,2.7,121,0.7,144.5c-0.1,0.9-0.3,1.8-0.5,2.7c-0.1,0.3-0.1,0.7-0.2,1v23
		c0.4,2.3,0.7,4.6,1,6.8c0.7,4.9,1.3,9.9,2.5,14.7c13.3,56.2,47.8,94.9,102.7,115.1c18.7,6.9,37.4,10.4,55.5,10.4
		c29.9,0,59.1-9.5,86.8-28.1c0.5-0.3,1-0.6,1.4-0.8c0.3-0.1,0.5-0.2,0.9-0.3c0.2,0,0.4-0.1,0.7-0.2l0.7-0.2l0.5,0.6
		c0.6,0.6,1.2,1.3,1.8,2c1.4,1.5,2.8,3.1,4.3,4.6c2.9,2.8,6.1,4.3,9.7,4.3c1.5,0,3-0.2,4.6-0.7c0.7-0.2,1.4-0.3,2-0.3
		c1.8,0,2.9,1,3.9,1.9c2.5,2.6,5,5.1,7.5,7.6c1.2,1.2,2.4,2.4,3.6,3.6c0.3,0.3,0.6,0.6,0.9,0.9c2.3,2.2,4.6,4.5,4.9,8.5
		c0.1,0.9,1.3,2.2,2.3,3.1l0.3,0.3l0.5,0.5c13.5,13.6,27.5,27.6,41.4,41.3c1,1,2.4,1.6,3.9,2.3c0.8,0.4,1.7,0.8,2.5,1.2
		c0.2,0.1,0.4,0.2,0.6,0.3c1.1,0.6,2.3,1.3,3.3,2.3c3.8,3.9,7.3,7.3,12.1,8.9h6.3c4.4-1.6,9.1-4,11.2-9.5
		C382.7,365.7,381.7,360.2,377.3,355.2z M289.7,46.4c3.2-2.5,6.5-5.2,9.8-7.7c0.6-0.5,1.2-1,2-1.6c0.4-0.4,0.9-0.8,1.4-1.2l2.1-1.7
		v2.7v182v2.1l-1.9-1c-0.2-0.1-0.4-0.2-0.6-0.3c-0.4-0.2-0.8-0.4-1.1-0.7c-28.7-25.5-62.6-44.6-103.6-58.3c-4.2-1.4-5.6-3.4-5.6-7.7
		c0.3-17.2,0.3-34.1,0-50.2c-0.1-4.8,2-6.4,5.7-7.6c20.1-6.4,46.1-15.8,69.6-31.8C275.1,58,282.5,52.1,289.7,46.4z M166.9,169.1
		c-2.7,0-5.3,0-8,0c-6.1,0-10.7-0.1-15.1-0.3c-21.4-1-38.3-18.9-38.5-40.7c-0.2-22,16.5-40.2,38.1-41.5c4.7-0.3,9.8-0.4,16.4-0.4
		c3,0,6,0,8.9,0c2.3,0,4.7,0,7,0c5.4,0,7.8,2.6,7.8,8.4c0,7.8,0,15.7,0,23.4c0,3.2,0,6.4,0,9.6c0,3.1,0,6.2,0,9.4
		c0,7.6,0,15.5,0,23.2c0,6.4-2.3,8.8-8.6,8.8h-0.1C172.3,169.1,169.6,169.1,166.9,169.1z M169.4,224.2c-0.2,9.5-8.3,17.2-18,17.2
		l-0.3,0c-9.5-0.1-17.6-7.9-17.7-17c-0.2-11-0.1-22.1-0.1-32.9c0-4.2,0-8.3,0-12.5c0-0.3,0.1-1,0.5-1.4l0.4-0.4l0.5,0l0.6,0l0.1,0.1
		h31.8h0.6l0.4,0.5c0.2,0.3,0.4,0.6,0.6,0.7c0.3,0.4,0.6,0.7,0.6,1.3c0,4.1,0,8.2,0.1,12.3C169.5,202.7,169.5,213.6,169.4,224.2z
		 M178.2,181.6c0-0.9,0-1.7,0-2.6v-1l1-0.2c5.6-1.4,9.3-4.3,11.8-9.3l0.5-1l1,0.4c1,0.3,2,0.7,3,1c2.7,0.9,5.6,1.9,8.3,3
		c1.4,0.6,2.2,2.8,2.2,4.1c0,4.4-1.8,8.7-5.1,12c-3.6,3.6-8.4,5.6-13.2,5.6c-2.2,0-4.4-0.4-6.4-1.3c-1.5-0.6-2.9-2.6-3-4.2
		C178.1,186,178.1,183.7,178.2,181.6z M240.4,284.8C216,300.6,187.9,309,159.2,309c-68.6,0-128.5-46.3-145.7-112.5
		C-6.2,120.3,35,43.6,109.3,18c18-6.2,35.8-9.4,52.8-9.4c27.5,0,54,8.2,78.8,24.2c5.8,3.8,11.1,8.1,16.6,12.7c2.6,2.1,5.3,4.3,8,6.5
		l1.4,1.1l-1.5,0.9l-5.1,3.2l-4.5,2.9l-0.7,0.4l-0.7-0.5c-3-2.2-6-4.5-8.9-6.7c-6.3-4.8-12.2-9.3-18.8-13
		c-21.9-12.2-44.2-18.3-66.5-18.3c-24,0-48.3,7.1-72.3,21.2c-17.7,10.4-32,23.4-42.7,38.8C34.5,97.7,27.5,115.8,24.4,136
		c-7.2,46.4,6,86.9,39.3,120.5c1.4,1.4,2.9,2.2,4.3,2.2c1,0,2-0.4,2.8-1.2c0.8-0.8,1.3-1.8,1.3-2.8c0-1.4-0.8-2.9-2.2-4.3
		c-19.1-18.8-31.3-41.2-36.2-66.4C21.5,120.2,55.5,60.7,116.4,39.2c15.5-5.4,30.7-8.2,45.4-8.2c27.3,0,53.3,9.6,77.1,28.4
		c1.3,1,2.5,2.1,3.7,3.2c0.6,0.5,1.1,1,1.7,1.5l1.1,1l-1.2,0.9c-6.7,5.1-34.6,16.8-51.5,21.5l-0.9,0.2l-0.5-0.7
		c-0.2-0.3-0.4-0.6-0.6-0.9c-0.4-0.7-0.9-1.3-1.4-2c-3-4.1-6.3-6.2-9.8-6.2c-3.3,0-6.6-0.1-9.8-0.1c-3.8-0.1-7.7-0.1-11.6-0.1
		c-8.7,0-15.3,0.4-21.4,1.2c-19.7,2.6-35.5,18.7-39.2,40c-3.7,21.1,5.1,40.8,22.9,51.3c3,1.8,4.1,3.8,4.1,7.3
		c-0.1,15.5-0.2,30.7,0,45.7c0.2,15,11.9,26.8,26.5,26.8c4.1,0,8.2-0.9,12.2-2.8c9.5-4.5,14.6-12.8,15-24.6c0.1-4.5,0.1-9,0.1-13.7
		c0-2.1,0-4.3,0-6.5v-1.6l1.5,0.4c2.8,0.7,5.6,1,8.2,1c5.4,0,10.3-1.5,14.8-4.5c7-4.7,11-11.3,12.1-20.1l0.2-1.7l1.5,0.7
		c1.6,0.7,3.3,1.4,4.8,2.1c3.5,1.5,6.8,2.9,10,4.7c8,4.5,16.1,9.2,23.9,13.7c5.5,3.2,11.3,6.6,16.9,9.8c3.5,2,3,4.4,1.9,6.7
		c-17.1,35.8-46,58.9-85.9,68.7c-10.7,2.7-21.4,4-31.8,4c-22.4,0-43.9-6.3-63.9-18.6c-1.4-0.8-2.7-1.3-3.8-1.3
		c-1.4,0-2.5,0.6-3.3,1.9c-0.7,1.1-0.9,2.1-0.7,3.1c0.3,1.3,1.5,2.6,3.4,3.7c23.1,13.3,46.6,20.1,70,20.1c24.1,0,48.7-7.2,73.1-21.4
		c21.4-12.4,38.1-30.8,49.8-54.6c0.3-0.5,0.5-1,0.9-1.7c0.2-0.4,0.4-0.8,0.7-1.3l0.7-1.4l1.2,1c0.7,0.6,1.5,1.2,2.2,1.8
		c2,1.6,3.9,3.1,5.6,4.9c1.2,1.3,0.4,4.2-0.2,5.3C279.9,251.4,262.5,270.5,240.4,284.8z M278.4,283.9c-1.5,1.5-3.1,3.1-4.6,4.6
		c-1.4,1.4-3,2.7-4.9,2.7c-1.9,0-3.5-1.3-5-2.8c-1-0.9-2-1.8-3.1-2.7c-0.5-0.5-1.1-0.9-1.7-1.4l-1-0.9l1-0.9
		c1.3-1.2,2.6-2.4,3.9-3.6c2.8-2.6,5.5-5.1,8.1-7.6c2.5-2.5,4.9-5.2,7.5-7.9c1.1-1.2,2.2-2.4,3.3-3.6l0.5-0.6l0.7,0.2
		c0.1,0,0.2,0.1,0.3,0.1c0.2,0.1,0.5,0.1,0.8,0.4l0.4,0.4c4.3,4.1,6.5,6.1,6.5,8.6c0,2.5-2.2,4.7-6.4,8.7
		C282.7,279.5,280.5,281.8,278.4,283.9z M301.7,308.4l-0.9,0.9l-0.9-0.9l-15.9-15.8l-0.9-0.9l1-0.9l2.7-2.4l4.5-4l0.9-0.8l0.8,0.8
		l15.6,15.6l0.9,0.9l-0.9,0.9l-6.2,6L301.7,308.4z M347.5,359.1l-0.9,0.9l-0.9-0.9l-16.8-16.8l-22.8-22.9l-0.9-0.9l0.9-0.9
		l11.7-11.7l0.9-0.9l0.9,0.9l14.2,14.2l25.4,25.4l0.9,0.9l-0.9,0.9l-4.8,4.8L347.5,359.1z M372.5,366.9c-0.3,2.2-2.6,4.4-4.5,5.4
		c-0.8,0.4-1.5,0.6-2.3,0.6c-2.8,0-5.5-2.6-9.8-7.6l-0.7-0.9l0.8-0.8l2.7-2.7l5.1-5.1l1-1l0.9,1.2c0.7,0.9,1.6,1.7,2.6,2.6
		C370.6,360.5,373.2,362.7,372.5,366.9z"/>
</g>
</svg>
