<?xml version="1.0" encoding="utf-8"?>
<!-- Generator: Adobe Illustrator 23.0.1, SVG Export Plug-In . SVG Version: 6.00 Build 0)  -->
<svg version="1.1" id="Layer_1" xmlns="http://www.w3.org/2000/svg" xmlns:xlink="http://www.w3.org/1999/xlink" x="0px" y="0px"
	 viewBox="0 0 384 384" style="enable-background:new 0 0 384 384;" xml:space="preserve">
<style type="text/css">
	.st0{fill:#808080;}
</style>
<g>
	<path class="st0" d="M351.9,6.7c2.2,1.6,3,3.8,3,6.5c-0.1,102.7,0,205.5-0.2,308.2c0,2.1-1.1,4.8-2.6,6.3
		c-15.8,16-31.7,31.9-47.8,47.6c-1.5,1.5-4.2,2.6-6.3,2.6C210.9,378,123.7,378,36.6,378c-5.2,0-6.7-1.4-6.7-6.6
		c0-102.6,0-205.2,0.1-307.8c0-2.2,0.9-4.9,2.4-6.4C48.2,41,64.3,25.1,80.2,9.1c0.8-0.8,1.7-1.6,2.6-2.4
		C172.5,6.7,262.2,6.7,351.9,6.7z M89.3,16.1c0,1.5,0,2.8,0,4.1c0,12.9,0,25.9,0,38.8c0,5.6-1.5,7-7.1,7c-12.9,0-25.9,0-38.8,0
		c-1.3,0-2.6,0-3.9,0c0,101.1,0,201.8,0,302.4c85.5,0,170.6,0,256,0c0-1.6,0-2.9,0-4.2c0-12.9,0-25.9,0-38.8c0-5.4,1.5-6.9,6.9-6.9
		c13.1,0,26.1,0,39.2,0c1.3,0,2.5,0,3.8,0c0-101.2,0-201.8,0-302.5C259.9,16.1,174.8,16.1,89.3,16.1z M79.7,56.7
		c0-11.4,0-22.4,0-32.3C69,34.9,58,45.9,47,56.7C57.6,56.7,68.5,56.7,79.7,56.7z M305,328.1c0,11.3,0,22.2,0,32.5
		c10.7-10.9,21.6-21.9,32-32.5C327,328.1,316.1,328.1,305,328.1z"/>
	<path class="st0" d="M265.9,150c-18.8,0-37.7,0-56.5,0c-6.5,0-7.6-1.1-7.6-7.6c0-23.1,0-46.1,0-69.2c0-5.5,1.4-6.9,6.8-6.9
		c38.4,0,76.8,0,115.2,0c5.2,0,6.7,1.4,6.7,6.7c0,23.4,0,46.9,0,70.3c0,5.5-1.3,6.8-7,6.8C304.3,150,285.1,150,265.9,150z
		 M321.2,75.7c-36.8,0-73.3,0-109.9,0c0,21.7,0,43.3,0,64.8c36.8,0,73.3,0,109.9,0C321.2,118.9,321.2,97.5,321.2,75.7z"/>
	<path class="st0" d="M315.3,271.3c0.1,24.9-20.3,45.5-45.3,45.6c-24.8,0.2-45.5-20.3-45.7-45.3c-0.2-25,20.4-45.8,45.5-45.8
		C294.8,225.9,315.2,246.3,315.3,271.3z M247.6,242.8c8,7.9,15.5,15.5,23.2,23c0.8,0.8,2.4,1,3.6,1c8,0.1,15.9,0,23.9,0
		c2.4,0,4.7,0,7.4,0c-2.4-14-9.6-23.7-22.1-28.9C271.1,232.8,259.2,234.6,247.6,242.8z M241.3,249.4c-14.2,17.7-7.5,44.3,11.2,53.4
		c3.8-9.6,7.5-19.1,11.2-28.6c0.3-0.8-0.1-2.4-0.7-3.1C255.9,263.9,248.7,256.8,241.3,249.4z M305.3,276c-10.4,0-20.7,0-31.1,0.1
		c-0.7,0-1.7,1.2-2,2.1c-1.8,4.3-3.5,8.7-5.2,13.1c-2,5-3.9,10-5.9,15.1C282.7,312.4,304.3,295.3,305.3,276z"/>
	<path class="st0" d="M96.1,187.7c4.4-7.7,8.5-14.8,12.6-21.8c3.4-5.8,7-5.8,10.3,0c10.2,17.7,20.4,35.3,30.6,53
		c3.4,6,1.6,9.1-5.3,9.1c-26.3,0-52.7,0-79,0c-6.6,0-8.4-3.2-5.1-9c7.2-12.6,14.5-25.1,21.7-37.6c3.4-5.9,6.9-5.9,10.3-0.1
		C93.4,183.1,94.6,185.1,96.1,187.7z M138.8,218.5c-8.5-14.6-16.6-28.7-25-43.3c-8.5,14.7-16.6,28.8-24.9,43.3
		C105.8,218.5,122,218.5,138.8,218.5z M71.3,218.2c6.5,1.1,6.5,1.1,9.5-4c2.5-4.4,5.1-8.8,7.6-13.1c2.8-4.8,2.6-5.6-1.5-9.8
		C81.6,200.2,76.5,209.1,71.3,218.2z"/>
	<path class="st0" d="M228.4,29.8c5.4,0,10.9,0,16.3,0c3.6,0,5.8,1.8,5.6,4.6c-0.3,3.3-2.5,4.4-5.5,4.4c-11,0-22,0-32.9,0
		c-3.7,0-5.7-1.9-5.7-4.7c0.1-2.8,2.2-4.4,5.9-4.4C217.5,29.8,223,29.8,228.4,29.8z"/>
	<path class="st0" d="M156.7,29.8c5.4,0,10.9,0,16.3,0c3.1,0,5.2,1.2,5.5,4.4c0.2,2.7-1.9,4.6-5.3,4.6c-11.2,0.1-22.4,0-33.7,0
		c-2.9,0-4.9-1.3-5.1-4.4c-0.2-2.7,1.9-4.6,5.3-4.6C145.3,29.7,151,29.8,156.7,29.8z"/>
	<path class="st0" d="M157.1,29.8c5.4,0,10.9,0,16.3,0c3.1,0,5.2,1.2,5.5,4.4c0.2,2.7-1.9,4.6-5.3,4.6c-11.2,0.1-22.4,0-33.7,0
		c-2.9,0-4.9-1.3-5.1-4.4c-0.2-2.7,1.9-4.6,5.3-4.6C145.8,29.7,151.4,29.8,157.1,29.8z"/>
	<path class="st0" d="M190.9,33c0,1.8,0.1,3.6,0,5.4c-0.2,2.6-1.8,4.3-4.4,4.4c-2.5,0.1-4.3-1.4-4.5-3.8c-0.3-3.9-0.3-7.9,0-11.9
		c0.2-2.4,1.9-3.9,4.5-3.8c2.7,0.1,4.2,1.7,4.5,4.3C191,29.4,190.8,31.2,190.9,33C190.8,33,190.9,33,190.9,33z"/>
	<path class="st0" d="M193.9,33c0-1.8-0.2-3.6,0-5.4c0.3-2.6,1.8-4.2,4.5-4.2c2.6,0,4.2,1.5,4.4,3.9c0.3,3.9,0.3,7.9-0.1,11.9
		c-0.2,2.4-2.2,4.2-4.5,3.6c-1.7-0.5-3.5-2.3-4.2-4C193.3,37.1,193.9,34.9,193.9,33C193.9,33,193.9,33,193.9,33z"/>
	<path class="st0" d="M236.4,110.3c-3.5,3.7-6.6,7.1-9.8,10.4c-2.6,2.6-5.3,2.9-7.3,1.1c-2.2-2-1.9-4.7,0.9-7.6
		c4.1-4.1,8.2-8.2,12.3-12.3c3.1-3,5.2-3,8.4,0.1c5.9,5.8,11.7,11.8,17.8,17.8c5.7-5.7,11.1-11.2,16.6-16.6
		c5.2-5.2,10.4-10.4,15.6-15.6c2.8-2.8,5.2-2.9,7.9-0.2c4.8,4.6,9.5,9.3,14.1,14.1c2.3,2.4,2.4,5.3,0.3,7c-2.4,2-4.7,1.5-6.8-0.5
		c-3.8-3.7-7.5-7.5-11.4-11.5c-4.5,4.6-8.9,8.9-13.2,13.3c-4.4,4.4-8.7,8.7-13.1,13.1c-10.8,10.9-9.4,10.7-20.2-0.1
		C244.6,118.7,240.8,114.8,236.4,110.3z"/>
	<path class="st0" d="M74.8,106H55.3c-2.3,0-4.2-1.9-4.2-4.2v0c0-2.3,1.9-4.2,4.2-4.2h19.5c2.3,0,4.2,1.9,4.2,4.2v0
		C79.1,104.1,77.2,106,74.8,106z"/>
	<path class="st0" d="M174,106H85.3c-2.3,0-4.2-1.9-4.2-4.2v0c0-2.3,1.9-4.2,4.2-4.2H174c2.3,0,4.2,1.9,4.2,4.2v0
		C178.2,104.1,176.3,106,174,106z"/>
	<path class="st0" d="M174,124H55.7c-2.3,0-4.2-1.9-4.2-4.2v0c0-2.3,1.9-4.2,4.2-4.2H174c2.3,0,4.2,1.9,4.2,4.2v0
		C178.2,122.1,176.3,124,174,124z"/>
	<path class="st0" d="M217.8,190.2h-19.5c-2.3,0-4.2-1.9-4.2-4.2v0c0-2.3,1.9-4.2,4.2-4.2h19.5c2.3,0,4.2,1.9,4.2,4.2v0
		C222.1,188.3,220.2,190.2,217.8,190.2z"/>
	<path class="st0" d="M317,190.2h-88.6c-2.3,0-4.2-1.9-4.2-4.2v0c0-2.3,1.9-4.2,4.2-4.2H317c2.3,0,4.2,1.9,4.2,4.2v0
		C321.2,188.3,319.3,190.2,317,190.2z"/>
	<path class="st0" d="M317,208.2H198.7c-2.3,0-4.2-1.9-4.2-4.2v0c0-2.3,1.9-4.2,4.2-4.2H317c2.3,0,4.2,1.9,4.2,4.2v0
		C321.2,206.3,319.3,208.2,317,208.2z"/>
	<path class="st0" d="M88.6,266.7H69.1c-2.3,0-4.2-1.9-4.2-4.2l0,0c0-2.3,1.9-4.2,4.2-4.2h19.5c2.3,0,4.2,1.9,4.2,4.2l0,0
		C92.8,264.7,90.9,266.7,88.6,266.7z"/>
	<path class="st0" d="M187.7,266.7H99.1c-2.3,0-4.2-1.9-4.2-4.2l0,0c0-2.3,1.9-4.2,4.2-4.2h88.6c2.3,0,4.2,1.9,4.2,4.2l0,0
		C192,264.7,190.1,266.7,187.7,266.7z"/>
	<path class="st0" d="M187.7,284.7H69.5c-2.3,0-4.2-1.9-4.2-4.2l0,0c0-2.3,1.9-4.2,4.2-4.2h118.2c2.3,0,4.2,1.9,4.2,4.2l0,0
		C192,282.7,190.1,284.7,187.7,284.7z"/>
	<path class="st0" d="M174.4,357.2h-35.6c-2.3,0-4.2-1.9-4.2-4.2l0,0c0-2.3,1.9-4.2,4.2-4.2h35.6c2.3,0,4.2,1.9,4.2,4.2l0,0
		C178.6,355.3,176.7,357.2,174.4,357.2z"/>
	<path class="st0" d="M246,357.5h-35.6c-2.3,0-4.2-1.9-4.2-4.2v0c0-2.3,1.9-4.2,4.2-4.2H246c2.3,0,4.2,1.9,4.2,4.2v0
		C250.3,355.6,248.4,357.5,246,357.5z"/>
	<path class="st0" d="M194.7,356.9V346c0-2.3,1.9-4.2,4.2-4.2h0c2.3,0,4.2,1.9,4.2,4.2v10.9c0,2.3-1.9,4.2-4.2,4.2h0
		C196.6,361.1,194.7,359.2,194.7,356.9z"/>
	<path class="st0" d="M181.7,356.9V346c0-2.3,1.9-4.2,4.2-4.2h0c2.3,0,4.2,1.9,4.2,4.2v10.9c0,2.3-1.9,4.2-4.2,4.2h0
		C183.6,361.1,181.7,359.2,181.7,356.9z"/>
</g>
</svg>
