<?xml version="1.0" encoding="utf-8"?>
<!-- Generator: Adobe Illustrator 23.0.1, SVG Export Plug-In . SVG Version: 6.00 Build 0)  -->
<svg version="1.1" id="Layer_1" xmlns="http://www.w3.org/2000/svg" xmlns:xlink="http://www.w3.org/1999/xlink" x="0px" y="0px"
	 viewBox="0 0 384 384" style="enable-background:new 0 0 384 384;" xml:space="preserve">
<style type="text/css">
	.st0{fill:none;stroke:#808080;stroke-width:10;stroke-miterlimit:10;}
	.st1{fill:none;stroke:#808080;stroke-width:7;stroke-miterlimit:10;}
	.st2{fill:none;stroke:#808080;stroke-width:4;stroke-miterlimit:10;}
</style>
<path class="st0" d="M192.4,60.6c-31.4,0-62.7,0-94.1,0c-24.1,0-48.2,0-72.3,0c-9.5,0-17.4,7.7-17.4,17c0,76.4,0,152.8,0,229.1
	c0,1.4,0.2,2.8,0.6,4.1c2.1,7.9,9,13,17.4,13c110.4,0,220.8,0,331.2,0c0.2,0,0.4,0,0.6,0c9.8-0.1,17.5-7.9,17.5-17.7
	c0-76,0-152,0-228c0-9.7-7.8-17.5-17.6-17.5C303.1,60.6,247.8,60.6,192.4,60.6z"/>
<path class="st1" d="M341.5,192.2c0,3.4,0,6.7,0,10.1c0,6.4,4.9,11.3,11.2,11.3c6.2,0,11-5,11-11.4c0-6.7,0-13.5,0-20.2
	c0-6.3-4.9-11.2-11.2-11.2c-6.2,0-11,4.9-11.1,11.1C341.5,185.3,341.5,188.8,341.5,192.2z M34.5,203.2c0-4.1,0.1-8.2,0-12.3
	c0-2.5-1.8-4.1-4-4.1c-2.2,0-4.1,1.7-4.1,4.1c-0.1,8.3-0.1,16.6,0,24.9c0,2.4,1.8,4.1,4.1,4c2.3,0,4-1.8,4-4.5
	C34.5,211.2,34.5,207.2,34.5,203.2z M34.5,172.6C34.5,172.6,34.5,172.6,34.5,172.6c0-1.3,0.1-2.6,0-3.8c-0.2-2.3-1.9-3.9-4-3.9
	c-2.2,0-3.9,1.6-4,3.9c-0.1,2.5-0.1,5,0,7.5c0.1,2.3,2,3.9,4.1,3.9c2.1-0.1,3.8-1.7,3.9-3.9C34.6,175.1,34.5,173.9,34.5,172.6z"/>
<path class="st0" d="M39.3,234.7c0,21.7,0,43.3,0,65c96.5,0,192.9,0,289.3,0c0-71.7,0-143.3,0-214.9c-96.5,0-192.9,0-289.3,0
	c0,21.7,0,43.3,0,65c0.2,0.1,0.5,0.2,0.7,0.3c8.9,2.8,13.8,9.5,13.8,18.8c0,15.8,0,31.6,0,47.4c0,2.9-0.5,5.8-1.8,8.4
	C49.3,229.8,45,233.2,39.3,234.7z"/>
<path class="st2" d="M89,107c-3.4-0.6-6.6-1.2-9.7-1.8c-2.5-0.5-4.5,0.9-4.9,3.4c-0.1,0.6-0.1,1.2-0.1,1.8c0,50.8,0,101.7,0,152.5
	c0,0.4,0,0.9,0,1.3c0.1,2.5,1.4,4,3.8,4.4c13.9,2.6,27.9,5.1,41.8,7.7c22.1,4.1,44.1,8.1,66.2,12.1c2.8,0.5,5.6,1.4,8.7,0.8
	c13-2.5,26-4.8,38.9-7.2c24.2-4.4,48.5-8.9,72.7-13.4c2.8-0.5,3.9-1.8,3.9-4.5c0-51.5,0-103,0-154.4c0-3.2-2.1-4.9-5.2-4.3
	c-3.1,0.6-6.3,1.1-9.4,1.7c-0.1-0.2-0.1-0.3-0.1-0.4c0-2.5,0-5,0-7.5c0-2.7-2.1-4.4-4.8-4c-4.3,0.8-8.5,1.5-12.8,2.3
	c-26.7,4.9-53.5,9.8-80.3,14.7c-2.1,0.4-4.3,1.1-6.3,0.7c-15.7-2.7-31.3-5.7-47-8.5c-16.6-3-33.1-6-49.7-9.2
	c-3.9-0.7-5.9,1.8-5.7,4.8C89.1,102.3,89,104.6,89,107z"/>
<path class="st2" d="M89,107c0-2.5,0.1-4.8,0-7.1c-0.2-3.1,1.8-5.6,5.7-4.8c16.5,3.1,33.1,6.1,49.7,9.2c15.7,2.9,31.3,5.8,47,8.5
	c2,0.3,4.2-0.4,6.3-0.7c26.8-4.9,53.5-9.8,80.3-14.7c4.3-0.8,8.5-1.6,12.8-2.3c2.7-0.5,4.8,1.3,4.8,4c0,2.5,0,5,0,7.5
	c0,0.1,0.1,0.2,0.1,0.4c3.1-0.6,6.3-1.1,9.4-1.7c3.1-0.6,5.2,1.1,5.2,4.3c0,51.5,0,103,0,154.4c0,2.8-1.1,4-3.9,4.5
	c-24.2,4.4-48.5,8.9-72.7,13.4c-13,2.4-26,4.7-38.9,7.2c-3.1,0.6-5.8-0.3-8.7-0.8c-22.1-4-44.2-8.1-66.2-12.1
	c-13.9-2.6-27.9-5.1-41.8-7.7c-2.5-0.5-3.7-1.9-3.8-4.4c0-0.4,0-0.9,0-1.3c0-50.8,0-101.7,0-152.5c0-0.6,0-1.2,0.1-1.8
	c0.4-2.5,2.4-3.9,4.9-3.4C82.4,105.8,85.6,106.4,89,107z M188.1,120.6c-30.3-5.6-60.5-11.1-90.9-16.7c0,48.4,0,96.7,0,145.1
	c30.3,5.6,60.6,11.1,90.9,16.7C188.1,217.2,188.1,168.9,188.1,120.6z M196.6,120.5c0,48.5,0,96.8,0,145.2
	c30.4-5.6,60.6-11.1,90.8-16.6c0-48.5,0-96.8,0-145.1C257,109.4,226.8,114.9,196.6,120.5z M196.5,280.5
	c35.3-6.5,70.4-12.9,105.7-19.4c0-49.1,0-98,0-147.1 M82.4,114.1c0,49.1,0,98,0,147.1c35.3,6.5,70.5,12.9,105.7,19.4"/>
<path class="st2" d="M111.8,118.7c-0.6,0.2-1.6,0.4-2.3,1c-1.4,1-1.9,2.5-1.5,4.1c0.5,1.9,1.9,2.8,3.8,3.1
	c10.8,1.9,21.7,3.8,32.5,5.7c8.5,1.5,17.1,3,25.6,4.4c2.7,0.5,4.8-1.4,4.8-4c0-2.3-1.5-3.6-4.5-4.1c-15.2-2.6-30.4-5.3-45.6-7.9
	C120.5,120.2,116.3,119.5,111.8,118.7z M112.5,175.4c-2.5-0.1-4.3,1.4-4.6,3.5c-0.3,2.2,1.1,4.1,3.4,4.5c2.8,0.5,5.7,1,8.5,1.5
	c16.3,2.8,32.6,5.7,48.9,8.5c3.5,0.6,5.6-0.5,5.9-3.1c0.4-2.6-1.3-4.3-4.7-4.9c-14.5-2.5-29.1-5-43.6-7.6
	C121.7,177,117,176.2,112.5,175.4z M170.2,174.8c2.6,0,4.3-1.5,4.5-3.5c0.2-2.3-1.2-4.1-3.6-4.5c-11.5-2-23-4-34.6-6
	c-7.8-1.4-15.7-2.7-23.5-4.1c-2.5-0.4-4.6,0.8-5.1,3c-0.5,2.3,1,4.3,3.5,4.9c0.4,0.1,0.7,0.2,1.1,0.2c15.9,2.8,31.8,5.5,47.7,8.3
	C163.7,173.7,167.2,174.3,170.2,174.8z M170.1,155.9c2.3,0.1,3.6-0.8,4.3-2.3c1.2-2.6-0.5-5.2-3.7-5.8c-13.9-2.4-27.9-4.8-41.8-7.3
	c-5.4-0.9-10.8-1.9-16.3-2.8c-2.9-0.5-5,1.6-4.7,4.4c0.2,2.1,1.6,3.2,4.4,3.7c15.2,2.6,30.3,5.3,45.5,7.9
	C162,154.5,166.3,155.3,170.1,155.9z"/>
<path class="st2" d="M205.5,152c0,6.3,0,12.6,0,18.9c0,3.1,2,4.8,5.1,4.3c9-1.5,17.9-2.9,26.9-4.3c11.4-1.8,22.9-3.7,34.3-5.6
	c2.6-0.4,3.8-1.8,3.8-4.5c0-12.5,0-25,0-37.6c0-3.1-2.1-4.8-5.2-4.3c-20.3,3.3-40.6,6.6-60.9,9.9c-2.8,0.5-4,1.8-4,4.6
	C205.5,139.7,205.5,145.8,205.5,152z M213,211.1c0.3,0,0.9-0.1,1.4-0.2c13.9-2.4,27.8-4.8,41.7-7.3c5.4-0.9,10.7-1.8,16.1-2.9
	c2.2-0.4,3.4-2.3,3-4.5c-0.3-2.1-2-3.5-4.2-3.3c-0.7,0-1.4,0.2-2.1,0.3c-14.5,2.5-29,5.1-43.6,7.6c-4.5,0.8-9,1.5-13.4,2.3
	c-2.3,0.4-3.8,2.3-3.5,4.4C208.7,209.7,210.5,211.2,213,211.1z M275.3,178c-0.1-2.8-2.4-4.3-5.6-3.8c-8.4,1.5-16.8,2.9-25.3,4.4
	c-10.7,1.9-21.5,3.7-32.2,5.6c-2.6,0.5-4.1,2.4-3.8,4.7c0.4,2.4,2.4,3.7,5.2,3.2c9.5-1.6,19-3.3,28.4-4.9c9.8-1.7,19.7-3.4,29.5-5.1
	C273.9,181.8,275.4,180.1,275.3,178z M213,230c2.8-0.5,6-1,9.2-1.6c16.5-2.9,33-5.7,49.4-8.6c2.7-0.5,4.1-2.4,3.6-4.9
	c-0.4-2.3-2.5-3.5-5.2-3c-12.1,2.1-24.1,4.2-36.2,6.3c-7.3,1.3-14.6,2.5-22,3.8c-2.2,0.4-3.6,2.2-3.5,4.3
	C208.7,228.5,210.4,230,213,230z M275.4,234.7c0-2.8-2.4-4.4-5.5-3.9c-7.8,1.4-15.6,2.7-23.4,4.1c-11.5,2-22.9,4-34.4,6
	c-2.5,0.4-3.9,2.4-3.5,4.7c0.4,2.4,2.5,3.7,5.1,3.2c10.3-1.8,20.5-3.5,30.8-5.3c9.1-1.6,18.1-3.2,27.2-4.7
	C273.9,238.3,275.3,236.8,275.4,234.7z"/>
<path class="st2" d="M302.1,114.1c0,49,0,98,0,147.1c-35.2,6.5-70.3,12.9-105.7,19.4"/>
<path class="st2" d="M205.5,152c0-6.2,0-12.3,0-18.5c0-2.8,1.2-4.2,4-4.6c20.3-3.3,40.6-6.6,60.9-9.9c3.1-0.5,5.2,1.2,5.2,4.3
	c0,12.5,0,25,0,37.6c0,2.7-1.2,4.1-3.8,4.5c-11.4,1.9-22.9,3.7-34.3,5.6c-9,1.4-17.9,2.9-26.9,4.3c-3.1,0.5-5.1-1.2-5.1-4.3
	C205.5,164.6,205.5,158.3,205.5,152z"/>
</svg>
