<?xml version="1.0" encoding="utf-8"?>
<!-- Generator: Adobe Illustrator 23.0.1, SVG Export Plug-In . SVG Version: 6.00 Build 0)  -->
<svg version="1.1" id="Layer_1" xmlns="http://www.w3.org/2000/svg" xmlns:xlink="http://www.w3.org/1999/xlink" x="0px" y="0px"
	 viewBox="0 0 384 384" style="enable-background:new 0 0 384 384;" xml:space="preserve">
<style type="text/css">
	.st0{fill:#808080;}
</style>
<g>
	<path class="st0" d="M280,384c-57.3,0-104-46.7-104-104s46.7-104,104-104s104,46.7,104,104S337.3,384,280,384L280,384z M280,192
		c-48.5,0-88,39.5-88,88s39.5,88,88,88s88-39.5,88-88S328.5,192,280,192L280,192z M280,192"/>
	<path class="st0" d="M264,320c-2.1,0-4.2-0.8-5.7-2.3l-32-32c-3.1-3.1-3.1-8.2,0-11.3c3.1-3.1,8.2-3.1,11.3,0l26,26l50.4-57.6
		c2.9-3.3,8-3.7,11.3-0.8c3.3,2.9,3.7,8,0.8,11.3l-56,64c-1.5,1.7-3.6,2.7-5.8,2.7C264.2,320,264.1,320,264,320L264,320z M264,320"
		/>
	<path class="st0" d="M152,336H40c-22,0-40-17.9-40-40V88c0-22.1,18-40,40-40h32c4.4,0,8,3.6,8,8s-3.6,8-8,8H40
		c-13.2,0-24,10.8-24,24v208c0,13.2,10.8,24,24,24h112c4.4,0,8,3.6,8,8S156.4,336,152,336L152,336z M152,336"/>
	<path class="st0" d="M264,144c-4.4,0-8-3.6-8-8V88c0-13.2-10.8-24-24-24h-32c-4.4,0-8-3.6-8-8s3.6-8,8-8h32c22,0,40,17.9,40,40v48
		C272,140.4,268.4,144,264,144L264,144z M264,144"/>
	<path class="st0" d="M184,96H88c-13.2,0-24-10.8-24-24V40c0-4.4,3.6-8,8-8h24.8c3.7-18.2,19.9-32,39.2-32s35.5,13.8,39.2,32H200
		c4.4,0,8,3.6,8,8v32C208,85.2,197.2,96,184,96L184,96z M80,48v24c0,4.4,3.6,8,8,8h96c4.4,0,8-3.6,8-8V48h-24c-4.4,0-8-3.6-8-8
		c0-13.2-10.8-24-24-24s-24,10.8-24,24c0,4.4-3.6,8-8,8H80z M80,48"/>
	<path class="st0" d="M216,144H56c-4.4,0-8-3.6-8-8s3.6-8,8-8h160c4.4,0,8,3.6,8,8S220.4,144,216,144L216,144z M216,144"/>
	<path class="st0" d="M168,192H56c-4.4,0-8-3.6-8-8s3.6-8,8-8h112c4.4,0,8,3.6,8,8S172.4,192,168,192L168,192z M168,192"/>
	<path class="st0" d="M136,240H56c-4.4,0-8-3.6-8-8c0-4.4,3.6-8,8-8h80c4.4,0,8,3.6,8,8C144,236.4,140.4,240,136,240L136,240z
		 M136,240"/>
</g>
</svg>
