<?xml version="1.0" encoding="utf-8"?>
<!-- Generator: Adobe Illustrator 23.0.1, SVG Export Plug-In . SVG Version: 6.00 Build 0)  -->
<svg version="1.1" id="Layer_1" xmlns="http://www.w3.org/2000/svg" xmlns:xlink="http://www.w3.org/1999/xlink" x="0px" y="0px"
	 viewBox="0 0 384 384" style="enable-background:new 0 0 384 384;" xml:space="preserve">
<style type="text/css">
	.st0{fill:#808080;}
	.st1{fill:none;stroke:#808081;stroke-width:10;stroke-miterlimit:10;}
</style>
<path class="st0" d="M252.9,141.4c-1.6-8.1-9.1-13.4-17.7-12.8c-8,0.6-14.5,7.3-14.7,15.2c-0.1,2.5-1,4.3-3,5.9
	c-9.5,7.7-20.8,11.6-34.6,11.7c-7.2,0.1-14.6,0.1-21.7,0c-2.9,0-5.8,0-8.8,0c-4.2,0-8.4,0-12.6,0.1c-10.9,0.1-19.2,8.5-19.4,19.4
	c-0.1,4.2-0.1,8.5,0,12.7c0,2.2,0,4.5,0,6.7c0,8.4,3.7,14.5,11.3,18.7c1.2,0.7,2.4,2.6,2.4,4c0.1,3.9,0.1,7.9,0.1,11.8
	c0,3.1,0,6.2,0,9.4c0.1,7.6,5.6,13.2,13.3,13.4c4.6,0.1,9.3,0.1,14.2,0c4.3-0.1,8.1-1.9,10.6-4.9c2.5-3.1,3.5-7.3,2.7-11.7
	c-0.8-4.4-1.6-8.9-2.4-13.5l-1.1-6.5h0.7c1.6,0,3.1,0,4.6,0c3.3,0,6.4-0.1,9.6,0.1c11.9,0.7,22.2,4.5,30.6,11.2
	c2.4,1.9,3.4,3.8,3.4,6.5c0.3,8,7.1,14.7,15.3,15.1c4.8,0.2,9.2-1.3,12.3-4.4c3.4-3.2,5.2-8,5.3-13.3c0.1-31,0-62.2,0-89.8
	C253.4,144.7,253.2,143.1,252.9,141.4z M130.2,201.1c-0.1-6.7-0.1-13.5,0-20c0.1-5.3,3.9-9.5,8.8-9.7c5.6-0.2,11.1-0.2,16.9-0.1
	c2.4,0,4.8,0,7.3,0h0.6V211h-0.6c-2.4,0-4.9,0-7.3,0c-2.4,0-4.8,0-7.1,0c-3.2,0-6.4,0-9.6-0.2C134.1,210.8,130.3,206.6,130.2,201.1z
	 M164.8,246.4c-0.7,0.9-2,1.3-3.7,1.4l-1.3,0c-1.8,0-3.6,0.1-5.4,0.1c-2.1,0-4.1-0.1-6.2-0.2c-1.5-0.1-4-2.1-4.1-3.6
	c-0.2-5.6-0.2-11.1-0.2-16.9c0-1.9,0-3.8,0-5.7v-0.6h0.6c1.4,0,2.7,0,4,0c3.5,0,6.8-0.1,10.1,0.1c1.3,0.1,3,1.5,3.3,2.8
	c1.2,5.7,2.2,11.5,3.2,17.2l0.3,1.5C165.7,244.2,165.5,245.5,164.8,246.4z M220.1,220.8l-0.8-0.3c-2.2-0.8-4.3-1.7-6.5-2.5
	c-4.9-1.9-9.9-4-15-5.1c-5.1-1.2-10.4-1.5-16-1.9c-2.4-0.2-4.9-0.3-7.4-0.6l-0.5-0.1v-39.1l0.6,0c18.7,0.7,32.5-2.6,44.6-10.6
	l0.9-0.6V220.8z M243.6,209.1l0,8c0,6.3,0,12.7,0,19c0,3.6-1.2,5.9-3.8,7.2c-1,0.5-2.1,0.8-3.2,0.8c-1.1,0-2.2-0.3-3.2-0.9
	c-2.1-1.3-3.4-3.7-3.4-6.6c-0.1-8.9,0-18,0-26.7c0-3.5,0-7,0-10.5l0-5.6l0-2.8l0-12.8c0-10.8,0-21.6,0-32.4c0-2.9,1.3-5.4,3.4-6.8
	c1.8-1.1,4.1-1.2,6.1-0.2c3.6,1.7,4.1,5,4,8.2c0,15.5,0,31,0,46.5L243.6,209.1z"/>
<path class="st1" d="M287.2,305.3c-9.3,0.5-14.9-4.7-20.8-9.3c-11.2-8.7-25.8-5.7-31.4,6.5c-1.6,3.5-1.7,7.7-2,11.6
	c-0.2,2.8,0.6,5.6,0.8,8.4c0.6,8.8-3.8,17.1-12.3,19.1c-10.8,2.5-22.1,3.9-33.2,4.1c-9,0.2-15.5-7.2-17.2-16.7
	c-0.5-2.8-0.7-5.6-1.1-8.4c-1.2-8.2-5.7-13.8-13.5-16.3c-8.1-2.6-15.3-0.7-21.1,5.5c-2.4,2.6-4.4,5.5-6.8,8.1
	c-6.9,7.5-17,9-25.4,3.2c-7.3-5.1-14.3-10.6-21-16.4c-7.4-6.4-8.6-16.5-3.4-24.8c2-3.2,4.6-5.9,6.6-9c4.4-6.8,5-14.1,1-21.3
	c-4-7.1-10.3-10.6-18.6-10.3c-0.5,0-0.9,0.1-1.4,0.1c-23,1.8-28-2.4-30.7-25.4c-0.5-4.6-1.2-9.3-1.6-13.9
	c-1.1-12.2,5.9-20.7,18-22.4c4.1-0.6,8.5-1,12.3-2.5c13.7-5.6,16.7-22.6,6.3-33c-0.5-0.5-1-1-1.6-1.4c-17.8-15.5-18.3-20.9-3.6-39.6
	c3-3.9,6-7.8,9.2-11.5c7.3-8.4,17.9-9.7,27-3.4c2.7,1.9,5.1,4.1,7.9,5.9c7.1,4.7,14.6,5,21.8,0.4c6.9-4.3,10.2-10.7,9.3-19.1
	c-0.3-2.8-0.7-5.6-0.9-8.4c-0.8-11,6-19.8,16.8-21.4c8.1-1.2,16.3-2.1,24.4-2.9c11.1-1.1,19.6,5.7,21.3,16.7c0.7,4.1,1,8.4,2.3,12.4
	c4.6,13.8,21.9,18.1,32.5,8.1c2.7-2.6,4.8-5.7,7.3-8.5c7.5-8.5,17.8-9.8,27-3.2c5.9,4.2,11.5,8.8,17.2,13.4
	c11.6,9.4,12.7,20,3.2,31.6c-4.6,5.6-8.3,11.4-7,19.1c1.9,11,10.8,17.9,22.1,17.3c3.3-0.2,6.5-0.8,9.8-1c9.3-0.5,17.8,5.7,19.4,14.8
	c1.6,9.2,2.7,18.5,3.4,27.9c0.7,9.9-6.2,18.1-16.1,19.9c-3,0.5-6,0.7-9,1.2c-8.4,1.3-14.2,6-16.6,14.2c-2.4,8.2,0,15.2,6.1,21
	c0.2,0.2,0.4,0.3,0.5,0.5c17.9,15.8,18.4,21.5,3.6,40c-3.1,3.8-5.7,8.1-9.3,11.4C295.4,300.4,291.1,302.6,287.2,305.3z"/>
<circle class="st1" cx="186.9" cy="193.1" r="177"/>
</svg>
