<?xml version="1.0" encoding="utf-8"?>
<!-- Generator: Adobe Illustrator 23.0.1, SVG Export Plug-In . SVG Version: 6.00 Build 0)  -->
<svg version="1.1" id="Layer_1" xmlns="http://www.w3.org/2000/svg" xmlns:xlink="http://www.w3.org/1999/xlink" x="0px" y="0px"
	 viewBox="0 0 384 384" style="enable-background:new 0 0 384 384;" xml:space="preserve">
<style type="text/css">
	.st0{fill:#808080;}
</style>
<path class="st0" d="M375.6,215.2c0-8.2,0-16.6,0-24.9c0-6.5-1.8-8.4-8-8.5c-15.5-0.1-31.5-0.1-47.7,0c-5.1,0-7.1,2-7.4,7.2
	c-0.1,1.5-0.1,3,0,4.7c0,0.7,0,1.5,0,2.2v22h-2.8c-0.8,0-1.6,0-2.3,0c-1.3,0-2.5,0-3.6,0c-4.2-0.2-8.4-0.4-12.6-0.5l-7.3-0.3
	l-0.3-7.9c-0.1-3.9-0.3-7.7-0.4-11.6c-0.2-7.1-0.4-14.2-0.6-21.6l-0.3-10.8l1.2-0.8c17.1-11.8,28.3-29.4,31.6-49.4
	c3.3-20.3-1.7-41.1-13.7-57.1C276.8,25,231.6,17.6,198.3,41c-16.6,11.6-26.8,27.1-30.3,46.1c-5.5,29.8,4.1,55.2,28.5,75.6l5.8,4.9
	h-78.7l6.1-4.9c22.8-18.3,28.5-40.4,29.3-55.7c1.1-21.3-6.9-43.2-21-57.2c-27.7-27.5-72.3-29.6-101.6-4.8
	c-15.2,12.9-23.9,28.9-26,47.6c-3.2,28,6.9,51.7,29.8,70.2l4.2,3.4l-5.2,1.4c-5.9,1.6-7,5-7,10.6c0.1,31.6,0.1,63.7,0.1,94.8
	c0,12.2,0,24.5,0,36.7c0,8.5,1.6,10.1,10.1,10.1c4.1,0,8.2,0,12.5,0l5.9,0h2.8l0,10.8c0,5.7,0,11.2,0,16.7c0,8.3,2,10.3,10.1,10.3
	c7,0,14.1,0,21.1,0l146.6,0c10,0,11.2-1.3,11.2-11.5c0-1.8,0-3.7,0-5.5c0-4.3,0.1-8.7-0.1-12.9c-0.1-1.8,0-4.3,1.8-6.2
	c1.8-1.8,4.5-1.9,6.3-1.8c4.3,0.2,8.7,0.1,12.9,0.1l1.5,0c6.7-0.1,8.3-1.7,8.4-8.6c0-5.7,0-11.4,0-17c0-2.5,0-5,0-7.6v-15.1h29.3
	v2.8c0,2.3,0,4.6,0,6.9c0,5.2,0,10.1,0,15c0.1,6.4,3.1,7.3,6,7.4c16.2,0.2,33.1,0.2,51.6,0c3.7-0.1,5.6-2.2,5.6-6.5
	c-0.1-22.6-0.1-45.2-0.1-67.8C375.6,224.7,375.6,219.9,375.6,215.2z M19.5,102c0.1-17.4,6.9-33.7,19.3-45.8
	C51.2,44,67.7,37.3,85.3,37.4c17.1,0.1,33.3,6.9,45.5,19.2c12.2,12.3,18.9,28.6,18.9,45.8c-0.1,35.7-29.3,64.6-65,64.6
	c-0.1,0-0.1,0-0.2,0C48.5,166.9,19.4,137.8,19.5,102z M242.8,338.4c0,8.2-1.2,9.4-9.2,9.4l-65.1,0H73.8v-27.4l2.6-0.1
	c0.7,0,1.3-0.1,2-0.1c1.4-0.1,2.8-0.2,4.2-0.2c50.3,0,100.6,0,151,0c8.1,0,9.3,1.2,9.3,9.4C242.8,332.4,242.8,335.4,242.8,338.4z
	 M271.4,308.4c-1.7,1.7-4.2,2-6.3,2c0,0,0,0-0.1,0c-72.4-0.1-146-0.1-214.9-0.1c-1.8,0-4.4,0-6.2-1.8c-1.6-1.6-1.8-3.9-1.8-5.4
	c0.1-29,0.1-58.5,0.1-87c0-10.7,0-21.3,0-32c0-0.8,0.1-1.6,0.2-2.3c0-0.3,0.1-0.7,0.1-1.1l0.3-2.5h230l0.2,2.6
	c0,0.6,0.1,1.1,0.1,1.6c0.1,1.1,0.2,2.3,0.2,3.5c0,10.5,0,20.9,0,31.4c0,27.7,0,56.4,0.1,84.6C273.3,304.2,273.1,306.7,271.4,308.4z
	 M241.3,167C241.2,167,241.2,167,241.3,167c-17.4,0-33.7-6.7-46-19c-12.3-12.2-19.1-28.5-19.1-45.8c0-17.3,6.7-33.6,19-45.9
	c12.3-12.3,28.6-19,45.9-19.1c0,0,0,0,0,0c35.9,0,65,29,65.1,64.8C306.3,137.9,277.1,167,241.3,167z M312.2,260.8h-28.8V228h28.8
	V260.8z M363.6,292.4c-1.7,1.6-3.9,1.9-6.1,1.9c-0.3,0-0.6,0-0.9,0c-7.1-0.2-14.2-0.2-21.6-0.1c-3.1,0-6.1,0-9.3,0H323V191.5l9.6,0
	c9.1,0,18.6,0,27.8,0.1c2.6,0,4.4,2.9,4.9,4.3c0.5,1.4,0.4,2.7,0.3,3.9c0,0.3,0,0.7,0,1c0,7.3,0,14.5,0,21.8c0,20.6,0,42,0.1,62.9
	C365.7,287.7,365.5,290.5,363.6,292.4z"/>
<path class="st0" d="M134.2,261.4c30.3,0,61.2,0,91.8,0c6.7,0,8.9-2.2,9-8.8c0.1-16.1,0.1-33.1,0-50.6c-0.1-6.8-2.3-9-9.3-9
	c-10.9,0-21.7,0-32.6,0l-13.1,0c-4.5,0-9.1,0-13.7,0c-4.3,0-8.7,0-13.1,0c-6.4,0-12.9,0-19.4,0c-6.1,0-8.3,2.2-8.3,8.3
	c-0.1,16.4-0.1,33.8,0,51.6C125.6,259.2,127.8,261.3,134.2,261.4z M135.1,243.4c0.2-9.7,0.2-19.6,0.1-29.2l0-4.3
	c0-1.7,0.2-3.8,1.7-5.3c1.1-1.1,2.7-1.7,5-1.7c18.4,0.1,37.1,0.1,55.2,0.1c7.7,0,15.3,0,23,0c0.7,0,1.2,0.1,1.8,0.3
	c0.2,0.1,0.5,0.1,0.9,0.2l2.2,0.5v46.9l-2.6,0.2c-0.6,0-1.1,0.1-1.6,0.1c-1.2,0.1-2.3,0.2-3.6,0.2c-7.4,0-14.8,0-22.2,0
	c-16.9,0-34.3,0-51.5,0.1c-0.1,0-0.1,0-0.2,0c-2.1,0-4.5-0.3-6.2-2C135.2,247.7,135,245.2,135.1,243.4z"/>
<path class="st0" d="M121.5,98.6h9.2c0.1-11-5.2-22.7-14.4-31.7c-8.9-8.7-20-13.4-30.6-13.1V63C106.1,66,118.1,78,121.5,98.6z"/>
<path class="st0" d="M270.8,62.8c-8.4-6.9-17.9-10.2-26.4-9.2v9.3c20.6,3.2,32.7,15.2,36,35.6h9.7C289.2,85.4,282,72,270.8,62.8z"/>
<rect x="333.8" y="238.2" class="st0" width="19.6" height="8.9"/>
<rect x="333.8" y="268.2" class="st0" width="19.6" height="8.9"/>
<rect x="333.8" y="208.2" class="st0" width="19.6" height="8.9"/>
<rect x="63.8" y="288.2" class="st0" width="19.6" height="8.9"/>
<rect x="93.8" y="288.2" class="st0" width="166.6" height="8.9"/>
</svg>
