<?xml version="1.0" encoding="utf-8"?>
<!-- Generator: Adobe Illustrator 23.0.1, SVG Export Plug-In . SVG Version: 6.00 Build 0)  -->
<svg version="1.1" id="Layer_1" xmlns="http://www.w3.org/2000/svg" xmlns:xlink="http://www.w3.org/1999/xlink" x="0px" y="0px"
	 viewBox="0 0 384 384" style="enable-background:new 0 0 384 384;" xml:space="preserve">
<style type="text/css">
	.st0{fill:#808080;}
</style>
<path class="st0" d="M321.2,13.2c0.6,9.8,1.3,19.9,2.1,31.7c14.3,0,27.6,0.4,40.9-0.1c9.1-0.3,12.8,2.7,12.8,12.4
	c-0.3,96.3,0,192.5-0.4,288.8c-0.1,20.2-13,32.9-33.4,33c-97.3,0.3-194.6,0.3-291.9-0.1c-24.4-0.1-41.9-17-42-40.8
	C8.9,232.9,9.1,127.9,9,22.8c0-7.2,1.4-11.8,10.1-11.7c98.8,0.2,197.7,0.2,296.5,0.4C317,11.5,318.5,12.3,321.2,13.2z M318.6,368.5
	c-9.8-13.3-7.3-27.2-7.3-39.8c-0.3-96.3-0.1-192.6-0.1-288.9c0-5.5,0-11.1,0-16.8c-98.1,0-194.5,0-291.6,0
	c0,105.4-0.3,209.5,0.2,313.5c0.1,19.3,13.4,31.7,33.2,31.8C140.5,368.8,232,368.5,318.6,368.5z M366.5,56.5c-16,0-29.6,0-43.4,0
	c-0.3,4.3-0.8,7.4-0.8,10.4c0,91.1,0,182.3,0,273.4c0,3.6,0.5,15.1,2,17.6c3.9,6.9,5.9,9.5,17.5,10.3c10.7,0.8,19.6-3.8,22.8-14.6
	c1.7-5.8,1.8-12.2,1.8-18.4c0.1-80.8,0.1-161.6,0.1-242.3C366.5,81.2,366.5,69.4,366.5,56.5z"/>
<path class="st0" d="M106,194.5c-18.6,0-37.3-0.3-55.9,0.1c-8.8,0.2-13.5-1.8-13.2-11.9c0.6-20.2-0.1-40.4,0.7-60.6
	c0.4-9.8-0.6-10.5,10.4-10.6c38.8-0.2,77.7-0.4,116.5-0.6c8.9-0.1,11.9,3.9,11.8,12.2c-0.2,20.2-0.2,40.4,0,60.6
	c0,7.8-3.2,11-11.2,10.9C145.4,194.3,125.7,194.5,106,194.5z M48.2,183c39.2,0,77.6,0,116,0c0-20.5,0-39.9,0-59.2
	c-39.3,0-77.6,0-116,0C48.2,144.1,48.2,163,48.2,183z"/>
<path class="st0" d="M297.8,110.7H190.3c-2.3,0-4.2-1.9-4.2-4.2v0c0-2.3,1.9-4.2,4.2-4.2h107.6c2.3,0,4.2,1.9,4.2,4.2v0
	C302.1,108.8,300.2,110.7,297.8,110.7z"/>
<path class="st0" d="M297.8,140.7H190.3c-2.3,0-4.2-1.9-4.2-4.2v0c0-2.3,1.9-4.2,4.2-4.2h107.6c2.3,0,4.2,1.9,4.2,4.2v0
	C302.1,138.8,300.2,140.7,297.8,140.7z"/>
<path class="st0" d="M297.8,170.7H190.3c-2.3,0-4.2-1.9-4.2-4.2v0c0-2.3,1.9-4.2,4.2-4.2h107.6c2.3,0,4.2,1.9,4.2,4.2v0
	C302.1,168.8,300.2,170.7,297.8,170.7z"/>
<path class="st0" d="M297.8,200.7H190.3c-2.3,0-4.2-1.9-4.2-4.2v0c0-2.3,1.9-4.2,4.2-4.2h107.6c2.3,0,4.2,1.9,4.2,4.2v0
	C302.1,198.8,300.2,200.7,297.8,200.7z"/>
<path class="st0" d="M297.8,230.7H46.2c-2.3,0-4.2-1.9-4.2-4.2v0c0-2.3,1.9-4.2,4.2-4.2h251.7c2.3,0,4.2,1.9,4.2,4.2v0
	C302.1,228.8,300.2,230.7,297.8,230.7z"/>
<path class="st0" d="M297.8,260.7H46.2c-2.3,0-4.2-1.9-4.2-4.2l0,0c0-2.3,1.9-4.2,4.2-4.2h251.7c2.3,0,4.2,1.9,4.2,4.2l0,0
	C302.1,258.8,300.2,260.7,297.8,260.7z"/>
<path class="st0" d="M297.8,50.7H46.2c-2.3,0-4.2-1.9-4.2-4.2v0c0-2.3,1.9-4.2,4.2-4.2h251.7c2.3,0,4.2,1.9,4.2,4.2v0
	C302.1,48.8,300.2,50.7,297.8,50.7z"/>
<path class="st0" d="M297.8,80.7H46.2c-2.3,0-4.2-1.9-4.2-4.2v0c0-2.3,1.9-4.2,4.2-4.2h251.7c2.3,0,4.2,1.9,4.2,4.2v0
	C302.1,78.8,300.2,80.7,297.8,80.7z"/>
<path class="st0" d="M297.8,290.7H46.2c-2.3,0-4.2-1.9-4.2-4.2l0,0c0-2.3,1.9-4.2,4.2-4.2h251.7c2.3,0,4.2,1.9,4.2,4.2l0,0
	C302.1,288.8,300.2,290.7,297.8,290.7z"/>
<path class="st0" d="M297.8,320.7H46.2c-2.3,0-4.2-1.9-4.2-4.2l0,0c0-2.3,1.9-4.2,4.2-4.2h251.7c2.3,0,4.2,1.9,4.2,4.2l0,0
	C302.1,318.8,300.2,320.7,297.8,320.7z"/>
<path class="st0" d="M297.8,350.7H46.2c-2.3,0-4.2-1.9-4.2-4.2l0,0c0-2.3,1.9-4.2,4.2-4.2h251.7c2.3,0,4.2,1.9,4.2,4.2l0,0
	C302.1,348.8,300.2,350.7,297.8,350.7z"/>
</svg>
