<?xml version="1.0" encoding="utf-8"?>
<!-- Generator: Adobe Illustrator 23.0.1, SVG Export Plug-In . SVG Version: 6.00 Build 0)  -->
<svg version="1.1" id="Layer_1" xmlns="http://www.w3.org/2000/svg" xmlns:xlink="http://www.w3.org/1999/xlink" x="0px" y="0px"
	 viewBox="0 0 384 384" style="enable-background:new 0 0 384 384;" xml:space="preserve">
<style type="text/css">
	.st0{fill:#808080;}
</style>
<path class="st0" d="M72.9,165.4h126.2c2.7,0,4.9-2.2,4.9-4.9s-2.2-4.9-4.9-4.9H72.9c-2.7,0-4.9,2.2-4.9,4.9S70.2,165.4,72.9,165.4z
	"/>
<path class="st0" d="M72.9,133.8h71c2.7,0,4.9-2.2,4.9-4.9s-2.2-4.9-4.9-4.9h-71c-2.7,0-4.9,2.2-4.9,4.9S70.2,133.8,72.9,133.8z"/>
<path class="st0" d="M88.7,295.1h205.1c11.4,0,20.7-9.3,20.7-20.7v-66.6c0-3.6-1-7.2-2.8-10.3c-0.7-1.1-1.7-2-3-2.3
	c-1.3-0.3-2.6-0.2-3.7,0.5c-1.1,0.7-2,1.7-2.3,3c-0.3,1.3-0.2,2.6,0.5,3.7c0.9,1.6,1.4,3.5,1.4,5.4v66.6c0,6-4.9,10.9-10.9,10.9
	H88.7c-6,0-10.9-4.9-10.9-10.9v-66.6c0-6,4.9-10.9,10.9-10.9h110.4c2.7,0,4.9-2.2,4.9-4.9s-2.2-4.9-4.9-4.9H88.7
	c-11.4,0-20.7,9.3-20.7,20.7v66.6C68,285.8,77.3,295.1,88.7,295.1z"/>
<path class="st0" d="M353.4,307.3l-0.9-0.3l0.3-0.9c1.2-3.7,1.8-7.5,1.8-11.5V121c0-20.1-16.4-36.5-36.5-36.5h-34.5V26.4
	c0-11.4-9.3-20.7-20.7-20.7h-15.8c-11.4,0-20.7,9.3-20.7,20.7v58.2H65.8c-20.1,0-36.5,16.4-36.5,36.5v173.5c0,3.9,0.6,7.8,1.8,11.5
	l0.3,0.9l-0.9,0.3c-14.9,5-24.9,18.9-24.9,34.6c0,20.1,16.4,36.5,36.5,36.5h299.7c20.1,0,36.5-16.4,36.5-36.5
	C378.3,326.1,368.3,312.2,353.4,307.3z M247.2,15.5H263c6,0,10.9,4.9,10.9,10.9v10.9h-37.5l0-10.9C236.3,20.4,241.2,15.5,247.2,15.5
	z M273.8,47.1v140H260v-140H273.8z M236.3,47.1h13.8v140h-13.8V47.1z M236.3,196.9h37.5V213c0,0.6-0.2,1.3-0.6,1.8l-15.8,21
	c-0.6,0.8-1.4,1.2-2.4,1.2c-0.9,0-1.8-0.4-2.4-1.2l-15.8-21c-0.4-0.5-0.6-1.1-0.6-1.8V196.9z M39.2,121c0-14.7,11.9-26.6,26.6-26.6
	h160.7V124h-43.2c-2.7,0-4.9,2.2-4.9,4.9s2.2,4.9,4.9,4.9h43.2V213c0,2.8,0.9,5.5,2.6,7.7l15.8,21c2.4,3.3,6.2,5.1,10.2,5.1
	s7.8-1.9,10.2-5.1l15.8-21c1.7-2.2,2.6-4.9,2.6-7.7v-47.7h25.8c2.7,0,4.9-2.2,4.9-4.9s-2.2-4.9-4.9-4.9h-25.8v-21.7h25.8
	c2.7,0,4.9-2.2,4.9-4.9s-2.2-4.9-4.9-4.9h-25.8V94.4h34.5c14.7,0,26.6,11.9,26.6,26.6v173.5c0,14.7-11.9,26.6-26.6,26.6H65.8
	c-14.7,0-26.6-11.9-26.6-26.6V121z M341.8,368.5H42.2c-14.7,0-26.6-11.9-26.6-26.6c0-12.2,8.3-22.9,20.1-25.8l0.6-0.2l0.4,0.5
	c7,9.3,17.6,14.6,29.2,14.6h252.4c11.6,0,22.2-5.3,29.2-14.6l0.4-0.5l0.6,0.2c11.8,3,20.1,13.6,20.1,25.8
	C368.5,356.5,356.5,368.5,341.8,368.5z"/>
<path class="st0" d="M177,344.8h-0.8c-2.7,0-4.9,2.2-4.9,4.9s2.2,4.9,4.9,4.9h0.8c2.7,0,4.9-2.2,4.9-4.9S179.7,344.8,177,344.8z"/>
<path class="st0" d="M322.1,344.8H203.8c-2.7,0-4.9,2.2-4.9,4.9s2.2,4.9,4.9,4.9h118.3c2.7,0,4.9-2.2,4.9-4.9c0-1.3-0.5-2.5-1.4-3.5
	C324.7,345.3,323.4,344.8,322.1,344.8z"/>
<path class="st0" d="M152.6,344.8h-0.8c-2.7,0-4.9,2.2-4.9,4.9s2.2,4.9,4.9,4.9h0.8c2.7,0,4.9-2.2,4.9-4.9S155.3,344.8,152.6,344.8z
	"/>
<path class="st0" d="M125,344.8H61.9c-2.7,0-4.9,2.2-4.9,4.9s2.2,4.9,4.9,4.9H125c2.7,0,4.9-2.2,4.9-4.9S127.7,344.8,125,344.8z"/>
</svg>
