<?xml version="1.0" encoding="utf-8"?>
<!-- Generator: Adobe Illustrator 23.0.1, SVG Export Plug-In . SVG Version: 6.00 Build 0)  -->
<svg version="1.1" id="Layer_1" xmlns="http://www.w3.org/2000/svg" xmlns:xlink="http://www.w3.org/1999/xlink" x="0px" y="0px"
	 viewBox="0 0 384 384" style="enable-background:new 0 0 384 384;" xml:space="preserve">
<style type="text/css">
	.st0{display:none;}
	.st1{display:inline;fill:#818181;}
	.st2{display:inline;fill:none;stroke:#818181;stroke-width:10;stroke-miterlimit:10;}
	.st3{fill:none;stroke:#818181;stroke-width:5;stroke-miterlimit:10;}
</style>
<g class="st0">
	<path class="st1" d="M360.9,139.5c-2.4-1.2-4.7-2.1-6.8-2.9c-10.7-3.5-22-5.3-34.2-5.3c-6.3,0-12.8,0.5-19.6,1.4
		c-8.3,1.1-18.9,3.3-28.2,9.7c-5,3.5-7.5,8.1-7.5,14c0.1,62.4,0.1,127.9,0,194.7c0,6.2,2.4,10.8,7.1,13.6c4,2.4,9.4,5.4,15,7
		c5.2,1.5,10.6,2.4,15.9,3.3l0.2,0c2.2,0.4,4.5,0.8,6.7,1.2l19.3,0c0.2-0.1,0.5-0.1,0.8-0.2l0.2,0c0.8-0.2,1.8-0.4,2.8-0.5
		c10.3-1.3,22.2-3.2,32.3-9.8c5.7-3.7,8.3-8.6,8.3-15.3c-0.2-67.9-0.3-129.2,0.1-191C373.3,149.9,369.5,143.8,360.9,139.5z
		 M355.2,286.2c-12.9,5.6-26.3,6.4-36.5,6.4l-0.3,0c-12.5,0-22.6-1.5-31.6-4.7l-0.1,0c-1-0.4-2.2-0.8-3.4-1.3
		c-9-3.9-10.2-6.2-9.1-16.4l0.2-2.1l1.9,0.8c28.2,11.1,56.8,11.2,84.9,0.1l1.8-0.7l0.4,1.9C365.2,279.2,363.6,282.5,355.2,286.2z
		 M355.1,261.4c-9.8,4.2-20.9,6.1-35,6.3c-0.4,0-0.9,0-1.3,0c-12.6,0-22.8-1.5-32.1-4.7c-1.4-0.5-2.7-1-3.8-1.5
		c-8.7-3.9-10-6.3-8.6-16.5l0.3-2.1l1.9,0.8c13,5.7,26.8,8.4,42.2,8.4c0.2,0,0.3,0,0.5,0c15.3,0,29.1-2.7,42-8.3l1.8-0.8l0.4,1.9
		C365.2,254.4,363.4,257.9,355.1,261.4z M273.9,154.2c0.1-1.3,0.8-3,3.9-4.5c7.5-3.4,14.3-5.8,20.6-7.3c4.7-1.1,9.5-1.4,14.2-1.8
		c2-0.1,4.1-0.3,6.1-0.5l0.1,0c10.8,0.4,22.2,1.4,33.4,5.7c2.9,1.1,5.6,2.5,8,4.1c2.4,1.6,3.6,3.2,3.5,5c-0.1,1.7-1.3,3.1-3.6,4.2
		c-5,2.5-10.9,5.3-17.1,6.7c-8.3,1.9-16.6,2.8-24.8,2.8c-10.2,0-20.4-1.5-30.1-4.5c-3.4-1-6.9-2.6-10.5-4.8
		C274.5,157.5,273.9,155.5,273.9,154.2z M274.3,170.8L274.3,170.8l0.3-1.9l1.8,0.7c28.2,11.2,56.7,11.1,84.9,0l2-0.8l0.2,2.2
		c0,0.6,0.1,1.3,0.1,1.8l0,0.2c0.7,8.9,0.2,10.2-9.4,14.3c-9.8,4.2-20.6,6.2-33,6.2c-3.8,0-7.8-0.2-12-0.6c-5.5-0.5-11-1.7-16.2-2.8
		c-1.8-0.4-3.5-0.8-5.3-1.1c-1.7-0.3-3.2-1-4.7-1.7l-0.7-0.3C274.1,183.1,272.6,180.3,274.3,170.8z M353.5,212.4
		c-10.1,3.9-20.7,5.8-32.5,5.8c-4.1,0-8.5-0.2-12.9-0.7c-7.8-0.8-16.2-2.7-24.9-5.6c-9.2-3.1-10.2-6.2-9.1-16.2l0.2-2.1l1.9,0.8
		c28.3,11.1,56.9,11.1,85,0l1.5-0.6l0.7,1.8c0.1,0.2,0.2,0.5,0.2,0.8C364.5,206.5,363,208.8,353.5,212.4z M274.3,220.5l0.3-1.9
		l1.8,0.7c28.1,11.1,56.7,11.1,84.8,0l1.9-0.7l0.3,2c1.5,9.7-0.2,12.8-8.8,16.3c-10.2,4.2-21.3,6.3-33.7,6.3c-4.4,0-9-0.3-13.8-0.8
		c-7.5-0.8-15.7-2.8-24.8-6C273.7,233.2,272.7,229.7,274.3,220.5z M353.4,361.2c-9.9,3.8-20.9,5.7-33.6,5.7c-3.1,0-6.3-0.1-9.6-0.3
		c-10.7-0.7-19.3-2.5-27-5.8c-8.9-3.7-10.3-6.4-9-16.4l0.3-2l1.9,0.8c28.2,11.2,56.9,11.1,85.1-0.1l2-0.8l0.1,2.2
		C364.4,355.5,363.3,357.4,353.4,361.2z M353.6,336.4c-10,3.9-20.7,5.7-33.8,5.7c-2.4,0-4.9-0.1-7.5-0.2
		c-11.3-0.6-20.2-2.3-28.1-5.5c-0.1,0-0.2-0.1-0.3-0.1c-0.3-0.1-0.5-0.2-0.7-0.3c-8.7-3.7-10.2-6.5-8.9-16.4l0.3-2l1.9,0.8
		c28.2,11.2,56.8,11.2,85.1-0.1l2-0.8l0.2,2.2C364.5,330.4,363.2,332.6,353.6,336.4z M355.6,310.7c-13.4,5.9-26.9,6.6-36,6.6
		c-1.7,0-3.3,0-4.9-0.1c-11-0.3-20.4-1.9-28.6-4.9c-1.2-0.4-2.7-1-4.2-1.7c-7.9-3.7-9.4-7-7.6-15.9l0.4-1.9l1.8,0.7
		c28.1,11.1,56.6,11.1,84.6,0l1.7-0.7l0.4,1.8C365.4,303.7,363.7,307.2,355.6,310.7z"/>
	<path class="st1" d="M243,231.1c0-6.3-2.4-10.9-7.2-14c-4.7-3-9-5.1-12.9-6.3c-10.6-3.4-21.7-5.1-33.3-5.1
		c-7.2,0-14.6,0.6-22.2,1.9c-11,1.8-18.8,4.7-25.4,9.2c-5.2,3.6-7.6,8.1-7.5,14.3c0.1,39,0.1,79.3,0,119.8c0,6.3,2.4,11,7.3,13.9
		c5.9,3.5,10.5,5.7,15,6.9c5.2,1.5,10.6,2.4,15.9,3.3c2.1,0.4,4.5,0.8,6.9,1.2l18.6,0c0.9-0.1,2-0.3,3-0.4c2.3-0.3,4.6-0.6,6.8-1
		c9.2-1.5,18.8-3.6,27.2-9.3c5.4-3.7,7.9-8.4,7.9-14.8C242.9,313.8,242.9,274.8,243,231.1z M141.7,229c-0.1-0.3-0.1-0.6,0.1-0.9
		c0.6-1.4,3.7-3.9,10.3-6.5c14.2-5.5,28.6-7.6,44.1-6.3c7.3,0.6,14.7,2.3,21.7,3.9l0.6,0.1c1,0.2,2,0.5,3,0.7c3,0.7,5.7,2.3,8.3,4
		c2.6,1.7,3.8,3.4,3.8,5.1c-0.1,1.8-1.4,3.3-4,4.8c-4.1,2.2-9,4.7-14.1,5.7c-6.2,1.3-12.6,2.1-18.7,3c-2.6,0.3-5.2,0.7-7.8,1.1
		l-0.2,0l-0.2,0c-22.8-0.3-38.2-2.2-44.8-10.8C143,231.7,142.2,230.4,141.7,229z M144.1,245.2l0.3-2l1.9,0.7
		c28.2,11.1,56.8,11.1,84.9,0l1.8-0.7l0.4,1.9c1.7,9.3,0.3,12.3-7.7,15.9c-12.8,5.8-26.2,6.5-36.4,6.6l-0.6,0c-15,0-26.2-2-36.3-6.4
		C143.9,257.6,142.6,255,144.1,245.2z M225.2,286.1c-13,5.7-26.4,6.5-36.7,6.5l-0.5,0c-12.5,0-22.5-1.5-31.6-4.8
		c-1-0.4-2.3-0.8-3.5-1.3c-8.9-3.9-10.2-6.3-9-16.3l0.3-2l1.9,0.8c28.2,11.1,56.8,11.2,85,0.1l1.8-0.7l0.3,1.9
		C235,279.4,233.5,282.4,225.2,286.1z M223.4,311.6c-9.7,3.8-20.4,5.7-31.7,5.7c-2.7,0-5.4-0.1-8.2-0.3c-6.5-0.5-13-1.8-19.3-3.1
		l-0.2,0c-2.5-0.5-5.1-1-7.7-1.5c-0.9-0.2-1.7-0.5-2.5-0.9c-0.2-0.1-0.4-0.2-0.6-0.2c-9-3.8-10.5-6.5-9.2-16.7l0.3-2.1l2,0.9
		c13.2,5.7,27,8.5,42.2,8.5c15.9,0,29.9-2.8,42.8-8.6l2.1-0.9l0.2,2.3C234.4,305.7,233.2,307.8,223.4,311.6z M225.3,360.4
		c-10.2,4.5-21.5,6.6-34.4,6.6c-3.4,0-6.9-0.2-10.5-0.5c-5.8-0.5-11.7-1.8-17.3-3c-2.1-0.5-4.4-1-6.7-1.4c-1.2-0.2-2.3-0.8-3.4-1.2
		c-0.2-0.1-0.5-0.2-0.7-0.3c-8.5-3.8-9.9-6.5-8.4-16.2l0.3-2l1.9,0.7c28.1,11.2,56.7,11.2,84.9,0.1l1.8-0.7l0.4,1.9
		C235.1,353.6,233.5,356.8,225.3,360.4z M225.4,335.5c-10.3,4.5-21.6,6.6-35.6,6.6c-2.5,0-5.1-0.1-7.7-0.2
		c-11.1-0.5-19.9-2.3-27.8-5.4l-0.1,0c-0.2-0.1-0.4-0.1-0.6-0.2c-10-4.7-10.3-5.9-9.7-14.7l0-0.2c0-0.6,0.1-1.2,0.1-1.9l0.1-2.3
		l2.1,0.9c13.2,5.7,27.1,8.5,42.4,8.5c15.6,0,29.5-2.8,42.4-8.4l1.8-0.8l0.4,1.9C235.2,328.6,233.6,331.9,225.4,335.5z"/>
	<path class="st1" d="M72.2,375.4c10.4-1.3,22.3-3.2,32.6-10c5.6-3.7,8.1-8.4,8.1-15.1l0-2.1c-0.2-21.5-0.4-43.7,0.1-65.5
		c0.2-8.9-3.3-14.7-11.4-18.8c-2.4-1.2-4.7-2.4-7-3.1c-24.3-7.7-48.7-7.6-72.4,0.2c-9.2,3-14.9,7.6-17.7,14.5v80
		c0,0.1,0.1,0.2,0.1,0.3l0.1,0.4c0.1,0.2,0.1,0.3,0.2,0.5c0.1,0.1,0.1,0.3,0.2,0.4l0.2,0.4c0.1,0.2,0.1,0.3,0.2,0.5
		c0.1,0.1,0.2,0.3,0.2,0.4l0.2,0.3c0.1,0.1,0.2,0.3,0.2,0.4c0.1,0.1,0.2,0.3,0.3,0.4l0.2,0.3c0.1,0.1,0.2,0.3,0.3,0.4
		c0.1,0.1,0.2,0.3,0.3,0.4l0.2,0.3c0.1,0.1,0.2,0.3,0.3,0.4c0.1,0.1,0.2,0.2,0.3,0.4l0.3,0.3c0.1,0.1,0.2,0.2,0.3,0.4
		c0.1,0.1,0.2,0.2,0.3,0.3l0.3,0.3c0.1,0.1,0.2,0.3,0.4,0.4c0.1,0.1,0.2,0.2,0.3,0.3l0.3,0.3c0.1,0.1,0.3,0.2,0.4,0.3
		c0.1,0.1,0.2,0.2,0.3,0.3l0.4,0.3c0.1,0.1,0.3,0.2,0.4,0.3c0.1,0.1,0.2,0.2,0.4,0.3l0.4,0.3c0.2,0.1,0.3,0.2,0.5,0.3
		c0.1,0.1,0.2,0.1,0.3,0.2l0.4,0.3c0.2,0.1,0.3,0.2,0.5,0.3c0.1,0.1,0.2,0.1,0.4,0.2l0.4,0.2c0.2,0.1,0.4,0.2,0.6,0.3
		c0.1,0.1,0.2,0.1,0.4,0.2l0.5,0.2c0.2,0.1,0.4,0.2,0.6,0.3c0.1,0.1,0.3,0.1,0.4,0.2l0.5,0.2c0.2,0.1,0.4,0.2,0.7,0.3
		c0.1,0.1,0.3,0.1,0.5,0.2l0.5,0.2c0.2,0.1,0.4,0.2,0.6,0.2c0.6,0.2,1.1,0.4,1.7,0.6c5.3,1.6,11,2.7,16.4,3.8c2.5,0.5,5,1,7.4,1.5
		c0.6,0.1,1.2,0.3,1.8,0.4l1.2,0.3H68c0.3-0.1,0.7-0.1,1.1-0.2h0l0.1,0.5l0-0.5C70.2,375.7,71.2,375.5,72.2,375.4z M16.6,274.4
		c5.5-2.9,10.9-5.6,16.6-6.9c6.2-1.4,12.5-2.1,17.1-2.6c1.5-0.2,2.9-0.3,3.9-0.5l0.2,0c16.6,0.4,27.6,1.4,38.3,5.7
		c2.5,1,5.1,2.4,8.2,4.5c1.6,1.1,2.5,2.5,2.5,4.1c0,1.5-0.9,2.9-2.5,3.9c-3.2,2-6.6,4.1-10.3,5.2c-10.6,3.3-21.4,4.9-32.1,4.9
		c-11,0-22.2-1.8-33.1-5.3c-3.6-1.1-6.9-3.2-9-4.7c-2-1.4-3-2.9-2.9-4.5C13.6,276.7,14.6,275.4,16.6,274.4z M13.9,294.8l0.3-2
		l1.9,0.7c28.1,11.1,56.6,11.2,84.6,0.1l1.6-0.6l0.5,1.7c2.4,8.2,0.7,12.1-6.7,15.6c-10.3,4.8-22,7-36.8,7c-1.9,0-3.9,0-6.2-0.1
		c-11.4-0.4-20.6-2.1-28.9-5.4c-0.2-0.1-0.4-0.2-0.6-0.2c-0.4-0.1-0.8-0.3-1.1-0.5C13.9,307.3,12.4,304.4,13.9,294.8z M94.5,335.9
		c-10.2,4.3-21.3,6.3-35.1,6.3c-2.5,0-5-0.1-7.7-0.2c-11-0.5-19.9-2.3-27.8-5.5c-9.8-3.9-10.9-5.7-10.3-16.8l0.1-2.2l2.1,0.8
		c28.2,11.2,56.8,11.3,85.1,0.1l1.9-0.7l0.3,2C104.5,329.6,103.2,332.2,94.5,335.9z M61.2,367c-3.5,0-7.1-0.2-10.8-0.5
		c-8.5-0.8-17.4-2.6-26.5-5.5c-10-3.1-11.1-6.2-10.2-16.6l0.2-2.1l2,0.8c28.2,11.2,56.7,11.3,84.9,0.1l1.8-0.7l0.4,1.9
		c1.9,9.3,0.4,12.4-7.7,15.9C84.9,364.8,73.8,367,61.2,367z"/>
	<path class="st1" d="M13.3,231.8c0.6-0.5,1.2-0.9,1.7-1.4l12.8-11.2c26-22.7,52.9-46.3,79.3-69.4c2.2-1.9,4.3-2.7,7.2-2.7
		c0,0,0,0,0,0c18.9,0,37.9,0,56.8,0c22,0,43.9,0,65.9,0.1c2.5,0,4.3-0.7,6.2-2.6c33.5-33.6,67.6-67.6,100.5-100.6l14.5-14.5
		c0.6-0.6,1.3-1.2,2.1-2c0.4-0.4,0.9-0.9,1.5-1.4l1.9-1.7v48.2h9.8V7.2h-65.6v10h47.9L354,19c-0.4,0.4-0.7,0.8-0.9,1.1
		c-0.5,0.6-0.9,1-1.3,1.4l-11.4,11.4c-33.4,33.4-67.9,67.9-101.9,101.8c-1.6,1.6-4.3,2.3-6.2,2.3c-38.9,0.1-80.1,0.1-122.4,0
		c-2.6,0-4.5,0.7-6.4,2.4c-17.3,15.2-34.9,30.7-52,45.6L35,199.4c-6.5,5.7-13.1,11.5-19.7,17.3l-8.8,7.7l6.7,7.6
		C13.2,231.9,13.2,231.9,13.3,231.8z"/>
</g>
<g class="st0">
	<path class="st2" d="M128.4,220.5c3.9-3.8,7.9-7.8,11.9-11.6c1.7-1.6,2.6-3,1-5.2c-0.6-0.8-1.1-1.7-1.2-2.6
		c-0.9-6.2-4.8-7.4-10.3-6.7c-3.2,0.4-6.5,0-9.8,0.1c-2,0.1-2.8-0.6-2.8-2.7c0.1-8.5,0.1-16.9,0-25.4c0-2.1,0.8-2.7,2.8-2.7
		c5.1,0.1,10.2-0.1,15.2,0.1c1.9,0,2.9-0.6,3.3-2.5c0.4-1.5,1-3,1.6-4.4c2.3-5.3,2.3-5.3-1.9-9.5c-3.3-3.2-6.6-6.3-9.9-9.4
		c7.6-7.5,14.8-14.5,22.4-22.1c3.6,3.7,7.7,7.8,11.6,12.1c1.3,1.4,2.5,1.9,4.3,0.8c1.5-0.9,3.2-1.8,5-2.2c4.2-0.8,5.1-3.2,4.8-7.2
		c-0.4-4.8-0.1-9.6-0.1-14.7c10.3,0,20.3,0,30.7,0c0,5.7,0.1,11.3-0.1,16.8c-0.1,2.7,0.7,4.1,3.3,4.5c0.9,0.2,1.8,0.6,2.7,1
		c6.3,2.6,6.4,2.6,11.3-2.4c3-3,5.9-6.1,8.7-9.1c7.4,7.4,14.4,14.5,22.1,22.2c-3.7,3.6-7.6,7.5-11.7,11.2c-2,1.8-2.9,3.4-1.1,5.8
		c0.6,0.8,0.9,2,1.4,3c2.5,6,2.5,6,9.1,6c4,0,8,0,12,0.1c0.3,0,0.7,0.2,1.2,0.4c0,9.8,0,19.7,0,30.2c-5.4,0-10.6,0.2-15.9-0.1
		c-3.4-0.2-5.3,0.8-5.8,4.2c0,0.2-0.2,0.5-0.3,0.7c-4.2,5.8-1.9,9.9,3.1,13.7c2.9,2.2,5.3,4.9,7.7,7.1c-7.5,7.6-14.6,14.7-22.1,22.2
		c-3.5-3.5-7.3-7.3-11-11.3c-1.9-2-3.5-3-6.1-1.1c-1,0.8-2.4,1.3-3.6,1.6c-4.6,0.8-5.5,3.5-5.2,7.7c0.4,4.7,0.1,9.4,0.1,14.3
		c-10.4,0-20.3,0-30.7,0c0-5.8-0.1-11.3,0.1-16.8c0.1-2.4-0.5-4-3-4.4c-0.8-0.1-1.7-0.4-2.4-0.9c-5.2-3.9-9-1.9-12.5,2.7
		c-2.4,3.2-5.3,5.9-8,8.9C143,235.3,136,228.2,128.4,220.5z M191.6,216.6c20.8,0.1,37.5-16.4,37.5-37.1c0-21.1-16.3-37.5-37.4-37.5
		c-20.3,0-37,16.4-37.1,36.3C154.5,199.8,170.6,216.5,191.6,216.6z"/>
	<path class="st2" d="M340.8,220.6c-4,15-9.9,28.5-18,40.9c-27.1,41.6-65.4,65.7-114.7,71.5c-69.6,8.3-138.8-35.3-161.7-101.6
		c-1.4-4.2-3.3-5.3-7.6-4.8c-7.9,1-16,1.2-25.3,1.8c13.7-17.6,26.7-34.3,40.2-51.5c15.4,15.1,30.6,29.9,46.7,45.6
		c-10.4,0.8-19.7,1.4-29.7,2.2c0.7,2,1.2,3.8,2,5.5c22.2,47.3,59,74.4,111.3,78.1c57.6,4.1,109-29.9,129.4-83.9
		c1.1-2.8,2.3-4,5.5-3.9C325.9,220.7,332.9,220.6,340.8,220.6z"/>
	<path class="st2" d="M370.2,130c-13.7,17.6-26.7,34.2-40.2,51.4c-15.4-15-30.6-29.9-46.7-45.5c10.4-0.8,19.7-1.4,29.6-2.2
		c-0.6-1.6-0.9-3.1-1.5-4.5c-20.4-48.6-68.3-80.3-120.2-79.8C137.4,50.1,89.7,83,70.8,133.1c-1.5,3.9-3.4,5-7.3,4.9
		c-6.5-0.3-13.1-0.1-20.7-0.1c1.6-4.8,2.7-9.1,4.4-13.1c25.2-60.3,70.1-94.7,135.5-99.6c68.4-5.1,131.1,36.7,154.4,101.2
		c1.7,4.7,3.7,6,8.6,5.3C353.4,130.7,361.2,130.6,370.2,130z"/>
</g>
<path class="st3" d="M290.7,201.1l2.5-5.3h37.6c9.4,0,17.1-7.7,17.1-17.1v-52c0-8-5.4-14.8-13.2-16.7l-4.9-0.2l-1.7-5.8
	c-9.5-27.1-27.3-51.5-50.1-68.9c-25.8-19.7-56.7-30.1-89.3-30.1c-32.6,0-63.4,10.4-89.3,30.1C76.8,52.6,59,77.1,49.5,104.1l-1.7,4.8
	l-4.9,1.2c-7.8,1.8-13.2,8.7-13.2,16.7v52c0,9.4,7.7,17.1,17.1,17.1h37.6l2.5,5.3c6.3,13.1,14.9,24.8,25.7,34.7l26.4,17l-32.6-0.9
	c-40.6,0.2-73.6,33.4-73.6,73.9v50.8h312v-50.8c0-40.6-33-73.8-73.6-73.9l-27.6-1.1l17.4-15C269.3,228.9,282.3,214.3,290.7,201.1z
	 M330.9,114.3c3.3,0,6.5,1.3,8.8,3.7c2.4,2.4,3.7,5.5,3.7,8.8v52c0,6.9-5.6,12.5-12.5,12.5h-36.2c0,0,4.9-17.1,5.7-23
	c0.1-0.9,1.3-17.4,1.2-18.3l0-1.2c0-0.5,0-1-0.1-1.5l-0.1-1.6c0-0.4,0-0.8-0.1-1.2l0-0.1c0-0.3,0-0.5-0.1-0.7l-0.1-0.8
	c0-0.4-0.1-0.7-0.1-1.1c0-0.4-0.1-0.8-0.1-1.2l-0.1-0.4c0-0.3-0.1-0.6-0.1-0.8c-0.1-0.6-0.1-1.2-0.2-1.8l0-0.3
	c0-0.3-0.1-0.6-0.1-0.9c-0.1-0.5-0.2-1-0.2-1.5c-0.1-0.4-0.1-0.7-0.2-1c-0.4-2.6-1-5.1-1.6-7.7l0-0.1l-3.9-11.5L330.9,114.3z
	 M57.4,96.7c9.8-22.8,25.3-42.8,45-57.8c25-19,54.9-29.1,86.5-29.1c31.5,0,61.4,10.1,86.5,29.1c19.7,15,35.3,35,45,57.8l5.5,12.9
	h-32.6l-2.5-5.3C272.1,65.2,232.1,40,188.9,40S105.7,65.2,87,104.4l-2.5,5.3H51.9L57.4,96.7z M285.2,102.8l-7.3,5
	c-15.4,10.6-33.4,16.2-52.1,16.2c-24.6,0-47.8-9.6-65.2-27l-1.5-1.5l-1.6,1.4c-13.1,11.4-29.9,17.6-47.3,17.6
	c-2.9,0-5.9-0.2-8.8-0.5l-13.7-1.7l6.7-12c19.1-34.3,55.4-55.7,94.5-55.7c18.6,0,36.9,4.8,53.1,13.9c15.6,8.8,28.9,21.5,38.5,36.7
	L285.2,102.8z M86.1,191.2H46.9c-6.9,0-12.5-5.6-12.5-12.5v-52c0-6.9,5.6-13.5,16.5-13.5l35.3,1 M270.9,256.6
	c38.2,0,69.3,31.1,69.3,69.3V372H37.5v-46.1c0-38.2,31.1-69.3,69.3-69.3l36.1-1v13.2c0,25.3,20.6,45.9,45.9,45.9
	c25.3,0,45.9-20.6,45.9-45.9l1-15.2L270.9,256.6z M146.9,257.4l12.4,4.2c1,0.3,2,0.5,3.2,0.8c0.3,0.1,0.6,0.1,0.9,0.2l0.1,0
	c0.8,0.2,1.7,0.4,2.5,0.6l0.3,0.1c0.2,0,0.3,0.1,0.5,0.1c1.1,0.2,2.2,0.4,3.3,0.6l0.6,0.1c0.9,0.2,1.9,0.3,2.7,0.4
	c0.3,0,0.6,0.1,1,0.1c0.9,0.1,1.9,0.2,2.8,0.3l0.6,0.1c0.8,0.1,1.5,0.1,2.3,0.2l0.3,0c0.2,0,0.5,0,0.8,0.1l2.1,0.1
	c0.4,0,0.8,0,1.1,0l0.4,0c0.3,0,0.5,0,0.7,0l0.6,0c2,0,3.8,0,5.7,0l0.5,0c0.3,0,0.6,0,1,0l0.3,0c0.4,0,0.7,0,1.1,0l1.6-0.1
	c0.2,0,0.4,0,0.5,0c0.3,0,0.5,0,0.8-0.1l0.2,0c0.8-0.1,1.6-0.1,2.3-0.2l0.3,0c0.1,0,0.3,0,0.4,0c0.9-0.1,1.8-0.2,2.7-0.3
	c0.3,0,0.7-0.1,1-0.1c0.9-0.1,1.8-0.3,2.7-0.4l0.6-0.1c1.1-0.2,2.2-0.4,3.3-0.6l0.8-0.2c0.9-0.2,1.7-0.4,2.5-0.6l0.1,0
	c0.3-0.1,0.6-0.1,0.9-0.2c1.2-0.3,2.2-0.5,3.1-0.8c0.1,0,0.1,0,0.2-0.1l12.2-4.2l-0.7,13.7c-1.2,21.9-19.3,39-41.2,39
	c-21.9,0-40-17.1-41.2-39L146.9,257.4z M258.2,235.7c-19.4,16.2-44,25.2-69.3,25.2c-28.8,0-56-11.3-76.4-31.7
	c-20.4-20.4-31.7-47.6-31.7-76.4c0-0.9,0-1.8,0-2.7l0-1.1c0-0.5,0-1,0.1-1.6c0-0.3,0-0.5,0-0.8l0-0.6c0-0.4,0-0.7,0.1-1.1l0-0.2
	c0-0.2,0-0.5,0.1-0.7l0.1-1c0-0.3,0.1-0.6,0.1-1c0-0.4,0.1-0.7,0.1-1.1l0-0.3c0-0.3,0.1-0.5,0.1-0.8l0,0c0-0.2,0-0.3,0.1-0.5
	c0-0.3,0.1-0.7,0.1-1.1l0.1-0.5c0-0.3,0.1-0.6,0.1-0.9c0.1-0.5,0.1-0.9,0.2-1.3c0.1-0.5,0.1-0.9,0.2-1.3c0.1-0.4,0.2-0.9,0.2-1.4
	c0.1-0.4,0.1-0.8,0.2-1.2c0.1-0.5,0.2-0.9,0.3-1.4c0.1-0.4,0.2-0.7,0.2-1.1c0.1-0.5,0.2-1,0.3-1.5c0.1-0.3,0.2-0.7,0.3-1.1
	c0.1-0.5,0.2-1,0.4-1.4c0.1-0.2,0.1-0.4,0.2-0.7l2.3-8.5l8.4,1.7c4.9,1,9.9,1.5,14.9,1.5c15.4,0,30.2-4.5,43-13.1l5.7-3.9l5.3,4.4
	c17.5,14.5,38.8,22.1,61.6,22.1c18.4,0,36.4-5.2,51.9-15.1l10-7.4l3.8,12.2c0.1,0.3,0.2,0.6,0.3,1l0.1,0.4c0,0.1,0.1,0.3,0.1,0.4
	c0.1,0.4,0.3,0.9,0.4,1.5c0.1,0.3,0.2,0.6,0.3,0.9c0.2,0.5,0.3,1,0.4,1.6l0,0.2c0.1,0.3,0.1,0.5,0.2,0.8c0.1,0.5,0.3,1,0.4,1.5
	c0.1,0.4,0.2,0.7,0.3,1.1c0.1,0.5,0.2,1,0.3,1.5c0.1,0.4,0.2,0.7,0.2,1.1c0.1,0.4,0.2,0.9,0.3,1.4c0.1,0.4,0.2,0.8,0.2,1.2
	c0.1,0.4,0.2,0.9,0.2,1.4l0,0.1c0.1,0.3,0.1,0.7,0.2,1.1l0,0c0.1,0.4,0.1,0.8,0.2,1.3c0.1,0.5,0.1,1,0.2,1.4l0,0.1
	c0,0.4,0.1,0.7,0.1,1.1c0.1,0.4,0.1,0.9,0.2,1.3l0,0.3c0,0.3,0.1,0.6,0.1,1l0,0.4c0,0.3,0.1,0.6,0.1,0.9l0.1,0.7
	c0,0.2,0,0.4,0.1,0.7c0,0.4,0.1,0.9,0.1,1.3l0,0.8c0,0.2,0,0.4,0,0.6c0,0.7,0.1,1.4,0.1,2.1l0,0.5c0,1,0,1.9,0,2.8
	c0,20.4-5.7,40.3-16.6,57.5l-2.7,4.3l-65.3,0.4l-1.6-5.1c-2.8-5.5-8.4-9-14.6-9h-14.7c-9,0-16.4,7.4-16.4,16.4
	c0,9,7.4,16.4,16.4,16.4h14.7c6.2,0,11.8-3.5,14.7-9.1l1.6-5.1l63.8-0.6L258.2,235.7z M209,217.3c0,6.5-6.3,11.8-12.8,11.8h-14.7
	c-6.5,0-11.8-5.3-11.8-11.8c0-6.5,5.3-11.8,11.8-11.8h14.7C202.7,205.5,209,210.8,209,217.3z"/>
<path class="st3" d="M84.3,114.3l-3.9,11.5l0,0.1c-0.6,2.5-1.2,5.1-1.6,7.7c-0.1,0.3-0.1,0.7-0.2,1c-0.1,0.5-0.2,1-0.2,1.5
	c0,0.3-0.1,0.6-0.1,0.9l0,0.3c-0.1,0.6-0.2,1.2-0.2,1.8c0,0.3-0.1,0.5-0.1,0.8l-0.1,0.4c0,0.4-0.1,0.8-0.1,1.2
	c0,0.4-0.1,0.7-0.1,1.1l-0.1,0.8c0,0.2,0,0.5-0.1,0.7l0,0.1c0,0.4-0.1,0.8-0.1,1.2l-0.1,1.6c0,0.5,0,0.9-0.1,1.5l0,1.2
	c0,0.9,0.7,14.1,0.8,15.1c0.8,6.7,6.2,26.2,6.2,26.2H47.9c-6.9,0-12.5-5.6-12.5-12.5v-52c0-3.3,1.3-6.5,3.7-8.8
	c2.4-2.4,5.5-3.7,8.8-3.7L84.3,114.3z"/>
</svg>
