<?xml version="1.0" encoding="utf-8"?>
<!-- Generator: Adobe Illustrator 23.0.1, SVG Export Plug-In . SVG Version: 6.00 Build 0)  -->
<svg version="1.1" id="Layer_1" xmlns="http://www.w3.org/2000/svg" xmlns:xlink="http://www.w3.org/1999/xlink" x="0px" y="0px"
	 viewBox="0 0 384 384" style="enable-background:new 0 0 384 384;" xml:space="preserve">
<style type="text/css">
	.st0{fill:#808080;}
</style>
<path class="st0" d="M378.1,173.2c-1.8-17.8-8.1-34.8-18.9-50.7c-16.3-24-38.7-42.2-68.6-55.7c-41.9-18.8-87.3-24.4-134.9-16.6
	c-37,6.1-67.8,19.4-94.3,40.7c-23,18.6-37.6,39.6-44.6,64.4c-1.2,4.4-2.1,9.1-2.9,13.5c-0.4,2-0.7,4.1-1.2,6.2v16.3
	c0.4,2.1,0.8,4.3,1.2,6.4c0.9,4.7,1.8,9.7,3,14.4c3.3,12.9,9.3,25.1,17.7,36.4c1.9,2.5,2.1,4.6,0.7,7.3
	c-5.8,11.3-11.6,22.8-17.2,33.9c-1.8,3.6-3.6,7.3-5.5,10.9v5.1c3.9,8.1,7.1,9.5,16,7.6c6.9-1.5,13.7-3,20.6-4.6
	c14.2-3.1,28.9-6.4,43.3-9.5c0.8-0.2,1.7-0.3,2.5-0.3c1.3,0,2.6,0.2,3.6,0.7c46.1,20.8,95.3,26,146.1,15.6
	c35.6-7.3,66.1-21.9,90.6-43.6c21.7-19.2,35-40.6,40.7-65.7c0.7-3.1,1.3-6.4,1.8-9.5c0.2-1.5,0.5-2.9,0.7-4.4v-16.9
	c0-0.1-0.1-0.3-0.1-0.4C378.4,174.4,378.2,173.9,378.1,173.2z M351.2,240.5c-15.3,22.5-36.8,39.7-66,52.5
	c-27.5,12.2-57.6,18.3-89.6,18.3c-4.9,0-9.8-0.1-14.8-0.4c-27.4-1.6-54.5-8.5-80.6-20.5c-1.8-0.8-4.3-1.1-6.3-0.7
	c-17.3,3.7-34.9,7.6-51.9,11.4c-5.2,1.2-10.4,2.3-15.5,3.4c-0.4,0.1-0.8,0.1-1.4,0.2c-0.3,0.1-0.7,0.1-1.2,0.2l-2.8,0.5l1.2-2.6
	c0.3-0.6,0.5-1.1,0.7-1.6c0.4-1,0.8-1.7,1.2-2.5c1.9-3.7,3.7-7.4,5.5-11.1c5.2-10.4,10.5-21.1,15.9-31.6c1.8-3.5,1.5-6-1-9.2
	c-17.4-22.1-24.8-46.7-22.1-73.2c2.3-22.9,12.2-43.2,30.2-62.2c20-21.1,45.4-36.1,77.6-45.7c29.4-8.8,60-11.5,91.1-8
	c42.8,4.9,77.5,19,106.1,43.3c20.3,17.2,32.9,36.5,38.7,59.2C373.5,188.1,368.4,215.1,351.2,240.5z"/>
<path class="st0" d="M304.2,149.7c-4.8-2.4-10-4.9-15.1-7.6c-1.2-0.6-2.7-2-3.2-3.5c-4-12.2-11.8-17.9-24.6-17.9
	c-12.7,0-25.4,0-38,0l-22.8,0v-1.5c0-1.1,0-2.2,0-3.3c0-2.3,0.1-4.5-0.1-6.7c-0.2-2.9,0.9-4.6,3.6-6.1c7-3.8,10.4-12.1,7.9-19.8
	c-2.4-7.4-9.1-12.1-16.9-11.9c-7.3,0.3-13.8,5.6-15.7,12.6c-1.9,7.3,1.4,15.2,8,19.1c1.7,1,3.4,2.2,3.6,3.8c0.2,2.9,0.2,5.8,0.2,8.8
	c0,1.1,0,2.3,0,3.4v1.5h-5.9c-5.6,0-11.1,0-16.6,0c-12.8,0-26.1,0-39.2,0c-11.9,0-20.1,6.2-23.7,17.7c-0.5,1.5-1.8,3.1-3.3,3.9
	c-4.5,2.4-9.3,4.9-14.8,7.5c-4.9,2.3-7.1,5.9-7.1,11.2c0.1,11.6,0.1,22.9,0,33.5c0,5.3,2.2,8.8,7.1,11.2c4.4,2.1,9.7,4.7,14.8,7.5
	c1.5,0.8,2.9,2.4,3.3,3.9c3.6,11.4,11.7,17.5,23.4,17.6c6,0.1,12,0.1,17.9,0c2.7,0,5.3,0,8,0h11.2V250h-1.5c-0.9,0-1.7,0-2.5,0
	c-1.7,0-3.3,0-4.9,0c-5.5,0.2-10.5,2.5-14.7,6.6c-4.9,4.8-7,11-6.8,20c0.2,9.6,3.8,13.2,13.2,13.2c8.9,0,17.8,0,26.7,0
	c8.4,0,17,0,25.6,0c12.8,0,25.7,0.1,38.5,0.2c6.3,0.1,10.4-1,12.8-3.6c2.4-2.5,3.4-6.5,3.2-12.7c-0.6-14.2-10-23.6-23.8-23.8
	c-1.2,0-2.3,0-3.5,0l-3.3,0v-15.3h5.8c3.1,0,6.2,0,9.4,0c7.1,0,14.2,0,21.3,0c12.5-0.1,20.5-5.9,24.3-17.8c0.4-1.4,1.7-2.8,3.1-3.6
	c5.2-2.8,10.5-5.4,15.1-7.6c4.8-2.3,7-5.9,7-11.3c-0.1-11.4-0.1-22.5,0-33.2C311.1,155.6,309,152,304.2,149.7z M104.9,203.7
	l-2.2-1.1c-1-0.5-2-1-3-1.4c-2.8-1.4-5.5-2.6-8.1-4.1c-1.3-0.7-1.9-2.8-1.9-4c-0.1-12.1-0.1-22,0-31c0-1.6,1.1-3.5,2.4-4.3
	c2.3-1.4,4.8-2.5,7.3-3.8c1-0.5,2.1-1,3.1-1.5l2.2-1.1V203.7z M188.2,88c0.1-2,1-4,2.6-5.4c1.5-1.4,3.5-2,5.5-1.9
	c4.2,0.3,7.4,4,7,8.2c-0.2,2-1.1,3.9-2.6,5.2c-1.4,1.2-3.1,1.8-5,1.8c-0.2,0-0.5,0-0.7,0C191,95.6,188,92.2,188.2,88z M232.2,259.2
	c8.4,0,14,5.6,14.2,14.1c0,1.1,0,2.3,0,3.5c0,0.6,0,1.3,0,2v1.5H145.5l-0.1-1.5c-0.5-5.2-0.9-10.6,3.4-15.2
	c2.7-2.9,6.2-4.4,10.4-4.4c0,0,0,0,0,0c9.1,0,18.3,0,27.4,0C201.5,259.2,217,259.2,232.2,259.2z M215.7,238.8c0,2.7,0,5.5-0.1,8.3
	c-0.1,1.6-2.4,2.7-3.6,2.7c-5.7,0-11,0.1-15.9,0.1c-5.8,0-11.2,0-16.4-0.1c-1.5,0-3.6-1.6-3.8-3.2c-0.2-2.5-0.2-4.9-0.1-7.5
	c0-0.9,0-1.8,0-2.8v-1.5h39.9v1.5C215.7,237.1,215.7,238,215.7,238.8z M261.5,225.2c-9.5,0-19,0-28.5,0c-6.2,0-12.5,0-18.7,0
	l-18.7,0l-18.9,0c-15.3,0-30.6,0-45.9,0c-11.4,0-16.4-5-16.4-16.4c0-21,0-42,0-63c0-10.3,5.4-15.8,15.5-15.8c43.7,0,88.1,0,131.8,0
	c10,0,15.5,5.5,15.5,15.5c0,21.4,0,42.7,0,64.1C277.2,219.8,271.8,225.2,261.5,225.2z M301.7,193c0,1.4-0.9,3.5-2.4,4.3
	c-2.3,1.4-4.8,2.5-7.4,3.8c-1,0.5-2.1,1-3.2,1.5l-2.2,1.1v-52.5l2.2,1.1c1,0.5,2,1,3,1.5c2.9,1.5,5.7,2.8,8.4,4.3
	c1.4,0.8,1.6,3.1,1.6,3.8C301.8,171.4,301.8,182.2,301.7,193z"/>
<path class="st0" d="M169.7,165.3c0-5.3-2.1-10.3-5.9-14.1c-3.8-3.8-8.8-5.8-14.1-5.8c0,0,0,0-0.1,0c-11.1,0-20,9-20,20
	c0,11,9,19.9,20.1,19.9c0,0,0,0,0,0c5.4,0,10.4-2.1,14.2-5.9C167.6,175.6,169.7,170.6,169.7,165.3z M149.7,175.9c0,0-0.1,0-0.1,0
	c-5.8,0-10.6-4.6-10.8-10.4c-0.1-2.8,1-5.4,2.9-7.5c2-2.1,4.7-3.3,7.5-3.4c3-0.1,5.8,1,7.9,3.1c2.1,2,3.2,4.7,3.2,7.5
	C160.4,171.1,155.6,175.9,149.7,175.9z"/>
<path class="st0" d="M241.9,145.3C241.9,145.3,241.9,145.3,241.9,145.3c-5.4,0-10.4,2.1-14.2,5.8c-3.8,3.8-5.9,8.8-5.9,14.1
	c0,5.3,2.1,10.3,5.9,14.1c3.8,3.8,8.8,5.8,14.2,5.9c0,0,0,0,0,0c11,0,20-8.9,20.1-19.9c0-5.3-2.1-10.3-5.9-14.1
	C252.3,147.4,247.2,145.3,241.9,145.3z M241.9,175.9C241.9,175.9,241.9,175.9,241.9,175.9c-5.9,0-10.7-4.7-10.8-10.5
	c-0.1-5.8,4.6-10.6,10.5-10.7c3-0.1,5.8,1.1,7.8,3.2c2,2,3.1,4.7,3.1,7.6C252.5,171.2,247.7,175.9,241.9,175.9z"/>
<path class="st0" d="M215.9,191c-5.5,6.2-12.7,9.6-20.2,9.6c0,0,0,0-0.1,0c-7.5,0-14.6-3.4-20-9.5c-1.9-2.2-3.5-2.8-4.7-2.8
	c-1.4,0-2.3,0.8-2.8,1.2c-3.1,2.7-1,6,0.5,7.7c7.2,8.4,16.2,12.5,27.4,12.7c10.9-0.2,20-4.5,27-12.8c2.4-2.8,2.6-5.6,0.4-7.5
	C222.6,188.8,220,186.5,215.9,191z"/>
</svg>
