<?xml version="1.0" encoding="utf-8"?>
<!-- Generator: Adobe Illustrator 23.0.1, SVG Export Plug-In . SVG Version: 6.00 Build 0)  -->
<svg version="1.1" id="Layer_1" xmlns="http://www.w3.org/2000/svg" xmlns:xlink="http://www.w3.org/1999/xlink" x="0px" y="0px"
	 viewBox="0 0 384 384" style="enable-background:new 0 0 384 384;" xml:space="preserve">
<style type="text/css">
	.st0{fill:#808080;}
</style>
<g>
	<path class="st0" d="M108.8,24.8c14.8,0,29.7-0.1,44.5,0c14.1,0.1,22.3,8.4,22.4,22.6c0.1,19.3-0.1,38.7,0,58
		c0,9.5-3.7,16.4-12.3,21c-1.6,0.8-2.8,3.3-3.1,5.2c-0.5,3.4,0.2,6.9-0.3,10.3c-0.3,2.1-1.3,5.2-2.8,5.8c-1.9,0.7-5-0.1-6.8-1.4
		c-6.4-4.7-12.3-10.1-18.8-14.6c-2.8-1.9-6.5-3.4-9.8-3.5c-19.1-0.3-38.2-0.1-57.4-0.2c-15,0-23-8.2-23.1-23.2
		c0-19.1-0.1-38.2,0-57.4c0-14.5,8.3-22.6,22.9-22.7C79.1,24.8,93.9,24.8,108.8,24.8z M150.8,134.7c0.1-2.1,0.3-5.9,0.2-7.1
		c0-4.8,1.4-9.9,6.6-10.5c5.5-0.7,7.7-5.6,7.6-11.2c0-19.8,0.1-39.6-0.1-59.3c0-7.6-4-11.4-11.7-11.4c-29.9-0.1-59.8-0.1-89.7,0
		c-8.4,0-12.1,3.8-12.1,12.3c-0.1,19.1-0.1,38.3,0,57.4c0,9.3,3.5,12.8,12.9,12.8c16.3,0.1,32.7,0.8,49-0.2
		c12.2-0.7,22.3,1.8,30.7,10.9C145.6,129.7,148.6,133.1,150.8,134.7z"/>
	<path class="st0" d="M297.2,131.4c-3.8-7.6-6.9-14.9-10.7-22.5c-7.1,14.1-13.5,27-20,39.8c-1.2,2.3-1.9,5.2-3.7,6.8
		c-1.8,1.6-4.8,2.4-7.2,1.3c-2.5-1.2-3.3-4.3-2.5-6.3c2.6-6.9,6.3-13.3,9.6-19.9c5.6-11.3,11.1-22.7,17-33.8
		c1.4-2.6,3.5-5.7,6.9-5.9c3.7-0.2,5.1,3.1,6.3,5.5c8.9,17.1,17.3,34.4,26,51.7c1.9,3.7,3.2,7.4-1.3,9.9c-4.6,2.5-6-0.4-8.1-4
		c-0.7-1.2-1.8-2.9-2.6-4.3c-3.1-6-5.8-7.8-12.6-8.1c-2.5-0.1-4.5-0.1-8.5-0.3c-2.2-0.1-4.2-1.4-4.7-5.1c-0.4-3.4,2.6-4.9,4.8-4.9
		C290.1,131.4,292.5,131.4,297.2,131.4z"/>
	<path class="st0" d="M110,98c-6.3,3.3-12.1,6.4-17.9,9.4c-3.2,1.6-6.3,1.5-7.8-2.1c-1.6-3.7,0.8-5.5,4-7c4.6-2.2,9-4.7,14-7.2
		c-2.4-3-4.2-5.2-6-7.4c-2.2-2.7-4.1-5.7-0.6-8.6c3.5-2.9,6-0.7,8.2,2.2c1.5,1.9,3.2,3.7,5.5,6.3c2.8-5.2,5.1-9.5,8-14.8
		c-11.4,0-21.5,0-31.6,0c-3.7,0-7.2-1.1-6.5-5.3c0.3-1.8,3.7-4.2,5.9-4.5c5.9-0.6,11.9-0.2,17.8-0.2c-0.4-0.5-0.8-1.1-1.3-1.6
		c2.3-2.7,4.6-5.5,6.9-8.2c2.2,2.6,4.3,5.3,6.5,7.9c-0.4,0.6-0.9,1.2-1.3,1.9c5.5,0,11,0,16.5,0c3.7,0,7.7,0,7.8,4.8
		c0.1,4.8-3.7,5.2-7.5,5.1c-1,0-2,0.2-2.5,0.2c-3.7,7.2-7.1,13.9-11,21.6c3.8,2.4,8,5.2,12.4,7.8c3,1.8,5.1,3.9,3.1,7.5
		c-2,3.5-5.1,3-8,1.2C119.5,104,114.6,100.9,110,98z"/>
	<path class="st0" d="M79.9,220.1c0-4.7-1.1-8.5,0.1-12.2c2.2-7.1,7.7-11,14.9-11.8c6.7-0.8,12.6,1.7,16,7.5c1.3,2.3,2.4,7.2,0,9.2
		c-2.2,1.9-6-1.4-8.6-2.8c-3-1.6-5.9-2.8-8.9-2.4c-1.8,0.2-2.4,2.4-2.9,3.6c-0.7,1.6,0.2,3.5,0.6,3.8c2.3,2.1,5.3,3.7,8.3,4.5
		c3.5,0.9,7.6,0.6,10,1.6c2.4,1,5,2,4.9,4.9c-0.1,2.7-3.9,5.1-6,5.3c-7.2,0.7-14.4,0.2-21.6,0.3c-8.7,0.1-14.1,4.8-14,12
		c0.1,7.2,5.5,11.7,14.2,11.8c8,0.1,15.9,0.1,23.9,0c4.5-0.1,9.2,0.1,9.4,5.8c0.2,5.8-4.5,6.2-9,6.2c-7.5-0.1-14.9,0-22.4,0
		c-15.3,0-25.3-6.9-27.8-19.5C58.7,236.2,66.5,226.1,79.9,220.1z"/>
	<path class="st0" d="M331.7,74.8c14.6,0,22.8,8.2,22.9,22.7c0.1,19.1,0,38.2,0,57.4c0,15-8.1,23.1-23.1,23.2
		c-19.1,0-38.2-0.2-57.4,0.2c-3.3,0.1-7,1.5-9.8,3.5c-6.5,4.6-12.4,10-18.8,14.6c-1.8,1.3-4.9,2.1-6.8,1.4c-1.5-0.6-2.5-3.7-2.8-5.8
		c-0.5-3.4,0.2-6.9-0.3-10.3c-0.3-1.9-1.5-4.4-3.1-5.2c-8.5-4.5-12.3-11.5-12.3-21c0.1-19.3,0-38.7,0-58c0-14.1,8.3-22.5,22.4-22.6
		c14.8-0.1,29.7,0,44.5,0C302,74.8,316.9,74.8,331.7,74.8z M251.6,178.4c8.3-9,18.5-11.6,30.7-10.9c16.3,1,32.7,0.3,49,0.2
		c9.4,0,12.9-3.4,12.9-12.8c0.1-19.1,0.1-38.3,0-57.4c0-8.5-3.8-12.3-12.1-12.3c-29.9-0.1-59.8-0.1-89.7,0
		c-7.7,0-11.7,3.8-11.7,11.4c-0.1,19.8,0,39.6-0.1,59.3c0,5.6,2.1,10.5,7.6,11.2c5.2,0.7,6.6,5.7,6.6,10.5c0,1.2,0.1,5,0.2,7.1
		C247.4,183.1,250.4,179.7,251.6,178.4z"/>
	<path class="st0" d="M149.4,181.8c14.6,0,22.8,8.2,22.9,22.7c0.1,19.1,0,38.2,0,57.4c0,15-8.1,23.1-23.1,23.2
		c-19.1,0-38.2-0.2-57.4,0.2c-3.3,0.1-7,1.5-9.8,3.5c-6.5,4.6-12.4,10-18.8,14.6c-1.8,1.3-4.9,2.1-6.8,1.4c-1.5-0.6-2.5-3.7-2.8-5.8
		c-0.5-3.4,0.2-6.9-0.3-10.3c-0.3-1.9-1.5-4.4-3.1-5.2c-8.5-4.5-12.3-11.5-12.3-21c0.1-19.3,0-38.7,0-58c0-14.1,8.3-22.5,22.4-22.6
		c14.8-0.1,29.7,0,44.5,0C119.8,181.8,134.6,181.7,149.4,181.8z M69.3,285.3c8.3-9,18.5-11.6,30.7-10.9c16.3,1,32.7,0.3,49,0.2
		c9.4,0,12.9-3.4,12.9-12.8c0.1-19.1,0.1-38.3,0-57.4c0-8.5-3.8-12.3-12.1-12.3c-29.9-0.1-59.8-0.1-89.7,0
		c-7.7,0-11.7,3.8-11.7,11.4c-0.1,19.8,0,39.6-0.1,59.3c0,5.6,2.1,10.5,7.6,11.2c5.2,0.7,6.6,5.7,6.6,10.5c0,1.2,0.1,5,0.2,7.1
		C65.1,290.1,68.1,286.7,69.3,285.3z"/>
	<path class="st0" d="M277.8,248.7c14.8,0,29.7-0.1,44.5,0c14.1,0.1,22.3,8.4,22.4,22.6c0.1,19.3-0.1,38.7,0,58
		c0,9.5-3.7,16.4-12.3,21c-1.6,0.8-2.8,3.3-3.1,5.2c-0.5,3.4,0.2,6.9-0.3,10.3c-0.3,2.1-1.3,5.2-2.8,5.8c-1.9,0.7-5-0.1-6.8-1.4
		c-6.4-4.7-12.3-10.1-18.8-14.6c-2.8-1.9-6.5-3.4-9.8-3.5c-19.1-0.3-38.2-0.1-57.4-0.2c-15,0-23-8.2-23.1-23.2
		c0-19.1-0.1-38.2,0-57.4c0-14.5,8.3-22.6,22.9-22.7C248.1,248.7,262.9,248.7,277.8,248.7z M319.8,358.6c0.1-2.1,0.3-5.9,0.2-7.1
		c0-4.8,1.4-9.9,6.6-10.5c5.5-0.7,7.7-5.6,7.6-11.2c0-19.8,0.1-39.6-0.1-59.3c0-7.6-4-11.4-11.7-11.4c-29.9-0.1-59.8-0.1-89.7,0
		c-8.4,0-12.1,3.8-12.1,12.3c-0.1,19.1-0.1,38.3,0,57.4c0,9.3,3.5,12.8,12.9,12.8c16.3,0.1,32.7,0.8,49-0.2
		c12.2-0.7,22.3,1.8,30.7,10.9C314.6,353.6,317.6,357.1,319.8,358.6z"/>
	<g>
		<path class="st0" d="M259.2,316.9c18.1-14.8,30.3-24.1,30.3-33.8c0-4.1-2.3-6.7-6.8-6.7c-3.6,0-7.2,2.3-11.2,6.2l-5.8-7
			c5.2-5.2,11.1-8.8,18.6-8.8c10.5,0,17,6,17,15.1c0,11.2-10.1,19.9-23.5,32.1c3.6-0.4,7.6-0.4,10.8-0.4h12.6l-1.9,10.1h-41.3
			L259.2,316.9z"/>
	</g>
</g>
</svg>
