<?xml version="1.0" encoding="utf-8"?>
<!-- Generator: Adobe Illustrator 23.0.1, SVG Export Plug-In . SVG Version: 6.00 Build 0)  -->
<svg version="1.1" id="Layer_1" xmlns="http://www.w3.org/2000/svg" xmlns:xlink="http://www.w3.org/1999/xlink" x="0px" y="0px"
	 viewBox="0 0 384 384" style="enable-background:new 0 0 384 384;" xml:space="preserve">
<style type="text/css">
	.st0{fill:none;stroke:#818181;stroke-width:10;stroke-miterlimit:10;}
</style>
<path class="st0" d="M266.8,266.4c-5.8,0.3-9.3-2.9-13-5.8c-7-5.4-16.1-3.6-19.5,4.1c-1,2.2-1.1,4.8-1.2,7.2
	c-0.1,1.7,0.4,3.5,0.5,5.2c0.3,5.5-2.4,10.7-7.6,11.9c-6.7,1.6-13.8,2.4-20.7,2.5c-5.6,0.1-9.6-4.5-10.7-10.4
	c-0.3-1.7-0.4-3.5-0.7-5.2c-0.7-5.1-3.6-8.6-8.4-10.2c-5-1.6-9.5-0.5-13.2,3.4c-1.5,1.6-2.7,3.4-4.2,5c-4.3,4.7-10.6,5.6-15.8,2
	c-4.5-3.2-8.9-6.6-13.1-10.2c-4.6-4-5.3-10.3-2.1-15.5c1.2-2,2.9-3.7,4.1-5.6c2.7-4.3,3.1-8.8,0.6-13.2c-2.5-4.4-6.4-6.6-11.6-6.4
	c-0.3,0-0.6,0-0.9,0.1c-14.3,1.1-17.4-1.5-19.1-15.8c-0.3-2.9-0.8-5.8-1-8.7c-0.7-7.6,3.7-12.9,11.2-14c2.6-0.4,5.3-0.6,7.6-1.6
	c8.5-3.5,10.4-14,3.9-20.5c-0.3-0.3-0.6-0.6-1-0.9c-11.1-9.7-11.4-13-2.2-24.7c1.9-2.4,3.7-4.9,5.7-7.2c4.5-5.2,11.1-6.1,16.8-2.1
	c1.7,1.2,3.2,2.5,4.9,3.6c4.4,2.9,9.1,3.1,13.6,0.3c4.3-2.7,6.4-6.7,5.8-11.9c-0.2-1.7-0.4-3.5-0.6-5.2c-0.5-6.8,3.7-12.3,10.5-13.3
	c5-0.7,10.1-1.3,15.2-1.8c6.9-0.7,12.2,3.6,13.3,10.4c0.4,2.6,0.6,5.2,1.5,7.7c2.9,8.6,13.7,11.3,20.2,5c1.7-1.6,3-3.6,4.5-5.3
	c4.7-5.3,11.1-6.1,16.8-2c3.7,2.6,7.2,5.5,10.7,8.3c7.2,5.8,7.9,12.5,2,19.7c-2.8,3.5-5.2,7.1-4.4,11.9c1.2,6.8,6.8,11.2,13.8,10.7
	c2-0.1,4.1-0.5,6.1-0.6c5.8-0.3,11.1,3.6,12.1,9.2c1,5.7,1.7,11.5,2.1,17.4c0.4,6.2-3.8,11.2-10,12.4c-1.9,0.3-3.8,0.4-5.6,0.7
	c-5.2,0.8-8.8,3.7-10.3,8.8c-1.5,5.1,0,9.5,3.8,13.1c0.1,0.1,0.2,0.2,0.3,0.3c11.1,9.8,11.5,13.4,2.2,24.9c-1.9,2.4-3.6,5-5.8,7.1
	C271.9,263.3,269.2,264.8,266.8,266.4z M243.7,192c-2.6-21.8-22.6-37.4-44.3-34.6c-21.4,2.7-36.7,22.3-34.2,43.7
	c2.6,22.1,22.1,37.5,43.9,34.9C230.6,233.4,246.2,213.4,243.7,192z"/>
<path class="st0" d="M77.5,282.4c-18.7-7.3-37-14.5-56.2-22.1c6.4-3.2,11.7-6,17.2-8.7c2.2-1.1,2.8-2.2,2.2-4.7
	C27,197,38.6,152.8,71.1,113.4c11.3-13.7,25.2-24.6,40.8-33.1c1.1-0.6,2.3-1.3,3.5-1.7c3-1,5.5-0.4,7.2,2.4c1.7,2.8,1.1,5.3-1,7.5
	c-0.7,0.7-1.5,1.3-2.4,1.9c-30.6,23.5-48.6,54.1-52.1,92.7c-1.5,17,1.3,33.3,8.5,49.6c5.6-2.8,11-5.4,17.5-8.6
	C87.8,244.1,82.7,263,77.5,282.4z"/>
<path class="st0" d="M239.1,78c-0.5,6.4-1,12.3-1.6,19.3c-14.3-14.9-27.9-29-41.8-43.4c15.9-12.2,31.3-24.1,47.7-36.8
	c-0.4,5.4-0.6,9.7-0.9,14.1c-0.7,8.1-0.6,8,6.9,10.4c49.7,16,80.8,50.1,96.1,99.3c4.8,15.3,6.4,31.1,5.6,47.1c-0.2,5.4-2,8-5.9,8.2
	c-4,0.2-6-2.1-6.6-7.5c-4.3-36.8-20.1-67.2-49.4-90.2c-13.8-10.8-29.5-17.5-46.8-20.3C241.5,78.1,240.5,78.1,239.1,78z"/>
<path class="st0" d="M287.5,295.6c-4.7-3.5-9.5-7-15.4-11.3c20.1-4.4,39.2-8.5,58.2-12.6c2.4,19.9,4.7,39.3,7.1,60.1
	c-6.9-4.9-12.6-9-18.3-13.1c-5.2,4.3-10,8.8-15.3,12.6c-40.6,29-84.9,34.5-132.1,19.9c-7.9-2.4-15.4-6.2-22.9-9.8
	c-5.2-2.4-6.6-6.5-4.6-11.1c1.6-3.5,4.9-4.3,10.2-2.4c26,9.2,52.4,10.6,79,3.2c20-5.6,37.1-15.8,51.1-31.3c0.8-0.9,1.5-1.8,2.2-2.7
	C287,296.8,287.1,296.4,287.5,295.6z"/>
</svg>
