<?xml version="1.0" encoding="utf-8"?>
<!-- Generator: Adobe Illustrator 23.0.1, SVG Export Plug-In . SVG Version: 6.00 Build 0)  -->
<svg version="1.1" id="Layer_1" xmlns="http://www.w3.org/2000/svg" xmlns:xlink="http://www.w3.org/1999/xlink" x="0px" y="0px"
	 viewBox="0 0 384 384" style="enable-background:new 0 0 384 384;" xml:space="preserve">
<style type="text/css">
	.st0{fill:none;stroke:#808080;stroke-width:10;stroke-linecap:round;stroke-linejoin:round;}
	.st1{fill:#808080;}
	.st2{fill:#808080;stroke:#808080;stroke-width:2;stroke-miterlimit:10;}
	.st3{fill:#808080;stroke:#808080;stroke-width:4;stroke-miterlimit:10;}
</style>
<path class="st0" d="M267,160.9l18.1-45.5l63.5-27.3l3.1,36.4l24.3,27.3L312.4,179L267,160.9z M267,160.9l-84.7,36.5"/>
<path class="st1" d="M198.3,26.3l4.3,0.5c42.9,5.2,80.5,27,106.6,58.4c0.2,0.2,0.3,0.4,0.3,0.4l-16,0.8c0,0-0.2-0.2-0.2-0.2
	c-24.2-26.9-55-41.2-90.8-45.9l-4.9-0.7l-13.3-0.7l-5,0.1c-36,0.8-70.7,14.6-97.7,38.7c-27,24.2-44.4,57.1-49.1,92.9l-0.7,4.9
	l-0.7,13.3l0.1,5c0.8,36,14.5,70.7,38.7,97.7c24.2,26.9,57.1,44.4,92.9,49.1l4.9,0.7l13.3,0.7l5-0.1c36-0.8,70.7-14.5,97.7-38.7
	c27-24.2,44.4-57.1,49.1-92.9l0.7-4.9h0l13.9-12.6l-0.7,13.3l-0.5,4.3c-10,81.5-79.3,143.7-161.5,144.7l-4.3,0l-13.3-0.7l-4.3-0.5
	C81.2,344.1,19,274.5,18,192.4l0-4.3l0.7-13.3l0.5-4.3c10-81.5,79.3-143.7,161.5-144.7l4.3,0L198.3,26.3z"/>
<path class="st2" d="M193.9,73l3.1,0.4c30.7,3.7,57.6,19.3,76.3,41.8c0.1,0.1,0.2,0.3,0.2,0.3L262,116c0,0-0.1-0.1-0.2-0.2
	c-17.3-19.2-39.4-29.5-64.9-32.8l-3.5-0.5l-9.5-0.5l-3.6,0.1c-25.8,0.6-50.6,10.4-69.9,27.6c-19.3,17.3-31.7,40.9-35.1,66.4
	l-0.5,3.5l-0.5,9.5l0.1,3.6c0.6,25.8,10.3,50.6,27.6,69.9c17.3,19.2,40.9,31.7,66.4,35.1l3.5,0.5l9.5,0.5l3.6-0.1
	c25.8-0.6,50.6-10.3,69.9-27.6c19.3-17.3,31.7-40.9,35.1-66.4l0.5-3.5h0l10-9l-0.5,9.5l-0.4,3.1c-7.1,58.3-56.7,102.8-115.5,103.5
	l-3.1,0l-9.5-0.5l-3.1-0.4c-58.3-7-102.8-56.7-103.5-115.5l0-3.1l0.5-9.5l0.4-3.1c7.1-58.3,56.7-102.8,115.5-103.5l3.1,0L193.9,73z"
	/>
<path class="st3" d="M189,124.5l1.7,0.2c17.2,2.1,32.3,10.8,42.8,23.4c0.1,0.1,0.1,0.2,0.1,0.2l-6.4,0.3c0,0-0.1-0.1-0.1-0.1
	c-9.7-10.8-22.1-16.5-36.5-18.4l-2-0.3l-5.3-0.3l-2,0c-14.5,0.3-28.4,5.9-39.2,15.5c-10.8,9.7-17.8,22.9-19.7,37.3l-0.3,2l-0.3,5.3
	l0,2c0.3,14.5,5.8,28.4,15.5,39.2c9.7,10.8,22.9,17.8,37.3,19.7l2,0.3l5.3,0.3l2,0c14.5-0.3,28.4-5.8,39.2-15.5
	c10.8-9.7,17.8-22.9,19.7-37.3l0.3-2h0l5.6-5.1l-0.3,5.3l-0.2,1.7c-4,32.7-31.9,57.7-64.8,58.1l-1.7,0l-5.3-0.3l-1.7-0.2
	c-32.7-3.9-57.7-31.9-58.1-64.8l0-1.7l0.3-5.3l0.2-1.7c4-32.7,31.9-57.7,64.8-58.1l1.7,0L189,124.5z"/>
</svg>
