<?xml version="1.0" encoding="utf-8"?>
<!-- Generator: Adobe Illustrator 23.0.1, SVG Export Plug-In . SVG Version: 6.00 Build 0)  -->
<svg version="1.1" id="Layer_1" xmlns="http://www.w3.org/2000/svg" xmlns:xlink="http://www.w3.org/1999/xlink" x="0px" y="0px"
	 viewBox="0 0 384 384" style="enable-background:new 0 0 384 384;" xml:space="preserve">
<style type="text/css">
	.st0{fill:#808080;}
</style>
<path class="st0" d="M153.6,284.9c0-1.7-0.8-4.5-3.3-4.9H31.1c-1.7,0-3.5-0.7-4.8-2l-0.1-0.1c-1.2-1.3-1.9-3-1.9-4.8V24.9
	c0-1.8,0.7-3.5,1.9-4.8l0.1-0.1c1.3-1.3,3.1-2,4.9-2l219.6,0c1.7,0,3.5,0.7,4.8,2l0.1,0.1c1.2,1.3,1.8,2.9,1.9,4.6l0,150.2
	c1.1,1.5,3.8,2.1,6.1,1.9c2.2-0.2,3.7-1,4.1-1.6V72.2h33.1c1.8,0,3.5,0.7,4.8,2c1.3,1.3,2,3.1,2,4.9v96.3c0.5,0.8,2.8,1.8,6.1,1.7
	c2.7-0.1,4.1-1.1,4.2-1.4V79c-0.1-9.3-7.7-17-17.1-17h-29.2l-3.5,0.1l-0.2-4V25c0-4.5-1.9-8.9-5.1-12l-0.1-0.1
	c-3.1-3.2-7.5-5.1-12-5.1H31.2c-4.5,0-8.9,1.9-12,5.1L19.1,13c-3.2,3.1-5.1,7.4-5.1,11.9v248.3c0,9.4,7.7,17,17.1,17.1h29.1H64v37
	c0,4.5,1.9,8.9,5.1,12l0.1,0.1c3.1,3.2,7.5,5.1,12,5.1H150c2.6-1,2.5-4.7,2.4-5.5c-0.2-2.6-1.4-4.5-2.2-4.8H81.1c0,0-0.1,0-0.2,0
	c-1.8,0-3.5-0.8-4.7-2.1c-1.2-1.3-1.9-3-1.9-4.8l0-37.1h76C153.6,289.6,153.6,285.4,153.6,284.9z"/>
<path class="st0" d="M179.6,201.8c0.1-2.6-1.9-4.7-4.4-4.9H127c-2.6,0.2-4.5,2.3-4.4,4.9l0,0.2l0,0.2c-0.1,2.6,1.9,4.7,4.4,4.9h48.1
	c2.6-0.2,4.5-2.3,4.4-4.9l0-0.2L179.6,201.8z"/>
<path class="st0" d="M319.5,334.7l3.6-5.5c7.8-12.1,12-26,12-40.4c0.1-19.9-7.6-38.7-21.7-52.8c-14.1-14.1-32.8-22-52.7-22h0
	c-0.1,0-0.3,0-0.4,0c-14.9,0-29.3,4.4-41.6,12.7c-34.1,22.9-43.3,69.4-20.3,103.5c22.9,34.1,69.4,43.3,103.5,20.3l8.8-6.9l32.3,35.6
	l9.7-8.2L319.5,334.7z M260.8,355C260.8,355,260.7,355,260.8,355c-36.6,0-66.2-29.8-66.2-66.2c0-36.5,29.7-66.2,66.2-66.2h3.8l0,0.2
	c16.3,0.9,31.4,7.7,43,19.3c12.5,12.5,19.4,29.1,19.3,46.8C326.9,325.4,297.3,355,260.8,355z"/>
<path class="st0" d="M84.1,140.6l9-9c1-1,1-2.6,0-3.7c-1-1-2.5-0.9-3.4,0l-17.1,17.3l-4.5,4.3c-1,1-1,2.6,0,3.7c1,1,2.5,1,3.5,0l9-9
	L84.1,140.6z"/>
<path class="st0" d="M94.2,63.2c-0.9,0.1-1.7,0.5-2.2,1.2L76.6,83.9l-6.8-8.2c-0.9-1.4-2.7-1.8-4.2-1.1l-0.3,0.2
	c-1.5,1-1.9,3-0.9,4.5l8.9,12.3c1,1.5,3.1,1.9,4.6,0.9c0.3-0.2,0.6-0.5,0.8-0.8l18.4-23.1c1.2-1.4,1-3.5-0.4-4.6
	C96,63.3,95.1,63.1,94.2,63.2z"/>
<path class="st0" d="M289.1,258l-34.3,37.1l-5.5-4.8c-1.3-1.2-2.2-1.9-3-2.6c-1.1-0.9-2.1-1.8-3.7-3.3c-0.3-0.3-0.6-0.5-0.9-0.7
	c-1.7-1-3.8-1.2-5.7-0.4c-1.5,0.7-2.6,1.9-3.2,3.4c-0.6,1.5-0.5,3.2,0.1,4.7c0.2,0.4,0.4,0.8,0.6,1.1c0.1,0.1,0.1,0.2,0.2,0.3
	l0.4,0.4c2.9,3,5,4.7,7.8,7.2l1.9,1.7c1.5,1.3,3,2.6,4.5,3.9l1.3,1.2c0.4,0.4,0.9,0.8,1.3,1.2c2.5,2.3,6.3,2.1,8.6-0.3l1.4-1.4
	l37-39.9c3.1-3.2,1.8-6.7-0.3-8.6C295.5,256,292.1,254.8,289.1,258z"/>
<path class="st0" d="M214.9,139.9c0.1-2.6-1.9-4.7-4.4-4.9h-83.5c-2.6,0.1-4.5,2.3-4.4,4.9l0,0.2l0,0.2c-0.1,2.5,1.9,4.7,4.4,4.9
	h83.5c2.6-0.2,4.5-2.3,4.4-4.8l0-0.2L214.9,139.9z"/>
<path class="st0" d="M214.9,77.9c0.1-2.6-1.9-4.7-4.4-4.9h-83.5c-2.6,0.1-4.5,2.3-4.4,4.9l0,0.2l0,0.2c-0.1,2.6,1.9,4.7,4.4,4.9
	h83.5c2.6-0.2,4.5-2.3,4.4-4.9l0-0.2L214.9,77.9z"/>
<path class="st0" d="M84.1,140.6l9-9c1-1,1-2.6,0-3.7c-1-1-2.5-0.9-3.4,0l-17.1,17.3l-4.5,4.3c-1,1-1,2.6,0,3.7c1,1,2.5,1,3.5,0l9-9
	L84.1,140.6z"/>
<path class="st0" d="M84.1,140.6l9-9c1-1,1-2.6,0-3.7c-1-1-2.5-0.9-3.4,0l-17.1,17.3l-4.5,4.3c-1,1-1,2.6,0,3.7c1,1,2.5,1,3.5,0l9-9
	L84.1,140.6z"/>
<path class="st0" d="M84.1,140.6l9-9c1-1,1-2.6,0-3.7c-1-1-2.5-0.9-3.4,0l-17.1,17.3l-4.5,4.3c-1,1-1,2.6,0,3.7c1,1,2.5,1,3.5,0l9-9
	L84.1,140.6z"/>
<path class="st0" d="M84.1,140.6l9-9c1-1,1-2.6,0-3.7c-1-1-2.5-0.9-3.4,0l-17.1,17.3l-4.5,4.3c-1,1-1,2.6,0,3.7c1,1,2.5,1,3.5,0l9-9
	L84.1,140.6z"/>
<path class="st0" d="M84.1,140.6l9-9c1-1,1-2.6,0-3.7c-1-1-2.5-0.9-3.4,0l-17.1,17.3l-4.5,4.3c-1,1-1,2.6,0,3.7c1,1,2.5,1,3.5,0l9-9
	L84.1,140.6z"/>
<path class="st0" d="M77.1,140.6l-9-9c-1-1-1-2.6,0-3.7c1-1,2.5-0.9,3.4,0l17.1,17.3l4.5,4.3c1,1,1,2.6,0,3.7c-1,1-2.5,1-3.5,0l-9-9
	L77.1,140.6z"/>
<g>
	<path class="st0" d="M70.1,198c2.4,0,4.4-2,4.4-4.4c0-2.4-2-4.4-4.4-4.4c-2.4,0-4.4,2-4.4,4.4C65.7,196,67.7,198,70.1,198z"/>
	<path class="st0" d="M88.1,213c2.4,0,4.4-2,4.4-4.4c0-2.4-2-4.4-4.4-4.4c-2.4,0-4.4,2-4.4,4.4C83.7,211,85.7,213,88.1,213z"/>
	<path class="st0" d="M84.1,200.6l9-9c1-1,1-2.6,0-3.7c-1-1-2.5-0.9-3.4,0l-17.1,17.3l-4.5,4.3c-1,1-1,2.6,0,3.7c1,1,2.5,1,3.5,0
		l9-9L84.1,200.6z"/>
</g>
</svg>
