<?xml version="1.0" encoding="utf-8"?>
<!-- Generator: Adobe Illustrator 23.0.1, SVG Export Plug-In . SVG Version: 6.00 Build 0)  -->
<svg version="1.1" id="Layer_1" xmlns="http://www.w3.org/2000/svg" xmlns:xlink="http://www.w3.org/1999/xlink" x="0px" y="0px"
	 viewBox="0 0 384 384" style="enable-background:new 0 0 384 384;" xml:space="preserve">
<style type="text/css">
	.st0{fill:#808080;}
</style>
<g>
	<path class="st0" d="M352.8,259.7c-9,0-18.1,0-27.1,0c-19.4,0-39.4,0-59.1-0.1c0,0,0,0-0.1,0c-3.7,0-5.7,1.3-7.2,4.7
		c-5.5,12.2-11.2,24.5-16.8,36.4l-1.8,3.9c-0.6,1.4-1.5,3.1-2.8,3.5c-2,0.5-3.9,1-5.9,1.6c-6,1.6-12.1,3.3-18.3,3.8
		c-10.4,0.7-20.9,0.5-31.1,0.3c-2.6-0.1-5.3-0.1-7.9-0.1c-2,0-4.4-1.2-5.6-2.7c-12.5-15-24.7-29.9-36.4-44.4
		c-7.8-9.6-16.9-15.4-28-17.8c-1.9-0.4-3.8-0.7-5.9-0.9c-1-0.1-2-0.3-3-0.4l-1.7-0.3l1.2-1.3c0.2-0.2,0.3-0.3,0.4-0.5
		c0.3-0.3,0.5-0.6,0.8-0.7c7.8-3.6,11.5-9.8,11.3-19c-0.1-5.4-0.1-10.9-0.1-16.3c0-4.6,0-9.4,0-14.1c0-2.8,0.9-4.4,3.3-5.7
		c6.7-3.6,10.1-11.3,8.2-18.7c-1.9-7.8-8.4-13-16.2-13.1l-3.7,0c-13.8-0.1-28-0.2-42,0.1c-9.2,0.2-18,4.5-24.1,11.9
		c-6.2,7.6-8.9,17.3-7.3,26.6c1.4,8.1,5.7,14.9,10.1,21.1c6.3,8.8,8.8,18,7.5,27.9c0,0.2,0,0.4,0,0.5c0.4,2.7-1.2,3.7-3,4.4
		c-17.4,7-27,21.1-27,39.8c0,18.4,0,36.9,0,55.3l0,26.2h10.2l0-26.7c0-18.4,0-36.7,0-55.1c0-18.4,13.4-31.9,31.8-31.9
		c8.4,0,16.8,0,25.2,0c4.4,0,8.7,0,13.1,0c0,0,0,0,0,0c12.2,0,22.3,4.8,30.1,14.3c4.6,5.6,9.2,11.2,13.7,16.8
		c8.4,10.3,17.1,20.9,25.6,31.4c2.1,2.6,4.4,3.6,7.6,3.6c6.1-0.1,12.4-0.1,18.4-0.1c2,0,4,0,6,0c0.8,0,1.5,0.1,2.3,0.1
		c0.3,0,0.7,0.1,1,0.1l0.8,0.1v25.5h-4.9c-3.6,0-7.2,0-10.9,0c-8.5,0-17.2-0.1-25.9,0.1c-7.5,0.2-13.2-2.4-18.1-8
		c-9-10.1-18.2-20.4-27.1-30.2c-3.4-3.8-6.8-7.6-10.2-11.3c-1.7-1.9-3.5-3.8-5.2-5.8l-2.1-2.3l-7.6,6.8c1.7,1.9,3.3,3.7,5,5.6
		c4.9,5.5,9.6,10.7,14.4,15.9c1.9,2.1,2.7,4.3,2.7,7.3c-0.1,10.1-0.1,20.4-0.1,30.3c0,3.5,0,7.1,0,10.6v3.1H120v-36.7l1.6,1.7
		c1.3,1.5,2.6,2.9,3.8,4.2c2.6,2.9,5.1,5.6,7.5,8.3c6.4,7.3,14.2,10.8,23.8,10.7c2.3,0,4.7,0,7,0c3,0,6.1,0,9.1,0c0.1,0,0.2,0,0.2,0
		c1.9,0,3.5,0.5,4.7,2.8c3.2,6.1,8.5,9.2,15.7,9.3c2.6,0,5.2,0,7.8,0l3.4,0l27.4,0c24.6,0,49.3,0,73.9,0c9.4,0,16.6-5.9,17.8-14.7
		c0.2-1.3,0.2-2.6,0.1-4c0-1.4,0-2.8,0.1-4.2l0.1-0.7c0.4-3,0.8-6.1,2-8.9c7.3-16,14.7-32.2,22-47.9c3.5-7.6,7-15.2,10.5-22.9
		c1.3-2.9,1.5-5.1,0.5-6.6C358.1,260.5,356,259.7,352.8,259.7z M50.4,221.4l-1.4-2.3c-3.4-5.5-7-11.2-10.1-17
		c-4-7.4-3.9-15.9,0.2-22.9c4.1-7,11.5-11.2,19.8-11.3c11.1-0.1,22.3-0.1,33.2-0.1c3.2,0,6.3,0,9.5,0c4.9,0,8,2.6,8.1,6.8
		c0,1.9-0.6,3.5-1.8,4.7c-1.4,1.5-3.5,2.2-6.1,2.3c-5.1,0.1-10.5,0.1-15.8,0c-2.7-0.1-4.6,0.9-6.1,3.2c-1.3,2.1-2.7,4.1-4.1,6.1
		c-2.2,3.3-4.5,6.7-6.6,10.1c-0.8,1.3-1.4,3.3-1.4,5.1c-0.1,3.8-0.1,7.6-0.1,11.6c0,1.6,0,3.3,0,5v0.9h-0.9c-1.3,0-2.5,0-3.7,0
		c-1.1,0-2.3,0-3.4,0c-2,0-3.9,0-5.8-0.1C52.7,223.5,51.1,222.5,50.4,221.4z M54.2,247.5v-13.6h0.9c1.2,0,2.4,0,3.6,0
		c3.6,0,7.3,0,11.1,0.1c1,0,1.8,0.8,2.4,1.4c0.2,0.2,0.3,0.3,0.5,0.4c2.8,2.4,5.5,4.8,8.3,7.3l4.9,4.3H54.2z M92.9,235
		c-1,0.4-1.9,0.6-2.9,0.6c-1.8,0-3.5-0.7-5.3-2.2c-4.6-3.8-6.8-8.3-7.2-14.9c-0.5-8.9,2.2-16.6,8.8-24.8c0.8-1,2.1-1.7,3.3-1.9
		c1.6-0.2,3.2-0.1,4.9-0.1c0.7,0,1.5,0,2.3,0h0.9l0,10.7c0,8.8,0,17.1,0,25.5C97.6,231.3,95.9,233.7,92.9,235z M211.4,350.3
		l-1.3,0.5v-25.7l6.9-1.6c6.9-1.6,14-3.3,21-4.8c1.2-0.3,2.7,0,3.8,0.6c7.2,4.2,14.4,8.6,21.3,12.8l1.1,0.7c0.4,0.2,0.6,0.5,1,1
		c0.2,0.3,0.4,0.6,0.8,1l1.5,1.9l-2.4-0.5c-2.1-0.4-4.1-0.7-6-1.1c-4.2-0.7-8.2-1.4-12-2.5c-5.4-1.6-9.5-0.7-13.9,3.1
		c-4.6,4-9.6,7.5-14.5,11l-0.8,0.6c-1.2,0.9-2.7,1.4-4.3,2C213,349.7,212.2,350,211.4,350.3z M215.3,361.4l2.4-1.6
		c1.1-0.7,2.2-1.4,3.4-2.2c2.8-1.7,5.6-3.5,8-5.8c4.4-4.2,9.3-4,14.1-3.9c1.1,0,2.3,0.1,3.4,0.1l0.9,0l0.8,13.4H215.3z M313.6,354.5
		c-0.2,4.5-2.9,7.1-7.3,7.1c-6.9,0-13.7,0.1-20.5,0.1c-7,0-13.9,0-20.7-0.1c-4.4,0-7.1-2.6-7.3-7.2c-0.1-1.2,0-2.4,0-3.6
		c0-0.6,0-1.2,0-1.8v-0.9h55.8v0.9c0,0.6,0,1.3,0,1.8C313.7,352.1,313.7,353.3,313.6,354.5z M346,271.1c-0.2,0.5-0.4,0.9-0.5,1.3
		c-0.3,0.8-0.6,1.5-0.9,2.1c-2.6,5.6-5.1,11.2-7.7,16.7c-6.5,14-13.1,28.5-19.7,42.8c-1,2.3-2.3,3.7-5.3,3.7c-0.1,0-0.1,0-0.2,0
		c-7.4-0.1-14.9-0.1-22.2-0.1c-3.1,0-6.2,0-9.3,0c-0.8,0-1.5,0-2.3-0.1c-0.4,0-0.8,0-1.2-0.1l-0.9,0l0.1-0.9
		c0.5-6-2.2-10.3-8.6-13.9c-4.2-2.3-8.1-4.7-12.3-7.3c-1.8-1.1-3.6-2.2-5.5-3.3l-0.7-0.4l3.5-7.7c5.1-11,9.9-21.5,14.9-32.1
		c0.5-1,1.9-1.9,3.1-1.9c21.6-0.1,42.8-0.1,65.2-0.1h11.1L346,271.1z"/>
	<path class="st0" d="M322.7,73.7l-2.4,0c-9.9,0-20.1,0-30.2,0c-4.6,0-6.3,1.8-6.4,6.4c0,3.7,0,7.4,0,11.3l0,6.3l-27.9,0
		c-6.9,0-8.1,1.2-8.1,8l0,14.9l0,7l-9.5,0c-6.6,0-13.1,0-19.5,0c-5.3,0-6.9,1.6-6.9,7c0,2.7,0,5.4,0,8l0,14.9l-9.6,0
		c-6.7,0-13.1,0-19.6,0c-5.1,0-6.8,1.7-6.8,6.8c0,3.7,0,7.4,0,11.2l0,6.1H149c-8.5,0-9.3,0.8-9.3,9.1v21h-11.8v9.8h213.7v-10.1
		h-11.7l0-36.9c0-31.3,0-62.6,0-93.9C329.8,75.2,328.3,73.7,322.7,73.7z M175.4,211.5H150v-19.3h25.4V211.5z M211.5,211.4h-25.4V168
		h25.4V211.4z M247.4,211.5H222v-73.3h25.3V211.5z M283.4,211.5h-25.3V108h25.3V211.5z M319.4,211.5H294V84.2h25.3V211.5z"/>
	<path class="st0" d="M352.4,13.7c-92.5,0-185,0-277.5,0c-12.4,0-19.3,6.8-19.3,19.3c0,26,0,52,0,77.9l0,32.7h10.2l0-109.6
		c0-8.2,1.9-10.1,10.1-10.1h275.6c8.2,0,10.1,2,10.1,10l0,191.6c0,8.2-2,10.2-10,10.2l-229.8,0v10.2l230.7,0
		c12.7,0,19.4-6.8,19.4-19.6c0-64.4,0-128.7,0-193.1C371.8,20.4,365.1,13.7,352.4,13.7z"/>
	<path class="st0" d="M216.9,80.8c-6-1.9-12-1-16.5,2.3c-4.3,3.2-6.8,8.5-6.6,14.4c0,2.7-1,4-2.8,5.3c-10.5,7.7-19.1,14-27.1,20
		c-2,1.5-3.6,1.6-5.9,0.5c-8.2-3.9-17.7-0.9-22,7.1c-1.5,2.8-3.3,3.3-5.7,3.2c-5.1-0.1-10.2-0.1-15.2-0.1c-1.7,0-3.3,0-5,0v10.2
		c1.8,0,3.5,0,5.2,0c5.2,0,10.1,0,15.1-0.1c0.1,0,0.2,0,0.3,0c2.7,0,4.1,0.9,5.4,3.3c3.9,7.3,12.5,10.6,20.5,7.8
		c7.7-2.7,12.4-10.5,11.2-18.5c-0.3-2.1-0.1-3.7,2-5.2c9.6-6.9,18.2-13.3,26.5-19.5c2.3-1.7,3.9-1.4,5.9-0.2
		c6.4,3.7,12.9,3.5,18.7-0.8c6.1-4.5,8.3-10.5,6.5-17.9c-0.5-2-0.4-3.7,1.8-5.3c3.5-2.5,7-5.1,10.4-7.6c4.1-3,8.4-6.2,12.6-9.2
		c1.2-0.9,3.6-1.1,5-0.4c9,3.9,18.1,1,22.6-7.4c1.3-2.4,2.9-2.9,5.2-2.9c8.6,0.1,17.3,0,25.8,0l4.2,0c0.8,0,1.6,0,2.4-0.1
		c0.1,0,0.2,0,0.3,0V49.6l-8,0c-8.6,0-16.6,0-24.9,0c-2.1,0-3.8-0.5-5.1-3c-4-7.4-12.3-10.8-20.3-8.2c-7.9,2.6-12.7,10.4-11.6,19.1
		c0.2,1.6-0.7,3.7-2,4.7c-7.6,5.8-15.6,11.7-24.2,17.8C220.5,80.9,218.4,81.2,216.9,80.8z M150.8,145.6
		C150.8,145.6,150.8,145.6,150.8,145.6c-3.8,0-6.8-3-6.9-6.7c0-1.9,0.7-3.7,2-5c1.3-1.3,3.2-2.1,5-2c3.7,0.1,6.7,3.2,6.7,6.9
		C157.6,142.5,154.5,145.6,150.8,145.6z M210.9,103.6c0,0-0.1,0-0.1,0c-3.7,0-6.7-2.9-6.9-6.6c-0.1-1.8,0.7-3.7,2-5
		c1.3-1.3,3.1-2.1,5-2.1c3.7,0,6.8,3.1,6.8,6.8C217.6,100.5,214.6,103.5,210.9,103.6z M257.9,54.4c0.2-3.7,3.3-6.7,7.1-6.5
		c1.9,0.1,3.6,0.9,4.9,2.3c1.3,1.4,1.9,3.3,1.7,5.1c-0.3,3.6-3.3,6.3-6.8,6.3c-0.1,0-0.3,0-0.5,0C260.6,61.4,257.7,58.1,257.9,54.4z
		"/>
	<path class="st0" d="M78.8,31.7C78.8,31.7,78.8,31.7,78.8,31.7c-2.8,0-5.1,2.3-5.1,5c0,2.7,2.3,5.1,5,5.1c1.3,0,2.6-0.5,3.6-1.5
		c1-1,1.5-2.2,1.5-3.6c0-1.3-0.5-2.6-1.5-3.6C81.4,32.2,80.1,31.7,78.8,31.7z"/>
	<path class="st0" d="M101.8,36.7c0-2.7-2.3-5.1-5.1-5.1c0,0,0,0,0,0c-2.7,0-5.1,2.3-5.1,5.1c0,1.3,0.5,2.6,1.5,3.6
		c1,1,2.2,1.5,3.6,1.5c0,0,0,0,0,0c1.3,0,2.6-0.5,3.6-1.5C101.3,39.3,101.8,38.1,101.8,36.7z"/>
	<path class="st0" d="M114.7,31.7C114.7,31.7,114.7,31.7,114.7,31.7c-2.8,0-5.1,2.3-5.1,5.1c0,1.3,0.5,2.6,1.5,3.6
		c1,1,2.3,1.5,3.6,1.5c1.3,0,2.6-0.5,3.6-1.5c1-1,1.5-2.2,1.5-3.6c0-1.3-0.5-2.6-1.5-3.6C117.3,32.2,116.1,31.7,114.7,31.7z"/>
</g>
</svg>
