<?xml version="1.0" encoding="utf-8"?>
<!-- Generator: Adobe Illustrator 23.0.1, SVG Export Plug-In . SVG Version: 6.00 Build 0)  -->
<svg version="1.1" id="Layer_1" xmlns="http://www.w3.org/2000/svg" xmlns:xlink="http://www.w3.org/1999/xlink" x="0px" y="0px"
	 viewBox="0 0 367.8 368.6" style="enable-background:new 0 0 367.8 368.6;" xml:space="preserve">
<style type="text/css">
	.st0{fill:#9A9A9A;}
</style>
<g>
	<path class="st0" d="M127.2,368.3c6.1-1.4,12.4-2.9,17.2-7c8.2-7.1,16.3-14.4,24.8-22.1c3-2.8,6.1-5.5,9.3-8.4l-8.9-7.5l1.6-2.9
		h126.3c-1.3-3.8-2.5-7.7-3.8-11.5c-3.2-9.7-6.4-19.8-10.1-29.5c-4.8-13-14.3-21.3-28.1-24.6c-5-1.2-10.3-2.1-15.3-3
		c-2.3-0.4-4.7-0.8-7-1.2l-23.5-4.4l1.6-2.2c0.4-0.6,0.8-1.1,1.1-1.6c0.7-1.1,1.2-2,2.1-2.7c1.2-1,2.5-1.9,3.8-2.8
		c2.2-1.6,4.3-3,5.7-4.9c5.1-7,11.7-7.7,18-7.5c5.3,0.2,9.8-1.3,12.9-4.3c0.8-0.8,1.6-1.7,2.2-2.7c0.2-0.4,0.5-0.8,0.7-1.1
		c1.5-2.8,2.2-6.2,2.2-10l0-5.2c0-8.8,0-17.8,0-26.8c0-4.4,0-9,0-13.3c0.1-10.6,0.1-21.6-0.7-32.3c-1.5-19.7-11.4-38.4-27.3-51.4
		c-16.2-13.2-37-19.4-57-16.9c-39,4.9-67.4,36.9-67.6,76.2c-0.1,12.4,0,25,0,37.2l0,3.1c0,7,2,12.5,6.2,16.7c2.5,2.5,5.7,4.5,9.7,6
		c1.6,0.6,3.2,2.4,3.6,4.1c4,15.2,12.3,26.9,25.4,35.7c1.1,0.7,1.8,1.8,2.5,2.9c0.3,0.5,0.7,1,1.1,1.6l1.6,2.1l-2.6,0.6
		c-0.8,0.2-1.4,0.4-1.9,0.5c-0.9,0.2-1.5,0.4-2.2,0.5c-4.2,0.8-8.4,1.5-12.6,2.3c-7.8,1.4-15.9,2.9-23.8,4.4
		c-15.3,2.9-25.9,11.8-31.4,26.5c-0.6,1.6-1.1,3.1-1.7,4.8c-0.3,0.8-0.6,1.6-0.9,2.5l-0.9,2.6l-2-1.9c-2-2-4-4-6-5.9
		c-5.1-5-10-9.8-14.8-14.7c-2.8-2.9-2.5-7.3,0.6-10.6c3-3.2,6.2-6.3,9.2-9.3l0.8-0.8c3.1-3.1,6.3-6.2,9.4-9.1l2.5-2.4L37,193.6
		l-6.3,6.3c-5.7,5.7-11.5,11.6-17.3,17.4c-17.8,17.9-17.7,41.9,0.1,59.8c14.2,14.3,28.5,28.5,42.7,42.8L73,336.8
		c1.3,1.3,2.6,2.6,3.9,3.9c2.8,2.7,5.7,5.6,8.4,8.5c0.8,0.9,1.6,1.7,2.4,2.6c0.2,0.2,0.4,0.4,0.6,0.6c0.3,0.3,0.6,0.6,0.9,0.9
		c0.2,0.2,0.5,0.5,0.7,0.7c0.3,0.3,0.6,0.6,0.9,0.9c0.2,0.2,0.5,0.5,0.7,0.7c0.3,0.3,0.7,0.6,1.1,1c0.2,0.2,0.4,0.4,0.6,0.6
		c0.4,0.3,0.7,0.6,1.1,0.9c0.2,0.2,0.4,0.4,0.7,0.6c0.4,0.3,0.7,0.6,1.1,0.9c0.2,0.2,0.5,0.4,0.7,0.6c0.4,0.3,0.7,0.5,1.1,0.8
		c0.3,0.2,0.5,0.4,0.8,0.5c0.4,0.3,0.7,0.5,1.1,0.7c0.3,0.2,0.6,0.4,0.8,0.5c0.4,0.2,0.8,0.5,1.1,0.7c0.3,0.2,0.6,0.4,0.9,0.5
		c0.4,0.2,0.8,0.4,1.2,0.6c0.3,0.2,0.6,0.3,0.9,0.5c0.4,0.2,0.8,0.4,1.2,0.5c0.3,0.2,0.7,0.3,1,0.5c0.4,0.2,0.8,0.3,1.2,0.5
		c0.4,0.1,0.7,0.3,1.1,0.4c0.4,0.1,0.8,0.3,1.2,0.4c0.4,0.1,0.7,0.2,1.1,0.4c0.4,0.1,0.8,0.2,1.2,0.3c0.4,0.1,0.8,0.2,1.2,0.3
		c0.4,0.1,0.8,0.2,1.2,0.2c0.4,0.1,0.8,0.2,1.2,0.2h9.8L127.2,368.3z M155.4,340.3l-30.1-30.1l9.8-8.9l29.8,30L155.4,340.3z
		 M249.1,213.5c-1.5,1.6-3.7,2.3-6.8,2.3c-1.1,0-2.2-0.1-3.5-0.3l-2-0.3l0.6-1.9c0.3-1.1,0.6-2.2,0.8-3.2c0.6-2.7,1.3-5.6,2.7-8.1
		c1-1.8,3.1-2.7,5.1-3.5c0.8-0.3,1.6-0.6,2.2-1l2.1-1.1l0.4,2.4C252,206.6,251.5,211,249.1,213.5z M244.7,189.9l-2.7,1.9v-26.7
		l2.6,1.6c0.5,0.3,0.9,0.6,1.4,0.9c0.4,0.3,0.7,0.6,1.1,0.9c2.3,2.1,3.7,4.7,4.1,7.9C251.8,182,249.7,186.4,244.7,189.9z
		 M125.1,190.8l-2.5-1.3c-4.9-2.5-7.2-7-6.6-12.8c0.5-4.7,3.1-8.3,6.9-9.5l2.3-0.7V190.8z M125.4,150l-0.3,6.2l-8.8,3.4l-0.2-2.4
		c-1.6-21.8-1.7-46.7,17.2-66.5C152.9,70.3,177,63.7,203,71.6c26.7,8.1,43,27.1,47.3,54.9c1,6.9,0.8,14,0.5,20.9
		c-0.1,3.1-0.2,6.4-0.2,9.6v2.5l-8.7-3.3v-6.1c-0.1,0-0.1,0-0.2,0c-12.7,0-23-1.9-32.2-6.1c-9.8-4.4-17.6-11.1-26-19.8
		c-2.3,2.6-4.8,5.1-7.3,7.3c-3.9,3.5-7.9,6.5-12.1,9C152.5,147.4,139.6,150.6,125.4,150z M133.8,191.8c-0.3-7.2-0.3-14.2-0.2-21.6
		c0-3.3,0.1-6.6,0.1-10v-1.6l1.6-0.1c18.1-1.7,33.7-8.6,46.6-20.5l1-1l1.2,0.8c1.7,1.2,3.4,2.4,5,3.6c3.6,2.6,7,5.1,10.7,7.2
		c8.7,5.2,18.4,8.4,28.7,9.4c3.4,0.3,4.9,2,4.8,5.3c-0.1,6.2-0.1,12.5-0.1,18.5c0,2.8,0,5.5,0,8.3c0,7.4-1.7,14.8-4.9,21.8
		c-1.4,2.9-3.3,4.2-6.5,4.1c-8.2-0.1-16.6-0.1-24.7-0.1c-3,0-6,0-9,0h-2.5v8.5h29.4l1.5,3l-1.1,0.9c-0.3,0.3-0.6,0.5-1,0.8
		c-0.7,0.6-1.5,1.2-2.3,1.8c-9.3,6.2-18.8,9.4-28.4,9.4c-7.2,0-14.5-1.8-21.8-5.3C144.5,226.4,134.8,211.5,133.8,191.8z
		 M206.4,244.3l-22.8,22.8l-22.4-22.4l6.3,1.7c11,3,21.9,2.9,32.3-0.1L206.4,244.3z M87.3,294.1c0.6-1.7,1.2-3.5,1.8-5.2
		c0.6-1.8,1.2-3.6,1.9-5.5c4.3-11.5,12.5-18.5,24.5-20.9c11.4-2.2,23.8-4.5,39.3-7.1c1.8-0.3,4.4,0.5,5.9,1.9
		c5.3,5.2,10.7,10.5,15.8,15.7c1.9,1.9,3.7,3.7,5.6,5.6c0.5,0.5,1,1,1.6,1.5c1.4-1.4,2.9-2.8,4.3-4.1c4.2-3.9,8.1-7.7,11.5-11.9
		c6.3-7.8,13.1-9.9,22.7-7.2c6.2,1.8,12.8,2.8,19.2,3.8c3.2,0.5,6.6,1,9.9,1.7c12.4,2.3,20.9,9.5,25.1,21.2c2.1,5.8,4,11.6,5.9,17.7
		c0.9,2.7,1.8,5.5,2.7,8.3l0.8,2.3l-28.7,0c-30.9,0-62.9,0-94.4,0.1c-1.1,0-2.1-0.1-3.1-0.4c-1.6-0.5-2.9-1.3-4.2-2.6
		c-3.6-3.8-7.3-7.4-11.1-11.2c-1.3-1.3-2.5-2.5-3.8-3.8c-1.5-1.5-3.1-3.1-4.7-4.7l-5.9,5.4c-5.9,5.3-11.6,10.5-17.4,15.7
		c-2.6,2.3-4.8,3.5-6.9,3.5c-2.2,0-4.4-1.2-6.9-3.8c-1-1-2.1-2.1-3.1-3.1c-2.2-2.2-4.4-4.5-6.7-6.6
		C86.8,298.7,86.4,296.7,87.3,294.1z M37,205.7l29.7,29.8l-8.4,7.9L29,214L37,205.7z M121.7,360.1c-8.6,0-16.8-3.5-23.2-9.9
		c-17.5-17.4-35.2-35.1-52.3-52.2c-7.3-7.3-14.6-14.6-22-22c-0.6-0.6-1.3-1.3-1.9-1.9c-1.4-1.4-2.9-2.9-4.3-4.3
		c-4.6-4.7-7.6-10.4-8.9-16.3c-0.3-1.6-0.6-3.3-0.6-5c-0.1-1.1,0-2.2,0-3.4c0.6-9,5-17.3,12.6-23.4l1.2-1l29.4,29.6l-1,1.2
		c-4.3,5.1-5.6,10.3-3.9,15.5c1.1,3.1,2.9,6.1,5.2,8.4c10.2,10.5,20.8,21,31,31.2c3.2,3.1,6.3,6.3,9.5,9.4
		c7.8,7.8,15.7,8.4,24.2,1.7l1.2-1l29.5,29.6l-1,1.2c-5.7,7.3-13.8,11.6-22.9,12.2C123.1,360,122.4,360.1,121.7,360.1z"/>
	<path class="st0" d="M251.2,53l0,8.6c0,12.8,6.3,19,19.1,19l8.9,0l4.3,0h2.1l-5.9,34.4c0.1,0,0.1-0.1,0.2-0.1c4-2.5,8.1-5,12.2-7.5
		c9.5-5.8,19.3-11.8,28.6-18.2c9.7-6.6,19.1-9.4,29.7-8.7c0.6,0,1.2,0.1,1.8,0c4.1-0.1,7.7-1.4,10.3-3.9c3.3-3.1,5.1-7.8,5.1-13.3
		c0.1-14.2,0.1-29.1,0-45.7C367.7,6.5,361.1,0,350.1,0c-27,0-54,0-81,0c-11.2,0-17.9,6.7-17.9,18C251.2,29.7,251.2,41.3,251.2,53z
		 M259.9,18.2c0-7,2.6-9.6,9.5-9.6c26.7,0,53.5,0,80.2,0c7,0,9.7,2.8,9.7,9.8c0,14.6,0,29.3,0,43.9c0,3.8-0.8,6.3-2.6,7.9
		c-1.6,1.5-4,2-7.1,1.6c-11.8-1.3-22.3,1.7-32.1,9.2c-4.7,3.6-10,6.7-15,9.7c-2.2,1.3-4.4,2.6-6.6,4c-0.5,0.3-1,0.3-1.4,0.3
		c-0.1,0-0.3,0-0.5,0l-2.2,0.2l3.9-23.2l-6.5,0c-6.5,0-12.9,0-19.3,0c-7.5,0-10-2.5-10-9.9C259.8,47.5,259.8,32.8,259.9,18.2z"/>
	<path class="st0" d="M52.2,146.8l-4.3-7.2l-17.8,10.6l0.8-3.9c8.5-39.8,36.4-76.8,74.5-99C143.3,25.2,187,20,228.7,32.7l2.3-7.6
		c-41.6-13.3-88.4-8.3-128.4,13.9C61.5,62,32.7,100,21.6,146.2l-1,4.1L8,129.6L0.8,134l19.3,32.1L52.2,146.8z"/>
	<path class="st0" d="M320.1,148.9l11.8-19.5l1.1,3.8c8.3,27.5,10.2,54.1,5.7,79.1c-4.3,24.3-14.9,47.9-31.4,70.2l0.6,0.5
		c1.9,1.6,3.7,3,5.6,4.5c0.1,0.1,0.2,0.2,0.4,0.3c35.5-47.7,44.5-98.8,27.6-156.1l-1.3-4.3l19.6,11.7l4.3-7.3l-32.1-19.3l-19.3,32.1
		L320.1,148.9z"/>
	<rect x="275.5" y="24.3" class="st0" width="68.1" height="8"/>
	<rect x="275.4" y="48.2" class="st0" width="44.2" height="8.1"/>
	<rect x="335.6" y="48.3" class="st0" width="8" height="8.1"/>
</g>
</svg>
