<?xml version="1.0" encoding="utf-8"?>
<!-- Generator: Adobe Illustrator 23.0.1, SVG Export Plug-In . SVG Version: 6.00 Build 0)  -->
<svg version="1.1" id="Layer_1" xmlns="http://www.w3.org/2000/svg" xmlns:xlink="http://www.w3.org/1999/xlink" x="0px" y="0px"
	 viewBox="0 0 384 384" style="enable-background:new 0 0 384 384;" xml:space="preserve">
<style type="text/css">
	.st0{fill:#808080;}
	.st1{fill:none;stroke:#808080;stroke-width:10;stroke-miterlimit:10;}
</style>
<g>
	<g>
		<path class="st0" d="M303.2,213.6c-0.1,0.6-0.2,1.1-0.5,1.7c-0.3,1.3-0.5,2.7-0.5,4.3c0,0.2,0,0.3,0,0.5v104.4
			c1.3,3.3,2.9,5.7,4.9,7.3c1.8,1.4,4,2.1,6.7,2c0.2,0,0.4,0,0.6,0h29.9l0,0c0.1,0,0.2,0,0.2,0c4.7,0.2,8-1,10.3-3.6
			c2.6-2.9,4-7.7,4.5-14l0,0v-0.1l9.1-94.2c0-0.2,0-0.3,0-0.5c0.6-5.4-0.5-8.8-3.2-10.9c-3-2.3-8.1-3.3-14.6-3.3c-0.2,0-0.3,0-0.5,0
			h-33.7v0c-5.1,0-8.9,1-11.2,3.1C304.5,211.1,303.8,212.2,303.2,213.6L303.2,213.6z M270.2,329.1c-0.7-0.7-1.2-1.6-1.4-2.6
			l-48.1-86.6c-5.4-8.9-10.2-9.1-14.8-6.4c-3.3,2-6.8,5.1-10.3,8.3c-2.1,1.9-4.2,3.8-6,5.3l-8.3,6.8l0,0l-0.1,0
			c-6,4.8-12.8,7.5-19.2,8c-4.2,0.4-8.3-0.2-12.1-1.6c-3.8-1.4-7.2-3.8-9.7-6.9c-2.7-3.4-4.5-7.7-5-12.8h0c-0.1-1.2,0.3-2.5,1.1-3.5
			l26.3-31.3c-5.5-0.1-10.4,0.7-15,2.1c-7,2.2-13.6,6-20.7,10.9c-0.8,0.6-1.9,1-3,1H93.7v57.2l0.1,36.6h17.6l0,0
			c1.7,0,3.3,0.9,4.2,2.4l21.9,38.1c3.2,5.6,6,10.4,9.5,13.5c3.3,3,7.6,4.8,14.3,5c2.5,0.1,4.9-0.4,7.2-1.3c1.4-0.6,2.8-1.4,4.1-2.3
			l-14.2-26.5c-1.3-2.3-0.4-5.3,2-6.5c2.3-1.3,5.3-0.4,6.5,2l15.4,28.8c5.7,2.9,10.9,3.8,15.6,2.8c4.3-0.9,8.3-3.5,12.1-7.6
			l-22.2-34.9c-1.4-2.2-0.8-5.2,1.5-6.6c2.2-1.4,5.2-0.8,6.6,1.5l23.4,36.7c4.1,1.7,8.1,2,11.8,1c3.6-1,7.2-3.3,10.8-7L220.7,313
			c-1.3-2.3-0.4-5.3,2-6.5c2.3-1.3,5.3-0.4,6.5,2l21.9,41.3c2.9,1.7,6.2,2.1,9.3,1.6c2.8-0.5,5.4-1.7,7.6-3.4
			c2.1-1.7,3.8-3.8,4.5-6.3c0.9-2.7,0.8-5.8-0.6-9.2L270.2,329.1L270.2,329.1z M276.6,320.7h16.1V220c0-0.1,0-0.3,0-0.4
			c0-1.6,0.1-3.1,0.3-4.5l-16.4-10.9c-0.1-0.1-0.2-0.1-0.3-0.2c-2.1-1.4-4.7-3.2-7.2-5c-9.3-6.5-18.8-13.2-29.1-15.9
			c-5.6-1.5-12-2.4-18.5-2.6c-5.7-0.1-11.6,0.4-17.1,1.9c-3.3,0.8-6.5,2-9.4,3.6c-2.6,1.4-5,3.1-7.2,5.1l-10.9,13
			c-0.3,0.7-0.8,1.2-1.4,1.7l-30.2,35.9c0.5,2.3,1.4,4.2,2.6,5.8c1.4,1.8,3.4,3.1,5.6,3.9c2.3,0.9,5,1.2,7.9,1
			c4.6-0.4,9.5-2.3,13.9-5.8l0,0l8.3-6.8c2.1-1.7,3.9-3.4,5.7-5c3.9-3.5,7.7-7.1,11.8-9.5c9.4-5.6,18.8-5.8,28,9.7l0.1,0.2
			L276.6,320.7L276.6,320.7z M294.4,330.4h-12.8c1.7,5.1,1.7,9.9,0.3,14.2c-1.4,4.4-4.2,8.1-7.7,10.9c-3.5,2.7-7.7,4.6-12.1,5.4
			c-4.3,0.7-8.8,0.3-13-1.4c-4.9,5.1-10,8.3-15.4,9.8c-5.4,1.5-10.8,1.2-16.3-0.8c-5.2,5.8-11,9.4-17.4,10.8
			c-6.5,1.4-13.4,0.4-20.7-3c-2.3,1.8-4.7,3.2-7.2,4.2c-3.5,1.5-7.2,2.1-11.1,2c-9.3-0.3-15.5-3-20.4-7.5
			c-4.7-4.2-7.9-9.6-11.5-15.9l-20.5-35.7H92.8c-0.9,4.6-2.5,8.5-4.9,11.6c-4.1,5.2-10,8-18.2,7.8c-0.1,0-0.2,0-0.3,0H42.2
			c-6.9,1.1-12.7-0.6-17.3-5.9c-4.1-4.7-6.9-12.4-8.1-23.6c0-0.1,0-0.3-0.1-0.4l-7.2-88.7c-1.4-9.6,0.2-16.3,4-21
			c3.9-4.7,9.7-6.8,16.9-7.1c0.2,0,0.4,0,0.6,0h36.6v0c6.9-0.1,12.9,1.1,17.4,4c3.6,2.3,6.3,5.7,7.6,10.2h29.8
			c7.5-5,14.5-9,22.3-11.5c7.6-2.4,15.8-3.2,25.5-2l10.1-11.9c0.2-0.2,0.4-0.5,0.6-0.7c2.9-2.7,6-4.9,9.5-6.7
			c3.6-1.9,7.5-3.3,11.5-4.4c6.4-1.7,13.1-2.3,19.6-2.2c7.4,0.2,14.6,1.2,20.9,2.9c11.9,3.2,22.2,10.3,32.2,17.3
			c2.2,1.6,4.4,3.1,7.1,4.9c0.1,0.1,0.2,0.1,0.3,0.2l14.5,9.7c0.7-1,1.6-2,2.5-2.8c4.1-3.7,10.1-5.6,17.7-5.6v0h33.7
			c0.1,0,0.3,0,0.4,0c8.6,0,15.7,1.5,20.5,5.3c5.4,4.2,8,10.5,6.9,19.6c0,0.1,0,0.2,0,0.2l-9.1,94.1l0,0c-0.7,8.4-2.9,15-6.9,19.6
			c-4.2,4.9-10.1,7.3-17.8,6.9l0,0h-29.9h0c-5.2,0.3-9.6-1.1-13.3-4.1C298.5,337,296.2,334.1,294.4,330.4L294.4,330.4z M51.2,293.8
			c3.6,0,6.5,2.9,6.5,6.5c0,3.6-2.9,6.5-6.5,6.5c-3.6,0-6.5-2.9-6.5-6.5S47.6,293.8,51.2,293.8L51.2,293.8z M335.1,293.8
			c3.6,0,6.5,2.9,6.5,6.5c0,3.6-2.9,6.5-6.5,6.5s-6.5-2.9-6.5-6.5S331.5,293.8,335.1,293.8L335.1,293.8z M84.1,266l-0.2-50.9
			c0-0.1,0-0.2,0-0.3c-0.5-3.2-1.9-5.3-3.9-6.6c-2.8-1.8-7-2.5-12.1-2.4h-0.1v0H31.1c-0.1,0-0.1,0-0.2,0c-4.5,0.2-8,1.3-9.9,3.6
			c-2.1,2.5-2.8,6.8-1.8,13.5c0,0.2,0,0.3,0,0.4l7.2,88.8v0.2c1,9.2,2.9,15.1,5.7,18.3c2.2,2.6,5.3,3.3,8.9,2.6
			c0.3-0.1,0.6-0.1,0.8-0.1v0h27.5c0.2,0,0.4,0,0.5,0c4.9,0.1,8.2-1.4,10.3-4.1c2.5-3.2,3.7-8.2,3.8-14.6h0L84.1,266L84.1,266z
			 M229.1,235.2L229.1,235.2L229.1,235.2L229.1,235.2z"/>
	</g>
	<g>
		<line class="st1" x1="224.1" y1="128.1" x2="224.1" y2="69.9"/>
		<line class="st1" x1="253.3" y1="128.1" x2="253.3" y2="69.9"/>
		<line class="st1" x1="165.9" y1="128.1" x2="165.9" y2="69.9"/>
		<line class="st1" x1="195" y1="128.1" x2="195" y2="69.9"/>
		<g>
			<line class="st1" x1="282.4" y1="128.1" x2="282.4" y2="69.9"/>
			<polygon class="st1" points="158.6,40.7 226.7,20.7 289.7,40.7 289.7,69.9 158.6,69.9 			"/>
			<rect x="158.6" y="127.8" class="st1" width="131" height="29.1"/>
		</g>
	</g>
</g>
</svg>
