<?xml version="1.0" encoding="utf-8"?>
<!-- Generator: Adobe Illustrator 23.0.1, SVG Export Plug-In . SVG Version: 6.00 Build 0)  -->
<svg version="1.1" id="Layer_1" xmlns="http://www.w3.org/2000/svg" xmlns:xlink="http://www.w3.org/1999/xlink" x="0px" y="0px"
	 viewBox="0 0 384 384" style="enable-background:new 0 0 384 384;" xml:space="preserve">
<style type="text/css">
	.st0{fill:#808080;}
</style>
<path class="st0" d="M68.9,197.8c-1.9-5.6-1.2-11.5,2.1-16.1c3.4-4.8,8.9-7.5,15.1-7.5c18.7,0,37.7,0,56.1,0c7.6,0,15.1,0,22.7,0
	h1.7v-48.3l-18.5,0c-2.8,0-5.7,0-8.5,0c-18.2,0-36.5,0-54.7,0c-2.6,0-5.3,0.3-8,0.6c-17.6,2.1-33.8,11.9-44.6,26.8
	c-10.8,14.9-14.9,33.3-11.4,50.6c6.5,32.2,33,53.9,65.8,53.9c18,0,36,0,54,0c8.2,0,16.5,0,24.7,0h1.3v-48.3l-24.7,0
	c-18.4,0-36.8,0-55.3,0C78.1,209.5,71.5,205.1,68.9,197.8z M136.7,136.3h19.9v27.3h-19.9V136.3z M136.7,220h19.8v27.3h-19.8V220z
	 M122.5,219.8c0.6,0,1.1,0.2,1.4,0.3c0.1,0,0.1,0.1,0.2,0.1l1.8,0.5v26.2h-2.5c-4.8,0-9.7,0.1-14.4,0.2c-4.7,0.1-9.4,0.2-14.2,0.2
	c-5.9,0-11.8-0.2-17.6-0.8C50.7,244,29.9,220,29.9,192c-0.1-27.7,20.3-51.4,47.3-55.2c0.4-0.1,0.8-0.1,1.1-0.2
	c1.4-0.2,2.9-0.4,4.5-0.5c10.3,0,20.5,0,30.9,0l12.2,0v27.8h-6.5c-3.4,0-6.8,0-10.2,0c-7.5,0-15.3,0-22.9,0
	c-16,0.1-28.6,12.3-28.6,27.8c-0.1,15.7,12.5,28,28.7,28.1c7.8,0,15.5,0,23.3,0.1C114,219.8,118.3,219.8,122.5,219.8z"/>
<path class="st0" d="M342.9,141.9c-13.6-1.4-27.3-1.6-40.9-0.4c-16.8,1.5-29,13.5-30.5,29.9c-1.6,18-1,36.1-0.3,49.8
	c0.2,4.7,3,8.9,7.5,11.5c3.9,2.2,8.3,2.7,11.2,1.2l3.6-1.9v7.5c0,4.6,0,9.2,0,13.8c0,11,0,22.5,0.1,33.7c0.1,6.5,3,11.3,8.8,14.5
	c5.6,3,10.8,2.7,15.9-1.1c0.6-0.4,1.2-0.7,1.7-1c0.2-0.1,0.3-0.2,0.5-0.3l1.4-0.8l1.3,1c4.6,3.5,8.4,4.7,12.6,3.8
	c8.2-1.7,13.5-8.2,13.6-16.5c0.1-10.8,0-21.9,0-32.5c0-4.6,0-9.2,0-13.9V234l2.7,0.2c0.9,0.1,1.7,0.2,2.5,0.3
	c1.4,0.2,2.6,0.4,3.6,0.2c8-1.2,13.9-8,14-16c0.1-13.8,0.2-28.4,0-43.3C371.9,158.4,359.1,143.6,342.9,141.9z M362.1,203.5
	c0,4.6,0,9.2,0,13.9c0,6.6-4.7,7.2-6.2,7.2c-1.9,0-3.4-0.5-4.5-1.6c-1.3-1.3-1.9-3.2-1.9-5.8c0-8.8,0-17.5,0-26.3l0-11.6h-10.2
	l0,104.7c0,0.6,0,1.1,0,1.7c0.1,2.5-0.5,4.5-1.8,5.8c-0.8,0.8-2.2,1.7-4.5,1.7c-0.1,0-0.1,0-0.2,0c-3.9-0.1-6.2-2.8-6.2-7.3
	c0-2.6,0-5.3,0-7.9l0-3.5v-41.8h-10.2v12.7c0,12.9,0,25.8,0,38.8c0,0.3,0,0.5,0.1,0.8c0.1,1.1,0.2,2.6-0.6,3.9
	c-1.8,2.7-3.7,4.1-5.6,4.2c-2.9,0-5.4-3.4-5.8-4.1c-0.9-1.4-0.7-2.9-0.6-4.1c0-0.3,0.1-0.6,0.1-0.9c0-29.3,0-58.7,0-88v-16.6H303
	c-3.3,0-6.3,0-9.3,0l0,38.6c0,2.9-1.1,4.5-1.9,5.4c-0.8,0.8-2.3,1.7-4.6,1.6c-3.7-0.1-6.1-2.8-6-6.9c0-4.4,0-8.8,0-13.1
	c0-9.7-0.1-19.7,0.2-29.5c0.3-12.7,11-23.3,23.8-23.7c11.3-0.3,22.5-0.3,33.2,0c12.9,0.4,23.6,11.2,23.8,24.1
	C362.2,184.9,362.2,194.4,362.1,203.5z"/>
<path class="st0" d="M321.5,128.4C321.6,128.4,321.6,128.4,321.5,128.4c7.4,0,14.4-2.9,19.7-8.2c5.3-5.3,8.2-12.3,8.2-19.8
	c0-15.3-12.5-27.8-27.7-27.9c-0.1,0-0.1,0-0.2,0c-7.4,0-14.4,2.9-19.7,8.2c-5.3,5.3-8.3,12.3-8.3,19.7c0,7.4,2.9,14.5,8.2,19.8
	C307.1,125.5,314.1,128.4,321.5,128.4z M309.1,87.8c3.4-3.3,7.9-5.1,12.6-5c4.8,0,9.2,1.9,12.5,5.3c3.3,3.4,5.1,7.8,5,12.6
	c-0.1,9.9-7.9,17.5-17.7,17.5c-0.1,0-0.1,0-0.2,0c-9.9-0.1-17.6-8-17.5-17.9C303.9,95.5,305.8,91.1,309.1,87.8z"/>
<g>
	<path class="st0" d="M258.7,238.1c-14.4,4.8-28.8,9.6-43.6,14.5c0-5.1,0-9.9,0-15.1c-9.7,0-19,0-28.4,0c0-0.3-0.1-0.5-0.1-0.8
		c14.4-4.8,28.8-9.6,43.6-14.5c0,5.1,0,9.9,0,15.1c9.7,0,19,0,28.4,0C258.7,237.6,258.7,237.9,258.7,238.1z"/>
	<path class="st0" d="M186.7,146.2c9.3,0,18.6,0,28.3,0c0-5.1,0-10,0-15.3c14.9,5,29.4,9.8,43.8,14.6c0,0.2-0.1,0.4-0.1,0.6
		c-9.3,0-18.6,0-28.3,0c0,5.1,0,10,0,15.3c-14.9-5-29.4-9.8-43.8-14.6C186.6,146.6,186.6,146.4,186.7,146.2z"/>
</g>
</svg>
