<?xml version="1.0" encoding="utf-8"?>
<!-- Generator: Adobe Illustrator 23.0.1, SVG Export Plug-In . SVG Version: 6.00 Build 0)  -->
<svg version="1.1" id="Layer_1" xmlns="http://www.w3.org/2000/svg" xmlns:xlink="http://www.w3.org/1999/xlink" x="0px" y="0px"
	 viewBox="0 0 384 384" style="enable-background:new 0 0 384 384;" xml:space="preserve">
<style type="text/css">
	.st0{fill:#808080;}
</style>
<g>
	<path class="st0" d="M371.6,143.6v-9.9H354v-26.1h17.5V97.6h-17.9V68h-10v240.3l-1.7-1.9c-1.1-1.2-1.7-2.5-2.3-3.9L322,261.7
		c-13.2-30.9-26.5-61.8-39.7-92.7c-1.3-3.1-2.7-4.8-4.3-5.2c-1.6-0.4-3.6,0.4-6.2,2.5l-12.5,10.2c-15,12.3-30.5,25-45.7,37.5
		c-2.7,2.2-4.9,2.6-8.3,1.4c-9.5-3.5-19.1-7-28.5-10.4c-9.2-3.3-18.8-6.8-28.1-10.3c-3.3-1.2-5.8-0.9-8.9,1.2
		c-16,10.8-32.4,21.7-48.2,32.2c-6.2,4.1-12.4,8.2-18.5,12.4c-0.7,0.4-1.3,0.9-2,1.4c-0.1,0.1-0.2,0.1-0.3,0.2l5.5,8.2l0.4-0.3
		c0.8-0.5,1.6-1,2.3-1.5l12.6-8.4c16.4-10.9,33.4-22.2,50-33.4c2.7-1.8,4.8-2.1,7.7-1c10.5,3.9,21.2,7.8,31.6,11.6
		c8.5,3.1,17.4,6.3,26,9.5c3.3,1.2,5.8,0.8,8.3-1.3c2.7-2.4,5.6-4.7,8.4-7c1.2-0.9,2.3-1.9,3.5-2.8l47.5-38.8l56.6,132l-2.7,2.2
		l-0.6-0.9c-0.2-0.4-0.5-0.8-0.7-1.2c-0.5-0.8-0.9-1.5-1.4-2.1c-15.4-15.4-31-31.1-46.1-46.2l-3.7-3.7c-4-4-5.2-4.2-10.2-1.2
		c-5,3-9.9,6-14.9,9c-12,7.2-24.3,14.6-36.4,22c-2.8,1.7-5,1.8-7.7,0.2c-9.8-5.4-19.8-10.9-29.5-16.2c-9.1-4.9-18.5-10.1-27.7-15.1
		c-3.1-1.7-5.8-2-9.1-0.8c-17,5.8-34.3,11.5-51,17.1c-6.8,2.3-13.6,4.5-20.4,6.8c-7.8,2.6-15.7,5.2-23.6,7.9l-9.4,3.2l3.1,9.3
		c0.3-0.1,0.5-0.1,0.7-0.2c1-0.3,1.8-0.5,2.7-0.8l17.4-5.8c26-8.6,52.8-17.6,79.2-26.5c3.6-1.2,6.4-1,9.5,0.7
		c9.8,5.5,19.9,10.9,29.6,16.2c9.1,5,18.6,10.1,27.8,15.3c3.4,1.9,5.9,1.8,9.1-0.1c9.1-5.6,18.5-11.2,27.5-16.6
		c3.5-2.1,6.9-4.1,10.4-6.2l15.7-9.4l66.1,66.1H14v10.1h23.9v17.6h10.1V342h25.9v17.6h9.9V342h26.1v17.5h10.1V342h25.9v17.5h10.1
		V342h25.9v17.5h10.1v-17.6h25.9v17.5h10.1V342h26.1v17.5h9.9v-17.6h25.9v17.5h10.1V342h26.1v17.5h9.9v-17.8h7.7
		c9.8,0,10.2-0.4,10.2-10v-8.2h17.7v-9.9H354v-26.1h17.6v-9.9H354v-26.1h17.4v-9.9H354v-26.1h17.6v-9.9H354v-26.1h17.5v-10.1H354
		v-25.9H371.6z"/>
	<path class="st0" d="M90.4,167.7C90.5,167.7,90.5,167.7,90.4,167.7c39.3,0,71.2-31.5,71.3-70.3c0.1-40-31.1-71.5-71.1-71.7
		c-0.1,0-0.2,0-0.3,0c-18.7,0-36.3,7.3-49.6,20.5c-13.5,13.5-21,31.4-21.1,50.5c0,18.8,7.3,36.5,20.7,50
		C53.9,160.3,71.7,167.7,90.4,167.7z M96,36.1l1.1,0.1c11.7,1.1,22.1,5.4,31.8,13.1l0.9,0.7L96,83.8V36.1z M30.3,90.5
		c1.3-27,27.1-52.8,54.1-54.1l1-0.1v55.2H30.3L30.3,90.5z M30.5,102.7l0-1h8c4.3,0,8.7,0,13,0c12.1,0,24.5,0,36.8,0.1
		c3.1,0,5.4-0.9,7.6-3.1c7.5-7.6,15.2-15.2,22.6-22.7c4.9-4.9,9.8-9.8,14.7-14.7c0.6-0.6,1-1.3,1.6-2.1c0.2-0.4,0.5-0.8,0.8-1.1
		l0.7-1l0.8,0.9c14.1,14.9,21,43.2,6.9,68.6c-11,19.6-31.4,31.2-53.2,31.2c-5.5,0-11.1-0.7-16.6-2.3
		C50.2,148.8,29.8,124.1,30.5,102.7z"/>
	<rect x="181.9" y="91.9" class="st0" width="51.5" height="9.5"/>
	<rect x="182" y="122" class="st0" width="27.7" height="9.5"/>
	<rect x="181.9" y="62" class="st0" width="15.6" height="9.5"/>
	<rect x="247.9" y="92" class="st0" width="15.6" height="9.5"/>
	<rect x="224" y="122" class="st0" width="15.5" height="9.6"/>
	<rect x="211.9" y="62" class="st0" width="51.5" height="9.5"/>
</g>
</svg>
