<?xml version="1.0" encoding="utf-8"?>
<!-- Generator: Adobe Illustrator 23.0.1, SVG Export Plug-In . SVG Version: 6.00 Build 0)  -->
<svg version="1.1" id="Layer_1" xmlns="http://www.w3.org/2000/svg" xmlns:xlink="http://www.w3.org/1999/xlink" x="0px" y="0px"
	 viewBox="0 0 384 384" style="enable-background:new 0 0 384 384;" xml:space="preserve">
<style type="text/css">
	.st0{fill:#808080;}
</style>
<path class="st0" d="M221.5,259.8c-9.8,0-19.6,0-29.4,0l-18.1,0v-13.8l2-0.1c0.7,0,1.4-0.1,2.1-0.1c19-1.4,35.6-14.3,41.2-32.1
	c1.6-5.3,2.1-11,2.4-16c0.3-5.2,0.2-10.4,0.2-15.9c0-2.3-0.1-4.7-0.1-7v-1h1c1.4,0,2.7,0,4,0c2.8,0,5.4,0,8,0
	c6.3-0.1,10.8-4.6,10.9-10.9l0-1c0.1-7.6,0.2-15.5-0.1-23.3c-0.1-1.4-0.7-2.9-1.5-4.5c-0.4-0.9-0.9-1.9-1.2-2.8
	c-0.1-0.2-0.1-0.4-0.2-0.7c-0.5-1.4-1-3-0.7-4.4c0.8-3.6,1.8-7.1,2.8-10.6c0.9-3.4,1.9-6.9,2.7-10.4c5.7-24.1-0.2-45.1-17.5-62.7
	c-1.2-1.2-2.1-3.3-2.2-5.1c-0.1-3.7-0.1-7.5-0.1-11.2c0-2,0-4.1,0-6.1c0-4.6-1.8-6.3-6.4-6.3c-7.3,0-14.5,0-21.8,0
	c-24.2,0-49.2,0-73.8,0.1c-14.2,0.1-27,4.5-38,13.1c-7.9,6.2-15.8,13-23.4,20.1c-12.4,11.6-17,27.4-14,48.2c1,7,3.3,14.1,5.6,20.9
	c0.9,2.8,1.9,5.6,2.7,8.5c0.8,2.6,1.6,5.4-1.1,8.4c-1,1.2-1.6,3.4-1.7,6.4c-0.2,6.4-0.2,12.9-0.1,19.2l0,3.6
	c0,7.2,4.4,11.6,11.7,11.6c2.5,0,5.1,0,7.7,0l4.6,0v1c0,2.7,0,5.4,0,8.1c0,5.8,0,11.2,0,16.7c0.2,21,15.2,39.9,35.7,44.7
	c2.5,0.6,5.1,1,7.6,1.3c1.2,0.2,2.4,0.3,3.6,0.5l0.8,0.1v13.1l-0.9,0.1c-0.2,0-0.4,0.1-0.6,0.1c-0.3,0.1-0.5,0.1-0.7,0.1
	c-5.2,0-10.3,0-15.5,0c-1.6,0-3.3,0-4.9,0c-8.3,0-16.6,0-25,0c-17.8,0.1-30.2,12.4-30.3,30.1c0,20.2,0,40.6,0,60.5l0,14.5
	c0,5.3,1.5,6.9,6.9,6.9c62.7,0,125.5,0,188.2,0c5.3,0,6.9-1.5,6.9-6.9l0-15.4c0-19.5,0-39.8,0-59.6
	C251.7,272.2,239.2,259.8,221.5,259.8z M235.6,163.5H222v-25.5h13.5V163.5z M79.5,163.6H65.9v-25.5h13.5V163.6z M89.8,197.7
	c0-18,0-36.1,0-54.1c0-13.7,0-27.4,0-41.1c0-8.1,2.3-15.3,6.9-21.8l0.6-0.9l0.8,0.6c11.3,8.8,24.4,9.7,36.9,9.4
	c10.5-0.3,21.2-0.3,31.9,0c12.3,0.3,25.3-0.6,36.8-9.6l1-0.8l5.8,11.6l9.3-2.6c-2.2-7.6-6-13.9-11.6-19.3c-2.1-2-4.6-2.1-6.7,0
	c-7.9,7.6-17.8,11-31.3,10.7c-11-0.3-22.2-0.2-33-0.1c-3.4,0-6.7,0-10.1,0.1c-0.1,0-0.1,0-0.2,0c-10,0-18.7-3.3-25.8-9.8
	c-3.4-3.1-5.7-3-8.9,0.4c-7.9,8.6-12.1,18.7-12.3,30.2c-0.1,5.9-0.1,12-0.1,17.8c0,2.7,0,5.3,0,8v0.7l-0.7,0.2
	c-0.2,0.1-0.4,0.1-0.5,0.2c-0.3,0.1-0.7,0.3-1,0.3c-6.9,0.3-7.4-0.1-9.6-6.7l-1.2-3.8c-1.4-4.4-2.9-8.9-4.4-13.3
	c-3.2-9.3-3.7-19.3-1.6-30.5c2-10.7,8.2-19.2,18.5-25.3c1.8-1.1,3.5-2.5,4.8-4.1c11.4-13.3,25.6-20.1,42.3-20.3
	c20.8-0.2,42-0.1,62.4-0.1c8.4,0,16.9,0,25.3,0c0.5,0,1,0,1.6,0.1c0.3,0,0.7,0,1.1,0.1l1,0v1c0,1.6,0,3.2,0,4.8
	c0,3.7,0,7.5-0.1,11.3c-0.1,2.7,0.8,4.8,3,6.7c16.7,14.9,22.4,33.7,16.9,55.9c-0.7,2.7-1.4,5.4-2.2,8.1c-1,3.6-2,7.4-2.9,11.1
	c-0.9,4.2-3.1,5.7-7,5c-0.4-0.1-1-0.1-1.6,0c-0.4,0-0.8,0-1.2,0h-1V110h-10.1l0,28.8c0,19.4,0,38.7,0,58.1c0,23.3-15.6,38.9-38.8,39
	l-0.8,0c-8,0-16.1,0-24.3,0c-6.6,0-13.3,0-19.9,0C105.9,235.7,89.8,219.7,89.8,197.7z M163.7,250.4c0,3.5,0,7-0.1,10.6
	c-0.1,1.6-1.8,2.9-2,3c-3,2.1-6.9,3.2-10.8,3.2c-3.9,0-7.7-1-10.8-3.1c-1.2-0.8-2.1-2.6-2.2-4c-0.1-3.1-0.1-6.1-0.1-9.4
	c0-1.2,0-2.5,0-3.8v-1h26v1C163.7,248.1,163.7,249.3,163.7,250.4z M165.6,274.2l3.3-1.4l-18.1,25.3l-18-25.1l3.2,1.3
	C146.2,278.4,155.8,278.4,165.6,274.2z M85.5,361.6H60v-25.5h25.5V361.6z M205.6,361.5H95.8v-77.5h-9.9v41.6h-26v-1
	c0-3.8,0-7.7-0.1-11.5c-0.1-8.8-0.2-17.9,0.3-26.8c0.5-9.1,8.6-16.3,18.4-16.4c12.1-0.1,24.4-0.1,36.8,0.1c1.8,0,3.9,1.4,4.9,2.8
	c6.1,8.3,12.2,16.9,18.1,25.2c2.3,3.3,4.7,6.6,7,9.9c2,2.8,3.8,4.2,5.5,4.2c1.7,0,3.4-1.3,5.4-4.1l3.5-4.9
	c7.1-9.9,14.4-20.1,21.5-30.2c1.5-2.2,3.2-3,5.7-3c4.1,0.1,8.2,0.1,12.5,0.1c1.7,0,3.4,0,5.1,0h1V361.5z M241.5,361.5H216v-25.5
	h25.5V361.5z M241.8,313.9l0,11.7H216v-55.2l0.8-0.2c7-1.3,13.4,0.1,18,3.9c4.5,3.7,7,9.6,7,16.5
	C241.8,298.3,241.8,306.1,241.8,313.9z"/>
<path class="st0" d="M294.8,275.6c32.1-5.9,43-33.5,40.7-51.7h-9.7c0.6,11.6-2.2,20.9-8.5,28.4c-7.1,8.4-16.2,12.9-27.1,13.4
	c-9.3,0.4-17.7-2.4-24.9-8.4c-9.8-8.2-14.3-19.1-13.5-33.3h-9.9c-0.7,11.2,1.6,20.9,7,29.4c7.6,12.1,19,19.5,33.8,22l0.8,0.1v14.3
	H272v9.6h33.5v-9.9h-11.5v-13.9L294.8,275.6z"/>
<path class="st0" d="M265.8,210.8c0,1.9,0,3.7,0,5.6c0,4.1,0,8.3,0,12.4c0.2,12.8,10.2,22.9,22.8,23c0.1,0,0.1,0,0.2,0
	c12.8,0,22.9-10,23-22.9c0.1-12.5,0.1-24.7,0-36.3c-0.2-12.8-10.2-22.8-22.9-22.8c0,0,0,0,0,0c-12.7,0-22.7,10-23,22.7
	c-0.1,4.2-0.1,8.4,0,12.5C265.7,206.9,265.8,208.9,265.8,210.8z M275.8,193.1c0.1-7.6,5.6-13.3,12.8-13.4c3.5,0,6.7,1.3,9.1,3.6
	c2.6,2.5,4,6,4,9.9c0.1,11.3,0.1,23,0,34.9c0,3.8-1.4,7.2-3.8,9.7c-2.4,2.5-5.7,3.9-9.2,3.9c0,0-0.1,0-0.1,0
	c-7.4,0-12.8-5.8-12.9-13.7c0-4,0-8,0-11.9c0-1.8,0-3.5,0-5.3c0-1.8,0-3.7,0-5.5C275.7,201.3,275.7,197.2,275.8,193.1z"/>
<path class="st0" d="M161.7,220.8c8.1-1.2,14-6.5,16.6-15c1.1-3.5,1.2-7.4,1.3-11.2l0-0.7c0.1-2.2-0.3-3.7-1.3-4.7
	c-1-1-2.6-1.5-5-1.5c-5.2,0-10.4,0-15.6,0l-6.8,0c-1.9,0-3.7,0-5.6,0c-4.1,0-8.3,0.1-12.4-0.1c-0.9,0-1.7-0.1-2.5-0.1
	c-4,0-6.2,0.5-7.4,1.7c-1.5,1.5-1.4,4.7-1.3,9.5l0,0.8c0.4,10.7,8.1,19.8,18,21.3C146.9,221.9,154.5,221.9,161.7,220.8z M132,199
	l-0.1-1.1h37.8l-0.1,1.1c-0.7,7.5-5.7,12.4-12.8,12.7c-2,0.1-4,0.1-6,0.1c-2,0-4,0-6-0.1C137.7,211.5,132.6,206.4,132,199z"/>
<path class="st0" d="M137.5,145.9h-9.8c-1,3.7-3.3,5.7-6.7,5.8c-4.9,0.1-6.6-3.7-7.2-5.8H104c0.1,3.9,1.6,7.6,4.4,10.5
	c3.2,3.4,7.7,5.3,12.3,5.3c0,0,0,0,0,0c4.6,0,9.1-1.9,12.3-5.3C135.9,153.4,137.4,149.7,137.5,145.9z"/>
<path class="st0" d="M181.5,161.7c4.5-0.2,8.9-2.3,12-5.8c2.6-2.9,4-6.5,3.9-10h-9.7c-1.2,3.8-3.5,5.7-6.9,5.8c-0.1,0-0.1,0-0.2,0
	c-4.6,0-6.3-3.8-7-5.8H164c0.2,4.2,1.9,8,5,11C172.3,160.2,176.9,161.9,181.5,161.7z"/>
</svg>
