<?xml version="1.0" encoding="utf-8"?>
<!-- Generator: Adobe Illustrator 23.0.1, SVG Export Plug-In . SVG Version: 6.00 Build 0)  -->
<svg version="1.1" id="Layer_1" xmlns="http://www.w3.org/2000/svg" xmlns:xlink="http://www.w3.org/1999/xlink" x="0px" y="0px"
	 viewBox="0 0 380.8 380.8" style="enable-background:new 0 0 380.8 380.8;" xml:space="preserve">
<style type="text/css">
	.st0{fill:#9A9A9A;}
</style>
<path class="st0" d="M374.7,186.2c-1.5,0-3.1,0-4.6-0.4l-1.1-0.3l-0.1-1.1c-2.3-47.4-19.9-87.9-52.5-120.5
	c-32.5-32.5-73-50-120.2-52.2l-1.2-0.1l-0.2-1.2c-0.2-1.3-0.2-2.7-0.2-4.1c0-4.6-0.3-6.2-3.9-6.4c-1.6-0.1-2.7,0.2-3.3,0.8
	c-1.1,1-1.1,3.1-1.1,5.4c0,1.5,0,3-0.3,4.3l-0.3,1.1l-1.1,0.1c-47.5,2.3-88,20-120.5,52.5c-32.5,32.5-50,73-52.2,120.4l-0.1,1.4
	l-1.4,0.1c-0.9,0-1.8,0.1-2.7,0c0,0,0,0,0,0c-3.6,0-6,0.1-7.8,2.4v3.5c2,2.5,4.9,2.5,8.4,2.5c0.7,0,1.4,0,2.1,0l1.4,0l0.1,1.4
	c2.2,47.4,19.8,87.9,52.3,120.4c32.5,32.6,73.1,50.2,120.5,52.5l1.3,0.1l0.1,1.3c0.1,1.1,0.1,2.2,0.2,3.3c0.1,3.4,0.2,5.7,2.4,7.4
	h3.5c2.2-1.7,2.3-3.9,2.4-7.4c0-1.1,0-2.2,0.2-3.3l0.1-1.3l1.3-0.1c47.3-2.2,87.8-19.8,120.3-52.2c32.6-32.5,50.2-73,52.5-120.4
	l0.1-1.1l1.1-0.3c1.4-0.3,2.9-0.3,4.3-0.4c4.4-0.1,6.1-0.4,6.2-3.9c0.1-1.6-0.2-2.7-0.8-3.3C378.9,186.2,376.9,186.2,374.7,186.2z
	 M355.5,194.4c1.1,0,2.3,0,3.4,0.2l1.3,0.2l0,1.3c0.2,40.2-17.1,81.2-47.3,112.5c-31.5,32.5-72.8,50.8-116.4,51.6l-1.2,0L195,359
	c-0.3-1.3-0.4-2.8-0.4-4.2c-0.1-4.1-0.3-6-4.2-6c-3.7,0.1-3.9,2-4,6c0,1.4,0,2.8-0.4,4.1l-0.3,1.2l-1.2,0
	c-40.8-0.4-82-17.9-112.8-47.9c-32-31.2-50.2-72.4-51.2-116l0-1.5l1.5-0.1c0.6,0,1.1,0,1.7-0.1c1.2,0,2.5-0.1,3.7-0.2
	c3-0.2,4.8-1.8,4.8-4.2c0-2.4-1.8-3.9-4.8-4c-1.1,0-2.3,0-3.5,0c-0.5,0-1.1,0-1.6,0h-1.5l0-1.5c0.1-41,17.7-82.4,48.2-113.6
	c31.4-32,72.4-50,115.5-50.7l1.2,0l0.3,1.1c0.3,1.3,0.4,2.8,0.4,4.2c0.1,4.1,0.3,6.1,4.2,6c3.7-0.1,3.9-2,4-6c0-1.4,0-2.8,0.4-4.1
	l0.3-1.2l1.2,0c42.4,0.5,83,18.1,114.5,49.6c31,31,49,72.7,49.4,114.4l0,1.2l-1.2,0.3c-1.3,0.3-2.7,0.3-4.1,0.3
	c-2.1,0-4.2,0-5.2,1.1c-0.6,0.6-0.9,1.7-0.8,3.2C349.2,194.1,350.9,194.4,355.5,194.4z"/>
<path class="st0" d="M262.2,207.4l-1.6-0.8l1.1-1.4c5.3-6.7,7.9-13.9,7.8-22.1c0-4.2,0-8.5,0-12.7c0-7.3,0-14.8-0.1-22.1
	c-0.2-13.2-9.2-22.2-22.5-22.3c-3.6,0-7.2,0-10.8,0l-6.3,0l-0.2-1.2c-2.7-16.1-11-24.4-24.6-24.8c-9-0.3-18.6-0.3-29.2,0
	c-11.4,0.3-20.6,7.4-23.4,18.1c-0.4,1.4-0.6,2.8-0.9,4.4c-0.1,0.8-0.3,1.6-0.4,2.4l-0.2,1.2l-6.2,0c-1.6,0-3.3,0-4.9,0
	c-2,0-3.9,0-5.9,0c-13.3,0.1-22.4,9-22.6,22.2c-0.1,8-0.1,16.2-0.1,24.1c0,3.7,0,7.4,0,11.1c0,7.6,2.2,14.5,6.7,20.4
	c0.3,0.4,0.5,0.9,0.7,1.3c0.1,0.2,0.2,0.3,0.2,0.5l0.7,1.3l-1.3,0.7c-16.4,8.9-26.6,21.6-31.1,39c-2.4,9.1,1.2,17.4,9.4,21.8
	c19.7,10.5,40.7,14.3,62.5,11.3c0.9-0.1,1.8-0.3,2.7-0.4c3.3-0.5,6.8-1,10.2-1c6.5,0,13.1,0.2,19.5,0.3c4,0.1,8.1,0.2,12.1,0.3
	c1.4,0,2.8-0.1,4.2-0.2c2.5-0.2,5-0.4,7.5,0.1c24.3,4.5,47.5,1,68.7-10.4c8-4.3,11.7-12.7,9.6-21.4c-2.1-8.6-6-16.4-11.6-23.4
	C277.1,217.1,270.5,211.8,262.2,207.4z M229.6,134.3h1.5c1.9,0,3.8,0,5.7-0.1c4.4-0.1,8.6-0.1,12.9,0.2c6.3,0.5,11.1,5.6,11.5,12.2
	c0.2,2.7,0.1,5.3,0.1,8.2c0,1.3,0,2.7,0,4.1v2.5l-2.2-1.2c-8.7-4.6-17.7-5.7-27.6-3.5l-1.8,0.4V134.3z M222.6,188.3
	c1.9-4.3,3.8-8.8,5.7-13.3c0.3-0.7,0.4-1.5,0.5-2.4c0-0.3,0.1-0.6,0.1-0.9c0.8-5.9,1.8-6.9,7.6-7.6c8-1,15.4,0.8,22,5.5
	c0.5,0.3,2.8,2.1,2.7,4.1c0,1.2,0,2.4,0,3.6c0,4.4,0,9-1.1,13.4c-1.9,8.2-7.6,14.1-16.4,17c-0.6,0.2-1.6,0.4-2.6,0.4
	c-0.9,0-1.9-0.2-2.6-0.7c-4.6-3.3-9.1-6.7-13.4-10c-1.3-1-2.7-2-3.9-3l-0.9-0.7L222.6,188.3z M180,142c-0.8-2.2-3-3.1-5.9-2.2
	c-2.7,0.8-5.4,1.7-8.2,2.6c-1.3,0.4-2.6,0.9-4,1.3l-2,0.6v-2.1c0-2.1,0-4.1-0.1-6c-0.1-4.4-0.1-8.6,0.1-12.9
	c0.5-8.8,7-15.1,15.9-15.3c9.9-0.2,19.7-0.2,29.3,0c8.6,0.2,15,6.2,15.7,14.6c0.3,3.7,0.2,7.5,0.2,11.2c0,1.6-0.1,3.2-0.1,4.8v2.1
	l-2-0.6c-1.6-0.5-3.2-1.1-4.7-1.6c-3.6-1.2-7-2.4-10.5-3.3c-1.7-0.5-3.3-0.3-4.3,0.3c-0.9,0.5-1.4,1.4-1.6,2.6
	c-0.4,2.2,0.2,3.6,4.7,5.3c4.7,1.7,9.2,4,13.5,6.1c0.8,0.4,1.6,0.8,2.5,1.2c1.3,0.7,2.5,2.5,2.5,3.9c0,1,0,2,0,3.1
	c0.1,4.2,0.1,8.6-0.4,12.9c-2.1,15.8-14.6,26.5-30.6,26.5c-0.5,0-1.1,0-1.7,0c-15.4-0.7-27.7-13.4-28.5-29.4c-0.2-4.3-0.2-7.8,0-11
	c0.1-1.7,1.6-3.8,3.2-4.4c2.7-1.1,5.6-2,8.3-2.9c1.7-0.6,3.5-1.1,5.2-1.7C179.6,146.5,180.9,144.5,180,142z M120.1,144.6
	c0.5-5.2,5.3-9.8,10.9-10.2c4.4-0.3,8.8-0.2,13.2-0.2c1.9,0,3.8,0.1,5.8,0.1h1.5v19.9l-31.4,9v-2c0-1.7,0-3.4-0.1-5
	C119.9,152.4,119.8,148.5,120.1,144.6z M131.5,168.6c4.3-1.4,8.9-2.8,14.7-4.4c0.8-0.2,1.7-0.2,2.5-0.1c0.4,0,0.8,0,1.2,0h1.5l0,1.5
	c0.1,10,3.3,18.8,9.4,26.1l1,1.2l-1.3,0.9c-1.5,1.1-2.9,2.2-4.4,3.3c-4.7,3.5-9.1,6.9-13.7,10.2c-0.8,0.6-1.9,0.8-2.9,0.8
	c-0.6,0-1.2-0.1-1.8-0.2c-9.3-2.4-17-11.6-18-21.3C118.6,173.3,119,172.6,131.5,168.6z M140.6,272.6l-1.4-0.2
	c-1.4-0.2-2.8-0.3-4.2-0.5c-3.2-0.3-6.5-0.7-9.6-1.7c-7.6-2.4-15.4-5.2-23.9-8.8c-5.5-2.3-7.6-6.9-6.1-12.8
	c4.3-16.4,14.3-28,29.6-34.7c1.7-0.8,3.8-0.3,5.4,0c0.6,0.1,1.1,0.2,1.5,0.3l2,0.2l-0.8,1.9c-1.1,2.8-2.2,5.4-3.3,8
	c-2.4,5.6-4.6,10.8-6.2,16.3c-3.1,10.4,1,19.8,11.1,25.2c1.2,0.7,2.5,1.3,3.7,2l2.8,1.5L140.6,272.6z M190.5,271.4
	c-18.2,0-35.6-4.4-51.7-12.9c-6.8-3.6-9.3-9.1-7.3-16.3c5.3-19.2,17.2-32.9,35.3-40.9c1.8-0.8,4.4-0.7,6.3,0.1
	c11.6,5.3,23,5.3,34.6,0c1.9-0.9,4.6-0.9,6.3-0.2c18.1,7.9,30,21.7,35.3,40.8c2,7.2-0.4,12.8-7.2,16.4
	C226.1,267,208.7,271.4,190.5,271.4z M279.1,261.8c-10,5.3-21.1,8.7-32.8,10.1c-0.5,0.1-1.1,0.1-1.7,0.1c-1.1,0-2.3-0.1-3.7-0.6
	l-3.2-1.2l3-1.6c0.7-0.4,1.4-0.7,2.1-1.1c1.5-0.7,3-1.5,4.4-2.3c9.1-5.1,13.1-14.4,10.4-24.4c-1.1-4.2-2.5-8.3-4.2-12.1
	c-1.1-2.6-2.5-5.1-4-7.7c-0.7-1.2-1.3-2.4-2-3.6l-0.5-1l0.8-0.8c3.9-3.7,7.9-2.4,10.9-0.8c13.6,7.1,22.7,18.1,26.9,32.6
	C287.3,254.1,285.4,258.4,279.1,261.8z"/>
<path class="st0" d="M310.7,109.4c-0.6-1-1.3-2-1.9-3c-0.6-1-1.5-1.7-2.6-1.9c-1.1-0.2-2.2,0-3.1,0.7c-1.9,1.3-2.2,3.6-0.9,6
	c0.3,0.4,0.6,0.9,0.9,1.3c0.2,0.3,0.4,0.5,0.5,0.8c21.7,32.5,28.6,68.3,20.4,106.3c-8.8,40.9-35.6,74.9-73.5,93.5
	c-37.9,18.6-81.3,18.8-119,0.6c-37.8-18.2-64.8-51.9-74.2-92.6c-9.4-40.6,0.1-82.8,26-115.7c20.6-26.2,50.2-43.9,83.4-49.8
	c33.2-5.9,67,0.5,95.3,18.1c5.8,3.6,11.2,8,16.5,12.3c2,1.7,4.2,3.4,6.3,5c1.7,1.3,3.5,1.8,4.9,1.4c1.1-0.3,1.9-1.1,2.4-2.4
	c0.8-2.1,0.2-3.6-2.3-5.8c-38.7-34.7-83.8-46.4-133.9-34.7C80.9,67,32.8,142.8,48.2,218.5c14,68.7,73.6,116.6,145,116.6
	c0.1,0,0.2,0,0.3,0h0h0c14.4,0.1,30.8-2.9,46.2-8.4c38.8-14.1,69.9-44.1,85.3-82.3c15.4-38.2,13.7-81.4-4.6-118.5
	C317.6,120.2,314.1,114.8,310.7,109.4z"/>
</svg>
