<?xml version="1.0" encoding="utf-8"?>
<!-- Generator: Adobe Illustrator 23.0.1, SVG Export Plug-In . SVG Version: 6.00 Build 0)  -->
<svg version="1.1" id="Layer_1" xmlns="http://www.w3.org/2000/svg" xmlns:xlink="http://www.w3.org/1999/xlink" x="0px" y="0px"
	 viewBox="0 0 381.2 381.2" style="enable-background:new 0 0 381.2 381.2;" xml:space="preserve">
<style type="text/css">
	.st0{fill:#9A9A9A;}
</style>
<g>
	<path class="st0" d="M376.7,183c-11-8-22.3-16.1-33.1-23.9c-8.1-5.8-16.2-11.7-24.3-17.5c-3.4-2.5-6.7-2.8-10.1-1.1
		c-3.2,1.7-4.7,4.5-4.7,8.6c0,2.3,0,4.6,0,6.9c0,1,0,2.1,0,3.2v1.5h-1.5c-2,0-3.9,0-5.8,0c-4.5,0-8.8-0.1-13.1,0.1
		c-3.5,0.1-4.9-1.5-5.9-4.1c-10.2-25.4-28.3-43.5-53.7-53.8c-0.7-0.3-1.4-0.6-2-0.9l-1.6-0.7V76.6h1.5c1.2,0,2.4,0,3.6,0
		c2.6,0,5,0.1,7.4-0.1c3.3-0.2,6.3-2.1,7.8-4.9c1.3-2.5,1.2-5.3-0.2-7.7c-4.2-6.7-9.1-13.2-13.9-19.5l-1.5-2c-1.3-1.8-3.4-2-5.4-0.5
		c-1.9,1.4-2.3,3.2-1,5.4c0.3,0.6,0.8,1.2,1.2,1.8c0.2,0.3,0.4,0.6,0.6,0.8L234,68.3l-10.2,0c-8.5,0-11.5,3-11.5,11.4
		c0,4,0,8,0,12.1l0,7.1l-1.7-0.3c-13.2-2.6-26.2-2.7-40-0.1l-1.7,0.3v-1.8c0-2,0-4,0-6c0-4.4,0-8.5,0-12.7c-0.1-6.5-3.5-9.9-10-10
		c-1.9,0-3.7,0-5.8,0l-6,0l43.5-60.3l4.7,6.5c2.6,3.6,5,7,7.5,10.4c1.3,1.8,2.7,2.8,4,3.1c0.9,0.1,1.8-0.1,2.8-0.8
		c2.7-2,1.4-5-0.2-7.2l-2.3-3.2c-2.9-4-5.9-8.2-8.9-12.3c-2.1-2.9-4.9-4.4-7.7-4.4c0,0,0,0,0,0c-2.8,0-5.5,1.6-7.5,4.3
		C174.5,16,165.9,28,157.6,39.5c-5.4,7.5-10.9,15.1-16.3,22.6c-2.4,3.3-2.7,6.5-1,9.8c1.6,3.2,4.4,4.8,8.4,4.8c0,0,0.1,0,0.1,0
		c2.3,0,4.6,0,6.9,0l4.6,0v24.6l-4.7,1.9c-0.7,0.3-1.4,0.6-2.1,0.9c-24,10.7-41.1,28.4-50.9,52.8c-0.4,1-1.8,3.5-3.7,3.6
		c-5.2,0.2-10.4,0.2-15.9,0.1c-1.7,0-3.3,0-5,0h-1.5v-1.5c0-1.3,0-2.5,0-3.7c0-2.6,0.1-5-0.1-7.4c-0.1-2.9-1.4-5.5-3.6-7
		c-2.1-1.5-4.6-2-7.3-1.3c-1.7,0.4-3.5,1.6-5.1,2.8l-1.4,1c-17.1,12.3-34.8,25-52.1,37.7c-1.9,1.4-3.5,3.1-5.2,5
		c-0.7,0.7-1.3,1.5-2,2.2v4.9c0.4,0.5,0.8,1.1,1.2,1.6c1,1.4,2,2.7,3.2,3.6c12.2,8.9,24.6,17.9,36.6,26.5
		c6.8,4.9,13.6,9.8,20.4,14.8c3.6,2.6,6.8,3,10.1,1.4c3.5-1.7,5.1-4.7,5-9.1c0-2.2,0-4.4,0-6.7c0-1,0-2,0-3.1v-1.5H78
		c1.8,0,3.6,0,5.3,0c5.1,0,10,0,14.8,0.1c1.7,0.1,3.5,1.7,4.2,3.1c1,1.9,1.9,3.9,2.8,5.8c1.1,2.3,2.1,4.7,3.4,6.9
		c1.1,2,3,2.6,5.2,1.4c2.1-1.1,2.8-2.8,1.9-5.2c-0.2-0.6-0.5-1.2-0.9-1.8c-0.1-0.2-0.2-0.5-0.4-0.7c-5.8-11.2-9-23.4-9.6-36.1
		c-1.2-25,8.8-49.3,27.4-66.6c18.6-17.3,43.5-25.4,68.4-22.4c22.7,2.8,43,14.2,57.2,32.1c14.2,17.9,20.6,40.3,18,63
		c-3.1,27.5-19.5,52-44.1,65.4c-24.8,13.6-53.3,14.3-78.3,2.1c-6.1-3-11.6-7.2-17-11.3c-1.7-1.3-3.5-2.7-5.3-4
		c-1.8-1.3-3.6-1.9-4.9-1.6c-0.9,0.2-1.7,0.8-2.2,1.8c-1.1,2.1-0.7,3.9,1.5,5.9c9.1,8.6,19.5,15.2,30.9,19.7
		c0.2,0.1,3.8,1.5,3.9,3.8c0.2,5.2,0.2,10.4,0.2,15.8c0,1.7,0,3.4,0,5.1v1.5H159c-1.1,0-2.2,0-3.3,0c-2.3,0-4.5,0-6.8,0
		c-4.1,0-6.9,1.5-8.6,4.7c-1.7,3.3-1.4,6.6,1.1,10.1c4.5,6.2,9,12.5,13.5,18.7c8.4,11.7,17.1,23.8,25.8,35.7c1.4,2,3.2,3.6,5.2,5.4
		c0.7,0.7,1.5,1.4,2.2,2.1h4.9c0.5-0.5,1.1-0.9,1.7-1.3c1.4-1.1,2.8-2.2,3.7-3.4c8.8-12,17.6-24.3,26.2-36.1
		c5-6.9,9.9-13.8,14.9-20.6c2.6-3.6,3-6.8,1.4-10.1c-1.7-3.5-4.7-5.1-9.1-5c-2.2,0.1-4.4,0-6.7,0c-1,0-2,0-3,0h-1.5v-1.5
		c0-2,0-3.9,0-5.8c0-4.7,0-9.1-0.1-13.5c-0.1-3.4,1.7-4.6,3.8-5.4c15.3-5.9,28.4-15.4,39-28.2c6.7-8.2,12.1-17.7,16.1-28.4l0.3-1
		h24.8l0,4.7c0,2.3,0,4.5,0,6.7c0,4.1,1.5,6.9,4.8,8.5c3.3,1.7,6.5,1.3,9.8-1c6.9-5,13.9-10,20.8-15c12.1-8.7,24.7-17.7,36.9-26.7
		c2.8-2,4.3-4.7,4.3-7.5C381.2,187.8,379.6,185,376.7,183z M91.4,212.3c-4,0-7.9,0-11.8,0c-8.3,0-11.3,3-11.4,11.2c0,1.6,0,3.1,0,5
		l0,5.6L8,190.6l60.3-43.5v2.8c0,1.2,0,2.3,0,3.4c0,2.2,0,4.1,0,6.1c0.1,5.8,3.6,9.4,9.4,9.5c4.4,0.1,8.9,0.1,13.2,0
		c1.9,0,3.8,0,5.7,0h1.6l-0.1,1.6c-0.2,2.2-0.4,4.3-0.6,6.4c-0.5,4.8-0.9,9.3-0.9,13.9c0,4.5,0.4,8.9,0.9,13.6
		c0.2,2.1,0.4,4.2,0.6,6.4l0.1,1.6L91.4,212.3z M223.8,312.9l4.5,0l5.8,0l-43.5,60.3l-43.5-60.3l6.1,0c2.1,0,3.9,0,5.7,0
		c6.4-0.1,9.9-3.6,9.9-10c0-4.2,0-8.5,0-12.7c0-1.9,0-3.7,0-5.5v-1.6l1.6,0.1c2.2,0.2,4.3,0.4,6.4,0.6c4.8,0.4,9.3,0.9,13.8,0.9
		c0,0,0,0,0,0c4.5,0,8.9-0.4,13.6-0.9c2.1-0.2,4.3-0.4,6.5-0.6l1.6-0.1l0,6.5c0,3.9,0,7.9,0,11.9
		C212.3,309.9,215.3,312.9,223.8,312.9z M312.8,234.1v-2.8c0-0.8,0-1.4,0-2.1c0-1.2,0-2.3,0-3.4c0.4-5.1-0.4-8.7-2.6-10.8
		c-2.2-2.2-5.8-3.1-11.2-2.7c-3.4,0.2-6.7,0.2-10.2,0.1c-1.6,0-3.2-0.1-4.9-0.1h-1.8l0.3-1.7c2.6-13.8,2.6-26.9-0.1-40l-0.4-1.7h1.8
		c1.7,0,3.3,0,4.8,0c3.3-0.1,6.5-0.1,9.7,0.1c5.7,0.4,9.6-0.5,11.7-2.7c2.1-2.2,3-5.9,2.6-11.4c-0.1-0.9-0.1-1.8,0-2.9
		c0-0.6,0-1.2,0-1.9v-2.8l60.3,43.5L312.8,234.1z"/>
	<path class="st0" d="M125.2,177c-4.8-0.1-8,2.5-8.3,6.9c-0.3,4.4-0.3,9,0,13.7c0.2,3.7,3.1,6.5,7,6.8c1.2,0.1,2.5,0.1,3.6,0
		c0.5,0,1,0,1.4,0h1l8,19.2l-1.3,1.3c-0.5,0.5-1,1.1-1.6,1.7c-4.4,4.6-4.5,8.5-0.1,13c2.3,2.4,4.5,4.6,6.6,6.6
		c4.4,4.2,8.4,4.2,12.8,0.1c0.7-0.7,1.4-1.3,2-1.9l1.3-1.2l0.9,0.4c1.5,0.6,2.9,1.3,4.2,1.9c3,1.4,5.9,2.7,8.8,3.5
		c3.9,1.1,5.3,3,5.2,7.1c-0.1,4.8,2.5,8,6.9,8.3c4.4,0.3,9,0.3,13.7,0c3.7-0.2,6.4-3,6.8-7c0.1-1.2,0.1-2.5,0-3.6c0-0.5,0-1,0-1.4
		v-1l19.2-8l1.4,1.4c0.5,0.5,1,1,1.6,1.5c4.5,4.4,8.6,4.4,13.1,0.1c1.3-1.3,2.6-2.5,3.9-3.8l1.4-1.4c6-6,6-9.2,0-15.4
		c-0.3-0.3-0.6-0.7-0.9-1l-0.8-1l0.3-0.8c0.6-1.4,1.2-2.7,1.8-4.1c1.4-3.1,2.7-6,3.6-9c1.1-3.9,3-5.3,7.1-5.2c0.1,0,0.2,0,0.3,0
		c5.1,0,8-2.9,8.1-8.3c0.1-2.1,0.1-4.3,0-6.4c0-0.7,0-1.5,0-2.2c0-8.1-2.3-10.3-10.5-10.5c-0.6,0-1.2-0.1-1.6-0.1
		c-0.2,0-0.3,0-0.4,0l-0.9-0.1l-7.8-18.9l1.2-1.3c0.5-0.5,1.1-1.1,1.6-1.7c4.4-4.6,4.4-8.5,0-13.1c-1.2-1.3-2.5-2.6-3.8-3.8
		l-1.5-1.5c-6-6-9.2-6-15.4,0c-0.3,0.3-0.7,0.6-1,0.9l-1,0.8l-0.8-0.4c-1.3-0.6-2.6-1.1-3.9-1.7c-2.9-1.3-5.6-2.6-8.5-3.4
		c-3.8-1.1-6.1-2.8-5.9-7.7c0.2-4.8-2.8-7.8-7.9-8c-2.2-0.1-4.5-0.1-6.7-0.1c-0.7,0-1.5,0-2.2,0c-8.1,0-10.3,2.3-10.5,10.5
		c0,0.6-0.1,1.2-0.1,1.6c0,0.1,0,0.3,0,0.4l-0.1,0.9l-18.9,7.9l-1.3-1.2c-0.5-0.5-1.1-1.1-1.7-1.6c-4.6-4.4-8.6-4.4-13.1-0.1
		c-1.9,1.9-4.4,4.3-6.8,6.9c-3.9,4.1-3.9,8.2-0.1,12.3c0.7,0.7,1.4,1.5,2,2.1l1.3,1.4l-0.4,0.9c-0.6,1.5-1.3,2.9-1.9,4.3
		c-1.4,3-2.7,5.9-3.5,8.8C131.2,175.7,129.2,177.1,125.2,177z M139.3,177.1c1.4-4.5,2.7-8,4.3-11c4.7-9.4,4.7-9.4-1.9-16.7l-1-1.1
		l7.8-7.2l1.3,1.2c0.4,0.4,0.9,0.8,1.5,1.4c4.1,3.9,6.6,4.2,11.8,1.6c5-2.5,9.4-4.3,13.6-5.7c6.7-2.2,8.1-3.9,8.3-10.7
		c0-0.4,0.1-0.9,0.1-1.4c0-0.2,0.1-0.5,0.1-0.8l0.1-1.3h10.2l0.1,1.3c0,0.3,0.1,0.5,0.1,0.7c0.1,0.5,0.1,1.1,0.2,1.6
		c0.2,6.6,1.6,8.4,8.1,10.4c4.6,1.4,8.3,2.8,11.4,4.4c9,4.6,9,4.6,16.5-2.1l1.1-1l7.3,7.7l-1.2,1.3c-0.3,0.4-0.8,0.8-1.2,1.3
		c-4.3,4.4-4.6,6.8-1.7,12.4c2.3,4.5,4.2,9.1,5.7,13.6c2.1,6.4,3.8,7.8,10.1,8c0.5,0,1,0.1,1.6,0.1l2.3,0.2v10.2l-1.3,0.1
		c-0.3,0-0.5,0.1-0.7,0.1c-0.5,0.1-1,0.1-1.6,0.2c-6.6,0.2-8.4,1.6-10.4,8.1c-1.4,4.6-2.8,8.2-4.4,11.3c-4.5,8.8-4.6,9,2.2,16.5
		l1,1.1l-7.8,7.2l-1.3-1.2c-0.4-0.3-0.8-0.8-1.3-1.2c-4.5-4.3-6.9-4.6-12.8-1.6c-4.3,2.2-8.8,4.1-13.3,5.6c-6.4,2.1-7.8,3.8-8,10.1
		c0,0.5-0.1,1-0.1,1.6l-0.2,2.3h-9.4l-0.4-0.7c0-0.1-0.1-0.1-0.1-0.2c-0.2-0.2-0.4-0.6-0.5-1.2c-0.7-9.4-0.9-9.6-10.4-12.5
		c-3-0.9-6.1-2.2-9.2-3.8c-8.9-4.6-9-4.6-16.4,2.1l-1.1,1l-7.3-7.8l1.5-1.6c0.5-0.6,1.2-1.2,1.8-1.9c2.9-3.2,3.3-6,1.4-10.1
		c-2.5-5.5-4.8-11.1-6.9-16.6c-1.5-3.9-3.8-5.8-7.5-6.2c-1-0.1-2-0.1-3-0.2c-0.5,0-1.1,0-1.7-0.1l-1.4-0.1v-10.3l1.3-0.1
		c0.2,0,0.5-0.1,0.7-0.1c0.5-0.1,1-0.1,1.6-0.2C135.6,184.9,137.3,183.6,139.3,177.1z"/>
	<path class="st0" d="M190.1,228.6c0.3,0,0.6,0,0.9,0c10.5-0.2,20.2-4.6,27.4-12.2c6.9-7.3,10.5-16.7,10.2-26.4
		c-0.7-21.1-17.9-37.9-38.4-37.4c-10.5,0.2-20.2,4.6-27.4,12.1c-6.9,7.3-10.5,16.7-10.2,26.4C153.2,212,169.9,228.6,190.1,228.6z
		 M169.8,169.4c5.7-5.6,13.1-8.6,21-8.5c16.3,0.2,29.5,13.6,29.4,29.8c0,8-3.2,15.5-9,21.1c-5.6,5.5-12.9,8.5-20.5,8.5
		c-0.2,0-0.3,0-0.5,0c-16.3-0.3-29.5-13.6-29.4-29.8C160.9,182.6,164.1,175.1,169.8,169.4z"/>
</g>
</svg>
