<?xml version="1.0" encoding="utf-8"?>
<!-- Generator: Adobe Illustrator 23.0.1, SVG Export Plug-In . SVG Version: 6.00 Build 0)  -->
<svg version="1.1" id="Layer_1" xmlns="http://www.w3.org/2000/svg" xmlns:xlink="http://www.w3.org/1999/xlink" x="0px" y="0px"
	 viewBox="0 0 381.1 375.2" style="enable-background:new 0 0 381.1 375.2;" xml:space="preserve">
<style type="text/css">
	.st0{fill:#9A9A9A;}
</style>
<g>
	<path class="st0" d="M378.6,116.3C366.3,47.8,304.4-2.2,234.6,0.1c-34.6,1.1-64.9,13.3-90.2,36.2C112,65.6,96.1,103.3,97,148.5
		l0,1.5l-2.6,0c-0.7,0-1.4,0-2.1,0c-13.2-0.3-23.1,9-23.5,22.2c-0.1,3.4-0.1,7.1,0,11.5c0.3,9.6,3.8,18.1,10.5,25.5
		c0.7,0.8,1.6,1.5,2.7,2.3c0.6,0.4,1.2,0.9,1.9,1.4l2.1,1.7l-2.6,0.9c-0.7,0.2-1.2,0.4-1.6,0.6c-0.7,0.3-1.2,0.4-1.7,0.6
		c-34.5,9.7-56.9,39.2-57,75c0,8-0.1,16.5,0,25.1c0,2.2-0.4,4.4-3.9,5.4c-5.7,1.6-10.1,4.5-12.8,8.7c-1.8,2.8-3.2,6-4.6,9.2
		c-0.6,1.3-1.2,2.7-1.8,4v8.4c0.1,0.2,0.1,0.4,0.2,0.6c0.2,0.6,0.5,1.3,0.7,2c3.1,11.3,12.8,19.5,23.6,20c8.5,0.4,17.2,0.3,25.6,0.2
		c2.3,0,4.6,0,7-0.1c2.4,0,4.1-1.6,4.2-3.9c0.1-2.3-1.6-4.1-4.2-4.3c-0.6-0.1-1.3,0-2,0c-0.3,0-0.6,0-0.9,0c-2.8,0-5.7,0-8.5,0
		c-6.2,0-12.6,0-18.9-0.1c-10-0.2-18.1-8.1-18.5-18.1c-0.4-10.2,7.1-18.6,17.3-19.5c4.8-0.4,5.7-1.5,5.8-6.4c0-3.8,0-7.7,0-11.5
		c0-7.3,0-14.8,0.1-22.2c0.6-29.2,20.6-55.5,48.7-63.8c13.7-4.1,27.4-3.9,43.7-2.4c25,2.3,43.8,15.3,55.7,38.8
		c0.6,1.2,1,2.4,1.5,3.6c0.2,0.6,0.4,1.3,0.7,2l0.8,2h-2.2c-2.2,0-4.4,0-6.6,0c-4.7,0-9.1-0.1-13.5,0.1c-8.6,0.2-16.2,6.1-18.6,14.3
		c-2.3,7.8-0.4,14.9,5.6,21.1l0.9,0.9l-0.8,1c-9,11.6-9,17.7,0,31.2l0.7,1l-0.8,0.9c-6.8,7-8.2,15.2-4.1,25.1l0.8,2.1l-20.9,0
		c-13.9,0-27.8,0-41.7,0c-2.2,0-3.8,0.5-4.7,1.4c-0.7,0.7-1,1.6-1,2.8c0,1.9,0.7,4,5.8,4c4.8,0,9.6,0,14.5,0l57.7,0
		c40.1,0,80.1,0,120.2,0c9.2,0,15.6-4,19.3-12c3.5-7.8,2.4-15.2-3.5-22.2c-0.3-0.4-0.6-0.8-0.9-1.2c-0.1-0.2-0.2-0.3-0.3-0.5
		l-0.7-0.9l0.7-0.9c0.4-0.4,0.7-0.8,1-1.2c0.6-0.7,1.2-1.4,1.7-2.1c4.6-6.8,5.2-13.8,1.8-20.8c-3.6-7.4-9.7-11.3-18.2-11.5
		c-5.5-0.2-10.9-0.1-16.6-0.1c-2.5,0-5,0-7.5,0h-2l0.5-1.9c0.2-0.9,0.5-1.7,0.7-2.5c0.5-1.7,1-3.2,1.2-4.8c0.2-1.6,0.2-3.2,0.1-4.9
		c0-0.8,0-1.7,0-2.6v-1.3l1.3-0.2c41.7-4.8,75.3-23.6,99.7-55.8C377,194.7,385.9,157.3,378.6,116.3z M119.5,212.1
		c-3.5,1.3-7.2,1.9-10.8,1.9c-6.2,0-12.2-1.8-17.5-5.4c-8.5-5.7-13.6-14.7-14-24.9c-0.2-3.9-0.2-7.9,0-11.7
		c0.3-7.6,6-13.5,13.2-13.7c7.4-0.2,13,4.6,14.3,12.4c0.2,1.4,0.6,3.3,1.6,4.3c0.9,1,2.1,1.4,3.4,1.1c1.4-0.3,2.6-1.4,3-2.8
		c0.2-0.7,0.3-1.4,0.4-2.2c0-0.4,0.1-0.8,0.2-1.2c1.1-6.9,6.7-11.6,13.6-11.6c0.1,0,0.1,0,0.2,0c6.7,0.1,12.5,5.3,13.3,11.8
		c0.2,2.1,0.2,4.1,0.1,6.1c0,0.9-0.1,1.8-0.1,2.6C140.5,195.4,133.1,207.2,119.5,212.1z M157.2,278.2c1.9-0.6,3.9-0.7,5.6-0.7
		c8.4,0,16.9,0,25.1,0l9.8,0c2.9,0,5.8,0,8.7,0c8.2,0,16.7,0,25.1,0.1c5.9,0.1,10.9,4.6,11.6,10.6c0.7,5.7-2.8,11.1-8.4,12.9
		c-1.3,0.4-2.7,0.6-4.1,0.6c-12.1,0-24.4,0-36.7,0c-10.7,0-21.4,0-32.2,0c-6.2,0-11.2-4.1-12.2-9.9
		C148.3,285.6,151.5,280,157.2,278.2z M160.6,310c5.7-0.2,11.2-0.2,17.2-0.1c2.5,0,5.1,0,7.8,0h2.4l-1,2.1c-3.2,6.8-3.2,13.2,0,20.1
		l1,2.1h-2.4c-2.7,0-5.3,0-7.8,0c-2.5,0-4.9,0-7.3,0c-3.2,0-6.4,0-9.6-0.2c-6.8-0.3-11.8-5.4-11.7-12.2
		C149.2,315.4,154.1,310.2,160.6,310z M185.6,366.7c-2.7,0-5.4,0-8.1,0.1c-2.6,0-5.2,0.1-7.8,0.1c-3.6,0-7.1-0.1-10.6-0.3
		c-5.8-0.3-10.2-6-9.9-12.6c0.3-6.2,5-11,11-11.2c5.7-0.2,11.4-0.1,17.4-0.1c2.6,0,5.2,0,7.9,0h2.3l-0.9,2.1
		c-3.1,7-3.1,13.3,0.1,19.7l1.1,2.2H185.6z M286.5,355.5c-0.4,6.7-5.7,11.3-12.9,11.3c-13,0-26,0-39,0l-14.2,0c-1.5,0-3,0-4.5,0
		c-1.5,0-3,0-4.5,0c-2.2,0-4.3,0-6.5-0.1c-7-0.1-12.3-5.3-12.3-12c0-6.8,5.2-12,12.2-12.1c8.2-0.1,16.5-0.1,24.6-0.1
		c3.4,0,6.8,0,10.3,0c3.2,0,6.5,0,9.7,0c8.1,0,16.5,0,24.8,0c3.6,0,6.9,1.4,9.1,3.8C285.6,348.8,286.7,352,286.5,355.5z
		 M274.4,309.9c7,0,12.2,5.3,12.2,12.2c0,7-5.2,12-12.6,12.2c-4.7,0.1-9.4,0.1-14.1,0.1c-3.4,0-6.8,0-10.2,0c-2.9,0-5.9,0-8.8,0
		l-1.4,0c-3.3,0-6.7,0-10,0c-7.7,0-15.6,0-23.4,0c-4.5,0-8.5-1.8-11-4.9c-2.2-2.8-3-6.3-2.2-9.9c1.3-5.7,6.1-9.6,12.1-9.6
		C230.6,309.8,253.3,309.8,274.4,309.9z M356.2,206.1c-20.1,36.8-54.8,61.5-95.2,67.7c-1,0.2-1.9,0.3-2.9,0.4
		c-1.1,0.1-2.2,0.3-3.4,0.5c-1.5,0.2-3,0.5-4.6,0.5c-2.9,0-6-0.7-9.1-3c-2.2-1.6-5.9-2.6-10.4-2.8c-7.5-0.3-15.1-0.3-22.4-0.2
		c-2.2,0-4.5,0-6.7,0.1c0,0-0.1,0-0.1,0c-6.7,0-10.6-2.5-13.2-8.5c-9.8-22.5-26.8-37.3-50.6-44c-0.5-0.1-1-0.3-1.5-0.5
		c-0.2-0.1-0.4-0.2-0.7-0.3l-1.9-1l11.9-14.3l1.6,2c0.4,0.5,0.8,1,1.2,1.5c29.3,39.7,67.5,54.9,113.5,45.3
		c45.9-9.6,75.3-39.2,85.1-85.7c8.4-40.1-3.4-75.3-35.1-104.6c-1.5-1.4-2.9-2-4.1-2c-0.9,0-1.8,0.5-2.6,1.4
		c-0.8,0.8-1.1,1.8-1.1,2.7c0.1,1.3,0.9,2.6,2.3,3.9c16.9,15,27.8,33.7,32.5,55.4c0.7,3.4,1.2,6.8,1.7,10.5c0.2,1.7,0.4,3.4,0.7,5.2
		l0.3,1.7h-1.7c-1.4,0-2.8,0-4.1,0c-2.7,0-5.3,0-7.8,0c-2,0-4.4,0.7-4.6,3.8c-0.1,2.6,1.6,4.2,4.4,4.4c2.5,0.1,5.2,0.1,7.7,0.1
		c1.1,0,2.3,0,3.4,0h1.5l0,1.5c0.7,43-38.3,93-95.4,95.9l-1.6,0.1l0-4.9c0-2.5,0-4.9,0-7.4c0-2-0.6-5.5-4.1-5.5c0,0,0,0,0,0
		c-3.7,0-4.1,3.8-4.2,5.5c0,2.3,0,4.7,0,7.4c0,1.3,0,2.7,0,4.3v1.9l-1.8-0.4c-2.8-0.6-5.5-1.1-8.2-1.6c-5.9-1.1-11.5-2.2-17-3.9
		c-25-8-44.3-23.8-57.5-47c-1-1.7-1.5-3.9-1.6-6.6c-0.1-2.5-0.1-5.1,0-7.6c0-2,0.1-4,0-5.9c-0.1-6.5-2.8-12-8.2-16.9
		c-1.2-1.1-1.9-2.4-2.6-3.8c-0.3-0.5-0.6-1.1-0.9-1.6l-0.6-1l2.1-2.3h0.7c1.2,0,2.3,0,3.5,0c2.6,0,5.4,0,8,0c1.5,0,4-0.5,4.2-3
		c0.1-1.3-0.6-3.2-1.6-4.5c-0.2-0.2-0.8-0.6-3.4-0.7c-2.5-0.1-5.1-0.1-7.6-0.1c-1,0-2.1,0-3.1,0h-1.6l0.1-1.5
		c0.8-25.3,11.8-49.3,30.8-67.6c18.2-17.5,41.8-27.7,64.9-28l1.5,0v1.5c0,1.1,0,2.1,0,3.2c0,2.4,0,4.8,0,7.2c0,2.5,0.8,5.4,4.2,5.4
		c0,0,0,0,0,0c1.7,0,4-0.6,4.1-5.4c0-1.7,0-3.4,0-5.1c0-1.4,0-2.9,0-4.3c0-0.4,0.1-0.7,0.2-1c0.1-0.2,0.2-0.5,0.3-0.9l0.4-1.3
		l1.3,0.2c1.5,0.2,3.2,0.4,4.7,0.6c3.6,0.4,7.4,0.8,11,1.9c5.3,1.6,10.5,3.5,15.5,5.4c3.1,1.2,6.3,2.4,9.5,3.5c2.9,1,4.3,0.9,5,0.6
		c0.8-0.3,1.9-2,2.3-3.4c0.3-1.1,0.2-2.6-2.9-4.2c-17.5-9.2-36-13.4-54.8-12.6c-52.4,2.3-94.5,38.1-104.6,89.2
		c-1,5.1-1.3,10.4-1.6,15.6c-0.1,2.3-0.3,4.6-0.4,6.9c-0.1,0.9-0.1,1.8,0,2.9c0,0.5,0,1.1,0,1.7v1.5l-1.5,0
		c-7.2,0.2-12.9,2.7-17.9,8.1l-1.7,1.9l-0.8-2.4c-0.2-0.5-0.4-1-0.5-1.4c-0.4-0.9-0.7-1.7-0.7-2.7c-3-44.4,11.6-81.5,43.7-110.4
		c32.4-29.2,75.2-40.8,117.3-31.8c42.5,9.1,77.1,37.5,95,77.9C378.4,126.5,376.3,169.2,356.2,206.1z"/>
	<path class="st0" d="M95.3,328.1c0.1,10.3,8.5,18.6,18.8,18.6c0,0,0.1,0,0.1,0c10.5-0.1,18.6-8.3,18.6-18.8c0-5-2-9.8-5.6-13.3
		c-3.5-3.5-8.2-5.4-13.1-5.4c0,0-0.1,0-0.1,0C103.8,309.2,95.3,317.9,95.3,328.1z M106.7,320.6c2-2,4.7-3.2,7.4-3.2c0,0,0,0,0,0
		c2.8,0,5.4,1.1,7.4,3.1c2,2,3.1,4.7,3.1,7.6c0,2.8-1.1,5.5-3.1,7.4c-1.9,1.9-4.5,2.9-7.3,2.9c-0.1,0-0.1,0-0.2,0
		c-5.6-0.1-10.2-4.7-10.3-10.4C103.6,325.3,104.7,322.6,106.7,320.6z"/>
	<path class="st0" d="M69.3,300.1c10.4,0,18.7-8.1,18.8-18.6c0-5-1.9-9.8-5.4-13.4c-3.5-3.6-8.2-5.5-13.1-5.6c0,0-0.1,0-0.1,0
		c-10.3,0-18.7,8.3-18.8,18.6c-0.1,5,1.9,9.7,5.4,13.3c3.5,3.6,8.2,5.6,13.2,5.6C69.2,300.1,69.3,300.1,69.3,300.1z M58.9,281.4
		c0-2.8,1.1-5.5,3.1-7.5c2-2,4.7-3.1,7.4-3c5.7,0.1,10.2,4.6,10.3,10.3c0.1,2.9-1,5.6-2.9,7.6c-1.9,2-4.5,3.1-7.4,3.1h0
		c0,0-0.1,0-0.1,0c-2.8,0-5.4-1.1-7.4-3C60,286.9,58.9,284.2,58.9,281.4z"/>
	<path class="st0" d="M79.8,338.7c9.2-18.6,18.4-37.5,27.3-55.9l4.8-10c0.1-0.2,0.2-0.4,0.3-0.6c0.2-0.3,0.5-0.9,0.5-1.1
		c-0.1-0.3-0.2-0.5-0.3-0.8c-0.5-1.4-1.2-3.5-2-3.9c-0.2-0.1-0.4-0.1-0.7-0.1c-1.2,0-3.3,0.8-4.4,1.3c-0.2,0.1-0.5,1-0.8,1.5
		c-0.1,0.3-0.3,0.6-0.4,0.9c-10.4,21.4-20.8,42.8-31.2,64.2c-0.5,1.1-1,2.1-1.2,3.1c-0.2,1.1,0,2.2,0.7,3c0.8,1,2.3,1.7,4.1,1.8
		c0.2-0.2,0.4-0.3,0.6-0.5C78.1,340.8,79.3,339.9,79.8,338.7z"/>
	<path class="st0" d="M273,123c-3,0-5.9,0-9,0c-1.4,0-2.8,0-4.2,0h-1.2l-0.3-1.1c-0.1-0.3-0.1-0.5-0.2-0.6c-0.1-0.3-0.2-0.6-0.2-1
		c0-3.7,0-7.5,0-11.2c0-6.9,0-13.8,0-20.7c-0.1-11.2-7.9-19.5-18.7-19.7c-0.1,0-0.2,0-0.3,0c-10.6,0-18.7,8-18.9,18.7
		c-0.3,18.3-0.3,36.7,0,54.7c0.2,10.7,7.8,18.4,18.5,18.6c12.5,0.3,24,0.3,35.1,0c10.5-0.3,18.5-8.7,18.3-19.2
		C291.8,131.1,283.6,123.2,273,123z M228.2,114.8c0-8.6,0-17.5,0.1-26.2c0-2.2,0.6-4.5,1.6-6.4c2.1-4,6.8-6,11.6-5
		c4.6,1,8,5,8.1,9.4c0.2,8.2,0.1,16.6,0.1,24.7c0,3.2,0,6.5,0,9.7v1.4l-21,1.7l-0.2-1.4c0-0.1,0-0.1,0-0.2c-0.1-0.4-0.2-1-0.2-1.7
		L228.2,114.8z M272.5,152.6c-0.2,0-0.4,0-0.7,0H256c-1.7,0-3.4,0-5.1,0c-1.5,0-3.1,0-4.6,0c-2.1,0-4.3,0-6.4-0.1
		c-6.9-0.1-11.6-4.6-11.5-10.8c0.1-6.3,4.8-10.5,11.7-10.5c11.8,0,22.4,0,32.2,0c6.7,0,11.3,4.2,11.5,10.3
		C283.9,147.9,279.4,152.3,272.5,152.6z"/>
</g>
</svg>
