<?xml version="1.0" encoding="utf-8"?>
<!-- Generator: Adobe Illustrator 23.0.1, SVG Export Plug-In . SVG Version: 6.00 Build 0)  -->
<svg version="1.1" id="Layer_1" xmlns="http://www.w3.org/2000/svg" xmlns:xlink="http://www.w3.org/1999/xlink" x="0px" y="0px"
	 viewBox="0 0 468.8 401.2" style="enable-background:new 0 0 468.8 401.2;" xml:space="preserve">
<style type="text/css">
	.st0{fill:#9A9A9A;}
</style>
<g>
	<path class="st0" d="M451.3,362.6c-0.3,0-0.6,0-1,0c-0.6,0-1.1,0-1.4,0c-0.8,0.1-3.3,0.4-5.1-1.2c-1.9-1.7-1.7-4.3-1.7-5.1
		c0.2-4,0.1-8.1,0.1-12.1l0-2.1c-0.1-5.5-2.6-5.5-3.9-5.5c-1.8,0-3.9,0.7-4,5.6c-0.1,4.7-0.2,9.5,0,14.2c0.1,1.3,0,3.3-1.4,4.8
		c-1.4,1.5-3.3,1.6-5,1.6c-38.8-0.1-77.7-0.1-115.4,0c-1.5,0-3.3-0.2-4.6-1.5c-1.3-1.3-1.5-3.2-1.5-4.6c0.1-22,0.1-43.8,0-64.9
		c0-1.5,0.2-3.4,1.6-4.8c1.4-1.4,3.3-1.6,4.8-1.6c37.5,0.1,76,0.1,114.5,0c1.7,0,3.9,0.2,5.5,1.8c1.5,1.6,1.6,3.8,1.6,5.2
		c-0.2,5.4-0.2,10.6,0.1,15.4c0.2,2.5,1.5,3.8,4.1,3.9c0.9,0,1.7-0.2,2.3-0.8c0.8-0.8,1.3-2,1.3-3.5c0.1-5.1,0-10.2,0-15.2l0-3.7
		c0-2.1-0.8-4.2-2.4-6.3c-2.6-3.4-6.3-4.8-12.4-4.8c-13.1,0-26.2,0-39.3,0h-2.3c-23.4,0-47.5,0-71.6,0.1c-2,0-4.3-0.2-5.9-1.8
		c-1.5-1.5-1.8-3.5-1.8-6c0.1-30.6,0.1-61.5,0.1-91.4l0-14.7c0-10.5-4.5-15-14.9-15c-36.3,0-73.6,0-114,0c-10.4,0-15,4.6-15,14.9
		l0,10.2c0,14.3-0.1,29.1,0.1,43.5c0,2.6-0.3,4.7-1.8,6.3c-1.6,1.6-3.9,1.9-6.1,1.9c-29.6-0.2-59.4-0.1-88.2-0.1l-24.5,0
		c-11.3,0-15.3,4-15.3,15.3l0,23.1c0,29.8,0,60.6,0.1,90.9c0,2.2-0.2,4.8-2.1,6.6c-1.9,1.7-4.4,1.7-6.5,1.5
		c-8.9-0.9-14.8,2.5-18.1,10.5v17.5c0.3,0.3,0.5,0.7,0.7,1.1c2.7,6.4,7.5,9.4,15.1,9.4c45.9,0,92.6,0,137.8,0l60.9,0
		c0.6,0,1,0,1.4,0c2.9-0.2,4.4-1.6,4.5-3.9c0-2.4-1.6-3.9-4.7-4c-0.7,0-1.4,0-2.2,0l-0.1,0c-0.4,0-0.8,0-1.2,0l-194.3,0
		c-8.6,0-10-1.4-10-10c0-5.6,0-8.4,2.1-10.5c2.1-2.1,4.9-2.1,10.5-2.1h429.8c9.3,0,10.7,1.4,10.7,10.8l0,1.5c0,1.1,0,2.1,0,3.1
		c0,2.3-0.6,4.1-1.9,5.4c-1.3,1.3-3.2,1.9-5.4,1.9c-0.7,0-1.4,0-2.1,0l-1,0l-197.5,0c-4.8,0-6.5,1-7.1,1.7c-0.5,0.5-0.7,1.3-0.7,2.4
		c0,1.5,0.1,3.9,7.7,3.9h0.7c16.1,0,32.2,0,48.2,0c15.9,0,31.9,0,48.1,0c40.1,0,70.5,0.1,98.6,0.2c9.2,0.1,16.2-1.6,20.4-9.9V374
		C465.3,364.9,461.7,362.6,451.3,362.6z M160.8,360.9c-1.3,1.3-3,1.8-5.8,1.8h-0.1c-33.1-0.2-69-0.2-113,0c-2,0-4.1-0.2-5.6-1.7
		c-1.5-1.5-1.7-3.7-1.7-5.5c0.2-38.9,0.2-77.5,0-114.9c0-1.8,0.2-4.1,1.8-5.7c1.5-1.5,3.4-1.8,5.9-1.8c41.2,0.1,78.2,0.1,113,0
		c1.7,0,4,0.2,5.5,1.7c1.5,1.5,1.7,3.6,1.7,5.6c-0.1,14.3-0.1,28.8-0.1,42.9l0,1.1c0,4.5,0,9,0,13.4c0,4.9,0,9.8,0,14.7
		c0,13.8,0,28.2,0.1,42.3C162.5,356.9,162.4,359.2,160.8,360.9z M298.5,355.5c0,2-0.2,4-1.7,5.5c-1.6,1.6-4,1.7-5.3,1.7
		c-40.9-0.1-78.2-0.1-114,0c-1.8,0-4-0.2-5.5-1.7c-1.5-1.5-1.7-3.6-1.7-5.7c0.1-24.8,0.1-50,0.1-74.3l0-21.6c0-7.4,0-14.7,0-22.1
		c0-24,0-48.7-0.1-72.9c0-2.1,0.2-4.4,1.9-6.1c1.6-1.6,3.9-1.9,6-1.9c36.8,0.1,74.7,0.1,112.6,0c1.9,0,4.2,0.2,5.8,1.8
		c1.6,1.6,1.9,3.9,1.9,5.9C298.4,224.8,298.4,289.2,298.5,355.5z"/>
	<path class="st0" d="M48.1,202.9c0.1,5.4,3.7,9.2,8.9,9.2c27.4,0.2,55.3,0.2,82.9,0c5.4,0,9-3.9,9-9.6c0.1-11.8,0-23.6,0-34.7
		c0-2.6-0.2-4.6-0.6-6.3c-2.8-13.1-10.6-21.9-23.8-26.7l-3.6-1.3l2.1-3.2c8.8-13,8.4-19.9,6.9-28.2C128,90,117.2,79.4,104.5,77.1
		c-1.9-0.4-3.8-0.5-5.8-0.5C88,76.5,77.6,82,71.7,90.9c-7.4,11-7.2,25.5,0.3,36.1c1.1,1.6,2.2,3.3,1.6,5.3c-0.6,2-2.3,3-4.1,3.7
		c-13.4,5.9-20.6,16.1-21.2,30.3c-0.4,10.1-0.3,20.5-0.2,30.5C48.1,198.9,48.1,200.9,48.1,202.9z M81.2,91.7
		c4.7-4.7,10.8-7.2,17.4-7.2c6.6,0,12.9,2.7,17.5,7.4c4.6,4.7,7.1,10.8,6.9,17.2c-0.2,13.3-11.2,24.1-24.3,24.2l-0.2,0
		c-6.4,0-12.4-2.5-17.1-7.2c-4.7-4.7-7.3-10.8-7.4-17.3C74,102.5,76.6,96.4,81.2,91.7z M56,182.4l0-0.5c0-4.7,0-9.6,0.1-14.4
		c0.4-14.7,11.4-25.7,26.3-26.1c3.7-0.1,7.5-0.1,11.1,0l0.3,0c1.6,0,3.2,0,4.9,0c1.4,0,2.7,0,4.1,0l0.7,0c3.6,0,7.3,0,11.1,0
		c15.3,0.3,26.3,11.2,26.6,26.3c0.1,5,0.1,10,0.1,14.9c0,5.2,0,10.5,0.1,15.7c0.1,2.3-0.5,3.9-1.7,5c-0.9,0.8-2.1,1.2-3.5,1.2
		c-0.6,0-1.2-0.1-1.7-0.1l-0.1,0c-0.3,0-0.6-0.1-0.8-0.1c-0.2,0-0.5,0-0.7,0.1c-1.5,0.2-3.6,0.5-5.3-1.1c-1.2-1.1-1.8-2.7-1.7-5
		c0.2-6.8,0.1-13.7,0.1-20.3c0-3.2,0-6.5,0-9.7c0-3-0.8-4.5-2.9-5.1c-1.2-0.4-2.4-0.3-3.2,0.3c-1.1,0.8-1.8,2.4-1.8,4.4
		c-0.1,9.5-0.2,19.6,0.1,29.5c0,1.7-0.1,3.9-1.7,5.4c-1.6,1.6-3.7,1.7-5.5,1.6c-8.1-0.2-16.1-0.2-23.9,0c-2.1,0.1-4.2-0.1-5.8-1.7
		c-1.6-1.6-1.7-3.8-1.7-5.6c0.2-7.5,0.2-15.2,0.1-22.6c0-2.1,0-4,0-6c0-5.6-2.9-5.6-3.9-5.6c-2.7,0-4,1.8-4,5.5c0,1.9,0,3.8,0,5.7
		c-0.1,7.8-0.1,15.9,0.1,23.8c0.1,2.3-0.5,4-1.7,5.1c-1.7,1.6-3.8,1.4-5.2,1.3c-0.4,0-0.6-0.1-0.9-0.1c-0.3,0-0.5,0-0.8,0l-0.1,0
		c-1.3,0.1-3.5,0.3-5.2-1.2c-1.2-1.1-1.8-2.8-1.7-5.1C56,192.9,56,187.5,56,182.4z"/>
	<path class="st0" d="M319.8,253.4c0,7.7,3.5,11.2,11.2,11.2c9.2,0,18.4,0,27.5,0l11.4,0c4,0,8,0,12,0l2.1,0c8.8,0,17.8,0,26.7,0
		c6.1,0,10-3.8,10-9.7c0-2.4,0-4.9,0.1-7.3c0.1-9.7,0.2-19.8-0.3-29.6c-0.7-13.7-7.6-23.6-20.5-29.3c-2.3-1-3.9-2-4.5-4
		c-0.7-2.2,0.5-4.1,1.7-6c7.5-11.8,7.5-23.6,0.1-35.1c-7.1-11.1-17.8-16.2-30.7-14.5c-11.5,1.4-21.2,8.4-25.8,18.6
		c-4.7,10.3-3.5,22.2,3.1,32c0.1,0.2,0.2,0.3,0.4,0.5c0.7,0.9,1.8,2.5,1.3,4.4c-0.5,1.9-2.3,2.9-3.6,3.4
		c-14.8,6.3-22.2,17.8-22.1,34.2c0,5.6,0,11.2,0,16.8C319.8,243.9,319.8,248.7,319.8,253.4z M370.2,136.7L370.2,136.7
		c6.5,0,12.7,2.6,17.3,7.2c4.7,4.7,7.3,10.8,7.3,17.3c0,6.5-2.6,12.6-7.2,17.2c-4.7,4.6-10.8,7.2-17.3,7.2l-0.1,0
		c-6.5,0-12.9-2.8-17.5-7.5c-4.6-4.7-7-10.8-6.9-17.2C346.1,147.6,357,136.8,370.2,136.7z M327.6,249.8c0.2-5.9,0.2-12,0.2-17.9
		c0-3.3,0-7.1,0-10.8c0.1-15.7,9.7-26.2,24.9-27.3c13.8-1,25.9-0.9,37.1,0.2c13,1.3,22.5,11.6,23,25c0.1,3.6,0.1,7.1,0.1,10.6l0,0.9
		c0,0.8,0,1.7,0,2.5l0.1,1.3c0,1.6,0,3.2,0,4.7l0,0.2c-0.1,3.5-0.1,7.2,0.1,10.7c0.2,2.4-0.3,4.1-1.5,5.3c-1.7,1.7-3.9,1.6-5.5,1.5
		l-0.2,0c-0.3,0-0.5,0-0.8,0c-0.3,0-0.6,0-0.8,0c-1.5,0.1-3.6,0.2-5.2-1.4c-1.2-1.2-1.7-2.8-1.6-5.1c0.2-7,0.2-14.2,0.1-21.2
		c0-2.5,0-5,0-7.4c0-2.7-0.6-4.7-1.6-5.7c-0.6-0.6-1.4-0.8-2.4-0.8c-1.2,0-3.9,0.1-3.9,6.7c0,2.3,0,4.6,0,7c0,6.9-0.1,14.1,0.1,21.2
		c0,1.6-0.1,3.7-1.6,5.2c-1.5,1.5-3.5,1.7-5.3,1.6c-8.9-0.2-16.8-0.2-24.4,0c-0.2,0-0.4,0-0.6,0c-1.5,0-3.5-0.2-5-1.6
		c-1.6-1.6-1.7-3.7-1.7-5.4c0.2-7.6,0.2-15.2,0.1-22.6c0-2,0-4,0-6c0-2.4-0.5-4.2-1.5-5.1c-0.6-0.6-1.4-0.9-2.4-0.8
		c-2.6,0.1-3.9,2-3.9,5.8c0,2.2,0,4.4-0.1,6.6c-0.1,7.4-0.1,15,0.2,22.4c0.1,2.4-0.4,4.1-1.6,5.3c-1.6,1.6-3.8,1.6-5.2,1.5l-0.1,0
		c-0.3,0-0.6,0-0.9,0l-0.4,0c-1.8,0.1-4.1,0.1-5.8-1.6C328.1,254,327.5,252.3,327.6,249.8z"/>
	<path class="st0" d="M194.1,135.7c25.7,0.1,52.1,0.1,80.6,0c6.5,0,10.4-3.9,10.4-10.3l0-4c0.1-9.6,0.2-19.5-0.1-29.2
		c-0.4-15.7-7.7-26.8-21.8-32.7c-1.5-0.6-3.3-1.6-3.9-3.6c-0.6-2.1,0.6-3.7,1.4-4.8l0.1-0.1c0.1-0.2,0.2-0.3,0.3-0.4
		c7.4-10.7,7.5-25.3,0.2-36.3C255.5,5.4,245.1,0,234.3,0c-2.4,0-4.8,0.3-7.1,0.8c-12.7,3-22.6,13.7-24.6,26.6
		c-1.4,9.2,1,17.7,7.3,25.9l2.3,3l-4.5,2c-0.7,0.3-1.2,0.5-1.7,0.8c-13.2,5.8-20.5,15.6-21.7,29.2c-0.9,10.4-0.7,21-0.4,31.3
		c0.1,2.3,0.1,4.5,0.1,6.8C184.1,132,188.2,135.7,194.1,135.7z M210.1,32.2c0-13.3,10.9-24.2,24.1-24.4c6.6-0.1,12.7,2.4,17.3,7
		c4.7,4.6,7.3,10.7,7.3,17.3c0,6.6-2.5,12.8-7,17.4c-4.6,4.6-10.7,7.1-17.3,7.1c-6.6,0-12.8-2.5-17.4-7.1
		C212.6,44.9,210.1,38.8,210.1,32.2z M192.1,90.2c1-14.8,10.3-24.2,24.8-25.2c11.9-0.8,23.7-0.8,35.1,0
		c15.3,1.1,24.9,11.6,25.1,27.6c0,3.2,0,6.4,0,9.4l0,0.3c0,1.4,0,2.8,0,4.2c0,1.5,0,3,0,4.4l0,0.2c0,3.5-0.1,7,0.1,10.5
		c0.1,2.2-0.4,3.9-1.6,5c-1.7,1.6-4,1.3-5.4,1.2c-0.3,0-0.6-0.1-0.8-0.1c-0.2,0-0.6,0-0.9,0.1c-0.5,0.1-1.1,0.1-1.7,0.1
		c-1.4,0-2.6-0.4-3.5-1.2c-1.2-1.1-1.8-2.7-1.7-5c0.2-6.5,0.1-13.2,0.1-19.6c0-2.6,0-5.1,0-7.7c0-0.3,0-0.7,0-1c0-1,0-2-0.1-2.8
		c-0.3-2.7-1.9-4.5-4-4.4c-2.3,0.1-3.7,1.8-3.7,4.5c-0.1,6.2-0.1,12.5-0.1,18.6c0,2.4,0,4.9,0,7.3c0,9.9-1.4,11.3-11.1,11.3
		c-1.9,0-3.7,0-5.6,0l-0.1,0c-4.3,0-8.8-0.1-13.1,0.1c-2.4,0.1-4.9,0-6.7-1.8c-1.4-1.4-2-3.4-1.9-6.5c0.3-6.1,0.2-12.4,0.2-18.5
		c0-2.4-0.1-4.8-0.1-7.3v-0.5c0-1.1,0-2.2-0.1-3.2c-0.4-2.5-2-4.1-3.8-3.9c-2.6,0.3-3.8,1.6-3.8,4.1c0,4.6,0,9.1,0,13.7v0.2
		c0,5,0,10.2-0.1,15.3c0,0.2,0.1,0.7,0.1,1c0.2,1.5,0.7,5.6-3.1,6.8c-2.6,0.8-5.3,0.6-7.8,0.3c-0.5,0-0.8-0.1-1.1-0.1
		c-1.1-0.1-3.8-0.8-3.7-5l0-0.3c0-3.2,0-6.4-0.1-9.5C191.7,105.3,191.6,97.7,192.1,90.2z"/>
	<path class="st0" d="M363.9,336.7c-0.4-1.6-1-2.2-2.4-2.2c-0.6,0-1.4,0.1-2.5,0.4c-0.5,0.1-0.8,0.3-0.8,0.4
		c-0.2,0.4,0.1,1.8,0.3,2.7l0.1,0.6c0.7,2.9,2.5,4.8,6.1,6.3c3.2,1.3,6.8,1,10.4,0.5c4.7-0.6,7.7-3.4,8.9-8c1.4-5.6,0.2-8.7-4.4-12
		l-1.8-1.2l1.4-1.7c3-3.7,4.3-8,3.5-11.6c-0.6-2.3-2-4-4.1-5c-5-2.2-10.2-2.1-14.9,0.2c-2.4,1.1-3.7,2.8-4.1,5.2
		c-0.1,0.4-0.2,0.7-0.2,1.1c-0.2,0.8-0.4,1.7-0.3,2.2c0,0.1,0.1,0.3,0.8,0.4c1.3,0.3,3.2,0.7,4,0.2c0.4-0.3,0.7-0.9,0.8-1.8
		c0.9-5,5.5-4.7,7-4.6c3.5,0.2,5.7,2.3,5.8,5.6c0.1,2.5,0.2,7.1-4.8,7.9c-2.5,0.4-2.6,1-2.5,2.2c0.1,1,0.2,1.6,2.6,1.7
		c2.3,0.1,6.1,1.3,6,7.6c0,1.9-0.2,7-5.5,7.4c-0.3,0-0.7,0.1-1,0.1C369.7,341.5,365.1,342,363.9,336.7z"/>
	<path class="st0" d="M237.1,208.9c0-5.5,0-11.1,0-16.6c0-1-0.3-1.8-0.9-2.2c-0.6-0.4-1.5-0.3-2.5,0.1c-1.4,0.7-2.7,1.5-4.1,2.4
		c-0.8,0.5-1.7,1.1-2.5,1.6c-2.2,1.3-2,2.3-1.6,3.2c0.3,0.8,0.4,0.9,2.9,0l3.2-1.1v2.8c0,2.9,0,5.8,0,8.6c0,7.2,0,14.1-0.1,21
		c0,1,0.2,1.4,0.4,1.6c0.3,0.3,1.1,0.5,2.3,0.5c0.8,0,1.8-0.1,2.4-0.4c0.1-0.1,0.5-0.3,0.5-1.6C237.1,222.2,237.1,215.4,237.1,208.9
		z"/>
	<path class="st0" d="M96,304.6c2.1-1.5,4.3-3.1,6.2-4.9c5.3-4.8,6.7-11.3,3.3-15.9c-3.5-4.9-11.4-6.2-17.5-2.9
		c-3.1,1.6-4.6,4-4.8,7.1c-0.2,3.1,0.3,3.5,1.5,3.7c1.3,0.2,2.3,0.1,2.9-0.4c0.5-0.4,0.8-1,0.9-1.9c0.5-3.3,2.5-5.2,5.7-5.5
		c0.3,0,0.6,0,0.9,0c2.3,0,4.1,0.9,5.4,2.7c1.7,2.3,1.6,5-0.3,7.9c-1.1,1.8-2.7,3.1-4.2,4.4c-2.4,2-4.8,3.9-7.2,5.7l-1.5,1.2
		c-3.6,2.8-5.1,6.3-5,11.3c0.1,2.6,1,3.1,3.1,3.2c2.3,0.1,4.6,0.1,6.9,0.1l0.3,0c1,0,2,0,2.9,0l9.7,0c1.7,0,2.2-0.6,2.2-2.3
		c0-0.8-0.1-1.4-0.4-1.7c-0.3-0.3-0.9-0.5-1.8-0.4c-3.6,0.1-7.1,0.1-10.8,0c-0.1,0-0.3,0-0.5,0.1l-0.2,0c-1,0.2-4,0.7-4.8-2.6
		c-0.7-2.6,1.4-4.2,2.5-5.1l0.3-0.3C93.1,306.7,94.5,305.7,96,304.6l0.3,0.4L96,304.6L96,304.6z"/>
</g>
</svg>
