<?xml version="1.0" encoding="utf-8"?>
<!-- Generator: Adobe Illustrator 23.0.1, SVG Export Plug-In . SVG Version: 6.00 Build 0)  -->
<svg version="1.1" id="Layer_1" xmlns="http://www.w3.org/2000/svg" xmlns:xlink="http://www.w3.org/1999/xlink" x="0px" y="0px"
	 viewBox="0 0 322.5 380.8" style="enable-background:new 0 0 322.5 380.8;" xml:space="preserve">
<style type="text/css">
	.st0{fill:#9A9A9A;}
</style>
<path class="st0" d="M322.4,338.9v-0.2c0-4.6,0-9.3,0-13.9c0-0.6,0-1.1,0-1.7c0-1.6,0-3.1-0.1-4.5c-0.2-2-1.3-3.2-3.4-3.4
	c-2.2-0.3-3.6,0.7-4.2,2.8c-0.3,0.9-0.3,2.1-0.3,3.2v0.4c0,11.9,0,24.1,0,35.8l0,15.2h-38.6v-48.3c0-2.5,0-5,0-7.5
	c0-6.5,0-13.2,0-19.9c0-2.5-1.6-4.2-3.9-4.3c-2.3,0-3.9,1.7-4,4.2c-0.1,0.8,0,1.7,0,2.6l0,0c0,0.5,0,0.9,0,1.4v1.6H101.1l0-3.2
	c0-1,0-1.9,0-2.8c0-1.9-0.6-5.1-3.9-5.2c-1.1,0-2,0.3-2.7,0.9c-0.9,0.9-1.5,2.4-1.5,4.2c0,2.4,0,4.8,0,6.9c0,3.5,0,7.1-0.1,10.7
	c0,1.5-0.5,3.6-1.7,5l-5.6,6.9c-10.3,12.6-21,25.6-31.8,38.1c-2.7,3.2-7.1,5.8-12,7.4c-5.4,1.7-10.9,1.1-15.2-1.6
	c-3.5-2.2-5.8-5.7-6.3-9.8c-0.8-5.5-0.6-11.2-0.4-16.7c0.1-2.4,0.2-4.9,0.2-7.3v-1.6h20.4v1.6c0,0.6,0,1.1,0,1.6l0,0.1
	c0,1.1,0,2.2,0,3.3c0.1,2.9,1.6,4.7,3.9,4.7c1.1,0,2.1-0.3,2.8-1c0.8-0.8,1.2-2.1,1.2-3.8c0-4.7,0.4-9.7,3.8-15.2
	c1.4-2.2,1.5-5.2,1.7-8.5c0.1-1.8,0.2-3.6,0.5-5.3c0.4-2.3,0.9-4.8,2.4-6.8c7.4-9.8,15-19.6,22.4-29.2c5.2-6.7,10.5-13.6,15.8-20.5
	c3-3.9,6.7-6.7,11.4-8.4c14.7-5.4,29.9-11.1,46.3-17.3c2.9-1.1,5-0.8,7.3,1c6.7,5.2,13.7,10.4,20.3,15.4l5.7,4.2
	c3.9,2.9,4.6,2.9,8.4,0.1c2.6-1.9,5.1-3.8,7.7-5.8l0.6-0.5c6-4.5,12.2-9.2,18.4-13.8c1.4-1,3.8-1.8,5.7-1.2
	c20.9,6.5,45.2,14,68.9,21.7c11.3,3.6,18.4,13.5,18.6,25.7c0,2.8,0,5.7,0,8.3v0.1c0,2.8,0,5.7,0,8.5c0,1.7,0.5,3,1.3,3.8
	c0.7,0.7,1.6,1,2.8,1c3.1-0.1,3.8-2.6,3.8-4.7c0-3.3,0-6.7,0-9.9l0-3.9c0-19.5-9.1-31.8-27.7-37.6c-9.7-3-19.8-6.2-28.6-9
	c-11.3-3.6-23-7.3-34.6-10.8c-3.3-1-4.5-2.8-4.4-6c0.1-2.6,0.1-5.3,0.1-7.9c0-2.7,0-5.5,0.1-8.2c0.1-2.1,1.1-4.3,2.5-5.5
	c10-8.5,16.4-19.1,19.1-31.5c0.8-3.8,1.3-7.7,1.8-11.7c0.2-1.7,0.4-3.7,0.7-5.6l0.2-1.3l1.4-0.1c0.3,0,0.7,0,1,0
	c0.7,0,1.5,0,2.2-0.1c10.6-1.1,16.8-4.8,19.6-11.8c3.9-9.8,3.7-19.8-0.4-28.2c-2.4-4.8-3.4-9.6-3.3-16l0-1.4c0-1.2,0-2.5,0-3.8
	c-0.1-3-1.6-4.9-4-4.9l-0.1,0c-2.4,0.1-3.8,1.8-3.9,4.7c0,1.8,0,3.7,0,5.5v0.1c0,0.8,0,1.7,0,2.5v1.2l-1.2,0.3
	c-0.2,0.1-0.4,0.1-0.6,0.2c-0.4,0.1-0.8,0.3-1.3,0.3c-6.7,0-13.3,0-20,0H241c-19.1,0-38.9,0-58.3-0.1c-9.5-0.1-17.1-7.6-17.3-17.2
	c-0.3-16.9-0.3-33.8,0-50.3c0.2-9.9,8.1-17.4,18.3-17.5c14.6-0.1,26.8-0.2,39.4,0c18.9,0.3,35.1,13.3,39.4,31.5
	c1,4.1,1.1,8.4,1.3,12.5c0.1,1.7,0.1,3.5,0.3,5.2c0.2,2.7,1.7,4.4,3.9,4.5c1,0.1,1.9-0.3,2.7-0.9c0.9-0.8,1.4-2.1,1.4-3.6
	c0.1-2.6,0.1-5.4,0-8.9c-0.7-26.2-22.5-47.9-48.6-48.3c-13.7-0.2-27.4-0.1-40.1,0c-11.6,0.1-21.6,7.7-25,18.9
	c-0.2,0.7-0.4,1.4-0.7,2.2l-0.7,2.2l-4,0c-1.8,0-3.7,0-5.6,0c-22.2,0.2-38.4,16.4-38.5,38.5c0,9.8-0.1,20.3,0.1,30.7
	c0,3.3-0.3,6.8-2.9,10c-1.3,1.6-2.2,3.9-2.4,6c-0.6,4.8-0.6,9.7-0.7,14.4c0,10.4,5.2,17.3,15.2,20.2c2.1,0.6,4.4,0.9,6.8,1.3
	c1.1,0.2,2.2,0.3,3.4,0.5l1.1,0.2l0.3,1.2c0.1,0.3,0.2,0.7,0.2,1.2c-0.2,19.3,7,35.3,21.5,47.5c1.4,1.2,2,3.5,2,5.1
	c0.1,2.6,0.1,5.3,0.1,7.9v0c0,2.8,0,5.7,0.1,8.5c0.1,3.2-1.1,5-4.2,6.2c-7,2.6-14.1,5.2-20.9,7.8l-0.4,0.2c-7.8,2.9-15.9,6-23.9,8.9
	c-6.3,2.3-11.3,6-15.3,11.2c-6.9,9.1-14,18.3-20.8,27.1l-0.7,0.9c-2.2,2.8-4.4,5.7-6.6,8.5c-0.5,0.7-1.1,1.4-1.8,2.2l-0.2,0.2
	c-0.3,0.4-0.7,0.8-1.1,1.3l-2.9,3.4l0-10.4c0-4,0-7.9,0-11.7c0-4.1-1.2-7.8-3.9-11.1c-1.1-1.4-1.9-3.5-1.9-5.3c-0.1-3-0.1-6.1,0-9
	c0-3.7,0-7.5-0.1-11.2c-0.1-2.7-0.7-5.5-1.8-7.6c-2.9-6.1-9.9-9.5-16.7-8.1c-7.5,1.6-12.4,7.4-12.7,14.8c-0.1,4.4-0.1,9-0.1,13.4
	l0,0.2c0,1.9,0,3.9,0,5.9v1.4l-1.3,0.2c-0.3,0-0.5,0.1-0.7,0.1l-0.1,0c-0.4,0.1-0.8,0.2-1.2,0.2c-9.8,1-14.1,5.5-14.1,15.2
	c0,9,0,18.1,0,27c0,6.1,0,13.1,0,19.9c0,4,0.9,9.3,5.1,11.6c6.6,3.5,6.8,8.7,6.4,14.1c-0.1,1.5-0.1,3,0,4.5c0,0.7,0,1.4,0,2.1
	c0,16.6,6.2,24.9,22.1,29.6c0.3,0.1,0.5,0.2,0.8,0.4h8.1c9.7-2.2,16.1-9,21.1-15.3c5.3-6.8,10.9-13.5,16.4-20l0.1-0.2
	c2.2-2.6,4.4-5.3,6.6-7.9c0.6-0.7,1.2-1.4,2.1-2.3l0.1-0.1c0.4-0.5,0.9-1,1.4-1.5l2.8-3.2v22.9c0,2.1,0,4.1,0,6.2l0,0.1
	c0,5,0.1,10.1-0.1,15.1c-0.1,3,0.7,4.9,2.6,6.3h224.1c2-1.2,2.7-3,2.7-6.2C322.4,362.7,322.4,350.6,322.4,338.9z M251.1,102.2
	l1.2-0.3c5.1-1.3,9.5-0.7,12.7,1.7c3.1,2.4,4.8,6.3,4.8,11.4c0,3,0,5.5,0,7.9c-0.1,9-4.7,13.5-13.6,13.6c-0.4,0-0.7,0-1.1,0l-4,0
	V102.2z M219.1,219.3L219.1,219.3c0,1.3-0.7,3.1-2,4c-6.8,5.2-13.4,10.2-20.5,15.6l-6.3,4.8l-6.1-4.6c-6.9-5.2-14-10.5-21-15.9
	c-0.9-0.7-1.8-2.1-1.8-3.4c-0.1-3.9-0.1-7.6-0.1-11.6l0-6.4l2.3,0.9c16.9,7.1,34.3,7.1,53.3,0l2.2-0.8v2.3c0,1.4,0,2.7,0,4.1
	C219.2,212.2,219.2,215.7,219.1,219.3z M129.7,135.4l-1.2,0.3c-1.8,0.5-3.5,0.8-5.1,0.8c-2.8,0-5.4-0.8-7.5-2.3
	c-3.2-2.4-5-6.4-5-11.3c0-2.7,0-5.5,0-7.9c0-9.3,4.5-13.8,13.7-13.8l2.1,0l2.9,0V135.4z M130.1,93.2c-1.8,0-3.7,0-5.5,0l-7.6,0v-1.6
	c0-3.5-0.1-7.1-0.1-10.5l0-0.1c-0.1-7.9-0.3-15.4,0.3-23c1-14.7,13.4-26.2,28.7-26.6c2.1-0.1,4.2,0,6.4,0l0,0c1,0,2.1,0,3.1,0h1.6
	l0.1,1.5c0,0.5,0,0.9,0.1,1.4l0,0.1c0.1,1,0.1,1.8,0.1,2.6l0,7.9c0,9.2,0,18.7,0,28.1c-0.1,12.8-7.4,20.1-20.3,20.2
	C134.7,93.2,132.4,93.2,130.1,93.2z M138.1,154.4c-0.5-11.8-0.4-23.8-0.3-35.4c0-4.9,0.1-9.9,0.1-14.9c0-0.5,0.1-0.9,0.3-1.3l0,0
	c0-0.1,0.1-0.2,0.1-0.4l0.3-1.1l1.1-0.1c8.1-0.6,14.7-4,19.7-10.1l0.5-0.7l0.9,0.1c0.1,0,0.1,0,0.2,0l0,0c0.4,0,1.1,0,1.7,0.6
	c6.1,7.1,14.1,10.3,25.1,10c12.3-0.3,24.8-0.2,36.9-0.1c5.1,0,10.4,0,15.7,0h1.2l0.4,1.1c0.1,0.2,0.1,0.3,0.2,0.5l0,0
	c0.2,0.5,0.4,1.1,0.4,1.8c0,4.8,0,9.7,0.1,14.4c0.1,11.3,0.2,22.9-0.3,34.4c-0.9,21.5-13.7,37.2-35,43c-6,1.6-12,2.5-17.7,2.5
	c-10.3,0-20.3-2.7-29.4-8C146.4,182.9,138.7,170.3,138.1,154.4z M25.4,235.8c0.1-4.5,3.4-7.9,7.6-7.9h0.1c4.3,0,7.4,3.4,7.5,8
	c0.1,4.3,0.1,8.5,0,12.9v0c0,1.9,0,3.7,0,5.6v1.6H25.4v-1.6c0-1.9,0-3.8,0-5.7C25.4,244.3,25.4,240.1,25.4,235.8z M16.7,326.3
	c-6.2,0-8.7-2.6-8.7-8.9c0-15.9,0-30.4,0-44.2c0-6.1,2.5-8.6,8.5-8.7c6.6,0,13.3,0,19.3,0l1.4,0c7,0,9.4,2.4,9.4,9.4l0,2.6l0,3.3
	h-1.6c-1.4,0-2.8,0-4.2,0l-1.1,0c-4,0-7.8,0-11.6,0c-2,0-4.5,0.6-4.7,3.5c-0.1,1.2,0.2,2.2,0.9,3c0.8,0.9,2.2,1.4,3.9,1.5
	c3.7,0.1,7.2,0.1,11.1,0l0.4,0c1.7,0,3.4,0,5.1,0h1.6V303l-6.6,0c-3.8,0-7.5,0-11.1,0c-2,0-3.5,0.5-4.3,1.3
	c-0.6,0.6-0.9,1.5-0.9,2.6c0,3.3,2.9,4,5.3,4c3.6,0,7.4,0,10.9,0l1,0c1.3,0,2.6,0,3.9,0h1.1l0.4,1c0.1,0.2,0.2,0.4,0.2,0.5
	c0.1,0.3,0.3,0.6,0.3,1.1c0.3,5.1,0.2,8.3-1.7,10.3c-1.9,2-5,2.4-10,2.4l-5.3,0c-1.8,0-3.5,0-5.3,0
	C21.2,326.3,18.9,326.3,16.7,326.3z M267.7,372.5H101.4v-15l19.9,0c7.2,0,14.9,0,22.5,0c1.9,0,3.4-0.5,4.3-1.4c0.6-0.7,1-1.6,1-2.7
	c0-3.3-2.9-3.9-5.3-3.9c-9.7,0-19.6,0-29.1,0l-13.2,0V311h166.2v38.6l-94.7,0c-0.3,0-0.6,0-0.9,0l-0.1,0c-0.8,0-1.5,0-2.2,0
	c-2.4,0.2-3.9,1.7-3.9,4c0,2.2,1.5,3.8,3.9,4c0.7,0.1,1.5,0.1,2.2,0c0.3,0,0.7,0,1,0l94.7,0V372.5z"/>
<path class="st0" d="M16.8,194.5c7.1,0.1,14.1,0,21,0l0.4,0c2.4,0,4.9,0,7.3,0h0.1c6.2,0,12.5,0.1,18.7-0.3
	c7.6-0.5,13.3-6.6,13.6-14.7c0-1.4,0-2.8,0-4.3c0-0.8,0-1.6,0-2.4v-1.6l3.4,0c0.9,0,1.7,0,2.6,0c1.3,0,2.7,0,3.9,0h0.6
	c3.4,0,6.9,0,10.3-0.3c1.5-0.1,2.5-0.7,2.9-1.5c0.5-0.9,0.2-2.2-0.6-3.6c-0.6-1-1.5-1.9-2.4-2.9l-3.2-3.2
	c-4.7-4.8-9.6-9.8-14.5-14.6c-2.2-2.2-3.2-4.4-3.1-7.4c0.1-7.8,0.1-15.8,0.1-23.5l0-5c0-10.3-6.1-16.4-16.3-16.5
	c-7.3-0.1-14.6-0.1-22.3-0.1c-7.2,0-14.9,0-22.7,0.1C6.1,92.8,0,98.9,0,109.4c0,21.7,0,44,0,68.2C0,188.4,6,194.4,16.8,194.5z
	 M8,108.6L8,108.6c0-5,2.7-7.7,7.6-7.7c15.4-0.1,31.1-0.1,46.5,0c3.5,0,7.7,1.4,7.7,8c0.1,10,0.1,21.4,0,32.6c0,2.8,0.8,4.7,2.6,6.4
	c2.9,2.6,5.7,5.3,8.4,7.9c1.2,1.1,2.3,2.2,3.5,3.3l0.9,0.9l-1.7,3.2h-1c-0.8,0-1.5,0-2.3,0c-1.5,0-3.3,0-5,0
	c-4.3,0.1-5.4,1.3-5.5,5.4c0,1.4,0,2.8,0,4.2l0,0.1c0,1.8,0,3.6,0,5.5c-0.1,6.6-4.3,8-7.7,8.1c-7.6,0.1-15.3,0.1-23,0.1
	c-7.9,0-15.8,0-23.5-0.1c-4.9,0-7.6-2.8-7.6-7.8C8,155.4,8,131.8,8,108.6z"/>
<path class="st0" d="M190.3,173.8c4.7,0,9.3-1.9,12.7-5.2c3.4-3.3,5.4-7.7,5.4-12.2c0-2.7-1.3-4.5-3.6-4.7c-2.1-0.2-3.9,1.4-4.4,3.9
	c-1.2,6.7-4.5,10-9.9,10.1c0,0-0.1,0-0.1,0c-3.8,0-8.5-1.7-10.1-9.9c-0.6-2.9-2.2-4.5-4.5-4.2c-3.2,0.4-3.5,3.4-3.4,5.2
	C172.8,166.3,180.8,173.8,190.3,173.8z"/>
<path class="st0" d="M210.7,125.2c0.2,2.4,1.3,3.6,3.6,3.8c2.4,0.2,3.8-1,4.1-3.2c0.4-3,0.4-6.1,0-8.9c-0.4-2.9-2.8-3.2-4.2-3
	c-2.2,0.2-3.3,1.4-3.5,3.6c-0.1,0.8,0,1.5,0,2.4c0,0.4,0,0.8,0,1.2l0,1.5C210.7,123.6,210.7,124.4,210.7,125.2z"/>
<path class="st0" d="M166.2,129.1C166.2,129.1,166.2,129.1,166.2,129.1c2.2,0,3.7-1.5,3.9-3.9c0.1-0.8,0-1.6,0-2.4
	c0-0.4,0-0.8,0-1.2c0-0.4,0-0.8,0-1.2c0-0.9,0-1.7,0-2.4c-0.2-2.4-1.6-3.9-3.9-4l-0.1,0c-2.2,0-3.8,1.5-3.9,3.7
	c-0.2,2.5-0.2,5,0,7.6C162.4,127.5,164,129.1,166.2,129.1z"/>
<path class="st0" d="M29.7,157.4c2.4,2.3,4.4,2.4,6.6,0.2c8.1-8,16-16,22.7-22.7c1.8-1.8,1.9-3.6,0.3-5.6c-0.7-0.8-1.6-1.3-2.5-1.4
	c-1.3-0.1-2.7,0.6-3.9,1.8c-4.3,4.2-8.5,8.5-13,13l-0.1,0.1c-1.9,1.9-3.8,3.8-5.7,5.8l-1.2,1.2l-1.2-1.2c-0.7-0.8-1.5-1.6-2.1-2.3
	l-0.1-0.2c-1.6-1.7-3-3.3-4.6-4.8c-1.2-1.2-2.4-1.8-3.6-1.8l0,0c-0.9,0-1.8,0.4-2.6,1.3c-2.2,2.3-0.9,4.5,0.5,6
	C22.8,150.7,26.2,154.1,29.7,157.4z"/>
</svg>
