<?xml version="1.0" encoding="utf-8"?>
<!-- Generator: Adobe Illustrator 23.0.1, SVG Export Plug-In . SVG Version: 6.00 Build 0)  -->
<svg version="1.1" id="Layer_1" xmlns="http://www.w3.org/2000/svg" xmlns:xlink="http://www.w3.org/1999/xlink" x="0px" y="0px"
	 viewBox="0 0 325.5 380.8" style="enable-background:new 0 0 325.5 380.8;" xml:space="preserve">
<style type="text/css">
	.st0{fill:#9A9A9A;}
</style>
<path class="st0" d="M325.3,140.5c-0.1-5.3-4.3-9.2-9.9-9.2c-6.3-0.1-12.7,0-18.9,0c-2.7,0-5.4,0-8.1,0h-6.3l0.2-1.9
	c1.4-11.3-0.8-20.7-6.7-28.6c-6.2-8.2-14.5-13-25.4-14.7l-1.4-0.2l0-5.8c0-3.4,0-6.8,0-10.2c0-7.8,0.1-15.9-0.1-23.9
	c-0.2-7.7-3.8-13.1-10.8-16c-7-2.8-13.2-1.6-18.2,3.6c-3.4,3.5-7.2,5.6-10.9,7.3c-0.5,0.2-1,0.5-1.5,0.7c-1.3,0.6-2.6,1.1-3.8,1.8
	c-2.1,1.2-2.8,3.2-1.7,5.2c1.1,2.1,2.7,2.7,5,1.9c1-0.3,2-0.8,3.2-1.3c0.6-0.3,1.2-0.5,1.9-0.8l2.3-0.9l0,16.9c0,8.2,0,16.4,0,24.6
	c0,6.3,1.9,6.8,3.9,6.9c1.6,0,2.2-0.4,2.6-0.8c1-0.9,1.5-3,1.5-6.2c0-4.3,0-8.6,0-12.9c0-9.5,0-19.4,0-29.1c0-3.2,1.1-6,3-7.8
	c1.7-1.6,4-2.5,6.5-2.5c5.3,0.1,9,4.2,9.1,10.2c0,0.5,0,0.9,0,1.4l0,0.5l0,82.3H222v-1.6c0-1.4,0-2.8,0.1-4.1
	c0.1-3.3,0.1-6.4-0.2-9.4c-0.1-1.1-1.6-2.9-2.9-3.4c-0.6-0.3-2.7,0.2-3.5,1c-0.7,0.7-1.2,2.3-1.3,4.3c-0.2,2.7-0.1,5.5-0.1,8.2
	c0,1.1,0,2.3,0,3.4v1.6h-27.4l0-28.2c0-18.6,0-37.3,0-55.9c0-7.4-2.6-10-9.9-10c-4.7,0-9.4,0-14.3,0l-8.2,0v-5.7c0-2.3,0-4.6,0-6.9
	c0-5.2,0-10.6,0-16c-0.1-4.9-3-8.1-7.5-8.2c-7.9-0.2-16.2-0.2-25.4,0c-3.9,0.1-7,2.7-7.2,6.1c-0.4,6.9-0.3,13.6-0.1,19.3
	c0.1,2.8,2.6,3.1,3.7,3.2c1.4,0,3.2-0.4,3.8-2.9c0.3-1.3,0.3-2.6,0.3-4.1l0-0.4c0-2.7,0-5.4,0-8.1l0-4.9h24.3v122.8h-24.3l0-20.1
	c0-19.6,0-39.3,0-58.9v-0.2c0-1.4,0-2.7-0.3-3.9c-0.5-2.2-1.8-3.1-4-3c-2.1,0.1-3.2,1.2-3.5,3.2c-0.2,1-0.1,2.1-0.1,3.2l0,0.6
	c0,19.8,0,39.5,0,59.3V131H81.6v-1.6c0-1.5,0-3,0-4.5c0-3.3,0-6.3,0-9.4c-0.4-12.8,4.8-22.7,15.3-29.6c1-0.7,2.1-2.6,2.2-3.9
	c0.1-1.3-0.5-2.4-1.5-3c-1.4-0.8-3.3-0.7-5,0.4c-11.8,7.4-18.2,18.2-18.9,32.1c-0.2,4-0.1,8.2-0.1,12.2c0,1.9,0,3.8,0,5.7v1.6H56.5
	V43.4h24.4v1.6c0,1.7,0,3.3,0,5c0,3.9,0,7.5,0,11.2c0,1.5,0.4,5,3.9,5c0,0,0,0,0,0c2.5,0,4-1.9,4-5c0.1-5.2,0.2-11.3,0-17.2
	c-0.2-5.7-3.3-8.8-9.1-8.8c-4.8,0-9.6,0-14.4,0l-5.8,0c-8.6,0-11.2,2.6-11.2,11.1c0,18.7,0,37.5,0,56.2l0,28.6l-12.8,0
	c-8.5,0-16.8,0-25.1,0c-6.3,0-10.3,4-10.3,10.3c0,2.8,0,5.7,0,8.5c0,4.1,0,8.4-0.1,12.5c-0.1,3.7,1.1,6.7,3.8,9.6
	C15.6,185,27.5,198,39,210.5c4.9,5.3,9.7,10.6,14.6,15.9l0.2,0.3c0.6,0.6,1.1,1.2,1.6,1.6c1.7,1.2,3.3,1.1,4.9-0.2
	c1.5-1.3,1.8-2.9,0.8-4.9c-0.3-0.6-0.8-1.2-1.4-1.8l-0.4-0.4c-8.8-9.6-17.6-19.1-26.3-28.7l-16.5-18c-0.5-0.6-1-1.1-1.6-1.8
	c-0.3-0.3-0.6-0.7-0.9-1.1l-2.3-2.7h302.1l-2.3,2.7c-0.3,0.4-0.6,0.7-0.9,1c-0.5,0.6-0.9,1.1-1.4,1.6L294,190.5
	c-34.6,37.7-70.4,76.6-105.6,114.8c-2.1,2.3-3,4.5-2.9,7.6c0.1,13.1,0.1,26.5,0.1,39.4c0,4.5,0,9,0,13.5v6.8l-2.2-0.9
	c-0.3-0.1-0.6-0.2-0.9-0.3c-0.5-0.2-1-0.3-1.4-0.6l-6.7-3.6c-10.3-5.4-20.9-11.1-31.3-16.7c-1.8-1-3-3.6-3-5.5
	c-0.1-4.7-0.1-9.4-0.1-14c0-6.1,0-12.4-0.2-18.6c-0.1-2.3-1.1-5-2.5-6.6c-13.2-14.6-26.8-29.4-39.9-43.6c-3.6-3.9-7.2-7.8-10.7-11.7
	c-0.9-1-1.8-2-2.6-3c-2.2-2.5-4.5-5.1-7-7.2c-1-0.9-3.4-1.3-4.7-0.9c-0.6,0.2-1.9,2.1-2,3.4c-0.1,0.8,0.8,2.4,2.2,3.9
	c8,8.8,16.1,17.6,24.1,26.3c10.7,11.7,21.7,23.7,32.6,35.6c1.6,1.7,2.7,4.5,2.7,7c0.2,10.7,0.3,21,0,30.8c-0.1,5.1,1.8,8.3,6.5,10.7
	c10.8,5.6,21.6,11.4,32.1,17c4.1,2.2,8.1,4.3,12.2,6.5h4.5c4.6-2.2,6.6-5.7,6.5-11.8c-0.3-17.8-0.2-35.4,0-53.3c0-2.3,1-5,2.5-6.7
	c11-12.1,22.2-24.4,33.1-36.2c3.4-3.7,6.8-7.4,10.2-11.1l15.7-17.1c21.7-23.6,44.1-48,66.1-72.1c2.2-2.4,3.7-5.4,3.9-7.8
	c0.5-7.5,0.4-15.1,0.2-22.6L325.3,140.5z M248.7,94.2l1.9,0.3c8.5,1.3,15.9,6.4,20.4,13.9c4.1,6.8,5,14.7,2.5,21.5l-0.4,1.1h-24.4
	V94.2z M154.5,45h23.9V131h-23.9V45z M317.3,160.1H8.3v-20.6h309V160.1z"/>
</svg>
