<?xml version="1.0" encoding="utf-8"?>
<!-- Generator: Adobe Illustrator 23.0.1, SVG Export Plug-In . SVG Version: 6.00 Build 0)  -->
<svg version="1.1" id="Layer_1" xmlns="http://www.w3.org/2000/svg" xmlns:xlink="http://www.w3.org/1999/xlink" x="0px" y="0px"
	 viewBox="0 0 379.5 338.3" style="enable-background:new 0 0 379.5 338.3;" xml:space="preserve">
<style type="text/css">
	.st0{fill:#9A9A9A;}
</style>
<path class="st0" d="M379.5,17.6c-0.3-8.1-5.6-14.9-13.2-16.8c-2.5-0.6-5.3-0.7-8-0.7C241.7,0,127.9,0,21.2,0c-1.5,0-3.3,0-5,0.2
	C9,1,4,4.8,1.2,11.8c-0.3,0.7-0.6,1.4-0.9,2.1L0,14.4v254.2c3.1,10.4,10.1,14.9,22.6,14.8c28.8-0.3,58.1-0.2,86.5-0.2l0.3,0
	c11.3,0,22.6,0,34,0h6l0.4,1.8c0.1,0.3,0.1,0.5,0.1,0.6c0.1,0.5,0.2,0.9,0.1,1.4l-0.7,5.9c-1.3,10.8-2.6,21.9-4.1,32.8
	c-0.3,2.3-3.6,3.9-5.2,3.9c-3.8,0.1-7.8,0.1-11.3,0.1c-1.1,0-2.2,0-3.3,0c-0.9,0-1.8,0-2.7,0c-5.7,0-5.8,3.2-5.8,4.2
	c0,1.2,0.3,2.2,1,2.9c0.9,0.9,2.5,1.4,4.6,1.4c44.4,0,89.7,0,134.6,0c3.6,0,5.4-1.4,5.4-4.1c0-1.2-0.3-2.2-1-2.9
	c-0.9-0.9-2.5-1.4-4.6-1.5c-5.5-0.1-11.3-0.1-17.2,0c-2.3,0-5.4-0.4-5.9-5c-0.5-4.9-1.1-9.9-1.8-14.7c-0.3-2.7-0.7-5.3-1-8
	c-0.5-3.7-0.9-7.4-1.3-11.2c-0.2-1.7-0.4-3.5-0.6-5.3l-0.3-2.5h29.1c33.7,0,67.4,0,101.1,0h0.2c2,0,4.1,0,6-0.4
	c8.8-2,14.1-9.1,14.1-19c0-66.1,0-132.2,0-198.3l0-46.2C379.5,18.7,379.5,18.1,379.5,17.6z M153.3,329.6l5.8-46.1h61.3l5.8,46.1
	H153.3z M371.2,261.9c0,10.1-2.9,13.1-13,13.1H21c-9.6,0-12.7-3.1-12.7-12.7V21.1c0-9.6,3.1-12.6,12.7-12.6l202.4,0l134.7,0
	c10.1,0,13.1,2.9,13.1,13V261.9z"/>
<path class="st0" d="M90,191.8c-1-3.3-0.4-5.6,2.1-8c13.8-13.3,28.3-27.4,45.7-44.4c1.5-1.5,3.5-2.8,6.9-1.5
	c5.7,2.2,11.2,1.4,16.3-2.2c2.5-1.8,4.7-2,7.4-0.5c14,7.5,26.4,14.1,38,20.2c3.1,1.6,4.3,3.6,4.3,7.1c0.1,7.7,3.8,13.4,10.9,16.4
	c6.8,2.9,13.3,1.8,18.8-3.2c5.8-5.3,7.4-11.7,4.9-19.1c-1.1-3.1-0.6-5.4,1.7-7.8c15.3-16.1,31.1-32.7,46.8-49.6
	c2.3-2.5,4.6-3.1,7.8-2.1c2.1,0.7,4.6,0.9,6.8,0.6c5.2-0.7,9.7-3.3,12.6-7.4c2.9-4.1,3.9-9.1,2.8-14.3c-1-4.7-3.9-8.8-8.1-11.3
	c-4.3-2.6-9.5-3.3-14.4-2c-4.8,1.4-8.6,4.5-10.8,8.8c-2.3,4.5-2.6,9.8-0.8,14.8c0.9,2.6,0.6,4.6-1.3,6.5
	c-15.2,16-30.8,32.5-47.9,50.7c-2,2.2-4.1,2.7-6.8,1.8c-5.8-1.8-11-1-15.7,2.6c-3,2.3-5.4,1.4-7.4,0.3c-12.2-6.5-25.2-13.4-38-20.1
	c-2.2-1.1-4.2-2.8-4.2-6.8c0-7.7-3.5-13.2-10.4-16.4c-6.9-3.2-13.5-2.2-19.2,2.8c-5.7,5.1-7.5,11.4-5.2,18.7c1.1,3.7-0.3,5.7-2,7.4
	c-15.8,15.3-30.1,29.1-44.6,43.3c-2.3,2.3-5.3,4.4-9.9,2.3c-0.7-0.3-1.7-0.4-2.8-0.6c-0.5-0.1-0.9-0.1-1.4-0.2
	c-0.5,0.1-0.9,0.1-1.4,0.2c-1.2,0.1-2.2,0.3-3.2,0.5c-9.8,2.6-15.4,12.2-12.9,21.9c1.2,4.6,4.2,8.4,8.4,10.8
	c4.2,2.4,9.1,3.1,13.7,1.8c4.7-1.3,8.6-4.4,10.9-8.6C90.9,201.2,91.4,196.4,90,191.8z M306.6,70.3l0.2,0c2.5,0.1,4.9,1.1,6.7,3
	c1.8,1.9,2.7,4.4,2.6,7c-0.2,5-4.4,9.1-9.4,9.1l-0.2,0c-2.5-0.1-5-1.2-6.8-3.1c-1.8-1.9-2.7-4.4-2.6-6.9
	C297.3,74.5,301.6,70.3,306.6,70.3z M222,155.5c1.9-1.8,4.3-2.8,6.9-2.8c5,0.1,9.3,4.5,9.3,9.5c0,5.1-4.1,9.4-9.3,9.5l-0.3,0
	c0,0,0,0,0,0c-2.4,0-4.9-1-6.7-2.7c-1.9-1.8-2.9-4.2-2.9-6.8C219.1,159.8,220.2,157.4,222,155.5z M150.6,111.5
	c2.5-0.1,5,0.9,6.8,2.8c1.9,1.8,2.9,4.3,2.9,6.8c0,5.1-4.2,9.3-9.4,9.5l-0.2,0c-2.4,0-4.9-1-6.6-2.8c-1.8-1.8-2.9-4.3-2.9-6.8
	C141.3,116,145.6,111.6,150.6,111.5z M72.9,206.1L72.9,206.1c-5.3,0-9.3-4-9.5-9.2c-0.1-2.6,0.9-5.1,2.7-6.9
	c1.8-1.8,4.2-2.8,6.8-2.8c2.6,0,5,1,6.9,2.9c1.8,1.9,2.8,4.3,2.7,6.8C82.3,202.1,78.1,206.1,72.9,206.1z"/>
<path class="st0" d="M346.5,27.5c-6.6-0.1-12.5-0.1-18.3,0c-1.9,0-5,0.6-5.1,4.1c0,1.2,0.3,2.2,0.9,2.9c0.8,0.9,2.3,1.3,4.2,1.4
	c2.9,0,5.8,0,8.8,0c1.3,0,2.7,0,4.1,0h2.3v204.7h-26.5c-77.9,0-155.7,0-233.6,0c-0.3,0-0.6,0-0.9,0c-0.3,0-0.6,0-0.8,0
	c-0.9,0-1.8,0-2.5,0.2c-2.3,0.6-3.4,1.9-3.3,4.3c0.1,2.1,1.4,3.5,3.7,3.8c1,0.1,2.1,0.1,3.2,0.1l0.6,0c87.1,0,174.2,0,261.3,0
	c6.9,0,7.4-0.5,7.4-7.3l0-184.8c0-2.4,0-4.7,0-7.1v-0.2c0-5.5,0-11.1,0-16.7C351.9,28.8,350.6,27.5,346.5,27.5z"/>
<path class="st0" d="M52.8,240.6L52.8,240.6c-0.9-0.2-1.9-0.1-3-0.1l-1.1,0c-2.4,0-4.9,0-7.3,0l-5.3,0V35.9l260.5,0
	c1.1,0,2.2,0,3.2-0.1c2.5-0.2,4-1.7,4.1-4c0-2.3-1.5-4-4-4.2c-0.9-0.1-1.8-0.1-2.8-0.1c-0.4,0-0.7,0-1.1,0l-260.6,0
	c-7.3,0-7.9,0.5-7.9,7.7l0,206.2l0,0.8c0,0.8,0,1.6,0,2.4c0.2,2.8,1.4,4.1,3.9,4.2c7,0.2,14.1,0.2,21.2,0c2.2-0.1,3.6-1.5,3.7-3.9
	C56.4,242.7,55.1,241,52.8,240.6z"/>
<path class="st0" d="M310.7,123.5c0-1,0-2-0.1-2.9c-0.3-2.2-1.4-3.3-3.6-3.6c-0.2,0-0.4,0-0.6,0c-1.8,0-3,0.9-3.6,2.8
	c-0.4,1.1-0.4,2.4-0.4,3.7c0,11.5,0,22.9,0,34.4l0,56.3c0,7.3,2.8,7.3,4.2,7.4c1.1,0,2-0.3,2.6-0.8c1.1-1,1.6-3.3,1.6-6.3
	c0-30.1,0-60.2,0-90.3L310.7,123.5z"/>
<path class="st0" d="M146.6,189.4c0,2.5,0,5,0,7.5l0,0.5c0,6.3,0,12.8,0.1,19.3c0,2.8,1.6,4.7,4.1,4.7c0,0,0,0,0,0
	c1.1,0,2.1-0.4,2.9-1.1c0.8-0.8,1.3-2,1.3-3.4c0.1-17.2,0.2-35.7-0.1-54.3c0-1.2-1.2-3.2-2.3-3.9c-0.6-0.4-1.3-0.7-2-0.7
	c-0.5,0-1,0.1-1.5,0.4c-1.5,0.8-2.4,2.5-2.4,4.5c-0.1,6.2-0.1,12.6-0.1,18.7C146.6,184.2,146.6,186.8,146.6,189.4z"/>
<path class="st0" d="M232.9,208.5c0-1.5,0-3,0-4.5c0-0.3,0-0.5-0.1-0.8c-0.3-2.3-1.9-3.9-3.8-3.9l-0.1,0c-1.4,0.1-3.9,0.5-4.1,3.2
	c-0.4,5.2-0.4,10.5,0,15.7c0.2,2.6,2.7,3.1,4.1,3.2c0,0,0.1,0,0.1,0c2,0,3.6-1.6,3.8-3.8c0.1-1.5,0.1-3,0.1-4.6c0-0.8,0-1.5,0-2.3
	L232.9,208.5L232.9,208.5z"/>
</svg>
