<?xml version="1.0" encoding="utf-8"?>
<!-- Generator: Adobe Illustrator 23.0.1, SVG Export Plug-In . SVG Version: 6.00 Build 0)  -->
<svg version="1.1" id="Layer_1" xmlns="http://www.w3.org/2000/svg" xmlns:xlink="http://www.w3.org/1999/xlink" x="0px" y="0px"
	 viewBox="0 0 368.5 381" style="enable-background:new 0 0 368.5 381;" xml:space="preserve">
<style type="text/css">
	.st0{fill:#9A9A9A;}
</style>
<g>
	<path class="st0" d="M362.3,233.3c-3.1-3.3-6.4-6.6-9.7-9.7l-1.1-1.1c-1.4-1.4-2.8-2.1-4.1-2c-1,0-1.8,0.4-2.6,1.2
		c-1.2,1.2-2.4,3.3,1.1,6.8c1.4,1.4,2.8,2.8,4.2,4.2c2.2,2.2,4.5,4.5,6.7,6.8c3.5,3.7,4.5,8.3,2.9,13.3c-1.6,4.9-5.2,7.9-10.5,8.7
		c-4.4,0.7-8.4-0.7-12.1-4.5c-9.2-9.2-18.5-18.5-27.7-27.7l-15-15c-0.4-0.4-0.7-0.8-1.1-1.2c-0.1-0.2-0.3-0.3-0.4-0.5l1.1-1.3
		l-0.1-0.1l17.5-17.3l2.8,2.8c2.9,2.9,6.3,6.3,9.8,9.8c2.2,2.2,4.1,3.4,5.6,3.4c0,0,0,0,0,0c0.9,0,1.6-0.4,2.5-1.2
		c1.4-1.4,2.4-3.3-2.4-8.1c-1.2-1.2-2.3-2.3-3.4-3.5c-2.7-2.8-5.6-5.7-8.5-8.3c-2.7-2.5-2.5-4.8-1.2-7.5
		c12.5-26.7,11.3-53.1-3.5-78.5c-1.2-2.1-1.9-4.7-1.9-7C311,85.3,311,74.4,311,64c0-4.4,0-8.7,0-13.1c0-11.4-6.5-17.9-17.8-17.9
		c-2.7,0-5.5,0-8.3,0l-5.7,0l0-5.8c0-3.1,0-6,0-8.9C279.2,6.4,272.9,0,261,0c-50.6,0-101.2,0-151.9,0c-0.3,0-0.6,0-1,0
		c-0.8,0-1.5,0-2.2,0.1c-2.5,0.4-3.7,1.7-3.7,4.1c0,2.4,1.2,3.7,3.7,4.1c0.8,0.1,1.6,0.1,2.5,0.1c0.4,0,0.7,0,1.1,0l150,0
		c0.3,0,0.7,0,1,0c0.9,0,1.9,0,2.9,0.1c4.4,0.4,7.1,3.1,7.3,7c0.2,3.7,0.2,7.3,0.1,11.1c0,1.6,0,3.3,0,5V33H239
		c-62.9,0-125.8,0-188.8,0h-0.4c-1.8,0-3.6,0-5.3,0.4C36.4,35.2,32,41.5,32,51.1c0,73.7,0,147.3,0,221l0,67.7h-1.5
		c-1.6,0-3.1,0-4.7,0c-3.4,0-6.6,0-9.9-0.1c-4-0.1-6.8-2.6-7.5-6.8c-0.2-1.2-0.2-2.4-0.2-3.6l0-0.8c0-95.6,0-191.3,0-286.9l0-22.7
		c0-0.5,0-1.1,0-1.6c0.2-6.1,3.1-9,9.1-9c4.5,0,9,0,13.4,0l17.8,0c10.1,0,20.2,0,30.3,0c2.1,0,3.9-0.7,4.7-2c0.7-1,0.8-2.2,0.2-3.5
		c-0.8-2-2.2-2.7-5.3-2.7c0,0,0,0,0,0C67.1,0,55.7,0,44.3,0c-9,0-17.9,0-26.9,0C6.7,0.1,0,6.6,0,17.2c0,100.4,0,202.9,0,313.5
		c0,10.8,6.6,17.3,17.6,17.3c2.8,0,5.7,0,8.6,0l5.7,0v1.5c0,1.5,0,3,0,4.4c-0.1,3.2-0.1,6.2,0.1,9.1c0.2,2.7,0.6,6.3,1.9,9.3
		c2,4.9,6.8,7.1,11.2,8.6H298c10.7-4.6,13.1-8.2,13.1-20.2V242.7l2.6,2.6c2.1,2.1,4.1,4.1,6,6c4.2,4.2,8.1,8.1,12.1,12
		c8.9,8.6,22,8.8,30.5,0.3C370.6,255.3,370.6,242.2,362.3,233.3z M316.9,145.2c0,19.5-7.7,37.9-21.6,51.7
		c-13.9,13.8-32.2,21.4-51.7,21.4c0,0-0.1,0-0.1,0c-19.2,0-37.3-7.7-51-21.5c-13.6-13.8-21.1-32.1-21.1-51.5
		c0-19.5,7.6-37.8,21.3-51.4c13.7-13.6,31.9-21.1,51.4-21.1c0,0,0.1,0,0.1,0C284.3,72.8,316.9,105.3,316.9,145.2z M302.8,363.4
		c0,6.5-2.9,9.4-9.5,9.4c-39.6,0-79.3,0-118.9,0c-41.6,0-83.2,0-124.8,0c-6.6,0-9.4-2.8-9.4-9.5c0-104.2,0-208.5,0-312.7
		c0-6.5,2.8-9.3,9.5-9.3c81.2,0,162.5,0,243.7,0c6.6,0,9.4,2.8,9.4,9.5c0,7.4,0,14.8,0,22.3l0,14.4l-2.3-1.5c-2.3-1.5-4.6-3-6.8-4.5
		c-4.9-3.3-9.5-6.4-14.5-8.9c-23-11.4-49.5-11-72.5,1.1c-23.2,12.1-38.7,33.8-42.6,59.4c-3.6,24,3.4,48.2,19.4,66.2
		c15.8,17.9,38.7,27.8,62.7,27.2c12.2-0.3,23.6-3.2,33.9-8.5c3-1.6,5.2-1.2,7.5,1.3c2,2.2,4.2,4.3,6.3,6.4c2.2,2.2,4.4,4.4,6.6,6.7
		c1.4,1.5,2.3,3.7,2.3,5.5C302.8,280,302.8,322.4,302.8,363.4z"/>
	<path class="st0" d="M238.6,345.7c-0.8-0.1-1.6-0.1-2.5-0.1l-0.8,0l-11.6,0c-13.6,0-27.7,0-41.6,0.1c-3.1,0-4.8-1.1-5.9-3.9
		c-1.4-3.7-2.6-6.5-4-9.1c-1.8-3.5-0.5-5.6,1.3-7.5c13.5-14.1,19.4-30.7,17.6-49.3c-0.4-4.4-1.4-8.8-2.5-13.4
		c-0.5-2.1-1-4.3-1.5-6.5l-0.4-1.8h32.8c2.1,0,4.2,0,6.3,0c5.1,0,10.3,0,15.5,0c3,0,4.6-1.5,4.6-4.1c0-2.5-1.7-4-4.7-4.1
		c-0.6,0-1.2,0-1.7,0l-0.8,0l-12.1,0c-13.7,0-27.9,0-41.9,0c0,0,0,0-0.1,0c-2.1,0-4.2-0.4-6.2-2.8c-16-20.4-42-29.2-66.3-22.4
		c-25.1,7-42.6,27.5-45.8,53.7c-2.4,19.6,5,39.4,19.9,53.1c15,13.8,34.7,19.4,54.1,15.3c5.1-1.1,10-2.9,15.2-4.9
		c2.4-0.9,4.8-1.8,7.3-2.6l1.3-0.4l0.6,1.2c0.5,1.1,1.1,2.3,1.6,3.5c1.3,2.9,2.9,6.2,4.1,9.5c1.3,3.4,3.2,4.6,7.2,4.6
		c13.4-0.1,27-0.1,40.1-0.1c6,0,12,0,18,0h0.2c1.1,0,2.2,0,3.1-0.2c2.3-0.6,3.3-2,3.1-4.3C242.1,347.1,240.9,345.9,238.6,345.7z
		 M124.5,283.9c0,10.9,0,21.7,0,32.6l0,18.6l-1.4,0.1c-0.5,0-1.1,0-1.6,0c-18.5,0-39.4-17.9-45.3-39.2c-6.8-24.4,4.4-50.7,26.7-62.6
		c21.6-11.5,50-7.1,64.6,10.2l2.1,2.5h-3.2c-0.9,0-1.8,0-2.6,0c-1.7,0-3.4,0-5,0c-2.9,0.1-4.7,1.6-4.7,4.1c0,2.5,1.7,4,4.7,4.1
		l0.8,0c4.1,0.1,8.4,0.1,12.6-0.1c3.1-0.1,5,1.1,6,4l6.3,19.2l-20.2,0c-11.1,0-22.1,0-33.2,0C125.5,277.4,124.5,278.4,124.5,283.9z
		 M168.4,318.7l-1.5,1.7l-3.5-7.9c-2.9-6.5-4.9-6.3-6.9-5.5c-1.4,0.6-1.9,1.3-2.1,1.8c-0.5,1.4-0.1,3.6,1.3,6.8
		c0.9,2.1,1.9,4.3,2.8,6.5l1.6,3.7l-1,0.7c-7.5,5.1-15.5,8.1-24.4,8.9l-1.6,0.2v-49.8h49.9l-0.2,1.7
		C181.5,299.5,176.7,309.7,168.4,318.7z"/>
	<path class="st0" d="M71.5,119.2c22.2,0,44.4,0,66.6,0c2.1,0,3.7-0.5,4.7-1.5c0.7-0.7,1-1.6,1-2.8c-0.1-3.3-3.1-3.9-5.6-4
		c-7.9,0-15.8,0-23.7,0l-9.6,0l-9.5,0c-3.2,0-6.3,0-9.5,0c-4.8,0-9.5,0-14.3,0c-2.5,0-5.5,0.7-5.6,4c0,1.1,0.3,2,1,2.7
		C67.8,118.7,69.5,119.2,71.5,119.2z"/>
	<path class="st0" d="M138.2,176.9c-7.9,0-15.9,0-23.8,0l-9.6,0l-8.2,0c-2.7,0-5.4,0-8.1,0c-5.7,0-11.4,0-17.1,0.1
		c-2.2,0-3.4,0.5-3.6,0.7c-1,1.3-1.7,3.4-1.4,4.7c0.2,1.3,1,2.7,4.9,2.7c0,0,0,0,0,0c8.5,0,17.1,0,25.6,0c13.8,0,27.7,0,41.5,0
		c1.9,0,3.4-0.5,4.3-1.5c0.7-0.7,1-1.7,1-2.8C143.7,177.6,140.7,176.9,138.2,176.9z"/>
	<path class="st0" d="M70.6,87.1c8.4,0.2,17,0.2,25.3,0.2c2.9,0,5.8,0,8.7,0l9,0c8.2,0,16.8,0,25.1,0c3,0,4.9-1.4,5-3.9
		c0.1-1.1-0.3-2.1-1-2.9c-0.9-0.9-2.2-1.4-3.8-1.4c-10.7,0-20.5,0-29.8,0c-13.9,0-26.5,0-38.4,0.1c-1.3,0-3,0.8-3.6,1.6
		c-0.8,1.1-1.1,3.2-0.7,3.7C67.2,85.7,69.3,87.1,70.6,87.1z"/>
	<path class="st0" d="M70.7,151.1c0.8,0,1.6,0,2.4,0l0.8,0l10.1,0c16.9,0,33.7,0,50.6,0l1.1,0c1.6,0,3.1,0,4.6-0.2
		c2.3-0.4,3.4-1.8,3.3-4.3c-0.2-3.2-3.3-3.7-5.2-3.7c-8.2,0-16.6,0-24.7,0l-9,0c-3.3,0-6.6,0-10,0c-3,0-6,0-9,0c-5,0-10.1,0-15.1,0
		c-2.9,0-4.8,1.6-4.8,4C65.9,149.3,67.7,150.9,70.7,151.1z"/>
	<path class="st0" d="M276.2,305c-10.3,0-21,0-32.6,0c-2.2,0-3.9,0.5-4.9,1.5c-0.6,0.6-0.9,1.5-0.9,2.6c0.1,3.4,3.3,4.1,5.9,4.1
		c3.8,0,7.7,0,11.4,0l4.7,0c0,0,0.1,0,0.1,0c1.6,0,3.3,0,4.9,0c3.7,0,7.6,0,11.4,0c5.5-0.1,5.5-3.1,5.5-4.1c0-1.2-0.3-2.1-0.9-2.7
		C280.1,305.5,278.4,305,276.2,305z"/>
	<path class="st0" d="M242.9,285.6c12.4,0.1,23.5,0.1,34.1,0c1.7,0,3-0.5,3.8-1.4c0.7-0.7,1.1-1.7,1-2.9c-0.1-3.2-2.7-3.9-4.9-3.9
		c-3.9,0-8,0-11.8,0c-1.7,0-3.3,0-5,0l-5,0c-1.7,0-3.5,0-5.2,0c-2.3,0-4.6,0-6.9,0c-3.2,0-5.1,1.5-5.1,4
		C237.8,284,239.8,285.6,242.9,285.6z"/>
	<path class="st0" d="M243.6,203.2c15.4,0.1,30-5.8,41-16.7c11-10.9,17.1-25.4,17.2-40.9c0.1-15.4-5.8-29.9-16.7-40.8
		c-10.9-11-25.3-17-40.7-17.1c-0.1,0-0.2,0-0.3,0c-32.3,0-57.7,25.2-57.8,57.4C186.2,176.9,211.9,203,243.6,203.2z M209,110.4
		c9.3-9.3,21.7-14.4,34.9-14.5c0,0,0,0,0.1,0c13.3,0,25.8,5.2,35.2,14.6c9.3,9.4,14.4,21.8,14.4,35c-0.1,27.2-22.3,49.4-49.5,49.4
		c0,0,0,0-0.1,0c-27.2,0-49.3-22.2-49.3-49.5C194.6,132.2,199.7,119.7,209,110.4z"/>
	<path class="st0" d="M226.9,164.3c0.6,1.2,1.7,2.6,3.2,2.9c1.6,0.3,3-0.8,3.9-1.6c12.9-12.3,25.8-24.8,35.6-34.3
		c2.1-2,2.3-4.4,0.5-6.2c-1.7-1.8-4.1-1.7-6.2,0.3c-2,1.8-3.9,3.7-5.8,5.6c-1,1-2,2-3.1,3c-4.9,4.7-9.9,9.5-14.9,14.3l-8.2,7.9
		l-0.9-1.8c-0.7-1.4-1.4-2.8-2.1-4.2c-1.6-3.2-3-6.1-4.6-9.1c-0.9-1.6-2.3-2.5-3.8-2.5c-0.6,0-1.2,0.1-1.8,0.4
		c-2.1,1-2.8,3.4-1.7,5.7C220.7,151.9,223.9,158.3,226.9,164.3z"/>
</g>
</svg>
