<?xml version="1.0" encoding="utf-8"?>
<!-- Generator: Adobe Illustrator 23.0.1, SVG Export Plug-In . SVG Version: 6.00 Build 0)  -->
<svg version="1.1" id="Layer_1" xmlns="http://www.w3.org/2000/svg" xmlns:xlink="http://www.w3.org/1999/xlink" x="0px" y="0px"
	 viewBox="0 0 384 384" style="enable-background:new 0 0 384 384;" xml:space="preserve">
<style type="text/css">
	.st0{fill:none;stroke:#808080;stroke-width:10;stroke-miterlimit:10;}
</style>
<g>
	<path class="st0" d="M114.3,375.6c-4.4-2.1-5.9-5.7-5.7-10.4c0.2-4.7,0-9.5,0-14.2c-5.4-1.6-10.7-3.2-16-4.8
		c-0.2-0.4-0.4-0.8-0.6-1.2c2.7-2.4,5.5-4.8,8.1-7.3c5.7-5.6,11.3-11.2,16.9-16.9c1.7-1.8,3.4-2.5,5.9-2.3c34,1.9,61.6-23.8,62.4-58
		c0.7-30.3-24.1-57.1-54.4-58.8c-36.4-2-64.8,26.4-62.7,62.8c0.1,1.3-0.4,3.1-1.3,4.1c-8.1,8.3-16.4,16.5-24.6,24.7
		c-0.3,0.3-0.7,0.5-1.6,1.2c-1.7-5.6-3.3-10.9-4.9-16.4c-5,0-10.1,0-15.2,0c-6.5,0-9.4-2.9-9.5-9.3c0-5.8,0-11.6,0-17.5
		c0-6.2,2.9-9.1,9.1-9.3c2.6-0.1,5.2,0,7.8-0.1c2.5,0,5,0,6.7,0c4.8-11.5,9.4-22.6,14.3-34.4c-2.9-2.8-6.6-6.3-10.2-9.9
		c-4.6-4.6-4.5-8.6,0.1-13.2c4.2-4.2,8.3-8.4,12.6-12.6c4.2-4.1,8.3-4.1,12.5,0c3.3,3.1,6.5,6.3,9.6,9.6c1.3,1.4,2.3,1.6,3.9,0.5
		c8.8-5.8,18.5-9.7,28.7-11.9c2.1-0.5,2.6-1.4,2.6-3.4c-0.1-4.5-0.1-9,0-13.5c0.1-5.4,2.8-8.5,8.3-8.6c6.4-0.2,12.8-0.2,19.2,0
		c5.5,0.2,8.2,3,8.5,8.5c0.2,4.5,0.1,9,0,13.5c-0.1,2.1,0.5,3.1,2.8,3.6c10,2.2,19.5,6,28.1,11.7c1.8,1.2,3,1.2,4.5-0.5
		c3-3.2,6.1-6.3,9.3-9.4c4.2-4.1,8.3-4.1,12.5-0.1c4.4,4.3,8.8,8.6,13.1,13.1c4.1,4.2,4,8.2-0.1,12.5c-3.6,3.7-7.4,7.3-10.7,10.5
		c3.6,8,7,15.5,10.3,23.1c1.1,2.7,1.8,5.6,2.4,8.5c0.4,2,1.3,2.5,3.1,2.4c4.4-0.1,8.8-0.1,13.2,0c6.3,0.1,9.1,2.9,9.2,9.2
		c0.1,5.9,0.1,11.9,0,17.8c-0.1,6.3-3,9-9.3,9.1c-4.4,0-8.8-0.1-13.2,0.1c-1,0.1-2.6,1.2-2.8,2.1c-2.7,11.1-7,21.4-13.5,31.2
		c3.7,3.6,7.3,7.2,10.9,10.8c4.9,4.9,4.9,8.8,0,13.8c-4,4-8,8.1-12.1,12.1c-4.5,4.4-8.4,4.4-13,0c-1.9-1.8-3.7-3.7-5.5-5.5
		c-1.7-1.8-3.4-3.6-5.3-5.6c-3.2,1.8-6,3.9-9.1,5.1c-7.1,2.9-14.4,5.4-21.6,7.9c-2,0.7-3,1.3-2.9,3.6c0.2,4,0,8.1,0.1,12.1
		c0.1,4.7-1.5,8.3-6.2,10C130.4,375.6,122.4,375.6,114.3,375.6z"/>
	<path class="st0" d="M240.5,165.4c-7.9-5.5-14.4-11.8-19.8-19.3c-0.5-0.7-2.3-1.1-3.1-0.8c-3.5,1.2-6.8,2.8-10.2,4.1
		c-4.5,1.7-7.5,0.5-9.5-4c-2-4.6-3.9-9.2-5.7-13.8c-1.8-4.7-0.5-7.6,4.2-9.7c3.9-1.7,7.8-3.3,11.2-4.7c0-10.3,0-20,0-30.3
		c-3.2-1.3-7-2.9-10.8-4.5c-5.3-2.3-6.5-5.1-4.3-10.5c1.7-4.3,3.5-8.6,5.3-12.8c2.1-4.9,5.1-6.1,10-4.2c3.9,1.5,7.7,3.2,11,4.5
		c7.2-7.2,14.2-14.2,21.6-21.5c-1.3-3.1-2.9-6.9-4.4-10.7c-2.1-5.2-0.9-8.1,4.2-10.2c4.5-1.9,9-3.7,13.5-5.5c4.6-1.8,7.5-0.5,9.5,4
		c1.8,4,3.4,8.1,5.1,12.2c9.5-1.7,18.8-1.9,28.2-0.3c0.7,0.1,2-1,2.4-1.8c1.5-3.1,2.6-6.4,4-9.5c2.2-5.2,5-6.4,10.2-4.4
		c4.5,1.8,9,3.6,13.5,5.6c4.5,2,5.7,4.9,4,9.5c-0.8,2-1.6,3.9-2.4,5.9c-0.8,2-1.6,3.9-2.2,5.3c7.1,7.1,14.1,14.1,21.5,21.5
		c3-1.2,6.9-2.8,10.8-4.4c5.1-2,8-0.8,10.2,4.3c1.9,4.5,3.8,8.9,5.5,13.5c1.7,4.4,0.4,7.3-3.9,9.2c-3.2,1.5-6.5,2.8-9.9,4.1
		c-1.8,0.7-2.3,1.4-2.2,3.6c0.3,8.3,0.2,16.5,0,24.8c-0.1,1.9,0.2,2.8,2,3.4c3.2,1.2,6.4,2.5,9.5,3.9c4.9,2.1,6.2,5.1,4.3,9.9
		c-1.8,4.5-3.7,9-5.6,13.5c-2.1,4.7-4.9,5.9-9.7,4.1c-3.3-1.3-6.5-2.9-9.9-4c-1-0.3-2.9,0.1-3.4,0.8c-5.1,6.9-11.2,12.9-18.1,18
		c-0.7,0.5-1.1,2.2-0.8,3.1c1.2,3.5,2.8,6.8,4.1,10.2c1.7,4.6,0.5,7.5-3.9,9.5c-4.6,2-9.2,3.9-13.8,5.7c-4.7,1.8-7.7,0.5-9.7-4.1
		c-1.4-3.2-2.7-6.3-3.9-9.6c-0.7-1.8-1.5-2.6-3.7-2.1c-8.1,1.6-16.3,1.6-24.4,0c-2.3-0.5-3.1,0.4-3.9,2.3c-1.2,3.2-2.5,6.4-3.9,9.5
		c-2,4.5-4.9,5.8-9.4,4c-4.6-1.8-9.2-3.7-13.8-5.7c-4.7-2-5.9-5-4-9.8c0.8-2,1.6-3.9,2.5-5.9C238.8,169.6,239.6,167.6,240.5,165.4z
		 M268.2,97.7c-2.9-3.2-5.7-6.3-8.6-9.2c-0.7-0.8-2.1-1.6-2.9-1.4c-0.7,0.1-1.4,1.7-1.5,2.7c-1.4,13.4-2.7,26.9-4.1,40.3
		c-0.3,2.9,0.7,4.2,3.8,3.9c13.6-1.4,27.1-2.7,40.7-4.2c0.9-0.1,2.3-0.7,2.5-1.4c0.2-0.7-0.4-2-1.1-2.7c-3-3-6.1-5.9-10.2-9.8
		c1.6-1,2.9-1.5,3.8-2.4c7.6-7.5,15.1-15.1,22.7-22.6c2.4-2.4,2.4-4.2,0-6.5c-4.1-3.8-7.9-7.9-11.9-11.8c-3.9-3.9-4.3-3.9-8.3,0
		C285.1,80.8,276.9,89,268.2,97.7z"/>
	<path class="st0" d="M99.2,262.9c-4.7-4.6-8.8-8.4-12.6-12.5c-1-1.1-2-2.9-1.8-4.1c0.1-0.9,2.3-1.8,3.7-2.1
		c20.2-3.8,40.3-7.5,60.5-11.2c4.2-0.8,5.3,0.2,4.5,4.5c-3.7,20.4-7.5,40.8-11.3,61.2c-0.7,3.9-2.8,4.5-5.6,1.7
		c-4.2-4.1-8.2-8.2-13-13.1c-1,1.4-1.7,2.7-2.6,3.7c-26.4,26.5-52.9,52.9-79.3,79.3c-5.9,5.9-9.4,5.9-15.3,0.1
		c-3.6-3.6-7.2-7.2-10.8-10.8c-5.1-5.1-5.1-8.8,0.1-14c26.7-26.7,53.3-53.5,80-80.1C96.4,264.5,97.7,263.9,99.2,262.9z"/>
</g>
</svg>
