<?xml version="1.0" encoding="utf-8"?>
<!-- Generator: Adobe Illustrator 23.0.1, SVG Export Plug-In . SVG Version: 6.00 Build 0)  -->
<svg version="1.1" id="Layer_1" xmlns="http://www.w3.org/2000/svg" xmlns:xlink="http://www.w3.org/1999/xlink" x="0px" y="0px"
	 viewBox="0 0 356 356.1" style="enable-background:new 0 0 356 356.1;" xml:space="preserve">
<style type="text/css">
	.st0{fill:#9A9A9A;}
</style>
<g>
	<path class="st0" d="M136.5,300.2c-0.4-0.1-0.9-0.1-1.5-0.1c-0.3,0-0.6,0-0.9,0c-0.3,0-0.6,0-0.9,0H30.1
		c-13.8,0-22.1-8.2-22.1-21.9v-216v-4v-2h2h300h2v2v17.3v24c0,2.4,0.8,3.7,2.4,4c0.2,0,0.4,0,0.7,0c1.4,0,2.9-0.5,3.7-1.1
		c0.5-0.5,1.1-2.1,1.1-4.2c0.1-22.7,0.1-45.7,0.1-67.9C320,11.6,308.4,0,289.8,0H30.3C11.6,0,0,11.6,0,30.3v247.5
		c0,9,2.8,16.7,8.1,22C13.4,305.2,21,308,30,308h103.5c0.3,0,0.6,0,0.9,0c0.3,0,0.5,0,0.8,0c0.5,0,1,0,1.3-0.1
		c2.3-0.4,3.4-1.7,3.4-4C139.8,301.9,138.7,300.6,136.5,300.2z M8.1,26c0.7-9.7,8.7-17.4,18.8-18l0.1,0H27h3.4h259
		c14.8,0,22.6,7.8,22.6,22.5v15.2v2h-2H10.1h-2v-2c0-2.2,0-4.4-0.1-6.6C7.9,34.8,7.8,30.4,8.1,26z"/>
	<path class="st0" d="M93.8,84c-15.3,0-29.7,6-40.7,16.9c-11,10.9-17.1,25.2-17.2,40.5c-0.2,32.2,25.4,58.5,57.1,58.7l0.4,0
		c15.6,0,30.3-6,41.3-16.8c11-10.9,17.1-25.4,17.2-40.9c0.2-31.9-25.7-58.1-57.8-58.3L93.8,84z M98.3,135.8v-41v-2l2,0
		c19.9,0.1,42.4,22.6,42.9,42.9l0.1,2.1h-2.1h-40.9h-2V135.8z M136.8,146.1h4.1h1.9l0.1,1.9c0.5,8.7-3.4,18.1-10.8,26.4
		c-9.5,10.5-22.8,17.1-35.6,17.7c-0.7,0-1.4,0-2.1,0c-26.9,0-49.5-21.4-50.4-47.7c-1-29.8,22-50,43.9-51.6l2.1-0.2v2.2
		c0,15.3,0,29.7-0.2,44.5c0,5.9,0.8,6.8,6.9,6.8H136.8z"/>
	<path class="st0" d="M350.1,192.1h-44.2c-4.8,0-5.9,1.1-5.9,5.9v152.2c0,4.8,1.1,5.9,5.9,5.9h43.9c5.2,0,6.2-1,6.2-6.3v-75.4V198
		C356,193.2,354.9,192.1,350.1,192.1z M347.7,202.3v143.5v2h-2h-35.5h-2v-2V202.3v-2h2h35.5h2V202.3z"/>
	<path class="st0" d="M278.3,228h-44.6c-4.5,0-5.7,1.2-5.7,5.7v116.6c0,4.5,1.2,5.7,5.7,5.7h44.2c5.1,0,6.1-1,6.1-6.1v-57.7v-58.5
		C284,229.2,282.8,228,278.3,228z M275.7,238.1v107.7v2h-2h-35.5h-2v-2V238.1v-2h2h35.5h2V238.1z"/>
	<path class="st0" d="M300,124c0,2.4,1.7,3.9,4.5,4c1.7,0,3.6,0,5.8,0c1.9,0,3.9,0,5.9,0c2,0,3.9,0,5.9,0h0.1l0.1,0
		c1,0.1,1.9,0.2,2.5,0.3l3.8,0.6l-2.7,2.7c-18.5,18.5-37.7,37.7-56.8,56.9l-1.4,1.4l-1.4-1.4c-5.9-6-11.7-11.8-17.8-17.8
		c-2-1.9-3.4-2.8-4.5-2.8c-1.1,0-2.5,0.9-4.4,2.8l-45.8,45.8l-22.9,22.9l0,0l-0.1,0c-0.8,0.7-1.4,1.3-1.8,1.9
		c-1.4,1.9-1.4,3.5,0.2,5.3c0.7,0.8,1.6,1.3,2.7,1.3c0.9,0,1.9-0.4,2.7-1c0.6-0.5,1.2-1.1,1.8-1.7c0.2-0.2,0.5-0.5,0.7-0.7
		l31.3-31.3l31.3-31.3c0.8-0.8,1.6-1.6,2.6-2.5l0.6-0.5l1.4-1.3l1.4,1.4l0.9,0.9c5.8,5.9,11.3,11.5,16.8,17c2.1,2.1,3.6,3.1,4.7,3.1
		s2.5-1,4.7-3.1c12.5-12.6,25.3-25.4,37.7-37.7c6.3-6.3,12.5-12.5,18.8-18.8c0.7-0.7,1.3-1.3,2.1-2.1c0.4-0.4,0.8-0.8,1.4-1.2
		l3.4-3.1v4.6c0,2.6,0,5,0,7.4c0,4.6,0,9,0,13.4c0.1,2.6,1.6,4.3,4,4.3c2.4,0,4-1.8,4-4.4c0.1-11.7,0.1-23.5,0-35.2
		c-0.1-2.9-1.5-4.3-4.4-4.3c-5.8,0-11.7-0.1-17.6-0.1s-11.8,0-17.6,0.1C301.7,120.1,300,121.6,300,124z"/>
	<path class="st0" d="M206.4,264h-44.6c-4.7,0-5.8,1.1-5.8,5.9V310c0,13.3,0,27-0.1,40.5c0,4.3,1.2,5.5,5.5,5.5h45
		c4.3,0,5.5-1.2,5.5-5.5v-81C211.9,265.2,210.7,264,206.4,264z M203.7,274.2v71.5v2h-2h-35.5h-2v-2v-71.5v-2h2h35.5h2V274.2z"/>
	<path class="st0" d="M39.9,32l0.1,0c2.2-0.1,4-1.9,4-4c0-2.2-1.8-4-3.9-4c-2.2,0-4,1.7-4.1,4c0,1,0.4,2.1,1.1,2.8
		C37.9,31.6,38.9,32,39.9,32z"/>
	<path class="st0" d="M76.1,32c2.1-0.1,3.9-1.9,3.9-4c0-2.1-1.8-3.9-3.8-4c-2.1,0-4,1.8-4.1,3.9l0,0l0,0c-0.1,1,0.3,2,1,2.8
		C73.9,31.5,75,32,76.1,32z"/>
	<path class="st0" d="M112.1,31.9c0.1,0,0.2,0,0.2,0c2.1-0.1,3.8-2,3.7-4.1c-0.1-2-1.9-3.8-3.9-3.8l-0.1,0c-1.1,0-2.1,0.5-2.8,1.2
		c-0.7,0.7-1.1,1.7-1.1,2.7l0,0v0C108.1,30.1,109.9,31.9,112.1,31.9z"/>
</g>
</svg>
