<?xml version="1.0" encoding="utf-8"?>
<!-- Generator: Adobe Illustrator 23.0.1, SVG Export Plug-In . SVG Version: 6.00 Build 0)  -->
<svg version="1.1" id="Layer_1" xmlns="http://www.w3.org/2000/svg" xmlns:xlink="http://www.w3.org/1999/xlink" x="0px" y="0px"
	 viewBox="0 0 286.1 357.7" style="enable-background:new 0 0 286.1 357.7;" xml:space="preserve">
<style type="text/css">
	.st0{fill:#9A9A9A;}
</style>
<g>
	<path class="st0" d="M115.9,322.2c-0.8,0-1.7,0-2.5-0.1c-0.9,0-1.7-0.1-2.6-0.1c0,0-28.3,0-34.8,0c-7.3,0-14.6,0-21.8,0
		C23.3,321.9,0,298.6,0,267.6c0-42.6,0-85.2,0-127.8l0-36.5C0,90.6,6.5,84.1,19.4,84l4.6,0l0-23.1c0-14.1,0-28.2,0-42.3
		C24,7,31,0,42.6,0c15.8,0,31.7,0,47.5,0c15.2,0,30.3,0,45.5,0C146.9,0,154,7.1,154,18.5c0,14.1,0,28.2,0,42.3l0,23.2
		c0,0,4.3,0,4.9,0c0.7,0,1.4,0,2.2,0c9.5,0.2,16.8,7.4,16.9,16.6c0.1,16.8,0.1,34,0.1,50.6l0,9.1c0,3.5-2,5.7-5,5.8
		c-3.1,0-5-2.3-5-6.1c0-11.9,0-23.9,0-35.8c0-6.9,0-13.9,0-20.8c0-6.9-2.3-9.3-9.2-9.3l-71.5,0l-68,0c-6.9,0-9.3,2.3-9.3,9.2l0,37.3
		c0,42.3,0,84.6,0,127c0,25.7,18.7,44.5,44.5,44.5c6.1,0,12.2,0,18.2,0l12.3,0c12,0,22,0,32.1,0.1c2.3,0,4.1,0.5,4.8,1.2
		c1.2,1.3,2.1,3.8,1.7,4.8c-0.6,1.5-2.7,3.3-4.6,3.8C118.2,322.1,117.2,322.2,115.9,322.2z M43.3,10c-7,0-9.3,2.3-9.3,9.1
		c0,20.1,0,40.2,0,60.3c0,0.8,0.1,1.5,0.1,2.3c0,0.4,0.1,0.7,0.1,1.1l0.1,0.9H144l0-21.3c0-14.4,0-28.9,0-43.3
		c0-6.9-2.3-9.3-9.2-9.3l-45.7,0L43.3,10z"/>
	<path class="st0" d="M203,357.7c-1.4,0-2.8-0.3-4.3-0.9c-29.8-12.4-51.1-29.2-65.1-51.5c-8.8-14-13.4-29.7-13.5-46.7
		c-0.1-6.3-0.1-12.8,0-19c0-3,0-6.1,0-9.1l0-7.4c0-8.1,0-16.3,0-24.4c0-4.8,1.6-6.4,6.5-6.5c26-0.9,50-8.2,71.3-21.7
		c1.9-1.2,3.6-1.8,5.2-1.8c1.6,0,3.3,0.6,5.3,1.9c21.4,13.5,45.4,20.8,71.3,21.6c4.8,0.2,6.4,1.8,6.4,6.6c0,6.1,0,12.2,0,18.3
		c0,12.1-0.1,24.6,0.1,36.8c0.5,28.8-10.5,53.8-32.6,74.3c-12.8,11.9-27.8,21.2-45.9,28.6C205.9,357.3,204.4,357.7,203,357.7z
		 M203,180c-1.1,0-2.2,0.4-3.5,1.1c-13.3,8-27.4,13.7-41.9,16.9c-6,1.3-11.9,2.2-18.2,3.2c-2.8,0.4-5.6,0.9-8.4,1.3l-0.8,0.1
		l-0.1,0.8l0,0.5c0,0.4-0.1,1-0.1,1.6c0,5,0,10.1,0,15.1c0,12.4,0,25.2,0.1,37.8c0.1,15.8,4.6,30.5,13.3,43.6
		c12.7,19.2,31.5,33.9,57.5,44.8c0.5,0.2,1.2,0.3,1.9,0.3l0,0c1.2,0,2.5-0.3,3.8-0.8c13.5-5.7,25.6-13,36-21.8
		c23.3-19.8,34.3-43.2,33.5-71.8c-0.2-8.1-0.2-16.4-0.1-24.4c0-3.7,0.1-7.4,0.1-11.1v-14.9c0,0-2.3-0.3-2.9-0.3
		c-1.2-0.1-2.3-0.3-3.4-0.4c-22.4-2-43.7-8.8-63.2-20.3C205.2,180.3,204.1,180,203,180z"/>
	<path class="st0" d="M67.4,58c-0.9,0-1.8,0-2.7,0c-0.9,0-1.8,0-2.8,0c-0.9,0-1.8,0-2.7,0c-0.9,0-1.8,0-2.7,0c-1.3,0-2.3,0-3.3-0.1
		c-3.2-0.1-5.3-2.2-5.2-5.1c0.1-2.8,2.1-4.8,5.1-4.8C56.1,48,59.1,48,62,48c2.9,0,5.8,0,8.8,0.1c1.6,0,3,0.6,3.9,1.6
		c0.9,0.9,1.3,2.1,1.3,3.5c-0.1,2.8-2.1,4.7-5.2,4.8C69.8,58,68.7,58,67.4,58z"/>
	<path class="st0" d="M115.9,58c-0.8,0-4.1,0-4.9,0c-1,0-2,0-3,0c-3.8-0.1-6.1-2-6-5.1c0-3,2.2-4.9,5.8-4.9c2.8,0,5.6-0.1,8.4-0.1
		c2.7,0,5.4,0,8.1,0.1c1.8,0,3.4,0.6,4.4,1.6c0.9,0.9,1.3,2.1,1.3,3.4c0,3-2.2,4.8-5.8,4.9c-1,0-2.1,0-3.1,0
		C120.2,58,116.8,58,115.9,58z"/>
	<path class="st0" d="M191,298.1c-1.4,0-3-0.9-5.2-3.1c-2-2-4-4-6-6c-7-7-14.2-14.2-21.2-21.4c-1.4-1.5-2.5-4.1-2.3-5.7
		c0.3-2.3,2-3.7,4.3-3.7c1.6,0,3.2,0.7,4.4,1.9c7.2,7.1,14.2,14.1,22,22c0.6,0.6,1,1.3,1.6,2.1c0.3,0.5,0.6,1,1,1.5l0.7,1L202,275
		c12.7-12.7,25-25,37.2-37.3c0.2-0.2,0.4-0.4,0.6-0.6c0.8-0.8,1.5-1.5,2.3-2.1c1-0.7,2-1,2.9-1c1.2,0,2.3,0.5,3.3,1.5
		c1.9,1.9,2.1,4,0.7,6.2c-0.5,0.7-1.1,1.4-1.8,2.1l-0.3,0.3c-17,17-33.9,33.9-50.9,50.9C193.9,297.2,192.4,298.1,191,298.1z"/>
</g>
</svg>
