<?xml version="1.0" encoding="utf-8"?>
<!-- Generator: Adobe Illustrator 23.0.1, SVG Export Plug-In . SVG Version: 6.00 Build 0)  -->
<svg version="1.1" id="Layer_1" xmlns="http://www.w3.org/2000/svg" xmlns:xlink="http://www.w3.org/1999/xlink" x="0px" y="0px"
	 viewBox="0 0 356.2 356.2" style="enable-background:new 0 0 356.2 356.2;" xml:space="preserve">
<style type="text/css">
	.st0{fill:#9A9A9A;}
</style>
<g>
	<path class="st0" d="M326.2,265.6c-1.6-0.4-3.3-0.7-5.1-1c-1.1-0.2-2.3-0.4-3.5-0.7l-2.9-0.6l1.6-2.5c13.7-21.1,12.6-40.1-2.8-53.7
		c-6.7-5.8-15.3-9-24.3-9c-9,0-17.6,3.2-24.3,9c-15.5,13.4-16.5,32.5-2.8,53.7l1.7,2.6l-3.1,0.5c-0.6,0.1-1.1,0.2-1.7,0.2
		c-1.4,0.2-2.6,0.3-3.8,0.7c-1.1,0.4-2.1,0.5-3.1,0.5c-2.7,0-4.8-1.3-6.8-2.6c-4.8-3.1-9.6-6-14.7-7.7c-4.3-1.4-8.8-2.1-13.5-2.8
		c-2.2-0.3-4.4-0.7-6.6-1.1l-3.8-0.7l2.7-2.7c9.7-9.5,14.6-20.9,14.5-33.8c-0.1-13.7-5.3-25.2-15.4-34.3
		c-8.3-7.5-19.1-11.6-30.5-11.6c-11.5,0-22.4,4.2-30.8,11.8c-8.9,8.1-14,18.2-15.1,30.1c-1.3,14.4,3.7,27.2,14.7,38.1l1.7,1.6
		l-1.9,1.4c-0.1,0.1-0.1,0.1-0.2,0.2c-0.4,0.3-1,0.7-1.8,0.7c-0.5,0-1,0-1.5,0c-13.4,0-24.8,4-34.8,12.3c-0.9,0.7-2.2,1.2-3.5,1.2
		c-0.2,0-0.5,0-0.7,0l0,0l0,0c-3-0.4-5.9-1-8.8-1.6l-2.8-0.6l1.6-2.4c13.6-21.4,12.5-40.5-3.1-53.9c-6.7-5.7-15.2-8.8-24.1-8.8
		c-8.9,0-17.5,3.2-24.2,9c-15.5,13.6-16.5,32.7-2.7,53.8l1.8,2.8l-3.3,0.3c-11.7,1-21.9,6.1-28.9,14.3c-6.8,8.1-10.2,18.8-9.6,30.1
		c0.4,8.1,0.3,16.2,0.2,24.2c0,3.6-0.1,7.3-0.1,10.9c0,0.8,0,1.5,0,2.3c0,2.2,0,4.4,0.1,6.6c0.1,2.4,1.7,3.9,3.9,3.9l0.1,0
		c2.1-0.1,3.7-1.7,3.9-4c0.1-0.6,0-1.1,0-1.8c0-0.4,0-0.7,0-1.1v-43.9c0-19.6,13.7-33.3,33.4-33.3h50.6c1.1,0,2.2,0.1,3.5,0.1
		c0.4,0,0.9,0,1.4,0.1l3.3,0.2l-1.7,2.8c-4.1,6.9-7.8,14.5-8,22.6c-0.4,15.6-0.4,31.5-0.4,46.8c0,2.6,0,5.2,0,7.8
		c0,2.8,2.4,3.3,3.8,3.4c0.1,0,0.2,0,0.2,0c1.9,0,3.5-1.5,3.8-3.7l0-0.1l0-0.1c0.1-0.6,0.1-1.4,0.1-2.2c0-0.3,0-0.6,0-0.9v-43.5
		c0.1-26.9,18.9-45.7,45.7-45.7h68.6c26.8,0.1,45.6,18.9,45.7,45.7v44.6c0,2.1,0.5,5.7,4,5.7l0.1,0c1,0,3.9-0.1,3.9-5.6V304
		c-0.1-9-2.4-17.6-6.8-25.5c-0.5-0.9-1-1.9-1.8-3.4l-1.3-2.8h3.1h5.1h49.9c20.2,0,33.8,13.5,33.8,33.7v45.4c0,1.4,0.4,4.8,3.9,4.9
		l0.1,0c2.5,0,4-1.8,4-4.9c0-4,0-8,0-12c0-11.8,0-24-0.1-36C355.8,285.6,343.5,270.1,326.2,265.6z M66.9,264.1c-0.1,0-0.3,0-0.4,0
		c-15.7-0.2-28.5-13.2-28.5-29c0.1-16,13.2-29,29.1-29l0.2,0c7.7,0.1,14.9,3.1,20.3,8.6c5.4,5.5,8.4,12.8,8.2,20.6
		C95.9,251.2,82.9,264.1,66.9,264.1z M178.2,252.1l-0.2,0c-20.9-0.1-37.9-17.2-37.9-38.1c0-20.9,17-37.9,37.9-37.9l0.2,0
		c20.9,0.1,37.9,17.2,37.9,38.1C216,235.1,199,252.1,178.2,252.1z M289.2,264.1c-15.9,0-29-12.9-29.1-28.8
		c0-16.1,13.1-29.2,29.1-29.2c15.9,0,28.9,13,28.9,29S305.1,264.1,289.2,264.1z"/>
	<path class="st0" d="M30.1,148.1c0,1.3,0,2.5,0,3.8c0,3.7,0,7.5,0.1,11.2l0,0l0,0c0.1,7.3,4.4,13.2,11.3,15.3
		c4.5,1.4,9.3,2.7,14.7,4.2c0.7,0.2,1.4,0.3,2,0.3c1.9,0,3.2-0.9,3.7-2.8c1-3.4-2.1-4.7-3.5-5.1c-2.2-0.7-4.5-1.3-6.7-1.9
		c-2-0.6-4.1-1.1-6.2-1.8c-5.4-1.7-7.2-4.1-7.2-9.4c0-3.1,0-6.1,0-9.2c0-6,0-12.1,0-18.2c-0.1-4.9,2.2-8,7-9.3
		c2.6-0.7,5.3-1.5,8-2.3c2.9-0.9,5.9-1.7,8.9-2.5c2.5-0.7,3.9-2,4.9-4.8c2.6-7.1,5.7-14.6,9.5-22.9c1.2-2.8,1.2-4.7-0.2-6.9
		c-2-3.3-3.8-6.7-5.7-10c-0.9-1.7-1.8-3.3-2.8-5c-2.7-4.8-2.2-8,1.5-11.8c6.4-6.5,13-13,19.4-19.3c2-2,4.2-3,6.5-3
		c1.6,0,3.3,0.5,5,1.5c2.1,1.2,4.3,2.4,6.4,3.6c3,1.6,6,3.3,9,5.1c1.2,0.7,2.3,1,3.4,1c1,0,2-0.3,3.3-0.8c7.4-3.2,15.2-6.4,23.6-9.7
		c2.5-1,3.6-2.1,4.2-4.3c0.9-3.4,1.9-6.7,2.8-10c0.7-2.5,1.5-5.1,2.2-7.6c1.2-4.6,4.2-6.9,8.9-6.9c4.6,0,9.2,0.1,13.9,0.1
		c4.6,0,9.3,0,13.8-0.1c4.9,0,8,2.4,9.3,7.1c0.7,2.6,1.5,5.3,2.3,8c0.9,2.9,1.7,5.9,2.5,8.9l0,0l0,0c0.6,2.5,1.9,3.8,4.8,4.9
		c7.1,2.6,14.6,5.7,22.9,9.5c1.4,0.6,2.6,0.9,3.6,0.9c1,0,2-0.3,3.1-0.9c3.9-2.2,7.8-4.4,11.6-6.5c1.4-0.8,2.7-1.5,4.1-2.3
		c1.6-0.9,3.3-1.4,4.8-1.4c2.3,0,4.4,1,6.4,2.9c6.5,6.6,13,13.1,19.6,19.6c3.4,3.4,3.9,7.3,1.5,11.5c-1.5,2.6-3,5.3-4.4,7.8
		c-1.4,2.6-2.9,5.3-4.4,7.9c-1.1,1.9-1.1,3.6-0.1,6c3.5,7.9,6.8,16,9.8,23.9c1,2.5,2.1,3.6,4.3,4.2c3.4,0.9,6.7,1.9,10,2.8
		c2.5,0.7,5.1,1.5,7.6,2.2c4.4,1.2,6.8,4.4,6.8,9c-0.1,9.2-0.1,18.5,0,27.7c0.1,4.7-2.3,7.9-7.1,9.2l-1.4,0.4
		c-3.9,1.1-7.9,2.2-11.8,3.4c-2.7,0.9-4,2.8-3.4,5c0.5,1.9,2,3,4,3c0.5,0,1-0.1,1.6-0.2c4.8-1.2,9.6-2.6,14.7-4.2
		c7.1-2.2,11.4-8,11.5-15.5c0.1-9.9,0.1-19.6,0-29.6c0-7.3-4.4-13.3-11.5-15.5c-0.5-0.2-1-0.3-1.5-0.5c-2.2-0.7-4.4-1.4-6.5-1.7
		c-7.2-1-11.3-4.8-13-11.8c-0.4-1.9-1.5-3.9-2.4-5.8c-1.5-3.1-3.1-6.2-2.9-9.6c0.2-3.9,2.6-7.4,4.8-10.8c1-1.5,1.9-2.9,2.6-4.2
		c3.7-7,2.7-14-2.8-19.7c-6.8-7-13.7-13.9-20.7-20.7c-3.3-3.2-7.2-4.9-11.3-4.9c-2.8,0-5.7,0.8-8.5,2.3c-1.4,0.8-2.9,1.6-4.3,2.4
		c-2.6,1.5-5.2,3-8,4.3c-1,0.5-2.2,0.7-3.5,0.7c-1,0-1.9-0.2-2.7-0.4c-5.5-2.1-11.4-4.5-17.4-7.2l0,0l0,0c-1.6-0.8-3.4-2.4-4-4.4
		c-1-3-1.9-6-2.7-9c-0.5-1.7-0.9-3.4-1.4-5.1c-2.2-7.3-8.1-11.7-15.7-11.8c-4.8,0-9.7-0.1-14.6-0.1c-4.9,0-9.8,0-14.6,0.1
		c-7.8,0.1-13.6,4.5-15.9,12.1c-0.6,1.8-1.1,3.6-1.6,5.4c-0.7,2.7-1.5,5.5-2.5,8.2c-0.7,1.9-2.4,3.7-4.4,4.6c-5,2.4-10.6,4.7-17,7.1
		c-0.9,0.3-1.9,0.5-3,0.5c-0.8,0-2.1-0.1-3.3-0.6c-2.8-1.3-5.5-2.8-8-4.3c-1.4-0.8-2.8-1.6-4.3-2.4c-2.9-1.6-5.8-2.4-8.6-2.4
		c-4.1,0-7.9,1.7-11.3,5l-0.1,0.1C76.5,40.4,69.8,47,63,54c-5.3,5.5-6.3,12.5-2.7,19.4c0.9,1.7,1.9,3.5,2.9,5.2
		c1.3,2.4,2.7,4.8,4,7.3c1,2,0.9,4.6,0.3,6.3l0,0l0,0c-2.6,6.8-4.9,12.2-7,17c-1,2.1-2.9,3.9-4.9,4.6c-2.5,0.9-5.2,1.6-7.7,2.3
		c-2.1,0.6-4.3,1.2-6.3,1.8c-6.9,2.1-11.3,8.1-11.4,15.2c-0.1,3.3,0,6.7,0,10C30.1,144.7,30.1,146.4,30.1,148.1z"/>
	<path class="st0" d="M236.4,190.9c0.7,0.4,1.4,0.6,2,0.6c1.5,0,3.1-1.3,4.6-4c9.9-16.7,13.1-34.7,9.7-53.3
		c-6.4-35.5-38.2-62.2-73.8-62.2h0c-2.2,0-4.5,0.1-6.7,0.3c-19.6,1.9-37.3,10.8-50,25.1c-13.1,14.8-20,34.1-20,55.8
		c0.1,8.4,3.2,22,11.7,35l0,0l0,0c0.9,1.4,2.4,2.6,3.2,2.7c0.1,0,0.1,0,0.2,0c1.2,0,2.9-0.8,3.9-1.7c0.8-0.8,1.3-2-0.6-5.2
		c-8.5-13.9-11.8-29-9.8-45C114.9,106,144.4,80,178,80c4.4,0,8.7,0.4,13,1.3c22.3,4.6,40.3,18.9,49.3,39.2c9,20.4,7.5,43.3-4.2,62.9
		C233,188.8,235.5,190.3,236.4,190.9z"/>
</g>
</svg>
