<?xml version="1.0" encoding="utf-8"?>
<!-- Generator: Adobe Illustrator 23.0.1, SVG Export Plug-In . SVG Version: 6.00 Build 0)  -->
<svg version="1.1" id="Layer_1" xmlns="http://www.w3.org/2000/svg" xmlns:xlink="http://www.w3.org/1999/xlink" x="0px" y="0px"
	 viewBox="0 0 308 356.1" style="enable-background:new 0 0 308 356.1;" xml:space="preserve">
<style type="text/css">
	.st0{fill:#9A9A9A;}
</style>
<g>
	<path class="st0" d="M285.8,215.8l-1.8-0.2v-1.8v-4.3c0-4.2,0-8.5,0-12.7c0-11.7,0-23.8,0-35.7c0-3.6-1.4-4.6-3-5
		c-0.4-0.1-0.8-0.2-1.2-0.2c-1,0-2.2,0.4-3.9,3c-1.5,2.4-3.6,5.6-6.1,8.4c-13.8,15.5-32.6,23.7-55.7,24.4c-3.8,0.1-8,0.2-13,0.2
		c-2.9,0-5.9,0-8.8,0c-2.9,0-5.9,0-8.8,0c-1.8,0-3.6,0-5.4,0c-22,0.2-40,14.8-44.9,36.3c-2.2,9.9-1,20.4,3.6,29.6
		c4.6,9.3,12.2,16.9,21.6,21.4c2.8,1.3,3.9,3.2,3.9,6.3c-0.1,17-0.1,32.5,0,47.2c0,2.9,0.4,5.6,1.1,7.9c2.8,9,11.3,15.3,20.7,15.3
		c0.9,0,1.8-0.1,2.6-0.2c11.1-1.4,19.2-10.3,19.4-21.1c0.1-10.4,0.1-20.9,0.1-31.1c0-4.5,0-9,0-13.4l0-2.8l0-1.9v-2.2l2.2,0.2
		c2.2,0.2,4.3,0.4,6.4,0.6c4.6,0.4,8.9,0.7,13.2,1.5c21,3.8,37.1,14.2,47.8,30.8c1.7,2.7,2.8,3.5,4.4,3.5c0.3,0,0.6,0,1-0.1
		c1.5-0.3,3.1-1,3.1-6c0-11.5,0-22.9,0-34.4l0-13.2v-4v-1.7l1.7-0.3c14.4-2.3,22.5-10.6,22.3-22.7
		C307.8,225.9,299.1,217.4,285.8,215.8z M151.6,265.3c-11-10.9-14.4-27-8.9-41.2c5.5-14,19.3-23.7,34.3-24c2.1,0,4.3-0.1,7.1-0.1
		c1.9,0,3.9,0,5.8,0c2,0,4,0,6,0h2v2v71.8v2l-2,0c-1.5,0-3,0.1-4.5,0.1c-2.6,0.1-5.3,0.2-8,0.2C172.5,276.1,161.2,274.8,151.6,265.3
		z M198,332.6c0,9-5.7,15.4-13.9,15.4l-0.1,0c-8.2,0-14-6.3-14-15.3c0-10.9,0-21.8,0-32.8l0-13.8v-2h2h23.8h1.9l0.1,1.9
		c0,0.4,0.1,0.8,0.1,1.2c0.1,0.8,0.1,1.6,0.1,2.4C198,304.8,198,318.5,198,332.6z M275.9,177.9v120.2v4.5l-3.3-3.1
		c-17.4-15.9-36.9-23.6-59.8-23.6c-1.4,0-2.9,0-4.4,0.1l-2.1,0.1v-2.1v-72V200l2.1,0.1c1.4,0.1,2.8,0.1,4.1,0.1
		c23,0,42.6-7.8,60-23.7l3.4-3.1V177.9z M296.7,246.9c-2.6,3-6.3,4.7-10.5,4.9l-2.1,0.1v-2.1v-23.2v-1.5l1.4-0.4
		c0.8-0.2,1.6-0.3,2.4-0.3c6,0,11.4,6.6,12,12C300.4,240.3,299.2,244,296.7,246.9z"/>
	<path class="st0" d="M142,288.1c-1.2-0.1-2.4-0.1-3.8-0.1c-1.1,0-2.3,0-3.9,0.1c-0.1,0-0.3,0-0.4,0c-4.6,0-7.6-2.4-8.9-7
		c-0.7-2.7-1.5-5.5-2.3-8.2c-0.9-3-1.8-6.1-2.6-9.1c-0.6-2.3-1.8-3.5-4.4-4.5c-8.5-3.2-16.1-6.4-23.2-9.6c-1.3-0.6-2.5-0.9-3.5-0.9
		c-1.1,0-2.2,0.3-3.5,1.1c-3.2,1.9-6.6,3.7-9.8,5.5c-1.9,1-3.8,2.1-5.6,3.1c-1.7,0.9-3.3,1.4-4.9,1.4c-2.3,0-4.4-1-6.3-2.9
		c-5.7-5.8-12.6-12.7-19.6-19.6c-3.4-3.4-4-7.3-1.5-11.5c1.4-2.4,2.8-5,4.1-7.4c1.5-2.7,3.1-5.5,4.7-8.3c1.1-2,1.2-3.6,0.1-6
		c-3.3-7.6-6.6-15.4-9.9-23.9c-0.9-2.4-2.1-3.6-4.3-4.2c-3.5-0.9-7-2-10.4-2.9c-2.4-0.7-4.8-1.4-7.3-2.1c-4.5-1.3-6.8-4.3-6.8-9
		c0.1-9.6,0.1-18.9,0-27.7c0-4.8,2.3-7.9,7.1-9.2c2.8-0.8,5.7-1.6,8.4-2.4c2.9-0.9,5.9-1.7,8.8-2.5c2.2-0.6,3.4-1.8,4.4-4.5
		c2.9-7.5,6.1-15.2,9.8-23.6c1.1-2.4,1.1-4.1,0-6c-3.1-5.4-6-10.7-8.8-15.7c-2.6-4.7-2.1-7.9,1.7-11.7c6.2-6.3,12.7-12.7,19.1-19.1
		c1.8-1.7,3.8-3.4,6.5-3.4c1.6,0,3.3,0.5,5.6,1.8c1,0.5,2,1.1,3,1.6c4,2.2,8.1,4.4,12.1,6.8c1.1,0.7,2.1,1,3.2,1
		c1,0,2.1-0.3,3.4-0.9c8.3-3.7,15.9-6.8,23.2-9.6c2.7-1,4-2.3,4.6-4.8c1.3-4.8,2.7-9.6,4.1-14.3l0.8-2.6c1.6-5.3,3.9-7.1,9.5-7.1
		c4.5,0,9,0,13.5,0c4.5,0,9,0,13.5,0c5.5,0,7.9,1.8,9.5,7.1l0.7,2.3c1.4,4.7,2.8,9.5,4,14.3c0.7,2.7,2.1,4.2,5.1,5.2
		c7,2.6,14.3,5.6,22.9,9.5c1.3,0.6,2.4,0.9,3.5,0.9c1.1,0,2.1-0.3,3.2-1c4.3-2.5,8.7-4.9,13-7.3l2.1-1.1c2.3-1.3,4-1.8,5.6-1.8
		c2.7,0,4.8,1.7,6.5,3.3c6.2,6.1,12.6,12.5,19.1,19.1c3.8,3.8,4.3,7,1.7,11.8c-2.6,4.8-5.7,10.3-8.8,15.7c-1.1,1.9-1.1,3.6,0,6
		c3.6,8.2,6.8,16,9.8,23.6c1,2.7,2.2,3.9,4.4,4.5c3.1,0.8,6.1,1.7,9.1,2.6c1.6,0.5,3.3,1,5,1.5c8.6,2.5,9.2,3.1,10.3,12.1
		c0.3,2.2,1.8,3.8,3.8,3.8c0.1,0,0.1,0,0.2,0c2.3-0.1,3.6-1.2,4-3.6c1.4-8.2-3.4-16.1-11.4-18.6c-2.1-0.7-4.4-1.3-6.5-1.9
		c-2.6-0.7-5.3-1.5-7.9-2.3c-1.8-0.6-3.6-2.3-4.4-4.1c-2.7-6.1-5.1-11.8-7.1-17.4c-0.7-1.9-0.6-4.5,0.3-6.3c1.3-2.7,2.8-5.3,4.2-7.8
		c0.8-1.3,1.6-2.7,2.3-4.1c4-7.4,3.1-14.4-2.7-20.3c-7.3-7.4-14-14.1-20.4-20.4c-3.3-3.3-7.3-5-11.4-5c-2.7,0-5.5,0.8-8.3,2.2
		c-1.5,0.8-3.1,1.7-4.5,2.5c-2.5,1.4-5.1,2.9-7.7,4.1c-1,0.5-2.3,0.7-3.6,0.7c-1.1,0-2.1-0.2-3-0.5c-5.5-2-11.3-4.4-17.1-7
		c-1.9-0.9-3.7-2.8-4.3-4.6c-1-2.8-1.8-5.7-2.5-8.5c-0.5-1.7-1-3.5-1.5-5.3c-2.3-7.5-8.1-11.9-15.9-11.9c-4.6,0-9.4,0-14.2,0
		c-4.7,0-9.6,0-14.6,0c-8,0-13.7,4.4-16.1,12.2c-0.5,1.6-0.9,3.3-1.4,4.9c-0.8,2.8-1.6,5.7-2.5,8.5c-0.7,1.9-2.4,3.8-4.2,4.7
		C104,32.7,98.3,35,92,37.4c-0.8,0.3-1.8,0.5-2.8,0.5c-0.8,0-2-0.1-3.2-0.7c-2.7-1.3-5.4-2.8-7.9-4.3c-1.5-0.9-3.1-1.7-4.6-2.6
		c-2.8-1.5-5.7-2.3-8.4-2.3c-4.1,0-8,1.7-11.2,4.9C47,39.7,40.1,46.6,33.1,53.7c-5.5,5.5-6.4,12.7-2.7,19.7c0.8,1.5,1.6,3,2.5,4.4
		c1.4,2.5,2.9,5.1,4.2,7.8c0.9,1.9,1,4.6,0.2,6.6c-1.1,2.9-2.3,5.9-3.5,8.7c-1.1,2.6-2.2,5.3-3.2,8c-1,2.8-2.7,4.3-5.4,5
		c-3.8,1-7.6,2.1-11.3,3.2l-1.6,0.5c-7.8,2.3-12.2,8-12.2,16C0,142.8,0,152.5,0,162.4c0,7.9,4.4,13.7,11.8,16c1.8,0.5,3.6,1,5.4,1.5
		c2.7,0.7,5.6,1.5,8.3,2.5c1.9,0.7,3.8,2.4,4.6,4.3c2.5,5.5,4.8,11.1,7.2,17.4c0.7,1.9,0.6,4.3-0.2,6c-1.3,2.6-2.7,5.2-4.1,7.6
		c-1,1.7-2,3.5-2.9,5.2c-3.5,6.7-2.5,13.8,2.6,19.1c6.8,7,13.9,14.1,21.2,21.2c3.1,3.1,7,4.7,11.1,4.7c2.6,0,5.2-0.6,7.7-1.9
		c0.3-0.1,0.6-0.3,0.9-0.4c1.2-0.6,2.4-1.2,3.3-1.9c3.7-3,7.6-4.4,11.8-4.4c3.2,0,6.8,0.8,11.5,2.6c9.7,3.7,14.3,9.1,16.6,19.2
		c2.5,11.3,7.3,14.9,19.5,14.9l0.1,0c0.6,0,1.2,0,1.8,0c0.6,0,1.1,0,1.7,0c0.8,0,1.4,0,2-0.1c2.3-0.2,3.8-1.7,3.9-3.9
		C146,289.9,144.4,288.2,142,288.1z"/>
	<path class="st0" d="M214.8,175.6c0.5,0.2,1,0.2,1.4,0.2c1.8,0,3.2-1.6,4.1-4.6c7.4-23.6,3.3-48.5-11.2-68.3
		c-6.8-9.3-15.8-17.1-25.9-22.4c-10.7-5.6-22.2-8.5-34.2-8.5c-4.3,0-8.7,0.4-13.1,1.1c-15.3,2.7-28.2,8.5-38.4,17.4
		c-10.2,8.9-17.6,21-22.1,35.8c-4.4,14.8-4.8,29-1.1,42.1c3.7,12.9,11.3,25,22.7,35.8c4.1,3.9,9.2,6.9,14.1,9.9
		c1.2,0.7,2.5,1.5,3.7,2.2c0.7,0.5,1.5,0.7,2.2,0.7c1.4,0,2.6-0.8,3.3-2.1c1.1-2.1,0.3-4.2-2.1-5.6c-0.5-0.3-1.1-0.6-1.6-0.9
		c-0.3-0.2-0.6-0.3-0.9-0.5c-27.6-14.6-41.6-46-34.1-76.3c7.5-30.4,34.6-51.7,65.9-51.7l0.1,0c20.5,0,39.4,8.7,51.9,23.9
		c15.8,19.1,20.1,41,13,65.1C211,174.4,213.5,175.2,214.8,175.6z"/>
</g>
</svg>
