<?xml version="1.0" encoding="utf-8"?>
<!-- Generator: Adobe Illustrator 23.0.1, SVG Export Plug-In . SVG Version: 6.00 Build 0)  -->
<svg version="1.1" id="Layer_1" xmlns="http://www.w3.org/2000/svg" xmlns:xlink="http://www.w3.org/1999/xlink" x="0px" y="0px"
	 viewBox="0 0 384 384" style="enable-background:new 0 0 384 384;" xml:space="preserve">
<style type="text/css">
	.st0{fill:#808080;}emailServices1
</style>
<g>
	<path class="st0" d="M251.2,270.7l-1.2-0.2l0-171.7c0-7.2,0-11.2-1.5-12.7c-1.5-1.5-5.3-1.5-12.2-1.5c-14.1,0-28.2,0-42.3,0
		c-14.5,0-29.1,0-43.6,0c-6.9,0-10.7,0-12.2,1.4c-1.4,1.4-1.4,5.1-1.4,11.8c0,39,0,78.1,0,117.1l0,55.6l-1.2,0.2
		c-9.4,1.8-14.1,2.7-16.2,5.3c-2.1,2.6-2.1,7.5-2.1,17.3c0,0.3,0,0.6,0,0.9c0,0.8,0.1,1.5,0,2.4c-0.5,4.2,0,7,1.6,8.7
		c1.7,1.9,4.8,2.7,9.9,2.7c30.5-0.3,61.6-0.3,91.6-0.2c11.6,0,23.1,0,34.7,0c7.4,0,11.4,0,13-1.6c1.6-1.6,1.6-5.6,1.6-12.9
		c0-9.8,0-14.7-2.1-17.3C265.3,273.4,260.6,272.5,251.2,270.7z M147.1,95.1h92.3v176.4h-92.3V95.1z M258.8,297.5h-131V283h131V297.5
		z"/>
	<rect x="162.8" y="117.6" class="st0" width="22.1" height="8.7"/>
	<rect x="201.8" y="117.5" class="st0" width="22" height="8.8"/>
	<rect x="163.3" y="149.9" class="st0" width="21.7" height="8.5"/>
	<rect x="201.9" y="149.7" class="st0" width="21.9" height="8.4"/>
	<rect x="162.8" y="179.6" class="st0" width="22.1" height="8.7"/>
	<rect x="201.8" y="179.5" class="st0" width="22" height="8.8"/>
	<rect x="163.3" y="211.9" class="st0" width="21.7" height="8.5"/>
	<rect x="201.9" y="211.7" class="st0" width="21.9" height="8.4"/>
	<rect x="163.3" y="243.9" class="st0" width="21.7" height="8.5"/>
	<rect x="201.9" y="243.7" class="st0" width="21.9" height="8.4"/>
	<path class="st0" d="M46.7,169.8l-7.5-6.9c-2.2,2.3-4.4,4.6-6.5,6.8c-5.9,6.2-11.5,12-17.2,17.8c-2,2-3,3.8-3,5.5
		c0,1.7,1,3.5,3,5.5c5.8,5.7,11.5,11.6,17.5,17.7c2.2,2.3,4.5,4.6,6.9,7l6.8-7.2l-17.2-18.4h45.4v-9.9H30.2L46.7,169.8z"/>
	<path class="st0" d="M369.8,187.5c-5.8-5.8-11.4-11.6-17.3-17.8c-2.1-2.2-4.3-4.5-6.5-6.8l-7.5,6.9l16.5,18h-44.6v9.9h45.4
		l-17.2,18.4l6.8,7.2c2.3-2.4,4.6-4.7,6.9-7c6-6.2,11.7-12,17.5-17.7c2-2,3-3.8,3-5.5C372.9,191.3,371.9,189.5,369.8,187.5z"/>
	<path class="st0" d="M188.1,22.9v45.4h9.9V23.7l18,16.5l6.9-7.5c-2.3-2.2-4.6-4.4-6.8-6.5c-6.2-5.9-12-11.5-17.8-17.2
		c-2-2-3.8-3-5.5-3c-1.7,0-3.5,1-5.5,3c-5.7,5.8-11.5,11.5-17.7,17.5c-2.3,2.2-4.6,4.5-7,6.9l7.2,6.8L188.1,22.9z"/>
	<path class="st0" d="M198,361.5v-44.6h-9.9v45.4l-18.4-17.2l-7.2,6.8c2.4,2.4,4.7,4.6,7,6.9c6.1,6,12,11.7,17.7,17.5
		c2,2,3.8,3,5.5,3c0,0,0,0,0,0c1.7,0,3.5-1,5.5-3c5.8-5.8,11.6-11.4,17.8-17.3c2.2-2.1,4.5-4.3,6.8-6.5L216,345L198,361.5z"/>
</g>
</svg>
