<?xml version="1.0" encoding="utf-8"?>
<!-- Generator: Adobe Illustrator 23.0.1, SVG Export Plug-In . SVG Version: 6.00 Build 0)  -->
<svg version="1.1" id="Layer_1" xmlns="http://www.w3.org/2000/svg" xmlns:xlink="http://www.w3.org/1999/xlink" x="0px" y="0px"
	 viewBox="0 0 384 384" style="enable-background:new 0 0 384 384;" xml:space="preserve">
<style type="text/css">
	.st0{fill:#808080;stroke:#808080;stroke-width:3;stroke-miterlimit:10;}
	.st1{fill:#808080;}
	.st2{fill:none;stroke:#808080;stroke-width:10;stroke-miterlimit:10;}
</style>
<path class="st0" d="M232.4,50.8H103.8c-1.4,0-2.5,1.1-2.5,2.5v2.9c0,1.4,1.1,2.5,2.5,2.5h128.6c1.4,0,2.5-1.1,2.5-2.5v-2.9
	C234.9,51.9,233.7,50.8,232.4,50.8z"/>
<path class="st0" d="M232.4,80.8H103.8c-1.4,0-2.5,1.1-2.5,2.5v2.9c0,1.4,1.1,2.5,2.5,2.5h128.6c1.4,0,2.5-1.1,2.5-2.5v-2.9
	C234.9,81.9,233.7,80.8,232.4,80.8z"/>
<path class="st1" d="M341.9,165.1c-1.7-0.9-5-1.8-7.3-0.7c-1.6,0.8-6.9,4.5-6.9,4.5v-6.4V92.2l0.1-0.3c0-0.1,0-0.1,0-0.2l0,0
	c0-0.2-0.1-0.5-0.1-0.9v-2c0-1.3-0.5-2.4-1.4-3.3L249.9,9.7l-0.1-0.1c-0.9-1.1-2.2-1.7-3.7-1.7H61.9c-2.7,0-4.8,2.1-4.8,4.7v154.7
	l-3.8-2.2c-1.3-0.8-3.6-1.2-4.9-1.2c-1.5,0-2.8,0.4-4.1,1.2c-1,0.6-1.9,1.3-2.7,2.2c-2.3,2.5-3,6.6-3,9.7v186.7
	c0,3.3,1.3,6.4,3.6,8.7c2.4,2.4,5.5,3.7,8.9,3.7h283.8c3.2,0,6.4-1.3,8.9-3.7c2.3-2.3,3.6-5.4,3.6-8.7V177c0-3-0.6-7.1-2.9-9.7
	C343.7,166.4,342.8,165.6,341.9,165.1z M67.8,18.6h174.8l74.1,74v85L191.3,286l-1.6-1.5c-16.1-14.3-32.5-28.7-48.2-42.7
	c-23.8-21-48.5-42.8-72.8-64.6l-0.8-0.7V18.6z M47.9,172.9l100.4,89L47.9,349.2V172.9z M337.5,363.6c0,0.7-0.2,1.2-0.5,1.7
	c-0.5,0.7-1.3,1.2-2.4,1.2H50.8c-0.7,0-1.2-0.2-1.7-0.5c-0.7-0.5-1.2-1.3-1.2-2.4v-1.9l107.5-93.5l32.6,29l0,0
	c1.7,1.4,4.3,1.3,6.1-0.2l34.4-29.8l109,94.8V363.6z M337.7,349.5L236,261.1L337.7,173V349.5z"/>
<path class="st0" d="M232.4,110.8H103.8c-1.4,0-2.5,1.1-2.5,2.5v2.9c0,1.4,1.1,2.5,2.5,2.5h128.6c1.4,0,2.5-1.1,2.5-2.5v-2.9
	C234.9,111.9,233.7,110.8,232.4,110.8z"/>
<path class="st0" d="M232.4,140.8H103.8c-1.4,0-2.5,1.1-2.5,2.5v2.9c0,1.4,1.1,2.5,2.5,2.5h128.6c1.4,0,2.5-1.1,2.5-2.5v-2.9
	C234.9,141.9,233.7,140.8,232.4,140.8z"/>
<path class="st0" d="M232.4,170.8H103.8c-1.4,0-2.5,1.1-2.5,2.5v2.9c0,1.4,1.1,2.5,2.5,2.5h128.6c1.4,0,2.5-1.1,2.5-2.5v-2.9
	C234.9,171.9,233.7,170.8,232.4,170.8z"/>
<g>
	<path class="st2" d="M194.4,234.5c4.3-7.4,8.2-14.4,12.2-21.3c2-3.6,3.9-7.2,6.1-10.7c2.3-3.7,6.4-5.1,10.8-3.9
		c4.4,1.2,6.1,4.2,4,8c-7.6,13.6-15.4,27.2-23.3,40.8c-2.7,4.6-9.5,5.5-14,1.6c-7.2-6.2-13.9-12.6-20.5-19.1
		c-2.8-2.7-1.6-5.8,1.9-7.5c3.5-1.8,7.9-1.3,11.2,1.5C186.6,227.2,190.2,230.6,194.4,234.5z"/>
</g>
</svg>
