<?xml version="1.0" encoding="utf-8"?>
<!-- Generator: Adobe Illustrator 23.0.1, SVG Export Plug-In . SVG Version: 6.00 Build 0)  -->
<svg version="1.1" id="Layer_1" xmlns="http://www.w3.org/2000/svg" xmlns:xlink="http://www.w3.org/1999/xlink" x="0px" y="0px"
	 viewBox="0 0 380.7 380.4" style="enable-background:new 0 0 380.7 380.4;" xml:space="preserve">
<style type="text/css">
	.st0{fill:#9A9A9A;}
</style>
<g>
	<path class="st0" d="M218.8,96c-3.8,0-7.5,0-11.4,0l-7,0v-1.8c0-3.9,0-7.8,0-11.6c0-8.5,0-16.6,0-24.8
		c-0.2-25.2-20.7-45.7-45.7-45.8c-33.9-0.1-69.6-0.1-109.1,0C25.4,12.1,7.3,25.9,1.8,45.5c-0.5,1.6-0.9,3.2-1.2,4.8
		c-0.2,0.7-0.3,1.4-0.5,2.1v275.4c0,0.1,0,0.1,0.1,0.2c0.2,0.5,0.4,1,0.5,1.6c4.1,23.2,22.6,38.8,46.1,38.8c35.9,0,71.9,0,106.9,0
		c26.6,0,46.8-20.2,46.9-46.9c0-7.2,0-14.4,0-21.6l0-15.5l6.7,0c3.6,0,7.1,0,10.5,0c5.7,0,6.7-1,6.7-6.6c0-10.2,0-20.5,0-30.7
		c0-6.2-0.8-7.1-6.9-7.1c-8.1,0-16.2,0-24.3,0c-17.5,0-35.6,0-53.3-0.1c-26.6-0.2-48.5-22-48.9-48.6c-0.2-13.7,4.8-26.5,14.2-36.1
		c9.4-9.5,22.1-14.8,35.8-14.9c16,0,32.3,0,48.1,0c9.8,0,19.7,0,29.5,0c4.5,0,5.8-1.3,5.8-5.6c0-11.5,0-22.7,0-33.4
		C224.4,97.4,223,96,218.8,96z M200.6,248.6h15.1v27.2h-15.1V248.6z M191.9,132h-5.9c-4.7,0-9.3,0-14,0c-10.3,0-20.7,0-31,0
		c-30.8,0.1-55.3,22.5-58.3,53.3c-2.9,29.1,17.1,55.7,46.4,61.8c3.6,0.8,7.8,1.1,13,1.2c10.5,0.1,21.1,0.1,31.4,0.1
		c4,0,8.1,0,12.1,0h6.1V276H187c-5,0-10,0-15,0c-4.8,0-9.8,0-14.7,0c-6.1,0-12.2,0-18.3-0.1c-19.4-0.2-37.3-6.4-51.9-18.1
		c-14.7-11.8-24.6-27.9-28.5-46.8c-4-19.2-2.9-37.8,3.3-53.9c6.3-16.6,18.1-30.6,34-40.6c12-7.5,24.5-11.5,37.3-11.9
		c13.2-0.4,26.7-0.3,39.8-0.2c5.7,0,11.5,0.1,17.3,0.1h1.8V132z M62.8,243.2c17.7,26.2,42.7,40,74.5,41.2c6.4,0.2,12.8,0.2,19.5,0.1
		c3.1,0,6.2-0.1,9.4-0.1h1.8v1.8c0,3.8,0,7.5,0,11.2c0,9,0.1,17.4-0.1,26.1c-0.2,7.2-6.3,12.6-14.3,12.6c-9.8,0-19.6,0-29.3,0
		c-6,0-12,0-18,0l-17.9,0l-12,0c-9.6,0-19.3,0-28.9,0c-9.4,0-15-5.7-15-15.1c0-87.1,0-174.2,0-261.4c0-9.5,5.6-15.1,15-15.1
		c38.1,0,72.7,0,105.7,0c9.1,0,14.8,5.7,14.8,14.9c0,8,0,16.1,0,24.2l0,12.5h-1.8c-2.7,0-5.3,0-7.9-0.1c-6.1-0.1-11.8-0.1-17.6,0.1
		c-7.9,0.4-15,0.8-22,2.3c-40,8.6-69.7,44.8-70.7,86.2C47.4,208.7,52.1,227.3,62.8,243.2z M192,82.9c0,3.7,0,7.4,0,11.1v1.8h-15.6
		v-5.7c0-3.2,0-6.4,0-9.7c0-7.2,0-14.3,0-21.5c-0.1-13.5-9.5-23-23-23c-38.5,0-73.3,0-106.5,0C33.4,36.1,24,45.4,24,58.8
		c0,88.6,0,177,0,262.9c0,13.1,9.6,22.7,22.9,22.7c35.8,0,71.7,0,106.5,0c13.5,0,22.9-9.5,22.9-23.1c0-7.9,0-15.8,0-23.9
		c0-3.6,0-7.3,0-11v-1.8h15.3l0.1,1.7c0,0.3,0.1,0.7,0.1,1c0.1,0.8,0.1,1.5,0.1,2.4l0,6.4c0,8.3,0,17,0,25.5
		c-0.1,22.3-16.3,38.5-38.6,38.5c-18,0-36,0-53.7,0c-17.9,0-35.5,0-52.8,0C25,360,8.5,343.5,8.4,321.8c-0.1-90-0.1-178.6,0-263.2
		c0-21.7,16.4-38.1,38.2-38.1c36.8-0.1,72.8-0.1,107.3,0c21.6,0.1,38,16.5,38.1,38.2C192,66.7,192,74.9,192,82.9z M215.8,131.7
		h-15.1v-27.1h15.1V131.7z"/>
	<path class="st0" d="M362.8,311.7c-1.2-1.1-2.4-2.2-3.6-3.3l-0.8-0.8l0.4-1.1c5.9-17,3.4-28.7-7.9-36.9c-10.1-7.4-23.5-7.4-33.5,0
		c-11.2,8.3-13.7,20.1-7.8,37.1l0.4,1.1l-0.9,0.8c-1,0.9-2,1.8-3.1,2.7c-2.2,1.9-4.3,3.8-6.2,5.8c-8.9,9.7-12.7,21.9-11.9,38.7
		c0.5,10.9,7.4,20.1,17.5,23.4c0.9,0.3,1.8,0.6,2.7,0.9l0.9,0.3h50.4l1.1-0.4c0.9-0.3,1.8-0.6,2.8-1c6.3-2.2,14.1-7.1,16.1-17.3
		c3.3-17,0.1-31.4-9.5-43C367.8,316.3,365.4,314,362.8,311.7z M334.2,272.4C334.2,272.4,334.2,272.4,334.2,272.4
		c5.3,0,10.3,2.1,14.1,5.9c3.8,3.8,5.8,8.8,5.7,14.1c-0.1,10.8-9,19.5-19.8,19.5c0,0,0,0,0,0c-5.3,0-10.3-2.1-14-5.9
		c-3.7-3.8-5.8-8.8-5.7-14.2C314.5,281.2,323.4,272.4,334.2,272.4z M372,353.9l0,0.7c-0.1,10.2-7.1,17.3-17.3,17.4
		c-0.2,0-0.4,0-0.7,0h-20c-2.1,0-4.2,0-6.4,0c-2,0-4,0-6,0c-2.6,0-5.3,0-7.9,0c-5-0.1-9.5-1.9-12.7-5.1c-3.1-3.2-4.7-7.5-4.6-12.4
		c0.1-6.6,0.6-11.9,1.5-16.6c1.1-6,4.3-11.5,9.8-16.9c6.1-6.1,7.3-6.3,15.1-3c8.8,3.7,17.3,3.2,25.4-1.5c2.8-1.6,5-1.5,7.6,0.4
		c10.1,7.4,15.5,17.5,16.1,30C372.1,349.3,372,351.6,372,353.9z"/>
	<path class="st0" d="M312,116.3c15,0.3,30,0.3,44.5,0c10.9-0.2,21-8.4,22.9-18.6c3.3-17.3,0.1-31.4-9.6-43c-2.1-2.5-4.5-4.7-7-7
		c-1.2-1.1-2.4-2.2-3.5-3.3l-0.8-0.8l0.4-1.1c5.8-16.3,3.4-28.2-7.4-36.6C346.3,2,340.3,0,334.2,0c-5.6,0-11.1,1.7-15.9,5
		c-11.8,8.2-14.4,19.5-8.7,37.8l0.3,1.1l-0.8,0.8c-1,0.9-2,1.8-3,2.6c-2.2,1.9-4.2,3.6-6,5.6c-10.5,11.5-14.2,25.7-11.3,43.6
		C290.5,107.6,300.5,116.1,312,116.3z M320.3,14.2c3.8-3.8,8.8-5.8,14.1-5.7c10.8,0.1,19.6,9,19.6,19.8v0c0,5.3-2.1,10.3-5.9,14
		c-3.8,3.7-8.7,5.7-13.9,5.7c-0.1,0-0.1,0-0.2,0c-10.8-0.1-19.6-9-19.6-19.8C314.4,22.9,316.5,17.9,320.3,14.2z M302.9,62.8
		c1.6-2.3,3.5-4.5,5.6-6.5c5.6-5.5,6.8-5.7,14-2.5c8.8,3.9,17.4,3.5,25.7-1.2c2.9-1.7,5.2-1.5,7.9,0.5c9.4,7,14.7,16.5,15.8,28.2
		c0.3,3.4,0.2,6.8,0.1,10.3c-0.3,9.1-7.2,16-16.4,16.4c-0.3,0-0.6,0-0.8,0l-15.5,0l-5.2,0c-2,0-4,0-6,0c-2.2,0-4.4,0-6.6,0
		c-2.6,0-5.2,0-7.7,0c-10.3-0.1-17.2-7-17.5-17.6C296.1,81.7,296.7,71.6,302.9,62.8z"/>
	<path class="st0" d="M312,248.3c14.9,0.3,29.9,0.3,44.5,0c11.1-0.2,20.9-8.2,22.9-18.6c3.3-17.1,0.2-31.1-9.3-42.7
		c-2.1-2.6-4.6-4.9-7.2-7.3c-1.2-1.1-2.4-2.2-3.6-3.4l-0.8-0.8l0.4-1.1c5.8-16.4,3.3-28.4-7.7-36.7c-5.1-3.8-11-5.7-17-5.7
		c-5.7,0-11.3,1.7-16.2,5.1c-11.5,8.1-14,19.7-8.4,37.6l0.3,1.1l-0.9,0.8c-1,0.9-2,1.8-3,2.6c-2.2,1.9-4.2,3.6-6,5.6
		c-10.6,11.6-14.3,25.9-11.3,43.9C290.6,239.7,300.6,248.1,312,248.3z M320.1,146.4c3.7-3.8,8.7-5.9,13.9-5.9
		c5.3-0.1,10.3,2,14.1,5.8c3.8,3.8,5.9,8.8,5.8,14c0,10.8-8.9,19.7-19.7,19.7c0,0-0.1,0-0.1,0c-10.8,0-19.7-8.7-19.8-19.4
		C314.3,155.2,316.4,150.2,320.1,146.4z M299.3,201.4c3.1-7.2,7.8-12.9,13.8-16.8c1.7-1.1,4.6-1.2,6.4-0.3c9.9,5.4,19.5,5.4,29.4,0
		c1.8-1,4.8-0.8,6.4,0.3c10.3,7,15.9,17,16.7,29.7c0.2,2.6,0.1,5.1,0.1,7.6l0,0.8c-0.2,10-7.2,17.1-17.1,17.2c-2.7,0-5.3,0-8,0
		c-2.1,0-4.2,0-6.3,0c-4.1,0-8.2,0-12.2,0c-4.7,0-9.6,0-14.4,0c-10.3-0.1-17.4-7.2-17.5-17.6C296.3,214.9,296.4,208.1,299.3,201.4z"
		/>
	<path class="st0" d="M200,158.7c-0.8-1.9-2.2-2.7-4.6-2.7c0,0,0,0,0,0c-3.5,0-6.9,0-10.4,0c-2.4,0-4.9,0-7.3,0
		c-5.5,0-11.1,0-16.7,0.2c-1.5,0-3.7,1.3-4.7,2.6c-2.9,3.8-5.5,7.8-8,11.7c-1.1,1.6-2.1,3.3-3.2,4.9c-1.6,2.3-1.4,4.2,0.6,6.2
		c0.5,0.5,1,1.1,1.6,1.6c1.7,1.7,3.4,3.5,5.3,5.2c2.6,2.4,2.1,4.8,1.3,6.6c-1.8,4.4-3.6,8.8-5.3,13.2c-1.2,3.1-2.5,6.2-3.8,9.3
		c-1.1,2.8-0.8,4.5,1,5.9c1.8,1.3,3.4,1.2,5.8-0.5c5.7-4.1,11.4-8.1,17.1-12.2c7.7-5.5,15.4-11,23.2-16.6c1.7-1.2,2.6-2.4,2.7-3.7
		c0.1-1.3-0.6-2.7-2.2-4.3c-1.4-1.5-2.9-2.8-4.7-4.4c-0.8-0.8-1.7-1.5-2.6-2.4l-1.4-1.3l5.5-5.4c3.2-3.2,6.3-6.1,9.3-9
		C200.4,162,200.8,160.5,200,158.7z M183.9,189.6l-21.3,15.3l-3-1.6l0.6-1.5c0.4-0.9,0.7-1.8,1.1-2.7c0.8-2.1,1.6-4.2,2.5-6.3
		c1-2.5,0.7-4.3-1.3-6.1l-0.6-0.6c-2-1.9-4-3.8-5.8-5.9c-1-1.2-1.3-3.7-0.5-5.1c1.7-3,3.7-5.8,5.4-8.3c0.7-1,2-2.1,3.4-2.1
		c4.2-0.1,8.4-0.1,12.5-0.1l4.9,0l1.6,3l-1,0.9c-0.6,0.6-1.3,1.2-1.9,1.8c-1.4,1.3-2.8,2.6-4.1,4c-3.3,3.3-3.2,4.9,0.1,8.3
		c1.2,1.2,2.5,2.4,3.8,3.7c0.7,0.6,1.3,1.3,2,1.9L183.9,189.6z"/>
	<path class="st0" d="M244.1,98.4c1.4,0.1,2.8,0.1,4.2,0c0.7,0,1.3,0,2,0h0c0.6,0,1.2,0,1.9,0c1.4,0,2.7,0,4,0
		c2.6-0.2,4.2-1.7,4.1-4.2c0-2.4-1.5-4-3.9-4.1c-2.1-0.1-4.2-0.1-6.3-0.1c-2.1,0-4.2,0-6.3,0.1c-2.4,0.1-3.9,1.6-3.9,4
		C240,96.6,241.5,98.2,244.1,98.4z"/>
	<path class="st0" d="M274.5,114.1c-4.1-0.2-8.4-0.2-12.6,0c-2.4,0.1-3.9,1.6-3.9,4c0,2.5,1.5,4.1,4.1,4.2c1.3,0.1,2.6,0.1,4,0
		c0.6,0,1.3,0,1.9,0c0,0,0,0,0,0c0.7,0,1.3,0,2,0c1.5,0,2.9,0,4.3,0c2.6-0.2,4.1-1.7,4.1-4.2C278.3,115.8,276.9,114.2,274.5,114.1z"
		/>
	<path class="st0" d="M243.9,146.3c4.2,0.2,8.4,0.2,12.6,0c2.4-0.1,3.8-1.7,3.9-4.1c0-2.5-1.5-4.1-4.1-4.2c-1.3-0.1-2.6-0.1-4,0
		c-0.6,0-1.3,0-1.9,0c-0.7,0-1.3,0-2,0c-0.7,0-1.3,0-2,0c-0.8,0-1.5,0-2.3,0.1c-2.6,0.2-4.1,1.7-4.1,4.2
		C240.1,144.7,241.5,146.2,243.9,146.3z"/>
	<path class="st0" d="M256.7,234.1c-1.4-0.1-2.7-0.1-4.2-0.1c-0.1,0-0.1,0-0.2,0v0h-1.8c-0.7,0-1.5,0-2.3,0c-0.7,0-1.5,0-2.2,0
		c-0.9,0-1.7,0-2.5,0.1c-2.4,0.3-3.5,1.6-3.5,4.1c0,1.7,0.6,3.9,3.4,4.1c4.1,0.3,8.6,0.3,13.3,0c0.8,0,3.4-0.2,3.6-4
		C260.5,236,259,234.3,256.7,234.1z"/>
	<path class="st0" d="M274.4,258.1c-1.4-0.1-2.8-0.1-4.2,0c-0.7,0-1.3,0-2,0l-1.8,0c0,0-0.1,0-0.1,0c-0.6,0-1.2,0-1.8,0
		c-0.7,0-1.4,0-2.2,0.1c-2.7,0.2-4.2,1.7-4.2,4.1c0,2.5,1.5,4.1,4.1,4.2c4.1,0.1,8.2,0.1,12.2,0c2.4-0.1,3.9-1.6,4-4
		C278.5,259.9,276.9,258.3,274.4,258.1z"/>
	<path class="st0" d="M256.5,282.1c-4.2-0.2-8.4-0.2-12.6,0c-2.4,0.1-3.8,1.7-3.9,4.1c0,2.5,1.5,4.1,4.1,4.2c1.3,0.1,2.6,0.1,4,0
		c0.6,0,1.3,0,1.9,0c0.7,0,1.3,0,2,0c1.5,0,2.9,0,4.3,0c2.6-0.2,4.1-1.7,4.1-4.2C260.3,283.8,258.8,282.2,256.5,282.1z"/>
	<path class="st0" d="M88.6,314.4c2.7,0.1,5.4,0,8,0c2.4,0,4.7,0,7.1,0c2.6,0,5.4,0,8,0c2.1,0,4.5-0.8,4.6-4.1c0-1.2-0.3-2.3-1-3
		c-0.8-0.8-1.9-1.2-3.3-1.2c-3.9-0.1-7.8-0.1-11.8-0.1c-3.9,0-7.9,0-11.8,0.1c-1.4,0-2.6,0.4-3.3,1.2c-0.7,0.7-1.1,1.8-1.1,3
		C84.1,313.6,86.6,314.3,88.6,314.4z"/>
	<path class="st0" d="M51.7,314.3c1.3,0.1,2.7,0.1,4.2,0.1c0.7,0,1.3,0,2,0l6,0c0.2,0,0.4,0,0.6,0c2.4-0.3,3.9-1.8,3.9-4.2
		c0-2.4-1.5-4-3.8-4.1c-2.2-0.1-4.4-0.1-6.5-0.1c-2.2,0-4.4,0.1-6.5,0.2c-1.1,0.1-2,0.5-2.6,1.2c-0.7,0.8-1,1.8-1,3
		C48.2,312.8,49.4,314.1,51.7,314.3z"/>
	<path class="st0" d="M136.2,314.4c1.3,0.1,2.6,0.1,4,0c0.6,0,1.2,0,1.9,0h0c0.7,0,1.4,0,2,0c1.5,0,2.9,0,4.2,0c2.5-0.2,4-1.6,4.1-4
		c0.1-2.5-1.4-4.2-3.9-4.3c-2.1-0.1-4.2-0.1-6.2-0.1c-2.1,0-4.3,0-6.4,0.1c-2.4,0.1-3.8,1.7-3.8,4.1
		C132,312.7,133.5,314.2,136.2,314.4z"/>
</g>
</svg>
