<?xml version="1.0" encoding="utf-8"?>
<!-- Generator: Adobe Illustrator 23.0.1, SVG Export Plug-In . SVG Version: 6.00 Build 0)  -->
<svg version="1.1" id="Layer_1" xmlns="http://www.w3.org/2000/svg" xmlns:xlink="http://www.w3.org/1999/xlink" x="0px" y="0px"
	 viewBox="0 0 504.7 504.2" style="enable-background:new 0 0 504.7 504.2;" xml:space="preserve">
<style type="text/css">
	.st0{fill:#9A9A9A;}
</style>
<g>
	<path class="st0" d="M502.7,115.3c0.2-1,3.2-23.1-0.5-39.8c-1.1-4.1-2.1-7.9-3.5-11.6C486,31,462,10,427.5,1.7
		c-0.9-0.2-27.9-3.6-41.3,0.2c-3.4,0.9-6.8,1.9-10.1,3c-25.9,9.3-45,26.7-56.8,51.9c-0.4,0.9-0.8,1.9-1.3,2.8
		c-0.3,0.7-0.6,1.4-1,2.2c-0.4,0.9-1.1,1.4-1.4,1.6c-0.1,0.1-0.2,0.1-0.3,0.2l-1.3,1l-1.6-0.5c-39.9-12.4-80.4-12.3-120.3,0.1
		l-2.6,0.8l-1.2-2.4c-0.8-1.6-1.6-3.2-2.4-4.8c-1.7-3.4-3.2-6.6-5-9.7c-14.6-24.3-36-39.8-63.9-46.4C116.5,1.6,106.3,0,96.4,0
		c-9.2,0-18.2,1.4-18.6,1.5C36.3,11.7,11,36.9,2.5,76.5c-8.5,40.2,4.7,73.6,39.2,99.4c4.3,3.2,9.1,5.7,14.1,8.4
		c2.3,1.2,4.8,2.5,7.1,3.9l2.3,1.3l-0.8,2.5c-12.4,39.8-12.3,80.3,0.2,120.5l0.8,2.6l-2.4,1.3c-0.3,0.2-0.6,0.3-0.9,0.5
		c-0.6,0.3-1.1,0.6-1.8,0.9c-42.4,18.6-64.6,57.1-59,102.7c0.9,7.5,3.6,15.1,6.3,22.5c0.7,2,1.4,3.9,2.1,5.8c0.4,1.1,1,1.9,2,2.3
		c0.9,0.4,2.1,0.4,3.1,0c2.3-1,3.2-2.4,2.8-4.8c-0.1-0.7-0.5-1.5-0.9-2.4c-0.2-0.5-0.5-1-0.7-1.6c-13.2-33.1-9-63.4,12.4-90.1
		c21.7-27,51-37.9,84.8-31.6c36.2,6.8,60.2,29.2,69.4,64.6c9.3,36-1.1,67.4-30.2,90.8c-28.4,22.8-61.2,26.2-95.1,9.9
		c-5.2-2.5-9.9-6-14.4-9.5c-1.6-1.2-3.3-2.5-5-3.7c-2.1-1.5-4.4-1.5-5.7-0.8c-1,0.5-1.5,1.4-1.5,2.7c0,1.5,1.4,4,2.9,5.4
		c23.1,20.6,54,28.5,84.6,21.7c30.7-6.8,55.4-27.1,67.7-55.7c0.5-1.2,1.1-2.3,1.6-3.4c0.2-0.5,0.5-1,0.7-1.5l1.2-2.5l2.7,0.8
		c40.5,12.5,80,12.6,120.8,0l2.7-0.8l1.2,2.6c0.3,0.5,0.5,1.1,0.7,1.6c0.5,1.1,1,2.1,1.5,3.2c15.8,36.7,52.4,59.6,93.2,58.2
		c38.3-1.3,74.1-27.8,86.9-64.5c1.3-3.7,2.4-7.6,3.4-11.4c0.5-1.7,2.2-18.3,2.2-22.3c0-10.1-2.8-20.5-3.7-23.4
		c-2.1-6.6-4.3-13.4-7.3-19.6c-10-20.1-26-35-47.6-44.5c-1-0.4-1.9-0.9-2.8-1.4c-0.4-0.2-0.8-0.4-1.2-0.6l-2.3-1.1l0.5-2.5
		c12.4-59.2,12.4-63.7,0.2-121l-0.5-2.3l2-1.2c2.6-1.6,5.3-3.1,7.9-4.5c5.7-3.2,11.1-6.3,16.1-10
		C485.3,159.3,497.7,139.6,502.7,115.3z M469.9,344.7c16.9,16.8,26.1,39.1,26.1,62.7c0,48.6-39.6,88.3-88.3,88.4c-0.1,0-0.1,0-0.2,0
		c-23.6,0-45.8-9.2-62.5-26c-16.8-16.8-26-39-26-62.5c0-48.6,39.6-88.2,88.3-88.4c0.1,0,0.2,0,0.3,0
		C431.1,318.9,453.2,328,469.9,344.7z M431.7,310.1l-0.8,2.7l-2.8-0.5c-35.2-6-65.1,2.9-88.7,26.6c-23.7,23.7-32.7,53.5-26.7,88.7
		l0.5,2.8l-2.7,0.9c-19.4,6.1-38.6,9.2-57.9,9.2c-19.2,0-38.5-3-58.2-9.1l-2.7-0.8l0.5-2.8c6-35.3-3-65.2-26.8-88.8
		c-23.6-23.6-53.5-32.5-88.6-26.5L74,313l-0.9-2.7c-12.3-39-12.3-77-0.1-116.2l0.8-2.5l2.7,0.3c1.4,0.2,2.8,0.3,4.2,0.5
		c3,0.3,5.8,0.6,8.7,0.9c17.7,1.6,35.2-1.8,51.8-10.2c3.1-1.5,5-3.2,5.5-4.6c0.2-0.5,0.3-1.3-0.5-2.8c-0.9-1.6-2-3.6-8.7-0.2
		c-43,21.8-94.5,6.1-117.3-35.7c-18.2-33.3-16-66.4,6.3-96c22.7-30.3,54.1-41.7,90.7-33c35.8,8.5,58.8,32.5,66.4,69.4
		c5.1,24.7-0.4,48.2-16.4,69.9c-0.2,0.3-0.4,0.6-0.7,0.9c-0.2,0.2-0.4,0.5-0.5,0.7c-1,1.4-2.9,4.7,0,6.9c2.7,2,5,0.2,6.4-1.6
		c10-12.5,16.7-27,19.6-43c2.1-11.3,2.2-22.6,0.2-33.6c-0.2-1-0.2-2-0.3-3.1c0-0.5-0.1-1-0.1-1.6l-0.2-2.6l2.5-0.8
		c39-12.2,76.9-12.2,116,0l2.7,0.8l-0.5,2.8c-6.1,35.2,2.9,65.1,26.6,88.8c23.6,23.6,53.5,32.6,88.8,26.6l2.8-0.5l0.8,2.7
		C443.9,232.5,443.9,270.6,431.7,310.1z M407.8,185.1L407.8,185.1c-23.6,0-45.8-9.2-62.6-26c-16.8-16.8-26-39-26-62.6
		c0-23.5,9.2-45.7,25.9-62.4c16.7-16.7,38.8-25.9,62.3-25.9c0,0,0,0,0.1,0c23.7,0,45.9,9.2,62.7,26c16.8,16.7,26,38.9,26,62.5
		C496,145.4,456.4,185.1,407.8,185.1z"/>
	<path class="st0" d="M73,434.5c0,3.5,1.3,6.2,3.5,7.4c2.2,1.2,5.1,1,8.1-0.7c16.7-9.5,33.1-18.9,48.7-28.1c3.1-1.8,4.9-4.3,4.9-6.8
		s-1.8-5-5-6.9c-16.2-9.5-32.6-18.9-48.7-28.1c-1.7-1-3.4-1.5-5-1.5c-1.1,0-2.1,0.3-3,0.8c-2.2,1.3-3.5,4-3.5,7.6
		c-0.1,6.4,0,13,0,19.3c0,2.8,0,5.7,0,8.5c0,2.9,0,5.8,0,8.7C72.9,421.3,72.9,427.9,73,434.5z M81.6,379.5l46.5,26.8l-46.5,26.9
		C81.6,433.2,81.6,379.5,81.6,379.5z"/>
	<path class="st0" d="M310.8,183.9c0-0.7,0-2.1-0.1-2.6c-2.3-2.5-4.1-3.4-4.7-3.4l0,0c-0.7,0.1-2.5,1.4-3,2.1
		c-0.2,7.3-5.4,9.9-9.2,11.7l-0.5,0.2c-1.7,0.8-3.4,1.7-5,2.5c-5,2.5-10.1,5.1-15.4,7.2l-1.4,0.6c-14.3,5.7-29.1,11.7-46.1,9.2
		c-3.4-0.5-6.9-0.7-10.5-0.7c-3.2,0-6.4,0.1-9.6,0.3c-2.4,0.1-4.9,0.2-7.3,0.2c-6.3,0.1-11.2,4.8-11.3,11c-0.2,13.8-0.2,27.5,0,40.8
		c0.1,5.7,4.6,10.3,10.7,10.8c1.6,0.1,3.2,0.2,5,0.3c0.9,0,1.9,0.1,2.9,0.1l2.9,0.1l0.3,5c0.1,1.3,0.1,2.4,0.2,3.5
		c0.2,4.4,0.4,8.7,0.6,13.1c0.5,9.7,1,19.8,1.5,29.7c0.2,3.6,1.7,5.4,4.5,5.3c1,0,4-0.2,3.9-5.2c-0.1-3.4-0.2-6.9-0.4-10.2
		c-0.1-1.2-0.1-2.4-0.2-3.6c-0.4-8.2-0.8-16.3-1.2-24.7l-0.7-13.5l3.7,0.3c3.4,0.3,6.9,0,10.5-0.4c6.6-0.6,13.4-1.3,20.3,2.2
		c0.7,0.3,1.6,0.6,2.6,0.8c0.5,0.1,1.1,0.3,1.6,0.4c1.6,0.5,5.6,1.2,6.7-2.2c0.4-1.3,0.3-2.4-0.2-3.3c-0.7-1.1-2.1-2-4.1-2.6
		c-4-1.3-8.1-2.5-12-3.6c-1.8-0.5-3.5-1-5.2-1.6l-2.3-0.7v-39.7L302,199v88.9l-4.7-2.3c-1.1-0.5-2.1-1-3.1-1.5c-2-1-3.9-1.9-5.7-2.8
		c-2.1-1-4.9-1.5-6.4,1.4c-1.6,3.1,0.9,5.1,2.5,6c3.2,1.8,7.4,4,11.8,6.1c2.8,1.4,6.1,3.6,6.2,9.3c0,0.8,0,3.1,3.7,3.4
		c2.4,0.1,3.6-0.8,4.3-3.3c0.3-1.1,0.3-2.5,0.3-4V300c0-31.7,0-73.4,0-115.2C310.8,184.6,310.8,184.2,310.8,183.9z M229.3,265.2
		h-33.9V220h33.9L229.3,265.2L229.3,265.2z"/>
	<path class="st0" d="M141,55.4h-0.4c-0.3,0.1-1.1,0.7-1.6,1.1c-0.4,0.3-0.8,0.6-1.2,0.9c-3.9,2.6-7.6,2.6-11.6,0.2
		c-6.6-3.9-13.6-4.4-21.1-1.4c-8.5,3.4-13.4,9.8-15.6,20.2l-0.6,3.1L85.8,79c-11.7-2-21-7.7-28.6-17.2c-1.4-1.8-3.1-2.9-4.6-2.9
		c-0.1,0-0.3,0-0.4,0c-1.3,0.2-2.4,1.3-3.2,3.2c-6.2,15.6-7.3,39.3,10.2,54.6c0.7,0.6,1.3,1.4,1.9,2.2c0.3,0.4,0.7,0.9,1.1,1.4
		l3.9,4.7l-6.1,0.6c-1.8,0.2-3.5,0.3-5.2,0.5c-3.7,0.4-7.1,0.7-10.5,1c-3,0.3-3.9,1.4-4.3,3.2c-0.5,2.3,0.2,3.8,2.1,4.8
		c24.6,12.7,46.8,12.7,67.9-0.2c17.2-10.5,26.8-27.2,28.5-49.7c0.4-5.3,1.3-9.7,4.3-14.1c2.2-3.2,3.8-7.1,4.6-11.1
		c0.2-1.2-0.6-3.7-1.6-4.5C145.2,55,142.2,55.3,141,55.4z M129.8,87.9c-2.5,27.4-24.9,47.6-51.7,47.6c-1.4,0-2.8-0.1-4.2-0.2
		l-9.4-0.7l7.8-5.2c0.9-0.6,1.7-1.1,2.4-1.6c1.3-0.8,2.3-1.5,3.1-2.1c1.3-1.1,2-2.4,2-3.8c-0.1-1.3-0.9-2.6-2.3-3.5
		c-1.2-0.8-2.5-1.5-3.9-2.2c-1.9-1-3.8-2.1-5.7-3.4C56.8,104.7,52,93.2,53.7,78.4l0.6-5.2l6.6,4.2c1.5,0.9,2.8,1.8,4.2,2.7
		c8,5,17,7.6,26.7,7.8c5,0.1,6.3-1.1,6.4-6.4c0-0.4,0-0.8,0-1.2c0-1.3,0-2.7,0.2-4.2c1-6.7,6.7-12.2,13.5-13.1
		c6.2-0.8,17.2,3.7,18,9.7C130.6,77.9,130.2,83.3,129.8,87.9z"/>
	<path class="st0" d="M432.7,42.2c-11.1-1.3-20.1-0.8-27.5,5.9c-5.7,5.2-8.4,11.8-8.4,20.3c0,4.3,0,8.5,0,13c0,2,0,4,0,6.1v3.2h-5.5
		c-1.3,0-2.4,0-3.5,0c-0.6,0-1.1,0-1.7,0c-1.2,0-2.4,0-3.4,0.1c-2.5,0.3-4.2,2.2-4,4.3c0.4,3.4,2.3,4,4.1,4c2.1,0.1,4.3,0.1,6.8,0.1
		c1.2,0,2.5,0,3.9,0h3.3v9.3c0,3.6,0,7.2,0,10.8c0,8.6,0,17.4,0,26.1c0,2.1,0.4,3.8,1.3,4.7c0.2,0.3,1,1.1,3,1.1c0,0,0,0,0.1,0
		c1.3,0,4.1,0,4.1-6c0.1-7.4,0-14.9,0-22.2c0-3.1,0-6.1,0-9.2V99.2h3.3c1.2,0,2.4,0,3.5,0c2.2,0,4.4,0,6.4,0c2.3,0,4-0.6,5-1.5
		c0.6-0.6,0.9-1.5,0.9-2.7c-0.1-3.3-3.2-4.1-5.7-4.2c-2.2,0-4.3,0-6.7,0c-1.1,0-2.2,0-3.3,0h-3.3v-3.3c0-2.4,0-4.7-0.1-6.9
		c-0.1-5-0.1-9.7,0.1-14.4c0.5-9.3,6.7-15.4,16.3-15.9c1.6-0.1,3.2-0.1,4.7-0.1c1.8,0,3.5,0,5.2-0.1c2.4-0.2,3.5-1.4,3.8-3.8
		C435.5,45.5,435.5,42.5,432.7,42.2z"/>
	<path class="st0" d="M438.1,357.6c-7-0.1-14.2-0.1-21.1,0c-3.1,0-6.2,0-9.3,0c-3.2,0-6.4,0-9.6,0c-3.1,0-6.3,0-9.5,0
		c-3.9,0-7.9,0-11.8,0.1c-12.3,0.1-19.1,6.9-19.1,19.2c-0.1,21.1-0.1,41.7,0,61.3c0.1,12.1,7.1,19.1,19.2,19.1
		c21.9,0.1,41.9,0.1,61.3,0c12.1,0,19.1-7.1,19.1-19.2c0.1-18.2,0.1-38.1,0-60.8C457.4,364.5,450.7,357.7,438.1,357.6z M448.9,438.1
		c0,7.3-3.4,10.6-10.9,10.6c-7.2,0-14.4,0-21.5,0c-6,0-12,0-18,0c-2.9,0-5.9,0-8.9,0c-4.2,0-8.4,0-12.5,0c-7.5,0-10.8-3.3-10.9-10.7
		c-0.1-20.3-0.1-41,0-61.4c0-7.3,3.2-10.5,10.4-10.5c20.7-0.1,41.6-0.1,61.9,0c7.2,0,10.4,3.3,10.4,10.6
		C449,397.7,449,418.4,448.9,438.1z"/>
	<path class="st0" d="M408.1,388c-0.1,0-0.3,0-0.4,0c-5,0-9.7,1.9-13.4,5.4c-3.7,3.6-5.9,8.3-6,13.4c-0.1,5.4,1.8,10.4,5.4,14.1
		c3.5,3.7,8.4,5.7,13.6,5.8c0.1,0,0.1,0,0.2,0c10.7,0,19.2-8.3,19.3-18.9C427,397.1,418.6,388.2,408.1,388z M415.1,415.1
		c-2,2-4.7,3-7.6,3c-0.1,0-0.1,0-0.2,0c-2.9,0-5.6-1.2-7.6-3.3c-2-2.1-3-4.8-3-7.7c0.1-2.9,1.2-5.6,3.3-7.6c2.1-2,4.8-3.1,7.7-3.1
		c5.9,0.1,10.7,5,10.6,11C418.3,410.4,417.2,413.1,415.1,415.1z"/>
</g>
</svg>
