<?xml version="1.0" encoding="utf-8"?>
<!-- Generator: Adobe Illustrator 23.0.1, SVG Export Plug-In . SVG Version: 6.00 Build 0)  -->
<svg version="1.1" id="Layer_1" xmlns="http://www.w3.org/2000/svg" xmlns:xlink="http://www.w3.org/1999/xlink" x="0px" y="0px"
	 viewBox="0 0 381 271.6" style="enable-background:new 0 0 381 271.6;" xml:space="preserve">
<style type="text/css">
	.st0{fill:#9A9A9A;}
</style>
<path class="st0" d="M379.7,18.6C376.3,7,366.3,0.1,352.9,0.1c-69.8,0-139.6,0-209.4,0L83,0l-0.6,0c-0.5,0-1,0-1.5,0
	c-2.7,0.2-4.4,1.7-4.4,4.1c0,2.4,1.6,4,4.3,4.1c0.7,0,1.5,0,2.3,0c0.3,0,0.7,0,1,0h69.1c66.6,0,133.2,0,199.7,0
	c12.6,0,19.9,7.2,19.9,19.8c0,71.9,0,143.7,0,215.6c0,12.1-7.4,19.6-19.4,19.6c-108.6,0-217.2,0-325.9,0c-11.7,0-19.2-7.6-19.2-19.3
	c0-72.1,0-144.2,0-216.4c0-11.8,7.4-19.2,19.3-19.3c4.6,0,9.2,0,13.8,0c5.3,0,10.6,0,15.9,0c2.9,0,4.8-1.5,4.9-4
	c0-1.1-0.3-2.1-1-2.8c-0.9-0.9-2.3-1.4-3.9-1.4l-4.7,0C43.5,0,34.3-0.1,25.3,0.1C14.6,0.3,5,7.4,1.4,17.7c-0.4,1-0.7,2-1,3.1L0,22
	v227.4c0,0.1,0.1,0.1,0.1,0.2c0.2,0.4,0.4,0.9,0.6,1.4c3.3,12.6,13.3,20.4,26.1,20.4c117.6,0,224.7,0,327.4,0
	c15.6,0,26.9-11.4,26.9-27c0-75,0-148.1,0-217.5C380.9,24.2,380.5,21.3,379.7,18.6z"/>
<path class="st0" d="M360.1,92.9c0-21.2,0-42.5,0-63.7c0-7.1-1.1-8.2-8.2-8.2c-47.1,0-94.3,0-141.4,0c-54.6,0-109.2,0-163.8,0
	c-6.8,0-8,1.2-8,8c0,71.2,0,142.5,0,213.7c0,6.7,1.2,7.9,8.1,7.9h305.2c6.7,0,8-1.3,8-8c0-40.6,0-81.2,0-121.9l0-0.7
	c0-0.9,0-1.7-0.1-2.5c-0.2-1.7-1.3-3.5-3.4-3.3c-1.3,0.1-3.1,1.3-4.5,3c-0.3,0.4-0.3,1.9-0.3,2.8c0,0.3,0,0.6,0,0.9
	c0,32.8,0,65.5,0,98.3v22.8H47.4V29.3h304.5l0,17.5c0,15.5,0,31,0,46.5c0,1.4,0.1,2.8,0.5,3.9c0.4,1.1,1.1,2,1.9,2.4
	c0.6,0.3,1.3,0.3,2,0.1c1.5-0.5,3.1-2.7,4-4c0.1-0.2,0-1,0-1.5C360.2,93.8,360.1,93.3,360.1,92.9z"/>
<path class="st0" d="M266,100c-9.4,0-18.3,3.7-25.1,10.4c-6.8,6.8-10.6,15.8-10.6,25.2c0,19.7,16,35.8,35.7,35.8c0,0,0.1,0,0.1,0
	c9.4,0,18.3-3.7,25-10.4c6.8-6.8,10.6-15.8,10.6-25.3c0-19.7-15.9-35.8-35.6-35.8C266.1,100,266,100,266,100z M293.5,135.9
	c0,7.4-2.9,14.3-8.2,19.5c-5.2,5.1-12,7.9-19.2,7.9c-0.1,0-0.1,0-0.2,0c-15.2-0.1-27.4-12.5-27.4-27.6c0-7.3,3-14.2,8.2-19.4
	c5.2-5.1,12-8,19.2-8c0.1,0,0.1,0,0.2,0C281.3,108.4,293.5,120.8,293.5,135.9z"/>
<path class="st0" d="M210.8,119.1c-0.5-9.7-8.4-17.5-18.6-18.7c-4.3-0.5-8.8-0.4-13.2-0.4c-1.4,0-2.8,0-4.2,0
	c-2.7,0-4.3,0.3-5.1,1.2c-0.8,0.8-1.2,2.4-1.2,5.2c0,13.6,0,27.2,0,40.8l0,8.3c0,1.1,0,2.1,0,3.2c0,2.9,0,5.9,0.1,8.8
	c0.1,2.5,1.6,4.1,3.9,4.1c2.2,0.1,3.9-1.6,4.1-4c0.2-1.7,0.1-3.5,0.1-5.4c0-0.7,0-1.3,0-2c0-3.6,0-7.2,0-11.1l0-9.4l6.9,7.8
	c2.8,3.2,5.4,6.1,7.9,8.9c1.3,1.5,2.7,3.1,4,4.6c2.4,2.8,4.9,5.6,7.3,8.3c1.6,1.7,3.9,3.4,6.5,1.3c0.8-0.7,1.3-1.5,1.4-2.5
	c0.1-1.3-0.5-2.8-1.7-4.3c-0.3-0.4-0.7-0.8-1-1.2c-0.2-0.3-0.5-0.5-0.7-0.8L189.9,142l3.4-1.1c0.6-0.2,1.1-0.3,1.6-0.5
	C205.1,137.6,211.3,129.2,210.8,119.1z M202.5,121.7c-0.5,5.7-5.4,10.5-11.3,11c-1.6,0.1-3.2,0.2-4.8,0.2c-1.3,0-2.5,0-3.8-0.1
	c-1.3,0-2.7-0.1-4.1-0.1h-1.5v-24.9l1.6,0.1c1.5,0.1,3.1,0.2,4.6,0.2c3.4,0.1,7,0.2,10.4,0.9C199.1,110.2,203,115.7,202.5,121.7z"/>
<path class="st0" d="M145,112c5.4,3,6.8,0.6,7.4-0.5c0.6-1,0.7-1.9,0.5-2.8c-0.4-1.3-1.7-2.7-3.8-3.9c-5.4-3.1-11.6-4.8-18.2-4.9
	c-15.8,0.4-29.4,10.6-33.9,25.4c-4.5,14.6,1,30.5,13.5,39.5c13.8,9.9,32.6,8.7,42.8-2.8c2.3-2.5,2.5-4.7,0.6-6.5
	c-0.8-0.8-1.7-1.2-2.7-1.2c-1.2,0-2.5,0.7-3.7,1.9c-6.2,6.4-14,8.4-23.2,6c-10.9-2.9-17.9-10.3-20-21.2c-2.2-11.4,1.6-21,11.1-27.7
	C124.6,107,134.8,106.5,145,112z"/>
<path class="st0" d="M27.7,135.7c0-0.6,0-1.2,0-1.8c0-1.3,0.1-2.5-0.1-3.6c-0.2-2.3-1.4-3.5-3.7-3.7c-0.2,0-0.4,0-0.5,0
	c-2.2,0-3.5,1.1-3.7,3.2c-0.4,3.8-0.4,7.8,0,12c0.2,2.2,1.7,3.4,4.2,3.3c2.4-0.1,3.6-1.4,3.9-3.8c0.1-1.2,0.1-2.4,0-3.7
	C27.8,136.9,27.8,136.3,27.7,135.7z"/>
</svg>
