<?xml version="1.0" encoding="utf-8"?>
<!-- Generator: Adobe Illustrator 23.0.1, SVG Export Plug-In . SVG Version: 6.00 Build 0)  -->
<svg version="1.1" id="Layer_1" xmlns="http://www.w3.org/2000/svg" xmlns:xlink="http://www.w3.org/1999/xlink" x="0px" y="0px"
	 viewBox="0 0 384 384" style="enable-background:new 0 0 384 384;" xml:space="preserve">
<style type="text/css">
	.st0{fill:#808080;}
	.st1{fill:none;stroke:#808080;stroke-width:4;stroke-miterlimit:10;}
	.st2{fill-rule:evenodd;clip-rule:evenodd;fill:none;stroke:#808080;stroke-width:4;stroke-miterlimit:10;}
</style>
<g>
	<path class="st0" d="M94.2,268.5c9.9,12.6,18.5,24.1,27.7,35c4.4,5.2,3.5,8.4-1.9,11.6c-2.4,1.4-4.6,3.1-6.8,4.6
		c-14.7,10-21.6,9.1-32.7-4.4c-9.7-11.8-19.4-23.6-29.4-35.2c-1.7-2-5.1-4.4-7.2-4c-21.5,4.5-33.2-11.9-36-27.8
		c-3.1-17.5,1.8-37.6,26.8-40.7c20.9-2.6,41.7-6,62.3-10c22.6-4.4,39.7-16.5,48.8-38.6c2.8-6.9,7.5-12.2,16-10.8
		c8.4,1.4,10.7,7.6,11.8,15.2c5.6,39.3,11.6,78.5,17.4,117.8c1,6.8-1.3,12.4-7.5,15.2c-6.1,2.8-12,1.2-16.6-4
		c-10.3-11.7-21.7-22.1-37.9-23.7C118.2,267.6,107.2,268.5,94.2,268.5z M103.5,260.3c28.2-2.6,51.5,5.3,69.1,27.3
		c1.4,1.7,5.3,3.1,8.8,1.1c2.9-1.6,2.1-5.5,1.7-8.3c-5.4-38.1-11-76.2-16.9-114.2c-0.6-3.7-1.6-9.9-5.5-10.6c-4.1-0.7-7.5,5-9.2,8.4
		c-7.4,15.1-17.6,27.2-33.3,33.9c-7.2,3.1-14.7,5.6-22.8,8.7C98.2,224,100.8,241.4,103.5,260.3z M88.2,207.6
		c-20.1,3-38.9,5.8-57.6,8.5c-7.4,1.1-12.4,5.3-14.6,12.2c-3.7,11.7-2.9,23.4,5,32.9c3.3,4,9.8,8.1,14.5,7.6
		c19.9-1.8,39.7-5.2,60.5-8.1C93.4,242.6,90.9,225.5,88.2,207.6z M56,274.3c10.4,12.5,19.9,23.9,29.5,35.3
		c10.2,12,11.5,12.2,24.7,2.8c1.9-1.3,3.6-2.8,5.6-4.4c-9.3-11.8-18.1-23.1-27.2-34.3c-1.3-1.6-4-3.3-5.9-3.1
		C74.3,271.4,66,272.9,56,274.3z"/>
	<path class="st0" d="M337.3,382.7c-4.2,1-7.4-0.3-9.6-1.2c-24.9-10.7-49.9-21.4-74.8-32.2c-9.4-4.1-10.2-6.7-6.1-16.4
		c10.8-24.9,21.7-49.7,32.2-74.8c3.3-7.9,7.9-9.9,15.7-6.5c25.4,11.1,50.9,22.1,76.4,33c6.9,2.9,9.1,7.2,6,14.5
		c-11.3,25.7-22.2,51.5-33.6,77.2C342.1,379.7,340.7,381.9,337.3,382.7z M335.6,376.8c12.2-28.2,24.1-55.8,36.1-83.7
		c-28.5-12.2-55.8-24-83.8-36.1c-12.2,28.2-24.1,55.7-36.2,83.6C280.1,352.8,307.4,364.6,335.6,376.8z"/>
	<path class="st0" d="M337.3,153.7c-4.2,1-7.4-1.3-9.6-2.2c-24.9-10.7-49.9-21.4-74.8-32.2c-9.4-4.1-10.2-6.7-6.1-16.4
		c10.8-24.9,21.7-49.7,32.2-74.8c3.3-7.9,7.9-9.9,15.7-6.5c25.4,11.1,50.9,22.1,76.4,33c6.9,2.9,9.1,7.2,6,14.5
		c-11.3,25.7-22.2,51.5-33.6,77.2C342.1,149.7,340.7,152.9,337.3,153.7z M335.6,146.8c12.2-28.2,24.1-55.8,36.1-83.7
		C343.3,50.8,316,39,287.9,27c-12.2,28.2-24.1,55.7-36.2,83.6C280.1,122.8,307.4,134.6,335.6,146.8z"/>
	<path class="st0" d="M176.5,111.5c-3.1,3-7,2.6-9.4,2.8c-27,3.1-53.9,6.2-80.9,9.2c-10.1,1.1-12.2-0.8-13.4-11.2
		c-3-27-5.8-54-9.1-80.9c-1-8.5,1.9-12.5,10.4-13.4c27.6-2.9,55.2-6.1,82.7-9.3c7.5-0.9,11.5,1.7,12.3,9.6c3,27.9,6.3,55.7,9.2,83.7
		C178.7,105.5,179,109.1,176.5,111.5z M171.6,106.2c-3.4-30.5-6.8-60.3-10.2-90.6c-30.8,3.5-60.4,6.8-90.7,10.3
		c3.4,30.6,6.7,60.3,10.1,90.6C111.5,113,141.1,109.7,171.6,106.2z"/>
	<path class="st0" d="M320,319.2c-6.9,0.7-11.7,1.1-18,1.7c2.2-5.5,4-10,6.4-16C312.6,310.1,315.9,314.1,320,319.2z"/>
	<g>
		<path class="st0" d="M240.3,134.1c-0.1,0.1-0.2,0.2-0.3,0.3c-0.1,0.1-0.3,0.2-0.4,0.4c-0.1,0.1-0.2,0.2-0.3,0.3
			c-0.1,0.1-0.2,0.2-0.3,0.3c-0.1,0.1-0.2,0.2-0.2,0.3c-0.1,0.1-0.2,0.2-0.3,0.3c-0.1,0.1-0.1,0.2-0.2,0.3c-0.1,0.1-0.1,0.2-0.2,0.3
			c-0.1,0.1-0.1,0.2-0.2,0.2c-0.1,0.1-0.1,0.2-0.2,0.3c0,0.1-0.1,0.2-0.1,0.2c0,0.1-0.1,0.2-0.1,0.3c0,0.1,0,0.1-0.1,0.2
			c0,0.2-0.1,0.3-0.1,0.5c-0.1,1.4,0.8,3,2.8,5.2c0.4,0.5,0.9,0.9,1.3,1.4c32.4,35,35.5,88.3,7.3,126.6c-2.1,2.9-4.5,5.5-6.8,8.1
			c-1,1.2-2.1,2.3-3.1,3.5c-0.9,1.1-2.8,3.8-0.6,6c1,1,2.9,1.6,5.7,1.9c0.7,0.1,2.1-1.5,2.6-2c30.6-33.4,38.7-72.1,23.9-115.1
			c-0.3-1-0.7-1.9-1-2.9c-0.2-0.5-0.4-1-0.6-1.6c-0.2-0.4-0.3-0.8-0.5-1.3c-0.2-0.5-0.5-1.1-0.7-1.6c-0.2-0.4-0.3-0.8-0.5-1.2
			c-0.2-0.5-0.5-1-0.7-1.5c-0.2-0.4-0.4-0.8-0.6-1.2c-0.2-0.5-0.5-1-0.8-1.5c-0.2-0.4-0.4-0.8-0.6-1.2c-0.3-0.5-0.5-1-0.8-1.4
			c-0.2-0.4-0.4-0.8-0.7-1.2c-0.3-0.5-0.5-0.9-0.8-1.4c-0.2-0.4-0.5-0.8-0.7-1.2c-0.3-0.4-0.6-0.9-0.8-1.3c-0.3-0.4-0.5-0.8-0.8-1.2
			c-0.3-0.4-0.6-0.8-0.9-1.3c-0.3-0.4-0.6-0.8-0.9-1.2c-0.3-0.4-0.6-0.8-0.9-1.2c-0.3-0.4-0.6-0.8-0.9-1.2c-0.3-0.4-0.6-0.8-0.9-1.2
			c-0.3-0.4-0.6-0.8-1-1.2c-0.3-0.4-0.6-0.8-1-1.2c-0.3-0.4-0.7-0.8-1-1.2c-0.3-0.4-0.7-0.8-1-1.1c-0.3-0.4-0.7-0.8-1-1.2
			c-0.3-0.4-0.7-0.7-1.1-1.1c-0.4-0.4-0.7-0.8-1.1-1.1c-0.4-0.4-0.8-0.7-1.1-1.1c-0.4-0.4-0.7-0.7-1.1-1.1c-0.4-0.4-0.8-0.8-1.2-1.1
			c-0.3-0.3-0.7-0.6-1-0.9h-3.2C240.5,134,240.4,134.1,240.3,134.1z"/>
		<path class="st0" d="M216.7,267.7c1.4,0.9,3.7,0.8,6,0.7c0.5,0,1.2-0.9,1.7-1.5c0.2-0.2,0.4-0.4,0.5-0.6
			c14.2-15.2,21-33.4,21.4-57.1c-0.2-1-0.3-2.2-0.5-3.6c-0.6-3.9-1.3-9.2-2.7-14.3C240,179,233.6,167.8,224,158
			c-1.3-1.3-2.7-2-4.1-2c-1.1,0-2.2,0.4-3.1,1.3c-2.2,2-2.1,4.6,0.1,7.2c0.2,0.2,0.4,0.4,0.6,0.6c0.1,0.1,0.3,0.3,0.4,0.4
			c24.8,26.6,24.9,67,0.3,93.8l-0.5,0.5c-0.7,0.7-1.3,1.4-1.8,2.2C214.8,264,214.7,266.5,216.7,267.7z"/>
		<path class="st0" d="M195.3,238c-2.5,2.9-2.6,4.8-1.9,6.2c0.1,0.1,0.1,0.2,0.2,0.4c0.1,0.2,0.3,0.4,0.5,0.6
			c0.2,0.2,0.3,0.4,0.5,0.6c1,0.9,2,1.4,3.2,1.3c1.5,0,3.2-1,4.8-2.7c0.5-0.5,1-1.1,1.5-1.7c7-8.4,10.7-18.2,11-30
			c-0.3-11.7-4-21.9-11.2-30.4c-0.5-0.6-1-1.1-1.5-1.7c-1.5-1.6-3.2-2.5-4.7-2.5c-1.1,0-2.1,0.4-3,1.2c-2.3,2.1-2.1,4.7,0.6,7.8
			c3,3.4,5.3,7.1,6.9,10.8c1.2,2.7,2.1,5.4,2.6,8.1C206.9,217,203.7,228.3,195.3,238z"/>
	</g>
	<path class="st0" d="M73.9,223.5l-41.9,6c-1.9,0.3-3.6-1-3.9-2.9v0c-0.3-1.9,1-3.6,2.9-3.9l41.9-6c1.9-0.3,3.6,1,3.9,2.9l0,0
		C77.1,221.5,75.8,223.2,73.9,223.5z"/>
	<path class="st0" d="M75.9,243.5l-41.9,6c-1.9,0.3-3.6-1-3.9-2.9v0c-0.3-1.9,1-3.6,2.9-3.9l41.9-6c1.9-0.3,3.6,1,3.9,2.9l0,0
		C79.1,241.5,77.8,243.2,75.9,243.5z"/>
	<g>
		<g>
			<path class="st0" d="M343.4,316.8c0.1-0.5,1.1-4.1,0.3-6.1l0,0c-0.9-2.6-2.8-3.7-3.9-4.4l-0.3-0.2c-7.9-4.3-20.1-9.8-20.1-9.9
				l0,0c0,0-12.2-5.6-20.7-8.7c-0.1,0-0.2-0.1-0.4-0.1c-1.2-0.4-3.3-1.1-5.8-0.1l0,0c-2.1,0.8-4.2,4-4.4,4.3c0,0-2.7,4.4-4.8,9.1
				l-2,4.4c-2.1,4.7-3.7,9.6-3.7,9.6l0,0c-0.1,0.4-1.1,4-0.3,6.2l0,0c0.8,2.4,2.8,3.6,4.1,4.4c0.3,0.2,0.5,0.3,0.8,0.5
				c4.5,2.6,19.5,9.5,19.5,9.6c0.3,0.1,12.3,5.6,20.7,8.7l0.4,0.1c1.2,0.4,3.3,1.1,5.9,0.1l0,0c2.1-0.8,4.2-4,4.4-4.3
				c0,0,2.7-4.4,4.8-9.1l2-4.4c1.9-4.3,3.4-8.8,3.6-9.5C343.4,316.9,343.4,316.9,343.4,316.8L343.4,316.8z M348.6,309.4
				c1,2.9-0.1,7.2-0.3,8c0,0.1,0,0.1,0,0.1c0,0-1.7,5.4-4.1,10.7L342,333c-2.3,5.2-5.3,10.1-5.4,10.1l0,0c0,0-2.8,4.4-5.9,5.6l0,0
				c-3.6,1.4-6.4,0.5-8,0c-0.1,0-0.2-0.1-0.4-0.1l-0.1,0c-9.1-3.4-22.5-9.4-22.5-9.4c0,0-16.3-7.6-21.3-10.4c0,0-0.1,0-0.1-0.1
				c-0.2-0.1-0.4-0.3-0.8-0.5c-1.6-1-4.2-2.6-5.4-6c-1.1-2.9,0.2-7.5,0.3-8.1c0,0,0-0.1,0-0.1c0,0,1.7-5.5,4.1-10.7l2.2-4.8
				c2.3-5.2,5.3-10.1,5.4-10.1l0,0c0,0,2.8-4.4,5.9-5.6l0,0c3.6-1.4,6.4-0.5,7.9,0c0.1,0,0.2,0.1,0.4,0.1l0.1,0
				c9.2,3.4,22.4,9.4,22.5,9.4l0,0c0,0,13.3,6,21.9,10.7l0.1,0c0.2,0.1,0.3,0.2,0.4,0.2C344.8,304.2,347.3,305.7,348.6,309.4
				L348.6,309.4L348.6,309.4z M299.1,320.5l8.1-17.8c0.3-0.6,1-0.8,1.5-0.6c0.2,0.1,0.4,0.2,0.5,0.4l13,16.6
				c0.4,0.5,0.3,1.2-0.2,1.6c-0.2,0.2-0.4,0.2-0.7,0.2l-21.1,1.1c-0.6,0-1.2-0.5-1.2-1.1C299,320.9,299,320.7,299.1,320.5
				L299.1,320.5L299.1,320.5z"/>
		</g>
	</g>
	<g>
		<g>
			<path class="st1" d="M139.9,30.1"/>
			<path class="st2" d="M128.4,43.9h11.5V30.1h-11.5c-8.9,0-16.1,7.2-16.1,16.1V53h-9.2v13.8h9.2v36.8h13.8V66.8h11.5l2.3-13.8
				h-13.8v-6.9C126.1,44.9,127.1,43.9,128.4,43.9L128.4,43.9L128.4,43.9z"/>
		</g>
	</g>
	<path class="st1" d="M342.5,65.7c1.3-0.3,2.6-0.8,3.8-1.3c0.4-0.2,0.9-0.2,1.2,0.2c0.4,0.4,0.4,1,0.1,1.4c-1,1.5-2.1,2.8-3.3,4.1
		c-1.1,1.1-2.3,2.2-3.6,3.2v0.4c0,0.4,0,0.8,0,0.9c0,10.5-4.3,21.8-12.5,30c-7,7-16.8,11.7-29.2,11.7c-4,0-8-0.6-11.7-1.7
		c0,0,0,0,0,0c-3.8-1.1-7.4-2.8-10.7-4.9c-0.3-0.2-0.6-0.6-0.5-1c0.1-0.6,0.6-0.9,1.1-0.9c0.6,0.1,1.1,0.1,1.6,0.2
		c0.5,0,1.1,0,1.7,0c3.2,0,6.2-0.5,9.1-1.5c2.1-0.7,4.1-1.7,5.9-2.9c-2.3-0.5-4.3-1.4-6.1-2.7c-2.5-1.9-4.5-4.5-5.5-7.6
		c0-0.2-0.1-0.3,0-0.5c0.1-0.6,0.6-0.9,1.2-0.8c0.4,0.1,0.8,0.1,1.2,0.2c0.2,0,0.4,0,0.6,0c-1.8-0.9-3.3-2.3-4.6-3.8
		c-2.2-2.6-3.5-6-3.5-9.7v-0.2c0-0.2,0-0.3,0.1-0.5c0.3-0.5,0.9-0.7,1.4-0.4c0.8,0.5,1.7,0.8,2.6,1.1c-0.9-0.9-1.6-2-2.2-3.1
		c-1.2-2.2-1.8-4.6-1.8-7.2c0-1.4,0.2-2.7,0.5-4c0.3-1.3,0.9-2.5,1.6-3.7c0.1-0.1,0.1-0.2,0.2-0.3c0.4-0.3,1.1-0.3,1.4,0.2
		c3.5,4.3,7.9,7.8,12.9,10.4c4.5,2.3,9.4,3.7,14.6,4.1c0-0.1,0-0.3,0-0.4c-0.1-0.6-0.1-1.2-0.1-1.8c0-4.2,1.7-8.1,4.5-10.8
		c2.8-2.8,6.6-4.5,10.8-4.5c2.2,0,4.2,0.5,6.1,1.2c1.8,0.8,3.3,1.8,4.7,3.2c1.4-0.3,2.7-0.7,4-1.2c1.5-0.6,2.9-1.2,4.2-2
		c0.2-0.2,0.5-0.2,0.8-0.1c0.5,0.2,0.8,0.7,0.6,1.3c-0.6,1.8-1.5,3.4-2.6,4.8c-0.3,0.3-0.6,0.7-0.9,1L342.5,65.7L342.5,65.7z"/>
</g>
</svg>
