<?xml version="1.0" encoding="utf-8"?>
<!-- Generator: Adobe Illustrator 23.0.1, SVG Export Plug-In . SVG Version: 6.00 Build 0)  -->
<svg version="1.1" id="Layer_1" xmlns="http://www.w3.org/2000/svg" xmlns:xlink="http://www.w3.org/1999/xlink" x="0px" y="0px"
	 viewBox="0 0 384 384" style="enable-background:new 0 0 384 384;" xml:space="preserve">
<style type="text/css">
	.st0{fill:#808080;}
</style>
<g>
	<path class="st0" d="M347.9,46.8c-29.1,0.5-57.5,0.4-87.6,0.3c-11.9,0-23.9-0.1-36-0.1h-2.2v-2.1c0-2.8,0-5.7,0.1-8.4
		c0.1-6.8,0.2-13.3-0.3-19.8c-0.2-3.1-1.5-4.5-3.7-5.8C214,8.3,198.3,8,192.7,8.1c-7.4-0.1-20.4,0.6-23.9,2.7
		c-2.2,1.3-3.5,2.7-3.7,5.8c-0.5,6.5-0.4,12.9-0.3,19.8c0,2.8,0.1,5.6,0.1,8.4V47h-2.1c-3.8,0-7.5,0-11.2,0c-8.6,0-16.7,0-24.9,0.1
		c-1,0-2,0-3-0.1c-3-0.1-6.1-0.3-7.4,1.1c-0.8,0.8-1.1,2.1-1.1,4.1c0.1,1.7,0.5,2.9,1.2,3.6c1.4,1.3,4.6,1.1,7.4,1
		c1-0.1,2-0.1,2.9-0.1c46.7,0.1,94.3,0.1,140.2,0.1c27.7,0,55.3,0,83,0c13.6,0,18.7,5,18.7,18.4c0,29.3,0.3,59.4,0.5,88.4
		c0.3,31.2,0.5,63.5,0.5,95c0,13-4.9,17.9-18.2,17.9c-0.8,0-1.7,0-2.6,0c-52.5,0-106.1-0.3-157.9-0.5c-50.7-0.2-103.2-0.5-154.5-0.5
		c-12.8,0-17.8-4.9-17.8-17.4c-0.1-63.4,0-125.3,0-184.1c0-11.9,5.2-17,17.4-17.2c2.8,0,5.5,0,8.2,0c5.2,0.1,10.6,0.2,15.7-0.4
		c1.9-0.2,5.2-3,5.7-4.7c0.3-1.3,0.2-2.2-0.4-2.9c-0.8-1-2.7-1.6-5.1-1.7c-6.9,0-13.8,0-20.8-0.1C18,46.7,9.6,51.6,8.1,65.1v201.6
		c0.1,4.8,1.8,8.8,5,11.8c5.1,4.8,14.1,7.3,25.3,7c16.6-0.5,33-0.4,50.3-0.3c7.3,0,14.9,0.1,22.6,0.1h3.5l-1.5,3.1
		c-1.5,2.9-2.9,5.8-4.2,8.5c-2.9,5.8-5.6,11.2-8.3,16.7c-2.1,4.2-4.2,8.3-6.3,12.5c-6.7,13.4-13.7,27.2-20.9,40.7
		c-2.4,4.4-5.3,10.7,0.2,11.1c0,0,16.9-0.3,31.7-0.2c8,0.1,14.5,1.4,18.3-0.8c2.1-1.2,3.4-3.2,4.6-5.2c3.1-5.3,6.3-10.8,9.2-16.3
		c1.4-2.7,2.8-5.4,4.3-8.1c5.9-11.3,12-23,19-34.3l4-6.4v7.5c0,4.8,0,9.6,0,14.3c-0.1,13.1-0.1,26.7,0.3,40.1
		c0.1,2.1,0.3,10.9,0.3,10.9h57.5c0,0-0.1-8.8,0-10.9c0.2-5.8-0.1-11.8,0-17.5c0.2-12.2-0.2-24.7,0.7-37.3l0.6-7.6l3.5,6.8
		c2.5,4.8,4.9,9.7,7.4,14.5c6.9,13.6,14,27.6,21.2,41.3c1.2,2.4,5,9,5.9,9.2c6.8,0.9,17.5,0.4,25.1,0.5c12.1,0.2,16.9,0.5,26.1-0.5
		c4.2-0.5,2.5-6.5-0.3-11.8c-9.6-18.5-18.9-36.9-28.7-56.4c-3.5-7-7.1-14-10.7-21.2l-1.6-3.1h13.3c6.3,0,12.8-0.1,19-0.1
		c14.5-0.1,29.5-0.2,44.2,0.3c12,0.4,20.5-1.7,25.3-6.2c3.2-3.1,4.9-7.2,5-12.7l0-197.2C378.8,55.4,364,46.5,347.9,46.8z
		 M211.3,46.6h-35.6V17.9h35.6V46.6z M152.9,303c-10.5,20.7-20.5,40.3-30.6,60.1c-1.2,2.3-4.3,4.2-6.9,4.3
		c-4.1,0.2-8.2,0.2-12.5,0.2c-2.3,0-4.5,0-6.9,0c-2.5,0-5.1,0-7.8,0h-3.5l20.5-40.4c1.7-3.3,3.4-6.6,5-9.9
		c4.2-8.1,8.5-16.6,12.5-24.9c2.5-5.3,6-7.4,11.7-7.1c5.1,0.3,10,0.2,15.8,0.2c2.6,0,5.3-0.1,8.2-0.1h3.5L152.9,303z M211.5,366.9
		h-35.8v-81.1h35.8V366.9z M298.1,359.6l1.2,2.4c1.4,2.5,3.1,5.6,3.1,5.6l-3.5-0.1h-1.9c-2.2,0-4.4,0-6.6,0c-2.2,0-4.4,0-6.7,0
		c-4.1,0-8.2,0-12.3-0.2c-2.5-0.1-5.7-2.1-6.9-4.4c-10.2-19.7-20.1-39.2-30.6-59.9l-9-17.8h3.5c2.6,0,5.2,0,7.7,0
		c6.9,0,13.4-0.1,19.9,0.2c2.6,0.1,5.6,2.5,6.7,4.7C274.8,313.2,286.6,336.8,298.1,359.6z"/>
	<path class="st0" d="M95.7,234.2c15.1,2.2,29.2-0.5,41.9-8c17.7-10.5,28.5-26.8,32-48.3l0.3-1.5l1.5-0.2
		c10.8-1.8,11.3-3.1,10.2-12.6c-4.2-36.9-30.6-64.1-67.3-69.4c-3.1-0.4-5.4-0.7-7.2-0.7c-5.3,0-6.3,2.4-8.2,10.8l-0.3,1.3l-1.3,0.3
		c-37.4,9.6-57.9,34-56.5,67C42.2,204.4,64.7,229.7,95.7,234.2z M110.8,104.8l2.2,0.1c28.7,1.3,54.6,27.1,57.8,57.6l0.2,2.4h-60.2
		V104.8z M99.2,114.2v42.5l-28.5-29.9L99.2,114.2z M62.5,137.8l1.5-1.8l1.7,1.7c3,3,6,6,9,9c7.1,7.1,14.4,14.4,21.3,21.9
		c4.8,5.3,9.8,7.3,17.3,7c10-0.4,20.1-0.3,29.9-0.2c4.1,0,8.3,0.1,12.4,0.1h2.2l0,2.2c-0.2,19.4-16.4,38.7-37.7,45
		c-4.9,1.4-9.9,2.1-14.9,2.1c-18,0-35.5-9.1-45.7-24.7C46.7,180.3,47.9,155.3,62.5,137.8z"/>
	<path class="st0" d="M320.7,222.5c-0.1-0.7-0.1-1.4-0.2-2.1c-0.1-1.3-0.2-2.5-0.2-3.6c0-4.7,0-9.4,0-14c0-16.1-0.1-32.8,0.1-49.3
		c0-3.3-0.6-5.5-1.9-6.7c-1.2-1.2-3.3-1.7-6.3-1.6c-4.7,0.2-9.4,0.2-14,0.1c-2,0-4.1,0-6.1,0c-8.2,0-12.7,0-14.5,1.7
		s-2.3,6.1-3,14.3c-0.1,0.8-0.5,1.3-0.9,1.8c-0.2,0.2-0.4,0.4-0.7,0.8l-0.6,0.8h-1c-2.2,0-4.4,0-6.7,0c-5.4,0-11,0-16.6-0.1
		c-3.3-0.1-5.5,0.6-6.8,1.9c-1.2,1.2-1.7,3.4-1.5,6.3c0.2,3,0.2,6.1,0.1,9.3c0,1.5,0,3,0,4.6v2.1h-2.2c-2.8,0-5.6,0-8.2,0
		c-6,0-11.8,0-17.5-0.1c-2.7-0.1-4.6,0.5-5.7,1.6c-1.1,1.1-1.6,3-1.6,5.8c0.1,6,0.1,11.8,0.1,18.1c0,2.7,0,5.4,0,8.2v2l-2,0.1
		c-1,0.1-1.8,0.1-2.4,0.2c-1.3,0.1-2.3,0.2-3.3,0.2c-2.4-0.1-5.8-0.1-7.3,1.4c-0.8,0.8-1.1,1.9-1,3.6c0.2,4.3,2.7,4.6,8.8,4.7l9.9,0
		c20.6,0,41.4,0,62.4,0c23.7,0,47.5,0,71.1,0.1c0,0,0.1,0,0.1,0c3.3,0,5.4-0.5,6.6-1.7c1.1-1.1,1.7-3.2,1.6-6.2
		c-0.2-31.3-0.1-63.3,0-90.8c0-2.8-0.5-4.8-1.6-5.8c-0.8-0.7-1.8-1.1-3.4-1.1c-2.3,0-4.8,0.6-4.8,7.2c0.1,11.2,0.1,22.6,0.1,33.6
		c0,4.4,0,8.7,0,13.1v41.4h-18.8L320.7,222.5z M239.2,224.6h-24.3v-25.1h24.3V224.6z M274.2,224.5h-23.8v-49.6h23.8V224.5z
		 M309.2,224.6h-23.6v-69h23.6V224.6z"/>
	<path class="st0" d="M275.4,93.2c-7.4,0-14.9,0-22.3,0c-18.8,0-38.3,0-57.4,0c0,0,0,0-0.1,0c-2.9,0-4.8,0.5-5.9,1.6
		c-0.7,0.7-1.1,1.8-1.1,3.3c0,1.5,0.4,2.6,1.2,3.4c1.1,1.1,3,1.6,5.9,1.6c9.5-0.1,19.1-0.1,28.4-0.1c3.8,0,7.5,0,11.3,0
		c0.1,0,0.1,0,0.2,0l11,0c9.5,0,19.2,0,28.8,0c0,0,0.1,0,0.1,0c5.7,0,6.8-1.7,6.8-4.9c0-1.6-0.3-2.7-1-3.4
		C280.4,93.6,278.6,93.2,275.4,93.2z"/>
	<path class="st0" d="M191.3,133c5-0.1,10-0.1,14.9-0.1c2,0,4,0,6,0l5.8,0c4.9,0,10.1,0,15.1,0c1,0,1.4-0.2,1.6-0.4
		c0.4-0.4,1-1.4,1-4.5c0-3-0.6-4.1-0.9-4.4c-0.2-0.2-0.6-0.4-1.7-0.4c-3.9,0-7.8,0-11.7,0c-9.8,0-20,0-30,0c0,0,0,0,0,0
		c-0.9,0-1.4,0.3-1.6,0.5c-0.7,0.7-1.1,2.2-1.1,4.4c0,3,0.7,4.1,1.1,4.5C190,132.8,190.4,133.1,191.3,133z"/>
</g>
</svg>
