<?xml version="1.0" encoding="utf-8"?>
<!-- Generator: Adobe Illustrator 23.0.1, SVG Export Plug-In . SVG Version: 6.00 Build 0)  -->
<svg version="1.1" id="Layer_1" xmlns="http://www.w3.org/2000/svg" xmlns:xlink="http://www.w3.org/1999/xlink" x="0px" y="0px"
	 viewBox="0 0 384 384" style="enable-background:new 0 0 384 384;" xml:space="preserve">
<style type="text/css">
	.st0{fill:#818181;}
	.st1{fill:none;stroke:#818181;stroke-width:10;stroke-miterlimit:10;}
</style>
<g>
	<g>
		<path class="st0" d="M252.8,223.2c0,1.2,0,14.7,0,17.4c0,6.4,0,12.9,0,19.1c0.1,11.6-0.2,23.6-0.5,35.3c-0.1,4.7,0.1,9.3,2.7,11.7
			c1.8,1.7,4.8,2.3,9.2,1.9l1.2-0.1l0.1,1.2c0.6,7.7,1.3,15.6,1.9,23.4c0.6,7.6,1.2,15.1,1.8,22.2l0.1,1.2l-1.2,0.1
			c-2.7,0.3-5,0.4-7.2,0.4c-0.9,0-1.8,0.1-2.8,0.1l0.4,8.2H290v-8.7l-1.3,0c-2.8,0.1-5.4,0.1-8.6,0.1l-1.1,0l-0.9-11.6
			c-0.9-10.8-1.8-22-2.5-32.4l-0.1-1.5c-0.3-4.9-0.6-9.6-3.4-11.9c-1.7-1.5-4.3-2-7.9-1.6l-1.3,0.1v-57.6c0-1.9,0-6.3,0-6.7l0-1.9
			h24.5c0,6.5,0,9.9,0,16.3c0.1,15.8,0.3,30.7-0.1,45.9c-0.1,5.4,0,10.5,2.7,13.1c1.8,1.7,4.7,2.3,8.9,1.9l1.2-0.1l0.1,1.2
			c0.4,4.7,0.8,9.4,1.2,14c1,11.3,2,21.9,2.6,32.7c0.4,7.1,2.8,9.6,9.3,9.3c5.1-0.3,10.3-0.2,15.3-0.1c2.3,0,4.6,0,6.9,0.1
			c13.1,0,13.1-0.3,14-13.3c0.7-10,1.5-20,2.4-29.8c0.4-4.3,0.8-8.7,1.1-13l0.1-1l1.7-0.1c7.7-0.5,11.4-1,11.3-8
			c-0.2-23.4-0.1-46.3,0-63.7c0-2.7-0.5-4.6-1.7-5.8c-1.2-1.2-3.2-1.7-6.1-1.7c-4.7,0.1-9.3,0.1-14.7,0.1c-2.5,0-5.2,0-8.1,0
			l-47.9-1.2l-0.2-5L252.8,223.2z M258.8,169.8l0.1-0.7c6.9-34.3,1.2-65.7-17-93.1c-19.5-29.4-46.5-47-80.2-52.3
			C99,14,40.4,52.1,25.4,112.4c-7.4,29.9-4.1,58.5,10.1,85c20.5,38.5,54.3,60.4,100.3,65l1.1,0.1v24.2l-1.1,0.1
			c-0.6,0.1-1.2,0.2-1.8,0.3c-1.2,0.2-2.3,0.4-3.4,0.2c-4.1-0.5-6.9,0-8.6,1.5c-1.8,1.6-2.6,4.7-2.4,9.3c0.4,9,0.3,18.2,0.2,27.1
			c0,5-0.1,10.3,0,15.4c0.1,15.1,9,25.3,22.2,25.4c0,0,0.1,0,0.1,0c13,0,21.8-10.2,22.1-25.3c0.1-8.9,0.1-17.9,0.1-26.6
			c0-3.7,0-7.5,0-11.2c0-7.4,0-11.4-1.6-13.2c-1.6-1.8-5.6-2-12.9-2.5c-0.8-0.1-1.3-0.5-1.7-0.9c-0.1-0.1-0.2-0.2-0.4-0.3l-0.5-0.4
			v-23.3l1.1-0.1c24-1.6,45-9.1,66.9-24.1c0.5-0.3,2.5-2,2.9-2.3C232.6,223,253.7,198.4,258.8,169.8z M147.9,296.5
			c1.6,0,3.3,0,5.1,0h1.2v1.2c0,4.8,0,9.5,0.1,14.2c0.1,11.9,0.2,23.2-0.4,34.7c-0.2,3.3-1.8,6.2-4.6,8c-1.7,1.1-3.6,1.7-5.5,1.7
			c-1.2,0-2.5-0.2-3.7-0.7c-4.3-1.6-9.7-6.9-10-11.2c-0.8-10.9-0.7-21.7-0.5-33.1c0-4.2,0.1-8.5,0.1-12.9v-1.1l1.1-0.1
			c1-0.1,1.8-0.2,2.6-0.3c1.5-0.2,2.7-0.3,3.9-0.3C140.6,296.5,144,296.5,147.9,296.5z M209.9,229c-20.1,15.6-44,23.5-67.9,23.5
			c-20.4,0-40.9-5.7-59.3-17.3c-39.2-24.6-58.8-72-48.7-118c9.7-44,47.9-79,93-85.1c35.9-4.9,70.7,7.6,95.5,34.2
			c24.9,26.7,34.9,62.5,27.5,98c0,0-4.2,15.7-10.8,28.6C231.4,208.4,209.9,229,209.9,229z M355.7,298l-1.3-0.1
			c-3.7-0.4-6.3,0.2-8,1.6c-2.8,2.4-3.1,7-3.4,12l-0.1,1.3c-0.7,9.6-1.5,19.4-2.3,28.9c-0.3,4.1-0.7,8.2-1,12.3l-0.1,2.4H314
			c0,0-0.2-3.3-1.9-19.7c-0.2-2-0.4-4-0.6-6.1c-0.8-7-1.5-14.3-1.9-21.4c-0.2-4-0.7-7.9-3.1-9.6c-1.7-1.3-4.3-1.5-7.9-0.7l-1.5,0.3
			v-59.8h58.6V298z"/>
		<path class="st0" d="M244.4,340.2c0-2.6,0-5.2,0-7.8c0-2.6,0-5.2,0-7.8c0-6.2-0.1-12.6,0.1-18.9c0-2.6-0.5-4.4-1.6-5.5
			c-1.1-1.1-2.9-1.6-5.5-1.6c-15.7,0.1-34.2,0.1-52.5,0c-2.8,0-4.7,0.5-5.9,1.7c-1.1,1.1-1.6,2.8-1.7,5.2c0,15.4,0,30.8,0,46.1
			l0,7.2c0,2.6,0.6,4.4,1.7,5.6c1.1,1.1,2.9,1.7,5.4,1.7c9.3-0.1,18.2-0.1,26.8-0.1c8.9,0,17.4,0,25.7,0.1c2.7,0,4.6-0.5,5.8-1.7
			c1.2-1.2,1.7-3.2,1.6-6.1C244.4,352.2,244.4,346.1,244.4,340.2z M234.6,355.5h-46.9v-46.7h41.1l-17.5,21.8L203,324l-5.8,6.7
			c0.2,0.2,0.3,0.3,0.4,0.4c6.6,7.2,10.2,11.2,13.1,11.2c0,0,0,0,0.1,0c2.9-0.1,6.4-4.3,12.7-11.9c1.7-2,3.4-4.1,5.5-6.4
			c1.1-1.2,2.2-2.6,3.5-4.1l2.1-2.5V355.5z"/>
		<path class="st0" d="M165.6,47.7c-7.6-1.9-15.4-2.8-23.2-2.8c-19.2,0-38.1,5.6-54.3,16.3c-22.9,15.2-37.8,38.4-42.2,65.4
			c-7.1,43.9,17.9,88.1,59.4,105c40.9,16.7,88.5,2.8,115.7-33.7c3.3-4.4,11.7-21.3,12.8-25c8.6-25.8,6-54.4-7.2-78.3
			C213.5,71.1,191.3,53.9,165.6,47.7z M102.2,218.7l-1.5-0.4c-8.6-2.5-12.1-7.3-11.8-16.2c0.5-12.5,0.4-24.8,0.3-37.8
			c0-5.3-0.1-10.7-0.1-16.1v-1.1l13.1-0.6V218.7z M148.4,229.1h-12.5V124.4h12.5V229.1z M183.4,218.2l-1.5,0.5v-118H195V136
			c0,6.3,0,12.6-0.1,18.9c-0.1,15.6-0.2,31.7,0.3,47.5C195.5,211,192,215.6,183.4,218.2z M229.2,144.8c-0.4,22.1-8.6,41.5-23,54.7
			l-2,1.8l0-30.9c0-22.9,0-45.2,0-67.5c0-5.9-0.1-9.1-1.4-10.4c-1.3-1.3-4.6-1.4-10.3-1.3c-2.5,0-4.7,0-6.7,0
			c-7.1-0.1-11-0.1-12.6,1.5c-1.7,1.7-1.7,6.2-1.6,14.4c0,1.6,0,3.4,0,5.4c0,8.1,0,16.2,0,24.3c0,25.9-0.1,52.7,0.1,79.1
			c0,4.1-0.8,6.8-2.7,8.5c-1.6,1.5-3.9,2.2-7.1,2.2c-0.7,0-1.5,0-2.3-0.1l-1-0.1l-0.1-1c-0.1-1-0.1-2-0.2-3
			c-0.2-2.2-0.3-4.4-0.3-6.7c0-15.2,0-30.4,0-45.6c0-14.9,0-29.9,0-44.8c0-5.7-0.2-8.4-1.5-9.7c-1.2-1.2-3.8-1.4-9.1-1.4
			c-2.8,0-5.3,0-7.5,0c-7.2-0.1-11.1-0.1-12.8,1.5c-1.8,1.8-1.8,6.4-1.8,15.5c0,1.6,0,3.2,0,5.1c0,20.5,0,41.1,0,61.8l0,28.3
			l-1.1,0.1c-4.8,0.5-7.9-0.1-9.9-1.9c-1.9-1.7-2.7-4.4-2.7-8.5c0.2-11.1,0.1-22.4,0.1-33.3c0-11.5-0.1-23.4,0.1-35
			c0.1-4.3-0.6-6.9-2.1-8.4c-1.4-1.4-3.9-2-7.6-2c-3.3,0.1-6.1,0.1-8.6,0.1c-7.3,0-11.3,0.1-12.9,1.7c-1.7,1.7-1.6,5.9-1.6,13.7
			c0,2.2,0,4.6,0,7.4c0,8.3,0,16.6,0,25.3c0,4,0,8,0,12.1v2.6l-2-1.7c-12.7-11-21.2-30-22.6-50.6c-1.6-23.2,5.7-45.5,20.7-63
			c15.9-18.6,38.2-29.5,62.8-30.5c24.6-1,47.8,7.9,65.4,25.1C220,95.7,229.7,120.1,229.2,144.8z"/>
	</g>
	<circle class="st1" cx="327.1" cy="197.6" r="21.4"/>
	<circle class="st1" cx="277.1" cy="191.6" r="21.4"/>
</g>
</svg>
