<?xml version="1.0" encoding="utf-8"?>
<!-- Generator: Adobe Illustrator 23.0.1, SVG Export Plug-In . SVG Version: 6.00 Build 0)  -->
<svg version="1.1" id="Layer_1" xmlns="http://www.w3.org/2000/svg" xmlns:xlink="http://www.w3.org/1999/xlink" x="0px" y="0px"
	 viewBox="0 0 381 381" style="enable-background:new 0 0 381 381;" xml:space="preserve">
<style type="text/css">
	.st0{fill:#9A9A9A;}
</style>
<g>
	<path class="st0" d="M273.1,229.5l-2-1.9c-3.7-3.6-8.2-5.5-13.5-5.5c-0.1,0-0.1,0-0.2,0c-8.1,0-13.4,4.6-19.2,11.9
		c-1.7,2.1,0.3,4.1,0.9,4.7c1.1,1,2.9,1.9,5,0.3c1.2-0.9,2.3-2,3.5-3.2c0.4-0.4,0.9-0.9,1.3-1.3c5.9-5.7,11.8-5.8,17.5-0.1
		c6.3,6.2,12.9,12.8,19.6,19.6c5.6,5.7,5.6,11.7,0,17.5c-3.4,3.5-6.9,6.9-10.2,10.3c-1.6,1.6-3.2,3.2-4.9,4.9l-20,20.1l-37.5-37.3
		l1.3-1.1c0.3-0.2,0.6-0.4,0.9-0.7c0.7-0.5,1.4-1.1,2-1.7l0.4-0.4c2.7-2.6,5.4-5.3,8-8.1c2-2.1,2.1-4.5,0.3-6.2
		c-1.7-1.6-3.9-1.5-6,0.4c-0.6,0.5-1.1,1-1.7,1.6l-0.7,0.7c-4,4-8,8-11.9,12c-8.7,8.8-17.8,17.9-26.9,26.7
		c-19.4,18.7-41.9,24-66.8,15.8c-20.6-6.8-36.1-23.5-41.4-44.7c-5.3-21.6,0.7-44,16.2-60c11.7-12.1,23.9-24.2,35.7-35.9
		c5.5-5.5,11-10.9,16.5-16.4c1.4-1.4,2.8-2.8,4.3-4.2c3.5-3.4,7.1-7,10.5-10.6c6.9-7.4,7.1-18.4,0.5-25.6
		c-7.6-8.2-15.5-16.1-23.5-23.5c-7.2-6.6-18.3-6.5-25.2,0.3c-13.8,13.5-27.7,27.5-41.1,41l-8.8,8.8c-1,1.1-1.6,2.2-1.6,3.4
		c0,1,0.5,2,1.4,2.8c1.8,1.7,4,1.5,6-0.4c1.2-1.1,2.3-2.4,3.3-3.7c0.4-0.5,0.9-1.1,1.3-1.6l1.1-1.2l37.7,37.6l-1.1,1.1
		c-2.4,2.3-4.8,4.7-7.2,7c-5.2,5.1-10.6,10.3-15.7,15.7c-14.8,15.5-22,36.6-19.7,57.9c2.3,21.3,13.9,40.3,31.7,52.2
		c28.7,19.1,66.6,15.1,92-9.8c4.9-4.8,9.8-9.7,14.5-14.5c2.1-2.2,4.3-4.3,6.4-6.4l1.1-1.1l36.9,36.9l-1.1,1.1
		c-2.4,2.4-4.8,4.8-7.1,7.3c-5.2,5.4-10.6,10.9-16.2,16.2c-31,29-67.7,40-109,32.7c-33.4-5.9-63.3-25.8-82-54.6
		c-18.8-29-24.8-64.6-16.5-97.7c5.3-20.8,15.4-39.5,30-55.4c1.3-1.4,1.9-2.9,1.9-4.2c-0.1-1-0.5-1.9-1.3-2.6
		c-1.8-1.6-4.3-1.2-6.5,1.1c-15.4,16.5-26,35.5-31.3,56.4c-1.4,5.6-2.4,11.5-3.3,17.2c-0.4,2.6-0.8,5.2-1.3,7.8v19.2
		c0.4,2.3,0.7,4.5,1.1,6.8c0.8,4.8,1.6,9.9,2.7,14.7c11.3,50.4,54.9,91.4,105.9,99.5c3.1,0.5,6.1,1,9.2,1.5l4.3,0.7h19.2
		c0.2,0,0.4-0.1,0.6-0.2c0.6-0.2,1.3-0.4,2-0.4c31.1-2.8,58.1-15.2,80.2-36.7c19.1-18.6,38.3-37.9,56.8-56.6l10.6-10.7
		c7.9-8,8-19.3,0.1-27.5C286.2,242.4,279.6,235.8,273.1,229.5z M75.8,132.8c-0.3-0.3-0.5-0.7-0.7-1.1c-0.1-0.1-0.1-0.3-0.2-0.4
		l-0.5-1l21.1-21.2c1.4-1.4,2.8-2.8,4.2-4.2c3.3-3.3,6.7-6.8,10.1-10.1c5.4-5.3,11.6-5.3,16.9-0.1c7.7,7.5,14.4,14.2,20.4,20.4
		c4.7,4.8,5.1,10.9,0.9,15.2c-8.6,8.7-17.5,17.5-26.1,25.9c-3.4,3.4-6.9,6.8-10.3,10.2l-1.1,1l-4.3-4.3
		C96.1,153.1,85.9,143,75.8,132.8z"/>
	<path class="st0" d="M187.8,97.6c23,0.1,45.7,0.1,67.5,0c7.1,0,11.7-4.5,12-11.6c0.1-3.4,0.2-7.5-0.1-11.4
		c-1.2-11.9-7.5-20.1-18.9-24.5c-0.8-0.3-1.6-0.6-2.5-0.9l-2.9-1l0.8-1.5c9.1-16.7,7.6-30.7-4.5-40.4c-5.1-4.1-11.3-6.2-17.6-6.2
		c-6.6,0-13.2,2.3-18.5,6.8c-9.5,8-14.7,23.8-3.9,39.4l0.6,0.9l-0.6,0.9c-0.1,0.1-0.1,0.2-0.2,0.3c-0.1,0.2-0.4,0.6-1,0.8
		c-0.4,0.1-0.9,0.3-1.3,0.4c-0.5,0.2-1,0.3-1.5,0.5c-10.3,3.6-16.5,10.4-18.6,20.3c-1,4.8-1.2,10.3-0.7,17.4
		C176.5,93.6,181.2,97.6,187.8,97.6z M201.5,28.6c-0.1-11.1,8.8-20.2,19.9-20.3c5.4,0,10.4,2,14.2,5.8c3.8,3.8,5.9,8.8,6,14.2
		c0.1,11.1-8.8,20.2-19.9,20.3c-0.1,0-0.2,0-0.2,0c-5.2,0-10.1-2-13.9-5.7C203.7,39,201.6,33.9,201.5,28.6L201.5,28.6z M183.9,83.2
		c0.1-1.3,0.1-2.6,0.1-3.9c0-1.9,0.1-3.9,0.4-5.9c1.4-9.2,9.3-16.3,18.4-16.5c12.9-0.3,25.5-0.2,37.5,0c9.6,0.2,17.5,7.8,18.5,17.7
		c0.7,7.2,1.1,10.5-0.8,12.6c-1.9,2.1-5.3,2.1-12.1,2.1h-24.3c-3,0-5.9,0-8.9,0c-7.5,0-15.3-0.1-22.9,0.1c-0.1,0-0.2,0-0.3,0
		c-1.4,0-3.2-0.2-4.5-1.5C183.8,86.6,183.8,84.6,183.9,83.2z"/>
	<path class="st0" d="M381,197.9c-0.1-14.3-7.6-24.5-21.2-28.7c-0.5-0.2-0.9-0.4-1.3-0.5c-0.2-0.1-0.3-0.2-0.5-0.2l-1.6-0.7l0.9-1.5
		c9.2-15.6,7.7-30.2-4.1-40c-5.1-4.3-11.6-6.5-18-6.5c-6.6,0-13.1,2.2-18.3,6.7c-11.7,10-13,24.5-3.7,39.9l1,1.6l-2.7,0.9
		c-0.6,0.2-1,0.3-1.5,0.5c-11.4,3.7-18.2,11.5-20.1,23.1c-0.6,3.4-0.5,7-0.4,10.5c0,0.9,0,1.8,0.1,2.7c0.1,6.7,4.8,11.6,11.2,11.6
		c23,0.2,46.2,0.2,69,0c6.4-0.1,11.2-5.1,11.3-12c0-1.9,0-3.9,0-5.8L381,197.9z M320.9,134c3.8-3.8,8.8-5.9,14.2-5.9c0,0,0,0,0.1,0
		c11.1,0,20.1,8.9,20.2,20c0,5.3-2,10.3-5.8,14.1c-3.8,3.8-8.9,5.9-14.3,6c0,0,0,0,0,0c-11.1,0-20.1-9-20.2-20
		C315,142.8,317.1,137.8,320.9,134z M371.1,207.4c-1.8,1.8-4.8,1.8-10.7,1.8H335c-2.9,0-5.8,0-8.6,0c-7.5,0-15.2,0-22.8,0.1
		c-0.1,0-0.2,0-0.2,0c-1.5,0-3.3-0.2-4.5-1.5c-0.9-1-1.3-2.4-1.1-4.4c0.1-1.4,0.1-2.7,0.1-4.2c0-2,0-4,0.3-6
		c1.5-9.6,9.6-16.5,19.6-16.6c13.1-0.2,24.7-0.2,35.3,0c11.3,0.2,19.6,8.8,19.8,20.3C372.9,202.6,372.9,205.5,371.1,207.4z"/>
	<path class="st0" d="M289.5,85.7c0.1,7,4.8,11.7,11.7,11.9c6.5,0.1,13.1,0.1,19.5,0l0.3,0c3.2,0,5.1-1.5,5.2-4
		c0-2.5-1.9-4.1-5.1-4.2c-2.5-0.1-5.1,0-7.6,0c-1.1,0-2.2,0-3.2,0c0,0,0,0,0,0c-6.1,0-9.2,0-11-1.9c-1.8-1.9-1.7-4.9-1.6-10.9
		c0.3-11.1,8.7-19.5,19.5-19.7c11.5-0.2,23.3-0.2,36,0c9.4,0.1,16.9,6.4,18.8,15.5c0.5,2.4,0.5,4.8,0.5,7.1c0,1.4,0,2.9,0.2,4.2
		c0.2,1.9-0.2,3.3-1.1,4.3c-1.2,1.3-3.1,1.4-4.6,1.4c-2.8-0.1-5.7-0.1-8.8-0.1c-3,0-6.2,0-9.5,0.1c-1.5,0-2.7,0.5-3.5,1.4
		c-0.7,0.7-1.1,1.8-1,2.9c0.1,2.4,1.8,3.9,4.5,3.9c6.6,0.1,13.8,0.1,20.9,0c5.8-0.1,10.6-4.3,11-9.4c0.3-5.5,0.5-12.7-1.1-19.2
		c-2.5-10.1-9.7-16.8-21.4-20l-1.9-0.5l1-1.7c8.9-15,8-28.8-2.4-38.8C345.3-1.2,331-2.6,320,4.5c-5.6,3.6-9.6,8.6-11.6,14.8
		c-3.1,9.4-1.6,18.3,4.8,27.2l1.2,1.7l-2,0.6c-13,3.7-20.4,11.4-22.5,23.7c-0.6,3.3-0.5,6.9-0.4,10.3
		C289.5,83.8,289.5,84.8,289.5,85.7z M320.9,14.3c3.8-3.8,8.8-6,14.2-6c0,0,0.1,0,0.1,0c11,0,20.1,8.9,20.2,20
		c0,5.3-2,10.3-5.8,14.2c-3.8,3.9-8.9,6-14.2,6.1c-0.1,0-0.1,0-0.2,0c-5.2,0-10.2-2.1-14-5.8c-3.9-3.8-6-8.9-6.1-14.2
		C315,23.2,317.1,18.1,320.9,14.3z"/>
	<path class="st0" d="M165.2,232.6c3.7,1.5,6.4-0.2,9.3-3.1c5.5-5.6,10.9-11,16.7-16.7c2.3-2.3,4.6-4.6,7-7l1.1-1.1l3.3,3.4
		c1.5,1.6,3,3.1,4.4,4.6c3,3.2,5.8,4.1,9,2.7c3.2-1.3,4.6-3.8,4.5-8.4c0-9.2,0-18.6,0-27.6l0-11l0-4c0-2.8,0-5.6,0-8.4
		c0-3.9-1.4-6.3-4.5-7.7c-3.1-1.3-5.8-0.6-8.5,2.2c-0.8,0.8-1.6,1.6-2.4,2.4l-23.4,23.4l-3.1-3.4c-1.5-1.6-2.9-3.1-4.3-4.6
		c-2.2-2.4-4.1-3.5-6.2-3.5c-0.9,0-1.8,0.2-2.7,0.6c-3.3,1.3-4.7,3.8-4.7,8.6c0.1,18.9,0.1,34.6,0,49.5
		C160.5,228.7,161.8,231.3,165.2,232.6z M169,175.1l2.5,2.4c0.5,0.5,0.9,0.9,1.3,1.2c0.8,0.7,1.4,1.3,2,1.9
		c6.7,6.7,7.6,6.7,14.4-0.1l5.6-5.6c3.8-3.8,7.6-7.6,11.4-11.4c0.6-0.6,1.2-1.1,1.9-1.8c0.4-0.3,0.8-0.7,1.2-1.2l2.5-2.4v44
		l-2.3,2.3l-1.1-1.2c-0.5-0.6-1-1.2-1.5-1.7c-1.1-1.3-2.1-2.5-3.3-3.6c-3.3-3.2-6-3.2-9.3,0.1c-4.3,4.2-8.6,8.5-12.8,12.7
		c-2.3,2.3-4.6,4.6-6.9,6.9c-0.6,0.6-1.2,1.1-1.9,1.8c-0.4,0.4-0.8,0.8-1.3,1.2L169,223V175.1z"/>
</g>
</svg>
