<?xml version="1.0" encoding="utf-8"?>
<!-- Generator: Adobe Illustrator 23.0.1, SVG Export Plug-In . SVG Version: 6.00 Build 0)  -->
<svg version="1.1" id="Layer_1" xmlns="http://www.w3.org/2000/svg" xmlns:xlink="http://www.w3.org/1999/xlink" x="0px" y="0px"
	 viewBox="0 0 504.5 506.7" style="enable-background:new 0 0 504.5 506.7;" xml:space="preserve">
<style type="text/css">
	.st0{fill:#9A9A9A;}
</style>
<g>
	<path class="st0" d="M384.3,188.1c19.1,0,34.7-15.6,34.7-34.7s-15.6-34.7-34.7-34.7s-34.7,15.6-34.7,34.7S365.2,188.1,384.3,188.1z
		 M384.3,127.3c13.9,0,24.8,10.9,24.8,24.8c0,13.9-10.9,24.8-24.8,24.8s-24.8-10.9-24.8-24.8C359.5,138.9,371.1,127.3,384.3,127.3z"
		/>
	<path class="st0" d="M313.6,116.2c0,5.3-2,9.9-2.9,11.6l-0.6,1.3l-11.4,4.5v39.6l11.7,4.7l0.6,1.6c0.6,1.8,1.2,3.2,1.8,4.8
		c0.6,1.6,1.3,3.2,1.9,5.2l0.5,1.5l-5.7,11.4l27.2,27.2l11.7-5.8l1.7,0.8c1.1,0.5,2.6,1.2,4.1,1.7c1.6,0.6,3.2,1.3,4.6,2l1.3,0.6
		l4.5,11.4h39.6l4.7-11.7l1.7-0.5c3.5-1.2,5.8-2.3,8.2-3.5l1.7-0.8l11.7,5.8l27.2-27.2l-5.8-11.7l0.8-1.7c1.1-2.2,2.3-5.9,3.5-9.4
		l0.5-1.6l1.6-0.7l10-4v-39.6l-11.7-4.7l-0.6-1.6c-0.6-1.8-1.2-3.2-1.8-4.8c-0.6-1.6-1.3-3.2-1.9-5.2l-0.5-1.5l5.7-11.4L432,77.3
		l-11.7,5.8l-1.7-0.8c-1.1-0.6-2.6-1.2-4.1-1.7c-1.6-0.6-3.2-1.3-4.6-2l-1.3-0.6l-4.5-11.4h-39.6l-4.7,11.7l-1.6,0.6
		c-1.8,0.6-3.2,1.2-4.8,1.8c-1.6,0.6-3.2,1.3-5.2,1.9l-1.5,0.5l-11.4-5.7l-27.2,27.2l5.4,10.8L313.6,116.2L313.6,116.2z
		 M317.3,134.3l0.1-0.4c1.2-4.8,3.7-10.2,6.7-14.8l1.2-1.8l-5.2-9.2L339,89.2l9.2,5.2l1.8-1.2c2.5-1.7,5.3-2.8,8.2-3.9
		c1.9-0.8,3.9-1.5,5.8-2.5l0.5-0.2l2-0.7l4-10.7h26.3l4,10.7l1.9,0.6c4.8,1.2,10.1,3.6,14.7,6.7l1.8,1.2l9.2-5.2l18.9,18.9l-5.2,9.2
		l1.2,1.8c1.7,2.5,2.8,5.3,3.9,8.2c0.8,1.9,1.5,3.9,2.5,5.8l0.2,0.5l0.7,2l10.7,4v26.3l-10.7,4l-0.6,1.9c-1.2,4.8-3.6,10.1-6.7,14.7
		l-1.2,1.8l5.2,9.2l-18.9,18.9l-9.2-5.2l-1.8,1.2c-2.5,1.7-5.3,2.8-8.2,3.9c-1.9,0.8-3.9,1.5-5.8,2.5l-0.5,0.2l-1.8,0.6l-2.7,10.8
		h-26.6l-4-10.7l-1.9-0.6c-4.8-1.2-10.1-3.6-14.7-6.7l-1.8-1.2l-9.2,5.2l-18.9-18.9l5.2-9.2l-1.2-1.8c-1.7-2.5-2.8-5.3-3.9-8.2
		c-0.8-1.9-1.5-3.9-2.5-5.8l-0.2-0.5l-0.7-2l-10.7-4v-26.3l9.9-3.7v-1.7H317.3z"/>
	<path class="st0" d="M264.1,145.7c3.7,69.4,46,129.9,110.6,157.9l9.7,4.3l9.6-4.3c67.2-28.8,110.6-94.6,110.6-167.7V43.1h-6.2
		c-40.8,0-80.4-14.4-111.5-40.5l-0.2-0.2L384.3,0l-2.6,2.6C349,28.7,309.4,43.1,270.2,43.1H264v41.1l-2.6,0.9c-1.1,0.4-8,5-9.1,6
		l0,0L177,138.8c-10.1,6.3-28.4,10.9-40.4,12.2l-10.6,1.2l7.6-7.6c10.2-10.2,16.3-24.5,16.3-38.3c0-30.1-24.5-54.5-54.5-54.5
		c-30.1,0-54.5,24.5-54.5,54.5c0,16.7,7.4,31.9,20.9,43l5.5,4.5l-6.8,2C24.3,166.6,0,200,0,238.9v65.7c0,20.1,17,37.2,37.2,37.2H41
		V477c0,16.4,13.3,29.7,29.7,29.7s29.7-13.3,29.7-29.7V331.9h57.1V410c0,5.9,1.2,9.9,4.2,13.9l4.5,6h-24.8v65.7h-16.1v8.6h357v-8.6
		h-16.1V330.7h-91.7v164.9h-27.3V380.3h-91.7v115.3h-23.6v-65.7h-23.4l4.9-6.7c2.3-4.7,2.4-7.8,2.4-13.1v-99.2
		c0-20.1-17-37.2-37.2-37.2l-18.7,0l0.8-49.9c0-10.4,1.8-18.8,11.6-25.4c0,0,0,0,0,0c21.5-17.1,91.6-56.8,91.6-56.8L264.1,145.7z
		 M384.5,339.3h72.2v156.3h-72.2V339.3z M266,388.9h71.2v106.7H266V388.9z M272.7,50.6l3.6-0.1c38.3-1.2,74.9-14.2,105.7-37.7
		l2.3-1.7l2.3,1.7c30.8,23.4,67.4,36.5,105.7,37.7l3.6,0.1v84.2c0,68.8-41.2,131.5-105,159.6l-6.6,3.3l-6.5-3.3
		c-31.6-13.7-58.1-35.8-76.7-64.1c-18.5-28.2-28.4-58.7-28.4-92.9c0,0,18.4-9.9,17.4-27.3c-0.4-6.9,0.3-17.3-15.1-25.1l-2.3-1V50.6z
		 M63.6,137c-8.9-8.4-12.4-19.6-12.4-32.2C51.2,80.6,70,61,94.2,61s44.7,18.6,44.7,42.8s-20.4,44.6-44.6,44.7
		c-0.7,0-1.5,0.1-2.2,0.1C81.5,148.5,71.5,144.5,63.6,137z M72.2,159.7c5.4-1.4,9.4-1.4,13.3-1.4h42.4l-29.2,39l-29.9-36.7
		L72.2,159.7z M221.9,438.5v57.1h-71.2v-57.1H221.9z M152.5,221.6v60.7c8.1,0,24.8,0,24.8,0c15.7,0,28.5,12.8,28.5,28.5V410
		c0,10.8-9.1,19.9-19.9,19.9S166,420.8,166,410v-74.4c0-6.6-5.8-12.4-12.4-12.4h-53.3v-33.5h-9.6v185.9c0,10.8-8.1,19.9-18.9,19.9
		s-19.8-9-19.8-19.8v-269h-8.6v124h-3.8c-15.7,0-28.5-12.8-28.5-28.5v-65.7c0-31.3,18.4-59.4,46.9-71.6l2.6-1.1l37.2,46.9l41.5-53.3
		l1.6-0.1c11.6-1.1,24.4-5.1,38.2-11.9l82.6-50.6c2.3-2,2.7-2,5.6-2c19.2-0.2,14.2,26.2,12.3,28.1l0,0L170.5,190
		C159.6,196.6,152.5,209,152.5,221.6z"/>
	<rect x="417.8" y="366.6" class="st0" width="9.9" height="9.9"/>
	<rect x="306.2" y="443.5" class="st0" width="9.9" height="9.9"/>
	<rect x="417.8" y="392.7" class="st0" width="9.9" height="9.9"/>
	<rect x="417.8" y="426.1" class="st0" width="9.9" height="9.9"/>
	<rect x="306.2" y="408.8" class="st0" width="9.9" height="9.9"/>
	<rect x="187.2" y="460.9" class="st0" width="9.9" height="9.9"/>
</g>
</svg>
