<?xml version="1.0" encoding="utf-8"?>
<!-- Generator: Adobe Illustrator 23.0.1, SVG Export Plug-In . SVG Version: 6.00 Build 0)  -->
<svg version="1.1" id="Layer_1" xmlns="http://www.w3.org/2000/svg" xmlns:xlink="http://www.w3.org/1999/xlink" x="0px" y="0px"
	 viewBox="0 0 384 384" style="enable-background:new 0 0 384 384;" xml:space="preserve">
<style type="text/css">
	.st0{fill:#808080;}
</style>
<path class="st0" d="M352.8,241.9c0-10.1,0-20,0-29.8c0-22.8,0-44.3,0-66.1c0-11.6-0.1-23.2-0.1-34.8c-0.1-18-0.2-36.5-0.1-54.8
	c0-6.7-2-12.2-5.9-16.1c-3.9-3.9-9.6-5.9-16.5-5.9c-0.1,0-0.1,0-0.2,0c-74.9,0.4-151.1,0.4-224.8,0.4c-15,0-30.1,0-45.1,0
	c-10.1,0-20.2,0-30.4,0C14.5,34.8,8.3,41,8.2,56.2c-0.1,64.3-0.1,131.3,0,204.7c0,14.2,6.2,20.4,20.7,20.6l17.9,0.2
	c26.3,0.4,53.5,0.7,80.2,0.8c6.3,0,9.1,2.3,10.1,8.5c1.9,11.6-1.7,23.9-9.8,33.7c-8,9.8-19.3,15.6-30.9,16c-1.1,0-2.2,0.1-3.3,0.1
	c-3.9,0.1-8,0.2-11.9,0.9c-2,0.3-3.5,1.7-3.9,3.4c-0.5,1.7,0.1,3.4,1.5,4.6c1.3,1,3.7,1.6,7,1.6c53.1,0.1,107.1,0.2,159.4,0.2
	l27.9,0c1.5,0,4.1,0,6.3-0.6c1.4-0.4,1.5-0.9,1.4-3.7c0-0.4,0-0.8,0-1.3c0-3.3-0.2-4.1-2.4-5.2c-1.5-0.7-5.4-0.6-7.9-0.5
	c-0.9,0-1.6,0.1-2.3,0.1c-20.1,0-35.8-10.7-42-28.6c-2-5.9-1.6-12.5-1.3-18.9c0.1-1.9,0.2-3.9,0.3-5.8c0-2.1,3.6-4.8,5.9-4.9
	c6.5-0.3,13.1-0.2,19.5-0.2c2.2,0,4.5,0,6.7,0h1l1,3.8c0.5,2,0.9,3.7,1.4,5.5c6.8,27.2,30.8,46.3,58.2,46.4c0.1,0,0.2,0,0.2,0
	c28.6,0,54.1-19.9,59.4-46.4c2.2-10.8,2.5-21.8,2.9-33.5c0.2-4.8,0.3-9.7,0.6-14.7h-29V241.9z M31.9,45.4c99,0,197.9,0,296.9,0
	c11.3,0,13.1,1.8,13.1,13c0,47.2,0,95.2,0,146.7c0,1.9-0.1,3.8-0.3,5.8c-0.1,1-0.1,2.1-0.2,3.2l-0.1,1.2h-16.7V214
	c0-2.5,0.1-5,0.1-7.4c0.2-5.5,0.3-10.8-0.3-16c-1.3-11-9.1-17.1-20.8-16.2c-9.9,0.7-16.6,8-17.2,18.5c-0.1,2.4-0.1,4.8-0.1,7.1
	c0,1.6,0,3.2,0,4.8c0,1.9-0.1,3.8-0.2,5.9c0,1-0.1,2-0.1,3L286,215H18.9l-0.1-1.2c0-0.9-0.1-1.9-0.2-2.8c-0.1-2-0.3-4.1-0.3-6.2
	c0-48.6,0-97.3,0-145.9C18.4,47.1,20.1,45.4,31.9,45.4z M341.1,227.3v15.5h-15.3v-15.5H341.1z M233.9,337.4l3.7,2.3H127.9l1.4-2
	c1.6-2.3,3.4-4.4,5.2-6.8c4.2-5.2,8.5-10.6,10.6-16.6c2.1-6.1,2.2-13,2.2-20.3c0-3.3,0-6.7,0.3-10l0.1-1.2h67.8l-0.2,1.4
	C212.7,303.5,212,323.5,233.9,337.4z M255.5,270l-0.2,1.1l-61.8,0c-17.7,0-35.5,0-53.2,0c-35.8,0-71.6,0-107.4,0
	c-13,0-14.5-1.5-14.5-14.2c0-6.4,0-12.8,0-19.4l0-10.3h267.4v13.7l-1.2,0.1c-7.4,0.6-14.7,3.8-19.9,8.8
	C260.1,254.1,256.9,261.1,255.5,270z M370.8,253.9l-0.1,1.4c-0.3,4.1-0.5,8-0.6,11.8c-0.3,8.2-0.6,16-2.3,23.5
	c-4.7,21.1-25.7,36.1-49.6,36.1c-1.3,0-2.6,0-3.8-0.1c-21.5-1.4-41.2-20.3-44-42c-0.9-6.7-1.2-12.2-1-17.2c0.2-5,1.1-7.8,3-9.7
	c2.6-2.4,6.9-2.7,12.9-2.5l1.2,0.1v26.3h11v-8.2c0-6.8,0-13.5,0-20.3c0-18.5,0-37.7-0.1-56.5c0-3.5-0.1-11.7,8.2-11.8
	c2.5,0,4.5,0.7,5.9,2.1c1.9,1.9,2.7,4.9,2.7,9.4c-0.2,13.9-0.1,27.6-0.1,42.1c0,5.1,0,10.2,0,15.4H370.8z"/>
<path class="st0" d="M134.2,170.5h10.6v-64.2H93.3v64.1H104v-26h30.3V170.5z M133.6,132.3h-29.5v-15.6h29.5V132.3z"/>
<path class="st0" d="M213,106.1h-51.3v64.6H213V106.1z M202.1,159.7h-29.4v-43h29.4V159.7z"/>
<polygon class="st0" points="241.3,116.1 281.1,116.1 281.1,106.3 230.2,106.3 230.2,144.3 271.3,144.3 271.3,160.3 230.2,160.3 
	230.2,170.6 281.1,170.6 281.1,132.9 241.3,132.9 "/>
</svg>
