<?xml version="1.0" encoding="utf-8"?>
<!-- Generator: Adobe Illustrator 23.0.1, SVG Export Plug-In . SVG Version: 6.00 Build 0)  -->
<svg version="1.1" id="Layer_1" xmlns="http://www.w3.org/2000/svg" xmlns:xlink="http://www.w3.org/1999/xlink" x="0px" y="0px"
	 viewBox="0 0 369.9 374" style="enable-background:new 0 0 369.9 374;" xml:space="preserve">
<style type="text/css">
	.st0{fill:#808080;}
	.st1{fill:none;stroke:#808080;stroke-width:10;stroke-miterlimit:10;}
</style>
<g>
	<g>
		<path class="st0" d="M330.4,220c-19.6-12.2-42.8-15.6-65.3-9.8c-16.8,4.4-31.1,13.5-43.9,27.8l-1.4,1.6l-1.8-1.2
			c-3.9-2.5-7.8-5.1-11.6-7.6c-9.1-6.1-17.7-11.8-26.8-17c-7.4-4.3-14.3-7.2-12.3-19.6c0.5-2.9,0.3-8.9-0.1-12.2
			c-0.3-2.2-0.6-4.5-0.7-6.8c0-1.5,0.1-6.7,2.9-8.6c10.7-7.4,21.3-14.4,32.5-21.8c3.2-2.1,6.4-4.2,9.6-6.3l1.8-1.2l1.4,1.5
			c0.8,0.9,1.6,1.7,2.3,2.5c1.4,1.5,2.6,2.9,3.9,4.1c24.8,23.1,62.4,28.6,93.7,13.6c30-14.4,49.7-48.3,47-80.6
			c-3-35.5-26.4-64.8-59.5-74.6c-3.6-1.1-7.3-1.9-10.9-2.7c-1.6-0.4-3.3-0.7-4.9-1.1h-17.9c-1.7,0.4-3.4,0.9-5.1,1.3
			c-3.8,0.9-7.6,1.9-11.4,3.1c-41.9,13.3-65.8,56.7-55.7,100.8c0.7,3.2,0.2,8.9-2.7,10.9c-9.4,6.7-19.1,13.1-28.6,19.3
			c-3,2-6.1,4-9.1,6l-1.9,1.2l-1.4-1.7c-21.9-26.8-47.4-33.2-64.9-34c-23.9-1-47.7,8.3-63.8,24.9C8,148.4-0.5,169.9,0,192.4
			c0.5,22.5,10,43.4,26.6,59c16.4,15.4,36.1,22.9,58.8,22.4c29.2-0.6,52.2-13.5,70.2-39.2l1.4-2l2,1.3c3.8,2.5,7.6,5,11.3,7.4
			c9.3,6.1,18,11.9,27.1,17.4c6.7,4.1,8.7,8.6,7.2,16.6c-5.1,27,3,53.8,22.1,73.4c19.2,19.6,45.7,28.4,72.8,23.9
			c22.4-3.7,42.7-16.6,55.6-35.5c12.9-18.8,17.5-41.3,12.9-63.2C363.4,251.4,350,232.2,330.4,220z M226.1,32.4
			c13.7-13.9,32-21.5,51.5-21.6c0,0,0.1,0,0.1,0c19.4,0,37.7,7.6,51.6,21.5C343.3,46.3,351,64.6,351,84.1c0,19.1-7.6,37.2-21.5,51
			c-13.9,13.8-32.2,21.5-51.5,21.6c-0.2,0-0.4,0-0.6,0c-39,0-72.2-32.6-72.6-71.4C204.6,65.3,212.2,46.5,226.1,32.4z M136,241.5
			c-14,14-32.6,21.7-52.5,21.7c0,0-0.1,0-0.1,0c-19.2,0-37.4-7.7-51.2-21.5c-13.8-13.8-21.3-32.1-21.3-51.4
			c0-40,32.7-72.5,72.9-72.5c0,0,0,0,0.1,0c40.5,0,73.4,32.7,73.4,72.9C157.2,209.7,149.7,227.8,136,241.5z M337.9,342.7
			c-13.8,13.5-32.4,21.2-51.2,21.2c-0.4,0-0.7,0-1.1,0c-19.2-0.3-37.3-8.2-51.1-22.3c-13.7-14.1-21.2-32.3-21-51.5
			c0.2-19,7.9-37,21.8-50.8c13.8-13.8,31.9-21.4,50.9-21.4c0,0,0.1,0,0.1,0c19.7,0,38.3,7.7,52.2,21.6c13.9,13.9,21.5,32.4,21.5,52
			C359.8,310.7,352,328.8,337.9,342.7z"/>
	</g>
	<path class="st1" d="M78.8,142.8c15,0.7,26.7,12,29.1,26.9c0.2,1-0.5,6.9,0.4,7.5c2.9,2,1.1,7.7-2.2,12c-3,3.9-4.1,5-6.1,7.6
		c-1.6,2.2-3.8,4.5-3.6,8c1.1,15.3,24.5,7.4,34.5,17.4c-11.1,16-26.4,23.1-45,23.6c-19.7,0.5-35.8-6.8-49-24.7
		c6.3-2.2,11.3-4,16.4-5.6c3.7-1.2,7.7-1.6,11.3-3.1c6.5-2.7,7.7-7.4,4-13.3c-1.9-3.1-4-6.1-5.9-9.2c-2.3-3.9-4.8-8.2-0.8-12.6
		c0.8-0.9,0.7-2.2,0.6-3.6c-0.9-11.3,1.6-20.6,13.5-25.1C77.3,147.9,77.7,144.9,78.8,142.8z"/>
	<path class="st1" d="M271.8,23.8c15,0.7,26.7,12,29.1,26.9c0.2,1-0.5,6.9,0.4,7.5c2.9,2,1.1,7.7-2.2,12c-3,3.9-4.1,5-6.1,7.6
		c-1.6,2.2-3.8,4.5-3.6,8c1.1,15.3,24.5,7.4,34.5,17.4c-11.1,16-26.4,23.1-45,23.6c-19.7,0.5-35.8-6.8-49-24.7
		c6.3-2.2,11.3-4,16.4-5.6c3.7-1.2,7.7-1.6,11.3-3.1c6.5-2.7,7.7-7.4,4-13.3c-1.9-3.1-4-6.1-5.9-9.2c-2.3-3.9-4.8-8.2-0.8-12.6
		c0.8-0.9,0.7-2.2,0.6-3.6c-0.9-11.3,1.6-20.6,13.5-25.1C270.3,28.9,270.7,25.9,271.8,23.8z"/>
	<path class="st1" d="M319.7,293.7c-7.2,0-14.6,0-21.9,0c-2.5,8.8,0.9,13.3,7.9,15.9c6,2.2,12.3,4,18,6.9c7.2,3.7,7.4,9.6,1.1,14.5
		c-17.9,13.9-55.6,15.1-74.4,2.3c-8.6-5.9-8.2-13.2,1.5-17.7c5.3-2.5,11.1-4,16.5-6.1c6.7-2.5,9.9-7,7.6-15.4c-7.2,0-14.7,0-21.9,0
		c3.5-12.9,6.4-24.9,10.3-36.7c3.8-11.8,12.9-18.7,22.5-18.7c9.5,0,18.6,7.1,22.5,18.7C313.1,269.1,316,281,319.7,293.7z"/>
</g>
</svg>
