<?xml version="1.0" encoding="utf-8"?>
<!-- Generator: Adobe Illustrator 23.0.1, SVG Export Plug-In . SVG Version: 6.00 Build 0)  -->
<svg version="1.1" id="Layer_1" xmlns="http://www.w3.org/2000/svg" xmlns:xlink="http://www.w3.org/1999/xlink" x="0px" y="0px"
	 viewBox="0 0 384 384" style="enable-background:new 0 0 384 384;" xml:space="preserve">
<style type="text/css">
	.st0{fill:#808080;}
</style>
<path class="st0" d="M198,126.9c-0.1,0-0.3,0-0.4,0c-35.5,0-63.4,27.7-63.7,63.2c-0.2,35.7,27.5,63.9,63.2,64.1
	c17.1,0.1,33.2-6.4,45.2-18.3c12-11.9,18.7-27.8,18.8-44.9c0.1-17.2-6.4-33.2-18.2-45.3C231.1,133.7,215.1,127,198,126.9z
	 M235.1,228.8c-10.1,9.8-23.5,15.2-37.7,15.2c-0.1,0-0.2,0-0.4,0c-14.3-0.1-27.7-5.7-37.6-15.8c-10.1-10.3-15.5-24-15.4-38.7
	c0.2-14.2,5.8-27.5,16-37.4c10.1-9.8,23.4-15.2,37.7-15.2c0.1,0,0.2,0,0.3,0c14.3,0.1,27.7,5.7,37.6,15.8
	c10.1,10.3,15.5,24,15.4,38.7C250.9,205.7,245.2,219,235.1,228.8z"/>
<g>
	<path class="st0" d="M328.2,20.5c0.6,0,1.1,0,1.7,0c2.5,0.1,5.1,0.1,6.5-1.2c0.8-0.8,1.2-2.1,1.1-3.9c-0.1-4.3-3.7-4.6-8.1-4.6
		c0,0,0,0,0,0l-0.7,0c-21.3-0.2-46.8-0.4-73.9-0.4c-17.5,0-35.6,0.1-53.9,0.3c-23.7,0.2-43.2,7.5-58,21.7
		c-28,26.9-55.6,55.4-79.3,80.1c-4.5,4.7-6.6,10.8-5.8,17.2c0.8,6.8,4.7,12.8,10.6,16.6c10.8,6.9,30.2,5,39.2-3.8
		c7.5-7.3,15-14.9,22.3-22.3l4.9-5c1.9-1.8,4-3.9,3.8-5.9c-0.1-1-0.7-1.9-2-2.9c-1.5-1.1-7.2,0.5-9.6,2.6c-5.6,5-11,10.5-16.2,15.8
		c-3.4,3.5-7,7.1-10.6,10.6c-3.3,3.2-9.3,5-15.7,4.9c-5.7-0.1-10.6-1.9-13.2-4.6c-5.9-6.3-4.6-12.5,4.8-22
		c11.5-11.7,23.1-23.4,34.6-35.1c10.9-11.1,21.8-22.1,32.7-33.2c14.3-14.5,30.3-22.4,47.6-23.3h0c14.8-0.8,39.1-1,55.1-1.2
		c8.1-0.1,15.2-0.2,17.3-0.3l0-0.1l17.6,0C296.5,20.6,312.5,20.6,328.2,20.5z"/>
	<path class="st0" d="M328.7,81.8c-9.5,3-19.4,6.5-27.9,11.9c-16.8,10.7-31.8,13.6-47,9.1c-23-6.7-48.4-10-77.6-10.1
		c-4.9,0-9.1-1.6-11.6-4.5c-2.1-2.3-3-5.3-2.6-8.6c0.9-7.8,5.9-11.9,14.4-12c6,0,12.1,0,18.1,0c3.7,0,7.3,0,11,0
		c2.8,0,5.7,0,8.5,0.1c7.1,0.1,14.3,0.2,21.5-0.3c0.9-0.1,1.8-2.4,1.8-5.5c-0.1-2.4-0.7-3.9-1.3-4c-11.1-0.3-22.3-0.4-33.9-0.4
		c-9.1,0-18.4,0.1-28.1,0.2c-12.6,0.2-22.4,10.2-22.2,22.8c0.1,12.2,9.8,21.5,23.7,22.7c4.5,0.4,9.1,0.7,13.6,1
		c16.8,1.2,34.1,2.4,50.6,6.3c29.7,6.9,50.6,3.9,69.9-10.3c3.8-2.8,8.4-4.4,12.9-6c2.2-0.8,4.6-1.6,6.7-2.6c3.2-1.4,4.5-3.6,3.5-6.2
		C331.8,83,329.5,81.6,328.7,81.8z"/>
</g>
<g>
	<path class="st0" d="M328.2,360.5c0.6,0,1.1,0,1.7,0c2.5-0.1,5.1-0.1,6.5,1.2c0.8,0.8,1.2,2.1,1.1,3.9c-0.1,4.3-3.7,4.6-8.1,4.6
		c0,0,0,0,0,0l-0.7,0c-21.3,0.2-46.8,0.4-73.9,0.4c-17.5,0-35.6-0.1-53.9-0.3c-23.7-0.2-43.2-7.5-58-21.7
		c-28-26.9-55.6-55.4-79.3-80.1c-4.5-4.7-6.6-10.8-5.8-17.2c0.8-6.8,4.7-12.8,10.6-16.6c10.8-6.9,30.2-5,39.2,3.8
		c7.5,7.3,15,14.9,22.3,22.3l4.9,5c1.9,1.8,4,3.9,3.8,5.9c-0.1,1-0.7,1.9-2,2.9c-1.5,1.1-7.2-0.5-9.6-2.6c-5.6-5-11-10.5-16.2-15.8
		c-3.4-3.5-7-7.1-10.6-10.6c-3.3-3.2-9.3-5-15.7-4.9c-5.7,0.1-10.6,1.9-13.2,4.6c-5.9,6.3-4.6,12.5,4.8,22
		c11.5,11.7,23.1,23.4,34.6,35.1c10.9,11.1,21.8,22.1,32.7,33.2c14.3,14.5,30.3,22.4,47.6,23.3h0c14.8,0.8,39.1,1,55.1,1.2
		c8.1,0.1,15.2,0.2,17.3,0.3l0,0.1l17.6,0C296.5,360.4,312.5,360.4,328.2,360.5z"/>
	<path class="st0" d="M328.7,299.2c-9.5-3-19.4-6.5-27.9-11.9c-16.8-10.7-31.8-13.6-47-9.1c-23,6.7-48.4,10-77.6,10.1
		c-4.9,0-9.1,1.6-11.6,4.5c-2.1,2.3-3,5.3-2.6,8.6c0.9,7.8,5.9,11.9,14.4,12c6,0,12.1,0,18.1,0c3.7,0,7.3,0,11,0
		c2.8,0,5.7,0,8.5-0.1c7.1-0.1,14.3-0.2,21.5,0.3c0.9,0.1,1.8,2.4,1.8,5.5c-0.1,2.4-0.7,3.9-1.3,4c-11.1,0.3-22.3,0.4-33.9,0.4
		c-9.1,0-18.4-0.1-28.1-0.2c-12.6-0.2-22.4-10.2-22.2-22.8c0.1-12.2,9.8-21.5,23.7-22.7c4.5-0.4,9.1-0.7,13.6-1
		c16.8-1.2,34.1-2.4,50.6-6.3c29.7-6.9,50.6-3.9,69.9,10.3c3.8,2.8,8.4,4.4,12.9,6c2.2,0.8,4.6,1.6,6.7,2.6c3.2,1.4,4.5,3.6,3.5,6.2
		C331.8,298,329.5,299.4,328.7,299.2z"/>
</g>
<g>
	<path class="st0" d="M195.4,233.3v-11.1c-6.4-0.1-13-2.1-16.8-4.8l2.6-7.4c4,2.6,9.7,4.7,15.8,4.7c7.8,0,13.1-4.5,13.1-10.8
		c0-6-4.3-9.8-12.4-13.1c-11.2-4.4-18.1-9.4-18.1-19c0-9.1,6.5-16,16.6-17.7v-11.1h6.8v10.7c6.6,0.2,11.1,2,14.3,3.8l-2.7,7.3
		c-2.3-1.3-6.8-3.7-13.8-3.7c-8.5,0-11.6,5.1-11.6,9.4c0,5.7,4.1,8.6,13.6,12.5c11.3,4.6,17,10.3,17,20.1c0,8.7-6,16.8-17.4,18.7
		v11.4H195.4z"/>
</g>
</svg>
