<?xml version="1.0" encoding="utf-8"?>
<!-- Generator: Adobe Illustrator 23.0.1, SVG Export Plug-In . SVG Version: 6.00 Build 0)  -->
<svg version="1.1" id="Layer_1" xmlns="http://www.w3.org/2000/svg" xmlns:xlink="http://www.w3.org/1999/xlink" x="0px" y="0px"
	 viewBox="0 0 384 384" style="enable-background:new 0 0 384 384;" xml:space="preserve">
<style type="text/css">
	.st0{fill:#808080;}
</style>
<path class="st0" d="M354.1,123.5l-0.3-0.5l0.4-0.4c0.9-0.9,1.9-1.8,2.9-2.8c2.5-2.4,5-4.8,7.4-7.4c0.9-1,1.6-2.5,1.6-3.7
	c0.1-11-4.3-21.4-12.3-29.3c-8-7.9-18.3-12.1-29.3-11.9c-1.1,0-2.5,0.6-3.4,1.4c-2.5,2.4-4.9,4.9-7.4,7.6c-0.9,1-1.9,2-2.8,3
	l-0.4,0.4l-0.5-0.3c-15.9-10.3-32.7-17.2-51.4-21.2l-0.6-0.1V42.4l0.6-0.1c0.6-0.1,1.1-0.2,1.7-0.3c1-0.2,1.9-0.4,2.7-0.6
	c8.3-2.1,13.7-9.9,12.9-18.3c-0.8-8.6-8.1-15.4-16.5-15.5c-18.3-0.1-39.9-0.3-61.5,0c-5.1,0.1-9.9,2.5-13,6.7
	c-3.2,4.3-4.2,9.8-2.8,15c2.2,7.7,7.6,11.9,16.5,12.9l0.7,0.1v15.4l-0.5,0.2c-2.8,0.9-5.5,1.8-8.2,2.6c-6.3,2-12.3,3.8-18.1,6.3
	c-5.8,2.4-11.4,5.3-17.4,8.3c-2.6,1.3-5.3,2.7-8.1,4.1l-0.5,0.2l-0.4-0.4c-0.8-0.8-1.6-1.7-2.4-2.5c-2.2-2.4-4.6-4.8-7.1-7.2
	c-1-1-2.7-1.7-4-1.7c-0.1,0-0.1,0-0.2,0c-10.8,0-21.1,4.3-28.9,12.1c-7.8,7.8-12.1,18-12.1,28.8c0,1.3,0.7,3,1.6,4
	c2.3,2.6,4.9,5,7.3,7.4c1,0.9,1.9,1.9,2.9,2.8l0.4,0.4l-0.3,0.5c-19.2,30.5-26.9,63.8-22.9,98.8l0.1,0.6l-0.6,0.2
	c-10.5,3.9-10.5,3.9-15.5,13.3c-2.1,3.9-7.3,5.9-11.5,4.4c-0.4-0.1-0.8-0.3-1.2-0.4c-1.2-0.4-2.4-0.9-3.7-1.2
	c-8.8-1.8-14.9,3.2-19.6,8.4c-5.8,6.3-7.2,13-4.1,20.6c2.3,5.6,0.2,10.5-5.6,13.1c-7.5,3.3-11.3,9.1-11.4,17.2c0,0.8,0,1.6,0,2.4
	c0,0.6,0,1.1,0,1.7c0,8.6,3.8,14.4,11.6,17.8c5.4,2.3,7.5,7.4,5.4,12.9c-0.5,1.3-1,2.7-1.3,4.1c-1.7,8.7,3.2,14.7,8.2,19.3
	c6.3,6,13.2,7.4,20.9,4.3c1.4-0.6,2.9-0.9,4.2-0.9c3.8,0,7,2.2,8.7,6.3c3.3,7.7,9,11.5,17.4,11.6c1.5,0,3,0,4.5,0
	c8.3-0.1,13.9-3.8,17.2-11.4c2.6-5.8,7.3-7.8,13.4-5.5c1.5,0.6,3,1,4.5,1.2c9.1,1.5,15-4.3,19.8-9.7c4.6-5.3,5.7-11.5,3.3-18.5
	c-0.3-0.9-0.6-1.8-1-3L143,327l1.8,1.2c26.6,17.3,53.9,25.9,82.9,25.9c6.2,0,12.5-0.4,18.9-1.2c36.2-4.4,67.2-20.5,92.4-47.7
	C384.6,255.9,390.7,181.2,354.1,123.5z M319.4,84.8c0.6-0.5,1.2-1,1.7-1.5c1.4-1.3,2.9-2.6,4.5-3.8c1-0.8,2.6-1.2,3.9-1
	c13,1.8,23.5,12.1,25.7,25.1c0.3,1.6-0.5,3.4-1.2,4.5c-1.1,1.5-2.4,2.9-3.7,4.3c-0.5,0.6-1,1.1-1.5,1.7l-4.2,4.7l2.8-5.2
	c-2.3-3.1-24.6-25.2-27.5-27.4l-4.4,2L319.4,84.8z M192,24.9c0-1.8,0.5-3.4,1.7-4.6c1.5-1.5,3.8-2.3,6.8-2.3c18.9,0,37.7,0,56.6,0
	c5.1,0,8.3,2.5,8.3,6.6c0,1.8-0.5,3.4-1.7,4.6c-1.5,1.5-3.8,2.3-6.8,2.3c-6.7,0-13.4,0-20.2,0l-8.3,0l-8.4,0c-2.7,0-5.3,0-8,0
	c-3.9,0-7.8,0-11.7,0C195.2,31.5,192.1,29,192,24.9z M247.3,42.2v13.8h-37.1V42.2H247.3z M104.3,97.2c3.9-9.2,10.9-15.3,20.9-18.3
	c2.8-0.8,6.3-1.3,9,2.5c0.4,0.5,0.9,1,1.3,1.4c0.6,0.6,1,1,0.8,1.6c-0.1,0.1-0.2,0.4-0.5,0.5l-26.5,26.6l1,1.1l-1.1,1.1l-0.7-0.6
	c-0.5-0.5-1-0.9-1.5-1.4C101.3,105.8,101.1,104.9,104.3,97.2z M145.9,310.9c-10.4,4.3-15,15.5-10.7,26c2.1,5.2-0.5,8.4-3.2,11
	c-2.8,2.8-5.9,5.3-11,3.3c-10.9-4.4-21.7,0.1-26.2,10.9c-2.1,5-5.8,5.4-10.5,5.4c-0.1,0-0.1,0-0.2,0c-3.7,0-7.5-0.7-9.5-5.5
	c-4.5-10.7-15.3-15.1-26.3-10.8c-4.6,1.8-7.6,0.1-10.7-3.1c-2.5-2.5-5.6-5.7-3.5-10.9c4.4-11.1,0-21.8-11-26.5
	c-3.6-1.6-5.3-4.2-5.2-7.9c0-1.1,0.1-2.4,0-3.7c-0.2-4.1,1.6-6.9,5.6-8.5c9.1-3.5,11.5-11.7,12.6-19.2c-0.2-0.6-0.3-1.2-0.5-1.8
	c-0.4-1.6-0.8-3.4-1.5-5c-1.5-3.6-0.9-6.5,1.8-9.7c4.4-5.2,8.7-6.3,14.9-3.9c8.4,3.3,19.7-1.8,23.3-10.6c2.2-5.4,5.8-6.5,10.6-6.5
	c0,0,0,0,0,0c5.6,0,8.6,1.9,10.5,6.6c3.6,9,15.1,13.8,24.5,10.4c3.2-1.2,6.8-1,9.8,0.5c2.9,1.4,5,3.9,6,7c0.5,1.7,0.3,4-0.5,6.2
	c-4,10.8,0.5,21.8,10.9,26.1c5.2,2.2,5.6,6.1,5.6,10.4C151.6,305.5,150.6,308.9,145.9,310.9z M114.3,199.6l0-0.8
	c1.6-26.9,11.1-50,29-70.5l0.5-0.6l16.3,17l7.8-8.3l-16.8-16l0.6-0.5c20.7-18.2,43.8-27.9,70.7-29.5l0.8,0v23.4h10.5V90.3l0.8,0
	c26.9,1.6,50,11.1,70.5,29l0.6,0.5l-16.9,16.5l8.3,7.5l16.3-16.5l0.5,0.6c18,20.5,27.6,43.6,29.2,70.5l0,0.8h-23.4v10.5h23.4l0,0.8
	c-1.6,26.8-11.1,49.9-29.1,70.6l-0.5,0.6L297,265.1l-7.6,7.6l16.2,15.9l-0.4,0.5c-10,14.4-49.6,31-70.5,29.6l-0.7,0v-22.9h-10.5
	v23.4l-0.8,0c-9.3-0.3-18.5-1.9-28.4-5c-10.8-3.4-20.8-8.3-29.7-14.5c-1.3-0.9-2.1-2.5-2.8-4c-1.1-2.5-2-4.9-3.1-7.8
	c-0.5-1.2-0.9-2.4-1.5-3.8l-0.2-0.5l11.4-10.2l-8-8.2l-12.6,13.4l-2.4-0.3l-0.1-0.6c-0.1-0.7-0.3-1.6-0.6-2.4
	c-0.5-1.9-1.1-3.9-0.4-5.5c3.5-8.6,2.4-15.7-3.6-22.5l-1.1-1.2h177.9v-10.5h-23.6v-59.8h-34.7v59.5h-13.3v-95.6h-34.4v95.5h-13.6
	v-71.4h-34.6v71.6h-23.9v10.7l-1.3-1.2c-5.7-5.2-11.5-6.9-18.7-5.4l-0.8,0.2l-5.5-29.7h24.3v-10.4H114.3z M174.3,235.2v-61h13v61
	H174.3z M222.2,235.2v-85h13v85H222.2z M270.3,235.3v-49.2h13v49.2H270.3z M270.5,336.9c-14.3,4.6-28.6,6.8-42.6,6.8
	c-24.6,0-48.6-7-71.8-20.9c-0.8-0.5-1.5-1-2.1-1.4c-0.3-0.2-0.5-0.4-0.7-0.5l-0.7-0.5l9-10l0.5,0.3c31.1,18.9,64.3,23.9,98.6,14.9
	c27.9-7.3,50.9-22.9,68.4-46.3c34.4-46.2,33-109.5-3.6-154C289.1,81,227.3,67.1,175.2,91.6c-46.4,21.8-84.6,78.8-68,145.6l1.4,5.6
	l-2.8-5.1c-0.2-0.3-0.4-0.6-0.5-1c-0.4-0.7-0.8-1.4-1.2-2.2c-2-4.6-5.1-7.7-9-9.2c-3.2-1.2-4-3.2-4.3-5.8
	c-3.9-42.2,8.4-79,36.7-109.3c28.7-30.7,64.9-45.5,107.7-44c60.4,2.1,114.3,46.5,128.3,105.6C380.6,243.6,340.6,314.6,270.5,336.9z"
	/>
<path class="st0" d="M84.7,259.5c0,0-0.1,0-0.1,0c-22.7,0.1-41.2,18.6-41.1,41.4c0,11,4.4,21.3,12.2,29.1c7.8,7.8,18.1,12,29,12
	c0,0,0.1,0,0.1,0c22.7-0.1,41.2-18.6,41.1-41.4C125.9,277.9,107.4,259.5,84.7,259.5z M106.3,322.6c-5.8,5.7-13.5,8.8-21.6,8.8
	c-0.1,0-0.2,0-0.4,0c-16.8-0.2-30.4-14.1-30.3-30.9c0-8.2,3.3-15.9,9.1-21.6c5.8-5.8,13.5-8.9,21.7-8.9c0.1,0,0.1,0,0.2,0
	c8.2,0,15.8,3.3,21.6,9.2c5.8,5.9,9,13.7,8.9,21.9C115.4,309.2,112.1,316.9,106.3,322.6z"/>
<path class="st0" d="M84.7,283.5c-9.4,0-17.1,7.7-17.1,17.1c0,4.6,1.8,9,5.1,12.3c3.3,3.3,7.6,5.1,12.3,5.1
	c9.4,0,17.1-7.7,17.1-17.2c0-4.6-1.8-9-5.1-12.3C93.6,285.3,89.3,283.5,84.7,283.5z M84.7,307.5C84.7,307.5,84.7,307.5,84.7,307.5
	c-1.9,0-3.5-0.8-4.8-2.1s-1.9-3-1.9-4.8c0.1-3.6,3.1-6.6,6.7-6.6c0,0,0.1,0,0.1,0c1.8,0,3.4,0.8,4.7,2.1c1.3,1.3,1.9,3,1.9,4.8
	C91.4,304.5,88.3,307.5,84.7,307.5z"/>
</svg>
