<?xml version="1.0" encoding="utf-8"?>
<!-- Generator: Adobe Illustrator 23.0.1, SVG Export Plug-In . SVG Version: 6.00 Build 0)  -->
<svg version="1.1" id="Layer_1" xmlns="http://www.w3.org/2000/svg" xmlns:xlink="http://www.w3.org/1999/xlink" x="0px" y="0px"
	 viewBox="0 0 384 384" style="enable-background:new 0 0 384 384;" xml:space="preserve">
<style type="text/css">
	.st0{fill:#808080;stroke:#808080;stroke-width:4.2;stroke-miterlimit:10;}
	.st1{fill:none;stroke:#808080;stroke-width:7;stroke-miterlimit:10;}
</style>
<path class="st0" d="M178.7,16.1l0.6-0.6c1.6-1.8,5.7-3.4,9.7-4.1c5.6-0.8,11.1-0.1,16.4,2.3c0.9,0.3,1.6,0.8,2.5,1
	c2.4,1,5,2.2,7.4,3.4c5,2.5,8.5,6.8,10.1,12.2c1.6,5.5,1,11.2-1.8,16.2l-0.6,0.9l0,0l0,0l-1.5-2.8c-0.7-1.4-1.4-2.7-2-4
	c-0.6-1.2-1.4-2-2.2-2.2c-0.8-0.1-1.8,0.1-2.8,0.9c-0.6,0.3-1,0.8-1.6,1.1c-3.5,2.6-7.2,5.3-11.8,6.7c-2.7,0.8-5.3,1-8,1
	c-5.3,0-10.3-1.6-15.2-4.7c-1.2-0.8-2.4-1.7-3.5-2.5c-0.8-0.6-1.6-1.1-2.3-1.7c-1-0.7-1.9-1-2.7-0.8s-1.5,0.8-2,1.9
	c-0.8,1.5-1.5,3-2.3,4.4c-0.3,0.7-0.7,1.4-1,2l-0.3,0.8L163,47c-6.4-8.7-6-17,1-22.9C164,24.2,176.1,20.4,178.7,16.1z M203.7,100.9
	c0,1.5,0,2.8,0,4.2c0,0.5-0.1,1.2-0.6,1.7c-2.4,2.5-4.8,4.9-7.4,7.4l-2.5,2.5l-0.3-0.3c-0.8-0.8-1.6-1.6-2.4-2.4
	c-2.5-2.5-4.8-4.8-7.2-7.3c-0.6-0.6-0.6-1.6-0.6-2.4c-0.1-1.1-0.1-2.3,0-3.4c0-0.6,0-1,0-1.6v-0.8l0.7,0.2
	c6.8,1.9,13.3,1.9,19.7-0.1l0.7-0.2v0.8C203.7,99.8,203.7,100.3,203.7,100.9z M193.6,94.7c-1,0-2-0.1-3.1-0.1
	c-14-1.7-24.3-12.7-24.4-26.2c0-0.7,0-1.4,0-2c0.1-1.2,0.1-2.5-0.1-3.6c-0.9-6.6,1.9-11.9,4.8-16.2l0.3-0.5l0.5,0.3
	c14.5,10.6,28.9,10.6,43.5-0.1l0.6-0.3l1.4,2.6c1.1,2,2,4.1,3.1,6l0.1,0.1c0.1,0.3,0.3,0.7,0.3,1.1c-0.1,1.9-0.1,3.9-0.1,5.8
	c0,4.4,0,9-0.9,13.2C216.7,86.1,205.6,94.7,193.6,94.7z M225.4,73.6l1.9-21.7c0.7-1.6,1.4-3.2,2-4.8c2.8-6.4,3.1-12.7,0.9-19.1
	C228,21.3,223.4,16.3,217,13c-0.6-0.3-1.2-0.6-1.8-0.8c-0.8-0.3-1.6-0.7-2.3-1c-0.3-0.2-0.9-0.5-1.2-0.6c-1.4-0.7-2.3-2-3.6-2.5
	c-6.5-2.7-15.2-1.2-15.2-1.2c-3.2,0.1-17.3,3.9-19.5,5.6c-2,1.6-5,3.5-8.4,5c-4.9,2-8.6,5.9-10.5,10.9c-1.9,5.1-1.7,10.7,0.6,15.8
	c1.1,2.3,4.1,7.3,5.2,9.7c0,0,0.1,10.1,0.3,13.4c0.1,1.8,0.1,4.4,0.3,5.8c0,0.1,0.2,1.7,0.3,1.9c0.1,0.5,0.3,0.8,0.3,1.4
	c2.3,8,6.8,14.2,13.9,18.6c1.4,0.8,1.8,1.8,1.8,3.3c-0.1,1.6-0.1,3-0.1,4.7c0,0.7,0,1.4,0,2v0.3l-5.5,1.6c-3.7,1-7.5,2-11.2,3.2
	c-4.8,1.4-9.7,2.6-14.4,4c-5.5,1.5-10.9,3-16.4,4.4c-8,2.2-12.4,8.2-12.4,16.2c0,0.6,0,1,0,1.6v1.4v5.6v7.8c0,6,0,12,0,17.9
	c0,3.1,0.9,4,3.9,4c48.1,0,96.1,0,144.2,0c3.2,0,4-0.8,4-4.1c0-5.5,0-10.9,0-16.4v-9.7l-0.1-5.6v-0.6c0-0.6,0-1,0.1-1.7
	c0-0.6,0.1-1.1,0.1-1.7c0-0.6,0-1-0.1-1.6c-1.1-7-5-11.6-11.6-13.4c-10.8-3.1-21.7-6-32.4-9c-4.5-1.2-9.1-2.5-13.6-3.7
	c-0.3-0.1-0.7-0.2-1.1-0.3l-1-0.3v-0.3c0-0.7,0-1.4,0-1.9c0-1.8,0-3.7,0.1-5.7c0-0.7,0.6-1.6,1.1-1.8c7.8-5,12.6-11.9,14.8-21
	L225.4,73.6h0.5 M263.6,157.4c0,2.8,0,5.7,0,8.5c0,0.2-0.1,0.3-0.1,0.6c0,0.1-0.1,0.1-0.1,0.2l-0.1,0.5h-20.7V141h-5.6v26h-87.7
	v-26.1h-5.5v26.2h-21.2v-11.5c0-7,0-14,0-20.9c0-6,2.8-9.7,8.6-11.4c5.7-1.6,11.4-3.2,17-4.7c9.4-2.6,19.1-5.2,28.5-8
	c1.5-0.3,2.5-0.1,3.5,1c2.3,2.4,4.8,4.8,7,7c0.8,0.8,1.6,1.6,2.4,2.4c2.3,2.3,3.4,2.5,5.6,0.5c0.1-0.1,0.3-0.3,0.5-0.5
	c0.8-0.8,1.6-1.6,2.3-2.3c1.8-1.8,3.6-3.6,5.5-5.5c0.6-0.6,1.2-1.2,1.8-1.8c1.1-1,2-1.4,3.4-0.9c8.9,2.5,17.8,4.9,26.5,7.3
	c6.7,1.8,13.3,3.6,19.9,5.6c4.8,1.4,8,5.1,8,9.8C263.6,141.5,263.6,149.5,263.6,157.4z"/>
<g>
	<path class="st0" d="M48,270.2l0.4-0.4c1.1-1.2,3.8-2.3,6.4-2.7c3.7-0.5,7.4-0.1,10.9,1.5c0.6,0.2,1.1,0.5,1.7,0.7
		c1.6,0.7,3.3,1.4,4.9,2.3c3.3,1.7,5.7,4.5,6.7,8.1c1.1,3.6,0.7,7.5-1.2,10.8l-0.4,0.6l0,0l0,0l-1-1.9c-0.5-0.9-0.9-1.8-1.4-2.6
		c-0.4-0.8-0.9-1.4-1.4-1.4s-1.2,0.1-1.9,0.6c-0.4,0.2-0.7,0.5-1.1,0.8c-2.3,1.7-4.8,3.6-7.9,4.5c-1.8,0.5-3.6,0.7-5.3,0.7
		c-3.6,0-6.9-1.1-10.1-3.1c-0.8-0.5-1.6-1.1-2.3-1.7c-0.5-0.4-1.1-0.8-1.5-1.1c-0.7-0.5-1.3-0.7-1.8-0.5s-1,0.5-1.4,1.3
		c-0.5,1-1,2-1.5,2.9c-0.2,0.5-0.5,0.9-0.7,1.4l-0.2,0.5l-0.4-0.5c-4.2-5.8-4-11.3,0.7-15.3C38.3,275.7,46.3,273.1,48,270.2z
		 M64.7,326.7c0,1,0,1.9,0,2.8c0,0.3-0.1,0.8-0.4,1.1c-1.6,1.7-3.2,3.3-4.9,4.9l-1.7,1.7l-0.2-0.2c-0.5-0.5-1.1-1.1-1.6-1.6
		c-1.7-1.7-3.2-3.2-4.8-4.8c-0.4-0.4-0.4-1.1-0.4-1.6c-0.1-0.8-0.1-1.5,0-2.3c0-0.4,0-0.7,0-1.1v-0.5l0.5,0.2
		c4.5,1.3,8.8,1.3,13.1-0.1l0.5-0.2v0.5C64.7,326,64.7,326.3,64.7,326.7z M58,322.5c-0.7,0-1.4-0.1-2-0.1
		c-9.3-1.1-16.2-8.5-16.3-17.5c0-0.5,0-0.9,0-1.4c0.1-0.8,0.1-1.7-0.1-2.4c-0.6-4.4,1.3-7.9,3.2-10.8l0.2-0.3l0.3,0.2
		c9.7,7,19.2,7,29-0.1l0.4-0.2l0.9,1.7c0.8,1.4,1.4,2.7,2,4l0.1,0.1c0.1,0.2,0.2,0.5,0.2,0.8c-0.1,1.3-0.1,2.6-0.1,3.9
		c0,2.9,0,6-0.6,8.8C73.4,316.9,66,322.5,58,322.5z M79.1,308.6l1.3-14.4c0.5-1.1,0.9-2.1,1.4-3.2c1.9-4.2,2-8.5,0.6-12.7
		c-1.5-4.5-4.5-7.9-8.8-10.1c-0.4-0.2-0.8-0.4-1.2-0.5c-0.5-0.2-1.1-0.5-1.5-0.7c-0.2-0.2-0.6-0.3-0.8-0.4c-0.9-0.5-1.5-1.4-2.4-1.7
		c-4.3-1.8-10.1-0.8-10.1-0.8c-2.1,0.1-11.5,2.6-13,3.7c-1.4,1.1-3.3,2.3-5.6,3.3c-3.3,1.4-5.7,3.9-7,7.3c-1.3,3.4-1.1,7.1,0.4,10.5
		c0.8,1.5,2.7,4.8,3.5,6.4c0,0,0.1,6.7,0.2,8.9c0.1,1.2,0.1,2.9,0.2,3.9c0,0.1,0.2,1.1,0.2,1.3c0.1,0.3,0.2,0.5,0.2,0.9
		c1.5,5.3,4.5,9.5,9.2,12.4c0.9,0.5,1.2,1.2,1.2,2.2c-0.1,1.1-0.1,2-0.1,3.1c0,0.5,0,0.9,0,1.4v0.2l-3.6,1.1c-2.5,0.7-5,1.4-7.5,2.1
		c-3.2,0.9-6.4,1.7-9.6,2.6c-3.6,1-7.3,2-10.9,2.9c-5.3,1.4-8.2,5.4-8.2,10.8c0,0.4,0,0.7,0,1.1v0.9v3.7v5.2c0,4,0,8,0,11.9
		c0,2,0.6,2.6,2.6,2.6c32,0,64,0,96,0c2.1,0,2.6-0.5,2.6-2.7c0-3.6,0-7.3,0-10.9v-6.4l-0.1-3.7v-0.4c0-0.4,0-0.7,0.1-1.1
		c0-0.4,0.1-0.8,0.1-1.1c0-0.4,0-0.7-0.1-1.1c-0.8-4.7-3.3-7.7-7.7-8.9c-7.2-2-14.4-4-21.6-6c-3-0.8-6.1-1.7-9.1-2.5
		c-0.2-0.1-0.5-0.2-0.8-0.2l-0.7-0.2v-0.2c0-0.5,0-0.9,0-1.3c0-1.2,0-2.5,0.1-3.8c0-0.5,0.4-1.1,0.8-1.2c5.2-3.3,8.4-7.9,9.8-14
		L79.1,308.6h0.3 M104.6,364.3c0,1.9,0,3.8,0,5.7c0,0.2-0.1,0.2-0.1,0.4c0,0.1-0.1,0.1-0.1,0.2l-0.1,0.3H90.6v-17.4h-3.7v17.3H28.5
		v-17.4h-3.6v17.5H10.8v-7.6c0-4.7,0-9.3,0-13.9c0-4,1.9-6.4,5.7-7.6c3.8-1.1,7.6-2.1,11.3-3.1c6.3-1.7,12.7-3.5,19-5.3
		c1-0.2,1.7-0.1,2.3,0.7c1.5,1.6,3.2,3.2,4.7,4.7c0.5,0.5,1.1,1.1,1.6,1.6c1.5,1.5,2.3,1.7,3.7,0.3c0.1-0.1,0.2-0.2,0.3-0.3
		c0.5-0.5,1.1-1.1,1.5-1.5c1.2-1.2,2.4-2.4,3.6-3.6c0.4-0.4,0.8-0.8,1.2-1.2c0.8-0.7,1.4-0.9,2.3-0.6c5.9,1.7,11.9,3.3,17.6,4.8
		c4.5,1.2,8.8,2.4,13.2,3.7c3.2,0.9,5.3,3.4,5.3,6.5C104.6,353.7,104.6,359.1,104.6,364.3z"/>
	<path class="st0" d="M319,270.2l0.4-0.4c1.1-1.2,3.8-2.3,6.4-2.7c3.7-0.5,7.4-0.1,10.9,1.5c0.6,0.2,1.1,0.5,1.7,0.7
		c1.6,0.7,3.3,1.4,4.9,2.3c3.3,1.7,5.7,4.5,6.7,8.1c1.1,3.6,0.7,7.5-1.2,10.8l-0.4,0.6l0,0l0,0l-1-1.9c-0.5-0.9-0.9-1.8-1.4-2.6
		c-0.4-0.8-0.9-1.4-1.4-1.4c-0.5-0.1-1.2,0.1-1.9,0.6c-0.4,0.2-0.7,0.5-1.1,0.8c-2.3,1.7-4.8,3.6-7.9,4.5c-1.8,0.5-3.6,0.7-5.3,0.7
		c-3.6,0-6.9-1.1-10.1-3.1c-0.8-0.5-1.6-1.1-2.3-1.7c-0.5-0.4-1.1-0.8-1.5-1.1c-0.7-0.5-1.3-0.7-1.8-0.5s-1,0.5-1.4,1.3
		c-0.5,1-1,2-1.5,2.9c-0.2,0.5-0.5,0.9-0.7,1.4l-0.2,0.5l-0.4-0.5c-4.2-5.8-4-11.3,0.7-15.3C309.3,275.7,317.3,273.1,319,270.2z
		 M335.7,326.7c0,1,0,1.9,0,2.8c0,0.3-0.1,0.8-0.4,1.1c-1.6,1.7-3.2,3.3-4.9,4.9l-1.7,1.7l-0.2-0.2c-0.5-0.5-1.1-1.1-1.6-1.6
		c-1.7-1.7-3.2-3.2-4.8-4.8c-0.4-0.4-0.4-1.1-0.4-1.6c-0.1-0.8-0.1-1.5,0-2.3c0-0.4,0-0.7,0-1.1v-0.5l0.5,0.2
		c4.5,1.3,8.8,1.3,13.1-0.1l0.5-0.2v0.5C335.7,326,335.7,326.3,335.7,326.7z M329,322.5c-0.7,0-1.4-0.1-2-0.1
		c-9.3-1.1-16.2-8.5-16.3-17.5c0-0.5,0-0.9,0-1.4c0.1-0.8,0.1-1.7-0.1-2.4c-0.6-4.4,1.3-7.9,3.2-10.8l0.2-0.3l0.3,0.2
		c9.7,7,19.2,7,29-0.1l0.4-0.2l0.9,1.7c0.8,1.4,1.4,2.7,2,4l0.1,0.1c0.1,0.2,0.2,0.5,0.2,0.8c-0.1,1.3-0.1,2.6-0.1,3.9
		c0,2.9,0,6-0.6,8.8C344.4,316.9,337,322.5,329,322.5z M350.1,308.6l1.3-14.4c0.5-1.1,0.9-2.1,1.4-3.2c1.9-4.2,2-8.5,0.6-12.7
		c-1.5-4.5-4.5-7.9-8.8-10.1c-0.4-0.2-0.8-0.4-1.2-0.5c-0.5-0.2-1.1-0.5-1.5-0.7c-0.2-0.2-0.6-0.3-0.8-0.4c-0.9-0.5-1.5-1.4-2.4-1.7
		c-4.3-1.8-10.1-0.8-10.1-0.8c-2.1,0.1-11.5,2.6-13,3.7c-1.4,1.1-3.3,2.3-5.6,3.3c-3.3,1.4-5.7,3.9-7,7.3c-1.3,3.4-1.1,7.1,0.4,10.5
		c0.8,1.5,2.7,4.8,3.5,6.4c0,0,0.1,6.7,0.2,8.9c0.1,1.2,0.1,2.9,0.2,3.9c0,0.1,0.2,1.1,0.2,1.3c0.1,0.3,0.2,0.5,0.2,0.9
		c1.5,5.3,4.5,9.5,9.2,12.4c0.9,0.5,1.2,1.2,1.2,2.2c-0.1,1.1-0.1,2-0.1,3.1c0,0.5,0,0.9,0,1.4v0.2l-3.6,1.1c-2.5,0.7-5,1.4-7.5,2.1
		c-3.2,0.9-6.4,1.7-9.6,2.6c-3.6,1-7.3,2-10.9,2.9c-5.3,1.4-8.2,5.4-8.2,10.8c0,0.4,0,0.7,0,1.1v0.9v3.7v5.2c0,4,0,8,0,11.9
		c0,2,0.6,2.6,2.6,2.6c32,0,64,0,96,0c2.1,0,2.6-0.5,2.6-2.7c0-3.6,0-7.3,0-10.9v-6.4l-0.1-3.7v-0.4c0-0.4,0-0.7,0.1-1.1
		c0-0.4,0.1-0.8,0.1-1.1c0-0.4,0-0.7-0.1-1.1c-0.8-4.7-3.3-7.7-7.7-8.9c-7.2-2-14.4-4-21.6-6c-3-0.8-6.1-1.7-9.1-2.5
		c-0.2-0.1-0.5-0.2-0.8-0.2l-0.7-0.2v-0.2c0-0.5,0-0.9,0-1.3c0-1.2,0-2.5,0.1-3.8c0-0.5,0.4-1.1,0.8-1.2c5.2-3.3,8.4-7.9,9.8-14
		L350.1,308.6h0.3 M375.6,364.3c0,1.9,0,3.8,0,5.7c0,0.2-0.1,0.2-0.1,0.4c0,0.1-0.1,0.1-0.1,0.2l-0.1,0.3h-13.8v-17.4h-3.7v17.3
		h-58.4v-17.4h-3.6v17.5h-14.1v-7.6c0-4.7,0-9.3,0-13.9c0-4,1.9-6.4,5.7-7.6c3.8-1.1,7.6-2.1,11.3-3.1c6.3-1.7,12.7-3.5,19-5.3
		c1-0.2,1.7-0.1,2.3,0.7c1.5,1.6,3.2,3.2,4.7,4.7c0.5,0.5,1.1,1.1,1.6,1.6c1.5,1.5,2.3,1.7,3.7,0.3c0.1-0.1,0.2-0.2,0.3-0.3
		c0.5-0.5,1.1-1.1,1.5-1.5c1.2-1.2,2.4-2.4,3.6-3.6c0.4-0.4,0.8-0.8,1.2-1.2c0.8-0.7,1.4-0.9,2.3-0.6c5.9,1.7,11.9,3.3,17.6,4.8
		c4.5,1.2,8.8,2.4,13.2,3.7c3.2,0.9,5.3,3.4,5.3,6.5C375.6,353.7,375.6,359.1,375.6,364.3z"/>
	<path class="st0" d="M183.5,270.2l0.4-0.4c1.1-1.2,3.8-2.3,6.4-2.7c3.7-0.5,7.4-0.1,10.9,1.5c0.6,0.2,1.1,0.5,1.7,0.7
		c1.6,0.7,3.3,1.4,4.9,2.3c3.3,1.7,5.7,4.5,6.7,8.1c1.1,3.6,0.7,7.5-1.2,10.8l-0.4,0.6l0,0l0,0l-1-1.9c-0.5-0.9-0.9-1.8-1.4-2.6
		c-0.4-0.8-0.9-1.4-1.4-1.4c-0.5-0.1-1.2,0.1-1.9,0.6c-0.4,0.2-0.7,0.5-1.1,0.8c-2.3,1.7-4.8,3.6-7.9,4.5c-1.8,0.5-3.6,0.7-5.3,0.7
		c-3.6,0-6.9-1.1-10.1-3.1c-0.8-0.5-1.6-1.1-2.3-1.7c-0.5-0.4-1.1-0.8-1.5-1.1c-0.7-0.5-1.3-0.7-1.8-0.5c-0.5,0.2-1,0.5-1.4,1.3
		c-0.5,1-1,2-1.5,2.9c-0.2,0.5-0.5,0.9-0.7,1.4l-0.2,0.5l-0.4-0.5c-4.2-5.8-4-11.3,0.7-15.3C173.8,275.7,181.8,273.1,183.5,270.2z
		 M200.2,326.7c0,1,0,1.9,0,2.8c0,0.3-0.1,0.8-0.4,1.1c-1.6,1.7-3.2,3.3-4.9,4.9l-1.7,1.7L193,337c-0.5-0.5-1.1-1.1-1.6-1.6
		c-1.7-1.7-3.2-3.2-4.8-4.8c-0.4-0.4-0.4-1.1-0.4-1.6c-0.1-0.8-0.1-1.5,0-2.3c0-0.4,0-0.7,0-1.1v-0.5l0.5,0.2
		c4.5,1.3,8.8,1.3,13.1-0.1l0.5-0.2v0.5C200.2,326,200.2,326.3,200.2,326.7z M193.5,322.5c-0.7,0-1.4-0.1-2-0.1
		c-9.3-1.1-16.2-8.5-16.3-17.5c0-0.5,0-0.9,0-1.4c0.1-0.8,0.1-1.7-0.1-2.4c-0.6-4.4,1.3-7.9,3.2-10.8l0.2-0.3l0.3,0.2
		c9.7,7,19.2,7,29-0.1l0.4-0.2l0.9,1.7c0.8,1.4,1.4,2.7,2,4l0.1,0.1c0.1,0.2,0.2,0.5,0.2,0.8c-0.1,1.3-0.1,2.6-0.1,3.9
		c0,2.9,0,6-0.6,8.8C208.9,316.9,201.5,322.5,193.5,322.5z M214.6,308.6l1.3-14.4c0.5-1.1,0.9-2.1,1.4-3.2c1.9-4.2,2-8.5,0.6-12.7
		c-1.5-4.5-4.5-7.9-8.8-10.1c-0.4-0.2-0.8-0.4-1.2-0.5c-0.5-0.2-1.1-0.5-1.5-0.7c-0.2-0.2-0.6-0.3-0.8-0.4c-0.9-0.5-1.5-1.4-2.4-1.7
		c-4.3-1.8-10.1-0.8-10.1-0.8c-2.1,0.1-11.5,2.6-13,3.7c-1.4,1.1-3.3,2.3-5.6,3.3c-3.3,1.4-5.7,3.9-7,7.3c-1.3,3.4-1.1,7.1,0.4,10.5
		c0.8,1.5,2.7,4.8,3.5,6.4c0,0,0.1,6.7,0.2,8.9c0.1,1.2,0.1,2.9,0.2,3.9c0,0.1,0.2,1.1,0.2,1.3c0.1,0.3,0.2,0.5,0.2,0.9
		c1.5,5.3,4.5,9.5,9.2,12.4c0.9,0.5,1.2,1.2,1.2,2.2c-0.1,1.1-0.1,2-0.1,3.1c0,0.5,0,0.9,0,1.4v0.2l-3.6,1.1c-2.5,0.7-5,1.4-7.5,2.1
		c-3.2,0.9-6.4,1.7-9.6,2.6c-3.6,1-7.3,2-10.9,2.9c-5.3,1.4-8.2,5.4-8.2,10.8c0,0.4,0,0.7,0,1.1v0.9v3.7v5.2c0,4,0,8,0,11.9
		c0,2,0.6,2.6,2.6,2.6c32,0,64,0,96,0c2.1,0,2.6-0.5,2.6-2.7c0-3.6,0-7.3,0-10.9v-6.4l-0.1-3.7v-0.4c0-0.4,0-0.7,0.1-1.1
		c0-0.4,0.1-0.8,0.1-1.1c0-0.4,0-0.7-0.1-1.1c-0.8-4.7-3.3-7.7-7.7-8.9c-7.2-2-14.4-4-21.6-6c-3-0.8-6.1-1.7-9.1-2.5
		c-0.2-0.1-0.5-0.2-0.8-0.2l-0.7-0.2v-0.2c0-0.5,0-0.9,0-1.3c0-1.2,0-2.5,0.1-3.8c0-0.5,0.4-1.1,0.8-1.2c5.2-3.3,8.4-7.9,9.8-14
		L214.6,308.6h0.3 M240.1,364.3c0,1.9,0,3.8,0,5.7c0,0.2-0.1,0.2-0.1,0.4c0,0.1-0.1,0.1-0.1,0.2l-0.1,0.3h-13.8v-17.4h-3.7v17.3H164
		v-17.4h-3.6v17.5h-14.1v-7.6c0-4.7,0-9.3,0-13.9c0-4,1.9-6.4,5.7-7.6c3.8-1.1,7.6-2.1,11.3-3.1c6.3-1.7,12.7-3.5,19-5.3
		c1-0.2,1.7-0.1,2.3,0.7c1.5,1.6,3.2,3.2,4.7,4.7c0.5,0.5,1.1,1.1,1.6,1.6c1.5,1.5,2.3,1.7,3.7,0.3c0.1-0.1,0.2-0.2,0.3-0.3
		c0.5-0.5,1.1-1.1,1.5-1.5c1.2-1.2,2.4-2.4,3.6-3.6c0.4-0.4,0.8-0.8,1.2-1.2c0.8-0.7,1.4-0.9,2.3-0.6c5.9,1.7,11.9,3.3,17.6,4.8
		c4.5,1.2,8.8,2.4,13.2,3.7c3.2,0.9,5.3,3.4,5.3,6.5C240.1,353.7,240.1,359.1,240.1,364.3z"/>
</g>
<g>
	<polyline class="st1" points="47.3,257 47.3,219.5 339.2,219.5 339.2,257 	"/>
	<line class="st1" x1="193.3" y1="180.2" x2="193.3" y2="216.2"/>
</g>
</svg>
