<?xml version="1.0" encoding="utf-8"?>
<!-- Generator: Adobe Illustrator 23.0.1, SVG Export Plug-In . SVG Version: 6.00 Build 0)  -->
<svg version="1.1" id="Layer_1" xmlns="http://www.w3.org/2000/svg" xmlns:xlink="http://www.w3.org/1999/xlink" x="0px" y="0px"
	 viewBox="0 0 355.4 355.4" style="enable-background:new 0 0 355.4 355.4;" xml:space="preserve">
<style type="text/css">
	.st0{fill:#808080;}
</style>
<path class="st0" d="M341.6,298.4c-3.2-3.3-6.8-6-10.6-8.9c-1.7-1.3-3.4-2.6-5.1-4l-0.6-0.4l0.5-0.5c10.8-9.5,14.7-21.5,11.3-34.7
	c-3.4-13.4-12.6-21.9-27.2-25.3l-0.5-0.1v-4.9c0-18.1-11.7-29.7-29.8-29.7c-21.6,0-43.1,0-64.7,0h-31.8V168l0.9,0.5
	c6.4,3.4,12.8,3.9,18.1,1.2c5.2-2.6,9-8.2,9.9-14.8l0.1-0.4l0.4-0.1c9.6-1.4,15.2-7,16.6-16.7l0.1-0.4l0.4-0.1
	c10.1-1.8,14.5-6.1,16.8-16.7l0.1-0.4l0.4-0.1c7.7-1.1,13.6-5.7,15.7-12.3c2.1-6.5,0.2-13.6-5.1-18.9l-0.4-0.4l0.3-0.4
	c18.9-24.8,12.8-54.4-3-70.9c-9.2-9.7-20.4-15.3-33.3-16.7c-16.1-1.7-30.5,3-43,14.2l-0.4,0.4l-0.4-0.4
	C152.6-7.2,121.7-2.2,104,14.1c-10.1,9.3-16,20.8-17.4,34c-1.8,16.2,3.1,30.8,14.5,43.3l0.3,0.4l-0.3,0.4c-3.5,5-4.3,11.5-2,17.1
	c2.5,5.8,7.9,9.7,15.3,10.9l0.4,0.1l0.1,0.4c1.4,9.6,7,15.2,16.7,16.6l0.4,0.1l0.1,0.4c2.1,10.4,5.6,13.9,17,17l0.4,0.1l0,0.4
	c0.7,5.8,3.1,10.1,7.4,13.2c4.2,3,9,3.8,14.8,2.6l0.7-0.2V190l-31.6,0c-22.3,0-44.6,0-66.9,0c-13.4,0-24.6,9.1-27.2,22.1
	c-0.6,2.7-0.7,5.6-0.8,8.4c-0.1,1.3-0.1,2.6-0.2,3.8l0,0.4l-0.4,0.1c-14.5,3.5-23.5,12-26.9,25.2c-3.4,13.4,0.6,25.2,12,35.3
	l0.6,0.6l-1.7,1c-0.5,0.3-1,0.6-1.5,0.8c-14.9,8-23.8,19.8-26.5,34.9c-1.2,6.6-1.2,13.5-1.2,20.2c0,3,0,6.1-0.1,9.1
	c0,0.9,0,1.9,0,2.8c0,0.2,0,0.5,0,0.7h102.3c0-2.2,0-4.4,0-6.6c0-5.3,0-10.4,0-15.5c-0.4-19.9-9.6-35.2-27.3-45.4
	c-0.6-0.3-1.2-0.7-1.8-1l-1.7-1l0.6-0.5c11.3-10,15.3-21.8,11.9-35.1c-3.4-13.4-12.5-21.9-27-25.3l-0.4-0.1l-0.1-0.4
	c-1.1-7.2,0.3-13.3,4.2-17.6c3.8-4.4,9.9-6.7,17-6.6c21.3,0.3,42.9,0.3,63.8,0.2c8.7,0,17.3-0.1,26-0.1h4.7v24.4l-0.5,0.1
	c-14.7,3.5-23.8,12.1-27.1,25.5c-3.3,13.3,0.7,25.1,12.1,35.1l0.7,0.6l-0.8,0.4c-13.7,6.8-22.7,16.7-27.5,30.3
	c-3.1,8.7-2.9,17.7-2.7,26.5c0.1,4,0.2,8.1,0,12.1h102.3c0-2.3,0-4.5,0-6.7c0-5.4,0-10.4,0-15.6c-0.1-15-5.8-27.7-16.9-37.7
	c-2.7-2.4-5.7-4.5-8.7-6.5c-1.4-0.9-2.8-1.9-4.1-2.8l-0.6-0.4l0.6-0.5c10.5-8.9,14.8-21.8,11.6-34.7c-3.3-13.1-13.4-22.6-27.2-25.6
	l-0.5-0.1v-24l0.5-0.1c0.2,0,0.3-0.1,0.4-0.1c0.2-0.1,0.4-0.1,0.7-0.1c8,0,16,0,24,0c23.8,0,48.5,0,72.7,0c8.7,0,15.6,5.9,17.3,14.5
	c0.4,2.1,0.5,4.3,0.5,6.4c0,1,0.1,1.9,0.1,2.9l0,0.5l-0.5,0.1c-14.8,3.5-24,12.1-27.4,25.5c-3.4,13.4,0.7,25.2,12.1,35.2l0.7,0.6
	l-0.8,0.4c-13.8,6.9-22.8,16.8-27.6,30.5c-3,8.6-2.8,17.5-2.6,26.2c0.1,4,0.2,8.2-0.1,12.3h102.4c0-2.3,0-4.5,0-6.7
	c0-5.3,0-10.6,0-15.8C355.3,319.2,350.7,307.7,341.6,298.4z M74.6,299.7c9.2,6.5,15.3,16.6,16.7,27.7c0.5,3.8,0.6,7.6,0.7,11.5
	c0.1,1.8,0.1,3.6,0.2,5.5l0,0.6H79.5v-22.6H69.1V345H33.2v-22.6H23.1v22.6H10.9l-0.1-0.5c-4-25.7,9-46.4,32.3-51.4
	C54,290.9,65.5,293.2,74.6,299.7z M74.8,258.4c0,12.7-10.8,23.5-23.4,23.6c-0.1,0-0.1,0-0.2,0c-6.1,0-12-2.5-16.5-6.9
	c-4.6-4.5-7.1-10.5-7.1-16.7c0-6.3,2.5-12.2,7.1-16.7c4.6-4.5,10.5-7,16.7-6.9C64.1,234.9,74.8,245.7,74.8,258.4z M186.5,21.5
	c12.6-11.5,27.9-14.2,44.1-8c15.6,6,24.9,17.6,27.6,34.6c1.8,11.3-0.9,21.8-8.2,32.2l-0.4,0.6l-27.1-27.2l4.2-3.9l-7.2-7.4
	c-7.4,7-16.9,10.1-29.8,9.7c-1.4-0.1-3.5,0.8-4.8,2c-2.1,1.9-3.6,3.5-4.8,4.7c-4.7,4.7-4.8,4.8-11.7,4.7c-1.7,0-3.9,0-6.6,0l-1.3,0
	c-2.6,0-5.4,0.1-8.1-0.1c-1.2-0.1-2.9-0.8-3.6-1.9c-0.6-0.9,0.4-3,1.2-3.7c3.3-3.3,6.5-6.6,9.7-9.9C168.4,39,177.3,29.9,186.5,21.5z
	 M115.1,109.4C115.1,109.4,115.1,109.4,115.1,109.4c-2.6,0-5-1.6-6.2-3.9c-1.1-2-1-4.2,0.1-5.9c2-3.1,4.9-5.9,8-7.8
	c1.8-1.1,4-1.1,5.9,0.1c2.3,1.3,3.7,3.8,3.6,6.3C126.4,102.3,119.2,109.4,115.1,109.4z M138.1,123.9c-2,1.7-3.9,2.6-5.4,2.6
	c-0.2,0-0.4,0-0.6,0c-2.1-0.4-4.8-1.9-5.7-3.8c-0.9-2.1-0.4-5.2,0.6-7.1c1.2-2.3,3.4-4.5,5.7-5.7c2.1-1.1,5.1-1.3,7.1-0.5
	c1.5,0.6,2.5,2.1,3.2,3.3c0.2,0.4,0.4,0.7,0.6,0.9l0.1,0.2l0,0.2C143.8,117.4,140.9,121.5,138.1,123.9z M148.4,143.9
	c0,0-0.1,0-0.1,0l-0.2,0l-0.2-0.1c-0.2-0.2-0.5-0.4-0.9-0.6c-1.1-0.7-2.7-1.7-3.3-3.2c-0.9-1.9-0.7-5,0.4-6.8
	c1.5-2.5,3.9-4.6,6.1-6.3c2.6-2,5.7-1.9,8.3,0.4c2.6,2.2,3.3,5.1,1.9,8.1C158.6,139.1,152.6,143.9,148.4,143.9z M165.6,161.1
	c-0.1,0-0.1,0-0.2,0l-0.2,0l-0.2-0.1c-0.2-0.2-0.5-0.4-0.9-0.6c-1.1-0.7-2.7-1.7-3.3-3.2c-0.9-1.9-0.7-5,0.4-6.8
	c1.5-2.5,3.9-4.6,6.1-6.3c2.6-2,5.7-1.9,8.3,0.4c2.5,2.2,3.2,4.8,2,7.8C176.1,156.2,170,161.1,165.6,161.1z M199.5,298.6
	c9.4,6,16,15.5,18.1,26.3c0.9,4.3,1,8.7,1.1,13.3c0.1,2.1,0.1,4.2,0.3,6.4l0,0.6h-13v-22.7h-10.4V345h-35.8v-22.6h-10.2v22.6h-12.2
	l-0.1-0.5c-3.9-25,8.6-45.5,31.3-51.1C179,290.9,190.2,292.8,199.5,298.6z M201.3,258.2c0.1,6.2-2.4,12.1-6.9,16.7
	c-4.5,4.6-10.4,7.1-16.7,7.1c0,0,0,0,0,0c-12.7,0-23.5-10.7-23.6-23.4c-0.1-6.2,2.4-12.2,6.9-16.7c4.5-4.6,10.4-7.1,16.7-7.1
	c0,0,0,0,0,0C190.4,234.8,201.2,245.5,201.3,258.2z M172.1,132.1l-0.4-0.1l-0.1-0.4c-2.3-10.4-6.8-14.9-16.8-16.6l-0.4-0.1l-0.1-0.4
	c-1.4-9.7-7-15.4-16.6-16.7l-0.4-0.1l-0.1-0.4c-1.1-7-4.9-12.5-10.5-15.1c-5.3-2.5-11.6-1.9-17.2,1.5l-0.4,0.2l-0.3-0.3
	c-14-12.5-17.9-39.5-1.2-58.3c8.1-9.2,19.3-14.4,31.4-14.7c11.7-0.3,22.8,4,30.6,11.8l0.4,0.4l-0.4,0.4c-0.3,0.3-0.5,0.6-0.8,0.9
	c-0.6,0.6-1.2,1.3-1.8,1.9c-4.1,4.1-8.1,8.2-12.2,12.2c-4.1,4.1-8.3,8.3-12.4,12.4c-4.3,4.3-5.4,9.3-3.3,14.8
	c2,5.2,6.7,8.2,13.1,8.2c2.1,0,4.3,0,6.5,0c4.3,0,8.6-0.1,13,0.1c6,0.2,10.8-1.8,14.2-5.9c3.6-4.4,7.7-6.2,13.1-5.8
	c2.2,0.1,4.4-0.4,6.8-1c1.4-0.3,2.9-0.7,4.3-0.9c1.5-0.2,3.5,0,4.5,1c11.4,11.2,22.6,22.4,35.9,35.8c3.4,3.4,3.7,7.3,0.7,10.4
	c-1.4,1.4-3,2.2-4.7,2.2c-2,0-4-0.9-5.9-2.8c-3-2.9-5.8-5.8-8.8-8.9c-1.2-1.2-2.3-2.4-3.5-3.6l-7.1,8c1,1,2.1,2,3.2,3.1
	c3,2.9,6.2,6,9.3,9.2c2.1,2.1,2.8,5.1,1.9,7.6c-0.8,2.3-2.7,3.8-5.1,4.2c-2.3,0.4-5.2-0.9-6.8-2.3c-3.3-2.9-6.3-6-9.4-9.2
	c-1.1-1.1-2.2-2.2-3.3-3.3l-7.3,7.6c1,1,2.1,2,3.1,3c3.1,3,6.2,6.1,9.2,9.3c1.5,1.6,2.8,4.5,2.5,6.8c-0.3,2.5-1.9,4.4-4.1,5.2
	c-2.6,0.9-5.5,0.2-7.6-1.8c-3.6-3.4-7-6.8-11-10.9c-0.6-0.6-1-1.4-1.4-2.3c-0.1-0.1-0.1-0.3-0.2-0.4l-7.8,8.1l10.3,10.3
	c0.3,0.3,0.5,0.5,0.8,0.8c0.7,0.7,1.4,1.3,2,2c2.9,3.3,2.8,7.4-0.3,10.1c-1.3,1.2-3,1.8-4.6,1.8c-0.1,0-0.3,0-0.4,0
	c-1.9-0.1-3.7-1.1-5.1-2.7c-0.7-0.8-1.1-2.2-0.9-3.2C190.1,142.4,185.1,135,172.1,132.1z M280.7,258.7c-0.1-6.2,2.3-12.1,6.8-16.7
	c4.5-4.6,10.4-7.2,16.7-7.2c0.1,0,0.1,0,0.2,0c6.2,0,12,2.5,16.5,7c4.6,4.5,7,10.5,7,16.7c0,12.7-10.8,23.5-23.5,23.6
	c-0.1,0-0.1,0-0.2,0C291.6,282,280.9,271.4,280.7,258.7z M332.6,345.1v-22.6h-10.4V345h-35.8v-22.6h-10.2v22.6H264l-0.1-0.5
	c-3.9-25,8.6-45.5,31.3-51.1c10.3-2.6,21.5-0.7,30.8,5.2c9.4,6,16,15.5,18.1,26.3c0.9,4.3,1,8.7,1.1,13.3c0.1,2,0.1,4.2,0.3,6.3
	l0,0.6H332.6z"/>
</svg>
