<?xml version="1.0" encoding="utf-8"?>
<!-- Generator: Adobe Illustrator 23.0.1, SVG Export Plug-In . SVG Version: 6.00 Build 0)  -->
<svg version="1.1" id="Layer_1" xmlns="http://www.w3.org/2000/svg" xmlns:xlink="http://www.w3.org/1999/xlink" x="0px" y="0px"
	 viewBox="0 0 384 384" style="enable-background:new 0 0 384 384;" xml:space="preserve">
<style type="text/css">
	.st0{fill:#818181;}
</style>
<path class="st0" d="M340.2,352c0-3.6,0-7.2,0-10.8c0-13.4-4.7-19.9-17.3-24.1c-3.8-1.3-7.7-2.1-11.8-3.1c-1.9-0.4-3.9-0.9-5.9-1.4
	l-1.4-0.4l0.9-1.1c12.8-15.3,14.8-33.2,4.8-43.5c-4-4.1-10.4-6.6-17.1-6.7c-6,0-11.4,1.9-14.9,5.4c-3.7,3.6-6.6,9.3-7.6,14.9
	c-2,10.4,1.6,20.4,10.6,29.7l1.1,1.1l-1.5,0.4c-2.1,0.6-4.3,1-6.3,1.5c-4.5,1-8.7,2-12.7,3.5c-11.3,4-15.9,10.7-16,23
	c0,3.8,0,7.7,0,11.5c0,7,0.1,14.3-0.1,21.4c-0.1,2.7,0.4,4.4,1.4,5.4c1,1,2.6,1.4,5.1,1.4c13.7-0.1,27.4-0.1,41.2-0.1
	c13.8,0,27.5,0,41.2,0.1c2.5,0,4.1-0.5,5.1-1.4c1-1,1.4-2.7,1.4-5.4C340.2,366.3,340.2,359,340.2,352z M276.1,285
	c0.1-10.8,6.2-17,16.5-17c0,0,0.1,0,0.1,0c10.4,0,16.4,6.3,16.4,17.2c0.1,12.1-7.4,22.4-16.3,22.6c-0.1,0-0.2,0-0.3,0
	c-3.5,0-6.8-1.5-9.7-4.3C278.6,299.2,276,292.3,276.1,285z M333.5,362c0,3.3,0,6.6,0,9.9v0.9h-13.3v-0.9c0-2.1,0-4.3,0.1-6.4
	c0.1-5.3,0.1-10.9-0.2-16.2c-0.2-2.4-2.2-5.8-3.2-6c-1.1-0.2-2,0-2.5,0.4c-0.9,0.8-0.9,2.8-0.9,4.6c0,0.4,0,0.7,0,1.1
	c0,5.2,0,10.3,0,15.8c0,2.2,0,4.5,0,6.8v0.9h-41.6V372c0-2.1,0-4.3,0-6.5c0-5.3,0-10.7,0-16.1c0-0.4,0-0.7,0-1.1
	c0-1.8,0-3.8-0.9-4.6c-0.5-0.4-1.3-0.6-2.5-0.4c-1,0.1-3,3.7-3.2,5.9c-0.4,5.4-0.3,10.7-0.2,16.3c0,2.2,0.1,4.4,0.1,6.6v0.9h-13.1
	v-0.9c0-3.5-0.1-7-0.1-10.4c-0.1-8.8-0.3-18,0.5-26.8c0.4-4,5.6-9,9.7-10.5c19.6-7.2,40.1-7.3,60.8-0.2c7.1,2.4,10.8,7.9,10.5,15.7
	C333.4,347.2,333.4,354.4,333.5,362z"/>
<path class="st0" d="M138.8,352c0-3.6,0-7.2,0-10.8c0-13.4-4.7-19.9-17.3-24.1c-3.8-1.3-7.7-2.1-11.8-3.1c-1.9-0.4-3.9-0.9-5.9-1.4
	l-1.4-0.4l0.9-1.1c12.8-15.3,14.8-33.2,4.8-43.5c-4-4.1-10.4-6.6-17.1-6.7c-6,0-11.4,1.9-14.9,5.4c-3.7,3.6-6.6,9.3-7.6,14.9
	c-2,10.4,1.6,20.4,10.6,29.7l1.1,1.1l-1.5,0.4c-2.1,0.6-4.3,1-6.3,1.5c-4.5,1-8.7,2-12.7,3.5c-11.3,4-15.9,10.7-16,23
	c0,3.8,0,7.7,0,11.5c0,7,0.1,14.3-0.1,21.4c-0.1,2.7,0.4,4.4,1.4,5.4c1,1,2.6,1.4,5.1,1.4c13.7-0.1,27.4-0.1,41.2-0.1
	c13.8,0,27.5,0,41.2,0.1c2.5,0,4.1-0.5,5.1-1.4c1-1,1.4-2.7,1.4-5.4C138.8,366.3,138.8,359,138.8,352z M74.7,285
	c0.1-10.8,6.2-17,16.5-17c0,0,0.1,0,0.1,0c10.4,0,16.4,6.3,16.4,17.2c0.1,12.1-7.4,22.4-16.3,22.6c-0.1,0-0.2,0-0.3,0
	c-3.5,0-6.8-1.5-9.7-4.3C77.2,299.2,74.6,292.3,74.7,285z M132.1,362c0,3.3,0,6.6,0,9.9v0.9h-13.3v-0.9c0-2.1,0-4.3,0.1-6.4
	c0.1-5.3,0.1-10.9-0.2-16.2c-0.2-2.4-2.2-5.8-3.2-6c-1.1-0.2-2,0-2.5,0.4c-0.9,0.8-0.9,2.8-0.9,4.6c0,0.4,0,0.7,0,1.1
	c0,5.2,0,10.3,0,15.8c0,2.2,0,4.5,0,6.8v0.9H70.4V372c0-2.1,0-4.3,0-6.5c0-5.3,0-10.7,0-16.1c0-0.4,0-0.7,0-1.1c0-1.8,0-3.8-0.9-4.6
	c-0.5-0.4-1.3-0.6-2.5-0.4c-1,0.1-3,3.7-3.2,5.9c-0.4,5.4-0.3,10.7-0.2,16.3c0,2.2,0.1,4.4,0.1,6.6v0.9H50.6v-0.9
	c0-3.5-0.1-7-0.1-10.4c-0.1-8.8-0.3-18,0.5-26.8c0.4-4,5.6-9,9.7-10.5c19.6-7.2,40.1-7.3,60.8-0.2c7.1,2.4,10.8,7.9,10.5,15.7
	C132,347.2,132,354.4,132.1,362z"/>
<path class="st0" d="M256.6,116.8c0-4.5,0-8.9,0-13.4c0-16.6-5.9-24.8-21.5-30c-4.7-1.6-9.5-2.7-14.6-3.8c-2.4-0.5-4.8-1.1-7.3-1.7
	l-1.8-0.4l1.2-1.4c15.9-19,18.4-41.2,5.9-54c-5-5.1-12.9-8.2-21.2-8.3c-7.4-0.1-14.2,2.4-18.5,6.7c-4.5,4.5-8.2,11.6-9.5,18.5
	c-2.4,12.9,2,25.3,13.1,36.8l1.3,1.4l-1.9,0.5c-2.7,0.7-5.3,1.3-7.8,1.9c-5.5,1.3-10.8,2.5-15.8,4.3c-14,5-19.8,13.3-19.8,28.5
	c0,4.8,0,9.5,0,14.3c0,8.7,0.1,17.7-0.1,26.6c-0.1,3.3,0.5,5.4,1.7,6.7c1.2,1.2,3.3,1.8,6.3,1.8c17-0.1,34-0.2,51.1-0.2
	c17.1,0,34.1,0.1,51.1,0.2c3.1,0,5.1-0.6,6.4-1.8c1.2-1.3,1.8-3.4,1.7-6.7C256.6,134.6,256.6,125.6,256.6,116.8z M177.1,33.8
	c0.2-13.4,7.7-21.1,20.5-21.1c0,0,0.1,0,0.1,0c12.9,0.1,20.3,7.9,20.4,21.4c0.1,15-9.2,27.8-20.2,28c-0.1,0-0.2,0-0.3,0
	c-4.3,0-8.4-1.8-12-5.4C180.1,51.3,176.9,42.7,177.1,33.8z M248.3,129.3c0,4,0.1,8.1,0.1,12.3v1.1h-16.5v-1.1c0-2.6,0-5.3,0.1-7.9
	c0.1-6.6,0.2-13.5-0.3-20.2c-0.2-2.9-2.7-7.3-3.9-7.4c-1.4-0.2-2.4,0-3.1,0.5c-1.2,1-1.1,3.5-1.1,5.7c0,0.5,0,0.9,0,1.3
	c-0.1,6.5,0,12.8,0,19.6c0,2.8,0,5.6,0,8.4v1.1h-51.7v-1.1c0-2.7,0-5.3,0-8c0-6.5,0-13.3,0-20c0-0.4,0-0.9,0-1.4
	c0-2.2,0.1-4.7-1.1-5.7c-0.6-0.5-1.6-0.7-3-0.5c-1.2,0.2-3.8,4.5-4,7.4c-0.5,6.7-0.4,13.3-0.3,20.3c0,2.7,0.1,5.5,0.1,8.2v1.1h-16.2
	v-1.1c0-4.3-0.1-8.7-0.1-12.9c-0.2-11-0.3-22.3,0.7-33.3c0.5-4.9,7-11.1,12.1-13c24.3-9,49.7-9.1,75.5-0.3c8.8,3,13.4,9.8,13.1,19.5
	C248.1,111,248.2,119.9,248.3,129.3z"/>
<path class="st0" d="M179.4,210.1c1.1-0.8,2.6-0.8,3.9,0c1.2,0.8,1.5,2,0.7,2.9c-0.2,0.2-0.5,0.5-0.7,0.7l-0.2,0.2
	c-19.9,17.6-39.9,35.2-59.8,52.8c-0.4,0.4-0.9,0.7-1.4,1c-1.1,0.5-2.3,0.4-3.4-0.4c-1.2-0.8-1.4-1.8-0.7-2.6c0.3-0.3,0.6-0.6,1-0.9
	l0.2-0.2c7.2-6.3,14.4-12.7,21.5-19l38-33.6c0.1-0.1,0.2-0.2,0.3-0.3C179,210.4,179.2,210.2,179.4,210.1z"/>
<path class="st0" d="M199.5,160.3c-0.1-0.8-1.2-1.8-2.7-2.4c-1.5-0.6-2.6-0.6-2.8,0c-0.1,0.2-0.1,0.4-0.1,0.5l0,0.1
	c-0.2,15.3-0.4,30.6-0.6,46c0,0.3,0,0.7,0.2,1c0.3,0.8,1.3,1.5,2.7,2c1.5,0.6,2.4,0.6,2.6,0c0.1-0.2,0.1-0.5,0.1-0.8l0-0.2
	c0.1-5.5,0.1-11,0.2-16.6l0.4-29.2c0-0.1,0-0.2,0-0.2C199.5,160.6,199.5,160.5,199.5,160.3z"/>
<path class="st0" d="M212.4,210.1c-1.1-0.8-2.6-0.8-3.9,0c-1.2,0.8-1.5,2-0.7,2.9c0.2,0.2,0.5,0.5,0.7,0.7l0.2,0.2
	c19.9,17.6,39.9,35.2,59.8,52.8c0.4,0.4,0.9,0.7,1.4,1c1.1,0.5,2.3,0.4,3.4-0.4c1.2-0.8,1.4-1.8,0.7-2.6c-0.3-0.3-0.6-0.6-1-0.9
	l-0.2-0.2c-7.2-6.3-14.4-12.7-21.5-19l-38-33.6c-0.1-0.1-0.2-0.2-0.3-0.3C212.8,210.4,212.6,210.2,212.4,210.1z"/>
</svg>
