<?xml version="1.0" encoding="utf-8"?>
<!-- Generator: Adobe Illustrator 23.0.1, SVG Export Plug-In . SVG Version: 6.00 Build 0)  -->
<svg version="1.1" id="Layer_1" xmlns="http://www.w3.org/2000/svg" xmlns:xlink="http://www.w3.org/1999/xlink" x="0px" y="0px"
	 viewBox="0 0 384 384" style="enable-background:new 0 0 384 384;" xml:space="preserve">
<style type="text/css">
	.st0{fill:#808080;}
</style>
<g>
	<path class="st0" d="M258.4,340.5c0-4.9,0-9.9,0-14.8c0-18.4-6.5-27.4-23.8-33.2c-5.2-1.7-10.5-2.9-16.2-4.2
		c-2.6-0.6-5.3-1.2-8.1-1.9l-1.9-0.5l1.3-1.5c17.6-21,20.3-45.6,6.5-59.7c-5.5-5.7-14.3-9.1-23.5-9.2c-8.2-0.1-15.7,2.6-20.5,7.4
		c-5,5-9.1,12.8-10.5,20.5c-2.7,14.3,2.2,28,14.5,40.8l1.5,1.5l-2.1,0.5c-2.9,0.8-5.8,1.4-8.7,2.1c-6.1,1.4-11.9,2.8-17.5,4.8
		c-15.5,5.5-21.9,14.7-21.9,31.6c0,5.3,0,10.6,0,15.8c0,9.6,0.1,19.6-0.1,29.4c-0.1,3.7,0.5,6,1.9,7.4c1.3,1.3,3.6,2,7,2
		c18.8-0.1,37.7-0.2,56.6-0.2c18.9,0,37.8,0.1,56.6,0.2c3.4,0,5.7-0.6,7-2c1.4-1.4,2-3.7,1.9-7.4
		C258.3,360.2,258.3,350.2,258.4,340.5z M170.3,248.5c0.2-14.9,8.5-23.4,22.7-23.4c0,0,0.1,0,0.1,0c14.3,0.1,22.5,8.7,22.6,23.7
		c0.1,16.6-10.2,30.8-22.4,31c-0.1,0-0.2,0-0.4,0c-4.8,0-9.4-2-13.3-5.9C173.7,268,170.1,258.5,170.3,248.5z M249.1,354.3
		c0,4.5,0.1,9,0.1,13.6v1.3h-18.3v-1.3c0-2.9,0-5.8,0.1-8.8c0.1-7.3,0.2-14.9-0.3-22.3c-0.2-3.2-3-8-4.4-8.2c-1.6-0.2-2.7,0-3.4,0.5
		c-1.3,1.1-1.2,3.9-1.2,6.3c0,0.5,0,1,0,1.5c-0.1,7.1-0.1,14.2,0,21.7c0,3.1,0,6.2,0,9.3v1.3h-57.2V368c0-3,0-5.9,0-8.9
		c0-7.2,0-14.7,0-22.1c0-0.5,0-1,0-1.5c0-2.4,0.1-5.2-1.2-6.3c-0.7-0.6-1.8-0.8-3.4-0.6c-1.4,0.2-4.2,5-4.4,8.2
		c-0.5,7.4-0.4,14.7-0.3,22.4c0,3,0.1,6,0.1,9.1v1.3h-17.9v-1.3c0-4.8-0.1-9.6-0.1-14.2c-0.2-12.1-0.4-24.7,0.8-36.9
		c0.5-5.4,7.7-12.3,13.4-14.4c26.9-9.9,55.1-10.1,83.6-0.3c9.8,3.3,14.8,10.8,14.5,21.6C249,334,249,343.9,249.1,354.3z"/>
	<path class="st0" d="M365.2,157c-31.6-0.2-63.7-0.2-95.4,0c-9.9,0.1-14.3,4.6-14.3,14.6c-0.1,31.2-0.1,63,0,94.4
		c0,10.6,4.2,14.5,15.2,14.6c10.9,0.1,22,0.1,32.7,0c4.5,0,9,0,13.5,0c0.1,0,0.3,0,0.4,0c4.7,0,9.4,0,14.2,0c11,0,22.4,0,33.6-0.1
		c10.1-0.1,14-3.9,14.1-13.5c0.2-31.1,0.2-63.5,0-96.4C379.1,161.3,374.8,157.1,365.2,157z M265.3,166.9h103.9v62.8l-5.9-7.7
		c-2.4-3.1-4.4-5.8-6.5-8.5c-3.2-4.2-5.3-6.8-7-6.9c-1.7-0.2-4.2,2-7.9,5.2c-5.9,5.3-11.8,10.6-17.9,16.1c-2.7,2.4-5.3,4.8-8.1,7.3
		l-0.9,0.8l-0.8-0.9c-1.6-1.8-3.1-3.4-4.7-5.1c-3.4-3.7-6.6-7.1-9.5-10.8c-3.7-4.5-6.9-4.8-11.7-1c-4.4,3.5-9,6.9-13.9,10.6
		c-2.3,1.7-4.6,3.4-7.1,5.3l-2,1.5V166.9z M368.5,270l-0.3,0.9H266.6l-0.3-0.8c-7.2-19.9,4.3-27.7,15.4-35.3c3.6-2.5,7.4-5,10.5-8
		l0.9-0.9l13.6,15.2l-0.2,0.7c-0.1,0.4-0.2,0.8-0.3,1.1c-0.2,0.6-0.3,1-0.4,1.4c-0.6,1.8,0.9,4.9,3.3,6.5c0.8,0.5,2.2,1.3,3.2,0.3
		c8.3-7.3,16.4-14.7,24.9-22.5c3.3-3,6.7-6.1,10.1-9.2l1-0.9l0.8,1.1c1.9,2.5,3.9,4.9,5.9,7.3C364.8,238.5,374.9,250.7,368.5,270z"
		/>
	<path class="st0" d="M115.1,157c-15.5-0.1-31.1-0.1-46.6-0.1c-15.7,0-31.3,0-46.8,0.1c-10.9,0-14.9,4.1-14.9,14.8
		c-0.1,32.2-0.1,64,0,94.4c0,10.9,3.7,14.4,15.1,14.5c10.7,0.1,21.5,0.1,32,0c4.7,0,9.4,0,14.2,0c4.6,0,9.2,0,13.8,0
		c10.6,0,21.6,0,32.4,0c12.2-0.1,16.2-3.8,16.2-15.6c0.1-30.9,0.1-62,0-92.4C130.4,161.3,126.3,157,115.1,157z M120.9,270.5H16.8
		V166.9h104.2V270.5z"/>
	<path class="st0" d="M131.2,68.1c0,4.6,0,9.2,0,13.8c0,10.6,0,21.6,0,32.4c0.1,12,4,16.1,15.7,16.1c31.5,0.1,62.6,0.1,92.4,0
		c11.3,0,15.5-4.2,15.5-15.4c0.1-31.7,0.1-63.1,0-93.4c0-10.9-3.9-14.8-14.7-14.9c-16-0.1-31.9-0.1-47.4-0.1c-16,0-31.7,0-47,0.1
		c-10.8,0-14.4,3.9-14.5,15.1c-0.1,10.7-0.1,21.7,0,32.2C131.1,58.8,131.2,63.4,131.2,68.1z M140.9,16.7H245v104H140.9V16.7z"/>
	<path class="st0" d="M183,38.9c-3.6-1.9-6.8-2.3-9.2-1c-2.5,1.4-4,4.6-4.3,9c-0.3,4.9-0.2,10-0.1,14.8c0,2.2,0.1,4.5,0.1,6.7l0,1.3
		l0,18.8c0,0.5,0,1,0,1.4c0.4,4.3,2,7.4,4.5,8.8c2.4,1.3,5.7,0.9,9.4-1.1c12.9-7,25.5-14.2,37.3-21.5c3.5-2.1,5.4-4.9,5.4-7.7
		c0-2.9-2-5.7-5.6-8C207.3,52.6,195.1,45.5,183,38.9z M179.1,89.6V47.4l36.7,21L179.1,89.6z"/>
	<path class="st0" d="M30.2,185c-1.2,0.2-2,1.9-2,4.5c0,2.4,0.7,4.2,1.8,4.6c0.3,0.1,0.6,0.1,0.9,0.1l0.2,0c23.4,0,46.8,0,70.3,0
		c0.5,0,1,0,1.5-0.3c0.9-0.6,1.4-2.1,1.4-4.4c0-2.5-0.6-4-1.6-4.3c-0.4-0.1-0.8-0.1-1.2-0.1l-0.3,0c-8.4,0-16.9,0-25.3,0l-44.6,0
		c-0.1,0-0.2,0-0.4,0C30.7,185,30.5,185,30.2,185z"/>
	<path class="st0" d="M30.2,205c-1.2,0.2-2,1.9-2,4.5c0,2.4,0.7,4.2,1.8,4.6c0.3,0.1,0.6,0.1,0.9,0.1l0.2,0c23.4,0,46.8,0,70.3,0
		c0.5,0,1,0,1.5-0.3c0.9-0.6,1.4-2.1,1.4-4.4c0-2.5-0.6-4-1.6-4.3c-0.4-0.1-0.8-0.1-1.2-0.1l-0.3,0c-8.4,0-16.9,0-25.3,0l-44.6,0
		c-0.1,0-0.2,0-0.4,0C30.7,205,30.5,205,30.2,205z"/>
	<path class="st0" d="M30.2,225c-1.2,0.2-2,1.9-2,4.5c0,2.4,0.7,4.2,1.8,4.6c0.3,0.1,0.6,0.1,0.9,0.1l0.2,0c23.4,0,46.8,0,70.3,0
		c0.5,0,1,0,1.5-0.3c0.9-0.6,1.4-2.1,1.4-4.4c0-2.5-0.6-4-1.6-4.3c-0.4-0.1-0.8-0.1-1.2-0.1l-0.3,0c-8.4,0-16.9,0-25.3,0l-44.6,0
		c-0.1,0-0.2,0-0.4,0C30.7,225,30.5,225,30.2,225z"/>
	<circle class="st0" cx="304.6" cy="189.6" r="13.7"/>
</g>
</svg>
