<?xml version="1.0" encoding="utf-8"?>
<!-- Generator: Adobe Illustrator 23.0.1, SVG Export Plug-In . SVG Version: 6.00 Build 0)  -->
<svg version="1.1" id="Layer_1" xmlns="http://www.w3.org/2000/svg" xmlns:xlink="http://www.w3.org/1999/xlink" x="0px" y="0px"
	 viewBox="0 0 384 384" style="enable-background:new 0 0 384 384;" xml:space="preserve">
<style type="text/css">
	.st0{fill:#808080;}
</style>
<path class="st0" d="M333,129.5c-9.8,0-19.6,0-29.3,0c-18.6,0-37.9,0.1-56.9-0.2c-3.4-0.1-4.4,0.3-6.5,4.1
	c-9.3,16.9-18.7,33.3-28.7,50.7c-3.7,6.4-7.3,12.8-11.1,19.3l-6.8,11.9l-7-11.8c-0.8-1.3-1.5-2.6-2.3-3.7c-1.5-2.4-2.7-4.5-4-6.7
	c-2.8-4.9-5.6-9.8-8.5-14.8c-8.7-15.2-17.7-30.8-26.3-46.4c-1.2-2.2-1.6-2.6-4.6-2.5c-17.2,0.1-34.7,0.1-51.6,0.1
	c-5.1,0-10.3,0-15.5,0c-7,0-14,0-20.9,0c-21.6,0.1-34.1,12.6-34.2,34.4c-0.1,15.3-0.1,30.8,0,45.9c0,6.6,0,13.2,0,19.9
	c0,19.4,2.3,22.5,20.6,28.3l5.6,1.8v15.5c0,7.8,0,15.5,0,23.2c0,17.9,0,36.3,0.1,54.5c0.1,13.7,7.1,20.8,21,20.9
	c18.1,0.2,33,0.2,47,0c12.7-0.2,19.7-7.2,19.8-19.9c0.1-26.5,0-53.5,0-79.6l0-1.1h-9.3v89.9H54.7V246.8H29v-8c0-7.6,0-15,0-22.4
	c0-18.1,0-35.2,0-52.6c0.1-16.4,8.5-24.7,24.9-24.8l0.7,0c23.8-0.1,48.4-0.3,72.6,0.2c6,0.1,13.2,4.4,16.5,9.8
	c8.9,14.9,17.7,30.2,26.1,45c3,5.3,6.1,10.7,9.1,16c4.8,8.3,9.6,16.6,14.5,25.2c3.7-6.5,7.5-13,11.2-19.5
	c12.5-21.8,25.4-44.4,38.3-66.5c2.8-4.7,9.2-9.8,15.6-9.9c22.4-0.4,46.6-0.5,76.2-0.2c14.4,0.1,23.1,9,23.2,23.6
	c0.1,20,0.1,40.4,0,60.1l0,9.4c0,1.9-0.2,3.6-0.5,5.3c-0.1,0.7-0.2,1.5-0.3,2.4l-0.8,7.1h-24.1v116.2h-69.2v-89.7H254
	c0,6.1,0,12.3,0,18.3c0,20,0,40.8,0,61.1c0,14.4,6.6,20.9,21.4,21c14.6,0.1,29.5,0,43.5,0c16.3,0,22.9-6.6,22.9-22.6
	c0-17.9,0-35.9,0-53.8l0-38.6l6.1-1.5c15.7-3.9,20-9,20.1-23.9c0-27.6,0-48.7,0-68.5C367.9,141.8,355.8,129.6,333,129.5z"/>
<path class="st0" d="M119.9,24.6c-8.2-8.1-19-12.6-30.5-12.6c-0.1,0-0.2,0-0.3,0c-23.7,0.2-43.8,20.4-43.9,44.2
	c0,11.6,4.5,22.6,12.8,30.9c8.3,8.3,19.3,12.8,31.1,12.9c0,0,0,0,0,0c24.5,0,43.8-19,43.8-43.4C133,44.4,128.4,33.1,119.9,24.6z
	 M113.6,80.2c-6.4,6.5-15,10-24.3,10c0,0,0,0,0,0c-9.3,0-18-3.7-24.5-10.3c-6.5-6.6-9.9-15.2-9.8-24.3C55.4,37.1,70.7,22,89.2,22
	c0,0,0.1,0,0.1,0c18.5,0,33.7,15,34,33.6C123.5,64.9,120,73.7,113.6,80.2z"/>
<path class="st0" d="M297.6,99.9c24.2,0,44-19.4,44.2-43.4c0.1-11.7-4.5-22.9-13.1-31.4c-8.4-8.5-19.4-13.1-31-13.1
	c-0.1,0-0.1,0-0.2,0C273.5,12.1,254,32,254,56.2c0,24.5,19.1,43.7,43.5,43.8C297.5,99.9,297.6,99.9,297.6,99.9z M263.6,55.9
	c0.1-18.6,15.3-33.8,33.8-33.9c9-0.1,17.9,3.7,24.4,10.2c6.5,6.5,10.2,15.4,10.1,24.3c-0.2,18.5-15.4,33.6-34,33.7
	c-0.1,0-0.2,0-0.3,0c-9.2,0-17.8-3.5-24.2-9.9C267.1,73.9,263.6,65.2,263.6,55.9z"/>
</svg>
