<?xml version="1.0" encoding="utf-8"?>
<!-- Generator: Adobe Illustrator 23.0.1, SVG Export Plug-In . SVG Version: 6.00 Build 0)  -->
<svg version="1.1" id="Layer_1" xmlns="http://www.w3.org/2000/svg" xmlns:xlink="http://www.w3.org/1999/xlink" x="0px" y="0px"
	 viewBox="0 0 384 384" style="enable-background:new 0 0 384 384;" xml:space="preserve">
<style type="text/css">
	.st0{fill:#808080;}
	.st1{fill:none;stroke:#808080;stroke-width:10;stroke-miterlimit:10;}
</style>
<g>
	<path class="st0" d="M7.4,363.2c3.6,0,7.3,0,11.5,0c0,4.2,0,7.9,0,11.5c-3.8,0-7.7,0-11.5,0C7.4,370.9,7.4,367.1,7.4,363.2z"/>
	<path class="st0" d="M365.3,374.7c0-3.6,0-7.3,0-11.5c4.2,0,7.9,0,11.5,0c0,3.8,0,7.7,0,11.5C373,374.7,369.2,374.7,365.3,374.7z"
		/>
	<path class="st0" d="M175.1,137c3.5,0,6.7,0,10.5,0c0,27.1,0,54.3,0,82.1c-3.3,0-6.6,0-10.5,0C175.1,191.7,175.1,164.6,175.1,137z"
		/>
	<path class="st0" d="M198.5,219c0-27.7,0-54.6,0-82c3.6,0,6.7,0,10.6,0c0,27.1,0,54.3,0,82C205.6,219,202,219,198.5,219z"/>
	<path class="st1" d="M144.3,97.4c3-2.9,6-5.9,9.1-8.8c1.3-1.2,2-2.3,0.7-3.9c-0.4-0.6-0.8-1.3-0.9-2c-0.7-4.7-3.6-5.6-7.8-5.1
		c-2.4,0.3-5,0-7.4,0.1c-1.5,0-2.2-0.4-2.1-2c0.1-6.4,0-12.9,0-19.3c0-1.6,0.6-2.1,2.1-2c3.9,0.1,7.7,0,11.6,0
		c1.5,0,2.2-0.5,2.5-1.9c0.3-1.1,0.8-2.3,1.2-3.3c1.7-4,1.8-4.1-1.4-7.2c-2.5-2.5-5-4.8-7.5-7.2c5.8-5.7,11.2-11,17-16.8
		c2.7,2.8,5.8,6,8.8,9.2c1,1.1,1.9,1.5,3.3,0.6c1.2-0.7,2.5-1.4,3.8-1.6c3.2-0.6,3.9-2.5,3.7-5.5c-0.3-3.6-0.1-7.3-0.1-11.2
		c7.9,0,15.4,0,23.3,0c0,4.3,0.1,8.6,0,12.8c-0.1,2,0.5,3.1,2.5,3.4c0.7,0.1,1.4,0.5,2.1,0.7c4.8,2,4.8,2,8.6-1.8
		c2.2-2.3,4.4-4.6,6.6-6.9c5.6,5.6,11,11,16.8,16.9c-2.8,2.7-5.8,5.7-8.9,8.5c-1.5,1.3-2.2,2.6-0.8,4.4c0.5,0.6,0.7,1.5,1,2.2
		c1.9,4.6,1.9,4.5,6.9,4.6c3,0,6.1,0,9.1,0.1c0.3,0,0.5,0.2,0.9,0.3c0,7.5,0,15,0,22.9c-4.1,0-8.1,0.2-12.1-0.1
		c-2.6-0.2-4,0.6-4.4,3.2c0,0.2-0.1,0.4-0.2,0.5c-3.2,4.4-1.4,7.5,2.4,10.4c2.2,1.7,4,3.7,5.9,5.4c-5.7,5.7-11.1,11.2-16.8,16.9
		c-2.6-2.7-5.6-5.6-8.4-8.6c-1.4-1.5-2.7-2.3-4.6-0.9c-0.8,0.6-1.8,1-2.8,1.2c-3.5,0.6-4.2,2.6-3.9,5.9c0.3,3.5,0.1,7.1,0.1,10.9
		c-7.9,0-15.4,0-23.3,0c0-4.4-0.1-8.6,0-12.8c0.1-1.8-0.4-3-2.3-3.3c-0.6-0.1-1.3-0.3-1.8-0.7c-4-2.9-6.8-1.5-9.5,2
		c-1.8,2.4-4,4.5-6.1,6.8C155.4,108.6,150,103.2,144.3,97.4z M192.3,94.4c15.8,0.1,28.5-12.5,28.5-28.2c0-16-12.4-28.5-28.4-28.5
		c-15.4,0-28.1,12.4-28.2,27.6C164.1,81.6,176.3,94.3,192.3,94.4z"/>
	<g>
		<path class="st0" d="M162,180.4c-0.1-13.2-6.3-19.6-19.5-19.9c-10.1-0.3-20.2-0.3-30.3,0c-7,0.2-9.7-2.7-9.6-9.8
			c0.3-18.9-0.1-37.7,0.3-56.6c0.1-2.9,1.9-6.6,4.1-8.5c8.6-7.4,10-18.8,2.7-26.7c-7.1-7.7-19.1-7.5-26.1,0.3
			c-6.8,7.6-5.3,19.2,2.7,26.2c2.4,2.1,4.5,5.9,4.6,9c0.4,19.4,0.1,38.8,0.2,58.2c0.1,12.1,6.5,18.8,18.5,19.2
			c9.3,0.3,18.6,0.1,27.9,0.1c12.5,0,12.9,0.4,12.9,12.9c0,19.3,0,38.7,0,58.3c4,0,7.2,0,11,0c0.3-1.4,0.6-2.2,0.6-2.9
			C162,220.3,162.1,200.3,162,180.4z M86,70c0-5.8,4.7-10.6,10.6-10.6c5.8,0,10.6,4.7,10.6,10.6s-4.7,10.6-10.6,10.6
			C90.7,80.6,86,75.9,86,70z"/>
	</g>
	<g>
		<path class="st0" d="M294.5,88.7c-6.9-7.6-19.3-7.6-26.2,0.1c-7.3,8.1-5.8,19.1,3.1,26.6c2.1,1.8,3.9,5.1,4,7.8
			c0.4,13.1,0,26.2,0.3,39.4c0.2,7.5-3,10.3-10.4,10c-8.7-0.4-17.5-0.2-26.2,0c-8.4,0.3-16.1,5.7-16.3,13.3c-0.7,19-0.2,38-0.2,57.3
			c4,0,7.2,0,11.3,0c0-17.2,0.2-33.5-0.1-49.9c-0.1-6.6,2.3-9.6,9.1-9.3c7.6,0.3,15.3,0.1,23,0.1c15.2-0.1,21.3-6.1,21.4-21.5
			c0.1-12.8-0.2-25.7,0.2-38.5c0.1-3,1.9-6.7,4.1-8.6C300.3,107.7,301.8,96.8,294.5,88.7z M281.5,110.6c-5.8,0-10.6-4.7-10.6-10.6
			s4.7-10.6,10.6-10.6c5.8,0,10.6,4.7,10.6,10.6S287.3,110.6,281.5,110.6z"/>
	</g>
	<g>
		<path class="st0" d="M375.1,176.8c-3.7-7.4-9.9-11.1-18-10.2c-7.7,0.8-13.1,5.1-15.2,13c-2.2,8.2,1,14.2,7.2,19.5
			c2.1,1.8,3.6,5.1,4,7.9c0.6,5.1,0,10.4,0.2,15.6c0.3,7-2.8,9.7-9.9,9.6c-17.5-0.3-35-0.1-52.5-0.1c-14.6,0-21,6.3-21,21
			c-0.1,33.7,0,67.3,0,101c0,2.9,0,5.8,0,8.9c-4.6,0-8.1,0-11.3,0c-0.5-0.9-0.9-1.3-0.9-1.8c-0.1-46.5-0.2-93-0.2-139.5
			c0-5.4,3.1-7.7,8.5-7.6c8.8,0.2,17.5-0.3,26.3,0.1c24.5,1.3,32.6-3.9,31-30.2c-0.2-2.8,1.7-6.7,3.9-8.6
			c8.7-7.4,10.4-18.8,3.4-26.7c-6.7-7.5-19.5-7.6-26.3-0.2c-7.3,7.9-5.8,19.1,3,26.7c2,1.8,3.3,5,3.8,7.8c0.6,3.4,0,7.1,0.2,10.6
			c0.4,6.3-2.4,9-8.7,8.9c-11.5-0.2-23-0.1-34.5,0c-16.2,0-22.3,6.1-22.3,22.2c0,43,0,85.9,0,128.9c0,3.2,0,6.3,0,9.4
			c-4.5,0-7.7,0-11.8,0c0-15.8,0-31.2,0-46.7c-4.3,0-7.7,0-11.8,0c0,15.8,0,31,0,46.5c-4.4,0-8,0-12.6,0c0-8.1,0-15.6,0-22.9
			c-4.3,0-7.6,0-11.9,0c0,8.2,0,15.7,0,23.1c-4.1,0-7.3,0-11.4,0c0-7.9,0-15.4,0-23.3c-4.3,0-7.6,0-11.9,0c0,8.1,0,15.6,0,23.3
			c-4.4,0-7.8,0-12.3,0c0-15.8,0-31.2,0-46.6c-4.4,0-7.8,0-12.1,0c0,16,0,31.4,0,46.6c-4.2,0-7.3,0-11.3,0c0-3.3,0-6.3,0-9.2
			c0-47.1,0-94.1,0-141.2c0-15.6-6.3-21.8-21.9-21.8c-13.1,0-26.3-0.2-39.4,0.1c-7.8,0.2-10.9-3.1-10.6-10.8
			c0.4-9.8,0.3-19.7,0-29.5c-0.1-5.1,0.5-8.9,5.6-12.3c7.9-5.2,8.5-17.5,2.4-24.8c-6.2-7.4-17.6-8.3-25-2
			c-7.5,6.4-9.3,18.8-1.6,24.6c7.5,5.7,7.3,12.3,7.2,19.9c-0.1,8.5-0.1,17,0,25.4c0.1,13.7,7,20.8,20.6,20.9c12.9,0.1,25.7,0,38.6,0
			c11.9,0,12.7,0.8,12.7,12.5c0,46.5,0,93,0,139.5c0,2.9,0,5.8,0,8.7c-4.8,0-8.2,0-12.6,0c0-3.4,0-6.3,0-9.3c0-37.5,0-75,0-112.4
			c0-14.8-6.1-20.7-21-20.8c-17.5-0.1-35-0.2-52.5,0.1c-7,0.1-10-2.8-9.9-9.8c0.2-10.4,0.2-20.8,0-31.2c-0.1-4.9,0.8-8.5,5.4-11.6
			c6.2-4.2,7.9-10.8,5.9-18.2c-2-7.5-7.1-11.6-14.4-12.7c-7.4-1.1-13.4,1.8-17.5,8.2c-0.5,0.8-2,3.9-2.3,7.1c-0.3,3.2-0.1,6.7,0.5,8
			c2.2,5.1,5.1,5.5,7.7,9.5c1.5,2.3,3,5,3.1,7.6c0.3,11.2,0,22.4,0.2,33.6c0.2,14.3,6.9,21,21.2,21c17.7,0.1,35.5,0.1,53.2,0
			c5.5,0,8.8,1.4,8.8,7.8c-0.1,40.1-0.1,80.3-0.1,120.4c0,0.8-0.4,1.5-0.7,3c-23,0-46.1,0-69.8,0c0,4.4,0,8.1,0,11.8
			c106.7,0,213.4,0,320.1,0c0.2-3.5,0.4-7,0.6-11.3c-23.6,0-46.7,0-71.2,0c0-3.3,0-5.9,0-8.5c0-33.6,0-67.2,0-100.7
			c0-9.9,0.9-10.7,10.8-10.7c17.5,0,34.9,0.1,52.4,0c12.9-0.1,19.5-6.7,20-19.6c0.1-1.9,0-3.8,0-5.7c0-8.8-2.7-16.8,7-22.6
			c4.2-2.5,4.9-10.5,4.9-11.8C376.8,182.3,375.6,177.7,375.1,176.8z M307,160c0-5.8,4.7-10.6,10.6-10.6c5.8,0,10.6,4.7,10.6,10.6
			s-4.7,10.6-10.6,10.6C311.7,170.6,307,165.9,307,160z M50,125c0-5.8,4.7-10.6,10.6-10.6c5.8,0,10.6,4.7,10.6,10.6
			s-4.7,10.6-10.6,10.6C54.7,135.6,50,130.9,50,125z M15,155c0-5.8,4.7-10.6,10.6-10.6c5.8,0,10.6,4.7,10.6,10.6
			s-4.7,10.6-10.6,10.6C19.7,165.6,15,160.9,15,155z M359.5,194.6c-5.8,0-10.6-4.7-10.6-10.6s4.7-10.6,10.6-10.6
			c5.8,0,10.6,4.7,10.6,10.6S365.3,194.6,359.5,194.6z"/>
	</g>
	<g>
		<path class="st0" d="M170.9,293c7.5,4.7,14,7.4,21.4,7.4c5.8,0,8.8-2,8.8-5.4c0-9.9-34.7-8.2-34.7-30.1c0-12,10.3-19.8,26.2-19.8
			c10.9,0,18.2,4.2,24.1,10.1l-8.7,10c-5.6-3.9-10-6-16.5-6c-5.3,0-8.2,2-8.2,5.5c0,8.5,34.7,7.4,34.7,29.1
			c0,11.8-10,20.8-28.1,20.8c-8.5,0-19.5-3.6-26.5-9.7L170.9,293z M186,230h11.6v20.6H186V230z M197.6,307.4v24.3H186v-24.3H197.6z"
			/>
	</g>
</g>
</svg>
