<?xml version="1.0" encoding="utf-8"?>
<!-- Generator: Adobe Illustrator 23.0.1, SVG Export Plug-In . SVG Version: 6.00 Build 0)  -->
<svg version="1.1" id="Layer_1" xmlns="http://www.w3.org/2000/svg" xmlns:xlink="http://www.w3.org/1999/xlink" x="0px" y="0px"
	 viewBox="0 0 384 384" style="enable-background:new 0 0 384 384;" xml:space="preserve">
<style type="text/css">
	.st0{fill:#808080;}
</style>
<g>
	<path class="st0" d="M6.3,166.6H60c2.1,0,3.7-2.1,3.7-4.7c0-2.6-1.7-4.7-3.7-4.7H6.3c-2.1,0-3.7,2.1-3.7,4.7
		C2.6,164.5,4.2,166.6,6.3,166.6z"/>
	<path class="st0" d="M6.3,226.6H60c2.1,0,3.7-2.1,3.7-4.7c0-2.6-1.7-4.7-3.7-4.7H6.3c-2.1,0-3.7,2.1-3.7,4.7
		C2.6,224.5,4.2,226.6,6.3,226.6z"/>
	<path class="st0" d="M21,196.6h84.4c3.2,0,5.8-2.1,5.8-4.7c0-2.6-2.6-4.7-5.8-4.7H21c-3.2,0-5.8,2.1-5.8,4.7
		C15.1,194.5,17.8,196.6,21,196.6z"/>
	<path class="st0" d="M347.2,83.7c-83.1-0.1-157.9-0.1-228.7,0c-19.9,0-33,12.9-33.6,32.9l-0.1,3.5c-0.3,11-0.6,21.4,0,32.6
		c0.2,3.7,0.9,5.4,6.4,5.1c3-0.1,4-3.1,4-5.6c-0.1-8.2,0.1-15.7,0.2-23.7c0-3.1,0.1-6.3,0.1-9.6c0.2-16.5,8.3-24.9,24.1-25
		c72.3-0.2,148.6-0.2,226.8,0c15.2,0,24,8.9,24,24.2c0.1,49.5,0.1,99.5,0,148.6c0,15.3-8.8,24.2-24,24.2
		c-79.7,0.2-153.8,0.2-226.8,0c-15.8,0-23.9-8.4-24.1-25c0-4.2,0-8.4,0-12.5c0.1-7.7,0.1-15.8-0.4-23.6c-0.2-2.5-2-3.9-5.1-3.9
		c-2.1,0-4.7,0.8-4.9,4.1c-0.6,9.3-0.5,18.7-0.3,27.9c0,2.4,0.1,4.8,0.1,7.3c0.2,23.5,12.7,36,36.2,36c26.5,0,53.5,0,79.5,0
		c11,0,21.9,0,32.9,0c0.2,0,0.4,0,0.7,0c11,0,22,0,33.1,0c26.1,0,53.1,0,79.7,0c20.7-0.1,33.7-12.9,33.8-33.4
		c0.2-53.9,0.2-103.4,0-151.5C380.5,96.6,367.4,83.8,347.2,83.7z"/>
	<path class="st0" d="M122.8,260.2c-0.1,1.4,0.7,2.9,2.3,4.6c1.4,1.4,2.7,2,4,2c2.3-0.1,4.5-2.5,6.5-4.9c0.9-1.1,1.8-2.1,2.7-2.9
		c16-14.3,32.1-29.1,47.7-43.4c5.5-5.1,11-10.1,16.6-15.2l0.7-0.6l0.7,0.6c2.4,2.2,4.8,4.3,7.1,6.4c5.5,4.9,10.7,9.6,15.8,14.5
		c4.4,4.3,7.9,4.3,12.4-0.1c5.1-4.9,10.2-9.5,15.6-14.5c2.3-2.1,4.7-4.2,7-6.4l0.7-0.6l16,14.7c13.5,12.3,26.7,24.4,40,36.5
		c1.3,1.2,2.6,2.4,3.8,3.6c3.7,3.5,7.6,7.1,11.8,10.2c1.4,1,4.4,1,6-0.7c1.4-1.4,1.5-3.6,0.4-6.5c-0.5-1.3-1.9-2.4-3.3-3.5
		c-0.6-0.5-1.2-1-1.8-1.5c-16.8-15.5-33.7-31-50.8-46.8l-14.2-13l3.5-3.3c1.8-1.7,3.5-3.3,5.2-4.9c4.8-4.4,9.6-8.8,14.4-13.3
		c14.6-13.4,29.7-27.2,44.2-41.1c2.4-2.2,3.9-8.1,2.9-9.6c-0.8-1.3-1.7-1.9-2.7-2c-2.1-0.3-4.7,2.1-6.7,4
		c-8.1,7.4-16.2,14.8-24.2,22.2c-6,5.5-12,11-17.9,16.5c-12.5,11.5-25.1,23-37.7,34.5l-18.4,16.8l-0.7-0.6c-1.1-1-2.1-1.9-3.1-2.7
		c-2-1.7-3.7-3.2-5.4-4.8c-8-7.3-16-14.7-24-22c-20.6-18.9-42-38.5-63.1-57.7c-0.7-0.6-1.3-1.3-2-2c-1.9-2-3.9-4.2-6.1-4.2
		c0,0,0,0,0,0c-1.2,0-2.5,0.7-3.8,2c-1.4,1.5-2.1,2.8-2,4c0.1,2.1,2.4,3.9,4.5,5.7c0.7,0.6,1.4,1.2,2,1.8c7.5,7.1,15.3,14.2,22.8,21
		c4.1,3.7,8.2,7.5,12.2,11.2c6.9,6.3,13.7,12.7,20.7,19.2l10.1,9.4l-0.8,0.7c-5.6,5.2-11.2,10.3-16.8,15.4
		c-16,14.7-31.1,28.5-46.3,42.8c-0.9,0.8-1.9,1.6-3.1,2.4C125.8,255.8,123,257.8,122.8,260.2z"/>
</g>
</svg>
