<?xml version="1.0" encoding="utf-8"?>
<!-- Generator: Adobe Illustrator 23.0.1, SVG Export Plug-In . SVG Version: 6.00 Build 0)  -->
<svg version="1.1" id="Layer_1" xmlns="http://www.w3.org/2000/svg" xmlns:xlink="http://www.w3.org/1999/xlink" x="0px" y="0px"
	 viewBox="0 0 292.4 286.8" style="enable-background:new 0 0 292.4 286.8;" xml:space="preserve">
<style type="text/css">
	.st0{fill:#808080;}
	.st1{fill:none;stroke:#808080;stroke-width:10;stroke-linecap:round;stroke-linejoin:round;}
</style>
<g>
	<path class="st0" d="M144.4,86.5c-31.4,0-57,25.6-57,57s25.6,57,57,57s57-25.6,57-57C201.4,112,175.8,86.5,144.4,86.5z
		 M144.4,190.2c-25.8,0-46.8-21-46.8-46.8s21-46.8,46.8-46.8s46.8,21,46.8,46.8S170.2,190.2,144.4,190.2z"/>
	<path class="st0" d="M259.2,148.5l-0.3,3.8c-2.1,27.5-14,53.4-33.6,73s-45.5,31.5-73,33.6l-3.8,0.3v-34.4h-10.2v34.4l-3.8-0.3
		c-27.5-2.1-53.4-14.1-73-33.6c-19.6-19.6-31.5-45.5-33.6-73l-0.3-3.8H62v-10.2H27.6l0.3-3.8c2.1-27.5,14-53.4,33.6-73
		C81.1,42,107,30,134.5,27.9l3.8-0.3V62h10.2V27.6l3.8,0.3c27.5,2.1,53.4,14.1,73,33.6c5.4,5.4,10.1,11.2,14.3,17.4l9.4-4.1
		c-21.1-32.3-56.6-54.5-97.2-57.2l-3.3-0.2V0h-10.2v17.5l-3.3,0.2C72.3,21.9,21.9,72.3,17.7,135l-0.2,3.3H0v10.2h17.5l0.2,3.3
		C21.9,214.5,72.3,265,135,269.1l3.3,0.2v17.5h10.2v-17.5l3.3-0.2c62.7-4.2,113.1-54.6,117.3-117.3l0.2-3.3v-10.2l-0.2-3.3
		c-0.3-4.1-0.7-8.1-1.4-12l-9.6,4.1c0.3,2.4,0.6,4.9,0.8,7.4l0.3,3.8L259.2,148.5L259.2,148.5z"/>
	<path class="st1" d="M206.2,121.4l13.5-33.9L267,67.2l2.3,27.1l18.1,20.3L240,134.9L206.2,121.4z M206.2,121.4l-63.1,27.2"/>
</g>
</svg>
