<?xml version="1.0" encoding="utf-8"?>
<!-- Generator: Adobe Illustrator 23.0.1, SVG Export Plug-In . SVG Version: 6.00 Build 0)  -->
<svg version="1.1" id="Layer_1" xmlns="http://www.w3.org/2000/svg" xmlns:xlink="http://www.w3.org/1999/xlink" x="0px" y="0px"
	 viewBox="0 0 343.6 371.9" style="enable-background:new 0 0 343.6 371.9;" xml:space="preserve">
<style type="text/css">
	.st0{fill:#808080;stroke:#808080;stroke-width:11;stroke-miterlimit:10;}
	.st1{fill:#808080;stroke:#808080;stroke-width:5;stroke-miterlimit:10;}
	.st2{fill:#808080;stroke:#808080;stroke-width:7;stroke-miterlimit:10;}
</style>
<path class="st0" d="M1.1,179.9"/>
<path class="st1" d="M158.9,121.2l0.5-0.5c1.4-1.6,5-3,8.5-3.6c4.9-0.7,9.8-0.1,14.4,2c0.8,0.3,1.4,0.7,2.2,0.9
	c2.1,0.9,4.4,1.9,6.5,3c4.4,2.2,7.5,6,8.9,10.7c1.4,4.8,0.9,9.9-1.6,14.3l-0.5,0.8l0,0l0,0l-1.3-2.5c-0.6-1.2-1.2-2.4-1.8-3.5
	c-0.5-1.1-1.2-1.8-1.9-1.9c-0.7-0.1-1.6,0.1-2.5,0.8c-0.5,0.3-0.9,0.7-1.4,1c-3.1,2.3-6.3,4.7-10.4,5.9c-2.4,0.7-4.7,0.9-7,0.9
	c-4.7,0-9.1-1.4-13.4-4.1c-1.1-0.7-2.1-1.5-3.1-2.2c-0.7-0.5-1.4-1-2-1.5c-0.9-0.6-1.7-0.9-2.4-0.7s-1.3,0.7-1.8,1.7
	c-0.7,1.3-1.3,2.6-2,3.9c-0.3,0.6-0.6,1.2-0.9,1.8l-0.3,0.7l-0.5-0.7c-5.6-7.7-5.3-15,0.9-20.2C146,128.4,156.6,125,158.9,121.2z
	 M180.9,195.9c0,1.3,0,2.5,0,3.7c0,0.4-0.1,1.1-0.5,1.5c-2.1,2.2-4.2,4.3-6.5,6.5l-2.2,2.2l-0.3-0.3c-0.7-0.7-1.4-1.4-2.1-2.1
	c-2.2-2.2-4.2-4.2-6.3-6.4c-0.5-0.5-0.5-1.4-0.5-2.1c-0.1-1-0.1-2,0-3c0-0.5,0-0.9,0-1.4v-0.7l0.6,0.2c6,1.7,11.7,1.7,17.3-0.1
	l0.6-0.2v0.7C180.9,194.9,180.9,195.4,180.9,195.9z M172,190.4c-0.9,0-1.8-0.1-2.7-0.1c-12.3-1.5-21.4-11.2-21.5-23.1
	c0-0.6,0-1.2,0-1.8c0.1-1.1,0.1-2.2-0.1-3.2c-0.8-5.8,1.7-10.5,4.2-14.3l0.3-0.4l0.4,0.3c12.8,9.3,25.4,9.3,38.3-0.1l0.5-0.3
	l1.2,2.3c1,1.8,1.8,3.6,2.7,5.3l0.1,0.1c0.1,0.3,0.3,0.6,0.3,1c-0.1,1.7-0.1,3.4-0.1,5.1c0,3.9,0,7.9-0.8,11.6
	C192.4,182.9,182.6,190.4,172,190.4z M200,171.9l1.7-19.1c0.6-1.4,1.2-2.8,1.8-4.2c2.5-5.6,2.7-11.2,0.8-16.8c-2-6-6-10.4-11.7-13.3
	c-0.5-0.3-1.1-0.5-1.6-0.7c-0.7-0.3-1.4-0.6-2-0.9c-0.3-0.2-0.8-0.4-1.1-0.5c-1.2-0.6-2-1.8-3.2-2.2c-5.7-2.4-13.4-1.1-13.4-1.1
	c-2.8,0.1-15.2,3.4-17.2,4.9c-1.8,1.4-4.4,3.1-7.4,4.4c-4.3,1.8-7.6,5.2-9.2,9.6c-1.7,4.5-1.5,9.4,0.5,13.9c1,2,3.6,6.4,4.6,8.5
	c0,0,0.1,8.9,0.3,11.8c0.1,1.6,0.1,3.9,0.3,5.1c0,0.1,0.2,1.5,0.3,1.7c0.1,0.4,0.3,0.7,0.3,1.2c2,7,6,12.5,12.2,16.4
	c1.2,0.7,1.6,1.6,1.6,2.9c-0.1,1.4-0.1,2.6-0.1,4.1c0,0.6,0,1.2,0,1.8v0.3l-4.8,1.4c-3.3,0.9-6.6,1.8-9.9,2.8
	c-4.2,1.2-8.5,2.3-12.7,3.5c-4.8,1.3-9.6,2.6-14.4,3.9c-7,1.9-10.9,7.2-10.9,14.3c0,0.5,0,0.9,0,1.4v1.2v4.9v6.9
	c0,5.3,0,10.6,0,15.8c0,2.7,0.8,3.5,3.4,3.5c42.3,0,84.6,0,126.9,0c2.8,0,3.5-0.7,3.5-3.6c0-4.8,0-9.6,0-14.4v-8.5l-0.1-4.9v-0.5
	c0-0.5,0-0.9,0.1-1.5c0-0.5,0.1-1,0.1-1.5s0-0.9-0.1-1.4c-1-6.2-4.4-10.2-10.2-11.8c-9.5-2.7-19.1-5.3-28.5-7.9c-4-1.1-8-2.2-12-3.3
	c-0.3-0.1-0.6-0.2-1-0.3l-0.9-0.3v-0.3c0-0.6,0-1.2,0-1.7c0-1.6,0-3.3,0.1-5c0-0.6,0.5-1.4,1-1.6c6.9-4.4,11.1-10.5,13-18.5
	L200,171.9h0.4 M233.7,245.6c0,2.5,0,5,0,7.5c0,0.2-0.1,0.3-0.1,0.5c0,0.1-0.1,0.1-0.1,0.2l-0.1,0.4h-18.2v-23h-4.9v22.9h-77.2v-23
	h-4.8v23.1h-18.7v-10.1c0-6.2,0-12.3,0-18.4c0-5.3,2.5-8.5,7.6-10c5-1.4,10-2.8,15-4.1c8.3-2.3,16.8-4.6,25.1-7
	c1.3-0.3,2.2-0.1,3.1,0.9c2,2.1,4.2,4.2,6.2,6.2c0.7,0.7,1.4,1.4,2.1,2.1c2,2,3,2.2,4.9,0.4c0.1-0.1,0.3-0.3,0.4-0.4
	c0.7-0.7,1.4-1.4,2-2c1.6-1.6,3.2-3.2,4.8-4.8c0.5-0.5,1.1-1.1,1.6-1.6c1-0.9,1.8-1.2,3-0.8c7.8,2.2,15.7,4.3,23.3,6.4
	c5.9,1.6,11.7,3.2,17.5,4.9c4.2,1.2,7,4.5,7,8.6C233.7,231.6,233.7,238.7,233.7,245.6z"/>
<g>
	<path class="st1" d="M16.1,91.2l0.3-0.3c0.8-0.9,3-1.8,5.1-2.1c2.9-0.5,5.9-0.1,8.7,1.2c0.4,0.2,0.9,0.4,1.3,0.6
		c1.3,0.5,2.6,1.2,3.9,1.8c2.6,1.4,4.5,3.7,5.4,6.4c0.9,2.9,0.5,6-1,8.7l-0.3,0.5l0,0l0,0c0,0-1.3,4-1.3,4.2c-0.1,1-0.1,2-0.1,3
		c0,2.3,0,4.7-0.5,7c-1.3,6.2-7.2,10.7-13.7,10.7c-0.5,0-1.1,0-1.6-0.1c-7.4-0.9-12.8-6.8-13-13.9c0-0.3,0-0.7,0-1.1
		c0-0.7,0.1-1.3-0.1-2c0,0,0.1-3-0.1-4c-0.2-1-1.6-4.1-1.6-4.1c-3.3-4.6-3.1-9.1,0.5-12.2L16.1,91.2z M40.9,121.7l0.9-11.3
		c0.3-0.9,0.8-1.7,1.1-2.5c1.5-3.4,1.6-6.8,0.5-10.1c-1.2-3.6-3.6-6.3-7-8c-0.3-0.1-0.6-0.3-1-0.4c-0.4-0.2-0.8-0.3-1.2-0.6
		c-0.2-0.1-0.4-0.2-0.7-0.3c-0.8-0.3-1.2-1-1.9-1.4c-3.5-1.5-9.8-0.6-9.8-0.6c-1.7,0.1-7.4,2-8.7,2.9c-1.1,0.8-2.7,1.9-4.4,2.6
		c-2.6,1.1-4.6,3.2-5.5,5.8c-1,2.7-1,5.7,0.3,8.3c0.5,1.2,2.2,3.9,2.8,5.1c0,0,0.1,5.3,0.2,7.1c0.1,0.9,0.1,2.4,0.2,3.1
		c0,0.1,0.1,0.9,0.1,1c0.1,0.2,0.1,0.5,0.2,0.7c1.2,4.2,3.6,7.5,7.3,10c0.7,0.5,3.8,2,3.8,2l0.3,0.1c3.6,1,7,1,10.4,0l0.4-0.1
		c0,0,3.3-1.5,3.5-1.7c4.2-2.6,6.8-6.3,7.9-11.2v-0.3L40.9,121.7z"/>
	<path class="st1" d="M335,112.2c-0.1,1-0.1,2-0.1,3c0,2.3,0,4.7-0.5,7c-1.3,6.2-7.2,10.7-13.7,10.7c-0.5,0-1.1,0-1.6-0.1
		c-7.4-0.9-12.8-6.8-13-13.9c0-0.3,0-0.7,0-1.1c0-0.7,0.1-1.3-0.1-2c0,0,0.1-3-0.1-4s-1.6-4.1-1.6-4.1c-3.3-4.6-3.1-9.1,0.5-12.2
		c1.6-1.4,0.6-2.8,2.9-2.4c1.8,0.3-7,12-4.9,15l2.3-5.6c11.7-8.9,35.2,0.1,31.6-1.5l-0.4-0.2l0.3-0.3c0.8-0.9-5.9-11.9-18.6-11.7
		c-3,0.1,5.9-0.1,8.7,1.2c0.4,0.2,0.9,0.4,1.3,0.6c1.3,0.5,2.6,1.2,3.9,1.8c2.6,1.4,4.5,3.7,5.4,6.4c0.9,2.9,0.5,6-1,8.7L336,108
		l0,0l0,0C336.3,108,335,112,335,112.2z M337.7,121.9l1-11.5c0.3-0.9,0.8-1.7,1.1-2.5c1.5-3.4,1.6-6.8,0.5-10.1
		c-1.2-3.6-3.6-6.3-7-8c-0.3-0.1-0.6-0.3-1-0.4c-0.4-0.2-0.8-0.3-1.2-0.6c-0.2-0.1-0.4-0.2-0.7-0.3c-0.8-0.3-1.2-1-1.9-1.4
		c-3.5-1.5-9.8-0.6-9.8-0.6c-1.7,0.1-7.4,2-8.7,2.9c-1.1,0.8-2.7,1.9-4.4,2.6c-2.6,1.1-4.6,3.2-5.5,5.8c-1,2.7-1,5.7,0.3,8.3
		c0.5,1.2,2.2,3.9,2.8,5.1c0,0,0.1,5.3,0.2,7.1c0.1,0.9,0.1,2.4,0.2,3.1c0,0.1,0.1,0.9,0.1,1c0.1,0.2,0.1,0.5,0.2,0.7
		c1.2,4.2,3.6,7.5,7.3,10c0.7,0.5,3.8,2,3.8,2l0.3,0.1c3.6,1,7,1,10.4,0l0.4-0.1c0,0,3.3-1.5,3.5-1.7c4.2-2.6,6.7-6.3,7.9-11.2
		L337.7,121.9z"/>
	<path class="st1" d="M186.8,28.6c-0.1,1-0.1,2-0.1,3c0,2.3,0,4.7-0.5,7c-1.3,6.2-7.2,10.7-13.7,10.7c-0.5,0-1.1,0-1.6-0.1
		c-7.4-0.9-12.8-6.8-13-13.9c0-0.3,0-0.7,0-1.1c0-0.7,0.1-1.3-0.1-2c0,0,0.1-3-0.1-4c-0.2-1-1.6-4.1-1.6-4.1
		c-3.3-4.6-3.1-9.1,0.5-12.2c1.6-1.4,3.8-2,6.1-1.6c1.8,0.3,2.2-1.5,4.3,1.5l2.3-1.6c-1-2.1-0.9-0.9-4.4-2.6l-0.4-0.2l0.3-0.3
		c0.8-0.9,3-1.8,5.1-2.1c2.9-0.5,5.9-0.1,8.7,1.2c0.4,0.2,0.9,0.4,1.3,0.6c1.3,0.5,2.6,1.2,3.9,1.8c2.6,1.4,4.5,3.7,5.4,6.4
		c0.9,2.9,0.5,6-1,8.7l-0.3,0.5l0,0l0,0C188.1,24.4,186.8,28.4,186.8,28.6z M190.5,26.7c0.3-0.9,0.8-1.7,1.1-2.5
		c1.5-3.4,1.6-6.8,0.5-10.1c-1.2-3.6-3.6-6.3-7-8c-0.3-0.1-0.6-0.3-1-0.4c-0.4-0.2-0.8-0.3-1.2-0.6c-0.2-0.1-0.4-0.2-0.7-0.3
		c-0.8-0.3-1.2-1-1.9-1.4c-3.5-1.5-9.8-0.6-9.8-0.6c-1.7,0.1-7.4,2-8.7,2.9c-1.1,0.8-2.7,1.9-4.4,2.6c-2.6,1.1-4.6,3.2-5.5,5.8
		c-1,2.7-1,5.7,0.3,8.3c0.5,1.2,2.2,3.9,2.8,5.1c0,0,0.1,5.3,0.2,7.1c0.1,0.9,0.1,2.4,0.2,3.1c0,0.1,0.1,0.9,0.1,1
		c0.1,0.2,0.1,0.5,0.2,0.7c1.2,4.2,3.6,7.5,7.3,10c0.7,0.5,3.8,2,3.8,2l0.3,0.1c3.6,1,7,1,10.4,0l0.4-0.1c0,0,3.3-1.5,3.5-1.7
		c4.2-2.6,6-5.1,7-8.1c0,0,0.5-2.6,0.9-3.5C190.8,35.6,190.5,26.7,190.5,26.7z"/>
	<path class="st1" d="M186.8,345.7c-0.1,1-0.1,2-0.1,3c0,2.3,0,4.7-0.5,7c-1.3,6.2-7.2,10.7-13.7,10.7c-0.5,0-1.1,0-1.6-0.1
		c-7.4-0.9-12.8-6.8-13-13.9c0-0.3,0-0.7,0-1.1c0-0.7,0.1-1.3-0.1-2c0,0,0.1-3-0.1-4c-0.2-1-1.6-4.1-1.6-4.1
		c-3.3-4.6-3.1-9.1,0.5-12.2c1.6-1.4,3.8-2,6.1-1.6c0.8,0.1,5.7,3,10.8,3.5c5.8,0.5,12-1.3,13.1,0.3l1.9-2.8c-1-2.1-12-7.8-20.6-5
		l-3.3,1.3l0.3-0.3c0.8-0.9,3-1.8,5.1-2.1c2.9-0.5,5.9-0.1,8.7,1.2c0.4,0.2,0.9,0.4,1.3,0.6c1.3,0.5,2.6,1.2,3.9,1.8
		c2.6,1.4,4.5,3.7,5.4,6.4c0.9,2.9,0.5,6-1,8.7l-0.3,0.5l0,0l0,0C188.1,341.6,186.8,345.5,186.8,345.7z M189.5,355l1-11.1
		c0.3-0.9,0.8-1.7,1.1-2.5c1.5-3.4,1.6-6.8,0.5-10.1c-1.2-3.6-3.6-6.3-7-8c-0.3-0.1-0.6-0.3-1-0.4c-0.4-0.2-0.8-0.3-1.2-0.6
		c-0.2-0.1-0.4-0.2-0.7-0.3c-0.8-0.3-1.2-1-1.9-1.4c-3.5-1.5-9.8-0.6-9.8-0.6c-1.7,0.1-7.4,2-8.7,2.9c-1.1,0.8-2.7,1.9-4.4,2.6
		c-2.6,1.1-4.6,3.2-5.5,5.8c-1,2.7-1,5.7,0.3,8.3c0.5,1.2,2.2,3.9,2.8,5.1c0,0,0.1,5.3,0.2,7.1c0.1,0.9,0.1,2.4,0.2,3.1
		c0,0.1,0.1,0.9,0.1,1c0.1,0.2,0.1,0.5,0.2,0.7c1.2,4.2,3.6,7.5,7.3,10c0.7,0.5,3.8,2,3.8,2l0.3,0.1c3.6,1,7,1,10.4,0l0.4-0.1
		c0,0,3.3-1.5,3.5-1.7c4.2-2.6,6.7-6.3,7.9-11.2l0.1-0.3L189.5,355L189.5,355z"/>
	<path class="st1" d="M29.5,243L16,240.9l0.3-0.3c0.8-0.9,3-1.8,5.1-2.1c2.9-0.5,5.9-0.1,8.7,1.2c0.4,0.2,0.9,0.4,1.3,0.6
		c1.3,0.5,2.6,1.2,3.9,1.8c2.6,1.4,4.5,3.7,5.4,6.4c0.9,2.9,0.5,6-1,8.7l-0.3,0.5l0,0l0,0c0,0-1.3,4-1.3,4.2c-0.1,1-0.1,2-0.1,3
		c0,2.3,0,4.7-0.5,7c-1.3,6.2-7.2,10.7-13.7,10.7c-0.5,0-1.1,0-1.6-0.1c-7.4-0.9-12.8-6.8-13-13.9c0-0.3,0-0.7,0-1.1
		c0-0.7,0.1-1.3-0.1-2c0,0,0.1-3-0.1-4c-0.2-1-1.6-4.1-1.6-4.1c-3.3-4.6-3.1-9.1,0.5-12.2c1.6-1.4,4.5,0.4,6.7,0.9
		C24.7,248.2,29.5,243,29.5,243z M40.9,269.9l1-10.4c0.3-0.9,0.8-1.7,1.1-2.5c1.5-3.4,1.6-6.8,0.5-10.1c-1.2-3.6-3.6-6.3-7-8
		c-0.3-0.1-0.6-0.3-1-0.4c-0.4-0.2-0.8-0.3-1.2-0.6c-0.2-0.1-0.4-0.2-0.7-0.3c-0.8-0.3-1.2-1-1.9-1.4c-3.5-1.5-9.8-0.6-9.8-0.6
		c-1.7,0.1-7.4,2-8.7,2.9c-1.1,0.8-2.7,1.9-4.4,2.6c-2.6,1.1-4.6,3.2-5.5,5.8c-1,2.7-1,5.7,0.3,8.3c0.5,1.2,2.2,3.9,2.8,5.1
		c0,0,0.1,5.3,0.2,7.1c0.1,0.9,0.1,2.4,0.2,3.1c0,0.1,0.1,0.9,0.1,1c0.1,0.2,0.1,0.5,0.2,0.7c1.2,4.2,3.6,7.5,7.3,10
		c0.7,0.5,3.8,2,3.8,2l0.3,0.1c3.6,1,7,1,10.4,0l0.4-0.1c0,0,3.3-1.5,3.5-1.7c4.2-2.6,6.7-6.3,7.9-11.2l0.1-0.3v-1.1H40.9z"/>
	<path class="st1" d="M313.3,241.1l-0.4-0.2l0.3-0.3c0.8-0.9,3-1.8,5.1-2.1c2.9-0.5,5.9-0.1,8.7,1.2c0.4,0.2,0.9,0.4,1.3,0.6
		c1.3,0.5,2.6,1.2,3.9,1.8c2.6,1.4,4.5,3.7,5.4,6.4c0.9,2.9,0.5,6-1,8.7l-0.3,0.5l0,0l0,0c0,0-1.3,4-1.3,4.2c-0.1,1-0.1,2-0.1,3
		c0,2.3,0,4.7-0.5,7c-1.3,6.2-7.2,10.7-13.7,10.7c-0.5,0-1.1,0-1.6-0.1c-7.4-0.9-12.8-6.8-13-13.9c0-0.3,0-0.7,0-1.1
		c0-0.7,0.1-1.3-0.1-2c0,0,0.1-3-0.1-4s-1.6-4.1-1.6-4.1c-3.3-4.6-3.1-9.1,0.5-12.2c1.6-1.4,3.8-2,6.1-1.6L313.3,241.1z
		 M337.7,271.2l1-11.2c0.3-0.9,0.8-1.7,1.1-2.5c1.5-3.4,1.6-6.8,0.5-10.1c-1.2-3.6-3.6-6.3-7-8c-0.3-0.1-0.6-0.3-1-0.4
		c-0.4-0.2-0.8-0.3-1.2-0.6c-0.2-0.1-0.4-0.2-0.7-0.3c-0.8-0.3-1.2-1-1.9-1.4c-3.5-1.5-9.8-0.6-9.8-0.6c-1.7,0.1-7.4,2-8.7,2.9
		c-1.1,0.8-2.7,1.9-4.4,2.6c-2.6,1.1-4.6,3.2-5.5,5.8c-1,2.7-1,5.7,0.3,8.3c0.5,1.2,2.2,3.9,2.8,5.1c0,0,0.1,5.3,0.2,7.1
		c0.1,0.9,0.1,2.4,0.2,3.1c0,0.1,0.1,0.9,0.1,1c0.1,0.2,0.1,0.5,0.2,0.7c1.2,4.2,3.6,7.5,7.3,10c0.7,0.5,3.8,2,3.8,2l0.3,0.1
		c3.6,1,7,1,10.4,0l0.4-0.1c0,0,3.3-1.5,3.5-1.7c4.2-2.6,6.7-6.3,7.9-11.2l0.1-0.3L337.7,271.2L337.7,271.2z"/>
	<line class="st2" x1="306.7" y1="91.1" x2="190.9" y2="32.9"/>
	<line class="st2" x1="330.3" y1="240.8" x2="330.3" y2="132.7"/>
	<line class="st2" x1="191.6" y1="335.6" x2="310.9" y2="275.7"/>
	<line class="st2" x1="35.5" y1="276.6" x2="152.6" y2="335.6"/>
	<line class="st2" x1="14.6" y1="132.2" x2="14.6" y2="242.4"/>
	<line class="st2" x1="155.1" y1="32.3" x2="38.2" y2="91.1"/>
</g>
</svg>
