<?xml version="1.0" encoding="utf-8"?>
<!-- Generator: Adobe Illustrator 23.0.1, SVG Export Plug-In . SVG Version: 6.00 Build 0)  -->
<svg version="1.1" id="Layer_1" xmlns="http://www.w3.org/2000/svg" xmlns:xlink="http://www.w3.org/1999/xlink" x="0px" y="0px"
	 viewBox="0 0 384 384" style="enable-background:new 0 0 384 384;" xml:space="preserve">
<style type="text/css">
	.st0{fill:#808080;}
	.st1{fill:#808080;stroke:#808080;stroke-width:4;stroke-miterlimit:10;}
	.st2{fill:none;stroke:#808080;stroke-width:6;stroke-miterlimit:10;}
	.st3{fill:none;stroke:#808080;stroke-width:10;stroke-miterlimit:10;}
</style>
<path class="st0" d="M374.9,314.9c-8.1-18.7-31.7-102.6-31.7-102.6s-0.9-96.3-0.9-141c0-16.9,0-33.3,0-48.9
	c0-10.3-0.7-10.6-9.7-10.6c-30.4,0-60.9,0-91.3,0c-58.7,0-119.3,0-179-0.1c0,0,0,0-0.1,0c-3.7,0-6.2,0.7-7.5,2c-1.4,1.4-2,3.9-2,7.9
	c0.3,28.3,0.2,63.5,0.1,94.5l0,16.2c0,7.8,0.3,16,0.7,23.9c0.8,19,1,55.6,1,55.6s-22.8,59.4-33.3,83.5l-0.2,0.4
	c-3.7,8.6-8,17.8-11.9,26.1c-0.1,0.9-0.2,1.7-0.4,2.5c-0.2,1.1-0.5,2.5-0.1,2.9c1.9,2.4,6.7,2.4,10.5,2.4h0.8
	c119.8,0.2,230.4,0.2,348.1,0c0.5,0,1.1,0,1.6,0c3.9,0,5.7-1,7.6-3.4c0.2-0.6,2.2-1.9-1.5-9.8C375.3,315.8,375,315.3,374.9,314.9z
	 M63.5,22.5h269.2v185.8H63.5V22.5z M24,319.3l1.6-3.6c6.2-14.5,12.4-31.9,18.4-48.7c5.9-16.6,12-33.8,18.1-47.9l0.7-1.6l58.4,0
	c66.6,0,135.4-1,203-1.2c0,0,0.1,0,0.1,0c3.1,0,12.3,0.5,12.3,0.5s10.1,36.1,13.9,51.4c3.2,12.8,7.5,28.1,11.4,39
	c0.8,1.8,1.4,3.6,2.1,5.5c0.3,1,0.7,2,1.1,3.1l1.3,3.5H24z"/>
<path class="st0" d="M235.2,281.7c-1.2-2.7-2.3-5.2-3.6-8.9c-2.5-7.2-5.9-11.9-14.7-11.5c-5.3,0.3-10.8,0.2-16,0.2c-2,0-4,0-6,0
	c-13.5,0-20.3,0-24.5,2.8c-4.2,2.8-6.9,9-12.2,21.3c-1.8,4.2-2.2,7.2-1.3,8.7c0.9,1.5,3.7,2.3,8.1,2.3c7.6,0.1,15.3,0.1,22.7,0
	c3.2,0,6.5,0,9.7,0c0.1,0,0.2,0,0.3,0c3.4,0,6.8,0,10.2,0c7.8,0,15.9,0.1,23.9-0.1c2.3-0.1,5.2-0.5,6.4-2.3c1.2-1.8,0.4-4.6-0.4-6.7
	C236.7,285.2,235.9,283.4,235.2,281.7z M220.6,286.1h-49.8l0.2-2.8c0.6-8.6,5.2-12.5,14-11.9c5.4,0.4,11,0.3,16.4,0.2
	c2.9,0,6-0.1,9-0.1c9.3,0.1,10,1.3,12.7,11.2l0.9,3.3L220.6,286.1z"/>
<path class="st0" d="M312.7,99.8c0-16.8,0-33.2,0-47.9c0-9.3-0.8-10-10.4-10c-70.2,0-140.8,0-209.9,0c-9.5,0-10.1,0.6-10.1,10.1
	c-0.1,36.5-0.1,85.9,0,126c0,10.1,0.4,10.5,10.8,10.5c25.2,0,50.4,0,75.6,0l28.4,0c9.5,0,19.1,0,28.6,0c9.5,0,19.1,0,28.7,0
	c16.2,0,32.5,0,48.6,0.2c3.9,0.1,6.4-0.6,7.8-2c1.4-1.4,2.1-3.9,2-7.7C312.7,155.1,312.7,127,312.7,99.8z M302,177.8H92.9V52.6H302
	V177.8z"/>
<path class="st1" d="M213.6,136.4c-7.1-5.2-13.4-3.2-16.9,5c-0.1,0.3-0.3,0.6-0.4,1c-0.2,1.5-1.2,2-2.5,1.6c-3.1-1-6.4-1.7-9.3-3.3
	c-7.3-4.2-13.1-10.1-18.4-16.5c-2.7-3.2-4.8-6.8-5.8-11c-0.5-2-0.4-3.6,2.1-4.3c1.3-0.4,2.6-1.3,3.7-2.2c4.1-3.2,5.2-7.3,2.7-11.8
	c-3.5-6.4-8.6-11.5-14.7-15.4c-1.6-1-3-0.8-4.7,0c-7,3.1-14.2,17.6-10.1,26.3c3.1,6.4,7,12.2,11,18c11.7,16.7,27.2,28.9,45.1,38.4
	c3.5,1.9,7.2,3.4,12.1,3.5c6.7-1.2,13.5-3.8,18.1-10.6c2.2-3.4,2.4-5.1-0.5-8.1C221.6,143.2,217.8,139.5,213.6,136.4z M199.7,142.9
	C199.7,142.9,199.7,142.9,199.7,142.9C199.7,142.9,199.7,142.9,199.7,142.9z M222.8,153.1c-3.2,4.8-8.1,7.6-15.4,9
	c-4-0.2-7-1.4-10.3-3.1c-18.9-10.1-33.3-22.3-43.9-37.4c-3.8-5.4-7.7-11.2-10.7-17.5c-1.3-2.8-1.2-6.9,0.5-11.2
	c1.8-4.8,5.1-9.1,7.9-10.4c0.5-0.2,0.8-0.3,1-0.3c0.2,0,0.3,0,0.4,0.1c5.9,3.7,10.5,8.5,13.6,14.2c1.1,2.1,1.8,4.6-1.9,7.4
	c-0.7,0.6-1.8,1.4-2.5,1.6c-2.2,0.6-5.8,2.6-4.5,8.4c1,4.2,3.1,8.3,6.5,12.4c6.7,8.2,12.7,13.5,19.3,17.3c2.5,1.4,5.1,2.2,7.7,2.9
	c0.7,0.2,1.5,0.4,2.2,0.6c1.6,0.5,3.2,0.3,4.5-0.5c1.2-0.8,2-2.1,2.3-3.6c0,0,0,0,0,0c0-0.1,0.1-0.3,0.2-0.4c0.9-2.2,2.6-4.9,5-5.6
	c2.3-0.6,4.9,0.7,6.7,2c4.4,3.2,8.3,7.1,11.2,10.2C224.3,151,224.3,151,222.8,153.1z"/>
<g>
	<line class="st2" x1="199.3" y1="88.6" x2="222.4" y2="88.6"/>
	<line class="st2" x1="210.9" y1="77" x2="210.9" y2="100.1"/>
</g>
<circle class="st3" cx="210.5" cy="88.4" r="23.2"/>
</svg>
