<?xml version="1.0" encoding="utf-8"?>
<!-- Generator: Adobe Illustrator 23.0.1, SVG Export Plug-In . SVG Version: 6.00 Build 0)  -->
<svg version="1.1" id="Layer_1" xmlns="http://www.w3.org/2000/svg" xmlns:xlink="http://www.w3.org/1999/xlink" x="0px" y="0px"
	 viewBox="0 0 257.5 295.4" style="enable-background:new 0 0 257.5 295.4;" xml:space="preserve">
<style type="text/css">
	.st0{fill:none;stroke:#808080;stroke-width:10;stroke-miterlimit:10;}
</style>
<title>secure</title>
<g>
	<path class="st0" d="M136.4,10.6c17,11.1,35.3,20,54.6,26.6c14.3,4.9,29.5,6.9,44.5,6l15.7-1.4l0.8,15.7
		c2.9,57.6-6.4,107.6-26,147.1c-20.4,41-51.7,70.7-91.9,85.8h-10.4c-39.3-14.4-70.3-43.2-90.9-84.8c-19.3-39-29.1-89.4-27.6-149.5
		l0.4-15.4L21,41.4c16.8,1.1,33.6-0.6,49.8-5.1c17.5-5.1,33.9-13.6,48.3-24.9l8.4-6.5C127.5,5,136.4,10.6,136.4,10.6z"/>
	<path class="st0" d="M101,148c3.3,2.8,6.4,5.9,9.4,9.1c8.8-14.3,18.6-27.9,29.3-40.8c29.2-35.3,20.5-33,61.1-33l-5.8,6.2
		c-15.2,17.1-29.2,35.2-41.9,54.3c-14.1,20.3-26.8,41.5-38.2,63.5l-3.5,6.8l-3.2-6.9c-5.7-12.5-13-24.3-21.6-35
		c-7.8-9.8-17.1-18.3-27.5-25.3c5.3-17.3,30.5-8.4,41.8,1.1L101,148L101,148z"/>
</g>
</svg>
