<?xml version="1.0" encoding="utf-8"?>
<!-- Generator: Adobe Illustrator 23.0.1, SVG Export Plug-In . SVG Version: 6.00 Build 0)  -->
<svg version="1.1" id="svg8" xmlns:svg="http://www.w3.org/2000/svg"
	 xmlns="http://www.w3.org/2000/svg" xmlns:xlink="http://www.w3.org/1999/xlink" x="0px" y="0px" viewBox="0 0 461.8 441.4"
	 style="enable-background:new 0 0 461.8 441.4;" xml:space="preserve">
<style type="text/css">
	.st0{fill:none;stroke:#808080;stroke-width:10;stroke-miterlimit:10;}
	.st1{fill:none;stroke:#808080;stroke-width:16;stroke-miterlimit:10;}
	.st2{fill:#808080;stroke:#808080;stroke-width:3;stroke-miterlimit:10;}
</style>
<path class="st0" d="M265.9,433.4H17c-4.9,0-9-4-9-9V17c0-4.9,4-9,9-9h248.9c4.9,0,9,4,9,9v407.4
	C274.9,429.3,270.9,433.4,265.9,433.4z"/>
<line class="st0" x1="8" y1="390.1" x2="274.9" y2="390.1"/>
<line class="st1" x1="8" y1="47.6" x2="274.9" y2="47.6"/>
<path class="st0" d="M187.4,33.5H95.5c-4.9,0-9-4-9-9v-7.1c0-4.9,4-9,9-9h91.9c4.9,0,9,4,9,9v7.1C196.4,29.5,192.4,33.5,187.4,33.5z
	"/>
<line class="st0" x1="103.8" y1="410.7" x2="179" y2="410.7"/>
<g>
	<path class="st2" d="M201.2,281.8c-4.8-6.2-11.3-14.1-19-21c-8.7-7.8-16.3-8.4-21.2-7.6c-5,0.9-12.2,4.1-18.1,14.8
		c0,0.1-0.1,0.2-0.1,0.2s0,0.1-0.1,0.1c-0.5-0.2-1-0.4-1.5-0.6c-3.8-1.5-7.4-2.9-10.3-5c-9.6-6.8-18-16.1-27.4-30
		c-4-6-6.4-11.7-7.1-17.4c0-0.2,0-0.3-0.1-0.4c3.4-0.7,6.4-2.6,8.4-3.9c10.4-6.6,13.7-16.6,9-27.4c-5.2-12.2-13.5-22.8-24.6-31.5
		c-5.7-4.5-11.7-2.5-13.6-1.9c-8.2,2.7-17,11.6-22.4,22.7c-5,10.4-6.2,20.5-3.2,28.7c4.5,12.2,10.5,23.5,16.3,33.8
		c16.6,29.5,40.5,54.3,73.1,76c6,4,12.8,7.8,22.9,9.1l0.6,0.1l0.6-0.1c10.5-0.9,25.8-3.6,37.1-17.3
		C205.9,296.8,208.1,290.6,201.2,281.8z M195.9,299.6c-8.9,10.9-21.2,14.2-32.9,15.2c-8.6-1.1-14.6-4.3-20.4-8.1
		c-29.2-19.4-53.8-43.1-71.2-73.9c-6-10.7-11.7-21.4-15.9-32.9c-5.7-15.6,9.3-39.5,21.9-43.6c3-1,5.6-1.1,8.1,0.9
		c10,7.8,17.8,17.5,22.8,29.1c3.5,8.3,0.9,15.1-6.7,19.9c-2.1,1.3-4.4,2.7-6.7,3.2c-4.4,0.8-4.8,3.6-4.3,7c1,7.3,4,13.9,8.1,19.9
		c8,12,17.1,23.2,28.9,31.6c4.5,3.2,10.2,5,15.4,7.2c2.1,0.9,3.9,0.2,4.5-2.3c0.1-0.6,0.5-1.1,0.8-1.7c7.4-13.5,18.6-15.9,30-5.7
		c6.7,6,12.7,13,18.2,20.2C200.9,291.1,200.4,294.1,195.9,299.6z"/>
</g>
<g>
	<path class="st0" d="M134.9,147.1c39.6,3.9,68.6,39.3,64.7,78.9"/>
	<path class="st0" d="M130.7,175.3c24.7,2.4,42.7,24.5,40.3,49.2"/>
	<path class="st0" d="M125.2,202.1c11.3,1.1,19.6,11.2,18.5,22.5"/>
</g>
<path class="st0" d="M445.6,134.3h-47h-14.7l-4.7,19.2l-20.3-19.2h-53.6c-4.5,0-8.2-3.4-8.2-7.6V26c0-4.2,3.7-7.6,8.2-7.6h140.4
	c4.5,0,8.2,3.4,8.2,7.6v100.7C453.8,130.9,450.1,134.3,445.6,134.3z"/>
<line class="st0" x1="323.3" y1="47.6" x2="418.2" y2="47.6"/>
<line class="st0" x1="323.3" y1="70.1" x2="418.2" y2="70.1"/>
<line class="st0" x1="345" y1="100.1" x2="418.2" y2="100.1"/>
</svg>
