<?xml version="1.0" encoding="utf-8"?>
<!-- Generator: Adobe Illustrator 23.0.1, SVG Export Plug-In . SVG Version: 6.00 Build 0)  -->
<svg version="1.1" id="Layer_1" xmlns="http://www.w3.org/2000/svg" xmlns:xlink="http://www.w3.org/1999/xlink" x="0px" y="0px"
	 viewBox="0 0 384 384" style="enable-background:new 0 0 384 384;" xml:space="preserve">
<style type="text/css">
	.st0{fill:#808080;}
</style>
<g>
	<path class="st0" d="M83.2,52.6c0.1,0,0.1,0,0.2,0c6.4,0,11.6-5.1,11.7-11.5c0-6.5-5.1-11.7-11.7-11.8c-6.3,0-11.5,5.1-11.6,11.5
		c0,3.1,1.1,6.1,3.3,8.3C77.2,51.3,80.1,52.5,83.2,52.6z"/>
	<path class="st0" d="M43.7,52.6c6.5,0.1,11.7-5.1,11.8-11.5c0-6.5-5.1-11.7-11.7-11.8c-6.3,0-11.5,5.1-11.6,11.5
		c0,3.1,1.1,6.1,3.3,8.3C37.7,51.3,40.6,52.5,43.7,52.6z"/>
	<path class="st0" d="M122.7,52.6c6.5,0.1,11.7-5.1,11.8-11.5c0-6.5-5.1-11.7-11.7-11.8c-6.3,0-11.5,5.1-11.6,11.5
		c0,3.1,1.1,6.1,3.3,8.3C116.7,51.3,119.6,52.5,122.7,52.6z"/>
	<path class="st0" d="M366.4,5.9H17.6C11.2,5.9,6,11.1,5.9,17.6v348.8c0,6.4,5.1,11.6,11.7,11.6h348.8c6.4,0,11.6-5.1,11.6-11.7
		V17.6C378,11.2,372.8,5.9,366.4,5.9z M368,368H16.1V76.4H368V368z M368,66.3H16.1V16.1H368V66.3z"/>
	<path class="st0" d="M323.3,54.8c0.9,0.9,2.2,1.5,3.5,1.5c1.4,0,2.7-0.5,3.6-1.5l6.3-6.5l6.3,6.4c0.9,1,2.2,1.5,3.6,1.5
		c1.3,0,2.6-0.5,3.5-1.4c2-2,2-5.1,0.1-7.1l-6.3-6.6l6.4-6.5c1.9-2,1.9-5.1-0.1-7.1c-2-1.9-5.2-1.9-7.1,0.1l-6.3,6.4l-6.3-6.4
		c-2-2-5.1-2-7.1-0.1c-0.9,0.9-1.5,2.2-1.5,3.5c0,1.4,0.5,2.6,1.4,3.6l6.3,6.5l-6.3,6.6c-0.9,1-1.4,2.2-1.4,3.6
		C321.8,52.6,322.3,53.9,323.3,54.8z"/>
	<path class="st0" d="M274.3,46.2h26.3c2.8,0,5.1-2.3,5.1-5.1c0-2.7-2.3-5-5.1-5.1l-26.3,0c-2.8,0-5,2.2-5,5.1
		C269.3,43.9,271.5,46.2,274.3,46.2z"/>
	<path class="st0" d="M73.4,116.7h37.2c4.5,0.2,8.1,3.8,8.3,8.2l11.8,115.8l-22.9,13.3c-5.2,3.6-8.2,9.5-8.1,15.8v1.8
		c-0.1,9.9,7.3,18.1,17.2,19.1l2.6,0.2l-1.5,2.2c-3.1,4.6-4.8,10.3-4.8,16.1c-0.6,15.2,11.3,28,26.4,28.6
		c15.2,0.6,27.9-11.3,28.5-26.4l0-2c0-5.7-1.7-11.2-4.8-16l-1.6-2.4h65.5l-1.6,2.4c-3.2,4.8-4.8,10.4-4.8,16
		c-0.3,7.4,2.3,14.4,7.3,19.8c5,5.4,11.8,8.5,19.1,8.8c7.3,0.3,14.3-2.3,19.7-7.3c5.4-5,8.5-11.8,8.8-19.1l0-2
		c0-5.7-1.7-11.2-4.8-16l-1.6-2.4H284c2.8,0,5-2.3,5-5.1c0-2.8-2.2-5-5-5H118.2c-4.9-0.2-8.7-4.4-8.4-9.2l0-1.7
		c0-2.8,1.2-5.5,3.2-7.3l0.3-0.2l24.3-14h116.7c6.5,0,12.4-3.6,15.4-9.5l37.3-70.5c3.3-6.3,2.8-13.8-1.3-19.6l-4.7-6.7
		c-3.3-4.6-8.6-7.3-14.1-7.3l-156.6,0.4l-1.1-11.5c-0.8-9.7-8.7-17-18.4-17.1H73.4c-2.8,0-5.1,2.3-5.1,5.1
		C68.3,114.4,70.6,116.7,73.4,116.7z M248,290.8c4.9-0.4,9.7,1.2,13.4,4.5c3.7,3.3,6,7.8,6.3,12.8c0.7,10.2-7.1,19.1-17.2,19.7
		c-0.5,0-0.9,0.1-1.4,0.1c-4.4,0-8.7-1.6-12-4.5c-3.7-3.3-6-7.8-6.3-12.8l0-1.3C230.5,299.4,238.3,291.1,248,290.8z M128.1,296.4
		c3.3-3.5,7.7-5.5,12.4-5.7c4.9-0.4,9.7,1.2,13.4,4.5c3.7,3.3,6,7.8,6.3,12.8c0.4,4.9-1.2,9.7-4.5,13.4c-3.3,3.7-7.8,6-12.8,6.3
		c-0.5,0-0.9,0.1-1.4,0.1c-4.4,0-8.7-1.6-12-4.5c-3.7-3.3-6-7.8-6.3-12.8l0-1.3C123.1,304.5,124.8,299.9,128.1,296.4z M260.8,234.2
		c-1.2,2.4-3.7,4-6.5,4.1l-112.3,0h-1.4l-7.1-69.8l162.1-0.1L260.8,234.2z M286.6,144.9c2.4,0,4.7,1.2,6,3.2l4.8,6.7
		c0.3,0.4,0.5,0.9,0.7,1.3l1.1,2.2l-166.8,0.1l-1.3-13.2L286.6,144.9z"/>
</g>
</svg>
