<?xml version="1.0" encoding="utf-8"?>
<!-- Generator: Adobe Illustrator 23.0.1, SVG Export Plug-In . SVG Version: 6.00 Build 0)  -->
<svg version="1.1" id="Layer_1" xmlns="http://www.w3.org/2000/svg" xmlns:xlink="http://www.w3.org/1999/xlink" x="0px" y="0px"
	 viewBox="0 0 325.2 338" style="enable-background:new 0 0 325.2 338;" xml:space="preserve">
<style type="text/css">
	.st0{fill:none;stroke:#808080;stroke-width:10;stroke-miterlimit:10;}
</style>
<line class="st0" x1="15" y1="51.4" x2="110.4" y2="51.5"/>
<line class="st0" x1="3" y1="21.4" x2="64.4" y2="21.5"/>
<line class="st0" x1="3" y1="81.4" x2="64.4" y2="81.5"/>
<g>
	<path class="st0" d="M306.4,274.8H21.6c-7.3,0-13.2-6.8-13.2-15.2v-12.8c0-8.4,6-15.2,13.2-15.2h284.7c7.3,0,13.2,6.8,13.2,15.2
		v12.8C319.6,267.9,313.6,274.8,306.4,274.8z"/>
	<g>
		<path class="st0" d="M299.5,228.1c-3.1-81.2-62.8-146-136.1-146s-132.9,64.8-136,146"/>
	</g>
	<g>
		<path class="st0" d="M213,89.8c-1.1-29.2-22-52.5-47.7-52.5s-46.7,23.3-47.7,52.5"/>
	</g>
	<g>
		<path class="st0" d="M120.8,278.6c-0.8,20.6-15.5,37.1-33.7,37.1s-32.9-16.4-33.7-37.1"/>
	</g>
	<g>
		<path class="st0" d="M275.4,278.6c-0.8,20.6-15.5,37.1-33.7,37.1s-32.9-16.4-33.7-37.1"/>
	</g>
	<g>
		<path class="st0" d="M93,279.7c-0.1,3.7-2.8,6.6-6,6.6c-3.2,0-5.8-2.9-6-6.6"/>
	</g>
	<g>
		<path class="st0" d="M247.6,279.7c-0.1,3.7-2.8,6.6-6,6.6s-5.8-2.9-6-6.6"/>
	</g>
	<path class="st0" d="M65.4,185.4c0,0,22.8-55.4,73.6-65.3"/>
</g>
</svg>
