<?xml version="1.0" encoding="utf-8"?>
<!-- Generator: Adobe Illustrator 23.0.1, SVG Export Plug-In . SVG Version: 6.00 Build 0)  -->
<svg version="1.1"
	 id="Layer_1" text-rendering="geometricPrecision" image-rendering="optimizeQuality" shape-rendering="geometricPrecision"
	 xmlns="http://www.w3.org/2000/svg" xmlns:xlink="http://www.w3.org/1999/xlink" x="0px" y="0px" viewBox="0 0 384 384"
	 style="enable-background:new 0 0 384 384;" xml:space="preserve">
<style type="text/css">
	.st0{fill:none;stroke:#808080;stroke-width:10;stroke-miterlimit:10;}
</style>
<g>
	<line class="st0" x1="82.5" y1="339.3" x2="301.5" y2="339.3"/>
	<line class="st0" x1="161.1" y1="357.2" x2="222.8" y2="357.2"/>
	<path class="st0" d="M294.2,376.9H89.8c-4.1,0-7.4-3.5-7.4-7.8V14.9c0-4.3,3.3-7.8,7.4-7.8h204.3c4.1,0,7.4,3.5,7.4,7.8v354.2
		C301.5,373.4,298.2,376.9,294.2,376.9z"/>
	<line class="st0" x1="82.5" y1="41.5" x2="301.5" y2="41.5"/>
	<path class="st0" d="M229.7,29.3h-75.4c-4.1,0-7.4-3.5-7.4-7.8v-6.2c0-4.3,3.3-7.8,7.4-7.8h75.4c4.1,0,7.4,3.5,7.4,7.8v6.2
		C237.1,25.8,233.8,29.3,229.7,29.3z"/>
	<path id="path80319" class="st0" d="M233.2,172.1l12.9-23.6c0.7-1.3,0.3-3-0.9-3.8c-1.2-0.8-2.8-0.3-3.6,1l-13,23.9
		c-10-4.8-21.1-7.5-33.1-7.5c-12.1,0-23.2,2.7-33.1,7.5l-13-23.9c-0.7-1.3-2.3-1.8-3.6-1c-1.2,0.8-1.7,2.5-0.9,3.8l12.9,23.6
		c-22.1,12.7-37.1,36.5-39.7,64.3h154.9C270.4,208.6,255.4,184.8,233.2,172.1z M159.8,213.4c-3.6,0-6.5-3.1-6.5-6.9
		c0-3.8,2.9-6.9,6.5-6.9c3.6,0,6.5,3.1,6.5,6.9C166.3,210.3,163.4,213.4,159.8,213.4z M231,213.4c-3.6,0-6.5-3.1-6.5-6.9
		c0-3.8,2.9-6.9,6.5-6.9c3.6,0,6.5,3.1,6.5,6.9C237.4,210.3,234.5,213.4,231,213.4z"/>
</g>
</svg>
