<?xml version="1.0" encoding="utf-8"?>
<!-- Generator: Adobe Illustrator 23.0.1, SVG Export Plug-In . SVG Version: 6.00 Build 0)  -->
<svg version="1.1" id="Layer_1" xmlns="http://www.w3.org/2000/svg" xmlns:xlink="http://www.w3.org/1999/xlink" x="0px" y="0px"
	 viewBox="0 0 274.8 357.8" style="enable-background:new 0 0 274.8 357.8;" xml:space="preserve">
<style type="text/css">
	.st0{fill:none;stroke:#808080;stroke-width:10;stroke-miterlimit:10;}
	.st1{display:none;}
	.st2{display:inline;}
	.st3{fill:none;stroke:#9A9A9A;stroke-width:16;stroke-miterlimit:10;}
	.st4{display:none;fill:#D7366F;stroke:#9A9A9A;stroke-width:16;stroke-miterlimit:10;}
</style>
<g>
	<path class="st0" d="M128.1,194c4.6-11.6,8.9-22.2,13.2-33c2.2-5.6,4.2-11.2,6.6-16.7c2.5-5.8,6.9-8,11.7-6.1
		c4.7,1.9,6.5,6.5,4.2,12.4c-8.3,21.2-16.7,42.3-25.2,63.3c-2.9,7.1-10.3,8.5-15.2,2.5c-7.8-9.5-15-19.5-22.2-29.7
		c-3-4.2-1.7-9,2-11.7c3.9-2.7,8.6-2,12.1,2.3C119.6,182.6,123.6,188,128.1,194z"/>
</g>
<g class="st1">
	<g class="st2">
		<path class="st3" d="M24.7,163.3c-5.6,0.2-11.2-0.3-16.8-0.1c-4.2,0.1-5.7-1.5-5.6-5.7C2.4,144.8,2,142,2.2,129.3
			c0-2.8,1.8-5.5,2.7-8.2c2.4,1.1,5.1,1.9,7.2,3.5c8.1,5.8,16,6.6,23.5,1.9c7.5-4.7,11.3-14,9.3-23.1s-8.3-16.2-16.8-16.2
			c-5.6,0-11.6,2.4-16.7,5.1c-7,3.7-8.4,3.9-8.9-3.7C1.6,75.3,1.6,66.9,1.6,53.5c0-1.3,3.3-3.7,5.1-3.8c10.1-0.5,10.3-0.2,20.4-0.5
			c4.7-0.1,9.5-0.5,14.1-1.6c7.2-1.8,9.1-6.8,5.6-13.3c-1.3-2.5-3-4.7-4.3-7.2c-3.8-7.2-2.1-15.1,4.1-19.6s34-4,39.6,1.1
			c5.4,5,6,13.5,1.6,20c-2.9,4.2-7.1,8.4-4.2,14c2.9,5.5,8.8,5.8,14.2,5.9c8.8,0.2,7.7,0,16.5-0.3c3.9-0.1,5.4,1.3,5.4,5.2
			c0,9.7,0.3,64.4,0.4,74.1v16.9c0,0,0.8,18.9-22.6,18.9S24.7,163.3,24.7,163.3z"/>
	</g>
	<g class="st2">
		<path class="st3" d="M97.2,181.3c23.4,0,22.6,18.9,22.6,18.9v16.9c0,9.7-0.4,64.4-0.4,74.1c0,3.9-1.4,5.3-5.4,5.2
			c-8.8-0.3-7.7-0.4-16.5-0.3c-5.4,0.1-11.3,0.4-14.2,5.9c-2.9,5.6,1.3,9.8,4.2,14c4.5,6.5,3.8,15-1.6,20
			c-5.6,5.2-33.4,5.6-39.6,1.1s-7.9-12.3-4.1-19.6c1.3-2.5,3-4.7,4.3-7.2c3.5-6.6,1.6-11.5-5.6-13.3c-4.6-1.1-9.4-1.5-14.1-1.6
			c-10.1-0.3-10.3-0.1-20.4-0.5c-1.8-0.1-5.1-2.5-5.1-3.8c-0.1-13.4,0-21.8,0.9-35.1c0.5-7.7,1.9-7.4,8.9-3.7
			c5.1,2.7,11.1,5.1,16.7,5.1c8.6,0,14.8-7.1,16.8-16.2c2-9.1-1.8-18.4-9.3-23.1c-7.5-4.7-15.4-3.9-23.5,1.9
			c-2.1,1.5-4.8,2.3-7.2,3.5c-0.9-2.7-2.7-5.5-2.7-8.2c-0.2-12.7,0.2-15.5,0.1-28.2c0-4.2,1.4-5.8,5.6-5.7
			c5.6,0.2,11.2-0.3,16.8-0.1C24.7,181.3,73.8,181.3,97.2,181.3z"/>
	</g>
	<g class="st2">
		<path class="st3" d="M161,163.3c-23.4,0-22.6-18.9-22.6-18.9v-16.9c0-9.7,0.4-64.4,0.4-74.1c0-3.9,1.4-5.3,5.4-5.2
			c8.8,0.3,7.7,0.4,16.5,0.3c5.4-0.1,11.3-0.4,14.2-5.9c2.9-5.6-1.3-9.8-4.2-14c-4.5-6.5-3.8-15,1.6-20c5.6-5.2,33.4-5.6,39.6-1.1
			c6.2,4.5,7.9,12.3,4.1,19.6c-1.3,2.5-3,4.7-4.3,7.2c-3.5,6.6-1.6,11.5,5.6,13.3c4.6,1.1,9.4,1.5,14.1,1.6
			c10.1,0.3,10.3,0.1,20.4,0.5c1.8,0.1,5.1,2.5,5.1,3.8c0.1,13.4,0,21.8-0.9,35.1c-0.5,7.7-1.9,7.4-8.9,3.7
			c-5.1-2.7-11.1-5.1-16.7-5.1c-8.6,0-14.8,7.1-16.8,16.2s1.8,18.4,9.3,23.1c7.5,4.7,15.4,3.9,23.5-1.9c2.1-1.5,4.8-2.3,7.2-3.5
			c0.9,2.7,2.7,5.5,2.7,8.2c0.2,12.7-0.2,15.5-0.1,28.2c0,4.2-1.4,5.8-5.6,5.7c-5.6-0.2-11.2,0.3-16.8,0.1
			C233.6,163.3,184.5,163.3,161,163.3z"/>
	</g>
	<g class="st2">
		<path class="st3" d="M233.6,181.3c5.6-0.2,11.2,0.3,16.8,0.1c4.2-0.1,5.7,1.5,5.6,5.7c-0.1,12.7,0.3,15.5,0.1,28.2
			c0,2.8-1.8,5.5-2.7,8.2c-2.4-1.1-5.1-1.9-7.2-3.5c-8.1-5.8-16-6.6-23.5-1.9c-7.5,4.7-11.3,14-9.3,23.1s8.3,16.2,16.8,16.2
			c5.6,0,11.6-2.4,16.7-5.1c7-3.7,8.4-3.9,8.9,3.7c0.9,13.3,0.9,21.7,0.9,35.1c0,1.3-3.3,3.7-5.1,3.8c-10.1,0.5-10.3,0.2-20.4,0.5
			c-4.7,0.1-9.5,0.5-14.1,1.6c-7.2,1.8-9.1,6.8-5.6,13.3c1.3,2.5,3,4.7,4.3,7.2c3.8,7.2,2.1,15.1-4.1,19.6c-6.2,4.5-34,4-39.6-1.1
			c-5.4-5-6-13.5-1.6-20c2.9-4.2,7.1-8.4,4.2-14c-2.9-5.5-8.8-5.8-14.2-5.9c-8.8-0.2-7.7,0-16.5,0.3c-3.9,0.1-5.4-1.3-5.4-5.2
			c0-9.7-0.3-64.4-0.4-74.1v-16.9c0,0-0.8-18.9,22.6-18.9S233.6,181.3,233.6,181.3z"/>
	</g>
</g>
<circle class="st4" cx="137.5" cy="178.9" r="62.1"/>
<g>
	<path class="st0" d="M127.7,115.3c-0.1-20.8-0.3-52.4-0.3-59.6c0-4-1.5-5.5-5.6-5.4c-9.1,0.3-8,0.5-17.1,0.3
		C99.1,50.5,93,50.2,90,44.5c-3.1-5.8,1.3-10.1,4.3-14.4c4.6-6.7,3.9-15.6-1.6-20.7c-5.8-5.4-34.6-5.9-41-1.2
		c-6.5,4.6-8.2,12.8-4.2,20.2c1.3,2.6,3.2,4.9,4.5,7.4c3.7,6.8,1.6,11.9-5.8,13.8c-4.7,1.2-9.7,1.5-14.6,1.6
		c-10.5,0.3-10.7,0.1-21.2,0.6C8.4,52,5.1,54.4,5,55.8C4.9,69.7,5,78.3,5.9,92.1c0.5,7.9,1.9,7.7,9.2,3.9c5.3-2.8,11.6-5.3,17.3-5.2
		c8.9,0,15.4,7.3,17.4,16.9c2,9.3-1.8,19.1-9.6,23.9c-7.7,4.8-16,4-24.4-1.9c-2.2-1.5-4.9-2.4-7.4-3.6c-1,2.8-2.8,5.7-2.8,8.5
		c-0.2,13.2,0.2,16,0.2,29.2c0,4.3,1.4,6.1,5.9,5.9c5.8-0.2,11.7,0.3,17.4,0.1c0,0,22.3,0,44.5,0C77.8,141.7,99.8,119.6,127.7,115.3
		z"/>
	<path class="st0" d="M73.8,188.2c-22.2,0-44.5,0-44.5,0c-5.8-0.2-11.7,0.3-17.4,0.1c-4.3-0.2-5.9,1.5-5.9,5.9
		c0.1,13.2-0.4,16-0.2,29.2c0,2.9,1.8,5.7,2.8,8.5c2.5-1.2,5.2-2,7.4-3.6c8.4-6,16.6-6.8,24.4-1.9c7.8,4.9,11.7,14.5,9.6,23.9
		c-2,9.4-8.6,16.8-17.4,16.9c-5.8,0-12-2.4-17.3-5.2c-7.3-3.9-8.7-4-9.2,3.9c-1,13.8-1,22.5-0.9,36.3c0,1.3,3.4,3.9,5.3,3.9
		c10.5,0.5,10.7,0.2,21.2,0.6c4.9,0.2,9.9,0.5,14.6,1.6c7.4,1.8,9.4,7,5.8,13.8c-1.3,2.6-3.2,4.9-4.5,7.4
		c-3.9,7.5-2.2,15.6,4.2,20.2c6.5,4.6,35.2,4.1,41-1.2c5.6-5.2,6.3-14,1.6-20.7c-3-4.3-7.4-8.7-4.3-14.4c3-5.7,9.1-6,14.7-6.1
		c9.1-0.2,8,0,17.1,0.3c4,0.1,5.6-1.3,5.6-5.4c0-7.2,0.2-38.8,0.3-59.6C99.8,238.3,77.8,216.2,73.8,188.2z"/>
	<path class="st0" d="M201.1,169.6c22.2,0,44.5,0,44.5,0c5.8,0.2,11.7-0.3,17.4-0.1c4.3,0.2,5.9-1.5,5.9-5.9
		c-0.1-13.2,0.4-16,0.2-29.2c0-2.9-1.8-5.7-2.8-8.5c-2.5,1.2-5.2,2-7.4,3.6c-8.4,6-16.6,6.8-24.4,1.9c-7.8-4.9-11.7-14.5-9.6-23.9
		c2-9.4,8.6-16.8,17.4-16.9c5.8,0,12,2.4,17.3,5.2c7.3,3.9,8.7,4,9.2-3.9c1-13.8,1-22.5,0.9-36.3c0-1.3-3.4-3.9-5.3-3.9
		c-10.5-0.5-10.7-0.2-21.2-0.6c-4.9-0.2-9.9-0.5-14.6-1.6c-7.4-1.8-9.4-7-5.8-13.8c1.3-2.6,3.2-4.9,4.5-7.4
		c3.9-7.5,2.2-15.6-4.2-20.2c-6.5-4.6-35.2-4.1-41,1.2c-5.6,5.2-6.3,14-1.6,20.7c3,4.3,7.4,8.7,4.3,14.4c-3,5.7-9.1,6-14.7,6.1
		c-9.1,0.2-8,0-17.1-0.3c-4-0.1-5.6,1.3-5.6,5.4c0,7.2-0.2,38.8-0.3,59.6C175,119.6,197.1,141.7,201.1,169.6z"/>
	<path class="st0" d="M201.1,169.6c0.9,4.5,0.3,14,0,18.6c-2,28.1-26,50.1-53.9,54.3c0,0-7.8,0.8-14.7,0.8"/>
</g>
<path class="st0" d="M243.9,303l-5,4c-3.6,2.8-8.8,2.3-11.6-1.3l-21.8-27.1c-2.8-3.6-2.3-8.8,1.3-11.6l5-4c3.6-2.8,8.8-2.3,11.6,1.3
	l21.8,27.1C248,294.9,247.4,300.1,243.9,303z"/>
<line class="st0" x1="182.4" y1="230.9" x2="210.1" y2="264.8"/>
</svg>
