<?xml version="1.0" encoding="utf-8"?>
<!-- Generator: Adobe Illustrator 23.0.1, SVG Export Plug-In . SVG Version: 6.00 Build 0)  -->
<svg version="1.1" id="Layer_1" xmlns="http://www.w3.org/2000/svg" xmlns:xlink="http://www.w3.org/1999/xlink" x="0px" y="0px"
	 viewBox="0 0 384.7 384" style="enable-background:new 0 0 384.7 384;" xml:space="preserve">
<style type="text/css">
	.st0{fill:none;stroke:#808080;stroke-width:10;stroke-miterlimit:10;}
</style>
<g>
	<path class="st0" d="M293.6,376.5H96.2c-3.9,0-7.1-3.5-7.1-7.8V15.2c0-4.3,3.2-7.8,7.1-7.8h197.4c3.9,0,7.1,3.5,7.1,7.8v353.5
		C300.7,373,297.5,376.5,293.6,376.5z"/>
	<line class="st0" x1="87.9" y1="339" x2="299.6" y2="339"/>
	<line class="st0" x1="87.9" y1="41.8" x2="299.6" y2="41.8"/>
	<path class="st0" d="M233,25.7h-78.6c-4.2,0-7.7-3.5-7.7-7.8v-2.3c0-4.3,3.5-7.8,7.7-7.8H233c4.2,0,7.7,3.5,7.7,7.8v2.3
		C240.7,22.2,237.2,25.7,233,25.7z"/>
	<line class="st0" x1="161.5" y1="356.9" x2="225.8" y2="356.9"/>
	<path class="st0" d="M236.9,250.4c-0.2-20.7,16.7-30.6,17.4-31.1c-9.5-14-24.2-16-29.5-16.2c-12.6-1.3-24.5,7.5-30.9,7.5
		c-6.3,0-16.2-7.3-26.6-7.1c-13.6,0.2-26.3,8.1-33.3,20.5c-14.2,25-3.7,62.1,10.2,82.4c6.8,9.9,14.8,21.1,25.4,20.7
		c10.2-0.4,14-6.7,26.4-6.7c12.3,0,15.8,6.7,26.6,6.5c11-0.2,17.9-10.1,24.7-20.1c7.7-11.5,11-22.7,11.1-23.2
		C258.2,283.3,237.1,275.1,236.9,250.4L236.9,250.4L236.9,250.4z M216.7,189.6c5.6-6.9,9.4-16.5,8.4-26.1
		c-8.1,0.3-17.9,5.5-23.7,12.4c-5.2,6.1-9.8,15.9-8.6,25.3C201.8,201.9,211,196.5,216.7,189.6L216.7,189.6z"/>
	<path class="st0" d="M129.8,99.1h-18.1c-4.2,0-7.7-3.5-7.7-7.8V72.9c0-4.3,3.5-7.8,7.7-7.8h18.1c4.2,0,7.7,3.5,7.7,7.8v18.4
		C137.4,95.6,134,99.1,129.8,99.1z"/>
	<path class="st0" d="M129.8,161.2h-18.1c-4.2,0-7.7-3.5-7.7-7.8V135c0-4.3,3.5-7.8,7.7-7.8h18.1c4.2,0,7.7,3.5,7.7,7.8v18.4
		C137.4,157.6,134,161.2,129.8,161.2z"/>
	<path class="st0" d="M195.9,99.1h-18.1c-4.2,0-7.7-3.5-7.7-7.8V72.9c0-4.3,3.5-7.8,7.7-7.8h18.1c4.2,0,7.7,3.5,7.7,7.8v18.4
		C203.6,95.6,200.1,99.1,195.9,99.1z"/>
	<path class="st0" d="M195.9,161.2h-18.1c-4.2,0-7.7-3.5-7.7-7.8V135c0-4.3,3.5-7.8,7.7-7.8h18.1c4.2,0,7.7,3.5,7.7,7.8v18.4
		C203.6,157.6,200.1,161.2,195.9,161.2z"/>
	<path class="st0" d="M262.1,99.1H244c-4.2,0-7.7-3.5-7.7-7.8V72.9c0-4.3,3.5-7.8,7.7-7.8h18.1c4.2,0,7.7,3.5,7.7,7.8v18.4
		C269.8,95.6,266.3,99.1,262.1,99.1z"/>
	<path class="st0" d="M262.1,161.2H244c-4.2,0-7.7-3.5-7.7-7.8V135c0-4.3,3.5-7.8,7.7-7.8h18.1c4.2,0,7.7,3.5,7.7,7.8v18.4
		C269.8,157.6,266.3,161.2,262.1,161.2z"/>
</g>
</svg>
