<?xml version="1.0" encoding="utf-8"?>
<!-- Generator: Adobe Illustrator 23.0.1, SVG Export Plug-In . SVG Version: 6.00 Build 0)  -->
<svg version="1.1" id="Layer_1" xmlns="http://www.w3.org/2000/svg" xmlns:xlink="http://www.w3.org/1999/xlink" x="0px" y="0px"
	 viewBox="0 0 384 384" style="enable-background:new 0 0 384 384;" xml:space="preserve">
<style type="text/css">
	.st0{fill:none;stroke:#808080;stroke-width:10;stroke-miterlimit:10;}
	.st1{fill:#808080;}
</style>
<g>
	<path class="st0" d="M58,315.3c0-7.3,4.2-14.5,10.9-22.5l-39.1-24.7c-2.5-1.1-2.4-2.6-1-4.4l8.3-7.1c1.5-0.9,3.1-1.3,4.8-0.8
		l48.3,8.2l31.4-34.7l-93.9-63.6c-2.4-1.4-2.6-3-0.1-4.8l13.5-10.8l122.4,34.4l36.2-38.7c12.1-10.5,23.9-15.2,33-13
		c5,1.2,6.7,2.7,8.3,7.4c3,9.2-1.7,21.5-12.6,34.2l-38.6,36.1l34.4,122.4l-10.8,13.5c-1.8,2.4-3.4,2.2-4.8-0.1l-63.6-93.9L110.2,284
		l8.2,48.3c0.5,1.7,0.1,3.3-0.8,4.8l-7.1,8.3c-1.8,1.4-3.3,1.5-4.4-1l-24.7-39.1c-8,6.8-15.2,10.9-22.5,10.9
		C58.1,316.2,58,316,58,315.3L58,315.3L58,315.3z"/>
	<path class="st1" d="M76.7,93.9h48l-1.3,2.3c-11.8,20.2-18.7,40.6-20.5,60.5h10.3c2-20.4,9.8-41.3,23.2-62.1l0.4-0.7h55.8v29.5
		c3.5-1.3,7-2.3,10.3-2.9V93.9h55.8l0.4,0.7c13.7,21.3,21.5,42.6,23.3,63.5l0.1,1.6h-24.9c0.3,3.4,0.2,6.8-0.2,10.3h25.3l-0.1,1.6
		c-0.8,21.2-8,42.6-21.3,63.5l-0.4,0.7h-48.8l-4.8,4.5l1.7,5.9H254l-1.8,2.4c-8.9,11.6-19.8,23.4-32.5,34.9l3.1,11
		c17.7-15.7,32.3-31.7,43.3-47.7l0.4-0.6h45.9l-1.8,2.4c-4,5.5-8.5,10.7-13.4,15.6c-6.4,6.4-13.3,12.1-20.7,17
		c-7.4,5-15.5,9.3-24,13c-8.5,3.6-17.3,6.4-26.4,8.2c-0.3,0.1-0.7,0.1-1,0.2l2.8,9.9c0.1,0,0.2,0,0.2-0.1c9.8-2,19.3-4.9,28.4-8.8
		l0.3-0.1c8.9-3.8,17.4-8.5,25.4-13.8c7.9-5.3,15.4-11.5,22.2-18.3c6.7-6.6,12.8-14.1,18.3-22.2c5.3-8,10-16.6,13.9-25.7l0.1-0.4
		c3.8-9.1,6.8-18.5,8.7-28.1c1.9-9.7,2.9-19.9,2.9-30.2s-1-20.5-2.9-30.2c-2-9.8-4.9-19.3-8.8-28.4l-0.1-0.3
		c-3.8-8.9-8.5-17.4-13.8-25.4c-5.4-8.1-11.6-15.6-18.3-22.2c-6.8-6.8-14.2-13-22.2-18.3c-8-5.3-16.6-10-25.7-13.9
		c-0.2-0.1-0.3-0.1-0.5-0.2c-9-3.8-18.5-6.7-28-8.6c-9.7-1.9-19.9-2.9-30.2-2.9c-10.3,0-20.5,1-30.3,2.9c-9.8,2-19.3,4.9-28.4,8.8
		l-0.3,0.1c-8.9,3.8-17.4,8.5-25.4,13.8c-8,5.4-15.5,11.5-22.2,18.3C84.5,65,78.4,72.5,73,80.5c-5.3,8-10,16.6-13.9,25.7l0,0.1
		c0,0.1-0.1,0.3-0.2,0.4c-3.8,9-6.7,18.5-8.6,28c-0.7,3.6-1.3,7-1.7,10.3l10.1,2.8c0.5-3.8,1-7.5,1.8-11.2c1.8-9,4.5-17.8,8-26.1
		l0.1-0.2c0-0.1,0.1-0.2,0.1-0.2c2.3-5.4,4.9-10.6,7.7-15.5L76.7,93.9z M338,171.6c-0.3,7.4-1.2,14.6-2.6,21.5
		c-1.8,9-4.5,17.7-8,26.1l-0.1,0.2c0,0.1-0.1,0.2-0.1,0.2c-2.3,5.4-4.9,10.7-7.8,15.6l-0.5,0.9l-1-0.1c-0.4-0.1-0.8-0.1-1.1-0.1
		l-43.6,0l1.3-2.2c11.7-20.4,18-41.3,18.7-62.1l0.1-1.4h44.8L338,171.6z M319.4,94.7c2.7,4.7,5.3,9.8,7.8,15.6
		c3.6,8.5,6.4,17.4,8.2,26.4c1.4,7.1,2.3,14.3,2.6,21.5l0.1,1.6h-45l-0.1-1.4c-1.5-20.6-8.5-41.5-20.6-62.2l-1.3-2.3h48L319.4,94.7z
		 M215,25.6c3.7,0.4,7.5,1,11.1,1.8c9,1.8,17.8,4.5,26.1,8l0.2,0.1c0.1,0,0.2,0.1,0.2,0.1c8.4,3.6,16.5,8,24,13
		c7.5,5,14.4,10.7,20.7,17c4.9,4.9,9.4,10.1,13.5,15.6l1.8,2.4h-48.2l-0.4-0.6c-12.5-18-29.3-36.4-50-54.7l-3.6-3.2L215,25.6z
		 M203.1,32.4l2.5,2.2c17.8,15.5,32.7,31.2,44.3,46.6l1.8,2.4h-48.6V32.4z M192.7,32.4v51.1h-48.6l1.8-2.4
		c11.6-15.3,26.6-31,44.3-46.6L192.7,32.4z M85.1,81.2c4.1-5.5,8.6-10.7,13.4-15.6c6.4-6.4,13.3-12.1,20.7-17c7.4-5,15.5-9.3,24-13
		c8.5-3.6,17.4-6.4,26.4-8.2c3.7-0.7,7.4-1.3,11.1-1.8l4.8-0.6l-3.6,3.2c-20.6,18.3-37.5,36.7-50,54.7l-0.4,0.6H83.3L85.1,81.2z"/>
</g>
</svg>
