<?xml version="1.0" encoding="utf-8"?>
<!-- Generator: Adobe Illustrator 23.0.1, SVG Export Plug-In . SVG Version: 6.00 Build 0)  -->
<svg version="1.1" id="Layer_1" xmlns="http://www.w3.org/2000/svg" xmlns:xlink="http://www.w3.org/1999/xlink" x="0px" y="0px"
	 viewBox="0 0 384 384" style="enable-background:new 0 0 384 384;" xml:space="preserve">
<style type="text/css">
	.st0{fill:none;stroke:#808080;stroke-width:10;stroke-miterlimit:10;}
	.st1{fill:#808080;stroke:#808080;stroke-width:3;stroke-miterlimit:10;}
</style>
<line class="st0" x1="87.6" y1="339.4" x2="298.1" y2="339.4"/>
<line class="st0" x1="163.2" y1="357.2" x2="222.5" y2="357.2"/>
<path class="st0" d="M87.6,179.3V15.9c0-4.3,3.2-7.8,7.1-7.8H291c3.9,0,7.1,3.5,7.1,7.8v353.2c0,4.3-3.2,7.8-7.1,7.8H94.7
	c-3.9,0-7.1-3.5-7.1-7.8v-71.4"/>
<line class="st0" x1="87.6" y1="42.5" x2="298.1" y2="42.5"/>
<path class="st0" d="M229.1,30.3h-72.5c-3.9,0-7.1-3.5-7.1-7.8v-6.2c0-4.3,3.2-7.8,7.1-7.8h72.5c3.9,0,7.1,3.5,7.1,7.8v6.2
	C236.2,26.7,233,30.3,229.1,30.3z"/>
<g>
	<g>
		<path class="st1" d="M186.3,222.8h-9.5c-0.2,0-0.3-0.1-0.3-0.3c-1.6-7.1-4.3-13.8-8-20c-0.1-0.1-0.1-0.3,0.1-0.5l6.7-7
			c0.9-1,1.4-2.3,1.4-3.6c0-1.4-0.5-2.7-1.4-3.6l-14.4-15c-0.9-1-2.2-1.5-3.5-1.5s-2.6,0.5-3.5,1.5l-6.8,7c-0.1,0.1-0.3,0.1-0.4,0.1
			c-6-3.8-12.5-6.6-19.3-8.2c-0.1-0.1-0.3-0.2-0.3-0.3v-9.9c0-2.8-2.3-5.1-5-5.1h-20.5c-2.7,0-5,2.3-5,5.1v9.9
			c0,0.2-0.1,0.3-0.3,0.3c-6.8,1.7-13.3,4.5-19.3,8.2c-0.1,0.1-0.3,0.1-0.4-0.1l-6.7-7c-0.9-1-2.2-1.5-3.5-1.5
			c-1.3,0-2.6,0.5-3.5,1.5l-14.4,15c-0.9,1-1.4,2.3-1.4,3.6s0.5,2.7,1.4,3.6l6.8,7c0.1,0.1,0.1,0.3,0.1,0.5c-3.7,6.2-6.3,12.9-8,20
			c-0.1,0.1-0.2,0.3-0.3,0.3h-9.6c-2.7,0-5,2.3-5,5.1v21.2c0,2.8,2.3,5.1,5,5.1h9.5c0.2,0,0.3,0.1,0.3,0.3c1.6,7.1,4.3,13.8,8,20
			c0.1,0.1,0.1,0.3-0.1,0.5l-6.7,7c-0.9,1-1.4,2.3-1.4,3.6s0.5,2.7,1.4,3.6l14.5,15c0.9,1,2.2,1.5,3.5,1.5s2.6-0.6,3.5-1.5l6.7-7
			c0.1-0.1,0.3-0.1,0.4-0.1c6,3.8,12.5,6.6,19.3,8.2c0.1,0.1,0.3,0.2,0.3,0.3v9.9c0,2.8,2.3,5.1,5,5.1h20.5c2.7,0,5-2.3,5-5.1v-9.9
			c0-0.2,0.1-0.3,0.3-0.3c6.8-1.7,13.3-4.5,19.3-8.2c0.1-0.1,0.3-0.1,0.4,0.1l6.7,7c0.9,1,2.2,1.5,3.5,1.5s2.6-0.6,3.5-1.5l3.5-3.6
			c0.9-0.9,0.9-2.5,0-3.4c-0.9-0.9-2.4-0.9-3.3,0l-3.5,3.6c-0.1,0.1-0.2,0.1-0.2,0.1c-0.1,0-0.2,0-0.2-0.1l-6.8-7.1
			c-1.6-1.7-4.1-1.9-6.2-0.7c-5.6,3.6-11.6,6.1-18,7.7c-2.3,0.6-3.8,2.6-3.8,5v9.9c0,0.2-0.1,0.3-0.3,0.3h-20.5
			c-0.2,0-0.3-0.1-0.3-0.3v-9.9c0-2.4-1.6-4.5-3.8-5c-6.4-1.6-12.4-4.2-18-7.7c-2-1.2-4.5-0.9-6.2,0.7l-6.7,7
			c-0.1,0.1-0.2,0.1-0.2,0.1c-0.1,0-0.2,0-0.2-0.1l-14.5-15c-0.1-0.1-0.1-0.2-0.1-0.2s0-0.2,0.1-0.2l6.7-7c1.6-1.7,1.9-4.3,0.7-6.4
			c-3.5-5.8-5.9-12-7.5-18.6c-0.6-2.3-2.5-4-4.8-4h-9.5c-0.2,0-0.3-0.1-0.3-0.3v-21.2c0-0.2,0.1-0.3,0.3-0.3h9.5
			c2.3,0,4.3-1.6,4.8-4c1.5-6.6,4-12.8,7.5-18.6c1.2-2.1,0.9-4.7-0.7-6.4l-6.7-7c-0.1-0.1-0.1-0.2-0.1-0.2s0-0.2,0.1-0.2l14.4-14.9
			c0.1-0.1,0.2-0.1,0.2-0.1c0.1,0,0.2,0,0.2,0.1l6.8,7c1.6,1.7,4.1,1.9,6.2,0.7c5.6-3.6,11.6-6.1,18-7.7c2.3-0.6,3.8-2.6,3.8-5v-9.9
			c0-0.2,0.1-0.3,0.3-0.3h20.5c0.2,0,0.3,0.1,0.3,0.3v9.9c0,2.4,1.6,4.5,3.8,5c6.3,1.6,12.4,4.2,18,7.7c2,1.2,4.5,0.9,6.2-0.7l6.7-7
			c0.1-0.1,0.2-0.1,0.2-0.1c0.1,0,0.2,0,0.2,0.1l14.5,15c0.1,0.1,0.1,0.2,0.1,0.2c0,0.1,0,0.2-0.1,0.2l-6.7,7
			c-1.6,1.7-1.9,4.3-0.7,6.4c3.5,5.8,5.9,12,7.5,18.6c0.6,2.3,2.5,4,4.8,4h9.5c0.2,0,0.3,0.1,0.3,0.3v21.2c0,0.2-0.1,0.3-0.3,0.3
			h-9.5c-2.3,0-4.3,1.6-4.8,4c-1.5,6.6-4,12.8-7.5,18.6c-1.2,2.1-0.9,4.6,0.7,6.4l6.7,7c0.1,0.1,0.1,0.2,0.1,0.2s0,0.2-0.1,0.2
			l-3.5,3.6c-0.9,0.9-0.9,2.5,0,3.4c0.9,0.9,2.4,0.9,3.3,0l3.5-3.6c0.9-1,1.4-2.3,1.4-3.6s-0.5-2.7-1.4-3.6l-6.7-7
			c-0.1-0.1-0.1-0.3-0.1-0.5c3.7-6.2,6.3-12.9,8-20c0.1-0.1,0.2-0.3,0.3-0.3h9.5c2.7,0,5-2.3,5-5.1v-21.2
			C191.3,225.1,189.1,222.8,186.3,222.8L186.3,222.8z"/>
	</g>
</g>
<path class="st1" d="M65.2,228.8c-1.3-0.2-2.4,0.7-2.6,2c-0.4,2.5-0.6,5.1-0.6,7.6c0,28.5,22.4,51.5,49.8,51.5s49.8-23.1,49.8-51.5
	s-22.4-51.5-49.8-51.5c-10.2,0-20,3.2-28.3,9.1c-8.2,5.8-14.4,13.9-18,23.4l-0.1,0.3c-0.4,1.2,0.1,2.6,1.3,3.1
	c1.2,0.5,2.5-0.1,3-1.4l0.1-0.3c3.3-8.6,8.9-15.9,16.3-21.2c7.6-5.4,16.5-8.2,25.7-8.2c24.9,0,45.1,21,45.1,46.7
	s-20.3,46.7-45.1,46.7s-45.2-20.9-45.2-46.6c0-2.3,0.2-4.6,0.5-6.9C67.4,230.3,66.5,229.1,65.2,228.8L65.2,228.8z"/>
<path class="st1" d="M105.2,263.4c0.1,0,0.2,0,0.3,0c2.7-0.1,5.3-1.3,7.1-3.3l26-29.2c1.8-2.1,2.8-4.7,2.6-7.5s-1.3-5.3-3.2-7.2
	c-4.1-3.9-10.4-3.6-14.1,0.6l-19.1,21.4l-5.5-5.5c-4-4-10.4-3.8-14.1,0.3c-3.8,4.1-3.7,10.7,0.3,14.6l12.8,12.8
	C100.2,262.4,102.6,263.4,105.2,263.4L105.2,263.4z M88.5,236.4c1-1.1,2.4-1.7,3.8-1.7c1.4,0,2.7,0.5,3.7,1.6l7.2,7.1
	c0.4,0.5,1.1,0.7,1.7,0.7s1.2-0.3,1.6-0.8l20.7-23.1c2-2.3,5.4-2.4,7.6-0.3c1.1,1,1.6,2.4,1.8,3.8c0.1,1.5-0.4,2.9-1.4,4l-26,29.2
	c-1,1.1-2.4,1.8-3.8,1.8c-1.4,0.1-2.8-0.5-3.9-1.6l-12.8-12.8C86.6,242.1,86.5,238.6,88.5,236.4L88.5,236.4z"/>
<path class="st0" d="M261.7,149.5h-29.5H223l-3,12.5l-12.7-12.5h-33.7c-2.8,0-5.1-2.2-5.1-4.9V79.2c0-2.7,2.3-4.9,5.1-4.9h88.1
	c2.8,0,5.1,2.2,5.1,4.9v65.4C266.9,147.3,264.5,149.5,261.7,149.5z"/>
<line class="st0" x1="184.9" y1="93.2" x2="244.5" y2="93.2"/>
<line class="st0" x1="184.9" y1="107.8" x2="244.5" y2="107.8"/>
<line class="st0" x1="198.5" y1="127.3" x2="244.5" y2="127.3"/>
</svg>
