<svg id="Layer_1" data-name="Layer 1" xmlns="http://www.w3.org/2000/svg" viewBox="0 0 180 132"><defs><style>.cls-1{fill:#c31f44;}.cls-2{fill:#1a5632;}.cls-3,.cls-4{fill:#fff;}.cls-4{fill-rule:evenodd;}</style></defs><path class="cls-1" d="M176.18,56.24c-.86-3.57-5.23-13.66-5.8-14.8s1.17,0,1.77.74,2.23,5.06,2.94,6.14.86,1,1.12,1.06-.17,0-.32.74S176.18,56.24,176.18,56.24Z"/><path class="cls-1" d="M170.1,42.15a54,54,0,0,0-6.55-7.42c-1.17-1,1,.2,1.69.77a18.35,18.35,0,0,1,3.66,3.83A13.32,13.32,0,0,1,170.1,42.15Z"/><path class="cls-1" d="M169.9,39.53a51.22,51.22,0,0,0-7.55-8.34c-.31-.23,1.2,1.51,1.72,2.68s-1.57-2.28-5-5.37a71.61,71.61,0,0,0-8-6.14c-.83-.51-.25-.4.55.09s-.23-1.09-1.26-2-1.69-.46-3.31-1.12a43,43,0,0,1-5-2.48c-.62-.43,2.92-.12,5.6,1.17a27.89,27.89,0,0,1,5.8,3.65c.43.49-.66.86-1,.86s1.89,1.83,2.66,2.43,1.85,1.05,1-.14,1-.89,1.6-.63c-.34.2-.9.68,3.91,3.85a3.82,3.82,0,0,1,1.69,2.14,26.06,26.06,0,0,0-4.06-3.05c-.74-.46-.06.37.86,1.23s2.31,1.74,4,3.51A11.33,11.33,0,0,1,166,34.47c.46.49,1,.26.09-1s.57.52,1.28,1.43S170.1,38,169.9,39.53Z"/><path class="cls-1" d="M137.16,13.51a6.18,6.18,0,0,1,4.17.62,14.62,14.62,0,0,0,2.4,1.12,6.22,6.22,0,0,1,1.92,1.14c.57.51-.78-.43-2.15-.88a11.11,11.11,0,0,0-3.68-.2c-.69,0,1.11-.19.88-.49C139.85,13.65,136.56,13.65,137.16,13.51Z"/><path class="cls-1" d="M103.37,3.77c3.14.42,8.14,1.4,8.86,1.54s-.66-.32-1.2-.52a29.43,29.43,0,0,1,5,.78c1.63.4,3.72,1.51,4.63,1.77s-2.8-.58-4.4-1,1.23.77,1.57.83-3.51-1-4.19-1.2-2.15,0-3.4-.09-3.72-.48-4.66-.63-1-.43,0-.43S103.37,3.77,103.37,3.77Z"/><path class="cls-1" d="M135.25,12.82a32.32,32.32,0,0,0-6-1.43c-.91-.14-1.71-.6-2.77-.83s1.29.63,2,1,2,.72,4.17,1.4,3,.89,4.06,1.32S136.88,13.42,135.25,12.82Z"/><path class="cls-1" d="M35,15.09a29.92,29.92,0,0,0-6.71,3.61,23,23,0,0,0-3.14,2.81c-.33.33,5.86-3.47,8.44-5S35,15.09,35,15.09Z"/><path class="cls-1" d="M176.71,52.22l0,0C176.7,52.16,176.68,52.15,176.71,52.22Z"/><path class="cls-1" d="M179.63,62a34.73,34.73,0,0,0-2.9-9.76,17.46,17.46,0,0,1,.72,6.31c-.14,4.67-.25,3.5,0,4.9s.24-1.85.54-3.15,1,.41,1.06.91a10.36,10.36,0,0,1,0,2.89c-.26.56-.31,1.31-.46.22s-.31-1.49-.6-.49a25.79,25.79,0,0,0-.54,3.91c-.06.87.44-1.29.77-1.94s0,.55-.06,1.47a28.45,28.45,0,0,0,.43,3.24,5.93,5.93,0,0,1-.18,2.83c-.32,1-.22-1.5-.53-3.28,0,1-.92,7.55-1.3,9.1a60.47,60.47,0,0,1-3.84,10c-.28.52.31-1.79-.07-1.57s-1.44,4.15-4.11,6,3.15-4.2,4.55-12.87c.1-.65.19,4.67,1.7-7.52.19,1.65-.06,7-.05,7.21.25,4.81,4.1-14-.34-23.35-.41-.87-.18,1.09-.37,1.25s-.81-2.71-1.53-4.44c-.21-.5,1.86,2.66.76-1s-3.18-6.09-4.72-8.28-1.5-3.51,0-2c.4.29-2.28-4.69-11-12.08-.7-.31.8.11-.09-1.07a36.27,36.27,0,0,0-7.94-6.54c-.44-.16,1.62.82,1.24,1.45s-5.7-3-6.8-3.84,3.27,1.15,4.15,2.21.16-.52-1.44-1.8a13.17,13.17,0,0,0-6.59-2.51c-1.43-.75-2.72-1.38-3.52-1.78s2.6.08,3.61.89.23-.62-1.75-1.49-5.73-2-5.69-1.16c-2.23-.92-5.8-2.29-6.62-2.56s2.1.1-1.66-.94-12.86-3-14.34-3.2,1.73,0,.25-.44a16.51,16.51,0,0,0-3.35-.5,32.26,32.26,0,0,1,5.66.49c2.09.49,2,.21,1.41-.18s2.64.57,4,1.25a10.62,10.62,0,0,0,4.3.65c1.33.07-1.67-.17-3.11-.66s-3.56-1.75-5.08-2-2.4.13-1.91.26-2.72-.58-5.82-1a28.58,28.58,0,0,1-5.93-1.2c-1.39-.51-.52-.13-.4.27s-.31,1.13,1.33,1.34,2.89,0,2.34-.33.88.18,1.3.78-1.16-.25-1.68.16c-1.62.27-6.42-.44-8.47-.5S89,5.17,86.92,5s.59-.45,2.65-.25a22.89,22.89,0,0,1,4.11.85c1.26.28-.18-.56-1.43-.85S87.1,4.28,85.85,4s-2.16-.45-2.16-.15,1.6.45.44.7-3.51-.78-4.42-.86a2.43,2.43,0,0,0-2.15,1.08c-1-1.09-4.58-1-6.46-.26s-8,1.36-10,1.53-2.7-.3-5.66,0-1,.57-.21.86S53,7.7,50.43,8.52,41.37,12,40.23,12.6s.49,0,1.42,0S33.36,16.74,30.2,19c-.79.57,1,.14,2.15,0S22.06,21.35,11.58,35.56,1.43,55.15,1.26,56.12s-.23-3,0-4.22S.49,51.73.07,57s.78,12.14,6.17,9.46c0,4.73,1.17,14.9,5.79,21.82.45.68-.95-.58.18,1.37a91.59,91.59,0,0,0,6.8,10C14.06,94.93,9.36,86,8,82.55s-1.22,1.12-.89,1.94c-1.65-4.31-3.3-8.32-3.31-14.18,0,0-1.13,2.82-.56,8.21A52.31,52.31,0,0,1,2,66.89c-1.42,9.88.68,21.91,9.55,33.56.82,1.08,2.28,1.66.61-.48a10.71,10.71,0,0,1-2.12-4.08,24.41,24.41,0,0,0,3.94,5.2c1.15,1.18.51,0,.17-.66.45.69,1.9,2.47,5.68,4,4.28,5,12.5,13.06,41.05,23.25,3.11,1.16-.37-1.36-.66-1.56,2.45,1.19,1.77.91,5.84,2.21-1-.67.34-.09-.06-.33a58.53,58.53,0,0,0,11.48,2.79c.31,0-1.79-.68-2.31-1,3.22.61,11.71,1.44,13.59,1.53s1.75-.78,1.43-1A209.35,209.35,0,0,0,115.77,129c2.15-.28,3.59-.4,4.18-.46s-.12-.22-1-.48,1.25-.37,2.35-.72,28.47-6.79,42.81-22.76c.64-.71-1.18.58-1.56.88S183,89.07,179.63,62ZM71.58,5.53a11.85,11.85,0,0,1,2.79-.34c1.34-.05,2.78.54,3.38.34A5,5,0,0,1,79.49,5a24.3,24.3,0,0,1,4.77,0s-4.77.44-5.87.69a15.37,15.37,0,0,1-4-.1C73,5.53,71.08,5.68,71.58,5.53Zm10.69.2a26.64,26.64,0,0,1-4.72,1.15c-2.14.24-3.93-.2-2.89-.3A21.41,21.41,0,0,0,78,6.38,21.6,21.6,0,0,1,82.27,5.73ZM49,10.56C55.57,7.78,61.73,7.47,64.17,7s6.12-.65,4.33-.35-4.88,1.09-2.44.89,6,.15,4.18.1a28.08,28.08,0,0,0-7.66,1.1c-1.69.64-.15,1.19-.7,1.34s-2.14.55-3,.89c.5-.79,1.89-1.29,2.09-1.54s.1-1.24-1.74-1.19A9.58,9.58,0,0,0,55.32,9,22,22,0,0,1,49.4,11.4C45.72,12.3,47.41,11.2,49,10.56Zm18-2.09s-4.78,1.44-4,.94A9.49,9.49,0,0,1,66.91,8.47ZM56,11.65C45.14,15.36,39.11,18.21,30.7,24.23c4.93-5.35,19-10.79,17.86-10.54s-2.94.6-1-.2A51.63,51.63,0,0,1,55,11C56.66,10.61,57.71,11.05,56,11.65ZM85.69,129.56a29.25,29.25,0,0,1-7.86-1.11,70.32,70.32,0,0,0,8.37.83C87.41,129.31,87.79,129.56,85.69,129.56Zm.19-2c-3.55-.15-6.71-.63-7.48-.72s2,1.33.83,1.11-5.36-.64-7-1,.76-.44,1.93-.44c-2.85-.42-7.57-1.68-8.21-1.81s2,1.08-1.27.22a44.51,44.51,0,0,1-6.53-2.4c3.17,1,5.6,1.53,6.56,1.86s-.47-.35-1-.6a23.9,23.9,0,0,0,5.6,1.43,154.93,154.93,0,0,0,20.9,2.25C90.89,127.44,89.43,127.72,85.88,127.56Z"/><path class="cls-2" d="M161.22,67c0,27.26-32.31,49.36-72.17,49.36S16.85,94.27,16.85,67s32.33-49.37,72.2-49.37S161.22,39.75,161.22,67Z"/><path class="cls-2" d="M72.38,33.05a26.13,26.13,0,0,1-1.64-3.59c-1.26-3.43-2.25-8.4,1.37-10.71,5.83-3.7,24.72-8,26.66-10.61l1.93-2.62-1.58,10s6.08,1.92,9,1.13,8.42-4.06,8.42-4.06-2.07,10.41-5,13.59S72.38,33.05,72.38,33.05Z"/><path class="cls-3" d="M54.1,78.68v6.68h3.09a49.7,49.7,0,0,0,5.65-.26l.17.2c-.1,2.16-1.2,3-3.06,3H54.1v7.49h4.39a49,49,0,0,0,5.65-.27l.13.17c-.09,2.19-1.16,3.29-3,3.29H49.64V75.55h13.5v3.13Z"/><path class="cls-3" d="M68.45,84.93,68,81.8A19.48,19.48,0,0,1,73.2,81c4.36,0,7.35,1.66,7.35,6.42v7.85c0,1,.33,1.59,1.2,1.59a1.35,1.35,0,0,0,.76-.2l.14.14a2.7,2.7,0,0,1-2.93,2.46,2.92,2.92,0,0,1-3.09-2.76h-.1c-1.63,1.73-3.19,3-5.42,3-2.89,0-4.59-2.19-4.59-5,0-3.23,2.26-5.39,7.21-5.39a19.15,19.15,0,0,1,2.73.17V87.46c0-2.4-1.4-3.39-3.72-3.39A10.64,10.64,0,0,0,68.45,84.93Zm8,6.75a17,17,0,0,0-2.46-.2c-2.66,0-3.62,1.07-3.62,2.53a2.07,2.07,0,0,0,2.19,2.19c1.56,0,2.69-1,3.89-2.19Z"/><path class="cls-3" d="M95.44,85a3.56,3.56,0,0,0-1.36-.23c-1.76,0-3.19,1.6-4.53,3.09V99H85.46V84.93c0-.7-.23-1.46-1.06-1.46a1.27,1.27,0,0,0-.73.2l-.17-.14a2.91,2.91,0,0,1,5.79.6V85h.1c1.5-2.12,2.89-4.15,5.48-4.15a3.44,3.44,0,0,1,.84.1Z"/><path class="cls-3" d="M103.75,93.78a2.76,2.76,0,0,0,3.06,3,3.68,3.68,0,0,0,2.33-.73l.2.13a4.09,4.09,0,0,1,.07.6c0,2.06-2.3,2.76-4.06,2.76-4,0-5.72-2.49-5.72-6.18V84.17H97.3l-.13-.2c.16-1.2.93-1.8,2.06-2.63l4.19-3.06h.3v3.06h5v2.83h-5Z"/><path class="cls-3" d="M125.76,99.3c-2,0-3.06-1.47-3.06-3.6v-9c0-1.5-.86-2.17-1.89-2.17-1.93,0-3.63,1.93-4.79,3.16V99h-4.09V74.09H116V84.8h0c1.9-2.13,4-4,6.75-4a4.08,4.08,0,0,1,2.66,1c1.2,1,1.33,2.6,1.33,4.09v9.55c0,.83.27,1.49,1.07,1.49a1.29,1.29,0,0,0,.73-.2l.13.14A2.73,2.73,0,0,1,125.76,99.3Z"/><path class="cls-3" d="M72.79,70.21c-5.66,0-8.28-4.62-8.28-9.78,0-5.38,3.29-9.11,8.71-9.11S81.4,55,81.4,60.13C81.4,65.52,78.47,70.21,72.79,70.21Zm.1-16.13c-3.3,0-4.09,3.33-4.09,6s.69,7.42,4.28,7.42c3.13,0,4.1-3.79,4.1-6.65C77.18,58.11,76.41,54.08,72.89,54.08Z"/><path class="cls-3" d="M89.21,64.32a2.76,2.76,0,0,0,3.06,3,3.68,3.68,0,0,0,2.33-.73l.2.13a4.09,4.09,0,0,1,.07.6c0,2.06-2.3,2.76-4.06,2.76-4,0-5.72-2.49-5.72-6.18V54.71H82.76l-.13-.2c.16-1.19.93-1.79,2.06-2.62l4.19-3.06h.3v3.06h5v2.82h-5Z"/><path class="cls-3" d="M111.17,69.84c-2,0-3.06-1.46-3.06-3.59v-9c0-1.49-.86-2.16-1.89-2.16-1.93,0-3.63,1.93-4.79,3.16V69.58H97.34V44.64h4.09v10.7h0c1.9-2.12,4-4,6.75-4a4.08,4.08,0,0,1,2.66,1c1.2,1,1.33,2.59,1.33,4.09V66c0,.84.27,1.5,1.07,1.5a1.38,1.38,0,0,0,.73-.2l.13.13A2.72,2.72,0,0,1,111.17,69.84Z"/><path class="cls-3" d="M130.61,59.3,119.3,61c.34,3.53,2.6,6.15,6.62,6.15a6.14,6.14,0,0,0,3.86-1.09l.2.13a3.2,3.2,0,0,1,0,.53c0,2.76-2.83,3.36-5,3.36a9.2,9.2,0,0,1-9.64-9.64c0-5.13,3.09-9.11,8.41-9.11,4.09,0,6.89,2.69,6.89,6.75A7,7,0,0,1,130.61,59.3Zm-7.25-5.48c-2.83,0-3.86,2.09-4.06,4.78l7.49-1.19A3.31,3.31,0,0,0,123.36,53.82Z"/><path class="cls-3" d="M144.58,55.51a3.43,3.43,0,0,0-1.37-.23c-1.76,0-3.19,1.59-4.52,3.09V69.58H134.6V55.48c0-.7-.23-1.46-1.06-1.46a1.3,1.3,0,0,0-.74.2l-.16-.14a2.91,2.91,0,0,1,5.78.6v.83h.1c1.5-2.13,2.9-4.15,5.49-4.15a3.84,3.84,0,0,1,.83.09Z"/><path class="cls-3" d="M59.77,48.72A1.9,1.9,0,0,0,58,47.29H55.15l0,.14a1,1,0,0,1,.11,1.09s-2,5.88-3.38,9.87c-1,2.94-1.77,4.8-1.77,4.8s-1-2.38-1.92-4.8c-1.23-3.34-3.54-9.56-3.54-9.56a2.2,2.2,0,0,0-1.74-1.53H39.78l-.06.16a1.79,1.79,0,0,1,.34,1.33L36.9,68.12h0l0,.29c0,.39.08,1.07,1.23,1.07h2.49l1.79-11.72a40.67,40.67,0,0,0,.48-4.24,35.67,35.67,0,0,0,1.2,4.6l3.54,10.43a1.47,1.47,0,0,0,1.57.93h2.28l4.11-12.11c.68-2.23,1.14-3.9,1.14-3.9s.14,1.25.51,5.17l1.47,9.48h0v0l.06.44a1.16,1.16,0,0,0,1.22.89h3.15Z"/><path class="cls-3" d="M19.1,69C19.1,48,37,29.83,63,21.15c.75-.28,1.7-.55,2.46-.81-28.38,6.61-49,24.88-49,46.4a35.49,35.49,0,0,0,5.6,18.79,39.9,39.9,0,0,1-2.8-13.26C19.17,71.19,19.1,70.1,19.1,69Z"/><path class="cls-3" d="M161.17,65.15C159,92.93,125.91,115,85.38,115A105.36,105.36,0,0,1,55,110.57a95.91,95.91,0,0,0,35.22,6.55c39.24,0,71.06-22.1,71.06-49.36C161.29,66.88,161.24,66,161.17,65.15Z"/><path class="cls-4" d="M75.08,31C85.49,3.38,105.59,23.6,118.65,9.93c-2.8,29.54-27.71,40.12-41.94,24C90,46,112.41,36.33,115,15c-8.27,7.32-29.2-3.49-35.75,12.52,7.49-5,17.59-6,25.93-3.46-12-.37-26.57,4.21-34.68,14a23,23,0,0,1,4.56-7Z"/><path class="cls-4" d="M102.06.59C94.88,14.91,75.75,7.48,69,22.78c-2.24,5.41.06,11.71.06,11.71a40.78,40.78,0,0,1,.36-5.88C71.5,12.3,91.45,15.47,98.77,8.14,97.83,13.53,96,15.6,96,15.6l3.1-.09C102.94,9.33,102.06.59,102.06.59Z"/><path class="cls-3" d="M130.93,81.2v.64h-.77v2.72h-.72V81.84h-.75V81.2Z"/><path class="cls-3" d="M132.3,81.2l.8,2.5.85-2.5h.7l.48,3.36h-.74l-.24-2.08-.71,2.08h-.68l-.69-2.07-.25,2.07h-.72l.48-3.36Z"/></svg>