<?xml version="1.0" encoding="utf-8"?>
<!DOCTYPE svg PUBLIC "-//W3C//DTD SVG 20010904//EN" "http://www.w3.org/TR/2001/REC-SVG-20010904/DTD/svg10.dtd">
<svg version="1.0" xmlns="http://www.w3.org/2000/svg" width="169px" height="62px" viewBox="0 0 169 62" preserveAspectRatio="xMidYMid meet">
 <g fill="#2eb3e6">
  <path d="M123.75 50.45 c-2.45 -0.70 -5.05 -3.80 -6.05 -7.20 -1.15 -3.90 -1.15 -12.10 0 -15.15 1.75 -4.80 4.80 -7.05 9.55 -7.10 4.70 0 8.35 2.80 9.80 7.45 0.85 2.80 1.10 9.50 0.50 12.80 -1.40 7.55 -6.95 11.20 -13.80 9.20z m5.70 -4.95 c1.70 -0.90 2.55 -4.15 2.55 -9.80 0 -6.40 -0.70 -8.40 -3.25 -9.50 -2.60 -1.05 -4.50 0.15 -5.50 3.50 -1.40 4.70 -0.65 13.15 1.35 15.30 1 1.05 3.35 1.30 4.85 0.50z"/>
  <path d="M93.75 50 c-0.45 -0.70 0.50 -3.75 1.90 -6.15 0.85 -1.40 2.70 -3.15 5.45 -5.10 5.75 -4.05 7.35 -5.65 7.70 -7.65 0.55 -2.85 -1.45 -5.10 -4.45 -5.10 -1.75 0 -3.80 2.25 -4.15 4.55 l-0.35 2 -2.80 -0.15 c-2.80 -0.15 -2.80 -0.15 -2.65 -1.65 0.40 -4.10 2.35 -7.10 5.75 -8.85 2.65 -1.35 7.70 -1.05 10.45 0.55 3.45 2.10 4.90 6.15 3.65 10.35 -0.85 2.90 -2.20 4.30 -8.10 8.45 -2.40 1.65 -4.40 3.30 -4.55 3.65 -0.15 0.45 1.40 0.60 6.60 0.60 l6.80 0 0 2.50 0 2.50 -10.45 0 c-6.35 0 -10.60 -0.20 -10.80 -0.50z"/>
  <path d="M36.75 39.75 c-1 -1.60 -1.70 -3.15 -1.55 -3.50 0.35 -0.95 5.50 -2.75 7.75 -2.75 2.40 0 6.65 1.25 8.05 2.40 l1.10 0.90 -1.65 2.75 c-0.90 1.45 -1.65 2.75 -1.70 2.80 -0.05 0.10 -0.95 -0.35 -2.05 -0.90 -2.30 -1.20 -5.70 -1.05 -7.20 0.30 -0.90 0.80 -1 0.70 -2.75 -2z"/>
  <path d="M30.25 29.95 c-0.70 -1.40 -1.20 -2.85 -1.05 -3.20 0.40 -1.10 7.30 -4.15 10.75 -4.75 3.60 -0.65 6.95 -0.30 11 1.05 2.90 1 7.05 3.25 7.05 3.85 0 0.90 -2.85 5.60 -3.35 5.60 -0.35 0 -0.65 -0.20 -0.65 -0.45 0 -0.20 -1.65 -1.15 -3.60 -2.05 -5.90 -2.70 -11.10 -2.30 -16.30 1.25 -1 0.70 -2 1.25 -2.15 1.25 -0.20 0 -0.95 -1.15 -1.70 -2.55z"/>
  <path d="M25 19.90 c-0.80 -1.45 -1.50 -2.75 -1.50 -2.90 0 -0.60 7.05 -4.20 10.50 -5.40 3.15 -1.10 4.65 -1.30 9.50 -1.30 6.45 -0.05 10.20 0.90 15.75 4 4.75 2.65 4.50 2.30 3.25 4.75 -1.85 3.60 -1.80 3.60 -4.65 1.70 -8.20 -5.35 -20.05 -5.35 -28 0 -1.45 0.95 -2.75 1.75 -2.95 1.75 -0.20 0 -1.05 -1.20 -1.90 -2.60z"/>
 </g>
 <g fill="#373939">
  <path d="M77.15 50.55 c-2.25 -0.60 -3.85 -1.70 -5.50 -3.90 -1.20 -1.60 -1.40 -2.35 -1.55 -5.85 -0.15 -3.65 0 -4.35 1.25 -6.80 2.15 -4.25 6.60 -6.20 11.20 -5 4.10 1.10 6.45 4.80 6.45 10.15 l0 2.35 -7 0 c-7.95 0 -8.20 0.20 -5.35 3.30 1.40 1.55 1.90 1.75 4.10 1.80 1.40 0.05 3.70 -0.10 5.15 -0.30 l2.60 -0.40 0 1.75 c0 0.95 -0.30 2 -0.65 2.30 -0.85 0.70 -8.60 1.15 -10.70 0.60z m6.35 -14.20 c0 -1.55 -1.25 -3.20 -2.75 -3.55 -2.25 -0.55 -5.25 1.65 -5.25 3.90 0 0.65 0.70 0.80 4 0.80 3.85 0 4 -0.05 4 -1.15z"/>
  <path d="M27.20 50.10 c-0.60 -0.40 -10.85 -19.40 -15.50 -28.75 -2.80 -5.60 -2.90 -5.95 -2.20 -7.20 0.95 -1.65 2.50 -2.25 4.05 -1.45 1.15 0.55 3.15 4.10 10.55 18.50 1.70 3.30 3.65 6.95 4.30 8.20 l1.25 2.20 2.15 -2.10 2.10 -2.15 1.60 3.15 1.60 3.15 -3.40 3.40 c-3.35 3.40 -4.90 4.10 -6.50 3.05z"/>
  <path d="M53.30 47.15 l-3.45 -3.30 1.55 -3.15 c0.90 -1.75 1.75 -3.20 1.95 -3.20 0.25 0.05 1.10 0.90 1.90 2 0.85 1.05 1.70 1.90 1.90 1.85 0.25 -0.10 3.65 -6.25 7.60 -13.75 3.90 -7.50 7.40 -13.95 7.75 -14.35 1.50 -1.80 5.50 -0.30 5.50 2 0 1.45 -15.90 32 -17.90 34.40 -1.40 1.65 -3.15 1 -6.80 -2.50z"/>
  <path d="M139.75 50 c-0.40 -0.60 0.20 -2.85 1.30 -5 1.05 -2.15 3.65 -4.60 8.05 -7.70 1.85 -1.30 3.95 -3.05 4.65 -3.85 2.60 -3.15 0.85 -7.45 -3 -7.45 -2.35 0 -4.10 1.75 -4.55 4.50 l-0.35 2.05 -2.80 -0.15 -2.80 -0.15 0.15 -1.75 c0.40 -3.85 2.85 -7.50 5.95 -8.80 2.30 -1 7 -0.85 9.50 0.25 4.70 2.15 6.40 8.55 3.45 13.05 -0.75 1.15 -2.40 2.80 -3.65 3.65 -4.80 3.35 -8.15 5.95 -8.15 6.40 0 0.25 3 0.45 6.75 0.45 l6.75 0 0 2.50 0 2.50 -10.45 0 c-6.10 0 -10.60 -0.20 -10.80 -0.50z"/>
 </g>
</svg>