<?xml version="1.0" encoding="utf-8"?>
<!-- Generator: Adobe Illustrator 25.2.0, SVG Export Plug-In . SVG Version: 6.00 Build 0)  -->
<svg version="1.1" id="Layer_1" xmlns="http://www.w3.org/2000/svg" xmlns:xlink="http://www.w3.org/1999/xlink" x="0px" y="0px"
	 viewBox="0 0 282.1 157" style="enable-background:new 0 0 282.1 157;" xml:space="preserve">
<style type="text/css">
	.st0{fill-rule:evenodd;clip-rule:evenodd;fill:#ED1C24;}
	.st1{clip-path:url(#SVGID_2_);}
	.st2{clip-path:url(#SVGID_4_);}
	.st3{fill:#ED1C24;}
	.st4{fill:none;stroke:#ED1C24;stroke-width:0.345;stroke-miterlimit:10;}
	.st5{fill:#FFFFFF;}
</style>
<g id="surface1">
	<g>
		<path class="st0" d="M11.5,141.8c0,1.5,0.3,2.8,1,3.9c0.8,1.3,1.9,1.9,3.3,1.9s2.6-0.6,3.4-1.9c0.6-1.1,0.9-2.4,0.9-3.9
			s-0.3-2.8-0.9-3.9c-0.8-1.3-1.9-1.9-3.4-1.9s-2.6,0.6-3.3,1.9C11.8,139,11.5,140.3,11.5,141.8 M9.2,148.5v-20.2
			c0-0.9,0.4-1.4,1.3-1.4s1.3,0.5,1.3,1.4v7.7h0.1c1-1.4,2.4-2.1,4.2-2.1c2,0,3.7,0.8,5,2.4c1.2,1.5,1.7,3.4,1.7,5.6
			c0,2.2-0.6,4.1-1.7,5.6c-1.3,1.6-2.9,2.4-5,2.4c-2.1,0-3.4-0.7-4.2-2.2h-0.1v0.8c0,0.9-0.4,1.4-1.3,1.4S9.2,149.4,9.2,148.5"/>
		<path class="st0" d="M36.9,142.8h-9.8c0,1.4,0.4,2.5,1.2,3.4c0.8,0.9,2,1.4,3.4,1.4c1,0,1.9-0.2,2.7-0.6c0.4-0.2,1-0.5,1.6-1
			c0.5-0.4,0.8-0.6,1-0.6c0.6,0,0.9,0.4,0.9,1.2c0,0.7-0.7,1.4-2,2.1c-1.4,0.7-2.8,1.1-4.3,1.1c-2.4,0-4.2-0.8-5.5-2.4
			c-1.1-1.5-1.7-3.3-1.7-5.6c0-2.2,0.6-4.1,1.9-5.6c1.3-1.6,3-2.4,5.2-2.4c2,0,3.7,0.8,5,2.4c1.2,1.5,1.8,3.2,1.8,5.3
			C38.4,142.4,37.9,142.8,36.9,142.8 M27.1,140.9h8.6c0-1.3-0.3-2.3-1-3.2c-0.8-1-1.8-1.6-3.2-1.6c-1.5,0-2.6,0.5-3.4,1.5
			C27.5,138.4,27.2,139.5,27.1,140.9"/>
		<path class="st0" d="M41.7,134v-3.4c0-0.9,0.4-1.4,1.3-1.4c0.9,0,1.3,0.5,1.3,1.4v3.4h1.1c0.9,0,1.3,0.4,1.3,1.1
			c0,0.7-0.4,1.1-1.3,1.1h-1.1v12.3c0,0.9-0.4,1.4-1.3,1.4c-0.9,0-1.3-0.5-1.3-1.4v-12.3h-1.1c-0.9,0-1.3-0.4-1.3-1.1
			c0-0.8,0.4-1.1,1.3-1.1"/>
		<path class="st0" d="M49.4,134v-3.4c0-0.9,0.4-1.4,1.3-1.4s1.3,0.5,1.3,1.4v3.4H53c0.9,0,1.3,0.4,1.3,1.1c0,0.7-0.4,1.1-1.3,1.1
			H52v12.3c0,0.9-0.4,1.4-1.3,1.4s-1.3-0.5-1.3-1.4v-12.3h-1.1c-0.9,0-1.3-0.4-1.3-1.1c0-0.8,0.4-1.1,1.3-1.1"/>
		<path class="st0" d="M67.6,142.8h-9.8c0,1.4,0.4,2.5,1.2,3.4c0.8,0.9,2,1.4,3.4,1.4c1,0,1.9-0.2,2.7-0.6c0.4-0.2,1-0.5,1.6-1
			c0.5-0.4,0.8-0.6,1-0.6c0.6,0,0.9,0.4,0.9,1.2c0,0.7-0.7,1.4-2,2.1c-1.4,0.7-2.8,1.1-4.3,1.1c-2.4,0-4.2-0.8-5.5-2.4
			c-1.1-1.5-1.7-3.3-1.7-5.6c0-2.2,0.6-4.1,1.9-5.6c1.3-1.6,3-2.4,5.2-2.4c2,0,3.7,0.8,5,2.4c1.2,1.5,1.8,3.2,1.8,5.3
			C69.1,142.4,68.6,142.8,67.6,142.8 M57.9,140.9h8.6c0-1.3-0.3-2.3-1-3.2c-0.8-1-1.8-1.6-3.2-1.6c-1.5,0-2.6,0.5-3.4,1.5
			C58.3,138.4,57.9,139.5,57.9,140.9"/>
		<path class="st0" d="M71.6,148.5v-13.3c0-0.9,0.4-1.4,1.3-1.4c0.9,0,1.3,0.5,1.3,1.4v1.3h0.1c0.3-0.7,0.8-1.3,1.4-1.8
			c0.7-0.6,1.4-0.9,2.1-0.9c1,0,1.4,0.4,1.4,1.3c0,0.8-0.5,1.2-1.6,1.4c-0.9,0.2-1.7,0.6-2.3,1.2c-0.8,0.8-1.2,1.9-1.2,3.3v7.5
			c0,0.9-0.4,1.4-1.3,1.4C72,149.9,71.6,149.4,71.6,148.5"/>
		<path class="st0" d="M91.1,148.5l-4.3-12.6c-0.1-0.4-0.2-0.7-0.2-1c0-0.8,0.4-1.2,1.2-1.2c0.7,0,1.2,0.4,1.4,1.3l3.3,10.7h0.1
			l3.3-10.3c0.2-0.6,0.4-1.1,0.6-1.3c0.2-0.3,0.5-0.4,1-0.4s0.8,0.1,1,0.4c0.2,0.2,0.4,0.6,0.6,1.3l3.3,10.3h0.1l3.3-10.7
			c0.3-0.9,0.8-1.3,1.4-1.3c0.8,0,1.2,0.4,1.2,1.2c0,0.3-0.1,0.6-0.2,1l-4.3,12.6c-0.3,0.9-0.8,1.4-1.5,1.4c-0.7,0-1.2-0.5-1.5-1.4
			l-3.4-10.6h-0.1l-3.4,10.6c-0.3,0.9-0.8,1.4-1.5,1.4C91.9,149.9,91.4,149.4,91.1,148.5"/>
		<path class="st0" d="M109.5,141.8c0-2.2,0.6-4.1,1.8-5.6c1.3-1.6,3-2.4,5.1-2.4c2.1,0,3.8,0.8,5.1,2.4c1.2,1.5,1.8,3.4,1.8,5.6
			c0,2.2-0.6,4.1-1.8,5.6c-1.3,1.6-3,2.4-5.1,2.4c-2.1,0-3.8-0.8-5.1-2.4C110.1,145.9,109.5,144,109.5,141.8 M112.1,141.8
			c0,1.5,0.3,2.8,1,3.9c0.8,1.3,1.9,1.9,3.3,1.9s2.6-0.6,3.4-1.9c0.6-1.1,0.9-2.4,0.9-3.9s-0.3-2.8-0.9-3.9
			c-0.8-1.3-1.9-1.9-3.4-1.9s-2.6,0.6-3.3,1.9C112.4,139,112.1,140.3,112.1,141.8"/>
		<path class="st0" d="M126.1,148.5v-13.3c0-0.9,0.4-1.4,1.3-1.4s1.3,0.5,1.3,1.4v1.3h0.1c0.3-0.7,0.8-1.3,1.4-1.8
			c0.7-0.6,1.4-0.9,2.1-0.9c1,0,1.4,0.4,1.4,1.3c0,0.8-0.5,1.2-1.6,1.4c-0.9,0.2-1.7,0.6-2.3,1.2c-0.8,0.8-1.2,1.9-1.2,3.3v7.5
			c0,0.9-0.4,1.4-1.3,1.4S126.1,149.4,126.1,148.5"/>
		<path class="st0" d="M135.4,148.5v-20.2c0-0.9,0.4-1.4,1.3-1.4s1.3,0.5,1.3,1.4v11.1l5.7-4.8c0.6-0.5,1.1-0.8,1.5-0.8
			c0.7,0,1.1,0.4,1.1,1.2c0,0.4-0.2,0.8-0.6,1.1l-5.9,4.7l6.9,6.8c0.4,0.4,0.6,0.9,0.6,1.3c0,0.3-0.1,0.5-0.3,0.7
			c-0.2,0.2-0.5,0.3-0.8,0.3c-0.5,0-1-0.3-1.5-0.8l-6.6-6.9v6.3c0,0.9-0.4,1.4-1.3,1.4S135.4,149.4,135.4,148.5"/>
		<g>
			<defs>
				<rect id="SVGID_1_" x="147.9" y="146" width="5" height="7.4"/>
			</defs>
			<clipPath id="SVGID_2_">
				<use xlink:href="#SVGID_1_"  style="overflow:visible;"/>
			</clipPath>
			<g class="st1">
				<path class="st0" d="M148.3,151.2l1.7-3.2c0.4-0.7,0.8-1.1,1.4-1.1c0.3,0,0.6,0.1,0.8,0.3c0.2,0.2,0.4,0.5,0.4,0.8
					c0,0.3-0.1,0.7-0.3,1.1l-1.7,3.2c-0.4,0.7-0.8,1.1-1.4,1.1c-0.3,0-0.6-0.1-0.8-0.3c-0.2-0.2-0.4-0.5-0.4-0.8
					C148,152,148.1,151.6,148.3,151.2"/>
			</g>
		</g>
		<path class="st0" d="M166.3,141.8c0,1.5,0.3,2.8,1,3.9c0.8,1.3,1.9,1.9,3.3,1.9c1.5,0,2.6-0.6,3.4-1.9c0.6-1.1,0.9-2.4,0.9-3.9
			s-0.3-2.8-0.9-3.9c-0.8-1.3-1.9-1.9-3.4-1.9c-1.5,0-2.6,0.6-3.3,1.9C166.6,139,166.3,140.3,166.3,141.8 M164,148.5v-20.2
			c0-0.9,0.4-1.4,1.3-1.4s1.3,0.5,1.3,1.4v7.7h0.1c1-1.4,2.4-2.1,4.2-2.1c2,0,3.7,0.8,5,2.4c1.2,1.5,1.7,3.4,1.7,5.6
			c0,2.2-0.6,4.1-1.7,5.6c-1.3,1.6-2.9,2.4-5,2.4c-2.1,0-3.4-0.7-4.2-2.2h-0.1v0.8c0,0.9-0.4,1.4-1.3,1.4S164,149.4,164,148.5"/>
		<path class="st0" d="M191.7,142.8h-9.8c0,1.4,0.4,2.5,1.2,3.4c0.8,0.9,2,1.4,3.4,1.4c1,0,1.9-0.2,2.7-0.6c0.4-0.2,1-0.5,1.6-1
			c0.5-0.4,0.8-0.6,1-0.6c0.6,0,0.9,0.4,0.9,1.2c0,0.7-0.7,1.4-2,2.1c-1.4,0.7-2.8,1.1-4.3,1.1c-2.4,0-4.2-0.8-5.5-2.4
			c-1.1-1.5-1.7-3.3-1.7-5.6c0-2.2,0.6-4.1,1.9-5.6c1.3-1.6,3-2.4,5.2-2.4c2,0,3.7,0.8,5,2.4c1.2,1.5,1.8,3.2,1.8,5.3
			C193.1,142.4,192.7,142.8,191.7,142.8 M181.9,140.9h8.6c0-1.3-0.3-2.3-1-3.2c-0.8-1-1.8-1.6-3.2-1.6c-1.5,0-2.6,0.5-3.4,1.5
			C182.3,138.4,182,139.5,181.9,140.9"/>
		<path class="st0" d="M196.5,134v-3.4c0-0.9,0.4-1.4,1.3-1.4c0.9,0,1.3,0.5,1.3,1.4v3.4h1.1c0.9,0,1.3,0.4,1.3,1.1
			c0,0.7-0.4,1.1-1.3,1.1h-1.1v12.3c0,0.9-0.4,1.4-1.3,1.4c-0.9,0-1.3-0.5-1.3-1.4v-12.3h-1.1c-0.9,0-1.3-0.4-1.3-1.1
			c0-0.8,0.4-1.1,1.3-1.1"/>
		<path class="st0" d="M204.1,134v-3.4c0-0.9,0.4-1.4,1.3-1.4s1.3,0.5,1.3,1.4v3.4h1.1c0.9,0,1.3,0.4,1.3,1.1c0,0.7-0.4,1.1-1.3,1.1
			h-1.1v12.3c0,0.9-0.4,1.4-1.3,1.4s-1.3-0.5-1.3-1.4v-12.3h-1.1c-0.9,0-1.3-0.4-1.3-1.1c0-0.8,0.4-1.1,1.3-1.1"/>
		<path class="st0" d="M222.4,142.8h-9.8c0,1.4,0.4,2.5,1.2,3.4c0.8,0.9,2,1.4,3.4,1.4c1,0,1.9-0.2,2.7-0.6c0.4-0.2,1-0.5,1.6-1
			c0.5-0.4,0.8-0.6,1-0.6c0.6,0,0.9,0.4,0.9,1.2c0,0.7-0.7,1.4-2,2.1c-1.4,0.7-2.8,1.1-4.3,1.1c-2.4,0-4.2-0.8-5.5-2.4
			c-1.1-1.5-1.7-3.3-1.7-5.6c0-2.2,0.6-4.1,1.9-5.6c1.3-1.6,3-2.4,5.2-2.4c2,0,3.7,0.8,5,2.4c1.2,1.5,1.8,3.2,1.8,5.3
			C223.9,142.4,223.4,142.8,222.4,142.8 M212.6,140.9h8.6c0-1.3-0.3-2.3-1-3.2c-0.8-1-1.8-1.6-3.2-1.6c-1.5,0-2.6,0.5-3.4,1.5
			C213.1,138.4,212.7,139.5,212.6,140.9"/>
		<path class="st0" d="M226.4,148.5v-13.3c0-0.9,0.4-1.4,1.3-1.4c0.9,0,1.3,0.5,1.3,1.4v1.3h0.1c0.3-0.7,0.8-1.3,1.4-1.8
			c0.7-0.6,1.4-0.9,2.1-0.9c1,0,1.4,0.4,1.4,1.3c0,0.8-0.5,1.2-1.6,1.4c-0.9,0.2-1.7,0.6-2.3,1.2c-0.8,0.8-1.2,1.9-1.2,3.3v7.5
			c0,0.9-0.4,1.4-1.3,1.4C226.8,149.9,226.4,149.4,226.4,148.5"/>
		<path class="st0" d="M245.6,128.3v20.2c0,0.9-0.4,1.4-1.3,1.4c-0.9,0-1.3-0.5-1.3-1.4v-20.2c0-0.9,0.4-1.4,1.3-1.4
			C245.2,126.9,245.6,127.3,245.6,128.3"/>
		<path class="st0" d="M251.7,135.2v13.3c0,0.9-0.4,1.4-1.3,1.4c-0.9,0-1.3-0.5-1.3-1.4v-13.3c0-0.9,0.4-1.4,1.3-1.4
			C251.2,133.8,251.7,134.2,251.7,135.2 M248.8,130.1c0-0.5,0.2-0.8,0.5-1.1c0.3-0.3,0.7-0.5,1.1-0.5c0.5,0,0.8,0.2,1.1,0.5
			c0.3,0.3,0.5,0.7,0.5,1.1c0,0.4-0.2,0.8-0.5,1.1c-0.3,0.3-0.7,0.5-1.1,0.5c-0.4,0-0.8-0.2-1.1-0.5S248.8,130.5,248.8,130.1"/>
		<path class="st0" d="M258.5,136.2v12.3c0,0.9-0.4,1.4-1.3,1.4s-1.3-0.5-1.3-1.4v-12.3h-1.1c-0.9,0-1.3-0.4-1.3-1.1
			c0-0.8,0.4-1.1,1.3-1.1h1.1v-3.7c0-1.1,0.3-1.9,1-2.5c0.6-0.6,1.4-0.9,2.4-0.9h0.8c0.4,0,0.7,0.1,1,0.3c0.3,0.2,0.5,0.5,0.5,0.8
			c0,0.8-0.5,1.1-1.4,1.1h-0.7c-0.7,0-1.1,0.3-1.1,1v3.8h1.6c0.9,0,1.3,0.4,1.3,1.1c0,0.7-0.4,1.1-1.3,1.1"/>
		<g>
			<defs>
				<rect id="SVGID_3_" x="260.9" y="133" width="14.7" height="17"/>
			</defs>
			<clipPath id="SVGID_4_">
				<use xlink:href="#SVGID_3_"  style="overflow:visible;"/>
			</clipPath>
			<g class="st2">
				<path class="st0" d="M274.2,142.8h-9.8c0,1.4,0.4,2.5,1.2,3.4c0.9,0.9,2,1.4,3.4,1.4c1,0,1.9-0.2,2.7-0.6c0.4-0.2,1-0.5,1.6-1
					c0.5-0.4,0.8-0.6,1-0.6c0.6,0,0.9,0.4,0.9,1.2c0,0.7-0.7,1.4-2,2.1c-1.4,0.7-2.8,1.1-4.3,1.1c-2.4,0-4.2-0.8-5.5-2.4
					c-1.1-1.5-1.7-3.3-1.7-5.6c0-2.2,0.6-4.1,1.9-5.6c1.3-1.6,3-2.4,5.2-2.4c2,0,3.7,0.8,5,2.4c1.2,1.5,1.8,3.2,1.8,5.3
					C275.6,142.4,275.1,142.8,274.2,142.8 M264.4,140.9h8.6c0-1.3-0.3-2.3-1-3.2c-0.8-1-1.8-1.6-3.2-1.6c-1.5,0-2.6,0.5-3.4,1.5
					C264.8,138.4,264.5,139.5,264.4,140.9"/>
			</g>
		</g>
	</g>
	<path class="st3" d="M205.6,97c0,6.4-5.3,11.6-11.6,11.6H20.8c-6.4,0-11.6-5.2-11.6-11.6V14.7c0-6.4,5.2-11.6,11.6-11.6h173.1
		c6.4,0,11.6,5.2,11.6,11.6"/>
	<path class="st4" d="M205.6,97c0,6.4-5.3,11.6-11.6,11.6H20.8c-6.4,0-11.6-5.2-11.6-11.6V14.7c0-6.4,5.2-11.6,11.6-11.6h173.1
		c6.4,0,11.6,5.2,11.6,11.6V97z"/>
	<path class="st5" d="M83.3,55.5c-1.8,0-3,1.3-3,3.1v11.2c-1.5-1.4-3.8-2.5-6.5-2.5c-8,0-12.2,7.3-12.2,14.5s4.2,14.5,12.2,14.5
		c2.9,0,5.1-0.8,6.6-2.4c0.3,1.5,1.3,2.4,2.9,2.4c1.8,0,3-1.3,3-3.1V58.6C86.3,56.8,85.1,55.5,83.3,55.5 M74.2,91
		c-4.9,0-6.6-4.9-6.6-9.2s1.7-9.2,6.6-9.2s6.6,4.9,6.6,9.2S79.1,91,74.2,91 M154.8,72.7c1.6,0,2.4,0.4,3.2,0.8
		c0.6,0.3,1.3,0.6,2.2,0.6c1.5,0,2.6-1.4,2.6-2.6c0-2.5-3.2-4.1-8-4.1c-8.9,0-12.9,7.3-12.9,14.5c0,7.2,4,14.5,12.9,14.5
		c5.1,0,7.8-2.1,7.8-4.2c0-1.6-1-2.6-2.5-2.6c-0.8,0-1.3,0.3-1.9,0.6c-0.8,0.4-1.7,0.9-3.4,0.9c-5.5,0-6.9-5.8-6.9-9.2
		C147.9,78.4,149.3,72.7,154.8,72.7 M48.7,61.2c-0.5-1.2-1.3-3.3-3.9-3.3c-2.5,0-3.4,2-3.8,3.3c0,0-4.2,11.4-7.6,20.3h-6.4
		c-2.2,0-3,1.4-3,2.6c0,1.2,0.8,2.6,3,2.6h4.4c-1.2,3.1-2,5.3-2,5.3c-0.2,0.5-0.4,1.3-0.4,1.9c0,1.3,0.9,2.5,2.7,2.5
		c1.9,0,2.5-1.2,2.9-2.1l0.1-0.2l2.4-6.5c0,0,0.1-0.4,0.3-0.9h7.3c2.2,0,3-1.3,3-2.6c0-1.2-0.8-2.6-3-2.6h-5.4
		c1.4-3.9,4-10.8,5.4-14.6c1.5,4.1,6.4,17.4,6.4,17.4c0,0,1.2,3.3,1.2,3.3c0,0,2.4,6.4,2.4,6.4c0.3,0.8,0.9,2.4,3.1,2.4
		c1.8,0,2.7-1.3,2.7-2.5c0-0.6-0.2-1.4-0.4-1.9C60.1,91.9,48.7,61.2,48.7,61.2 M131.2,72.7c1.6,0,2.4,0.4,3.2,0.8
		c0.6,0.3,1.3,0.6,2.2,0.6c1.5,0,2.6-1.4,2.6-2.6c0-2.5-3.2-4.1-8-4.1c-8.9,0-12.9,7.3-12.9,14.5c0,7.2,4,14.5,12.9,14.5
		c5.1,0,7.8-2.1,7.8-4.2c0-1.6-1-2.6-2.5-2.6c-0.8,0-1.3,0.3-1.9,0.6c-0.8,0.4-1.7,0.9-3.4,0.9c-5.5,0-6.9-5.8-6.9-9.2
		C124.3,78.4,125.8,72.7,131.2,72.7 M178.1,67.3c-8.2,0-12.6,7.3-12.6,14.5s4.3,14.5,12.6,14.5s12.6-7.3,12.6-14.5
		S186.3,67.3,178.1,67.3 M178.1,91c-4.9,0-6.6-4.9-6.6-9.2s1.7-9.2,6.6-9.2c4.9,0,6.6,4.9,6.6,9.2S183,91,178.1,91 M115.3,81.2
		c0-6.8-4.6-13.8-12.3-13.8c-8.4,0-12.8,7.3-12.8,14.5c0,6.7,3.4,14.5,13.1,14.5c5.3,0,11.5-3.4,11.5-6.2c0-1.8-1.2-2.7-2.4-2.7
		c-0.8,0-1.5,0.5-2.3,1.2c-1.3,1-3.2,2.5-6.8,2.5c-4.1,0-6.8-2.7-7.1-6.7h15.9C114.3,84.3,115.3,83.3,115.3,81.2 M96.1,79.5
		c0.2-2.3,1.4-7,6.8-6.8c4.3,0,6.1,3.8,6.3,6.8"/>
</g>
</svg>
