<svg xmlns:cc="http://creativecommons.org/ns#" xmlns:dc="http://purl.org/dc/elements/1.1/" xmlns:inkscape="http://www.inkscape.org/namespaces/inkscape" xmlns:rdf="http://www.w3.org/1999/02/22-rdf-syntax-ns#" xmlns:sodipodi="http://sodipodi.sourceforge.net/DTD/sodipodi-0.dtd" xmlns:svg="http://www.w3.org/2000/svg" xmlns="http://www.w3.org/2000/svg" xmlns:xlink="http://www.w3.org/1999/xlink" version="1.1" id="svg7418" inkscape:version="0.92.3 (2405546, 2018-03-11)" sodipodi:docname="himalaya.svg" x="0px" y="0px" viewBox="0 0 450 222" style="enable-background:new 0 0 450 222;" xml:space="preserve" width="450"  height="222" >
<style type="text/css">
	.st0{fill:#F18E43;}
	.st1{fill:#007074;}
</style>
<sodipodi:namedview bordercolor="#666666" borderopacity="1" gridtolerance="10" guidetolerance="10" id="namedview7420" inkscape:current-layer="svg7418" inkscape:cx="225" inkscape:cy="111" inkscape:pageopacity="0" inkscape:pageshadow="2" inkscape:window-height="705" inkscape:window-maximized="1" inkscape:window-width="1360" inkscape:window-x="-8" inkscape:window-y="-8" inkscape:zoom="1.9555556" objecttolerance="10" pagecolor="#ffffff" showgrid="false">
	</sodipodi:namedview>
<g id="g7428">
	<path id="path7438" inkscape:connector-curvature="0" class="st0" d="M3.6,113.3c-1.2-1.2,4.9-10.6,9.3-14.5   c7.8-6.9,16.7-10.9,43.5-19.3c18.9-6,30.8-11.9,37-18.6c2.6-2.8,5-4.7,5.3-4.4c1.2,1.2-3.1,11.3-7.1,16.7C83,85,72,90.6,43.3,97.8   c-19.8,5-32.3,9.8-37.1,14.3C5.1,113.1,3.9,113.6,3.6,113.3z M3.2,100.1c3.6-14,11.5-23.2,26.3-30.6c6.9-3.5,13.6-5.7,29-9.5   c20.7-5.2,32.6-9.8,37.8-14.7c3.7-3.5,3.6-1.2-0.2,5.4C89.6,61.8,79.8,67.5,50,77C24.6,85.1,17.3,88.7,8.9,97.1l-6.6,6.6L3.2,100.1   z"/>
</g>
<path id="path7432" inkscape:connector-curvature="0" class="st1" d="M17,188.7c-1.6-0.8-2.6-2.3-2.8-4.1l-0.3-2.8l2.9,2.2  c3.5,2.6,9,2.4,10.6-0.2c1.5-2.4,0.1-4.5-6.2-8.7c-7.7-5.3-9.2-10.2-4.6-14.5c4.7-4.4,14.4-2.9,14.4,2.1c0,2.4-0.1,2.5-2.2,1  c-4.4-3.1-12-1.1-10.5,2.8c0.3,0.8,2.7,2.9,5.4,4.7c7.7,5.2,9.8,9,7.7,14.4C29.9,189.3,21.8,191.2,17,188.7z M61.2,189.3  c-2.3-0.4-2.3-0.5-2-15.6c0.3-14.9,0.3-15.2,2.5-15.5l2.2-0.3v16.1c0,8.8-0.1,16-0.2,15.9S62.5,189.5,61.2,189.3L61.2,189.3z   M108.9,177.8l-10.4-12l-0.3,11.6C98,188.2,97.8,189,96,189c-1.9,0-2-0.7-2-15.5c0-17.3,0.5-18.3,5.8-12.2  c1.6,1.8,6.4,7.3,10.8,12.2l7.9,8.9l0.3-12.2c0.3-11.4,0.4-12.2,2.3-12.2c1.9,0,2,0.6,1.7,15.7c-0.2,13.6-0.5,15.7-1.9,15.9  C119.8,189.7,115.3,185.3,108.9,177.8L108.9,177.8z M162.2,189.3c-3.6-0.7-10-7.6-10.7-11.7c-1-5.1,0.2-10,3.3-13.7  c3.4-4,7.9-5.9,14-5.8c7.1,0.1,9.7,1.1,10.1,3.8c0.3,2,0,2.3-2,1.6c-12.2-3.7-20.8,0.7-20.8,10.6c0,10.1,10.3,14.4,22.2,9.3  c1.4-0.6,1.8-0.3,1.8,1.4C180,188.8,171.1,191,162.2,189.3L162.2,189.3z M208,174v-16h9c8.3,0,9,0.1,9,2c0,1.8-0.7,2-7.1,2h-7.1  l0.3,4.8l0.3,4.8l6.2,0.3c5.4,0.3,6.2,0.6,6.2,2.2c0,1.7-0.7,2-6.6,2h-6.6l0.3,4.8l0.3,4.8l6.8,0.3c5.9,0.3,6.8,0.5,6.8,2.2  c0,1.8-0.7,2-9,2h-9V174z M288.2,189.3c-0.9-0.3-1.2-4.4-1.2-15.9c0-14.8,0.1-15.4,2-15.4c1.9,0,2,0.7,2,15.4  c0,8.5-0.3,15.6-0.8,15.9S288.9,189.5,288.2,189.3L288.2,189.3z M330.1,188.6c-0.9-1.1-0.3-2.3,3.4-6c5.7-5.7,5.9-7.3,0.6-6.8  c-5.4,0.5-9.1-3-9.1-8.8c0-5.6,3.4-9,9-9c3.2,0,4.8,0.6,7,2.9c5.5,5.5,3.4,16.7-4.9,25.3C332.2,190.4,331.7,190.6,330.1,188.6  L330.1,188.6z M338.1,171c2.4-1.3,2.5-3.7,0.3-6.8c-2.3-3.3-7.5-2.7-8.8,1.1C327.9,170.1,333.1,173.6,338.1,171z M373.8,189.3  c-1.1-0.3-1.8-1.4-1.8-2.9c0-2.7,0.3-2.9,3.2-1.3c4.7,2.5,10.4-2.4,7.9-6.9c-0.6-1.1-2.1-2.2-3.4-2.4c-2.9-0.4-3.8-4.8-1-4.8  c2.7,0,4.3-2,4.3-5.2c0-3.1-2.9-4.5-7.5-3.6c-2.8,0.5-3.8-0.3-2.9-2.7c0.5-1.2,2-1.6,5.9-1.6c4.6,0,5.6,0.4,7.4,2.6  c2.5,3.1,2.6,5.8,0.5,9.8c-1.4,2.6-1.4,3.1,0,4.6c0.8,0.9,1.5,3.5,1.5,5.8C388,187.6,381.7,191.4,373.8,189.3L373.8,189.3z   M421.1,188.4c-3.3-2.3-5.1-7.4-5.1-14.4c0-10.3,3.8-16,10.7-16c6.6,0,10.6,9.7,8.9,21.4C434.3,187.8,426.9,192.4,421.1,188.4  L421.1,188.4z M428.9,184.1c5-5,2.9-22.1-2.7-22.1c-3.8,0-5.6,3.7-5.6,11.4C420.5,184,424.2,188.8,428.9,184.1L428.9,184.1z   M14.8,124.2c-0.2-1-0.6-4.1-0.7-7l-0.3-5.3l4.7-2.1c4.3-1.9,16.9-5.9,18.7-5.9c0.4,0,0.8,4.9,0.8,11v11H26.6  C16.6,126,15.2,125.8,14.8,124.2z M64.2,111.9c0.2-11.3,0.6-14.3,1.8-15c0.8-0.4,4.4-2.2,8-3.9s8.2-4.4,10.2-6.1l3.8-3v21v21H76h-12  L64.2,111.9z M97,102v-24l8.8,0.3l8.8,0.3l0.3,23.8L115,126h-9h-9V102z M123.4,124.7c-0.3-0.7-0.4-11.4-0.2-23.8l0.3-22.5l7.8-0.3  l7.8-0.3v4.3v4.3l2.2-3.2c3.1-4.3,8.5-6.6,15.6-6.6c6.6,0.1,11,2,13.5,5.8l1.7,2.6l3.8-3.5c6.6-5.9,19.8-6.9,25.4-1.9  c4.6,4.1,5.1,6.8,5.5,26.9l0.4,19.2h-8.6H190v-14.4c0-7.9-0.4-15.6-1-17c-1.5-3.8-5.7-5.1-9.7-3c-1.8,0.9-3.5,2.4-4,3.3  c-0.4,0.9-1,8.1-1.3,16.1l-0.5,14.5l-8.2,0.3l-8.2,0.3V112c0-9.8-0.4-15.1-1.4-17.4c-2.4-5.7-9.3-5.7-13.2,0.1  c-1.6,2.4-2,5.2-2.3,17.1l-0.4,14.2h-7.9C126.4,126,123.8,125.6,123.4,124.7z M220.2,124.5c-9.9-4.3-12.4-16.9-4.8-24.1  c4.2-4,10.9-5.9,20.8-5.9c8.6,0,9.8-1.2,5.4-5.4c-1.9-1.8-3.5-2.2-9.5-2.2c-4.1,0-8.7,0.6-10.7,1.5c-4.2,1.7-4.7,1.1-4.2-5.5  c0.3-4,0.6-4.4,4.3-5.7c5.9-2.1,22-2.1,27,0.1c9.8,4.3,11.4,8.5,11.7,30.9l0.3,16.8l-7.8,0l-7.8,0v-3.6v-3.6l-2.4,2.5  c-1.3,1.4-3.8,3.3-5.5,4.1C233.4,126.4,224.6,126.4,220.2,124.5L220.2,124.5z M240.6,111.6c2.2-2.2,3.4-4.4,3.4-6.1v-2.7l-6.5,0.5  c-7.2,0.6-10.5,2.5-10.5,6.3c0,2.8,3.5,5.4,7.3,5.4C236.3,115,238.3,113.9,240.6,111.6z M300,123.8c-10.2-5.2-10.7-19.7-0.8-25.7  c4.2-2.5,15.1-4.4,21.1-3.5c4.4,0.6,4.8,0.5,4.8-1.4c0-3.9-4.5-6.2-12.5-6.2c-4.2,0-8.8,0.6-10.9,1.5l-3.7,1.5l0.3-5.7l0.3-5.7  l4.5-1.4c5.7-1.8,19.3-2,24.6-0.4c5.3,1.6,11.1,7.2,12.3,12c0.5,2.1,1.1,11,1.3,20l0.3,16.3l-7.8,0l-7.8,0l0-3.8l0-3.8l-1.8,2.2  C318.6,126.3,308.4,128,300,123.8L300,123.8z M321,112.2c1.9-1.7,3.1-3.9,3.3-5.8l0.2-3l-6,0.1c-8,0.1-10.5,1.5-10.5,5.9  C308,115.5,315.6,117.2,321,112.2z M396.7,124.6c-4.9-1.7-6.8-3.4-8.4-7.3c-3.1-7.4-0.7-15,5.8-19.1c4.1-2.6,15.8-4.6,21.6-3.7  c3.7,0.6,4.2,0.4,4.2-1.3c0-1-1-2.9-2.3-4.1c-1.9-1.8-3.5-2.2-9.5-2.2c-4.2,0-8.7,0.6-10.8,1.5c-2,0.8-3.8,1.5-4,1.5  s-0.3-2.5-0.1-5.7c0.3-5.6,0.3-5.7,4.3-7.1c2.3-0.8,8.1-1.5,13.5-1.6c11.6-0.2,17.5,2.2,21.8,8.6c2.4,3.6,2.7,5.1,2.9,14.6  c0.2,5.8,0.4,14.1,0.5,18.4l0.2,7.8h-7.8H421l0-3.8l0-3.8l-1.8,2.2C414.1,125.7,405.3,127.6,396.7,124.6L396.7,124.6z M416.7,111.5  c2.3-2.3,3.4-4.2,3.1-5.8c-0.3-2.1-0.8-2.3-6.7-2.3c-5.7,0-6.6,0.3-8.7,2.8c-3.7,4.3-1,8.7,5.4,8.7  C412.3,115,414.1,114.1,416.7,111.5z M269,90V54.9l8.2,0.3l8.2,0.3V90v34.5l-8.2,0.3l-8.2,0.3V90z M357,116.3v-8.7l-6.7-11.6  c-3.7-6.4-7.8-13.5-9.1-15.8l-2.4-4.2h9.3h9.3l1.9,4.2c1,2.3,2.8,6.7,3.9,9.7c1.1,3,2.3,4.8,2.5,4c0.2-0.8,2-5.1,3.9-9.7l3.5-8.2  h9.5h9.5l-1.5,2.2c-0.8,1.2-4.9,8.2-9.1,15.5L374,107v9v9h-8.5H357V116.3z M14,55.5c0.1-9.6,0.4-18.4,0.7-19.5c0.5-1.9,1.3-2,11.9-2  H38v13.3v13.3L32.2,63c-3.2,1.3-8.3,4.1-11.4,6.2c-3.1,2.1-6,3.8-6.3,3.8S14,65.1,14,55.5z M64.1,44L64,34h12h12v6v6l-4.7,2  C79.8,49.6,65.7,54,64.4,54C64.3,54,64.1,49.5,64.1,44z M429,40.1c0-2.9-0.4-4.1-1.5-4.1c-0.8,0-1.5-0.5-1.5-1s1.8-1,4-1s4,0.5,4,1  s-0.7,1-1.5,1c-1,0-1.5,1-1.5,3.4c0,1.9-0.5,3.7-1,4.1C429.4,43.9,429,42.5,429,40.1z M435.9,43.5c-0.3-0.5-0.7-2.9-0.8-5.2  c-0.3-5.3,2.2-5.9,4.3-1l1.4,3.2l1.3-3.2c2-5,3.9-4.1,3.9,1.8c0,5.1-1.9,7.2-2.1,2.2l-0.1-2.8l-1.1,2.8c-1.4,3.6-2.5,3.5-4-0.5  l-1.2-3.2L437,41C436.7,42.9,436.2,44,435.9,43.5z"/>
</svg>