<?xml version="1.0" encoding="utf-8"?>
<!-- Generator: Adobe Illustrator 25.2.0, SVG Export Plug-In . SVG Version: 6.00 Build 0)  -->
<svg version="1.1" id="Layer_1" xmlns="http://www.w3.org/2000/svg" xmlns:xlink="http://www.w3.org/1999/xlink" x="0px" y="0px"
	 viewBox="0 0 174.4 99.9" style="enable-background:new 0 0 174.4 99.9;" xml:space="preserve">
<style type="text/css">
	.st0{fill:#44C8F5;}
	.st1{fill:#8B6BAF;}
	.st2{fill:#042752;}
</style>
<g id="XMLID_1_">
	<g id="XMLID_171_">
		<path id="XMLID_213_" class="st0" d="M86.8,1.5c-0.6,0-1,0.5-1,1v9.1c0,0.6,0.4,1,1,1s1-0.4,1-1V2.5C87.9,2,87.4,1.5,86.8,1.5"/>
		<path id="XMLID_212_" class="st0" d="M86.8,40.2c-0.6,0-1,0.5-1,1v9.1c0,0.5,0.4,1,1,1s1-0.5,1-1v-9.1
			C87.9,40.6,87.4,40.2,86.8,40.2"/>
		<path id="XMLID_211_" class="st0" d="M73.1,26.4c0-0.5-0.4-1-1-1H63c-0.5,0-1,0.5-1,1s0.5,1,1,1h9.1C72.7,27.4,73.1,27,73.1,26.4"
			/>
		<path id="XMLID_193_" class="st0" d="M110.7,25.4h-9.1c-0.6,0-1,0.5-1,1s0.4,1,1,1h9.1c0.6,0,1-0.5,1-1S111.3,25.4,110.7,25.4"/>
		<path id="XMLID_192_" class="st0" d="M75.7,16.7c0.2,0.2,0.4,0.3,0.7,0.3s0.5-0.1,0.7-0.3c0.4-0.4,0.4-1,0-1.4l-6.4-6.4
			c-0.4-0.4-1-0.4-1.4,0s-0.4,1,0,1.4L75.7,16.7z"/>
		<path id="XMLID_191_" class="st0" d="M98,36.1c-0.4-0.4-1-0.4-1.4,0s-0.4,1,0,1.4L103,44c0.2,0.2,0.4,0.3,0.7,0.3s0.5-0.1,0.7-0.3
			c0.4-0.4,0.4-1,0-1.4L98,36.1z"/>
		<path id="XMLID_190_" class="st0" d="M77.1,36.1c-0.4-0.4-1-0.4-1.4,0l-6.4,6.4c-0.4,0.4-0.4,1,0,1.4c0.2,0.2,0.4,0.3,0.7,0.3
			s0.5-0.1,0.7-0.3l6.4-6.4C77.5,37.2,77.5,36.5,77.1,36.1"/>
		<path id="XMLID_189_" class="st0" d="M96.6,16.7c0.2,0.2,0.4,0.3,0.7,0.3s0.5-0.1,0.7-0.3l6.4-6.4c0.4-0.4,0.4-1,0-1.4
			s-1-0.4-1.4,0l-6.4,6.4C96.2,15.6,96.2,16.3,96.6,16.7"/>
		<path id="XMLID_188_" class="st0" d="M78.7,4c-0.2-0.5-0.8-0.8-1.3-0.5c-0.5,0.2-0.8,0.8-0.5,1.3l3.5,8.4c0.2,0.4,0.5,0.6,0.9,0.6
			c0.1,0,0.3,0,0.4-0.1c0.5-0.2,0.8-0.8,0.5-1.3L78.7,4z"/>
		<path id="XMLID_187_" class="st0" d="M93.4,39.7c-0.2-0.5-0.8-0.8-1.3-0.5c-0.5,0.2-0.8,0.8-0.5,1.3l3.5,8.4
			c0.2,0.4,0.5,0.6,0.9,0.6c0.1,0,0.3,0,0.4-0.1c0.5-0.2,0.8-0.8,0.5-1.3L93.4,39.7z"/>
		<path id="XMLID_186_" class="st0" d="M74.2,31.7c-0.2-0.5-0.8-0.8-1.3-0.5l-8.4,3.5C64,34.9,63.7,35.5,64,36
			c0.2,0.4,0.5,0.6,0.9,0.6c0.1,0,0.3,0,0.4-0.1l8.4-3.5C74.1,32.8,74.4,32.2,74.2,31.7"/>
		<path id="XMLID_185_" class="st0" d="M99.6,21.1c0.2,0.4,0.5,0.6,0.9,0.6c0.1,0,0.3,0,0.4-0.1l8.4-3.5c0.5-0.2,0.8-0.8,0.5-1.3
			s-0.8-0.8-1.3-0.5l-8.4,3.5C99.6,20,99.3,20.6,99.6,21.1"/>
		<path id="XMLID_184_" class="st0" d="M64.4,18.2l8.4,3.5c0.1,0,0.3,0.1,0.4,0.1c0.4,0,0.8-0.2,0.9-0.6c0.2-0.5,0-1.1-0.5-1.3
			l-8.4-3.5c-0.5-0.2-1.1,0-1.3,0.5C63.7,17.4,63.9,18,64.4,18.2"/>
		<path id="XMLID_183_" class="st0" d="M109.3,34.6l-8.4-3.5c-0.5-0.2-1.1,0-1.3,0.5c-0.2,0.5,0,1.1,0.5,1.3l8.4,3.5
			c0.1,0,0.3,0.1,0.4,0.1c0.4,0,0.8-0.2,0.9-0.6C110,35.4,109.8,34.8,109.3,34.6"/>
		<path id="XMLID_182_" class="st0" d="M81.6,39.1c-0.5-0.2-1.1,0-1.3,0.5L76.8,48c-0.2,0.5,0,1.1,0.5,1.3c0.1,0,0.3,0.1,0.4,0.1
			c0.4,0,0.8-0.2,0.9-0.6l3.5-8.4C82.3,39.9,82.1,39.3,81.6,39.1"/>
		<path id="XMLID_181_" class="st0" d="M92.1,13.7c0.1,0.1,0.3,0.1,0.4,0.1c0.4,0,0.8-0.2,0.9-0.6l3.5-8.4c0.2-0.5,0-1.1-0.5-1.3
			s-1.1,0-1.3,0.5l-3.5,8.4C91.4,12.9,91.6,13.5,92.1,13.7"/>
		<path id="XMLID_180_" class="st1" d="M83.3,27.4H97c0-0.3,0.1-0.7,0.1-1c0-0.7-0.1-1.4-0.2-2.1c-1-4.7-5.1-8.3-10-8.3
			c-5.6,0-10.2,4.7-10.2,10.4c0,5.8,4.6,10.4,10.2,10.4c3.8,0,7.1-2.1,8.9-5.3l-2.9-1.7c-1.2,2.1-3.4,3.6-5.9,3.6
			c-3.8,0-6.8-3.1-6.8-7s3.1-7,6.8-7c3,0,5.6,2,6.5,4.9h-6.9C84.7,24.3,83.3,25.7,83.3,27.4"/>
		<path id="XMLID_179_" class="st2" d="M140.4,64.4c-0.4-1.5-1.8-2.7-3.5-2.7v20.4h3.6v-9.9c0-3.8,3-6.8,6.7-6.8h1.5l1-3.7h-2.5
			C144.7,61.8,142.3,62.8,140.4,64.4"/>
		<path id="XMLID_178_" class="st2" d="M11.7,61.8c-5.6,0-10.2,4.7-10.2,10.4c0,5.8,4.6,10.4,10.2,10.4c3.8,0,7.1-2.1,8.9-5.3
			l-2.9-1.7c-1.2,2.1-3.4,3.6-5.9,3.6c-3.8,0-6.8-3.1-6.8-7c0-3.8,3.1-7,6.8-7c3,0,5.6,2,6.5,4.8h-6.9c-1.7,0-3.1,1.4-3.1,3.1h10.3
			H22c0-0.3,0-0.7,0-1c0-0.7-0.1-1.4-0.2-2.1C20.7,65.3,16.6,61.8,11.7,61.8"/>
		<path id="XMLID_177_" class="st2" d="M56.7,61.8c-5.6,0-10.2,4.7-10.2,10.4c0,5.8,4.6,10.4,10.2,10.4c3.8,0,7.1-2.1,8.9-5.3
			l-2.9-1.7c-1.2,2.1-3.4,3.6-5.9,3.6c-3.8,0-6.8-3.1-6.8-7c0-3.8,3.1-7,6.8-7c3,0,5.6,2,6.5,4.8h-6.9c-1.7,0-3.1,1.4-3.1,3.1h10.3
			H67c0-0.3,0.1-0.7,0.1-1c0-0.7-0.1-1.4-0.2-2.1C65.7,65.3,61.6,61.8,56.7,61.8"/>
		<path id="XMLID_176_" class="st2" d="M158.5,73.2h10.3h3.4c0-0.3,0.1-0.7,0.1-1c0-0.7-0.1-1.4-0.2-2.1c-1-4.7-5.1-8.3-10-8.3
			c-5.6,0-10.2,4.7-10.2,10.4c0,5.8,4.6,10.4,10.2,10.4c3.8,0,7.1-2.1,8.9-5.3l-2.9-1.7c-1.2,2.1-3.4,3.6-5.9,3.6
			c-3.8,0-6.8-3.1-6.8-7c0-3.8,3.1-7,6.8-7c3,0,5.6,2,6.5,4.8h-6.9C159.9,70.1,158.5,71.5,158.5,73.2"/>
		<path id="XMLID_175_" class="st2" d="M126.6,64.5c-1.8-1.7-4.2-2.8-6.9-2.8c-5.6,0-10.2,4.7-10.2,10.4c0,5.8,4.6,10.4,10.2,10.4
			c1.9,0,3.7-0.5,5.2-1.5l-1.7-3c-1,0.6-2.2,1-3.5,1c-3.8,0-6.8-3.1-6.8-7c0-3.8,3.1-7,6.8-7s6.8,3.1,6.8,7l0,0v10h3.6V61.8
			C128.4,61.8,127,63,126.6,64.5"/>
		<path id="XMLID_174_" class="st2" d="M96.8,65.2c1.4,0,3.2,0.5,4.4,1.7c1.3,1.3,3.3,1.1,4.5,0.2c-1.7-3.2-5.1-5.3-8.9-5.3
			c-5.6,0-10.2,4.7-10.2,10.4c0,5.8,4.6,10.4,10.2,10.4c3.8,0,7.1-2.2,8.9-5.3l-2.9-1.7c-1.2,2.1-3.4,3.6-5.9,3.6
			c-3.8,0-6.8-3.1-6.8-7C90,68.4,93,65.2,96.8,65.2"/>
		<path id="XMLID_173_" class="st2" d="M75.3,64.4c-0.4-1.5-1.8-2.7-3.5-2.7v20.4h3.6v-9.9c0-3.8,3-6.8,6.7-6.8h1.5l1-3.7h-2.5
			C79.5,61.8,77.1,62.8,75.3,64.4"/>
		<path id="XMLID_172_" class="st2" d="M40,64.6L34.2,77l-5.8-12.4c-1.5-3.2-4.5-3-5.3-2.8l9.5,20.4h3.1l9.5-20.4
			C44.5,61.6,41.5,61.4,40,64.6"/>
	</g>
	<g id="XMLID_2_">
		<path id="XMLID_8_" class="st2" d="M33.9,89.6v0.6h-2.1v6.7h-0.6v-6.7h-2.1v-0.6H33.9z"/>
		<path id="XMLID_21_" class="st2" d="M36.8,92.6c-0.1,0-0.2,0-0.3,0c-0.6,0-1.2,0.4-1.5,1v3.2h-0.6v-4.7H35v0.6
			c0.2-0.3,0.8-0.7,1.5-0.7c0.1,0,0.3,0,0.3,0V92.6z"/>
		<path id="XMLID_25_" class="st2" d="M41.6,96.8v-0.7c-0.3,0.5-1,0.8-1.7,0.8c-0.4,0-0.9-0.1-1.4-0.4c-0.6-0.4-1-1.2-1-2
			s0.3-1.5,0.9-1.9c0.4-0.3,0.9-0.5,1.5-0.5c0.7,0,1.3,0.3,1.7,0.8v-0.7h0.6v4.7L41.6,96.8L41.6,96.8z M41.6,93.5
			c-0.2-0.3-0.8-0.9-1.7-0.9c-0.4,0-0.8,0.1-1.1,0.4c-0.4,0.3-0.7,0.9-0.7,1.5c0,0.7,0.3,1.2,0.7,1.6c0.3,0.2,0.7,0.3,1.1,0.3
			c0.7,0,1.3-0.4,1.7-1V93.5z"/>
		<path id="XMLID_28_" class="st2" d="M44.5,92.8c0.4-0.5,1-0.8,1.7-0.8s1.3,0.3,1.7,0.8c0.3,0.3,0.4,0.7,0.4,1.5v2.5h-0.6v-2.5
			c0-0.6-0.1-0.9-0.3-1.2c-0.3-0.4-0.7-0.6-1.2-0.6c-0.7,0-1.3,0.4-1.6,1v3.3H44v-4.7h0.6L44.5,92.8L44.5,92.8z"/>
		<path id="XMLID_30_" class="st2" d="M49.8,95.8c0.4,0.3,0.9,0.6,1.4,0.6c0.6,0,1.1-0.3,1.1-0.8c0-1.2-2.7-0.6-2.7-2.2
			c0-0.9,0.8-1.4,1.6-1.4c0.6,0,1.2,0.2,1.5,0.5L52.4,93c-0.4-0.3-0.7-0.4-1.2-0.4s-1,0.3-1,0.8c0,1,2.7,0.5,2.7,2.1
			c0,0.9-0.8,1.4-1.6,1.4s-1.4-0.3-1.8-0.7L49.8,95.8z"/>
		<path id="XMLID_33_" class="st2" d="M56.8,90c-0.1,0-0.2,0-0.3,0c-0.4,0-0.7,0.1-0.9,0.4c-0.1,0.2-0.2,0.4-0.2,1v0.7H57v0.6h-1.6
			v4.2h-0.6v-4.2h-1.2v-0.6h1.2v-0.7c0-0.7,0.1-1.1,0.4-1.4c0.3-0.4,0.8-0.6,1.3-0.6c0.2,0,0.3,0,0.5,0.1L56.8,90z"/>
		<path id="XMLID_36_" class="st2" d="M59.9,96.9c-1.4,0-2.4-1.1-2.4-2.5s1-2.5,2.4-2.5s2.4,1.1,2.4,2.5S61.3,96.9,59.9,96.9z
			 M59.9,92.6c-1.1,0-1.8,0.8-1.8,1.9s0.8,1.9,1.8,1.9c1.1,0,1.8-0.8,1.8-1.9S61,92.6,59.9,92.6z"/>
		<path id="XMLID_39_" class="st2" d="M66,92.6c-0.1,0-0.2,0-0.3,0c-0.6,0-1.2,0.4-1.5,1v3.2h-0.6v-4.7h0.6v0.6
			c0.2-0.3,0.8-0.7,1.5-0.7c0.1,0,0.3,0,0.3,0V92.6z"/>
		<path id="XMLID_41_" class="st2" d="M67.8,92.8c0.3-0.4,0.9-0.8,1.6-0.8c0.8,0,1.4,0.4,1.8,1c0.3-0.5,0.9-1,1.8-1
			c0.8,0,1.4,0.4,1.8,1c0.2,0.3,0.3,0.7,0.3,1.3v2.5h-0.6v-2.4c0-0.7-0.1-1-0.3-1.2c-0.2-0.4-0.7-0.6-1.2-0.6
			c-0.8,0-1.3,0.5-1.6,1.1c0,0.2,0.1,0.4,0.1,0.7v2.5h-0.6v-2.4c0-0.7-0.1-1-0.3-1.2c-0.2-0.4-0.7-0.6-1.2-0.6c-0.6,0-1.3,0.4-1.6,1
			V97h-0.6v-4.7h0.6C67.9,92.1,67.9,92.8,67.8,92.8z"/>
		<path id="XMLID_43_" class="st2" d="M77.1,89.9c0.3,0,0.5,0.2,0.5,0.5S77.3,91,77.1,91s-0.5-0.2-0.5-0.5
			C76.5,90.2,76.8,89.9,77.1,89.9z M76.8,92.1h0.6v4.7h-0.6V92.1z"/>
		<path id="XMLID_46_" class="st2" d="M79.7,92.8c0.4-0.5,1-0.8,1.7-0.8s1.3,0.3,1.7,0.8c0.3,0.3,0.4,0.7,0.4,1.5v2.5h-0.6v-2.5
			c0-0.6-0.1-0.9-0.3-1.2c-0.3-0.4-0.7-0.6-1.2-0.6c-0.7,0-1.3,0.4-1.6,1v3.3h-0.6v-4.7h0.6L79.7,92.8L79.7,92.8z"/>
		<path id="XMLID_48_" class="st2" d="M89.1,98.3c-0.3,0.6-1,1.1-2.1,1.1c-0.9,0-1.7-0.4-2.1-1.1l0.5-0.3c0.3,0.6,0.9,0.9,1.7,0.9
			c0.8,0,1.3-0.3,1.5-0.8c0.1-0.3,0.2-0.6,0.2-1.2v-0.7c-0.3,0.5-0.9,0.8-1.7,0.8c-0.4,0-0.9-0.1-1.4-0.4c-0.6-0.4-1-1.2-1-2
			s0.3-1.5,0.9-1.9c0.4-0.3,0.9-0.5,1.5-0.5c0.7,0,1.3,0.3,1.7,0.8v-0.7h0.6V97C89.4,97.5,89.3,97.9,89.1,98.3z M88.8,93.5
			c-0.2-0.3-0.8-0.9-1.7-0.9c-0.4,0-0.8,0.1-1.1,0.4c-0.4,0.3-0.7,0.9-0.7,1.5c0,0.7,0.3,1.2,0.7,1.6c0.3,0.2,0.7,0.3,1.1,0.3
			c0.7,0,1.3-0.4,1.7-1V93.5z"/>
		<path id="XMLID_51_" class="st2" d="M99.2,93.1h-4.7v3.7H94v-7.2h0.6v2.9h4.7v-2.9h0.6v7.2h-0.6C99.2,96.8,99.2,93.1,99.2,93.1z"
			/>
		<path id="XMLID_53_" class="st2" d="M105.6,96.1c-0.3,0.4-1,0.9-1.9,0.9c-1.3,0-2.4-1-2.4-2.5c0-1.4,0.9-2.5,2.2-2.5
			c1.3,0,2.2,1,2.2,2.3c0,0,0,0.1,0,0.2h-3.8c0,1,0.7,1.8,1.8,1.8c0.6,0,1.1-0.2,1.5-0.7L105.6,96.1z M101.9,94h3.2
			c-0.1-0.8-0.8-1.4-1.6-1.4C102.7,92.6,102.1,93.2,101.9,94z"/>
		<path id="XMLID_56_" class="st2" d="M110.8,96.8v-0.7c-0.3,0.5-1,0.8-1.7,0.8c-0.4,0-0.9-0.1-1.4-0.4c-0.6-0.4-1-1.2-1-2
			s0.3-1.5,0.9-1.9c0.4-0.3,0.9-0.5,1.5-0.5c0.7,0,1.3,0.3,1.7,0.8v-0.7h0.6v4.7L110.8,96.8L110.8,96.8z M110.8,93.5
			c-0.2-0.3-0.8-0.9-1.7-0.9c-0.4,0-0.8,0.1-1.1,0.4c-0.4,0.3-0.7,0.9-0.7,1.5c0,0.7,0.3,1.2,0.7,1.6c0.3,0.2,0.7,0.3,1.1,0.3
			c0.7,0,1.3-0.4,1.7-1V93.5z"/>
		<path id="XMLID_59_" class="st2" d="M113.1,89.5h0.6v7.3h-0.6V89.5z"/>
		<path id="XMLID_61_" class="st2" d="M118.2,92.7h-1.6v2.6c0,0.4,0.1,0.6,0.2,0.8c0.2,0.2,0.4,0.3,0.8,0.3c0.1,0,0.3,0,0.5-0.1
			l0.1,0.5c-0.2,0.1-0.4,0.1-0.6,0.1c-0.4,0-0.9-0.1-1.3-0.5c-0.2-0.3-0.3-0.6-0.3-1.2v-2.6h-1.3V92h1.3v-1.3h0.6V92h1.6L118.2,92.7
			L118.2,92.7z"/>
		<path id="XMLID_63_" class="st2" d="M120.2,92.7c0.4-0.5,1-0.7,1.7-0.7s1.3,0.3,1.7,0.8c0.3,0.3,0.4,0.7,0.4,1.5v2.5h-0.6v-2.5
			c0-0.6-0.1-0.9-0.3-1.2c-0.3-0.4-0.7-0.6-1.2-0.6c-0.7,0-1.3,0.4-1.6,1v3.3h-0.6v-7.3h0.6L120.2,92.7L120.2,92.7z"/>
		<path id="XMLID_65_" class="st2" d="M129.6,96.1c-0.5,0.5-1.1,0.8-1.9,0.8c-1.3,0-2.5-0.9-2.5-2.5c0-1.3,1-2.5,2.4-2.5
			c0.8,0,1.4,0.3,1.8,0.7L129,93c-0.4-0.3-0.8-0.6-1.4-0.6c-1,0-1.8,0.8-1.8,1.9s0.8,1.9,1.9,1.9c0.5,0,1-0.2,1.5-0.7L129.6,96.1z"
			/>
		<path id="XMLID_67_" class="st2" d="M134.5,96.8v-0.7c-0.4,0.5-1,0.8-1.7,0.8c-0.4,0-0.9-0.1-1.4-0.4c-0.6-0.4-1-1.2-1-2
			s0.3-1.5,0.9-1.9c0.4-0.3,0.9-0.5,1.5-0.5c0.7,0,1.3,0.3,1.7,0.8v-0.7h0.6v4.7L134.5,96.8L134.5,96.8z M134.5,93.5
			c-0.2-0.3-0.8-0.9-1.7-0.9c-0.4,0-0.8,0.1-1.1,0.4c-0.4,0.3-0.7,0.9-0.7,1.5c0,0.7,0.3,1.2,0.7,1.6c0.3,0.2,0.7,0.3,1.1,0.3
			c0.7,0,1.3-0.4,1.7-1V93.5L134.5,93.5z"/>
		<path id="XMLID_70_" class="st2" d="M139.2,92.6c-0.1,0-0.2,0-0.3,0c-0.6,0-1.2,0.4-1.5,1v3.2h-0.6v-4.7h0.6v0.6
			c0.2-0.3,0.8-0.7,1.5-0.7c0.1,0,0.3,0,0.4,0L139.2,92.6z"/>
		<path id="XMLID_72_" class="st2" d="M144.2,96.1c-0.4,0.4-1,0.9-1.9,0.9c-1.3,0-2.4-1-2.4-2.5c0-1.4,0.9-2.5,2.2-2.5
			s2.2,1,2.2,2.3c0,0,0,0.1,0,0.2h-3.9c0,1,0.7,1.8,1.8,1.8c0.6,0,1.1-0.2,1.5-0.7L144.2,96.1z M140.5,94h3.2
			c-0.1-0.8-0.8-1.4-1.6-1.4C141.3,92.6,140.7,93.2,140.5,94z"/>
	</g>
</g>
</svg>
