<?xml version="1.0" encoding="utf-8"?>
<!-- Generator: Adobe Illustrator 25.2.0, SVG Export Plug-In . SVG Version: 6.00 Build 0)  -->
<svg version="1.1" id="Layer_1" xmlns="http://www.w3.org/2000/svg" xmlns:xlink="http://www.w3.org/1999/xlink" x="0px" y="0px"
	 viewBox="0 0 516 426.5" style="enable-background:new 0 0 516 426.5;" xml:space="preserve">
<style type="text/css">
	.st0{fill:#6F7072;}
	.st1{fill:#EC1C24;}
	.st2{fill:#FEFEFE;}
	.st3{fill-rule:evenodd;clip-rule:evenodd;fill:#6F7072;}
</style>
<g>
	<g>
		<g>
			<path class="st0" d="M258.7,354.8h-27.1c-3.5,5.3-5.6,12-5.6,18.9c0,18.3,14.1,33.2,31.6,33.2c2.7,0,5.6-0.5,8.2-1.3h-0.3
				c-13.6,0-24.7-11.4-24.7-25.8C240.9,367.8,248.6,358,258.7,354.8"/>
			<path class="st0" d="M271.5,335.4c13.3,5.8,22.3,19.4,22.3,35.1c0,21.3-16.2,38.3-36.2,38.3s-35.9-17-35.9-38.3
				c0-15.7,9-29.2,22.1-35.1h-37.7c-1.9,5.6-2.7,11.7-2.7,17.8c0,31.6,24.2,57.4,54.2,57.4c30.3,0,54.5-25.8,54.5-57.4
				c0-6.1-1.1-12.2-2.7-17.8H271.5"/>
		</g>
	</g>
	<g>
		<rect x="225.2" y="15.6" class="st1" width="65.1" height="62.6"/>
		<polyline class="st2" points="277.7,53.2 263,53.2 263,66.6 251.5,66.6 251.5,53.2 236.8,53.2 236.8,41.6 251.5,41.6 251.5,27.2 
			263,27.2 263,41.6 277.7,41.6 277.7,53.2 		"/>
	</g>
	<g>
		<g>
			<g>
				<path class="st0" d="M34.5,307.5c0.3,0,2.1,0,2.4,0c0,3.4,2.7,5.1,5.8,5.1c4.1,0,5.1-2.1,5.1-3.8c0-5.8-13-2.1-13-9.6
					c0-4.1,3.4-6.2,7.5-6.2c5.5,0,7.2,3.4,7.2,6.5c-0.7,0-2.1,0-2.4,0c-0.3-3.1-2.4-4.5-5.1-4.5c-2.7,0-4.5,1.4-4.5,3.8
					c0,5.1,13,1.7,13,9.9c0,4.5-4.1,6.2-7.9,6.2C38.3,315,34.5,312.9,34.5,307.5"/>
				<path class="st0" d="M105.1,307.5c0.7,0,2.1,0,2.4,0c0,3.4,2.7,5.1,5.8,5.1c4.1,0,5.1-2.1,5.1-3.8c0-5.8-12.7-2.1-12.7-9.6
					c0-4.1,3.4-6.2,7.2-6.2c5.5,0,7.5,3.4,7.5,6.5c-0.7,0-2.1,0-2.7,0c-0.3-3.1-2.1-4.5-4.8-4.5c-2.7,0-4.5,1.4-4.5,3.8
					c0,5.1,12.7,1.7,12.7,9.9c0,4.5-3.8,6.2-7.9,6.2C109.2,315,105.1,312.9,105.1,307.5"/>
				<path class="st0" d="M129.7,307.5c0.3,0,2.1,0,2.4,0c0,3.4,2.7,5.1,5.8,5.1c4.1,0,5.1-2.1,5.1-3.8c0-5.8-12.7-2.1-12.7-9.6
					c0-4.1,3.4-6.2,7.2-6.2c5.5,0,7.2,3.4,7.2,6.5c-0.3,0-2.1,0-2.4,0c-0.3-3.1-2.4-4.5-5.1-4.5c-2.7,0-4.5,1.4-4.5,3.8
					c0,5.1,13,1.7,13,9.9c0,4.5-4.1,6.2-7.9,6.2C133.5,315,129.7,312.9,129.7,307.5"/>
				<polyline class="st0" points="75.3,314.7 70.8,296.9 66.4,314.7 63.3,314.7 58.1,293.4 60.9,293.4 65,310.9 69.4,293.4 
					72.5,293.4 77,310.9 81.1,293.4 83.5,293.4 78.4,314.7 75.3,314.7 				"/>
				<rect x="92.7" y="293.4" class="st0" width="2.4" height="21.2"/>
			</g>
			<g>
				<path class="st0" d="M175.2,293.4c-2.4,0-6.8,0-6.8,0v21.2c0,0,4.8,0,6.8,0c8.6,0,9.6-6.5,9.6-11.3
					C184.8,298.6,183.1,293.4,175.2,293.4 M175.6,312.3c-2.7,0-4.5,0-4.5,0v-16.4c0,0,2.4,0,4.5,0c6.2,0,6.5,4.8,6.5,8.2
					C182.1,307.5,181.1,312.3,175.6,312.3z"/>
				<polyline class="st0" points="208.4,293.4 208.4,295.8 197.1,295.8 197.1,302.7 207.8,302.7 207.8,305.1 197.1,305.1 
					197.1,312.3 208.4,312.3 208.4,314.7 194.7,314.7 194.7,293.4 208.4,293.4 				"/>
				<path class="st0" d="M230.4,307.8c-0.3-1.4-1.4-2.4-3.1-2.4c-1.7,0-6.5,0-6.5,0v9.2H218v-21.2c0,0,6.8,0,9.6,0s6.2,1.4,6.2,5.5
					c0,4.8-3.8,5.5-3.8,5.5s2.1,0.3,2.7,2.1c1,2.4,0,5.8,1.7,8.2c-1,0-2.4,0-3.1,0C230.4,314,231.1,310.2,230.4,307.8 M231.1,299.6
					c0-2.1-1-3.8-3.8-3.8c-2.4,0-6.5,0-6.5,0v7.5c0,0,3.1,0,5.5,0C231.1,303.4,231.1,300.3,231.1,299.6z"/>
				<polyline class="st0" points="247.5,293.4 253.7,311.2 260.2,293.4 263.6,293.4 263.6,314.7 261.2,314.7 261.2,296.9 255,314.7 
					252.6,314.7 246.5,296.9 246.5,314.7 243.7,314.7 243.7,293.4 247.5,293.4 				"/>
				<path class="st0" d="M283.1,293.4l7.5,21.2h-2.7l-2.4-6.5h-8.2l-2.4,6.5h-2.4l7.5-21.2H283.1 M284.8,305.8l-3.4-9.6l-3.4,9.6
					H284.8z"/>
				<polyline class="st0" points="294.4,295.8 294.4,293.4 310.5,293.4 310.5,295.8 303.7,295.8 303.7,314.7 301.3,314.7 
					301.3,295.8 294.4,295.8 				"/>
				<path class="st0" d="M327.6,293.1c-6.2,0-9.6,5.1-9.6,11c0,5.8,3.4,11,9.6,11c6.2,0,9.6-5.1,9.6-11
					C337.2,298.2,334.1,293.1,327.6,293.1 M327.6,312.6c-4.5,0-6.8-3.8-6.8-8.6c0-4.8,2.4-8.9,6.8-8.9c4.5,0,6.8,4.1,6.8,8.9
					C334.5,308.8,332.1,312.6,327.6,312.6z"/>
				<path class="st0" d="M377.3,293.1c-6.2,0-9.6,5.1-9.6,11c0,5.8,3.4,11,9.6,11c6.5,0,9.6-5.1,9.6-11
					C386.9,298.2,383.8,293.1,377.3,293.1 M377.3,312.6c-4.5,0-6.8-3.8-6.8-8.6c0-4.8,2.4-8.9,6.8-8.9c4.5,0,7.2,4.1,7.2,8.9
					C384.5,308.8,381.7,312.6,377.3,312.6z"/>
				<polyline class="st0" points="349.6,293.4 349.6,312.3 360.2,312.3 360.2,314.7 346.8,314.7 346.8,293.4 349.6,293.4 				"/>
				<path class="st0" d="M405,315c-5.1,0-9.2-4.5-9.2-10.6c0-6.2,3.4-11.3,9.2-11.3c8.2,0,8.9,6.8,8.9,6.8h-2.7c0,0-0.3-4.8-6.2-4.8
					c-5.1,0-6.5,5.8-6.5,9.2c0,3.1,1.7,8.2,6.5,8.2c3.8,0,6.5-2.1,6.5-6.8c-1,0-6.5,0-6.5,0v-2.4h8.9v11.3h-1.7l-0.7-2.7
					C411.5,311.9,409.5,315,405,315"/>
				<rect x="424.6" y="293.4" class="st0" width="2.7" height="21.2"/>
				<path class="st0" d="M446.5,295.1c-4.1,0-6.8,3.4-6.8,8.9c0,5.1,2.7,8.6,6.8,8.6c4.5,0,5.8-4.1,5.8-5.8c1,0,2.1,0,2.7,0
					c-0.3,3.4-2.1,8.2-8.6,8.2c-6.5,0-9.2-4.8-9.2-11c0-5.8,3.1-11,9.2-11c4.8,0,7.9,2.7,8.2,6.8c-0.7,0-2.7,0-2.7,0
					S451.6,295.1,446.5,295.1"/>
				<path class="st0" d="M473.2,293.4l7.9,21.2H478l-2.1-6.5h-8.6l-2.1,6.5h-2.7l7.5-21.2H473.2 M474.9,305.8l-3.1-9.6h-0.3
					l-3.4,9.6H474.9z"/>
			</g>
		</g>
	</g>
	<g>
		<g>
			<path class="st3" d="M429.7,229.8c0-6.2-2.2-16.2-12.5-16.2c-7.5,0-14.7,5.3-16.6,16.2H429.7 M444.1,235.7h-44
				c0,16.9,12.8,24,22.2,24c7.5,0,13.7-3.4,19.4-6.9l3.1,4.4c-4.1,3.1-14.7,8.7-19.7,10.3c-2.5,0.6-5.3,0.9-8.1,0.9
				c-18.1,0-30-12.5-30-30c0-18.1,15.3-31.2,32.8-31.2C435,207.3,444.1,216.6,444.1,235.7z"/>
			<path class="st0" d="M25.9,199.2c-4.1-9.7-6.2-12.8-11.9-12.8h-1.6v-5h37.8v5c-4.1,0.3-10.9-0.3-10.9,4.7c0,1.9,0.6,3.4,1.2,5.3
				c4.4,13.1,10,25.6,15.3,38.4c1.2,2.8,1.2,2.8,2.5,5.9c0.9,1.9,1.6,3.1,2.2,4.4c1.9-4.1,5.6-11.6,9.1-19.1c5-10,9.4-19.4,9.7-20.3
				l-5.6-12.8c-1.9-4.4-2.5-6.6-9.1-6.6h-1.2v-5h38.4v5c-3.7,0-12.2-0.3-12.2,4.4c0,1.6,0.9,6.2,4.1,14.1l15.6,40l6.6-13.4
				c11.9-25,16.9-36.2,16.9-40.9c0-4.1-5.3-4.1-8.4-4.1v-5h33.1v5h-1.2c-9.4,0-12.2,4.7-20.6,22.8c-2.5,5-8.7,17.8-14.7,30.3
				c-1.9,4.4-10.6,22.5-12.5,29h-5.6c-4.1-16.9-12.2-36.9-18.7-52.8c-7.8,14.4-14.7,30-21.5,44.7c-1.2,2.8-2.2,5.3-2.8,8.1h-5.9
				c-0.3-2.2-0.9-4.1-1.6-5.9C50,256,49.3,253.8,44,241C39.3,229.1,27.8,203.2,25.9,199.2"/>
			<path class="st0" d="M156.4,226c-1.2-4.1-3.4-4.4-7.8-4.7v-4.1c7.2-0.9,15.3-5.3,21.9-8.4c-0.3,4.1-0.6,7.8-0.6,11.9v28.1
				c0,10.3-0.3,12.8,11.9,13.4v4.7h-35.9v-4.7c7.2-0.6,9.4-1.2,10.6-5c1.6-4.7,1.2-12.2,1.2-16.9C157.7,235.7,158,230.7,156.4,226
				 M164.3,205.7c-5,0-8.7-3.7-8.7-8.1c0-4.1,3.7-7.8,8.7-7.8c5,0,8.7,3.7,8.7,7.8C173,202,169.3,205.7,164.3,205.7z"/>
			<path class="st0" d="M277,222c-1.2-4.1-3.7-4.4-7.8-4.7v-4.1c7.2-0.6,15.3-5,21.2-8.1v12.2c6.2-4.1,15.9-9.7,23.1-9.7
				c6.2,0,12.8,2.5,15.6,10c6.9-4.1,15.6-10,24.4-10c9.4,0,16.9,5.6,16.9,15.9v25.3c0,10.6-0.6,12.8,11.9,13.4v4.7h-33.1v-4.7
				c4.4-0.6,6.6-0.9,7.8-5.3c1.6-6.6,0.9-17.5,0.9-24c0-6.9,0-15.9-10.9-15.9c-5,0-10.3,3.4-14.4,5.6c-1.6,0.9-2.2,1.6-2.2,5.6v20.6
				c0,10.3-0.6,12.8,11.9,13.4v4.7h-33.1v-4.7c4.1-0.6,6.6-1.2,7.8-5c1.2-4.7,0.9-12.8,0.9-17.5v-10.6c0-6.6-1.6-12.2-10.9-12.2
				c-4.7,0-10.3,3.4-14.1,5.6c-1.6,0.9-2.5,1.6-2.5,5.6v20.6c0,10.3-0.6,12.8,11.9,13.4v4.7h-33.1v-4.7c4.1-0.6,6.6-1.2,7.8-5
				c1.6-4.7,1.2-12.8,1.2-17.5C278.2,235.1,278.6,226.6,277,222"/>
			<path class="st0" d="M487.2,266.9h-34.4v-4.7c4.4-0.6,6.9-1.2,8.1-5c1.2-4.7,0.9-12.8,0.9-17.5c0-4.7,0.3-13.1-0.9-17.8
				c-1.2-4.1-3.7-4.4-8.1-4.7v-4.1c7.2-0.6,15.3-5,21.5-8.1v12.2l4.7-3.1c6.2-3.7,10.9-6.6,14.7-6.6c6.2,0,9.4,5.3,9.4,9.7
				c0,1.6,0,3.4-1.9,4.4c-1.6,0.9-6.6,2.8-8.7,2.8c-1.9,0-2.5-1.2-2.5-2.8c0-2.5-0.3-3.1-2.2-3.1c-1.9,0-8.7,2.5-11.2,4.1
				c-1.6,0.9-2.2,1.6-2.2,5.6v20.6c0,10.3-0.6,12.8,12.8,13.4V266.9"/>
			<path class="st3" d="M203.3,242.9c1.9,8.7,7.8,16.6,17.5,16.6c3.1,0,8.7-1.2,13.7-5c2.2-1.6,2.5-2.5,2.5-6.9v-19.1
				c0-8.1-6.6-14.4-16.2-14.4c-9.7,0-18.1,7.8-18.1,22.8C202.7,239.1,203,241,203.3,242.9 M235.1,184.8c-1.2-3.4-3.7-3.1-6.9-3.4
				v-4.1c7.2-0.9,15.3-5.3,21.5-8.4c0,3.7-0.3,7.8-0.3,11.9V241c0,7.8,0.3,12.5,1.2,15.3c0.6,2.5,1.6,2.8,2.8,2.8
				c1.9,0,3.7-0.6,5.3-1.2l1.9,4.7c-4.1,1.2-8.4,2.5-12.2,4.4c-1.6,0.6-3.1,1.2-4.7,1.9c-3.1-2.2-5-6.2-5.9-9.7
				c-5,3.4-13.1,9.4-21.9,9.4c-14.4,0-27.8-12.2-27.8-29.7c0-18.1,15.3-31.2,34.4-31.2c5,0,10,0.9,14.4,2.8
				C237,194.2,236.4,187.6,235.1,184.8z"/>
			<path class="st0" d="M176.1,141.7c0-18.1,15.3-31.2,34-31.2c17.8,0,32.5,12.2,32.5,30c0,18.1-13.7,30.9-33.7,30.9
				C190.5,171.4,176.1,159.8,176.1,141.7 M209.2,164.8c13.1,0.3,18.4-10.3,18.7-21.2c0.9-11.9-4.4-25.3-18.7-25.9
				c-9.7-0.3-18.1,6.9-18.7,21.5C189.9,152,196.1,164.2,209.2,164.8z"/>
			<path class="st0" d="M163.3,145.1h6.2l-9.1,25H92.7v-5h1.6c5.3,0,7.2-1.2,8.4-5.6c1.9-7.8,2.2-20.9,2.2-29s-0.3-21.5-2.2-29.4
				c-1.2-4.4-3.1-5.3-8.4-5.3h-1.6v-5H133v5h-2.2c-10.3,0-12.8,1.6-12.8,11.9v38.1c0,5.6,0,12.5,0.3,16.9c2.8,0.6,7.5,0.6,13.7,0.6
				C145.5,163.2,153,161.1,163.3,145.1"/>
			<path class="st0" d="M256.7,123c-1.6-2.2-4.4-2.2-6.9-2.8v-3.7c7.2-0.9,15.3-5.3,21.5-8.4v33.1c0,4.7-0.3,11.2,1.6,15.6
				c1.6,3.1,4.4,5.3,10.9,5.3c6.2,0,11.6-2.2,15.9-6.2c1.9-1.6,1.9-3.7,1.9-5.9v-15.6c0-6.6-1.2-9.7-2.5-11.2
				c-1.6-2.2-4.1-2.2-6.6-2.8v-3.7c7.2-0.9,15-5.3,21.2-8.4v44.7c0,2.2,0,10.3,4.1,10.3c1.9,0,4.4-1.2,6.2-2.2l2.2,5l-11.9,4.4
				c-1.2,0.6-2.8,1.2-4.4,1.2c-3.7,0-7.2-4.4-8.1-9.7c-7.8,5-15.9,9.7-25,9.7c-12.5,0-18.4-6.6-18.4-17.5c0-5,0.3-13.1,0.3-19.7
				C258.9,127.6,257.9,124.5,256.7,123"/>
			<path class="st0" d="M342,125.1c-1.2-4.1-3.7-4.4-7.8-5v-4.1c7.2-0.6,15.3-5,21.5-8.1c0,3.7-0.3,7.8-0.3,11.6V152
				c0,10.3-0.6,12.5,11.6,13.1v5h-32.8v-5c4.1-0.6,6.6-0.9,7.8-5c1.2-4.4,0.9-12.8,0.9-17.5S343.2,129.5,342,125.1 M349.8,104.5
				c-5,0-9.1-3.4-9.1-7.8c0-4.4,4.1-7.8,9.1-7.8c4.7,0,8.7,3.4,8.7,7.8C358.5,101.1,354.4,104.5,349.8,104.5z"/>
			<path class="st0" d="M416.6,140.8c3.7,1.9,6.2,5,6.2,9.7c0,15.3-17.8,20.9-28.4,20.9c-9.1,0-19.4-1.9-19.4-11.6
				c0-2.2,2.5-3.1,4.7-3.7c2.5-0.6,5.6-1.6,6.6-1.6c1.9,0,2.8,1.2,2.8,2.8c0,5,3.4,7.5,8.4,7.5c6.9,0,12.2-4.7,12.2-10
				c0-6.9-10.6-8.7-16.2-10.6c-8.4-2.2-18.7-5-18.7-14.4c0-9.4,11.2-19.4,29-19.4c12.8,0,16.6,7.2,16.6,10.3c0,1.2-0.9,2.8-2.5,3.4
				c-1.2,0.3-7.8,1.6-8.4,1.6c-2.8,0-3.1-2.5-3.1-4.4c-0.6-2.5-1.6-4.1-6.2-4.1c-6.2,0-11.9,3.7-11.9,8.1c0,6.9,10.6,9.1,16.2,10.6
				C408.5,137.3,413.2,138.6,416.6,140.8"/>
		</g>
	</g>
</g>
</svg>
