<svg viewBox="0 0 122 48" version="1.1" xmlns="http://www.w3.org/2000/svg" xmlns:xlink="http://www.w3.org/1999/xlink">
    <defs>
        <polygon id="path-1" points="0.337008075 0.113562791 3.24804337 0.113562791 3.24804337 20.9325395 0.337008075 20.9325395"></polygon>
        <polygon id="path-3" points="0 0.212465116 12.6137836 0.212465116 12.6137836 20.9458605 0 20.9458605"></polygon>
        <polygon id="path-5" points="0.233201361 0.0238139535 13.8295348 0.0238139535 13.8295348 13.2334512 0.233201361 13.2334512"></polygon>
    </defs>
    <g stroke="none" stroke-width="1" fill="none" fill-rule="evenodd">
        <g transform="translate(0.000000, -9.000000)">
            <g transform="translate(0.000000, 9.000000)">
                <polygon fill="#009B98" points="99.3488372 15.6331566 102.68377 15.627907 102.697674 18.9605578 99.3640056 18.9767442"></polygon>
                <g>
                    <path d="M16.9361997,32.9985488 C14.6522517,32.9985488 13.176339,31.4826419 13.176339,29.1362233 L13.176339,21.5849674 L16.0908135,21.2039442 L16.0908135,28.4102698 C16.0908135,28.8686884 16.2032358,30.3689674 17.63736,30.3689674 C19.3148192,30.3689674 19.9098439,29.0171535 19.9098439,27.8584558 L19.9098439,21.5849674 L22.8306052,21.2046884 L22.8306052,32.6484093 L20.0514812,32.8404093 L20.0514812,31.6627349 C19.2530609,32.6432 18.3980596,32.9985488 16.9361997,32.9985488" fill="#ED772F"></path>
                    <path d="M25.5469354,21.5813953 L28.3238405,21.2937674 L28.3238405,22.9477209 C29.2402303,21.5426977 30.4321287,21.2431628 32.1225314,21.224186 L32.3266666,21.2223256 L31.3233714,24.3936744 L31.2153868,24.3936744 C28.9462312,24.3936744 28.4702854,25.9888372 28.4702854,27.3268837 L28.4702854,32.648186 L25.5469354,32.8394419 L25.5469354,21.5813953 Z" fill="#ED772F"></path>
                    <path d="M38.7958312,23.7692651 C37.274062,23.7692651 35.9682621,25.0485209 35.8236663,26.6797767 C35.8236663,26.8267535 35.8236663,26.9811721 35.8366096,27.1430326 L40.3996982,24.3054512 C39.9762655,23.9456372 39.4500255,23.7692651 38.7958312,23.7692651 M39.7521605,33.0448 C39.4932933,33.0448 39.2188941,33.0299163 38.9289629,32.9979163 C36.0584958,32.684986 32.9687312,30.7110326 32.9687312,27.1162419 C32.9687312,23.8674977 35.6494856,21.2241488 38.9448647,21.2241488 C41.1293338,21.2241488 43.0959847,22.536893 44.0782007,24.6492651 L44.1333024,24.7675907 L36.9471498,29.3558698 C37.1261379,29.660614 37.6216837,30.2444279 38.7958312,30.2444279 C40.0561445,30.2444279 41.0080361,29.7636837 42.1359573,28.988614 L42.2764852,28.892986 L43.5253344,31.4719628 L43.4450856,31.5463814 C42.3075493,32.5968 41.2032959,33.0448 39.7521605,33.0448" fill="#009B98"></path>
                    <path d="M49.5412595,32.9985488 C47.9107662,32.9985488 46.4322648,32.3444093 45.4851808,31.2054326 L45.3997546,31.1008744 L47.2340134,29.2322233 L47.3382999,29.3472 C48.0527733,30.1308279 48.7088167,30.4497116 49.6011688,30.4497116 C50.3944118,30.4497116 50.9269385,29.9563163 50.9269385,29.4964093 C50.9269385,28.8512 50.2538839,28.6156651 49.1551776,28.283014 C47.6315594,27.823107 45.7351725,27.2504558 45.7351725,24.6882233 C45.7351725,22.3086884 47.80574,21.2240372 49.7283835,21.2240372 C51.2741903,21.2240372 52.728654,21.8874791 53.7215945,23.0417116 L53.8151565,23.1507349 L51.8843772,24.9222698 L51.7852681,24.8121302 C51.1580699,24.1107349 50.5452943,23.7691535 49.9129188,23.7691535 C49.1463022,23.7691535 48.8053371,24.0735256 48.8053371,24.7525953 C48.8053371,25.3166884 49.456573,25.5258047 50.5190378,25.8197581 C51.9816373,26.2249674 53.985639,26.7805023 53.985639,29.2832 C53.985639,31.8495256 51.7534644,32.9985488 49.5412595,32.9985488" fill="#009B98"></path>
                    <path d="M59.7522011,32.9985488 C58.1220776,32.9985488 56.6424668,32.3444093 55.6920544,31.2054326 L55.6062585,31.1008744 L57.4419965,29.2322233 L57.5466528,29.3475721 C58.2540998,30.1308279 58.9116224,30.4497116 59.8150689,30.4497116 C60.5931496,30.4497116 61.1356612,29.947014 61.1356612,29.4964093 C61.1356612,28.8512 60.4614972,28.6156651 59.3635305,28.283014 C57.8399123,27.823107 55.9435254,27.2504558 55.9435254,24.6882233 C55.9435254,22.3086884 58.015942,21.2240372 59.941544,21.2240372 C61.4855017,21.2240372 62.938856,21.8874791 63.9280984,23.0417116 L64.0212906,23.1507349 L62.0945792,24.9222698 L61.9958399,24.8121302 C61.3667926,24.1107349 60.7540171,23.7691535 60.1205321,23.7691535 C59.3513268,23.7691535 59.0077731,24.0735256 59.0077731,24.7525953 C59.0077731,25.3166884 59.6604882,25.5258047 60.7248021,25.8197581 C62.1910997,26.2249674 64.1984297,26.7805023 64.1984297,29.2832 C64.1984297,31.8495256 61.9655154,32.9985488 59.7522011,32.9985488" fill="#009B98"></path>
                    <path d="M71.7280621,23.7692651 C70.208142,23.7692651 68.9008628,25.0485209 68.7525689,26.6797767 C68.7533085,26.832707 68.7533085,26.9863814 68.7684707,27.1445209 L73.3374763,24.3043349 C72.9162624,23.9456372 72.3870639,23.7692651 71.7280621,23.7692651 M71.8782051,32.9986605 C68.5820863,32.9986605 65.9002225,30.3601488 65.9002225,27.1162419 C65.9002225,23.8674977 68.5820863,21.2241488 71.8782051,21.2241488 C74.0611949,21.2241488 76.0285854,22.536893 77.0144995,24.6492651 L77.0692314,24.7675907 L69.8786411,29.3558698 C70.0739009,29.6907535 70.5720353,30.2444279 71.7280621,30.2444279 C72.9835679,30.2444279 73.9417462,29.7636837 75.0796523,28.988614 L75.22055,28.892986 L76.4682898,31.4861023 L76.3662222,31.5582884 C75.0537656,32.4877767 73.4595137,32.9986605 71.8782051,32.9986605" fill="#009B98"></path>
                    <path d="M85.8072188,25.8186791 C85.8072188,25.3587721 85.6947965,23.8599814 84.253646,23.8599814 C82.5832131,23.8599814 81.9900375,25.2099349 81.9900375,26.3675163 L81.9900375,32.6480744 L79.0626196,32.8393302 L79.0626196,21.5812837 L81.8476606,21.2936558 L81.8476606,22.5572837 C82.6475601,21.5794233 83.5018218,21.2240744 84.9555458,21.2240744 C87.2424524,21.2240744 88.7209537,22.7437023 88.7209537,25.0949581 L88.7209537,32.6480744 L85.8072188,32.8393302 L85.8072188,25.8186791 Z" fill="#009B98"></path>
                    <path d="M96.1322839,32.9985488 C93.6830306,32.9985488 92.1620011,31.5581767 92.1620011,29.2385488 L92.1620011,24.1981767 L90.5163455,24.1981767 L91.1694304,21.567107 L92.1620011,21.567107 L92.1620011,17.8826419 L95.083502,16.5338047 L95.083502,21.567107 L97.4632309,21.567107 L97.4632309,24.1981767 L95.083502,24.1981767 L95.083502,28.6647814 C95.083502,29.787014 95.6119609,30.2446884 96.9040778,30.2446884 C97.184394,30.2446884 97.5187025,30.2197581 97.7990186,30.1966884 L98.0053727,30.1806884 L97.2960767,32.8854326 L97.2143486,32.9081302 C96.917391,32.987386 96.4096415,32.9985488 96.1322839,32.9985488" fill="#009B98"></path>
                    <polygon fill="#009B98" points="99.4161618 21.5806884 102.340621 21.2941767 102.340621 32.6482233 99.4161618 32.8394791"></polygon>
                    <path d="M110.312584,23.7692651 C108.793773,23.7692651 107.487233,25.0485209 107.33894,26.6797767 C107.339679,26.8256372 107.339679,26.9804279 107.350034,27.1415442 L111.910534,24.3043349 C111.496346,23.9497302 110.960121,23.7692651 110.312584,23.7692651 M110.4557,32.9986605 C107.16217,32.9986605 104.483265,30.3601488 104.483265,27.1162419 C104.483265,23.8674977 107.16217,21.2241488 110.4557,21.2241488 C112.629815,21.2241488 114.599054,22.536893 115.594583,24.6492651 L115.650425,24.7675907 L108.454657,29.3558698 C108.650287,29.6918698 109.149161,30.2444279 110.312584,30.2444279 C111.572157,30.2444279 112.527747,29.7636837 113.660476,28.988614 L113.801743,28.8922419 L115.044306,31.4861023 L114.941868,31.5582884 C113.631261,32.4877767 112.037748,32.9986605 110.4557,32.9986605" fill="#009B98"></path>
                    <g transform="translate(117.229847, 11.906977)">
                        <mask id="mask-2" fill="white">
                            <use xlink:href="#path-1"></use>
                        </mask>
                        <g></g>
                        <polygon fill="#009B98" mask="url(#mask-2)" points="0.337008075 0.492725581 3.24815432 0.113562791 3.24815432 20.7412837 0.337008075 20.9325395"></polygon>
                    </g>
                    <g transform="translate(0.000000, 11.906977)">
                        <mask id="mask-4" fill="white">
                            <use xlink:href="#path-3"></use>
                        </mask>
                        <g></g>
                        <path d="M5.29043139,9.984 C8.18382674,9.984 9.41899295,8.87293023 9.41899295,6.26827907 C9.41899295,3.54493023 6.83180049,3.13823256 5.29043139,3.13823256 L3.19027901,3.13823256 L3.19027901,9.984 L5.29043139,9.984 Z M-7.39620488e-05,0.212465116 L5.61290592,0.212465116 C9.73518071,0.212465116 12.6137836,2.70288372 12.6137836,6.26827907 C12.6137836,10.6173023 9.84649359,12.9164651 4.61035035,12.9164651 L3.19027901,12.9164651 L3.19027901,20.568186 L-7.39620488e-05,20.9458605 L-7.39620488e-05,0.212465116 Z" fill="#ED772F" mask="url(#mask-4)"></path>
                    </g>
                    <g transform="translate(53.252675, 0.000000)">
                        <mask id="mask-6" fill="white">
                            <use xlink:href="#path-5"></use>
                        </mask>
                        <g></g>
                        <path d="M3.29585984,3.02582326 C3.23410153,3.09652093 3.17419227,3.16982326 3.11613206,3.24684651 C2.47931882,4.08814884 2.11542554,5.25056744 2.11690029,6.43456744 C2.14870846,7.83177674 2.68752199,11.1125209 6.99692076,11.3339163 L7.33085941,11.3402419 C11.0448637,11.2851721 11.8898801,8.85540465 11.9461336,6.82749767 C11.9508988,5.58507907 11.5459566,4.29466047 10.8636567,3.38117209 C10.1343909,2.41373023 9.22539729,1.92070698 8.1644117,1.9140093 L8.02684229,1.77373023 L8.03719698,1.92070698 C5.4281857,2.0952186 5.01547747,3.32163721 4.95667764,4.49819535 C4.93633808,5.81428837 5.87269762,7.2903814 6.84603818,7.47419535 C7.02613577,7.51698605 7.19365981,7.53670698 7.3811536,7.53670698 C8.29458491,7.53670698 8.67327059,6.93317209 8.67327059,6.61056744 L8.65921781,6.51270698 C8.63887824,6.23549767 8.10339301,5.83996279 7.75207328,5.70861395 C7.67441313,5.67363721 7.48063256,5.60405581 7.48063256,5.60405581 L7.51021738,5.46526512 L8.06049502,3.66396279 L8.22653982,3.88052093 C8.22358134,3.87605581 8.22469077,3.87345116 8.22912849,3.87345116 C8.23800394,3.87345116 8.25538502,3.87977674 8.27757363,3.8875907 C9.48315503,4.32368372 10.2331302,5.08386977 10.5060502,6.14582326 C10.5371142,6.31028837 10.5567142,6.46135814 10.5567142,6.61056744 C10.5378538,8.19084651 9.14403904,9.4288 7.3811536,9.43066047 C7.06052812,9.43066047 6.74618941,9.39382326 6.42186583,9.32014884 C4.15529884,8.72740465 3.09912079,6.40256744 3.0743435,4.49261395 C3.05844166,3.99512558 3.13425276,3.4983814 3.29585984,3.02582326 L3.29585984,3.02582326 Z M7.31865567,13.2278698 C7.28389351,13.2278698 7.0346414,13.2278698 6.94033979,13.2241488 C2.46304717,13.0827535 0.178359481,9.70042791 0.234200828,6.43270698 C0.23826874,4.82414884 0.727897503,3.28591628 1.61174399,2.10377674 C2.59839772,0.785823256 4.06432552,0.0297302326 5.6338002,0.0297302326 C6.01544437,0.0297302326 6.39634892,0.0725209302 6.80979678,0.161451163 C7.10823364,0.084055814 7.50319098,0.0405209302 7.95251043,0.0297302326 C8.01537817,0.0260093023 8.08786098,0.0237767442 8.16552113,0.0237767442 C9.80304089,0.0237767442 11.3362742,0.836427907 12.379139,2.25335814 C13.3095816,3.51363721 13.8243575,5.14005581 13.8295348,6.8312186 C13.8295348,8.53019535 13.2792572,10.0896372 12.2815091,11.2230326 C11.1447125,12.5197767 9.39957791,13.2334512 7.36710081,13.2334512 L7.31865567,13.2278698 Z" fill="#009B98" mask="url(#mask-6)"></path>
                    </g>
                    <path d="M0.267668655,35.4175256 C2.7132238,36.1974326 5.17837888,36.8731535 7.64612264,37.5302698 C10.1168249,38.1762233 12.591595,38.7868279 15.0733916,39.3501767 C16.3137351,39.631107 17.5581466,39.9090605 18.79886,40.1650605 C20.0366149,40.4180837 21.2773282,40.6610605 22.5239586,40.875014 C23.7698493,41.0874791 25.0179589,41.291014 26.2697665,41.4755721 C27.520095,41.6623628 28.7752309,41.8234791 30.0299971,41.9857116 C31.2862425,42.1449674 32.5439671,42.2882233 33.8028012,42.4177116 C35.0620051,42.5475721 36.3215788,42.6755721 37.5837411,42.7849674 C40.1065866,43.0037581 42.6342396,43.1812465 45.1637417,43.3308279 C50.2238553,43.6229209 55.2935839,43.7795721 60.366271,43.8212465 C70.5138641,43.9057116 80.6348309,43.5678512 90.6648243,42.2506419 C95.6772324,41.5994791 100.664123,40.7045953 105.607007,39.5421767 C106.844022,39.2567814 108.075491,38.9442233 109.30511,38.6223628 C110.536948,38.3012465 111.761019,37.9537116 112.98731,37.6002233 C115.433605,36.8858047 117.868066,36.1010605 120.299568,35.2735256 C118.05519,36.5263628 115.740178,37.6578977 113.380049,38.6934326 C112.201094,39.2165953 111.006976,39.7029209 109.806572,40.1765953 C108.604689,40.6458047 107.390972,41.0863628 106.171338,41.5124093 C101.287624,43.2017116 96.2637514,44.5062698 91.1825587,45.4889674 C89.9115208,45.7330605 88.6371547,45.9581767 87.3598302,46.1676651 C86.081766,46.3715721 84.8011131,46.5531535 83.5175017,46.7209674 C80.9517583,47.0603163 78.3782488,47.3200372 75.8006714,47.5146419 C70.6455166,47.9057116 65.4811165,48.0359442 60.3300296,47.9916651 C55.1770937,47.9455256 50.0226785,47.7163163 44.8819463,47.2709209 C42.3117651,47.0498977 39.7460216,46.7708279 37.1861951,46.4277581 C35.9062819,46.2562233 34.627478,46.0783628 33.3523723,45.8733395 C32.0768968,45.6690605 30.8040099,45.4484093 29.5333419,45.2128744 C28.2608249,44.9806884 26.9953342,44.715014 25.730953,44.4396651 C24.4673114,44.1617116 23.2073679,43.8666419 21.954081,43.5392 C20.7007941,43.2121302 19.4515751,42.8738977 18.2101221,42.4925023 C16.9753257,42.1114791 15.7490349,41.7211535 14.5286611,41.3096186 C12.0882833,40.4820837 9.66898468,39.5961302 7.28592746,38.6238512 C4.9047193,37.6489674 2.54052241,36.6253395 0.267668655,35.4175256" fill="#009B98"></path>
                </g>
            </g>
        </g>
    </g>
</svg>
