<?xml version="1.0" encoding="utf-8"?>
<!-- Generator: Adobe Illustrator 25.2.0, SVG Export Plug-In . SVG Version: 6.00 Build 0)  -->
<svg version="1.1" id="Layer_1" xmlns="http://www.w3.org/2000/svg" xmlns:xlink="http://www.w3.org/1999/xlink" x="0px" y="0px"
	 viewBox="0 0 245.5 35.4" style="enable-background:new 0 0 245.5 35.4;" xml:space="preserve">
<style type="text/css">
	.st0{fill:#A0A038;}
	.st1{fill:#704018;}
	.st2{fill:#D02028;}
</style>
<g id="Group_315" transform="translate(-564 -34)">
	<g id="Group_6" transform="translate(-301.5 -44)">
		<g id="Group_1" transform="translate(1055.139 78)">
			<circle id="Ellipse_1" class="st0" cx="49.2" cy="18" r="2.8"/>
			<circle id="Ellipse_2" class="st0" cx="43.1" cy="11.9" r="2.8"/>
			<circle id="Ellipse_3" class="st0" cx="43.1" cy="24.1" r="2.8"/>
			<circle id="Ellipse_4" class="st0" cx="36.9" cy="5.8" r="2.8"/>
			<circle id="Ellipse_5" class="st0" cx="36.9" cy="30.2" r="2.8"/>
			<circle id="Ellipse_6" class="st1" cx="34.1" cy="18" r="2.8"/>
			<circle id="Ellipse_7" class="st1" cx="27.9" cy="11.9" r="2.8"/>
			<circle id="Ellipse_8" class="st1" cx="27.9" cy="24.1" r="2.8"/>
			<circle id="Ellipse_9" class="st1" cx="21.7" cy="5.8" r="2.8"/>
			<circle id="Ellipse_10" class="st1" cx="21.7" cy="30.2" r="2.8"/>
			<circle id="Ellipse_11" class="st2" cx="18.9" cy="18" r="2.8"/>
			<circle id="Ellipse_12" class="st2" cx="12.7" cy="11.9" r="2.8"/>
			<circle id="Ellipse_13" class="st2" cx="12.7" cy="24.1" r="2.8"/>
			<circle id="Ellipse_14" class="st2" cx="6.6" cy="5.8" r="2.8"/>
			<circle id="Ellipse_15" class="st2" cx="6.6" cy="30.2" r="2.8"/>
		</g>
		<g id="Group_5" transform="translate(865.5 79.897)">
			<path id="Path_1" class="st2" d="M58.4,29.2h-7.1c-1.6-2.4-3-4.5-4.2-6.3s-2.6-3.6-4.1-5.5h-2.7v8.2c0,0.4,0.1,0.8,0.2,1.1
				c0.2,0.4,0.5,0.6,0.9,0.7c0.4,0.1,0.8,0.2,1.2,0.2c0.6,0.1,1,0.1,1.4,0.1v1.3H32.9v-1.3c0.3,0,0.7-0.1,1.3-0.1
				c0.4,0,0.8-0.1,1.2-0.2c0.3-0.1,0.6-0.4,0.8-0.7c0.2-0.4,0.3-0.8,0.2-1.2V6.9c0-0.4-0.1-0.8-0.2-1.1c-0.2-0.4-0.5-0.6-0.9-0.7
				c-0.4-0.1-0.8-0.2-1.2-0.3c-0.4-0.1-0.8-0.1-1.3-0.2V3.3H45c1.1,0,2.1,0.1,3.1,0.3c0.9,0.2,1.8,0.6,2.6,1.1
				c0.8,0.5,1.4,1.1,1.8,1.9c0.5,0.9,0.7,1.8,0.7,2.8c0,0.9-0.1,1.8-0.5,2.6c-0.3,0.8-0.8,1.4-1.4,2c-0.6,0.6-1.3,1-2,1.4
				c-0.8,0.4-1.7,0.7-2.6,1c1.3,1.7,2.4,3.1,3.2,4.3c0.9,1.2,1.9,2.6,3.2,4.2c0.4,0.6,0.9,1.1,1.5,1.6c0.4,0.3,0.8,0.6,1.3,0.8
				c0.4,0.2,0.8,0.3,1.2,0.4c0.4,0.1,0.8,0.1,1.2,0.1L58.4,29.2z M48.7,9.9c0.1-1.4-0.4-2.7-1.4-3.7c-1-1-2.4-1.5-3.9-1.4h-3.1v11.1
				h2.4c1.6,0,3.1-0.5,4.3-1.6C48.2,13.1,48.8,11.5,48.7,9.9L48.7,9.9z"/>
			<path id="Path_2" class="st2" d="M93.5,29.2H81.9v-1.3c0.4,0,1-0.1,1.6-0.1c0.5,0,0.9-0.1,1.4-0.3c0.3-0.2,0.6-0.5,0.8-0.8
				c0.2-0.3,0.3-0.7,0.3-1.1V6.7h-0.3l-9,22.1h-0.9L67.3,6.2H67v15.5c0,1.1,0.1,2.3,0.3,3.4c0.1,0.6,0.4,1.2,0.9,1.7
				c0.5,0.4,1.1,0.6,1.7,0.7c0.5,0.2,1.1,0.3,1.7,0.4v1.3H60.9v-1.3c0.6-0.1,1.2-0.1,1.8-0.3c0.5-0.1,1-0.3,1.4-0.6
				c0.5-0.4,0.8-1,0.9-1.6c0.2-1.2,0.3-2.4,0.2-3.5V8.7c0-0.6-0.1-1.3-0.3-1.9c-0.2-0.5-0.4-0.9-0.8-1.2c-0.4-0.3-0.9-0.6-1.4-0.7
				c-0.5-0.2-1.1-0.2-1.6-0.3V3.3h9l7.5,19.5L84,6.5c0.2-0.6,0.4-1.2,0.6-1.9c0.1-0.4,0.2-0.9,0.3-1.3h8.6v1.3
				c-0.4,0-0.9,0.1-1.3,0.2C91.7,4.8,91.3,4.9,91,5c-0.4,0.1-0.7,0.4-0.9,0.7c-0.1,0.4-0.2,0.7-0.2,1.1v18.7c0,0.4,0.1,0.7,0.2,1.1
				c0.2,0.3,0.5,0.6,0.9,0.8c0.4,0.2,0.8,0.3,1.2,0.3c0.4,0.1,0.9,0.1,1.3,0.2L93.5,29.2z"/>
			<path id="Path_3" class="st2" d="M152.9,16.4c0,2-0.4,4-1.3,5.7c-0.8,1.6-1.9,2.9-3.3,4c-1.4,1-2.9,1.8-4.6,2.3
				c-1.7,0.5-3.5,0.8-5.2,0.8h-10.9v-1.3c0.5,0,0.9,0,1.4-0.1c0.4,0,0.8-0.1,1.1-0.2c0.3-0.1,0.6-0.4,0.8-0.7
				c0.2-0.3,0.3-0.7,0.2-1.1V7c0-0.4-0.1-0.8-0.2-1.1c-0.2-0.4-0.5-0.6-0.8-0.8c-0.4-0.2-0.8-0.3-1.2-0.4c-0.4-0.1-0.8-0.1-1.1-0.2
				V3.3h11.5c1.6,0,3.2,0.2,4.7,0.7c1.4,0.4,2.8,1.1,4,1.9c1.5,1.1,2.8,2.6,3.6,4.3C152.5,12.1,152.9,14.3,152.9,16.4z M148.3,16.4
				c0-1.6-0.2-3.2-0.7-4.7c-0.4-1.3-1.1-2.6-2.1-3.7c-0.9-1-1.9-1.8-3.1-2.4c-1.3-0.6-2.7-0.9-4.1-0.9c-0.5,0-1.1,0-1.7,0
				s-1.1,0-1.4,0v19.9c-0.1,0.9,0.3,1.8,1,2.3c0.9,0.5,2,0.7,3,0.6c1.4,0,2.8-0.2,4.1-0.8c1.1-0.5,2.1-1.3,2.9-2.3
				c0.8-1.1,1.4-2.3,1.7-3.6C148.2,19.5,148.4,18,148.3,16.4L148.3,16.4z"/>
			<g id="Group_2">
				<path id="Path_4" class="st2" d="M29.6,3l-5.5,19l-0.6,2.5c-0.1,0.2-0.1,0.4-0.1,0.6c0,0.3,0.1,0.6,0.3,0.8
					c0.1,0.2,0.3,0.3,0.6,0.3c0.4,0,0.7-0.2,1-0.4c1.1-1,2.1-2.1,3-3.4l1,0.7c-1.1,1.7-2.4,3.2-4,4.4c-1.1,0.9-2.4,1.4-3.8,1.5
					c-0.7,0.1-1.3-0.2-1.8-0.6c-0.4-0.5-0.7-1.1-0.6-1.7c0.1-1.2,0.3-2.4,0.6-3.6l0.6-2.1c-1.9,2.6-4.2,4.9-6.8,6.7
					c-1.3,0.9-2.8,1.3-4.4,1.4c-1.4,0-2.7-0.6-3.6-1.7c-1.1-1.3-1.6-3-1.5-4.7c0.1-3.3,1-6.5,2.7-9.4c1.7-3.1,4-5.8,6.9-7.9
					c1.8-1.4,3.9-2.2,6.2-2.4c1,0,2.1,0.3,2.9,0.9c0.9,0.8,1.5,1.8,1.7,3l1-3.2L29.6,3z M19.5,4.5c-1.4,0.1-2.8,0.7-3.9,1.7
					c-2.2,2-4,4.4-5.1,7.1c-1.4,2.6-2.1,5.5-2.3,8.5c-0.1,1.1,0.3,2.2,1,3c0.5,0.7,1.3,1.1,2.2,1.1c2.1,0,4.3-1.5,6.7-4.5
					c3.2-4,4.9-8.1,4.8-12.3c0.1-1.2-0.2-2.4-0.9-3.4C21.4,4.8,20.5,4.4,19.5,4.5L19.5,4.5z"/>
			</g>
			<g id="Group_3" transform="translate(94.044)">
				<path id="Path_5" class="st2" d="M29.6,3l-5.5,19l-0.6,2.5c-0.1,0.2-0.1,0.4-0.1,0.6c0,0.3,0.1,0.6,0.3,0.8
					c0.1,0.2,0.3,0.3,0.6,0.3c0.4,0,0.7-0.2,1-0.4c1.1-1,2.1-2.1,3-3.4l1,0.7c-1.1,1.7-2.4,3.2-4,4.4c-1.1,0.9-2.4,1.4-3.8,1.5
					c-0.7,0.1-1.3-0.2-1.8-0.6c-0.4-0.5-0.7-1.1-0.6-1.7c0.1-1.2,0.3-2.4,0.6-3.6l0.6-2.1c-1.9,2.6-4.2,4.9-6.8,6.7
					c-1.3,0.9-2.8,1.3-4.4,1.4c-1.4,0-2.7-0.6-3.6-1.7c-1.1-1.3-1.6-3-1.5-4.7c0.1-3.3,1-6.5,2.7-9.4c1.7-3.1,4-5.8,6.9-7.9
					c1.8-1.4,3.9-2.2,6.2-2.4c1,0,2,0.3,2.9,0.9c0.9,0.8,1.5,1.8,1.7,3l1-3.2L29.6,3z M19.5,4.5c-1.4,0.1-2.8,0.7-3.9,1.7
					c-2.2,2-4,4.4-5.1,7.1c-1.4,2.6-2.1,5.5-2.3,8.5c-0.1,1.1,0.3,2.2,1,3c0.5,0.7,1.3,1.1,2.2,1.1c2.1,0,4.3-1.5,6.7-4.5
					c3.2-4,4.8-8.1,4.8-12.3c0.1-1.2-0.2-2.4-0.9-3.4C21.4,4.8,20.5,4.4,19.5,4.5z"/>
			</g>
			<g id="Group_4" transform="translate(152.385)">
				<path id="Path_6" class="st2" d="M29.6,3l-5.5,19l-0.6,2.5c-0.1,0.2-0.1,0.4-0.1,0.6c0,0.3,0.1,0.6,0.3,0.8
					c0.1,0.2,0.3,0.3,0.6,0.3c0.4,0,0.7-0.2,1-0.4c1.1-1,2.1-2.1,3-3.4l1,0.7c-1.1,1.7-2.4,3.2-4,4.4c-1.1,0.9-2.4,1.4-3.8,1.5
					c-0.7,0.1-1.3-0.2-1.8-0.6c-0.4-0.5-0.7-1.1-0.6-1.7c0.1-1.2,0.3-2.4,0.6-3.6l0.6-2.1c-1.9,2.6-4.2,4.9-6.8,6.7
					c-1.3,0.9-2.8,1.3-4.4,1.4c-1.4,0-2.7-0.6-3.6-1.7c-1.1-1.3-1.6-3-1.5-4.7c0.1-3.3,1-6.5,2.7-9.4c1.7-3.1,4-5.8,6.9-7.9
					c1.8-1.4,3.9-2.2,6.2-2.4c1,0,2,0.3,2.9,0.9c0.9,0.8,1.5,1.8,1.7,3l1-3.2L29.6,3z M19.5,4.5c-1.4,0.1-2.8,0.7-3.9,1.7
					c-2.2,2-4,4.4-5.1,7.1c-1.4,2.6-2.1,5.5-2.3,8.5c-0.1,1.1,0.3,2.2,1,3c0.5,0.7,1.3,1.1,2.2,1.1c2.1,0,4.3-1.5,6.7-4.5
					c3.2-4,4.9-8.1,4.8-12.3c0.1-1.2-0.2-2.4-0.9-3.4C21.4,4.8,20.5,4.4,19.5,4.5z"/>
			</g>
		</g>
	</g>
</g>
</svg>
