<?xml version="1.0" encoding="utf-8"?>
<!-- Generator: Adobe Illustrator 19.2.1, SVG Export Plug-In . SVG Version: 6.00 Build 0)  -->
<svg version="1.1" id="Laag_1" xmlns="http://www.w3.org/2000/svg" xmlns:xlink="http://www.w3.org/1999/xlink" x="0px" y="0px"
	 viewBox="0 0 210.9 50.5" style="enable-background:new 0 0 210.9 50.5;" xml:space="preserve">
<style type="text/css">
	.st0{fill-rule:evenodd;clip-rule:evenodd;fill:#60295E;}
	.st1{fill:#60295E;}
	.st2{fill:#904799;}
	.st3{fill-rule:evenodd;clip-rule:evenodd;fill:#904799;}
</style>
<path class="st0" d="M52.5,39.4c12.2,0,17.1-5.6,17.1-17.5c0-11.9-5-17.5-17.1-17.5c-12.1,0-17.1,5.6-17.1,17.5
	C35.4,33.7,40.3,39.4,52.5,39.4 M52.5,37.3c-7.8,0-9.2-6.5-9.2-15.5c0-9,1.4-15.4,9.2-15.4c7.8,0,9.2,6.4,9.2,15.4
	C61.7,30.8,60.3,37.3,52.5,37.3"/>
<path class="st0" d="M83.7,7.3c0.9,0,1.8-0.1,2.7-0.1c4,0,6.2,2.1,6.2,6.1c0,5.8-3.7,7.4-8.9,7.2V7.3z M91.6,21.1
	c5-0.2,8.6-3,8.6-8.3c0-8.2-6.2-7.6-12.5-7.7c-2.4,0-4.8,0-7.1,0.1c-3.3,0-6.1,0-8.3-0.1v2c4.9,0,4.2,1,4.3,4v22
	c-0.1,1.9,0.9,4.5-4.3,4v2c2.3,0,5,0,7.8-0.1c2.8,0,5.6,0,8.1,0.1v-2c-5.2,0.4-4.6-1.6-4.6-4V21.6L91.2,33c1.3,1.9,2.3,4,3.3,6
	c1.6,0,3.1,0,4.6-0.1c2.1,0,4.3,0,6.7,0.1v-2c-3.3-0.3-4-0.9-5.3-2.8L91.6,21.1z"/>
<path class="st1" d="M110.8,33c-0.1,2.8,0.7,4-4.1,4v2c2.1,0,4.8-0.1,7.6-0.1c6.4,0,12.8,0,19.2,0.1v-9.4h-3.6
	c-0.6,5.5-0.7,7.2-6.6,7.2h-5.4V21.8h3c3,0.1,3.4,2.1,3.7,4.8h2.7c0-1.9,0-3.8-0.1-5.8c0.1-1.9,0.1-3.8,0.1-5.7h-2.7
	c-0.1,2.7-0.7,4.7-3.7,4.7h-3V7.2h4.8c6.6,0,6.6,0.6,7.2,5.8h3.6V5c-6.4,0-12.8,0.1-19.2,0.1c-2.8,0-5.6-0.1-7.6-0.1v2
	c4.8,0,4,1.1,4.1,4V33z"/>
<path class="st1" d="M161.8,6c-3.4-1.1-7.2-1.6-10.2-1.6c-6.3,0-13.3,2.6-13.3,9.9c0,8.8,8.2,9.1,14.6,11.4c2.5,1,3.6,2.7,3.6,5.3
	c0,4-3,6.4-6.9,6.4c-6,0-7.2-2.8-7.6-8.3h-3.7v8.6c3.6,1,7,1.7,10.9,1.7c7.2,0,14.4-2.6,14.4-10.9c0-6.2-3.3-7.9-8.6-9.6
	c-3.7-1.2-9.7-1.5-9.7-6.6c0-4,2.8-5.8,6.6-5.8c4.8,0,6.2,2.9,6.5,7.2h3.5V6z"/>
<path class="st1" d="M174,43.6c3.9-0.1,7.5-0.1,11.1-0.1c3.6,0.1,7.2,0.1,11.1,0.1v-2.6c-7,0-6.5-0.6-6.5-5.1V2.8h2.7
	c7,0,7.1,1.4,8,8.6h4.6V0.1h-39.9v11.3h4.6c0.9-7.1,1-8.6,8-8.6h2.7V36c0,4.5,0.5,5.1-6.5,5.1V43.6z"/>
<path class="st1" d="M20.6,41.1c-6.5,0-6-0.8-6-5.1V21.8h3.8c3.9,0.2,4.4,2.7,4.7,6.1h3.4c-0.1-2.4-0.1-4.9-0.1-7.4
	c0.1-2.4,0.1-4.9,0.1-7.3h-3.4c-0.2,3.5-0.9,6-4.7,6h-3.8v-16h6.1c8.5-0.1,8.5,0,9.2,7.4h4.6V0.3c-8.1,0.1-16.4,0.1-24.5,0.1
	c-3.6,0-7.1-0.1-9.8-0.1v2.6c6.1,0,5.1,1.4,5.2,5.1v28.1c-0.1,3.8,0.9,5.1-5.5,5.1v2.6c2.9-0.1,6.5-0.1,10.1-0.1
	c3.6,0.1,7.1,0.1,10.5,0.1V41.1z"/>
<rect x="37.5" y="0.1" class="st2" width="124" height="0.9"/>
<rect x="164.8" y="46.7" class="st2" width="39.3" height="0.9"/>
<rect x="0.2" y="46.7" class="st2" width="33.5" height="0.9"/>
<path class="st3" d="M39.7,44.2c0.3,0,0.6-0.1,0.9,0c1.7,0.1,1.9,1.5,1.9,3c0,1.7-0.3,3-2.3,3c-0.1,0-0.3,0-0.5,0V44.2z M38.3,49.3
	c0,0.5,0.1,0.8-0.8,0.8v0.4c0.4,0,0.9,0,1.5,0c0.7,0,1.4,0,2,0c2.4,0,3-1.3,3-3.5c0-2-0.6-3.3-2.7-3.3c-0.8,0-1.5,0-2.3,0
	c-0.6,0-1.1,0-1.5,0v0.4c0.9,0,0.8,0.2,0.8,0.8V49.3z"/>
<path class="st3" d="M48,44.2c0.2,0,0.4,0,0.5,0c0.8,0,1.2,0.4,1.2,1.2c0,1.2-0.7,1.5-1.8,1.4V44.2z M49.5,46.9c1,0,1.7-0.6,1.7-1.7
	c0-1.6-1.2-1.5-2.5-1.5c-0.5,0-1,0-1.4,0c-0.7,0-1.2,0-1.7,0v0.4c1,0,0.8,0.2,0.9,0.8v4.4c0,0.4,0.2,0.9-0.9,0.8v0.4
	c0.5,0,1,0,1.6,0c0.6,0,1.1,0,1.6,0v-0.4c-1,0.1-0.9-0.3-0.9-0.8V47l1.5,2.3c0.3,0.4,0.5,0.8,0.7,1.2c0.3,0,0.6,0,0.9,0
	c0.4,0,0.9,0,1.3,0v-0.4c-0.7-0.1-0.8-0.2-1.1-0.6L49.5,46.9z"/>
<path class="st3" d="M57.9,47.8l0.5,1.5c0,0.1,0.1,0.4,0.1,0.5c0,0.3-0.6,0.3-0.9,0.4v0.4c0.5,0,1,0,1.6,0c0.6,0,1.1,0,1.6,0v-0.4
	c-0.8,0-0.9-0.5-1.1-1.2l-1.8-5.2c-0.2,0-0.3,0-0.5,0s-0.4,0-0.5,0c-0.5,1.6-1.1,3-1.7,4.6c-0.3,0.8-0.5,1.4-0.7,1.6
	c-0.1,0.1-0.3,0.2-0.8,0.2v0.4c0.4,0,0.8,0,1.2,0c0.5,0,0.9,0,1.4,0v-0.4c-0.3,0-0.9,0-0.9-0.4c0-0.1,0-0.2,0.1-0.4l0.5-1.5H57.9z
	 M56,47.3l0.8-2.4l0.8,2.4H56z"/>
<path class="st3" d="M64.4,47.7c0.3,0,0.5,0,0.9,0c1.5-0.1,2.4-0.5,2.4-2.2c0-1.4-0.5-1.8-1.9-1.8c-1,0-1.4,0-2.1,0
	c-0.6,0-1.1,0-1.6,0v0.4c1,0,0.8,0.2,0.9,0.8v4.4c0,0.6,0.1,0.8-0.8,0.8v0.4c0.4,0,1,0,1.5,0c0.6,0,1.1,0,1.7,0v-0.4
	c-1,0-1-0.1-1-0.8V47.7z M64.4,44.2c0.2,0,0.3,0,0.5,0c1,0,1.3,0.5,1.3,1.4c0,1.1-0.5,1.8-1.7,1.7V44.2z"/>
<path class="st2" d="M70,49.3c0,0.6,0.1,0.8-0.8,0.8v0.4c0.4,0,1,0,1.5,0c1.3,0,2.6,0,3.8,0v-1.9h-0.7c-0.1,1.1-0.1,1.4-1.3,1.4
	h-1.1v-3H72c0.6,0,0.7,0.4,0.7,1h0.5c0-0.4,0-0.8,0-1.2c0-0.4,0-0.8,0-1.1h-0.5c0,0.5-0.1,0.9-0.7,0.9h-0.6v-2.5h1
	c1.3,0,1.3,0.1,1.4,1.2h0.7v-1.6c-1.3,0-2.6,0-3.8,0c-0.6,0-1.1,0-1.5,0v0.4c1,0,0.8,0.2,0.8,0.8V49.3z"/>
<path class="st3" d="M78.5,44.2c0.2,0,0.4,0,0.5,0c0.8,0,1.2,0.4,1.2,1.2c0,1.2-0.7,1.5-1.8,1.4V44.2z M80.1,46.9
	c1,0,1.7-0.6,1.7-1.7c0-1.6-1.2-1.5-2.5-1.5c-0.5,0-0.9,0-1.4,0c-0.7,0-1.2,0-1.7,0v0.4c1,0,0.8,0.2,0.9,0.8v4.4
	c0,0.4,0.2,0.9-0.9,0.8v0.4c0.4,0,1,0,1.6,0c0.6,0,1.1,0,1.6,0v-0.4c-1,0.1-0.9-0.3-0.9-0.8V47l1.5,2.3c0.3,0.4,0.5,0.8,0.7,1.2
	c0.3,0,0.6,0,0.9,0c0.4,0,0.9,0,1.3,0v-0.4c-0.7-0.1-0.8-0.2-1.1-0.6L80.1,46.9z"/>
<path class="st2" d="M87.7,47.4c0-0.1,0-0.1,0-0.2l1.1-1.8c0.5-0.9,0.7-1.2,1.4-1.3v-0.4c-0.4,0-0.8,0-1.1,0c-0.4,0-0.8,0-1.1,0v0.4
	c0.4,0,0.7,0,0.7,0.3c0,0.2-0.3,0.7-0.4,0.8l-0.9,1.5l-1-1.7c-0.2-0.3-0.3-0.4-0.3-0.6c0-0.4,0.4-0.4,0.7-0.4v-0.4
	c-0.5,0-1.1,0-1.6,0c-0.5,0-1.1,0-1.6,0v0.4c0.7,0.1,1,0.7,1.5,1.5l1.1,1.8c0.1,0.1,0.1,0.3,0.1,0.5v1.4c0,0.7,0.1,0.8-1,0.8v0.4
	c0.6,0,1.2,0,1.7,0c0.6,0,1.1,0,1.7,0v-0.4c-1.1,0-1-0.1-1-0.8V47.4z"/>
<path class="st2" d="M96.1,49.3c0,0.6,0.1,0.8-0.9,0.8v0.4c0.5,0,1,0,1.6,0c0.6,0,1.1,0,1.6,0v-0.4c-1,0-0.9-0.2-0.9-0.8v-2.1h2.7
	v2.1c0,0.6,0.1,0.8-0.9,0.8v0.4c0.5,0,1,0,1.6,0c0.6,0,1.1,0,1.6,0v-0.4c-1,0-0.9-0.2-0.9-0.8v-4.4c0-0.6-0.1-0.8,0.9-0.8v-0.4
	c-0.5,0-1,0-1.6,0c-0.6,0-1.1,0-1.6,0v0.4c1,0,0.8,0.2,0.9,0.8v1.8h-2.7v-1.8c0-0.6-0.1-0.8,0.9-0.8v-0.4c-0.5,0-1,0-1.6,0
	c-0.6,0-1.1,0-1.6,0v0.4c1,0,0.8,0.2,0.9,0.8V49.3z"/>
<path class="st3" d="M108.1,47.8l0.5,1.5c0,0.1,0.1,0.4,0.1,0.5c0,0.3-0.6,0.3-0.9,0.4v0.4c0.5,0,1,0,1.6,0c0.6,0,1.1,0,1.6,0v-0.4
	c-0.8,0-0.9-0.5-1.1-1.2l-1.8-5.2c-0.2,0-0.3,0-0.5,0s-0.4,0-0.5,0c-0.5,1.6-1.1,3-1.7,4.6c-0.3,0.8-0.5,1.4-0.7,1.6
	c-0.1,0.1-0.3,0.2-0.8,0.2v0.4c0.4,0,0.8,0,1.2,0c0.5,0,0.9,0,1.4,0v-0.4c-0.3,0-0.9,0-0.9-0.4c0-0.1,0-0.2,0.1-0.4l0.5-1.5H108.1z
	 M106.3,47.3l0.8-2.4l0.8,2.4H106.3z"/>
<path class="st3" d="M114.9,44.2c0.2,0,0.4,0,0.5,0c0.8,0,1.2,0.4,1.2,1.2c0,1.2-0.7,1.5-1.8,1.4V44.2z M116.5,46.9
	c1,0,1.7-0.6,1.7-1.7c0-1.6-1.2-1.5-2.5-1.5c-0.5,0-1,0-1.4,0c-0.7,0-1.2,0-1.7,0v0.4c1,0,0.8,0.2,0.9,0.8v4.4
	c0,0.4,0.2,0.9-0.9,0.8v0.4c0.4,0,1,0,1.6,0c0.6,0,1.1,0,1.6,0v-0.4c-1,0.1-0.9-0.3-0.9-0.8V47l1.5,2.3c0.3,0.4,0.5,0.8,0.7,1.2
	c0.3,0,0.6,0,0.9,0c0.4,0,0.9,0,1.3,0v-0.4c-0.7-0.1-0.8-0.2-1.1-0.6L116.5,46.9z"/>
<path class="st3" d="M122.7,44.2c0.3,0,0.6-0.1,0.9,0c1.7,0.1,1.9,1.5,1.9,3c0,1.7-0.3,3-2.3,3c-0.1,0-0.3,0-0.5,0V44.2z
	 M121.3,49.3c0,0.5,0.1,0.8-0.8,0.8v0.4c0.4,0,0.9,0,1.5,0c0.7,0,1.4,0,2,0c2.4,0,3-1.3,3-3.5c0-2-0.6-3.3-2.7-3.3
	c-0.8,0-1.5,0-2.3,0c-0.6,0-1.1,0-1.5,0v0.4c0.9,0,0.8,0.2,0.8,0.8V49.3z"/>
<path class="st2" d="M134.7,50.5c0.2,0,0.4,0,0.6,0c0.2,0,0.3,0,0.5,0l1.4-5.2c0.2-0.8,0.5-1.3,0.9-1.2v-0.4c-0.4,0-0.7,0-1.1,0
	c-0.4,0-0.7,0-1.1,0v0.4c0.3,0,0.8,0,0.8,0.4c0,0.2,0,0.4-0.1,0.6l-0.8,3.8h0l-1.5-5.2c-0.2,0-0.3,0-0.5,0c-0.2,0-0.4,0-0.5,0
	l-1.4,5.2l-0.9-3.5c-0.1-0.3-0.2-0.6-0.2-0.8c0-0.4,0.2-0.4,0.8-0.4v-0.4c-0.5,0-1,0-1.5,0c-0.5,0-0.9,0-1.5,0v0.4
	c0.6,0,0.6,0.2,1,1.4l1.3,4.9c0.2,0,0.4,0,0.5,0c0.2,0,0.3,0,0.5,0l1.4-5.2L134.7,50.5z"/>
<path class="st3" d="M142.9,47.8l0.5,1.5c0,0.1,0.1,0.4,0.1,0.5c0,0.3-0.6,0.3-0.9,0.4v0.4c0.5,0,1,0,1.6,0c0.6,0,1.1,0,1.6,0v-0.4
	c-0.8,0-0.9-0.5-1.1-1.2l-1.8-5.2c-0.2,0-0.3,0-0.5,0c-0.2,0-0.3,0-0.5,0c-0.5,1.6-1.1,3-1.7,4.6c-0.3,0.8-0.5,1.4-0.7,1.6
	c-0.1,0.1-0.3,0.2-0.8,0.2v0.4c0.4,0,0.8,0,1.2,0c0.5,0,0.9,0,1.4,0v-0.4c-0.3,0-0.9,0-0.9-0.4c0-0.1,0-0.2,0.1-0.4l0.5-1.5H142.9z
	 M141,47.3l0.8-2.4l0.8,2.4H141z"/>
<path class="st3" d="M149.6,44.2c0.2,0,0.4,0,0.5,0c0.8,0,1.2,0.4,1.2,1.2c0,1.2-0.7,1.5-1.8,1.4V44.2z M151.2,46.9
	c1,0,1.7-0.6,1.7-1.7c0-1.6-1.2-1.5-2.5-1.5c-0.5,0-1,0-1.4,0c-0.7,0-1.2,0-1.7,0v0.4c1,0,0.8,0.2,0.9,0.8v4.4
	c0,0.4,0.2,0.9-0.9,0.8v0.4c0.5,0,1,0,1.6,0c0.6,0,1.1,0,1.6,0v-0.4c-1,0.1-0.9-0.3-0.9-0.8V47l1.5,2.3c0.3,0.4,0.4,0.8,0.7,1.2
	c0.3,0,0.6,0,0.9,0c0.4,0,0.9,0,1.3,0v-0.4c-0.7-0.1-0.8-0.2-1.1-0.6L151.2,46.9z"/>
<path class="st2" d="M156.1,49.3c0,0.6,0.1,0.8-0.8,0.8v0.4c0.4,0,1,0,1.5,0c1.3,0,2.6,0,3.8,0v-1.9h-0.7c-0.1,1.1-0.1,1.4-1.3,1.4
	h-1.1v-3h0.6c0.6,0,0.7,0.4,0.7,1h0.5c0-0.4,0-0.8,0-1.2c0-0.4,0-0.8,0-1.1h-0.5c0,0.5-0.1,0.9-0.7,0.9h-0.6v-2.5h1
	c1.3,0,1.3,0.1,1.4,1.2h0.7v-1.6c-1.3,0-2.6,0-3.8,0c-0.6,0-1.1,0-1.5,0v0.4c1,0,0.8,0.2,0.8,0.8V49.3z"/>
<path class="st1" d="M208.7,0c1.3,0,2.3,1,2.3,2.3c0,1.3-1,2.3-2.3,2.3c-1.3,0-2.3-1-2.3-2.3C206.4,1,207.4,0,208.7,0L208.7,0z
	 M208.7,0.4c-1,0-1.9,0.9-1.9,2c0,1.1,0.8,2,1.9,2c1,0,1.9-0.9,1.9-2C210.5,1.2,209.7,0.4,208.7,0.4L208.7,0.4z M208.2,3.7h-0.4V1.1
	c0.2,0,0.4-0.1,0.7-0.1c0.4,0,0.7,0.1,0.8,0.2c0.2,0.1,0.2,0.3,0.2,0.5c0,0.3-0.2,0.5-0.5,0.6v0c0.2,0,0.4,0.2,0.4,0.6
	c0.1,0.4,0.1,0.6,0.2,0.6h-0.4c-0.1-0.1-0.1-0.3-0.2-0.7c-0.1-0.3-0.2-0.5-0.6-0.5h-0.3V3.7z M208.2,2.2h0.3c0.3,0,0.6-0.1,0.6-0.4
	c0-0.2-0.2-0.5-0.6-0.5c-0.1,0-0.2,0-0.3,0V2.2z"/>
</svg>
