<?xml version="1.0" encoding="utf-8"?>
<!-- Generator: Adobe Illustrator 23.0.1, SVG Export Plug-In . SVG Version: 6.00 Build 0)  -->
<svg version="1.1" id="Layer_1" xmlns="http://www.w3.org/2000/svg" xmlns:xlink="http://www.w3.org/1999/xlink" x="0px" y="0px"
	 viewBox="0 0 384 384" style="enable-background:new 0 0 384 384;" xml:space="preserve">
<style type="text/css">
	.st0{fill:#808080;}
</style>
<path class="st0" d="M377.9,272.4c0-1.7-1.3-4.2-2.5-4.8c-4.2-2-4.1-5.4-4-8.6l0-0.7c0-1.5,0-2.9,0-4.4c0-0.7,0-1.3,0-2
	c0-7.2-1.6-7.9-7.5-10.2c-0.8-0.3-1.7-0.7-2.6-1.1l-0.4-0.2l0-0.4c0.2-10.3-4.7-20.6-13.6-29c-11.6-10.9-44-8.4-44.3-8.4
	c-13.2,1-46.7,2.4-48.1,0.8l-0.2-0.2l0-0.3c2-13.3,3.9-26.5,5.9-39.8l4.6-31c0.7-4.6,0.2-7.7-1.5-9.7c-1.7-2-4.7-2.9-9.5-2.9l-1.6,0
	c-17.3,0-35.2-0.1-52.8,0.1c-2.8,0-4.5-0.6-5.7-3.8c-6.1-17.1-14.8-29.7-26.5-38.7c-1-0.8-1.6-2.6-1.6-4c-0.1-2.8-0.1-5.6-0.1-8.3
	c0-2.4,0-5,0-7.5c-0.1-5.1-2.3-9.1-6.6-12.2c-1.3-1-2.4-3-2.5-4.5c-0.2-7.5-0.3-17.4,0-27.4c0.2-6.1-1.7-9.8-6.1-12h-89
	c-4.6,2.2-6.5,5.9-6.3,11.9c0.2,5.5,0.2,11.2,0.1,16.6c0,3.4,0,6.9,0,10.4c0,2.4-0.4,4-2.7,5.4c-4.2,2.5-6.4,6.6-6.4,11.7
	c0,1.9,0,3.8,0,5.6c0,3.3,0,6.7-0.1,10.1c0,1.1-0.4,3.1-1.5,4C30.5,87.9,21,103.5,14.7,126c-5.8,20.8-8.2,44.1-7.2,71.1
	c1.7,48,10.5,93.5,26.2,135.3c3.9,10.4,9,20.4,14.8,31.4c6.5,12.5,14.1,18.7,24.4,20.4l260.8,0c7.7-3.1,11-8.8,10.2-17.3
	c-0.1-1-0.1-2,0-3c0-1,0.1-2,0-3c-0.3-3,1.1-4.5,3.3-5.8c17.1-10.2,27-24.3,29.5-41.9c1.4-10,1.4-20.5,1.3-30.6
	C377.9,279.2,377.9,275.8,377.9,272.4z M255.4,212.8c8.2-0.3,16.6-0.6,24.8-1.3c6-0.5,11.6-0.5,17.6-0.4c2.6,0,5.2,0,7.9,0
	c1.4,0,3-0.1,4.7-0.2c9.8-0.4,24.7-1.1,33.7,7.4c5.1,4.8,7.7,11.9,7.8,21.3l0,0.6H249.1l0.1-0.7c0.5-3.5,1.1-8.4,1.6-13
	c0.5-4.7,1-9.5,1.6-13.1l0.1-0.5L255.4,212.8z M65.6,11.7h80.8v31.3H65.6V11.7z M56.5,57.1c0.1-1.4,1.8-2.4,3.2-3.4l0.4-0.2
	c0.6-0.4,1.4-0.3,2.1-0.3c0.3,0,0.5,0.1,0.8,0.1l7.2,0c26.3,0,52.7,0,79,0c5.6,0,6.6,1,6.6,6.7c0,2.9,0,5.8,0,8.8l0,4.7H56.4v-0.6
	c0-1.4,0-2.8,0-4.2C56.3,64.9,56.2,61,56.5,57.1z M17.8,167.6c0.4-2.6,0.7-5.2,1-7.8c0.7-5.6,1.5-11.4,2.4-17.1
	c2.7-15.7,7-28.1,13.4-38.9c1.9-3.2,4.1-6.2,6.2-9c6-8,13-11.4,23-11.2c19.7,0.5,39.7,0.4,59,0.4c10.6,0,21.6-0.1,32.4,0
	c2.6,0,5.7,1.1,7.7,2.7c9.2,7.2,15.8,17.2,21.5,32.2l0.3,0.8l-25.7,0c-16.8,0-33.6,0-50.3,0c-5.2,0-8.3,0.9-10,2.8
	c-1.7,1.9-2.1,5.1-1.4,10c1.1,8.1,2.3,16,3.5,24.3c0.5,3.6,1.1,7.2,1.6,10.8l0.1,0.7H17.7L17.8,167.6z M29.9,285.7
	c-8.8-37-12.9-71.1-12.5-104c0-0.4,0-0.8,0.1-1.3c0-0.3,0-0.6,0.1-1l0-0.6h86.5l0.9,5.8l15.4,103.9l-0.6,0c-0.5,0-1,0.1-1.4,0.1
	c-0.8,0.1-1.4,0.1-2.1,0.1c-27.2,0-54.5,0-81.7,0l-0.2,0c-0.1,0-0.1,0-0.2,0C32.3,288.7,30.6,288.6,29.9,285.7z M124.8,373.8
	c-0.4,0-0.8,0.1-1.1,0.1c-0.7,0.1-1.4,0.2-2,0.2c-4.7,0-9.4,0-14,0c-9.4,0-19.1,0-28.7,0.1c-0.1,0-0.2,0-0.3,0
	c-7.8,0-13.4-3-17.8-9.5c-10-14.8-16.2-31.1-21.5-46.6c-1.4-4-2.6-8-3.9-12.3c-0.6-2-1.2-4-1.9-6.1l-0.2-0.8h88.3l0.1,0.5
	c4,16.6,3.8,33.6,3.6,50.1c-0.1,7.8-0.2,15.8,0.1,23.7l0,0.6L124.8,373.8z M200.1,373.8h-37.8v-19.2h37.8V373.8z M226.8,373.8h-16.5
	v-0.6c0-2,0-4,0-6c0-4.3,0-8.5,0-12.7c-0.1-6.9-3.3-10.2-10.2-10.2c-12.4-0.1-25.2-0.1-37.8,0c-7.1,0-10.2,3.3-10.3,10.6
	c0,4.2,0,8.4,0,12.7l0,6.3h-16.4v-47.3h91.2V373.8z M134.6,316.2l-0.1-0.5l-23.2-156.6l30.6,0c7.9,0,16.1,0,24.1,0c3.7,0,6-1.9,6-5
	c0-1.4-0.4-2.6-1.2-3.5c-1-1-2.6-1.6-4.6-1.6c-10.3,0-20.5,0-30.8,0l-25.6,0l-2.9-19.1h148.1l-2.7,19.1l-19.4,0
	c-12.6,0-25.3,0-37.9,0c-2.7,0-4.7,0.6-5.8,1.8c-0.8,0.8-1.2,1.9-1.2,3.3c0.1,4.3,4.3,5,6.9,5c12.3,0,24.6,0,37,0l19,0l-23.2,157.1
	H134.6z M333.6,371c-0.2,3-2.6,3.1-4.6,3.1c-0.1,0-0.2,0-0.3,0l-0.3,0c-9.3,0-18.7,0-28,0h-63.1v-15.2h96.3v0.6c0,1.1,0,2.3,0,3.4
	C333.8,365.6,333.8,368.3,333.6,371z M368.8,275.6c-0.2,4-0.4,8.1-0.5,12c-0.3,8.9-0.5,17.3-2,25.7c-2.5,14.5-11.3,26-26.1,34.1
	c-1.5,0.8-3.1,1.3-4.5,1.3c-16,0-32.1,0-48.1,0c-13.1,0-26.2,0-39,0l-9.6,0c-0.2,0-0.4,0-0.6-0.1c-0.1,0-0.2,0-0.3-0.1l-0.4-0.1
	l0-0.5c-2-18.6,0.9-37,3.7-54.9c0.9-5.7,1.8-11.7,2.6-17.5l0.1-0.5l15.3,0c9.5,0,19,0,28.5,0c0,0,0,0,0.1,0c3.7,0,5.6-1.2,6.3-3.9
	c0.4-1.5,0.1-2.8-0.7-3.9c-1.1-1.4-3-2.2-5.4-2.2c-8.8-0.1-17.8,0-26.5,0c-3.5,0-7,0-10.6,0h-5.3l2-14.2h113.5v14.2l-13.6,0
	c-9.8,0-19.6,0-29.4,0c-1.5,0-3,0-4.3,0.4c-2.4,0.7-3.6,2.4-3.5,5c0.1,2.4,1.5,3.9,3.8,4.4c1.1,0.2,2.4,0.2,3.6,0.2h0.4
	c11.8,0,23.6,0,35.3,0h15.4L368.8,275.6z"/>
<path class="st0" d="M181.2,202.3C181.2,202.3,181.2,202.3,181.2,202.3c-18.6,0-33.7,15.3-33.8,34.1c-0.1,18.9,14.9,34.4,33.4,34.5
	c9,0,17.4-3.4,23.8-9.8c6.5-6.5,10.1-15.2,10.1-24.6C214.8,217.7,199.8,202.3,181.2,202.3z M197.6,254c-4.4,4.4-10.3,6.8-16.5,6.8
	c-0.1,0-0.1,0-0.2,0c-12.9-0.1-23.4-11.1-23.3-24.5c0.1-13.3,10.7-24,23.7-24c0,0,0.1,0,0.1,0c13.2,0,23.5,10.7,23.5,24.2
	C204.8,243.3,202.2,249.5,197.6,254z"/>
<path class="st0" d="M279.2,289.6L279.2,289.6C279.2,289.6,279.1,289.6,279.2,289.6c-5.7,0-11.1,2.3-15.3,6.4
	c-4.3,4.2-6.6,9.9-6.7,15.8c0,5.9,2.3,11.5,6.5,15.7c4.1,4.2,9.6,6.4,15.4,6.4c0,0,0,0,0,0c5.8,0,11.3-2.3,15.4-6.4
	c4.1-4.2,6.4-9.7,6.4-15.7C300.9,299.7,291.2,289.7,279.2,289.6z M287.2,320.7c-2.2,2.1-5,3.2-8.1,3.2c-0.1,0-0.2,0-0.3,0
	c-6.3-0.2-11.5-5.7-11.5-12.2c0-3.2,1.4-6.4,3.8-8.7c2.3-2.2,5.2-3.4,8.2-3.4c6.5,0.1,11.7,5.7,11.6,12.4
	C290.8,315.4,289.5,318.5,287.2,320.7z"/>
</svg>
