<?xml version="1.0" encoding="utf-8"?>
<!-- Generator: Adobe Illustrator 23.0.1, SVG Export Plug-In . SVG Version: 6.00 Build 0)  -->
<svg version="1.1" id="Layer_1" xmlns="http://www.w3.org/2000/svg" xmlns:xlink="http://www.w3.org/1999/xlink" x="0px" y="0px"
	 viewBox="0 0 380.8 380.8" style="enable-background:new 0 0 380.8 380.8;" xml:space="preserve">
<style type="text/css">
	.st0{fill:#9A9A9A;}
</style>
<g>
	<path class="st0" d="M287.7,316.4c-6.2-6.2-12.5-12.5-18.7-18.7c-0.6-0.6-1.2-1.3-1.9-2.1c-0.4-0.4-0.8-0.9-1.2-1.4l-2.5-2.7
		l19.3,0c9.9,0,19.7,0,29.6,0c1.9,0,3.4-0.5,4.2-1.5c0.9-1,0.8-2.3,0.7-3.3c-0.3-1.7-1.1-3.2-5.5-3.2c-4.8,0-9.5,0-14.3,0
		c-14.4,0-29.2-0.1-43.8,0.2c-5.3,0.1-9.1-1.9-12.1-6.5l-0.6-0.9l0.6-0.9c37.7-52.8,19.4-117.3-16.9-151.1
		c-37.2-34.7-95.1-40.4-137.5-13.4c-28.5,18.1-46.3,44.4-52.9,78.3c-6.4,33.2,1.2,64.1,22.8,91.8l2,2.6l-40.1,0
		c-8.4,0-10.9-2.5-10.9-10.8L8,255c0-41.2,0-82.5,0-123.7c0-3.4-0.2-5.2-2.5-6c-2-0.8-3.6-0.2-5.6,2v151.3c4.6,10.7,8.2,13,20.1,13
		c3.7,0,7.3,0,11,0c9,0,18.4,0.1,27.5-0.1c5.4-0.1,9.3,1.3,13.7,4.9c31.2,26.1,68,33.7,109.5,22.5c10.7-2.9,21.2-8.1,32-16l1.2-0.8
		l2.9,3.1c1.8,2,3.5,3.9,5.3,5.8c0.7,0.8,1.3,2.4,0.8,3.6c-1.2,2.7-0.2,4.3,2.5,7l0.5,0.5c15.9,15.9,32.4,32.3,48.5,48.5
		c4.2,4.2,8.7,8.4,15,10.1h7.1c5-1.3,9.3-4,14-8.9c9.9-10.2,9.9-21.8-0.1-31.8C303.5,332.2,295.6,324.3,287.7,316.4z M146.6,316
		c-0.7,0-1.4,0-2.1,0c-26.5,0-51.7-10.4-71.3-29.4c-20.7-20-32.7-47.9-33-76.5c-0.6-58.9,46.9-107.4,106-108l0.1,0
		c31.8,0.8,59,12,78.4,32.4c18.1,18.9,28.3,44.8,28.7,72.9c0.4,28.4-9.1,55-27,74.7C206.9,303.6,179.3,315.3,146.6,316z
		 M221.7,297.7l13.8-13.8l9.3,9l-14.1,14L221.7,297.7z M245.2,328.2l-11.6-11.6l21-20.9l11.2,11.8L245.2,328.2z M251.5,334.7
		l20.9-20.9l15,15l-21,21L251.5,334.7z M307.4,364.4c-1.8,2.1-3.7,3.9-5.5,5.4c-2.3,2-5.2,3-8,3c-2.9,0-5.8-1.1-8.1-3.2
		c-2.9-2.6-5.6-5.4-8.6-8.3c-1.4-1.3-2.8-2.7-4.2-4.2l-1.2-1.2l1.2-1.1c1.1-1,2.2-2,3.3-3c2.4-2.2,4.7-4.4,6.9-6.6
		c2.2-2.1,4.3-4.3,6.6-6.7c1-1.1,2.1-2.1,3.2-3.3l1.1-1.2l1.1,1.2c1.3,1.3,2.6,2.6,3.8,3.8c2.8,2.8,5.5,5.4,8,8.2
		C311.9,352.4,312,359.1,307.4,364.4z"/>
	<path class="st0" d="M380.5,13c-1.7-8.3-8.1-13-17.6-13C273.4,0,184,0,94.6,0L20.1,0C8.2,0,4.6,2.3,0,13v90.6
		c1.9,2.5,3.3,3.1,5.4,2.3c2.3-0.8,2.7-2.5,2.7-5.8c0-10.5,0-20.9,0-31.4l0-16.9h364.7l0,221.2c0,7.8-2.7,10.4-10.5,10.4
		c-2.4,0-4.8,0-7.3,0c-1.8,0-3.6,0-5.4,0c-2.7,0-5.3,0-8,0c-2.1,0-3.8,0.5-4.7,1.4c-0.6,0.7-0.9,1.5-0.9,2.7c0,1,0.1,3.9,5.4,3.9
		c6.9,0,13.8,0,20.7,0l1,0c11,0,17.6-6.6,17.6-17.5c0-85.5,0-171,0-256.5C380.8,16,380.8,14.5,380.5,13z M137,8.3l-0.2,1.8
		c-0.1,1,0,2.1,0,3.3c0.2,3.1,0.4,6.9-3.4,9.3c-1,0.6-2.4,0.9-3.8,0.9c-1.4,0-2.8-0.3-3.7-0.9c-3.9-2.4-3.7-6.2-3.5-9.2
		c0.1-1.2,0.1-2.3,0-3.4l-0.2-1.8H137z M95.4,8.2L95.3,10c-0.1,1,0,2.1,0.1,3.2c0.2,2.9,0.6,6.6-3,9.2c-1.1,0.8-2.8,1.3-4.4,1.3
		c-1.1,0-2.2-0.2-3-0.6c-4.4-2.2-4.2-6.1-4.1-9.3c0.1-1.2,0.1-2.5-0.1-3.6l-0.3-1.8H95.4z M54,8.2L53.9,10c-0.1,1,0,2,0.1,3.1
		c0.2,3,0.5,6.8-3.2,9.4c-1,0.7-2.7,1.1-4.2,1.1c-1.2,0-2.4-0.2-3.3-0.7c-4.2-2.4-4-6.2-3.8-9.2c0.1-1.3,0.2-2.5,0-3.5l-0.3-1.9H54z
		 M372.8,34.6l0,8.7H8V29.9c0-1.3,0-2.7,0-4c0-3,0-6.1,0-9.2c0.1-5.4,3.2-8.6,8.5-8.7c2.9-0.1,5.9-0.1,9,0c1.4,0,2.8,0,4.3,0h1.6
		v1.6c0,0.8,0,1.5,0,2.3c0,1.5,0,3,0,4.5c0.2,9,6.1,15.3,14.7,15.6c8.7,0.3,15.2-5.8,15.8-14.8c0.1-1.5,0.1-3.1,0-4.7
		c0-0.8,0-1.6,0-2.5V8.3h10.9l0,3.4c0,1.3,0,2.6,0,4C73,25.4,79.4,32.1,88.3,32c8.9-0.1,15-6.6,15.1-16.2c0-1.2,0-2.5,0-3.8l0-3.6
		h11l0,3.3c0,1.1,0,2.2,0,3.3c0.1,10.6,6,17.2,15.3,17.1c9.3-0.1,15.1-6.7,15.2-17.3c0-1,0-2,0-3.1l0-3.5l217.2,0
		c8,0,10.6,2.6,10.6,10.8C372.8,24,372.8,29.3,372.8,34.6z"/>
	<path class="st0" d="M358.3,76.5c0-6.8-3-9.8-9.5-9.8c-11.2,0-22,0-32.4,0c-10.9,0-21.4,0-31.7,0c-6.4,0-9.4,3.1-9.4,9.6
		c0,38.9,0,77.7,0,116.6c0,6.4,3,9.4,9.5,9.4c21.2,0,42.5,0,63.7,0c6.9,0,9.8-2.9,9.8-9.9c0-13.7,0-27.5,0-41.2l0-16.5l0-16.6
		C358.3,104.2,358.3,90.4,358.3,76.5z M350.1,194h-66.5V75h66.5V194z"/>
	<path class="st0" d="M147.2,301C147.2,301,147.2,301,147.2,301c53.6,0,91.6-38.2,92.4-92.8c0.4-23.8-8.9-46.4-26.1-63.8
		c-17.5-17.7-41.7-27.9-66.3-27.9c0,0-0.1,0-0.1,0c-25,0-48.5,9.9-66.1,27.8c-17.2,17.4-26.5,40.2-26.2,64.1
		C55.5,263,93.5,301,147.2,301z M87.6,148.7c15.8-15.5,37.3-23.9,60.5-23.5c22.7,0.3,43.5,8.5,58.6,23.1
		c16.1,15.6,24.7,37.1,24.9,62.2c0.2,21.7-8.5,42.4-24.3,58.2c-15.9,15.9-37.6,25-59.7,25c-0.2,0-0.4,0-0.7,0
		c-46.6-0.4-84.4-38.1-84.1-84.2C62.8,185.9,71.6,164.3,87.6,148.7z"/>
	<path class="st0" d="M331,128.1c-9.5-0.1-19.1-0.1-29.5,0c-2.3,0-4.9,0.7-4.9,3.9c0,3.4,3.1,4,4.9,4.1c3.4,0.1,6.8,0,10.2,0
		c1.5,0,2.9,0,4.4,0c0,0,0.1,0,0.1,0c1.5,0,3,0,4.5,0c3.4,0,6.9,0,10.4,0c1.7,0,3-0.5,3.8-1.4c0.7-0.7,1-1.6,0.9-2.8
		C335.6,128.6,332.7,128.1,331,128.1z"/>
	<path class="st0" d="M297.6,111c-0.7,0.7-1,1.7-1,2.8c0,3.1,2.6,3.8,4.7,3.9c3.5,0.1,7,0,10.4,0c1.5,0,3,0,4.5,0c1.5,0,3,0,4.5,0
		c3.4,0,7,0,10.4,0c1.7,0,4.6-0.6,4.7-3.9c0-1.2-0.3-2.1-1-2.8c-0.8-0.8-2-1.2-3.5-1.3c-4.9-0.1-9.9-0.1-14.9-0.1
		c-5.1,0-10.2,0-15.3,0.1C299.6,109.8,298.4,110.2,297.6,111z"/>
	<path class="st0" d="M301.1,99.5c2,0.1,3.9,0,5.9,0c0.9,0,1.8,0,2.7,0c0.9,0,1.8,0,2.8,0c2,0,4.1,0,6.2,0c2.8-0.1,4.5-1.7,4.5-4.1
		c-0.1-2.4-1.7-3.8-4.3-3.9c-6.1-0.1-12.1-0.1-17.9,0c-2.6,0.1-4.2,1.6-4.2,4C296.5,98,298.2,99.4,301.1,99.5z"/>
	<path class="st0" d="M319.6,164.7c-6.5-0.3-13.1-0.3-19.6,0c-1,0-1.9,0.5-2.5,1.2c-0.7,0.8-1,1.8-0.8,2.9c0.3,2.4,1.5,3.6,3.9,3.6
		c2.1,0.1,4.3,0,6.4,0c1,0,1.9,0,2.9,0c1,0,1.9,0,2.9,0c2.1,0,4.3,0,6.4,0c2.4-0.1,3.6-1.2,3.9-3.6c0.1-1.1-0.2-2.1-0.8-2.9
		C321.5,165.2,320.7,164.7,319.6,164.7z"/>
	<path class="st0" d="M89.6,213.4c3,0,5.9,0,8.9,0c3.2,0,6.6,0,9.8,0c2.8,0,4.4-1,5.6-3.6c1.8-3.9,3.7-7.7,5.7-11.8
		c0.9-1.8,1.8-3.7,2.7-5.6l1.7-3.5l1.9,5.6c0.3,1,0.6,1.8,0.8,2.5l3.4,10.2c3.2,9.7,6.5,19.7,9.7,29.6c1.1,3.2,2.1,4.4,4.2,4.5
		c2.1,0.1,3.3-0.9,4.6-4.1c4.2-9.9,8.5-20,12.7-29.7l2.6-6.1c0.3-0.7,0.6-1.3,1-2.1c0.2-0.4,0.4-0.9,0.7-1.4l1.4-2.9l1.4,2.9
		c0.7,1.3,1.3,2.6,1.8,3.9c1.3,2.8,2.5,5.4,4.1,7.8c1,1.6,3,3.1,4,3.1c10.8,0.3,21.7,0.2,32.3,0.1l2.1,0c2.3,0,3.6-1.2,3.8-3.7
		c0.2-2.3-1.1-3.9-3.6-4.3c-0.6-0.1-1.3-0.1-2-0.1c-0.2,0-0.4,0-0.7,0c-2.2,0-4.3,0-6.5,0c-6.2,0-12.6,0-19,0.1
		c-2.9,0-4.6-1-5.7-3.6c-1.4-3.1-3-6.2-4.5-9.3c-1.2-2.5-2.5-5-3.7-7.6c-1.2-2.6-2.4-3.6-4.3-3.6c0,0,0,0,0,0
		c-2.1,0-3.3,1.2-4.3,3.9c-0.5,1.3-1,2.5-1.6,3.7c-0.2,0.5-0.5,1-0.7,1.5l-15.3,35.5l-1.4-3.8c-0.2-0.5-0.4-1-0.5-1.5
		c-0.3-0.9-0.6-1.5-0.8-2.2l-1.4-4.3c-3.7-11.2-7.4-22.5-11.1-33.7l-0.3-0.8c-1-3.2-1.7-5-4.4-5.1c-2.6-0.1-3.5,1.5-4.9,4.4
		l-0.3,0.7c-1.2,2.5-2.4,5-3.6,7.5c-2.2,4.6-4.6,9.3-6.7,14c-1.2,2.7-2.9,5.1-7.4,4.7c-3.1-0.2-6.4-0.2-9.5-0.1c-1,0-2,0-3.1,0
		c-2,0-3.5,0.5-4.4,1.4c-0.6,0.6-0.9,1.5-0.9,2.6C84.2,212.7,87.1,213.4,89.6,213.4z"/>
</g>
</svg>
