<?xml version="1.0" encoding="utf-8"?>
<!-- Generator: Adobe Illustrator 23.0.1, SVG Export Plug-In . SVG Version: 6.00 Build 0)  -->
<svg version="1.1" id="Layer_1" xmlns="http://www.w3.org/2000/svg" xmlns:xlink="http://www.w3.org/1999/xlink" x="0px" y="0px"
	 viewBox="0 0 384 384" style="enable-background:new 0 0 384 384;" xml:space="preserve">
<style type="text/css">
	.st0{fill:#808080;}
	.st1{fill:none;stroke:#808080;stroke-width:10;stroke-miterlimit:10;}
</style>
<path class="st0" d="M234.4,183.9c16.1,7.4,81.4,15.5,97.2,23.6c3.7,1.9,5.6,6.9,5.8,10.7c0.2,3.2-2.2,7.7-5.7,9.8
	c-6.6,4.1-14.1,6.9-23,11.1c8.7,4.1,16.1,6.9,22.6,11c3.7,2.3,6.2,6.9,6.2,10.5c0,3.6-2.4,8.3-6.1,10.5c-6.7,4.2-14.2,6.9-22.9,10.9
	c8.3,3.9,15.7,6.5,22.1,10.6c3.9,2.5,6.8,7.3,6.8,10.9c0,3.7-2.9,8.9-7,10.8c-42.6,20.1-85.4,39.6-128.2,59.4
	c-1.9,0.9-3.5,1.6-5.5,2.2c-2.4,0.6-5.1,0.8-7.4,0c-38.4-14.2-73.7-33.4-110.5-50.5c-8.3-3.9-17-7.2-24.9-11.8
	c-3.4-2-4.4-6.6-4.4-10.1c0-3.4,0.9-8,4.3-10.1c7-4.3,14.8-7.2,23.8-11.4c-8.5-4-16.2-6.8-22.9-11c-3.7-2.3-5.1-7-5.1-10.5
	c0-3.6,1.5-8.1,5.2-10.4c6.4-4,13.7-6.7,22.5-10.8c-8.1-3.9-15.1-6.5-21.3-10.4c-4-2.5-6.5-7.3-6.2-10.6c0.3-4.1,2.1-9.5,6.4-11.5
	l89.7-22.5L234.4,183.9z M61.5,217.3c1.9,1.3,2.8,2.1,3.9,2.6c40.8,18.8,81.5,37.7,122.5,56.1c3.2,1.5,8.4,0.9,11.8-0.6
	c29-13,57.8-26.4,86.6-39.8c12.4-5.7,24.9-11.5,38.8-17.9l-104-24.7l-64.6,0.4L61.5,217.3z M60.6,303.4
	c44.2,20.4,86.1,39.8,128.2,58.7c2.9,1.3,7.7,0.4,10.9-1c39-17.7,77.8-35.7,116.7-53.6c2.3-1.1,4.6-2.4,8.3-4.4
	c-9.2-4.2-17.1-7.4-24.5-11.4c-4.9-2.6-8.8-2.2-13.6,0.1c-27.9,13.2-56.1,25.8-84,39c-6.7,3.2-12.4,3.2-19.1,0
	c-28.2-13.3-56.6-26.3-84.9-39.2c-2.5-1.2-6.1-2.4-8.4-1.5C80.8,293.8,71.9,298.3,60.6,303.4z M61.1,260.3c3.8,2,5.9,3.2,8.1,4.2
	c38.9,17.9,77.8,35.7,116.5,53.8c5.2,2.4,9.3,2.4,14.5,0c38.8-18.1,77.7-35.9,116.5-53.8c2.4-1.1,4.6-2.5,7.9-4.3
	c-8.4-3.9-15.8-6.7-22.7-10.7c-6-3.5-11-2.8-17.1,0.1c-27.3,13-55,25.3-82.3,38.2c-6.7,3.2-12.4,3.2-19.1,0
	c-27.9-13.2-56-26-84.1-38.7c-3.2-1.5-7.8-2.2-10.9-1.1C79.5,251.3,71.1,255.7,61.1,260.3z"/>
<path class="st1" d="M151.6,122c2.4-2.4,4.8-4.8,7.3-7.1c1.1-1,1.6-1.9,0.6-3.2c-0.4-0.5-0.7-1-0.7-1.6c-0.5-3.8-2.9-4.5-6.3-4.1
	c-2,0.3-4,0-6,0.1c-1.2,0-1.7-0.3-1.7-1.6c0-5.2,0-10.4,0-15.6c0-1.3,0.5-1.7,1.7-1.7c3.1,0.1,6.3,0,9.4,0c1.2,0,1.8-0.4,2.1-1.5
	c0.2-0.9,0.6-1.8,1-2.7c1.4-3.3,1.4-3.3-1.2-5.9c-2-2-4.1-3.9-6.1-5.8c4.7-4.6,9.1-8.9,13.8-13.6c2.2,2.3,4.7,4.8,7.1,7.4
	c0.8,0.9,1.5,1.2,2.7,0.5c0.9-0.6,2-1.1,3.1-1.3c2.6-0.5,3.2-2,3-4.4c-0.2-2.9-0.1-5.9-0.1-9.1c6.4,0,12.5,0,18.9,0
	c0,3.5,0.1,6.9,0,10.3c-0.1,1.6,0.4,2.5,2.1,2.8c0.6,0.1,1.1,0.4,1.7,0.6c3.9,1.6,3.9,1.6,6.9-1.5c1.8-1.9,3.6-3.7,5.4-5.6
	c4.5,4.6,8.9,8.9,13.6,13.7c-2.3,2.2-4.7,4.6-7.2,6.9c-1.2,1.1-1.8,2.1-0.7,3.5c0.4,0.5,0.6,1.2,0.8,1.8c1.5,3.7,1.5,3.7,5.6,3.7
	c2.5,0,4.9,0,7.4,0c0.2,0,0.4,0.1,0.7,0.3c0,6.1,0,12.1,0,18.6c-3.3,0-6.5,0.1-9.8,0c-2.1-0.1-3.3,0.5-3.5,2.6
	c0,0.1-0.1,0.3-0.2,0.4c-2.6,3.6-1.2,6.1,1.9,8.4c1.8,1.3,3.3,3,4.8,4.4c-4.6,4.7-9,9.1-13.6,13.7c-2.1-2.2-4.5-4.5-6.8-6.9
	c-1.1-1.2-2.2-1.9-3.8-0.7c-0.6,0.5-1.5,0.8-2.2,1c-2.8,0.5-3.4,2.1-3.2,4.7c0.2,2.9,0.1,5.8,0.1,8.8c-6.4,0-12.5,0-18.9,0
	c0-3.6-0.1-7,0-10.4c0-1.5-0.3-2.4-1.9-2.7c-0.5-0.1-1.1-0.2-1.5-0.5c-3.2-2.4-5.5-1.2-7.7,1.6c-1.5,1.9-3.3,3.7-4.9,5.5
	C160.6,131.1,156.2,126.7,151.6,122z M190.5,119.6c12.8,0,23.1-10.1,23.1-22.9c0-13-10-23.1-23-23.1c-12.5,0-22.8,10.1-22.8,22.4
	C167.7,109.2,177.6,119.5,190.5,119.6z"/>
<path class="st0" d="M179.2,11.5c-29,3.9-53.4,22.3-65.4,49.2c-11.9,26.8-9.2,57.1,7.2,81.1c3.9,5.8,8.9,11.1,13.7,16.1l1.8,1.9
	c5.1,5.5,7.8,11.9,8.1,19.8c0.1,3.4-0.9,5.2-3.9,6.7c-7.5,3.9-11.6,11.8-10.6,20.6c0.9,8,7,14.9,15.1,17.2c0.7,0.2,1.3,0.4,2.1,0.6
	l1.8,0.5l0,2.5c0,1.3,0,2.5,0,3.7c0.2,17,11.8,29.9,28.3,31.2c8.8,0.7,17.7,0.7,26.5,0c16.5-1.4,28.1-14.2,28.3-31.3
	c0-1.3,0-2.6,0-3.9l0-2.5l0.7-0.2c1.3-0.3,2.6-0.6,3.8-1c8.3-2.8,13.1-8.3,14.3-16.5c1.4-9.7-2.6-17.1-11.9-22
	c-1.3-0.7-2.2-2.5-2.2-3.8c-0.3-8.5,2-15.3,7.1-20.6l1.4-1.5c3-3.1,6.2-6.4,9.1-9.7c17.6-20.3,24.2-47.2,18.2-73.6
	c-6-26.3-23.5-47.4-47.9-58.1c-5.4-2.4-11.4-3.8-17.1-5.2c-1.3-0.3-2.7-0.7-4-1c-0.6-0.1-6.4-0.8-12.5-0.9
	C185.2,10.8,179.5,11.4,179.2,11.5z M239.5,204c0,2.5-0.7,4.6-2.3,6.1c-1.8,1.8-4.6,2.8-8,2.9c-3.9,0-7.7,0-11.6,0
	c-3.4,0-6.7,0-10.1,0c-3.4,0-7.4,1.1-7.4,5.8c0,5,4.7,5.8,7.5,5.9c2.6,0,5.2,0,7.7,0c1.1,0,2.3,0,3.4,0h0.7l0.2,0.7
	c1.6,7,0.4,13.4-3.3,18.2c-3.7,4.7-9.5,7.3-16.4,7.4c-2.1,0-4.1,0-6.2,0c-1.7,0-3.5,0-5.2,0l-4.9,0c-8.2,0-14.1-2-17.9-6.1
	c-3.9-4.2-5.5-10.6-4.8-19.4l0.1-0.8l4.2,0c2.4,0,4.8,0,7.1,0c3,0,8-0.8,8.1-5.8c0-1.6-0.4-2.8-1.4-3.8c-1.3-1.4-3.6-2.1-6.5-2.1
	c-3,0-6,0-9,0c-3.9,0-7.8,0-11.8,0c-3.4,0-6.2-1-8-2.9c-1.5-1.6-2.3-3.7-2.2-6.1c0.1-5.3,4-8.7,10.1-8.7c25.8,0,51.9,0,77.7,0
	C235.5,195.3,239.4,198.7,239.5,204z M184.4,183.2h-28l-0.2-2.8c-0.1-1.4-0.2-2.8-0.3-4.3c-0.5-9.9-4.8-18.4-13.6-26.9
	c-12.2-11.8-19.6-24.9-22.8-40.3c-3.9-18.7,0.3-38.8,11.5-55c11.1-16.2,28.3-27.3,47.1-30.4c20-3.3,39.8,1.5,55.9,13.4
	c15.6,11.6,25.6,28.4,28.2,47.5c3.1,23.2-3.5,43.7-19.6,60.9l-0.4,0.4c-0.4,0.4-0.8,0.8-1.2,1.2c-11.8,11.1-16.8,22.3-15.8,35.4
	l0.1,1h-28.5"/>
</svg>
