<?xml version="1.0" encoding="utf-8"?>
<!-- Generator: Adobe Illustrator 23.0.1, SVG Export Plug-In . SVG Version: 6.00 Build 0)  -->
<svg version="1.1" id="Layer_1" xmlns="http://www.w3.org/2000/svg" xmlns:xlink="http://www.w3.org/1999/xlink" x="0px" y="0px"
	 viewBox="0 0 384 384" style="enable-background:new 0 0 384 384;" xml:space="preserve">
<style type="text/css">
	.st0{fill:#808080;}
</style>
<path class="st0" d="M363.5,24.5c-1.7-4.9-5.6-7.2-10.3-6.1c-4.8,1.1-9.6,0.7-14.7-1.5c-6-2.5-12-5.1-17.9-7.9
	c-13.4-6.2-26.5-6.3-39.8-0.1c-1,0.4-1.9,0.9-2.9,1.4c-5.1,2.4-10.3,4.9-15.7,6.7c-4.2,1.4-8.7,1.9-12.8,1.5c-6.9-0.8-10,1-12,6.8
	c-4.7,13.4-7,27.5-6.6,41.8c0,0.9,0,1.8,0,2.6l0,1.7h-0.5c-0.2,0-0.4,0-0.6,0c-0.3,0-0.5,0-0.7,0c-0.8-0.2-1.6-0.5-2.5-0.8
	c-36.7-13.5-73.7-13.2-109.9,0.7C42.7,99.8,2.6,181.3,25,257c0.4,1.3,0.9,2.6,1.5,3.9c1.2,2.9,2.5,6,1.8,8.5c-0.7,2.8-3.4,5-5.9,7.2
	c-1,0.9-2.1,1.8-3,2.7c-6.1,6.1-6,11.6,0.1,17.8l15.9,15.9c20.6,20.6,41.9,42,63,62.9c1.5,1.5,3.3,2.7,5,3.9
	c0.8,0.5,1.6,1.1,2.4,1.6h4.8c1.7-1.5,3.3-3,5-4.5c4.3-3.8,8.7-7.8,13-11.9c1.9-1.9,3.7-2.8,6.8-2c24.5,6.2,49.4,6.2,74.1,0
	c2.5-0.6,4.5-0.5,6.6,1.8c2.9,3.3,6.3,6.7,10.4,10.4c1.7,1.6,3.6,3,5.5,4.3c0.8,0.6,1.6,1.2,2.4,1.8h4.9c0.5-0.3,1-0.5,1.4-0.8
	c1.1-0.6,2.2-1.1,3-1.9c10.9-10.7,21.7-21.5,32.1-32.1c1.1-1.1,1.6-2.3,1.6-3.7c0-1.3-0.6-2.5-1.6-3.5c-2-1.9-4.7-1.9-7,0.1
	c-0.5,0.4-1,1-1.5,1.4c-0.2,0.2-0.4,0.4-0.6,0.6l-7.9,7.9c-6.2,6.2-12.5,12.5-18.7,18.7c-0.7,0.7-1.4,1.3-1.9,1.8l-0.8,0.8
	l-29.8-29.4l82-82.3l30.1,29.6l-8.9,8.8c-7.6,7.6-15.3,15.3-23,22.9c-2.7,2.7-2.9,5.5-0.8,7.7c1,1,2.1,1.5,3.4,1.6c0,0,0,0,0,0
	c1.5,0,2.9-0.7,4.3-2.1c11.3-11.2,21.5-21.3,31.8-31.8c4.6-4.7,4.6-10.6,0-15.4c-2.6-2.7-5.7-5.9-8.9-8.8c-1.8-1.7-1.8-3.2-1.1-5
	c12.2-34,12.4-68.5,0.7-102.6c-0.7-2-0.7-3.4,1.5-4.8c3.2-2,6.2-4.3,9-6.4C366.6,122.2,380.3,73.1,363.5,24.5z M108.1,370l-0.4-0.4
	l-81.9-82l28.4-28.5l82.5,82.5L108.1,370z M205.3,327.9c-0.8,1.2-1.7,2.4-2.6,3.6c-2,2.8-4.1,5.6-5.2,8.7c-1.7,4.6,1.6,7.9,5.1,11.3
	c0.5,0.5,1,1,1.5,1.5l0.6,0.6l-0.9,0.2c-10.5,2.3-21,3.5-31.4,3.5c-10.5,0-21.1-1.2-31.8-3.5l-0.9-0.2l1.2-1.1
	c4-3.7,8.2-7.6,6.1-12.9c-1.3-3.2-3.5-6-5.7-8.7c-0.9-1.1-1.8-2.2-2.5-3.3l-0.2-0.3l32.8-34l34.3,34.2L205.3,327.9z M213.9,319.7
	l-32.8-32.8l1.1-0.1c1.8-0.1,3.6-0.3,5.3-0.5c3.8-0.4,7.4-0.8,11.1-0.6c9.9,0.5,21.3,0.5,31.8-4.9c0.2-0.1,0.5-0.2,0.7-0.3
	c0.8-0.4,1.7-0.9,2.4-1.4c1.6-1.3,3.2-3.5,1.4-6.5c-1.4-2.3-3.5-3.1-6.1-2.1c-0.1,0.1-0.2,0.1-0.3,0.1c-9.4,5.5-19.3,5.3-29.9,5.1
	l-0.8,0c-7.3-0.1-14.8,1.6-19.8,2.9c-6.1,1.6-11.9,5.2-17.8,11c-5.2,5.2-10.5,10.4-15.7,15.7c-3.8,3.8-7.6,7.6-11.5,11.4
	c-0.6,0.6-1.2,1.2-1.8,1.7l-1,0.9l-57.5-57.5l3.5-3.5c3.5-3.5,7.1-7.1,10.8-10.7c0.7-0.7,2.4-0.8,3.4-0.5
	c13.8,4.5,23.9-0.3,29.3-13.9l0.2-0.5l0.5,0.2c6.9,3,13,3.2,18.7,0.6c6.2-2.7,10.1-7.6,12.1-14.7l0.1-0.5l0.5,0.2
	c8.5,3,16,1.9,22.2-3.3c6.1-5.1,8.4-12.1,7-21.3l-0.1-0.5l0.5-0.1c7-1.3,12.1-4.6,15.4-10.1c4.8-7.9,3.8-18-2.3-24.7
	c-1.9-2.1-4-4-5.9-5.7c-0.8-0.7-1.6-1.5-2.4-2.2l-0.4-0.3l0.3-0.4c1.9-2.1,3.8-4.1,5.7-6.2c4.5-4.9,8.7-9.6,13.4-13.9
	c3.7-3.5,9.6-2.3,13.2,1c3.8,3.5,4.6,9,2,13.4c-0.4,0.6-0.8,1.2-1.2,1.8c-0.2,0.2-0.3,0.4-0.5,0.7c-1.8,2.4-1.8,4.7,0.1,6.7
	c1.9,2,4.1,2.2,7,0.4c2.3-1.4,5-2.8,7.8-3.2c3.9-0.5,7.4,1.5,9.5,5.5c1.9,3.6,1.8,7.4-0.4,11c-0.3,0.5-0.7,1-1.1,1.5
	c-0.2,0.2-0.3,0.4-0.5,0.6c-1.9,2.6-1.8,4.9,0.4,6.9c1.8,1.7,3.8,1.8,6.9,0.1l0.8-0.4c2.4-1.3,5.2-2.8,7.8-2.8
	c3.8,0.1,7.1,2.2,8.8,5.5c1.9,3.6,1.6,7.9-0.7,11.3c-0.3,0.4-0.5,0.7-0.8,1.1c-0.3,0.3-0.5,0.6-0.8,1c-1.6,2.4-1.5,4.6,0.3,6.5
	c1.9,2,4.1,2.2,6.7,0.6c0.4-0.3,0.8-0.5,1.3-0.8c1.6-1,3.2-2.1,5-2.4c4.4-1,8.2,0.6,10.8,4.4c2.5,3.7,2.6,7.7,0.3,11.7
	c-0.9,1.6-2.4,3.1-3.6,4.3c-9.2,9.2-18.4,18.4-27.6,27.6l-8.2,8.2c-0.2,0.2-0.4,0.4-0.6,0.6c-0.5,0.5-1,0.9-1.4,1.5
	c-2,2.3-2.1,5-0.2,7c1,1,2.2,1.6,3.4,1.7c1.3,0,2.6-0.5,3.8-1.6c2.2-2.1,4.3-4.3,6.5-6.6c0.9-1,1.9-2,2.8-3l0.4-0.4l9.2,9.8
	L213.9,319.7z M164.8,154.2c8.9-0.5,15.1,2.3,20.2,9.1c0.3,0.4,0.7,0.9,1,1.3c1.3,1.7,2.7,3.5,3.3,5.5c1.3,4.2-0.1,8.2-3.8,11
	c-1.9,1.5-4.1,2.2-6.3,2.2c-1.7,0-3.5-0.4-5.3-1.3c-1.1-0.5-2.2-1.3-3.1-2.2c-2.6-2.6-5.2-5.2-7.8-7.7c-9.4-9.3-19.1-18.9-28.5-28.5
	c-2.9-3-4.1-6.8-3.2-10.3c0.9-3.7,3.9-6.7,8.3-8l0.6-0.2l0.1,0.6c0.1,1.1,0.2,2.2,0.2,3.3c0.1,2.2,0.3,4.4,0.7,6.4
	C143.7,146.9,153.7,154.9,164.8,154.2z M150.8,125.5c0.4-1.3,2.5-2.8,3.9-2.8c8.6-0.2,17.7-0.2,28.8,0c3.6,0,6.3,1.8,8.3,5.2
	l0.2,0.3l-3.2,3.2c-4,4-8,8-11.9,12c-0.5,0.5-1,0.9-1.6,0.9c-1.4,0-2.9,0-4.3,0.1c-1.2,0-2.4,0.1-3.6,0.1c-3.2,0-6.4-0.3-9.4-2
	C152.1,139.3,148.9,131.7,150.8,125.5z M137,160.4c10,10,20.4,20.4,30.6,30.6c3.2,3.2,4.4,7.5,3.3,11.4c-1,3.7-4,6.4-7.9,7.4
	c-0.9,0.2-1.9,0.4-2.8,0.4c-2.8,0-5.3-1.1-7.5-3.3l-1.3-1.3c-13-13-26.5-26.3-39.6-39.7c-1.3-1.3-2.1-3.2-2.8-5
	c-0.3-0.8-0.7-1.6-1.1-2.4l-0.1-0.2l0-0.2c0.9-4.7,2.9-7.7,6.5-9.7c3.6-2,7.3-1.8,11,0.5c0.9,0.6,1.7,1.4,2.3,2L137,160.4z
	 M109.3,177.8c9.3,9.2,18.9,18.8,28.2,28.4c1.5,1.6,2.5,3.5,3.3,5.1c0.3,0.6,0.5,1.1,0.8,1.5l0.1,0.1l0,0.2
	c-0.4,6.1-2.3,9.5-6.5,11.3c-1.6,0.7-3.2,1.1-4.8,1.1c-2.7,0-5.1-1.1-7.3-3.2c-3.2-3-6.3-6.2-9.3-9.2c-1.3-1.3-2.5-2.5-3.8-3.8
	l-5.5-5.5c-4.8-4.8-9.6-9.5-14.3-14.4c-5.2-5.3-5.6-11.7-1-16.3c4.5-4.5,11.3-4.2,16.4,0.9L109.3,177.8z M89.3,203.1
	c5.7,5.3,11.2,11,16.6,16.4l0.4,0.4c4.7,4.8,4.9,11.4,0.6,15.9c-2.1,2.1-4.6,3.2-7.4,3.3c0,0-0.1,0-0.1,0c-3,0-6.1-1.4-8.6-3.8
	c-5.2-5.1-11.4-11.2-17.4-17.5c-3.3-3.5-4.1-7.8-2-12.1c1.8-3.9,5-6.1,10.2-7l0.2,0l0.2,0.1c0.8,0.4,1.6,0.8,2.4,1.2
	C86.1,200.8,87.9,201.7,89.3,203.1z M307.3,261.4l-0.3,0.8l-0.5-0.6c-0.8-1-1.6-1.9-2.4-2.9c-1.6-1.9-3-3.7-4.6-5.3
	c-6.3-6.4-10.9-6.6-17.8-0.5c-0.2,0.2-0.5,0.3-0.7,0.5c-0.1,0.1-0.2,0.1-0.3,0.2l-0.3,0.2l-9.5-9.6l3.9-3.9c3.1-3.1,6.2-6.2,9.3-9.3
	l2-1.9c2.3-2.3,4.6-4.6,6.9-6.9c6.5-6.8,8.3-14.5,5.1-22.9c-3.1-8.3-9.4-12.8-18.7-13.4c-0.3,0-0.7-0.1-1-0.1
	c-0.2,0-0.4-0.1-0.6-0.1l-0.4-0.1l0-0.4c-0.2-6.5-2.3-11.7-6.2-15.7c-3.9-4-9-6.1-15.5-6.4l-0.4,0l-0.1-0.4
	c-3.6-16-8-20.3-22.3-22.2l-0.4-0.1l0-0.4c-0.4-8.6-3.9-15-10.4-18.8c-6.8-4.1-14.2-4.1-21.8,0l-0.4,0.2l-0.3-0.3
	c-4.7-6.1-11.3-8.8-20.6-8.4c-3.4,0.1-6.9,0.1-10.3,0.1c-3.5,0-7.2-0.1-10.7,0.1c-2.5,0.1-5,0.7-7.5,1.2c-1.2,0.3-2.3,0.5-3.5,0.7
	l-0.3,0.1c-0.6,0.1-1.3,0.2-2,0.2c-14.8,0-22.3,6.9-23.8,21.5l0,0.4l-0.4,0c-13.8,1.2-21,8.5-22.1,22.3l0,0.4l-0.4,0
	c-8,0.3-13.9,3.3-17.9,8.9c-4.3,6.1-5.1,12.6-2.5,20.1l0.2,0.4l-0.4,0.2c-0.3,0.1-0.5,0.2-0.8,0.4c-0.5,0.2-1.1,0.5-1.6,0.7
	c-7,2.5-12.2,8.1-13.9,15c-1.7,7,0.3,14.1,5.5,19.5c3.1,3.3,6.5,6.5,9.7,9.5c1.5,1.4,2.9,2.8,4.3,4.1l0.4,0.4l-15.8,15.7l-1-1
	c-0.6-0.6-1.4-1.3-2.1-2c-4.5-4-10.1-4-14.6,0.1c-1.4,1.3-2.9,2.7-4.4,4.4c-1,1-1.9,2.2-2.8,3.2c-0.4,0.5-0.8,1-1.3,1.5l-0.2,0.2
	l-1.9-0.3l-0.1-0.3c-0.5-2.1-1.1-4.3-1.7-6.4c-1.2-4.6-2.5-9.3-3.3-14c-5.7-32.7-0.6-65.1,14.7-93.7c15.4-28.7,39.6-50.7,70-63.7
	c36.8-15.7,74.8-15.7,112.9,0c2.1,0.9,3.1,2.2,3.6,4.6c7.1,35,27.9,61.2,63.6,80.2c3.4,1.8,4.9,1.7,10.3-0.8l0.5-0.2l0.2,0.5
	C318.3,194.5,318.4,232.5,307.3,261.4z M310.5,151.6c-2.5,1.7-5,3.4-7.5,5.1c-0.6,0.4-1.6,0.7-2.6,0.7c-0.7,0-1.4-0.1-1.9-0.4
	c-27.1-14.7-44.3-34-52.7-59c-7.3-21.6-7.1-44.2,0.6-68.8l0.1-0.4l0.4,0.1c11.8,2,22-3,31.8-7.9c1.2-0.6,2.4-1.2,3.5-1.7
	c12.5-6,24.3-6,36.2,0c4.5,2.3,9.3,4.4,13.4,6.1c6.2,2.6,13.6,5,21.7,3.4l0.4-0.1l0.1,0.4c6.3,17.8,7.9,37.5,4.6,55.6
	c-3.8,20.4-13.8,38.6-29,52.6C323.9,142.6,317.1,147.2,310.5,151.6z"/>
<path class="st0" d="M331.2,66.3c0.4,0.8,0.7,1.6,1.1,2.4c1,2,2.9,3.4,4.9,3.5c1.5,0.1,2.9-0.6,3.7-2c0.9-1.5,1-4.2,0.4-6.1
	c-5.9-17.5-22.4-28.8-40.8-28.8c-2.5,0-4.9,0.2-7.4,0.6c-20.4,3.4-35.7,21.8-35.7,42.8c0,14.3,7.1,27.6,18.9,35.6
	c11.9,8.2,26.5,9.9,39.9,4.7c11.3-4.4,19.5-12.4,24.4-23.8c1.2-2.8,0.2-5.7-2.4-6.8c-2.6-1.1-5.3,0-6.8,2.7c-0.3,0.5-0.5,1-0.7,1.5
	c-0.2,0.5-0.5,1-0.7,1.5c-7.1,13.4-21.8,20.2-36.7,16.9c-13.9-3.1-25-15.8-25.8-29.6c-0.9-15.7,7.7-29.1,22-34.2
	c14.1-5,29.8,0,38.1,12.1C329.1,61.6,330.1,64,331.2,66.3z"/>
<path class="st0" d="M320.9,64.7c-2.2-1.6-4.4-0.2-5.9,1.3c-3.9,3.9-7.8,7.9-11.9,12l-5.2,5.2l-0.4-0.4c-1.2-1.3-2.4-2.5-3.6-3.7
	c-2.6-2.7-5.1-5.2-7.6-7.7c-1.5-1.5-3-2.2-4.4-2.2c-1.2,0-2.3,0.5-3.3,1.5c-2.2,2.2-2,5.1,0.6,7.7c5.1,5.2,9.8,9.9,14.6,14.6
	c2.8,2.8,5.5,2.8,8.3,0c8-7.9,14.1-14,19.7-19.8c1.1-1.1,2.1-2.9,1.9-4C323.5,67.7,322.3,65.7,320.9,64.7z"/>
</svg>
