<?xml version="1.0" encoding="utf-8"?>
<!-- Generator: Adobe Illustrator 23.0.1, SVG Export Plug-In . SVG Version: 6.00 Build 0)  -->
<svg version="1.1" id="Layer_1" xmlns="http://www.w3.org/2000/svg" xmlns:xlink="http://www.w3.org/1999/xlink" x="0px" y="0px"
	 viewBox="0 0 384 384" style="enable-background:new 0 0 384 384;" xml:space="preserve">
<style type="text/css">
	.st0{fill:#808080;}
</style>
<g>
	<path class="st0" d="M325.7,381.3c0.2-0.1,0.3-0.2,0.5-0.2c0.2-0.1,0.5-0.2,0.7-0.3c0.2-0.1,0.3-0.2,0.5-0.2
		c0.2-0.1,0.4-0.2,0.6-0.3c0.2-0.1,0.3-0.2,0.5-0.3c0.2-0.1,0.4-0.2,0.5-0.3c0.1-0.1,0.3-0.2,0.4-0.3c0.1-0.1,0.3-0.2,0.4-0.3
		c0.1-0.1,0.2-0.2,0.4-0.3c0.1-0.1,0.3-0.2,0.4-0.3c0.1-0.1,0.2-0.2,0.3-0.3c0.1-0.1,0.2-0.2,0.3-0.3c0.1-0.1,0.2-0.3,0.3-0.4
		c0.1-0.1,0.2-0.2,0.3-0.3c0.1-0.1,0.2-0.3,0.2-0.4c0.1-0.1,0.1-0.2,0.2-0.4c0.1-0.2,0.1-0.3,0.2-0.5c0.1-0.1,0.1-0.2,0.2-0.4
		c0.1-0.2,0.1-0.4,0.2-0.5c0-0.1,0.1-0.3,0.1-0.4c0-0.2,0.1-0.4,0.1-0.6c0-0.1,0.1-0.3,0.1-0.4c0-0.2,0.1-0.5,0.1-0.7
		c0-0.1,0-0.3,0.1-0.4c0-0.3,0.1-0.6,0.1-0.9c0-0.1,0-0.3,0-0.4c0-0.3,0-0.7,0-1.1c0-0.1,0-0.2,0-0.3c0-0.5,0-1,0-1.5l0-6.7
		c0-7.1,0-14.2,0-21.4c0-7.2,0-14.4,0-21.6c0-14-3.9-27-11.8-38.7c-6-8.8-13.6-16.7-23.3-23.9c-19.8-14.8-43.9-25.9-75.8-35
		c-2.2-0.6-4.2-0.1-6.5,1.8c-4.6,3.8-9.2,7.7-13.9,11.5c-6.1,5-12.3,10.1-18.4,15.3c-2.4,2-4.1,2-6.5,0c-4.8-4.1-9.8-8.1-14.6-12.1
		c-5.5-4.5-11.1-9.1-16.6-13.8c-3.3-2.8-6.1-3.4-9.7-2.1c-3.5,1.2-7.1,2.4-10.5,3.5c-4.2,1.3-8.5,2.7-12.6,4.2
		c-23.9,9-42.1,19.1-57.1,32c-20.3,17.4-29.6,37.8-28.6,62.4c0.4,10.4,0.3,21.1,0.2,31.4c0,4.4-0.1,8.8-0.1,13.2c0,0.5,0,1,0,1.5
		c0,0.2,0,0.3,0,0.5c0,0.3,0,0.6,0,0.9c0,0.2,0,0.3,0,0.5c0,0.3,0,0.5,0.1,0.8c0,0.2,0,0.3,0.1,0.5c0,0.2,0.1,0.5,0.1,0.7
		c0,0.2,0.1,0.3,0.1,0.5c0,0.2,0.1,0.4,0.1,0.6c0,0.2,0.1,0.3,0.1,0.4c0.1,0.2,0.1,0.3,0.2,0.5c0.1,0.1,0.1,0.3,0.2,0.4
		c0.1,0.2,0.1,0.3,0.2,0.5c0.1,0.1,0.1,0.2,0.2,0.4c0.1,0.1,0.2,0.3,0.2,0.4c0.1,0.1,0.2,0.2,0.2,0.3c0.1,0.1,0.2,0.3,0.3,0.4
		c0.1,0.1,0.2,0.2,0.3,0.3c0.1,0.1,0.2,0.3,0.4,0.4c0.1,0.1,0.2,0.2,0.3,0.3c0.1,0.1,0.3,0.2,0.4,0.4c0.1,0.1,0.2,0.2,0.4,0.3
		c0.2,0.1,0.3,0.2,0.5,0.3c0.1,0.1,0.3,0.2,0.4,0.2c0.2,0.1,0.4,0.2,0.6,0.3c0.1,0.1,0.3,0.2,0.4,0.2c0.2,0.1,0.4,0.2,0.6,0.3
		c0.2,0.1,0.3,0.2,0.5,0.2c0.2,0.1,0.5,0.2,0.7,0.3c0.2,0.1,0.4,0.2,0.6,0.2c0.2,0.1,0.5,0.2,0.7,0.3h29.3c2.9-2,3.8-3.9,3-6.4
		c-1-2.8-3.2-3.4-6.5-3.3c-3.6,0.1-7.3,0-10.8,0c-3.1,0-6.1,0-9.2,0c-1.7,0-3-0.4-3.8-1.2c-0.8-0.8-1.2-1.9-1.2-3.4
		c0-5.4,0-10.8,0-16.2c0-13.2,0-26.8,0.6-40.2c0.5-12.2,6.1-23.8,17-35.5c15.6-16.7,35.1-26.5,52.2-33.8l1.3-0.6l-0.3,1.4
		c-0.4,2-0.8,3.9-1.2,5.8c-0.8,4-1.6,7.7-2.4,11.5c-1.2,5.7-2.5,11.3-3.7,17c-0.8,3.9-1.7,7.7-2.5,11.6c-1,4.7-0.5,5.9,3.7,8.3
		c3.5,2,7,4,10.5,6l5.4,3.1l-0.4,0.7c-1.3,2.3-2.6,4.5-3.9,6.7c-3.2,5.5-6.2,10.7-9.4,15.9c-1.8,2.9-1.8,5.3-0.2,8.2
		c4.3,7.9,8.5,15.7,12.8,24.1c1.7,3.2,3.4,6.4,5.1,9.7l0.6,1.1h-7.7c-2.2,0-4.4,0-6.5,0c-5.3,0-10.7,0-16.1,0
		c-3.2,0-5.6,0.5-6.5,3.3c-0.8,2.5,0.1,4.5,3,6.3h235.8c0.2-0.1,0.3-0.1,0.5-0.2C325.2,381.5,325.5,381.4,325.7,381.3z M189.5,256.3
		c0.4-0.3,0.8-0.5,1.2-0.7c0.7-0.4,1.2-0.7,1.6-1l4-3.3c7.4-6.1,15.2-12.4,22.6-18.7c2-1.6,3.8-2,6.1-1.2c3,1.1,6,2,9.2,3
		c1.3,0.4,2.6,0.8,4,1.3l0.8,0.3l-19.8,38.2L188.4,257L189.5,256.3z M187,267.1c3.6,2.4,7.4,4.4,11.4,6.6c1.8,0.9,3.6,1.9,5.4,2.9
		l0.6,0.3l-0.3,0.6c-0.8,1.7-1.5,3.3-2.3,4.9c-2.3,5-4.5,9.7-6.9,14.5c-0.6,1.2-2.3,2.2-3.7,2.3c-3.7,0.1-7.2,0.1-10.7,0.1
		c-3.6,0-7.1,0-10.5-0.1c-1.4,0-3.3-1.2-3.9-2.5c-2.3-4.6-4.5-9.2-6.7-14.1c-0.8-1.7-1.5-3.3-2.3-5l-0.3-0.6l0.6-0.3
		c1.7-1,3.5-1.9,5.2-2.9c3.9-2.1,8-4.3,11.7-6.8C178.8,264,182.4,264,187,267.1z M122.8,235.6c1.3-0.4,2.5-0.8,3.8-1.2
		c3.8-1.2,7.3-2.3,11-3.4c1-0.3,2.5,0,3.4,0.6c8.1,6.6,16.1,13.2,24.6,20.2l6.5,5.4l-30.3,16.9l-19.8-38.3L122.8,235.6z
		 M146.8,372.2h-0.6c-1,0-2,0-2.9,0c-1,0-1.9,0-2.9,0c-1.7,0-3.5,0-5.2-0.1c-1.2-0.1-2.4-1.5-2.9-2.3c-5.5-10.3-11.9-22.2-18-34.1
		c-0.7-1.4-0.4-3.7,0.4-5c2.8-5,5.8-10.1,8.7-15c1.5-2.6,3-5.1,4.5-7.7c1.3-2.3,1.7-3.8,1.4-5.2c-0.4-1.3-1.5-2.5-3.8-3.8
		c-1.7-1-3.4-2-5.2-2.9c-3.1-1.7-6.2-3.5-9.3-5.4c-1.1-0.7-2.6-2.5-2.3-3.7c2-9.7,4.1-19.6,6.2-29.1l1.6-7.5l1.9-0.4l4.4,8.6
		c3.6,7.1,7.3,14.1,10.9,21.2c1.7,3.3,3,5.3,4.5,5.8c1.5,0.5,3.8-0.5,7.1-2.2c0.4-0.2,0.9-0.4,1.4-0.7l1.6-0.8l2.4,5.2
		c2.7,5.8,5.3,11.4,7.9,17c0.4,0.8,0.2,1.8,0.1,2.6c-3.4,18.8-6.8,37.5-10.3,56.5L146.8,372.2z M156.7,372l11.4-62.9h24.9l11.4,62.9
		H156.7z M224.9,372.3c-0.1,0-0.3,0-0.5,0c-2.2-0.1-4.4-0.1-6.7-0.1c-1,0-2,0-3,0h-0.6l-9.1-50.3c-0.9-4.7-1.7-9.6-2.6-14.3
		c-0.2-1.4-0.4-2.8,0.1-4c2.4-5.3,4.8-10.4,7.3-15.8c0.8-1.7,1.6-3.5,2.5-5.2l0.3-0.7l0.7,0.3c5.1,2.4,7.8,3.8,9.6,3.3
		c1.7-0.5,3-3,5.5-7.9l4.8-9.2c2.5-4.9,5.1-9.9,7.6-14.8c0.4-0.7,0.8-1.4,1.3-2.2c0.3-0.5,0.6-1,1-1.6l1-1.7l1.8,8.1
		c1,4.6,2,8.9,2.9,13.2c0.4,1.8,0.8,3.6,1.1,5.4c0.8,3.6,1.5,7.3,2.4,10.9c0.6,2.5-0.1,4.1-2.3,5.3c-4.2,2.2-8.4,4.7-12.4,7
		l-2.1,1.2c-2.1,1.2-3.3,2.4-3.6,3.7c-0.3,1.3,0.1,2.9,1.3,5c4,6.9,8.7,14.9,13.3,22.7c1.2,2.1,1.3,3.8,0.2,5.8
		c-6.5,12-12.8,24-17.5,33C228.2,371.1,227.1,372.3,224.9,372.3z M317.7,372.2c-11.6,0-23.2,0-34.8,0c-6.6,0-13.1,0-19.7,0l-24.5,0
		l0.5-1.1c0.3-0.6,0.6-1.2,0.8-1.7c0.5-1.1,1-2.1,1.5-3.1c1.3-2.4,2.5-4.7,3.8-7.1c3.7-7,7.5-14.3,11.5-21.4
		c1.8-3.3,1.8-5.8-0.1-8.9c-3.2-5.1-6.2-10.3-9.3-15.7c-1.3-2.2-2.6-4.4-3.9-6.7l-0.4-0.7l15.5-8.9c4.6-2.6,5.1-3.8,4-8.8
		c-3-14-6.1-28-9.1-42c-0.1-0.6-0.2-1.3-0.2-2.2c0-0.5-0.1-1-0.1-1.7l-0.1-1.3l1.2,0.6c2.4,1.2,4.7,2.3,6.9,3.4
		c4.9,2.4,9.6,4.7,14.1,7.2c17.9,10.1,29.7,20.2,38.3,32.7c6.7,9.9,10.2,21,10.2,32.9c0,16.1,0,32.2,0,48.3
		C323.8,371.2,322.7,372.2,317.7,372.2z"/>
	<path class="st0" d="M171.1,3.7c-23.8,3.2-43.9,18.3-53.7,40.4c-9.8,22-7.6,46.9,5.9,66.6c3.2,4.8,7.3,9.1,11.3,13.3l1.4,1.5
		c4.2,4.5,6.4,9.8,6.6,16.2c0.1,2.8-0.8,4.3-3.2,5.5c-6.2,3.2-9.5,9.7-8.7,16.9c0.8,6.5,5.7,12.2,12.4,14.1c0.6,0.2,1.1,0.3,1.7,0.5
		l1.4,0.4l0,2.1c0,1,0,2,0,3c0.1,14,9.7,24.5,23.3,25.7c7.2,0.6,14.6,0.6,21.8,0c13.5-1.1,23.1-11.7,23.3-25.7c0-1.1,0-2.2,0-3.2
		l0-2l0.6-0.1c1.1-0.2,2.1-0.5,3.1-0.8c6.8-2.3,10.8-6.8,11.8-13.6c1.2-8-2.1-14-9.8-18.1c-1-0.5-1.8-2.1-1.8-3.1
		c-0.3-7,1.6-12.5,5.8-16.9l1.2-1.2c2.5-2.6,5.1-5.3,7.4-8c14.4-16.7,19.9-38.7,15-60.4c-4.9-21.6-19.3-39-39.4-47.7
		c-4.4-1.9-9.3-3.1-14.1-4.3c-1.1-0.3-2.2-0.6-3.3-0.8c-0.5-0.1-5.2-0.6-10.3-0.7C176.1,3.2,171.4,3.7,171.1,3.7z M220.7,161.8
		c0,2-0.6,3.8-1.8,5c-1.5,1.5-3.7,2.3-6.6,2.4c-3.2,0-6.3,0-9.5,0c-2.8,0-5.5,0-8.3,0c-2.8,0-6.1,0.9-6,4.8c0,4.1,3.8,4.8,6.1,4.8
		c2.1,0,4.2,0,6.4,0c0.9,0,1.9,0,2.8,0h0.6l0.1,0.6c1.3,5.7,0.3,11-2.8,15c-3,3.9-7.8,6-13.5,6.1c-1.7,0-3.4,0-5.1,0
		c-1.4,0-2.8,0-4.3,0l-4,0c-6.8,0-11.6-1.6-14.7-5c-3.2-3.5-4.5-8.7-3.9-15.9l0.1-0.7l3.5,0c2,0,3.9,0,5.9,0c2.4,0,6.5-0.7,6.6-4.8
		c0-1.3-0.4-2.3-1.1-3.1c-1.1-1.1-2.9-1.7-5.3-1.7c-2.5,0-4.9,0-7.4,0c-3.2,0-6.4,0-9.7,0c-2.8,0-5.1-0.9-6.6-2.4
		c-1.2-1.3-1.9-3-1.8-5c0.1-4.3,3.3-7.1,8.3-7.1c21.2,0,42.6,0,63.8,0C217.4,154.7,220.6,157.5,220.7,161.8z M216.1,24.5
		c12.8,9.5,21,23.3,23.1,39c2.5,19-2.9,35.9-16.1,50l-0.3,0.4c-0.3,0.3-0.6,0.7-1,1c-9.7,9.1-13.8,18.3-13,29.1l0.1,0.8h-23.4V90.7
		h0.8c1,0,1.9,0,2.9,0c2.2,0,4.4,0,6.6,0c3.6-0.1,5.8-1.8,5.8-4.8c0-1.3-0.4-2.5-1.2-3.3c-1-1-2.5-1.5-4.4-1.6
		c-10.5-0.1-20.8-0.1-30.8,0c-1.9,0-3.4,0.5-4.4,1.5c-0.8,0.8-1.2,2-1.2,3.3c0,3,2.1,4.7,5.8,4.7c2.1,0,4.2,0,6.4,0c1,0,2,0,3,0h0.8
		v54h-23l-0.2-2.3c-0.1-1.2-0.2-2.3-0.2-3.5c-0.4-8.1-4-15.1-11.2-22.1c-10-9.7-16.1-20.5-18.7-33.1c-3.2-15.4,0.3-31.8,9.4-45.2
		c9.1-13.3,23.3-22.4,38.7-24.9C186.6,10.8,202.9,14.7,216.1,24.5z"/>
	<path class="st0" d="M43.8,3.9c-0.9,0.8-1.7,1.5-2.5,2.3C9.9,38.9,1.9,88.2,21.6,129c5.4,11.2,12.4,21.1,21,29.7
		c2.4,2.4,5.1,2.6,7.2,0.6c2.1-2,2-4.6-0.2-7.2c-0.2-0.2-0.4-0.5-0.7-0.7l-0.3-0.4c-3.4-3.5-6.5-7.3-9.2-11.2
		c-12.1-16.9-18.7-37-18.7-57.8c-0.1-25.6,9.8-50.1,27.7-69c2.2-2.4,3.2-4.1,3.1-5.5c0-0.2,0-0.3-0.1-0.5c0,0,0-0.1,0-0.2
		c0-0.1-0.1-0.2-0.1-0.4c0-0.1-0.1-0.1-0.1-0.2c-0.1-0.1-0.1-0.2-0.2-0.3c0-0.1-0.1-0.1-0.1-0.2c-0.1-0.1-0.1-0.2-0.2-0.3
		c-0.1-0.1-0.1-0.2-0.2-0.2C50.1,5,50,4.9,49.9,4.8c-0.1-0.1-0.2-0.2-0.2-0.3c-0.1-0.1-0.2-0.2-0.3-0.3c-0.1-0.1-0.2-0.2-0.3-0.3
		c-0.1-0.1-0.2-0.2-0.4-0.3c-0.1-0.1-0.2-0.2-0.4-0.3C48.2,3.2,48.1,3.1,48,3h-3.2C44.5,3.3,44.2,3.6,43.8,3.9z"/>
	<path class="st0" d="M312.6,3.3c-0.1,0.1-0.2,0.2-0.3,0.3c-0.1,0.1-0.3,0.2-0.4,0.4c-0.1,0.1-0.2,0.2-0.3,0.3
		c-0.1,0.1-0.2,0.2-0.3,0.3c-0.1,0.1-0.2,0.2-0.2,0.3c-0.1,0.1-0.2,0.2-0.3,0.3c-0.1,0.1-0.1,0.2-0.2,0.3c-0.1,0.1-0.1,0.2-0.2,0.3
		c-0.1,0.1-0.1,0.2-0.2,0.2c-0.1,0.1-0.1,0.2-0.2,0.3c0,0.1-0.1,0.2-0.1,0.2c0,0.1-0.1,0.2-0.1,0.3c0,0.1,0,0.1-0.1,0.2
		c0,0.2-0.1,0.3-0.1,0.5c-0.1,1.4,0.8,3,2.8,5.2c0.4,0.5,0.9,0.9,1.3,1.4c32.4,35,35.5,88.3,7.3,126.6c-2.1,2.9-4.5,5.5-6.8,8.1
		c-1,1.2-2.1,2.3-3.1,3.5c-0.9,1.1-2.8,3.8-0.6,6c1,1,2.9,1.6,5.7,1.9c0.7,0.1,2.1-1.5,2.6-2c30.6-33.4,38.7-72.1,23.9-115.1
		c-0.3-1-0.7-1.9-1-2.9c-0.2-0.5-0.4-1-0.6-1.6c-0.2-0.4-0.3-0.8-0.5-1.3c-0.2-0.5-0.5-1.1-0.7-1.6c-0.2-0.4-0.3-0.8-0.5-1.2
		c-0.2-0.5-0.5-1-0.7-1.5c-0.2-0.4-0.4-0.8-0.6-1.2c-0.2-0.5-0.5-1-0.8-1.5c-0.2-0.4-0.4-0.8-0.6-1.2c-0.3-0.5-0.5-1-0.8-1.4
		c-0.2-0.4-0.4-0.8-0.7-1.2c-0.3-0.5-0.5-0.9-0.8-1.4c-0.2-0.4-0.5-0.8-0.7-1.2c-0.3-0.4-0.6-0.9-0.8-1.3c-0.3-0.4-0.5-0.8-0.8-1.2
		c-0.3-0.4-0.6-0.8-0.9-1.3c-0.3-0.4-0.6-0.8-0.9-1.2c-0.3-0.4-0.6-0.8-0.9-1.2c-0.3-0.4-0.6-0.8-0.9-1.2c-0.3-0.4-0.6-0.8-0.9-1.2
		c-0.3-0.4-0.6-0.8-1-1.2c-0.3-0.4-0.6-0.8-1-1.2c-0.3-0.4-0.7-0.8-1-1.2c-0.3-0.4-0.7-0.8-1-1.1c-0.3-0.4-0.7-0.8-1-1.2
		c-0.3-0.4-0.7-0.7-1.1-1.1c-0.4-0.4-0.7-0.8-1.1-1.1c-0.4-0.4-0.8-0.7-1.1-1.1c-0.4-0.4-0.7-0.7-1.1-1.1c-0.4-0.4-0.8-0.8-1.2-1.1
		c-0.3-0.3-0.7-0.6-1-0.9H313C312.9,3.1,312.7,3.2,312.6,3.3z"/>
	<path class="st0" d="M73.4,29c-0.2-1.3-1.1-2.4-2.5-3.1c-2.3-1.2-4.3-0.6-6.7,1.9c-1.8,1.9-3.5,3.9-5.1,5.9
		c-11,14-16.4,30.7-16.9,51.7c0.1,0.8,0.3,1.6,0.4,2.6c0,0.3,0.1,0.7,0.1,1c0.6,3.9,1.3,9.2,2.6,14.3c3.2,12.3,9.6,23.5,19.2,33.3
		c2.3,2.3,5.1,2.6,7.2,0.7c0.8-0.7,1.3-1.6,1.5-2.5c0.3-1.5-0.2-3.1-1.6-4.7c-0.3-0.3-0.6-0.6-0.9-1c-0.3-0.3-0.6-0.6-0.9-0.9
		c-17.9-20.8-22.5-44.4-13.6-70.2c2.9-8.5,7.8-16.2,14.9-23.6C72.9,32.6,73.6,30.6,73.4,29z"/>
	<path class="st0" d="M289.1,136.9c1.4,0.9,3.7,0.8,6,0.7c0.5,0,1.2-0.9,1.7-1.5c0.2-0.2,0.4-0.4,0.5-0.6
		c14.2-15.2,21-33.4,21.4-57.1c-0.2-1-0.3-2.2-0.5-3.6c-0.6-3.9-1.3-9.2-2.7-14.3c-3.2-12.3-9.6-23.5-19.2-33.3
		c-1.3-1.3-2.7-2-4.1-2c-1.1,0-2.2,0.4-3.1,1.3c-2.2,2-2.1,4.6,0.1,7.2c0.2,0.2,0.4,0.4,0.6,0.6c0.1,0.1,0.3,0.3,0.4,0.4
		c24.8,26.6,24.9,67,0.3,93.8l-0.5,0.5c-0.7,0.7-1.3,1.4-1.8,2.2C287.2,133.2,287,135.7,289.1,136.9z"/>
	<path class="st0" d="M90.7,116.3c1.2,0,2.4-0.4,3.4-1.4c1.9-1.9,2-4.3,0.2-6.7c-0.3-0.3-0.6-0.7-0.9-1c-0.2-0.2-0.4-0.4-0.6-0.7
		c-7.7-8.9-10.7-19.2-9-30.5c1.1-7,4.1-13.4,9.3-19.5c1.2-1.4,2.3-3.8,2.1-5.6c-0.2-1.7-1.2-2.9-2.7-3.4c-1.9-0.6-4.1,0.1-5.8,1.8
		C78.2,58.3,74,69.2,73.6,82.7c0,0.5,0.1,1,0.1,1.6c0.1,1.5,0.3,3.3,0.6,5.1c1.6,9.8,5.9,18.3,12.8,25.3
		C88.2,115.7,89.5,116.3,90.7,116.3z"/>
	<path class="st0" d="M267.7,107.2c-2.5,2.9-2.6,4.8-1.9,6.2c0.1,0.1,0.1,0.2,0.2,0.4c0.1,0.2,0.3,0.4,0.5,0.6
		c0.2,0.2,0.3,0.4,0.5,0.6c1,0.9,2,1.4,3.2,1.3c1.5,0,3.2-1,4.8-2.7c0.5-0.5,1-1.1,1.5-1.7c7-8.4,10.7-18.2,11-30
		c-0.3-11.7-4-21.9-11.2-30.4c-0.5-0.6-1-1.1-1.5-1.7c-1.5-1.6-3.2-2.5-4.7-2.5c-1.1,0-2.1,0.4-3,1.2c-2.3,2.1-2.1,4.7,0.6,7.8
		c3,3.4,5.3,7.1,6.9,10.8c1.2,2.7,2.1,5.4,2.6,8.1C279.3,86.2,276.1,97.5,267.7,107.2z"/>
</g>
</svg>
