<?xml version="1.0" encoding="utf-8"?>
<!-- Generator: Adobe Illustrator 23.0.1, SVG Export Plug-In . SVG Version: 6.00 Build 0)  -->
<svg version="1.1" id="Layer_1" xmlns="http://www.w3.org/2000/svg" xmlns:xlink="http://www.w3.org/1999/xlink" x="0px" y="0px"
	 viewBox="0 0 374.1 381" style="enable-background:new 0 0 374.1 381;" xml:space="preserve">
<style type="text/css">
	.st0{fill:#9A9A9A;}
</style>
<g>
	<path class="st0" d="M352.6,330.5c-1.4-0.2-2.7-0.4-4-0.4c-4.8,0-9.7,1.6-15,4.9l-0.6,0.4l-0.3,0.2l-0.3-0.3l-54-50l-0.3-0.2
		l0.2-0.3l0.9-1.9l0-0.1c0.4-0.8,0.7-1.6,1.1-2.3c0.9-1.8,1.9-3.7,2.9-5.5l0.1-0.3c2.5-4.7,5-9.6,7.3-14.5c0.7-1.6,0.8-4.1,0.2-5.3
		c-0.6-1.2-1.6-1.9-2.8-1.9c-1.7,0-3.5,1.3-4.5,3.3c-4.8,9.3-9.7,18.8-14.4,27.9c-2.5,4.8-4.9,9.6-7.4,14.4c-0.5,0.9-1,1.9-1.5,2.7
		l-0.1,0.2c-0.2,0.3-0.4,0.7-0.6,1l-0.6,1.1l-0.3,0.6l-0.5-0.4l-0.9-0.9c-0.1-0.1-0.2-0.2-0.2-0.2c-0.3-0.2-0.5-0.4-0.7-0.8
		c-4.6-9-9.4-18.1-14-26.9c-10.6-20.2-21.6-41.2-31.5-62.2c-7.2-15.3-6.1-33.2,3-47.8c9.4-15.1,25.5-24.3,43-24.7c0.4,0,0.7,0,1.1,0
		c17.8,0,34.2,8.9,43.8,23.7c9.8,15.2,11,34.1,3.2,50.6c-1.5,3.2-3.2,6.4-4.7,9.4l0,0.1c-1.2,2.4-2.5,4.8-3.7,7.2
		c-1.3,2.7-0.8,4.9,1.4,6.1c0.7,0.3,1.3,0.5,2,0.5c1.5,0,2.8-1,3.8-2.8c0.6-1.1,1.2-2.2,1.8-3.3c2.6-5,5.4-10.1,7.7-15.3
		c11.3-25.1,3.9-54.6-17.9-71.7c-8.2-6.4-17.6-10.4-28.8-12.2l-0.8-0.1l-0.4-0.1l0-0.4l0-17.2l0-0.9c0-10.3,0-21,0-31.5
		c0-2-0.5-3.5-1.5-4.3c-0.7-0.6-1.5-0.9-2.5-0.9c-0.2,0-0.3,0-0.5,0c-2.5,0.2-3.7,1.9-3.7,5.2c0,10.6,0,21.4,0,31.8l0,17l0,0.4
		l-0.4,0.1l-19.8,3.8l-0.6,0.1l0-0.6l-0.1-1.1c-0.8-15.3-7.2-27.6-18.8-36.5c-8.5-6.4-17.6-9.6-27.8-9.6c-4.1,0-8.5,0.5-13.1,1.6
		l-1.2,0.3l-0.6,0.1l0-0.6l0-7.4l0-0.1c0-4.5,0-8.8,0-13.2c0-6.4-3-9.4-9.3-9.4c-14.2,0-28.6,0-42.8,0c-14.2,0-28.6,0-42.7,0
		c-6.3,0-9.3,3.1-9.4,9.5c0,5.2,0,10.4,0,15.5c0,2.2,0,4.4,0,6.7l0,12.9c0,11,0,22.4,0,33.6c0,5.3,2.6,8.9,6.5,9.1
		c3.9,0.2,8.2,0.3,12.9,0.3c4.1,0,8.4-0.1,13.6-0.2c2.6,0,3.1-2.3,3.2-3.6c0.1-2.2-0.8-3.6-2.8-4.1c-1.3-0.4-2.9-0.4-4.3-0.4
		c-3,0-5.9,0-8.9,0c-1.7,0-3.3,0-5,0l-6.2,0l-0.5,0v-0.5V68v-0.5h0.5h25h0.5l0,0.5l0,7.3v0.1c0,4.6,0,9.2,0,13.7
		c0,6.7,2.2,8.8,9,8.9c2.8,0,5.6,0,8.5,0c2.8,0,5.7,0,8.7,0c7,0,9-2.1,9-9.1c0-4.2,0-8.4,0-12.6l0-1.1l0-7.2l0-0.5h0.5h25.2h0.5v0.5
		v1c0,2,0,4,0,5.9c0,5.1,0,9.8,0.1,14.7c0.1,2.7-0.9,4.5-3.3,6.1c-10.2,6.8-16.9,16.2-19.7,28.1c-0.7,2.8-1,5.6-1.3,8.7
		c-0.2,1.5-0.3,3-0.5,4.5l-0.1,0.9l-0.1,0.4h-0.4h-0.9c-1.1,0-2.2,0-3.4,0l-0.1,0c-1.1,0-2.2,0-3.3,0c-1.7,0-3,0-4.3,0.1
		c-2.7,0.1-4.3,1.7-4.3,4.2c0,3.2,2.4,3.9,4.4,4l0.4,0c1.6,0.1,3.3,0.1,4.9,0.1c1.5,0,2.8,0,3.9-0.1c0.3,0,0.6,0,0.8,0
		c3.6,0,4.9,2.1,5.8,4.5c6.6,16.8,18.7,26.9,36.2,30c3.4,0.6,6.9,0.7,10.7,0.7c1.7,0,3.5,0,5.3,0.1l1,0l0.5,0l0,0.5l-0.9,13.8l0,0.5
		h-0.5l-119.7,0c-3.2,0-5.3,0.5-6.4,1.6c-0.6,0.6-0.9,1.5-0.8,2.6c0.1,2.1,1,4,7.1,4l121.2,0h0.4l0.1,0.3l5.3,15.2l0.2,0.7h-0.7
		h-22.2l-27.4,0c-25.5,0-51.1,0-76.6,0l-0.7,0l-0.7,0c-0.8,0-1.7,0-2.5,0.1c-2.1,0.2-3.3,1.5-3.5,3.6c-0.2,2.2,0.9,3.7,3,4.2
		c1.4,0.3,2.9,0.3,4.4,0.3l7.8,0l1.3,0c15.4,0,31.1,0,46.8,0c27.9,0,50.5,0,71.2-0.1c3.4,0,5.3,1.2,6.8,4.2c2.6,5.4,5.4,10.7,8.1,16
		c1.2,2.4,2.4,4.7,3.6,7c1.2,2.3,2.4,4.7,3.6,7.1l2.5,4.9l0.4,0.7h-0.8h-88.3h-0.4l-0.1-0.3l-0.2-0.7c-4.1-12.7-12.1-19.4-23.9-19.8
		c-0.4,0-0.8,0-1.2,0c-12.3,0-20.8,6.7-25.1,20l-0.2,0.7l-0.1,0.3h-0.4l-35.4,0c-6.1,0-6.8-0.7-6.8-6.7c0-71.2,0-142.5,0-213.7
		c0-0.9,0.1-1.8,0.1-2.8l0-0.1c0-0.4,0-0.8,0.1-1.2l0-1l0-0.5h0.5h208.6h0.5l0,0.5l0,3.8c0,2,0,3.8,0,5.7c0,5.5,2.9,5.5,4,5.5l0.2,0
		c1.1,0,2-0.3,2.6-1c0.9-0.9,1.4-2.5,1.4-4.7l0-0.9l0-0.1c0-13,0-26.3,0-39.5C265,5,260.1,0,252.5,0c-33.9,0-67.7,0-101.6,0
		c-33.1,0-66.3,0-99.4,0c-7.7,0-12.6,4.8-12.7,12.5c-0.1,3.5,0,7.2,0,10.7c0,1.6,0,3.1,0,4.7l0,51.6c0,61.4,0,122.9,0,184.3
		c0,9.1,4.6,13.7,13.7,13.8c3.3,0,6.6,0,9.9,0l8,0l1.9,0l16.8,0h0.3l0.1,0.3l3.6,9.5l0.1,0.3l-0.2,0.2l-51.2,47.4l-0.3,0.3l-0.3-0.2
		l-1.6-0.9l-0.1-0.1c-0.6-0.3-1.1-0.7-1.7-1c-3.8-2.1-8.1-3.3-12.5-3.3c-8.9,0-16.9,4.5-21.6,12c-7.3,11.8-4,26.8,7.4,34.3
		c2.1,1.4,4.5,2.3,7.1,3.2c1.1,0.4,2.2,0.8,3.3,1.3h7.7l0.9-0.3l0.1,0c0.8-0.3,1.6-0.5,2.3-0.8c7-2.1,12.8-7.1,15.8-13.7
		c3.1-6.6,3.1-14.1,0.2-20.9c-0.7-1.5-1.6-3.7,0.8-5.9c11.8-10.9,23.8-21.9,35.3-32.6c4.2-3.9,8.4-7.8,12.6-11.6
		c0.3-0.3,0.6-0.5,0.9-0.6c0.1-0.1,0.2-0.1,0.3-0.2l0.5-0.3l0.3-0.2l0.3,0.2l0.5,0.3c5,3.1,10,4.6,14.8,4.6c5.5,0,10.8-1.9,16.3-5.8
		l0.7-0.5l0.3-0.2l0.3,0.3l17.6,16.3c0.4,0.4,0.9,0.8,1.3,1.2c0.9,0.9,1.8,1.7,2.7,2.5c6.5,4.9,10,9.8,7.8,19
		c-2.5,10.1,5.1,19.9,13.4,24.1c4.1,2,8.1,3,12,3c5.5,0,10.7-2,15.5-5.9c8.5-6.9,11.4-16.1,8.4-26.6c-0.9-3.3-0.3-5.5,2.3-7.8
		c6.5-5.9,12.7-11.7,19.4-17.9l1.1-1c2.1-1.9,4.2-3.9,6.3-5.9l1-0.9l0.5-0.4l0.3,0.6l0.6,1.2c0.7,1.3,1.3,2.6,2,3.8l0.2,0.4
		c1.6,3.1,3.3,6.2,4.8,9.4c2,4.1,4.5,6,8.1,6l0.1,0c3.7,0,6.2-1.9,8.3-6.1c1.5-3,3-6,4.6-9.1l0.1-0.3c0.7-1.3,1.4-2.6,2.1-3.9
		l0.6-1.2l0.3-0.6l0.5,0.4l4,3.6l0.1,0.1c2.2,2,4.2,3.8,6.2,5.7c9.8,9.1,19.7,18.3,29.5,27.4l10.1,9.3c1.1,1,2.7,2.4,1.5,5.4
		c-3.2,7.9-3.2,15.8,0,22.3c3.3,6.5,9.7,11.4,18.2,13.6c0.4,0.1,0.8,0.3,1,0.5h7.6c0.1,0,0.2-0.1,0.3-0.1l0.1,0
		c0.5-0.2,1-0.4,1.6-0.5c12.1-3.1,20-13.4,19.5-25.7C373.6,342.3,365,332.6,352.6,330.5z M131.4,68v20.8v0.5h-0.5h-17.4H113v-0.5V68
		v-0.5h0.5h17.4h0.5V68z M203,167.9c-1,2-3.1,3.9-5.1,4.4c-3,0.8-6.2,1.1-9.3,1.1c-8.6,0-16.8-2.9-23.7-8.3
		c-9.5-7.4-14.9-18.6-14.8-30.6c0.1-10.5,4.2-20.3,11.6-27.5c7.3-7.1,17.1-11,27.6-11c0.3,0,0.5,0,0.8,0c10.1,0.2,19.6,4.5,26.8,12
		c7.3,7.7,11.1,17.8,10.7,28.3c-0.1,2.9-1.2,4.8-3.5,6.4C215,148.7,208.1,157,203,167.9z M47.1,12.5c0.1-1.7,1.8-2.7,3.3-3.7
		l0.4-0.3c0.4-0.3,0.9-0.4,1.6-0.4c0.3,0,0.6,0,0.9,0.1c0.2,0,0.4,0,0.6,0l196,0c6.2,0,6.9,0.7,6.9,6.9l0,11.7l0,7.1l0,0.5h-0.5
		H47.5H47V34v-1c0-1.7,0-3.4,0-5.1C47,22.6,46.9,17.6,47.1,12.5z M37.5,367.8c-3.2,3.2-7.5,5-12.1,5h-0.1h0h0
		c-4.6,0-8.9-1.8-12.1-5.1c-3.2-3.3-5-7.6-5-12.3c0-4.6,1.9-9,5.2-12.2c3.2-3.1,7.4-4.9,11.8-4.9c0.1,0,0.2,0,0.3,0
		c9.3,0.2,16.8,7.9,16.8,17.2C42.6,360.2,40.8,364.5,37.5,367.8z M127.3,285.5c-3.3,3.3-7.6,5.2-12.2,5.2H115c-4.5,0-8.8-1.8-12.1-5
		c-3.3-3.3-5.1-7.6-5.1-12.2c0-4.6,1.8-8.9,5-12.1c3.2-3.2,7.6-5,12.2-5h0.1c9.3,0,17,7.6,17.1,16.9
		C132.3,277.9,130.6,282.2,127.3,285.5z M199.3,345.3c-3.3,3.2-7.6,5-12.2,5H187h0h0c-4.6,0-8.9-1.9-12.2-5.2
		c-3.2-3.3-5-7.6-4.9-12.2c0.1-9.3,7.8-16.9,17.1-17l0.1,0c4.5,0,8.8,1.8,12.1,5.1c3.3,3.3,5.1,7.6,5.1,12.2
		C204.3,337.8,202.5,342.1,199.3,345.3z M234.9,287.7c-0.3,0.2-0.5,0.4-0.7,0.5c-7.2,6.7-14.7,13.7-21.4,19.8l-7.1,6.6l-0.3,0.3
		l-0.3-0.2l-0.7-0.5c-5.7-4.3-11.6-6.4-17.4-6.4c-7.4,0-13.2,3.4-16.9,6.3l-0.6,0.5l-0.3,0.2l-0.3-0.2l-0.6-0.5
		c-0.2-0.2-0.4-0.3-0.6-0.5c-0.5-0.4-1.1-0.8-1.7-1.3c-3.2-3-6.4-5.9-9.6-8.9l-0.7-0.6c-4.2-3.9-8.4-7.8-12.6-11.6l-0.1-0.1
		c-5.3-4.9-5.4-5.6-2.8-12.5l0.2-0.6l0.1-0.3l0.3,0l0.7,0c0.3,0,0.6,0,0.9,0c1.4-0.1,2.9-0.1,4.3-0.1l1.2,0l1.1,0
		c5.6,0,11.1,0,16.7,0l0.3,0c5.7,0,11.5,0,17.3,0c12.9,0,29.8,0,46.6-0.1c4.1,0,5.5,2.1,6.8,4.6
		C238.4,285.3,236.1,286.9,234.9,287.7z M360.9,367.7c-3.2,3.3-7.5,5.1-12.1,5.1h-0.1c-4.6,0-8.9-1.8-12.1-5c-3.3-3.3-5-7.6-5-12.2
		c0-4.6,1.8-9,5.1-12.2c3.2-3.2,7.5-4.9,12-4.9l0.1,0l0.1,0c9.3,0.1,16.9,7.7,17,17.1C365.9,360,364.1,364.4,360.9,367.7z"/>
	<path class="st0" d="M258.2,157l-0.2,0c-20.7,0.1-37.6,17.1-37.5,37.7c0,20.7,16.9,37.6,37.6,37.7h0.1c10,0,19.5-4,26.6-11.2
		c7.2-7.2,11.1-16.7,11-26.7C295.6,174.1,278.4,157,258.2,157z M258.2,224.1L258.2,224.1l-0.2,0c-16.1,0-29.3-13.2-29.4-29.3
		c0-7.8,3-15.2,8.6-20.8c5.6-5.6,12.9-8.7,20.7-8.8h0l0.1,0c7.8,0,15.1,3,20.7,8.6c5.6,5.6,8.8,13,8.8,20.8
		C287.6,210.8,274.4,224,258.2,224.1z"/>
	<path class="st0" d="M208.7,130.5c-1.8,0-3.6,0-5.4,0c-1.4,0-2.7,0-4.1,0l-0.1,0l-5.5,0l-0.5,0V130v-1c0-1.9,0-3.7,0-5.6l0-0.8
		c0-4.8,0-9.4,0-14c0-3.2-1.6-5.1-4.1-5.1h0c-2.5,0-4,1.8-4,5c-0.1,8.6-0.1,17,0,25c0,3.8,1.3,5.1,5.1,5.1c2.9,0,5.7,0,8.5,0
		c3.4,0,6.7,0,9.8,0l0.3,0c2.2,0,3.8-0.5,4.7-1.4c0.6-0.7,1-1.6,0.9-2.8C214.1,131.9,212.3,130.5,208.7,130.5z"/>
</g>
</svg>
