<?xml version="1.0" encoding="utf-8"?>
<!-- Generator: Adobe Illustrator 23.0.1, SVG Export Plug-In . SVG Version: 6.00 Build 0)  -->
<svg version="1.1" id="Layer_1" xmlns="http://www.w3.org/2000/svg" xmlns:xlink="http://www.w3.org/1999/xlink" x="0px" y="0px"
	 viewBox="0 0 357.6 358" style="enable-background:new 0 0 357.6 358;" xml:space="preserve">
<style type="text/css">
	.st0{fill:#9A9A9A;}
</style>
<g>
	<path class="st0" d="M353,162.6c-4.5-6.9-11.6-11.4-19.6-12.4c-8.1-1-16.4,1.6-22.6,7.3c-11.2,10.2-22.4,20.7-33.3,30.8
		c-5,4.7-10.1,9.4-15.1,14c-0.8,0.7-1.6,1.5-2.4,2.2l-1.8,1.6l-0.7-0.6c-0.2-0.2-0.3-0.3-0.5-0.4c-0.3-0.2-0.5-0.4-0.7-0.7
		c-6.2-8.5-14.8-12.6-26.4-12.6c-33.1,0.1-66.7,0.1-99.2,0.1l-16.3,0c0,0,0,0-0.1,0c-18.6,0-34.6,6.7-47.7,19.8c-3,3-6,6-9,9.1
		l-4.9,4.9l-0.7-0.4c-10-6.3-17.4-5.6-25.4,2.4c-1.6,1.6-3.2,3.2-4.8,4.8l-2.1,2.1c-1.6,1.6-3.3,3.3-4.9,4.9
		c-4.4,4.4-9,8.9-13.2,13.5c-1.2,1.3-1.9,3.9-1.6,5.4c0.3,1.3,2.4,3.1,3.7,3.3c1.6,0.2,4-1.1,5.3-2.3c5.8-5.6,11.6-11.4,17.2-17
		c2.7-2.7,5.4-5.4,8.1-8.1c2.2-2.2,4.1-3.2,6.1-3.2c2,0,4,1.1,6.2,3.3c25.5,25.4,50.9,50.9,76.4,76.4c4.7,4.7,4.6,8-0.1,12.8
		c-3.4,3.4-6.8,6.8-10.2,10.2c-5,5-10,10-15,15c-2.7,2.7-3,5.6-0.8,7.8c1.1,1.1,2.3,1.6,3.6,1.5c1.4-0.1,2.9-0.9,4.2-2.2
		c9.1-9,18.3-18.3,26.5-26.5c4.3-4.3,5.9-9.5,4.8-15.2c-0.4-2-1.3-3.9-2.2-6c-0.5-1-0.9-2-1.4-3.1l-0.2-0.6l0.4-0.5
		c3.7-3.9,8.7-5.9,14.8-5.9c0,0,0,0,0,0l10.1,0c27.9,0,56.7,0.1,85.1,0c22.3-0.1,40.4-9.2,53.9-27.2c3.3-4.4,6.5-8.9,9.6-13.2
		c1.5-2.1,3-4.1,4.4-6.2c4-5.6,8.1-11.2,12.1-16.8c9.5-13.1,19.3-26.7,28.9-40C359.1,184.5,359.5,172.6,353,162.6z M344,188.4
		c-9.6,13.5-19.5,27.1-29.1,40.3c-3.6,4.9-7.1,9.8-10.7,14.7c-1.6,2.2-3.2,4.4-4.8,6.7c-3.7,5.2-7.6,10.6-11.6,15.8
		c-11.2,14.6-26.1,22-44.4,22.1c-34.4,0.2-64.8,0.2-93,0c-10.8-0.1-18.6,2.6-24.5,8.5l-0.7,0.7l-64.9-64.8l0.7-0.7
		c1.7-1.7,3.4-3.5,5.1-5.2c8.9-9.3,18.1-18.8,32.1-22.2c5.9-1.4,10.7-2.1,15-2.1c33.7-0.1,67.9-0.1,101-0.1l17.1,0
		c11.4,0,20,8.1,20,18.9c0,5.1-1.9,9.8-5.3,13.2c-3.7,3.8-9,5.8-14.9,5.8c-6.1,0-12.2,0-18.2,0c-12.7,0-25.8,0-38.7,0.1
		c-1.9,0-4.3,0.6-5.3,1.7c-0.9,1.1-1.4,3.8-0.9,4.8c0.9,1.5,3.3,3.1,4.9,3.2c5,0.3,10.2,0.3,15.1,0.2c1.9,0,3.8,0,5.7,0c0,0,0,0,0,0
		c3.9,0,7.8,0,11.6,0c8.6,0,17.5,0,26.2,0c17.3-0.1,29.8-12.8,29.7-30.3c0-1.8,1.1-3.7,2.2-4.8c15.4-14.4,31.9-29.8,53.6-49.8
		c7.1-6.6,17.1-6.9,24.1-0.7C348.6,170.7,349.6,180.5,344,188.4z"/>
	<path class="st0" d="M108.7,99.4c1.1-0.7,2.2-1.6,3.2-2.7c10.1-10,20.1-20.1,30.2-30.2l14.6-14.6c0.6-0.6,1.3-1.3,2-1.9
		c0.3-0.3,0.7-0.7,1.1-1l0.7-0.6l0.7,0.6c0.3,0.3,0.7,0.6,1,0.9c0.7,0.6,1.3,1.2,1.9,1.8c5.1,5.1,10.2,10.2,15.3,15.3l11.8,11.8
		c4.5,4.5,6.3,4.5,10.8,0.1l26.2-26.2c10.1-10.1,20.2-20.2,30.3-30.3c0.6-0.6,1.2-1.2,2-1.9c0.4-0.4,0.9-0.8,1.4-1.3l1.7-1.6v2.3
		c0,2.3,0,4.5,0,6.6c0,5,0,9.8,0.1,14.6c0.1,2.9,2.1,5,4.9,5c0,0,0,0,0,0c2.8,0,4.9-2.1,4.9-5c0.1-11.7,0.1-23.8,0-36
		c0-3-1.9-4.9-4.9-5c-11.8-0.1-23.9-0.1-36,0c-2.9,0-5,2.1-5,4.9c0,2.8,2,4.9,5,5c3.9,0.1,7.8,0.1,11.6,0.1c2.1,0,4.2,0,6.3,0
		c0.6,0,1.3,0.1,2,0.2l1.9,0.3l-1.3,1.4l-57.3,57.3l-8.8-8.8c-7-7-14.1-14.1-21.2-21.2c-2.2-2.1-3.7-3.2-5.2-3.2
		c-1.6,0-3.1,1.1-5.3,3.3c-16.9,16.9-33.8,33.8-50.6,50.7c-1,1-1.9,1.9-2.5,2.9c-1.4,2.5-0.3,4.5,0.9,5.7
		C104.2,99.7,106.2,100.8,108.7,99.4z"/>
	<path class="st0" d="M265,66c-12.7,0-19.4,6.7-19.4,19.3c0,10.6,0,21.2,0,31.8l0,13.2l0,12.9c0,11.3,0,22.6,0,33.9
		c0,3.1,0.9,6.9,5,6.9c4.1,0,5-3.7,5-6.9c0-0.6,0-1.2,0-1.8l0-23.3c0-22.5,0-45,0-67.5c0-5.9,2.5-8.5,8.5-8.5c4,0,8,0,12,0l2.3,0
		c6.9,0,9.3,2.3,9.3,9.2c0,8,0,15.9,0,23.9c0,12.9,0,25.8,0,38.7c0,3.8,1.9,6.1,5,6.1c1.4,0,2.5-0.4,3.4-1.3
		c1.1-1.1,1.6-2.7,1.6-4.8l0-9.6c0-18.1,0.1-36.8,0-55.3c0-9.7-7.3-16.9-17.2-17c-2,0-4.1,0-6.1,0c-1.6,0-3.2,0-4.8,0
		C268,66,266.5,66,265,66z"/>
	<path class="st0" d="M202.3,102c-5.4-0.1-10.9,0-16.2,0l-0.6,0c-10.9,0.1-17.9,7.2-18,18.1c0,6.1,0,12.1,0,18.2l0,16.9
		c0,5.8,0,11.6,0,17.4c0,1,0.2,4.5,3.3,4.9c1.7,0.2,4.1-0.5,5.5-1.6c0.7-0.6,1.1-2.4,1.2-4.7c0.1-10.7,0.1-21.5,0.1-32
		c0-6.3,0-12.6,0-19c0-5.4,2.7-8.1,8.1-8.1c2,0,4.1,0,6.2,0c1.8,0,3.5,0,5.2,0l3.2,0c6.9,0,9.3,2.3,9.3,9.2c0,6.4,0,12.7,0,19.1
		c0,10.5,0,21,0,31.6c0,3.8,1.9,6.1,5,6.1c0,0,0,0,0,0c1.3,0,2.5-0.4,3.3-1.3c1.1-1.1,1.6-2.7,1.7-4.8l0-7.4c0-14.9,0.1-30.3,0-45.4
		C219.4,109.3,212.2,102.2,202.3,102z"/>
	<path class="st0" d="M89.5,160.3c0,1.9,0,3.7,0,5.6c0,4.2,0,8.5,0,12.8c0,1.7,0.7,3.3,1.9,4.2c1,0.9,2.4,1.3,3.7,1.1
		c2.8-0.4,4.3-2.6,4.3-6.1c0-5.3,0-10.5,0-15.8c0-6,0-12,0-17.9c0-5.4,2.7-8,8.1-8.1c5.5-0.1,10.9,0,15.4,0c5.9,0,8.5,2.6,8.5,8.5
		c0,4,0,8,0,11.9c0,5.3,0,10.5,0,15.8c0,3.5,2,5.7,5,5.7c0,0,0,0,0,0c3,0,5-2.3,5-5.7l0-2.6c0.1-8.9,0.1-18,0-27
		c-0.2-9.3-7.4-16.4-16.8-16.6c-6.2-0.1-12.4-0.1-18.3,0c-9.4,0.2-16.6,7.5-16.8,17c-0.1,4,0,8,0,12
		C89.5,156.8,89.5,158.6,89.5,160.3z"/>
</g>
</svg>
