<?xml version="1.0" encoding="utf-8"?>
<!-- Generator: Adobe Illustrator 23.0.1, SVG Export Plug-In . SVG Version: 6.00 Build 0)  -->
<svg version="1.1" id="Layer_1" xmlns="http://www.w3.org/2000/svg" xmlns:xlink="http://www.w3.org/1999/xlink" x="0px" y="0px"
	 viewBox="0 0 356.2 356.2" style="enable-background:new 0 0 356.2 356.2;" xml:space="preserve">
<style type="text/css">
	.st0{fill:#9A9A9A;}
</style>
<g>
	<path class="st0" d="M84,177.5c-0.1,25.2,9.6,49,27.3,66.8c17.7,17.9,41.3,27.7,66.4,27.9l0.4,0c51.7,0,93.9-42,94.1-93.5
		c0.1-25.3-9.7-49-27.4-66.9C227,93.9,203.4,84.1,178.1,84l-0.3,0c-24.9,0-48.4,9.8-66.1,27.5C93.9,129.2,84.1,152.7,84,177.5z
		 M178.3,92.2l0.2,0c47.2,0.1,85.6,38.6,85.5,85.9c-0.1,47.4-38.8,85.9-86.2,85.9l-0.3,0c-47.1-0.2-85.3-38.8-85.3-86.1
		C92.3,130.7,130.9,92.2,178.3,92.2z"/>
	<path class="st0" d="M258.6,101.6c1,0,2-0.4,2.9-1.1c1.5-1.3,2.7-2.5,3.7-3.7c1-1.2,2.5-2.7,4.8-2.7c1.1,0,2.3,0.3,3.8,1.1
		c3.8,2,8.2,3.1,12.5,3.1c6.9,0,13.6-2.6,18.8-7.3c8.7-8,11.6-20.2,7.4-31.1C308.2,49,298,41.9,286.4,41.9l-0.1,0
		c-9.1,0-17.7,4.4-23.1,11.7c-5.1,6.9-6.5,15.6-3.9,23.6c2,6.1,4,12.5-3.9,18.1c-0.5,0.4-0.8,0.9-0.9,1.7c-0.1,1.2,0.4,2.6,1.3,3.4
		C256.6,101.1,257.6,101.6,258.6,101.6z M285.8,50.2l0.2,0c11,0,19.9,8.9,20,19.8c0,5.3-2,10.3-5.8,14.1c-3.8,3.8-8.8,5.9-14.1,5.9
		l-0.1,0c-10.8,0-19.7-8.9-19.8-19.8C266.1,59.5,275.1,50.3,285.8,50.2z"/>
	<path class="st0" d="M97.6,254.6c-1,0-1.9,0.4-2.8,1c-1.8,1.5-3,2.7-4,3.9c-1.4,1.7-2.8,2.6-4.6,2.6c-1.1,0-2.3-0.3-3.8-1.1
		c-3.9-2-8.2-3.1-12.6-3.1c-6.9,0-13.6,2.6-18.7,7.2c-8.8,8-11.7,20.2-7.5,31.1c4.2,10.9,14.5,18,26.3,18l0.1,0
		c9.1,0,17.6-4.4,22.9-11.8c5.1-7,6.5-15.7,3.8-23.8c-2.3-6.9-3.4-12.6,3.9-17.8c0.5-0.4,0.9-1,0.9-1.7c0.1-1.2-0.4-2.5-1.3-3.4
		C99.6,255.1,98.6,254.6,97.6,254.6z M70.2,306l-0.2,0c-5.3-0.1-10.3-2.2-14-6.1c-3.7-3.8-5.7-8.9-5.6-14.2
		c0.2-10.7,9.1-19.5,19.9-19.5l0.2,0c5.3,0,10.3,2.2,14,6c3.8,3.8,5.8,8.9,5.7,14.3C89.8,297.2,80.9,306,70.2,306z"/>
	<path class="st0" d="M68.8,98.4c2.8,0,5.8-0.5,8.7-1.5c3.1-1,5.6-1.7,8.1-1.7c3.9,0,7,1.8,9.7,5.7c0.5,0.8,1.4,0.9,2,0.9
		c1.1,0,2.4-0.5,3.2-1.3c1.5-1.5,1.6-3.8,0.1-5.6c-1.2-1.5-2.4-2.7-3.7-3.7c-3-2.4-3.5-5-1.7-8.6c4.4-8.7,3.9-18.8-1.2-27.1
		C88.8,47,79.8,42,70,42h0l-0.1,0c-11,0.1-20.9,6.5-25.3,16.4c-4.8,10.9-3.4,21,4.2,29.8C54.5,94.9,61.4,98.4,68.8,98.4z M70,50.2
		L70,50.2c5.4,0,10.4,2.1,14.2,5.9C88,59.9,90,65,90,70.3C89.9,81.1,80.9,90,70.1,90c-0.1,0-0.2,0-0.4,0
		c-10.8-0.2-19.5-9.2-19.5-20.1C50.3,59,59.2,50.2,70,50.2z"/>
	<path class="st0" d="M286.2,258c-4.5,0-8.9,1.1-13,3.2c-1.3,0.7-2.3,1-3.3,1c-2,0-3.3-1.3-4.1-2.2c-1.5-1.7-3-3.2-4.5-4.4
		c-0.9-0.7-1.8-1-2.6-1c-0.9,0-1.9,0.4-2.8,1.2c-1.6,1.4-1.6,3.7-0.2,5.5c1.1,1.4,2.4,2.7,3.6,3.7c3.1,2.6,3.6,5.2,1.7,8.9
		c-5.2,10.1-3.4,22.6,4.6,31.2c5.4,5.8,12.7,9,20.5,9c3.5,0,7-0.7,10.4-2c10.6-4.1,17.7-14.5,17.8-25.8c0-7.6-2.8-14.7-8.1-20
		C300.9,261.1,293.6,258,286.2,258z M286.2,306L286.2,306c-5.4,0-10.4-2.1-14.2-5.9c-3.8-3.8-5.8-8.8-5.7-14.2
		c0.1-10.8,9-19.7,19.9-19.7c5.3,0,10.3,2.1,14.1,5.9c3.8,3.8,5.9,8.9,5.8,14.2C305.9,297.2,297,306,286.2,306z"/>
	<path class="st0" d="M174,56.4v1.3c0,0.8,0,1.5,0,2.2c0,1.5,0,2.9,0,4.2c0.2,2.3,1.8,3.9,3.9,4l0.1,0c2.2,0,3.9-1.7,4-4
		c0.1-1.5,0.1-3,0-4.4c0-0.7,0-1.4,0-2v-1.5l1.4-0.4c19.3-5.2,23.9-21.7,22.3-31.5C203.7,10.1,192.3,0.1,178.4,0l-0.3,0
		c-13.8,0-25.3,9.7-27.8,23.7c-2.6,14.3,5.8,26.4,22.4,32.3L174,56.4z M158.2,28.2c-0.1-10.7,8.9-19.9,19.6-20l0.2,0
		c11,0,19.9,8.9,20,19.8c0,5.3-2,10.3-5.8,14.1c-3.8,3.8-8.8,5.9-14.1,5.9l-0.1,0C167.2,47.9,158.3,39,158.2,28.2z"/>
	<path class="st0" d="M68.2,178.2c0.1-2.2,0.1-3.7-10.7-4.4l-1.4-0.1l-0.4-1.3C51.3,155.9,38.6,150,28.1,150c-1.1,0-2.1,0.1-3.1,0.2
		C11.5,151.8,1,162.7,0.1,176c-0.9,13.5,7.8,25.8,20.8,29.2c2.5,0.7,4.9,1,7.3,1c3.9,0,7.8-0.9,11.5-2.6
		c8.2-3.7,13.6-10.4,16.1-19.9l0.4-1.3l1.4-0.1C68.1,181.7,68.1,180.4,68.2,178.2z M28.4,198l-0.2,0c-11,0-19.9-8.9-20-19.8
		c0-5.3,2-10.3,5.8-14.1c3.8-3.8,8.8-5.9,14.1-5.9l0.1,0c10.8,0.1,19.7,8.9,19.7,19.8C48.1,188.7,39.1,197.9,28.4,198z"/>
	<path class="st0" d="M334.8,150.8c-2.3-0.5-4.5-0.8-6.7-0.8c-4.2,0-8.4,1-12.4,3c-7.7,3.9-12.8,10.4-15.2,19.4l-0.3,1.3l-1.4,0.1
		c-10.7,0.7-10.7,2-10.6,4c0,0.9,0.3,1.9,0.5,2.3c2.3,0.9,4.8,1.6,7.4,2.3c1.1,0.3,2.2,0.6,3.3,0.9l0.9,0.3l0.3,0.9
		c5,13.8,14.8,21.8,26.8,21.8c1.4,0,2.9-0.1,4.4-0.3c14-2.2,24-13.2,24.4-26.7C356.6,165.8,347.6,153.8,334.8,150.8z M328.4,198
		l-0.2,0c-11,0-19.9-8.9-20-19.8c0-10.9,8.7-19.8,19.6-20l0.3,0c10.9,0,19.8,8.9,19.9,19.8C348.1,188.7,339.1,197.9,328.4,198z"/>
	<path class="st0" d="M182.6,299.9l-0.2-1.1c-0.2-1.3-0.2-2.7-0.2-4.1c0.1-4.2-0.1-6.1-4.2-6.6c-0.2,0-0.5,0-0.7,0
		c-1.5,0-2.8,0.8-3.5,10.7l-0.1,1.4l-1.3,0.3c-8.1,2.1-14.5,6.7-18.4,13.1c-3.3,5.4-4.7,12-3.8,18c2,14,13.5,24.3,27.3,24.6
		c0.2,0,0.3,0,0.5,0c13.5,0,25.1-9.5,27.6-22.7c1.4-7.5,0.3-14.1-3.4-19.7c-3.7-5.7-10-10.3-18.6-13.5L182.6,299.9z M198,328.3
		c-0.1,10.8-9,19.7-19.8,19.7l-0.1,0c-5.3,0-10.4-2.1-14.1-5.9c-3.8-3.8-5.8-8.8-5.7-14.2c0.1-10.8,9-19.7,19.9-19.7
		c5.3,0,10.3,2.1,14.1,5.9C196,317.9,198,323,198,328.3z"/>
	<path class="st0" d="M178.1,120c-10.1,0-19.7,3.8-27.2,10.6c-7.3,6.6-11.9,16.2-12.7,26.2c-0.7,8.1,0.9,20.3,11.9,32.4l2.3,2.6
		l-3.4,0.6c-12.7,2.2-22.1,8.2-28.7,18.4c-1.1,1.7-2.6,5,0.4,7c0.7,0.5,1.4,0.7,2.1,0.7c1.5,0,3-1.1,4.3-3.1
		c6.6-9.9,16.1-15,28.1-15c7.9,0,15.7,0,23.5,0c7.4,0,14.8,0,22.3,0l0.1,0c12,0,21.4,5,28.1,15c1.4,2,2.9,3.2,4.3,3.2
		c0.7,0,1.4-0.2,2.1-0.7c3-2,1.5-5.2,0.4-6.9c-5.7-8.8-13.7-14.6-23.7-17.3c-1.1-0.3-2.1-0.5-3.3-0.8c-0.6-0.1-1.1-0.3-1.7-0.4
		l-3.1-0.8l2.1-2.4c8.3-9.2,12.4-19.9,11.9-31c-0.5-10.5-5.4-20.8-13.1-27.7C197.6,123.6,188,120,178.1,120l0-0.9c0,0,0,0,0,0
		L178.1,120z M210,159.9c0,8.6-3.3,16.7-9.3,22.8c-6,6-14,9.4-22.4,9.4h0h0c-17.6,0-31.9-14.3-32-31.9
		c-0.1-17.5,14.1-31.8,31.6-31.9l0.2,0C195.6,128.2,209.9,142.4,210,159.9z"/>
</g>
</svg>
