<?xml version="1.0" encoding="utf-8"?>
<!-- Generator: Adobe Illustrator 23.0.1, SVG Export Plug-In . SVG Version: 6.00 Build 0)  -->
<svg version="1.1" id="Layer_1" xmlns="http://www.w3.org/2000/svg" xmlns:xlink="http://www.w3.org/1999/xlink" x="0px" y="0px"
	 viewBox="0 0 381.1 381.1" style="enable-background:new 0 0 381.1 381.1;" xml:space="preserve">
<style type="text/css">
	.st0{fill:#9A9A9A;}
</style>
<path class="st0" d="M357.1,158c-0.8,0-1.7,0-2.5,0l-5.4,0l-0.3,0l-0.5,0v-0.5v-0.3l0-22.1c0-16.3,0-32.6,0-48.9c0-0.7,0-1.5,0-2.2
	c0-2.3,0-4.7-0.2-7c-0.7-6.9-4.3-11.5-10.3-12.9c-5.4-1.3-8.8-4.3-11.7-7.4c-1.7-1.7-3.5-3.5-5.2-5.2l0,0l-1.1-1.1
	c-5.4-5.4-11.5-8.2-17.6-8.2c-6.1,0-12.3,2.9-17.7,8.3c-3.3,3.3-6.5,6.5-9.8,9.8l-5.1,5.1l-0.1,0.1l-0.3,0.3l-0.3-0.2l-0.2-0.1
	l-0.5-0.3c-13.7-8.3-27.3-14.1-41.4-17.5c-3.2-0.8-3.6-3-3.5-4.9c0-1.5,0-3,0-4.5c0.1-5.5,0.1-11.2-0.2-16.7
	C222.3,9.3,212.8,0.2,200.3,0c-2.2,0-4.6,0-7.5,0c-2.1,0-4.3,0-6.4,0l-4.1,0c-14.6,0-24.2,9.4-24.5,24c-0.1,5.7-0.2,11.7,0,17.5
	c0.1,2.8-0.4,5.7-5,6.6c-3.2,0.6-6.4,1.7-9.5,2.7l-1.1,0.4c-3.1,1-4.3,3-3.5,5.6c0.6,1.8,1.9,2.7,3.8,2.7c0.7,0,1.5-0.1,2.4-0.4
	c1.3-0.4,2.6-0.8,3.9-1.2c3.2-0.9,6.5-1.9,9.8-2.8c6-1.6,7.4-3.4,7.4-9.4c0-3.2,0-6.3,0-9.3c0-4.1,0-8.3,0-12.5
	c0.1-9.7,6-15.6,15.7-15.6c2.4,0,4.8,0,7.2,0c2.7,0,9.3,0,9.3,0c10.6,0,16.3,5.6,16.4,16.2c0,3.4,0,6.8,0,10.1l0,0.3l0,0.3
	c0,3.6,0,7.4,0,11c0,5.4,1.7,7.5,6.8,8.7c15.3,3.6,29.5,9.6,42.4,17.6c2.2,1.3,3.9,2,5.3,2c1.9,0,3.7-1,6.2-3.5c2-2,4-4,6-6.1
	c3.2-3.2,6.6-6.6,9.9-9.8c3.2-3.1,7-4.8,10.8-4.8c2.9,0,5.6,1,7.8,2.8c3,2.5,5.5,5.4,8.2,8.6c1.1,1.3,2.3,2.7,3.5,4l0.5,0.5l0.2,0.2
	l0.3,0.4l-0.3,0.3l-0.2,0.2l-0.5,0.5c-3,2.9-4.4,7.2-4.3,13.2c0,1.6-0.7,3.5-1.8,4.6c-9.8,10.5-21.6,20.4-36.1,30.2l-0.5,0.3
	l-0.2,0.1l-0.4,0.3l-0.3-0.3l-0.1-0.2l-0.4-0.5C256.1,90,225.8,76,192.4,76c-31.8,0-62.6,12.8-84.6,35.2
	c-42.1,42.9-42.9,113.4-1.6,157.2c22,23.4,53.5,36.8,86.3,36.8c33.1,0,63.2-13.8,84.7-38.9l0.4-0.5l0.1-0.2l0.3-0.3l0.4,0.2l0.2,0.1
	l0.5,0.3c14.6,9.6,26.7,19.4,36.8,29.8c0.8,0.8,1.6,2.3,1.6,3.7c-0.2,6.6,1.4,11.1,5.2,14.7l0.5,0.5l0.2,0.2l0.4,0.4l-0.4,0.4
	l-0.2,0.2l-3.7,3.6l-0.2,0.2c-2.1,2.1-4.1,4.1-6.1,6c-3.4,3.3-7.2,5.1-11,5.1c-3.9,0-7.7-1.8-11.2-5.2c-3.1-3.1-6.3-6.2-9.3-9.3
	l-0.2-0.2c-1.9-1.9-3.8-3.8-5.7-5.7c-2.7-2.6-4.5-3.7-6.4-3.7c-1.5,0-3.3,0.7-5.7,2.2c-12.6,7.8-26.6,13.6-41.7,17.3
	c-5.6,1.4-7.1,3.3-7.2,9.1c0,3,0,6,0,9l0,0.1c0,4.3,0,8.7,0,13.1c-0.2,9.6-6,15.3-15.6,15.4c-2.6,0-5.2,0-7.8,0c-3,0-6.1,0-9.1,0
	c-10.3,0-16-5.7-16.1-16.1c0-3.6,0-7.2,0-10.7c0-3.6,0-7.4,0-11c0-5.6-1.6-7.5-7.1-8.9c-15.2-3.7-29.4-9.6-42.4-17.6
	c-2-1.3-3.7-1.9-5.1-1.9c-1.8,0-3.6,1-5.8,3.2c-2.2,2.2-4.4,4.4-6.6,6.6l-0.1,0.1c-3.1,3.1-6.3,6.4-9.5,9.5
	c-3.2,3.1-6.9,4.7-10.6,4.7c-3.8,0-7.5-1.6-10.7-4.8c-3.9-3.8-8.1-7.9-12.8-12.7c-6.7-6.8-6.7-15,0.1-21.9c3.1-3.2,6.3-6.3,9.3-9.4
	l0.2-0.2c2-1.9,3.9-3.9,5.9-5.8c4.3-4.3,4.6-6.8,1.5-11.8c-7.9-12.7-13.7-26.8-17.3-41.7c-1.4-5.9-3.2-7.3-9.4-7.3l-1.8,0
	c-1.7,0-3.4,0-5.1,0l-0.5,0c-1.9,0-3.8,0-5.6,0c-3.7,0-6.8,0-9.5-0.1c-9.1-0.3-14.7-6.2-14.8-15.4c0-5.7,0-11.4,0-17.3
	c0-10,5.8-15.8,15.8-15.9c1.4,0,2.8,0,4.2,0c0.9,0,3,0,5.1,0l0.3,0c2,0,4,0,4.8,0c3,0,5.5,0,7.8,0c5.3-0.1,7.4-1.7,8.7-6.9
	c3.6-15.2,9.5-29.4,17.6-42.4c2.9-4.7,2.6-7.3-1.3-11.2c-2.2-2.2-4.4-4.4-6.6-6.6c-3.1-3.1-6.3-6.2-9.3-9.4c-6.5-6.7-6.5-15,0-21.6
	c4-4.1,8.1-8.2,12.1-12.1l0,0l0.1-0.1c3.6-3.6,7.4-5.4,11.4-5.4c3.9,0,7.8,1.8,11.4,5.4c5,5,10.2,10.2,15.9,15.9
	c1.8,1.8,3.6,2.7,5.4,2.7c0.7,0,1.5-0.2,2.2-0.5c2.5-1,5.2-2.6,8-4.7c1.7-1.3,1.9-3.1,0.7-5.1c-0.8-1.3-1.9-2-3.1-2
	c-0.6,0-1.2,0.1-1.9,0.4c-1,0.4-2,1-3.1,1.6c-0.5,0.3-1.1,0.6-1.7,1l-0.5,0.3l-0.2,0.1l-0.3,0.2l-0.3-0.3l-0.1-0.1l-0.4-0.4
	c-1.6-1.6-3.2-3.2-4.8-4.8l-0.1-0.1c-3.5-3.6-7.2-7.3-10.9-10.9c-4.6-4.4-10.4-6.9-16.3-6.9c-5.9,0-11.7,2.5-16.4,6.9
	c-3.2,3.1-6.4,6.4-9.5,9.5l-2.7,2.7c-11,11.1-11,24.3,0,35.3c3.3,3.4,6.7,6.7,10,10l4.7,4.7l0.1,0.1l0.3,0.3l-0.2,0.3l-0.1,0.2
	l-0.2,0.5c-1.1,2.2-2.2,4.4-3.3,6.5c-2.5,4.9-4.8,9.4-6.8,14.2c-1.7,4.1-3.1,8.5-4.4,12.7c-0.9,2.9-1.9,5.9-2.9,8.8
	c-0.6,1.5-2.7,3-4.4,3.1c-1.8,0.1-3.7,0.1-6.2,0.1c-1.2,0-2.4,0-3.6,0c-1.2,0-2.4,0-3.6,0c-2.9,0-5.2,0-7.2,0.1
	c-9.5,0.3-16.3,5-20.5,13.8c-0.5,1.1-0.9,2.3-1.4,3.4c-0.2,0.5-0.4,0.9-0.5,1.4v28c0.1,0.4,0.3,0.8,0.4,1.2c0.4,1,0.7,2,1.2,2.9
	c3.9,8.9,10.4,13.7,19.3,14.3c4.1,0.3,8.5,0.3,12,0.3H34c3,0,5.8,0,8.6,0.1c1.6,0.1,4.4,1.3,4.9,3.1c3.9,14.8,9.7,28.5,17.7,41.7
	l0.3,0.5l0.1,0.2l0.2,0.3l-0.3,0.3l-0.1,0.1l-5.1,5l-0.2,0.2c-3.3,3.3-6.7,6.7-10,10c-10.5,10.6-10.5,24.2,0,34.8l2.8,2.8l0.1,0.1
	c3.1,3.2,6.4,6.4,9.6,9.5c4.7,4.5,10.5,7,16.4,7c5.9,0,11.6-2.4,16.2-6.9c3.7-3.5,7.3-7.3,10.8-10.9l0.1-0.1c1.6-1.7,3.2-3.4,4.9-5
	l0.4-0.4l0.1-0.1l0.3-0.3l0.3,0.2l0.2,0.1l0.5,0.3c11.8,7.2,23.8,12.5,36.4,16.2c8.2,2.4,8.7,3.1,8.7,11.6c0,1.4,0,2.8,0,4.1l0,0.2
	c0,3.6-0.1,7.3,0.1,11c0.6,10.8,7,18.7,17.7,21.5c0.5,0.1,0.9,0.3,1.4,0.5c0.1,0,0.2,0.1,0.3,0.1h26.5c13.8-3.7,20.3-13.1,19.4-28
	c-0.1-2.1-0.1-4.3-0.1-6.4c0-2.1,0.1-4.3-0.1-6.4c-0.2-3.1,0.3-6.8,5.8-7.5c2.9-0.4,5.9-1.5,7.9-2.3c7.7-3.2,15.2-6.5,23.2-9.9
	l0.2-0.1l0.8-0.3c2.7-1.2,5.5-2.4,8.3-3.6l0.4-0.2l0.2-0.1l0.3-0.1l0.2,0.2l0.1,0.1l0.3,0.3c1.2,1.3,2.5,2.6,3.9,3.9l0,0l0.3,0.3
	c3.4,3.4,6.8,7,10.4,10.5c4.9,4.8,10.6,7.3,16.7,7.3c6,0,11.7-2.4,16.5-7.1c1.6-1.6,3.3-3.2,4.8-4.8c2.1-2.1,4.2-4.2,6.4-6.3
	c1.4-1.3,3.5-2.4,5.4-2.8c7.9-1.7,12.7-7.3,13-15.1c0.2-4.2,0.3-8.6-0.2-12.9c-0.1-1.1-1.6-2.9-2.7-3.2c-0.2-0.1-0.4-0.1-0.7-0.1
	c-1.2,0-2.7,0.6-3.6,1.3c-0.4,0.3-0.9,1.3-1,4.1c-0.1,1.8-0.1,3.7-0.1,5.5c0,1.9,0,3.8-0.1,5.7c-0.3,3.7-2.8,6.1-6.6,6.2
	c-0.1,0-0.3,0-0.4,0c-3.5,0-5.9-2-6.7-5.6c-0.3-1.4-0.3-2.7-0.3-4c0-77.2,0-148.8,0-219c0-1.5,0-3,0.4-4.4c0.8-3.3,3.2-5.2,6.6-5.2
	c0.1,0,0.3,0,0.4,0c3.6,0.2,6,2.3,6.5,5.8c0.2,1.4,0.2,2.9,0.2,4.3l0,178.5l0,0.7c0,1.2,0,2.4,0.2,3.5c0.4,2.4,1.7,3.6,3.9,3.6
	c0.1,0,0.2,0,0.3,0c2.2-0.1,3.5-1.3,3.8-3.7c0.1-1,0.1-2,0.1-3l0-0.6c0-7.1,0-14.3,0-21.4v-2.7l0-12.6v-0.3v-0.5h0.5h0.3h0.7
	c1.1,0,2.1,0,3.1,0l0.2,0l0.1,0c0.9,0,1.8,0,2.7,0c1.2,0,2.3,0,3.2-0.1c13-1,21.8-10.4,21.9-23.5c0-6.2,0-12.4,0-17.6
	C381,167.7,371.4,158.1,357.1,158z M137.1,268.6c0,3.5,0,6.9,0,10.4v0.8v0.3v0.6l-0.6-0.1l-0.3-0.1l-0.8-0.2
	c-18.9-3.5-47.2-46.7-50.5-77c-5.4-48.9,20.4-92.3,65.6-110.8c13.6-5.5,27.6-8.3,41.7-8.3c30.1,0,58.5,13,77.8,35.8l0.5,0.6l0.2,0.2
	l0.4,0.4l-0.5,0.3l-0.3,0.2l-0.7,0.4c-19.8,12-40.9,21.4-64.6,28.5l-0.6,0.2l-0.2,0.1l-0.4,0.1l-0.2-0.4l-0.1-0.2l-0.3-0.5
	c-3.2-6.5-8.4-9.4-16.8-9.4c-0.5,0-1,0-1.4,0c-2.7,0.1-5.5,0.1-9.2,0.1c-1.5,0-3.1,0-4.6,0c-1.5,0-3.1,0-4.6,0
	c-2.9,0-6.8,0-10.7,0.2c-21.9,1-39.5,15.8-44.9,37.6c-5.4,21.9,3.2,43.2,22,54.4c3.1,1.9,4.3,3.9,4.3,7.4
	C137,249.7,137,259.3,137.1,268.6z M181.8,241.1v0.3v55.1v0.3v0.6l-0.6-0.1l-0.3-0.1l-0.9-0.2c-2.3-0.5-4.6-1-6.7-1.4
	c-4.9-1-9.6-2-14.3-3.3c-13.1-3.8-13.7-4.5-13.7-18.2l0-33.6v-0.3v-0.5l0.5,0l0.3,0l0.7,0c1.8,0.1,3.5,0.2,5.2,0.3l0.1,0
	c3.9,0.2,7.7,0.4,11.4,0.5c1.9,0,3.9,0.1,6.4,0.1c1.7,0,3.3,0,5,0c1.7,0,3.5,0,5.2,0h0.7h0.3h0.5V241.1z M186.1,232.2
	c-2,0-4.1,0-6.1,0l-0.5,0c-2.2,0-4.4,0-6.7,0c-5,0-10.9,0-16.9-0.4c-21.2-1.1-38.5-19.7-38.4-41.3c0-21.7,17.3-40.2,38.5-41.2
	c4.5-0.2,9.4-0.3,15.3-0.3c3.5,0,7,0,10.4,0.1c2.3,0,4.6,0,6.9,0.1c4.9,0,7.3,2.6,7.4,8c0,8.1,0,16.3,0,24.1c0,3.2,0,6.4,0,9.6l0,8
	c0,7.9,0,16.2,0,24.3c0,6.8-2.3,9.1-9,9.1L186.1,232.2z M190.4,249.9c0.1-1.8,0.1-3.7,0.1-5.1c0-0.5,0-1,0-1.4v-0.3V243v-0.2
	l0.2-0.2l0.1-0.1l14.7-11.5l0.1-0.1l0.2-0.2l0.3,0.1l0.1,0l0.4,0.1c0.6,0.2,1.2,0.4,1.9,0.6c2.2,0.7,5,1.6,7.7,2.8
	c1.5,0.6,2.6,2.9,2.6,4.5c0,9.6-8.5,17.7-18.5,17.7h0h0l0,0c-1.9,0-3.8-0.3-5.6-0.9C191.4,254.7,190.2,252.8,190.4,249.9z
	 M270.2,260.2l-0.2,0.2l-0.5,0.7c-13.5,18.7-48.7,35.7-73.9,35.7c-1.2,0-2.4,0-3.6-0.1l-0.7,0l-0.2,0l-0.5,0v-0.5v-0.2v-31.3v-0.3
	v-0.6l0.6,0.1l0.3,0.1l0.9,0.2c2.6,0.6,5.2,0.9,7.7,0.9c5.4,0,10.3-1.5,14.8-4.5c7.1-4.8,11-11.3,12.1-20.4l0.1-1l0-0.4l0.1-0.7
	l0.6,0.3l0.3,0.2l41.5,20.8l0.3,0.1l0.5,0.3L270.2,260.2z M317.2,97.7v0.5v184.9v0.5v1.1l-0.8-0.7l-0.4-0.4c0,0-2.9-2.5-3.7-3.1
	c-1.7-1.4-3.3-2.8-4.8-4.1c-27.6-22.9-59.3-40.2-96.9-52.8c-4.6-1.6-6.3-3.8-6.2-8.6c0.3-16.8,0.2-33.7,0-50.9
	c0-3.2,1.2-4.8,4.3-5.8c22.4-7.3,48.4-16.8,71.5-32.7c7.5-5.2,14.8-11,21.8-16.6c3-2.4,6.3-5,9.6-7.6c0.6-0.5,1.2-1,1.9-1.6
	c0.4-0.4,0.8-0.7,1.3-1.1l1.2-1l0.4-0.4l0.8-0.7V97.7z M372.8,184.4c-0.1,1.4-0.1,2.8,0,4.2l0,0.1c0,0.6,0,1.3,0,1.9
	c0,0.8,0,1.7,0,2.5l0,0.4c0,2.1,0,4.3,0,6.5c-0.2,8.3-5.6,14.1-13.8,14.7c-1,0.1-2,0.1-3.3,0.1c-0.9,0-1.8,0-2.7,0l-0.1,0
	c-0.9,0-1.9,0-2.8,0h-0.7h-0.3h-0.5v-0.5v-0.3v-46.3v-0.2v-0.4l0.4-0.1l0.2,0l0.6-0.1c2.3-0.5,4.6-0.8,6.7-0.8
	c5.3,0,9.7,1.6,12.5,4.8C371.9,174.2,373.2,178.8,372.8,184.4z"/>
</svg>
