<?xml version="1.0" encoding="utf-8"?>
<!-- Generator: Adobe Illustrator 23.0.1, SVG Export Plug-In . SVG Version: 6.00 Build 0)  -->
<svg version="1.1" id="Layer_1" xmlns="http://www.w3.org/2000/svg" xmlns:xlink="http://www.w3.org/1999/xlink" x="0px" y="0px"
	 viewBox="0 0 381 380.8" style="enable-background:new 0 0 381 380.8;" xml:space="preserve">
<style type="text/css">
	.st0{fill:#9A9A9A;}
</style>
<g>
	<path class="st0" d="M354.4,235.1c-12.8-12.1-28.6-19.8-45.6-22.1c-4-0.6-8-0.8-12-0.8c-31.4,0-60,17.3-74.7,45.1
		c-1.4,2.7-3.1,3.7-6.1,3.7l-0.1,0c-6,0-12.3-0.1-20.5-0.1c-3.6,0-7.3,0-10.9,0c-3.4,0-6.8,0-10.2,0c-3.2,0-5.3,0.5-6.3,1.6
		c-0.6,0.6-0.9,1.5-0.9,2.7c0,2,0.6,4,7,4l15.3,0l10.5,0l10.5,0h4.3h2l-0.6,1.9c-5.1,17-5.2,33.5-0.1,50.5l0.6,1.9h-2H10H8.5V322
		v-51.4v-1.5H10l2.3,0h2l18.7,0l18.7,0l21.8,0h1l16.4,0l16.4,0c12.2,0,24.5,0,36.7,0c1.7,0,3.1-0.5,4-1.4c0.7-0.7,1-1.6,1-2.8
		c0-2.4-1.9-3.9-4.9-4.1c-0.3,0-0.7,0-1,0c-0.3,0-0.5,0-0.8,0c-0.3,0-0.5,0-0.8,0h-0.2c-10.6,0-21.2,0-31.7,0c-10.6,0-21.2,0-31.7,0
		c-26.2,0-46.3,0-64.9-0.1l-0.1,0c-6.7,0-10.5,2.1-12.7,7.1V325c2.3,5,6.1,7.1,12.8,7.1l0.1,0c38.2-0.1,77-0.1,114.6-0.1
		c28.6,0,58.3,0,87.4-0.1c3.8,0,5.9,1.2,7.7,4.4c14.1,25.1,35.8,39.8,64.4,43.8c0.7,0.1,1.2,0.3,1.7,0.5c0.1,0,0.2,0.1,0.4,0.1h15.3
		c0.2-0.1,0.4-0.1,0.5-0.2c0.6-0.2,1.3-0.4,2-0.5c23.1-2.8,44.4-15.4,58.2-34.6c13.8-19.2,19-43.2,14.4-65.9
		C375.8,262.6,367.2,247.2,354.4,235.1z M339.1,356.9c-0.1,1.7-1.6,3.6-3.1,4.5c-11.7,7.3-24.9,11-39.5,11.2l0,0l0,0
		c-14.4-0.2-27.6-3.9-39.2-11.1c-1.5-0.9-3.1-3-3.2-4.8c-0.5-17.1,6.6-30.4,21.2-39.5c1.1-0.7,2.2-1,3.2-1c1.1,0,2.1,0.3,3.4,1.1
		c4.9,2.9,9.8,4.4,14.7,4.4c4.8,0,9.8-1.5,14.6-4.3c0.9-0.5,2.1-1.1,3.5-1.1c1,0,2,0.3,3.1,1C332.5,326.1,339.7,339.5,339.1,356.9z
		 M316,291c0,1.5,0.1,3-0.1,4.5c-0.8,10.1-9.1,17.8-19.3,17.8c-0.1,0-0.2,0-0.3,0c-10.2-0.2-18.3-7.9-19-18c-0.2-3.8-0.3-7.7,0-11.8
		c0.6-10.3,8.8-18.2,19-18.3l0.2,0c10.5,0,18.6,7.6,19.4,18.1c0.1,1.3,0.1,2.7,0,4c0,0.6,0,1.2,0,1.7v1.5l0,0
		C316,290.7,316,290.8,316,291z M349.9,350.4l-2.1,2l-0.4-2.9c-2.2-17.6-10.7-30.7-26-40l-1.2-0.8l0.7-1.3c4.4-7.7,3.9-16,3.3-24.7
		l0-0.5c-0.9-14.2-12.9-25.4-27.5-25.4c-14.7,0-26.8,11.3-27.5,25.7l-0.1,1.1c-0.5,8.4-0.9,16.4,3.4,23.8l0.7,1.3l-1.2,0.8
		c-15.2,9.3-23.7,22.2-26,39.6l-0.4,2.7l-2.1-1.7c-15.7-12.9-28.2-42.7-20.6-72.5c8-31.4,36.3-54.9,68.8-57.1
		c1.7-0.1,3.4-0.2,5.1-0.2c30.6,0,58.9,19.1,70.4,47.5C380.6,301,367.6,333.9,349.9,350.4z"/>
	<path class="st0" d="M0.7,95.2c4.6,39.9,40.8,72.8,80.7,73.3c0.4,0,0.9,0,1.3,0c33.5,0,59.2-15.2,76.3-45.2
		c1.2-2.1,2.6-3.5,5.7-3.5l0.2,0c3.2,0.1,6.6,0.1,10.9,0.1c2.2,0,4.5,0,6.7,0c2.2,0,4.5,0,6.7,0h1l42.6,0l42.6,0
		c31.4,0,62.8,0,94.2,0c7.6,0,11.3-3.6,11.3-11.1c0-3.7,0-7.4,0-11.1c0-12.6,0.1-25.6-0.2-38.3c0-2.4-1.2-5.4-3-7.9
		c-1.8-2.5-5-2.7-8.6-2.7h-0.1c-38.9,0-77.8,0-116.6,0c-29,0-58,0-87,0c-2.1,0-4.7,0-6.5-3.3c-7.6-14.1-18.4-25.7-31.2-33.5
		C115.2,4.1,100.4,0,85.1,0C79.8,0,74.4,0.5,69,1.5c-6.4,1.2-12.8,3.8-19,6.3c-1.8,0.7-3.6,1.4-5.4,2.1c-1.1,0.4-1.9,1.1-2.2,2.1
		c-0.4,1-0.3,2.2,0.3,3.4c0.7,1.4,2,2.2,3.6,2.2c0.7,0,1.4-0.2,2.2-0.5c0.5-0.2,1-0.5,1.5-0.7c0.4-0.2,0.8-0.4,1.1-0.6
		c10.8-5.1,21.9-7.7,33.1-7.7c3.1,0,6.2,0.2,9.3,0.6c26.6,3.3,49.1,19.7,60.2,43.9c11.1,24.2,8.8,51.8-6.1,74
		c-1.8,2.7-3.9,5.3-6.2,8c-1.1,1.3-2.2,2.7-3.4,4.2l-2.2,2.8l-0.5-3.5c-2.3-18.2-10.9-31.5-26.2-40.9l-1.3-0.8l0.7-1.3
		c4.3-7.4,3.9-15.1,3.4-23.3l-0.1-1.4C111.1,56,99.1,44.7,84.4,44.7l-0.1,0c-14.6,0-26.7,11.3-27.5,25.6l0,0.8
		c-0.5,8.5-0.9,16.5,3.4,24.1l0.7,1.3l-1.3,0.8c-15.3,9.2-23.9,22.4-26.1,40.3l-0.4,3.2l-2.2-2.4c-0.7-0.7-1.3-1.4-1.8-2
		c-1.2-1.2-2.2-2.3-3.2-3.5C1.7,103.6,2.3,62.8,27.4,33.7c1.4-1.6,2.1-3.2,2-4.6c-0.1-0.9-0.5-1.8-1.4-2.5c-0.8-0.7-1.6-1-2.4-1
		c-1.3,0-2.8,0.9-4.2,2.5C12.5,38.1,6.3,49.5,3,62.1c-0.9,3.2-1.5,6.6-2.1,9.9c-0.3,1.5-0.6,3-0.9,4.5v15.4c0.1,0.3,0.1,0.6,0.2,0.8
		C0.4,93.5,0.6,94.3,0.7,95.2z M166.4,57.1h204.7h1.5v1.5v51.2v1.5h-1.5H166.4h-2l0.6-1.9c5.1-17,5.1-33.4,0-50.3l-0.6-1.9H166.4z
		 M65.1,70.4c0.7-10,9-17.5,19.3-17.5l0.2,0c10,0.1,18.2,7.6,19.1,17.4c0.1,1.5,0.1,3,0.1,4.5c0,0.2,0,0.3,0,0.5l0.3,0l-0.1,1.5
		c0,0.8-0.1,1.7-0.1,2.5c-0.1,1.9-0.1,3.9-0.4,5.8c-1.4,8.8-9.8,15.8-19,15.8c-0.1,0-0.3,0-0.4,0c-9.7-0.2-17.9-7.7-18.8-17
		C64.8,79.6,64.8,75,65.1,70.4z M62.7,105.1c1.4-0.9,2.5-1.3,3.7-1.3c1.1,0,2.3,0.4,3.6,1.1c4.8,2.9,9.6,4.3,14.4,4.3
		c4.8,0,9.7-1.5,14.4-4.3c1.3-0.8,2.4-1.2,3.6-1.2c1.2,0,2.3,0.4,3.7,1.2c14.4,9.2,21.3,22.5,20.8,39.4c-0.1,1.7-1.5,3.7-2.9,4.5
		c-11.6,7.3-24.8,11.1-39.4,11.3c-14.2-0.2-27.4-3.9-39.4-10.9c-2.4-1.4-3.4-3.2-3.4-6C41.7,126.9,48.7,114,62.7,105.1z"/>
	<path class="st0" d="M52,292.3c-0.5,0-1.1,0-1.6,0.2c-2.3,0.6-3.3,2-3.2,4.2c0.1,2.1,1.1,3.3,3.3,3.8c0.4,0.1,0.9,0.1,1.5,0.1
		c0.3,0,0.6,0,0.9,0c0.3,0,0.6,0,1,0c11.6,0,23.3,0,34.9,0l10.6,0l10.6,0l10.1,0l10.1,0c12.1,0,24.2,0,36.3,0c0.3,0,0.6,0,1,0
		c0.3,0,0.6,0,0.9,0c0.5,0,0.9,0,1.3-0.1c2.4-0.4,3.6-1.6,3.7-3.8c0.1-2.4-1-3.7-3.5-4.3c-0.3-0.1-0.8-0.1-1.3-0.1
		c-0.3,0-0.5,0-0.8,0c-0.3,0-0.6,0-0.9,0c-17.4,0-34.8,0-52.1,0c-20.3,0-40.7,0-61,0c-0.3,0-0.6,0-0.9,0
		C52.5,292.3,52.2,292.3,52,292.3z"/>
	<path class="st0" d="M216.1,216.5c-4.6,0-9-1.8-12.8-5.5c-1.1-1.1-2.3-1.6-3.5-1.6c-1,0-1.9,0.4-2.8,1.3c-2.3,2.3-1,4.7,0.5,6.2
		c5,5.1,11.4,7.7,20.8,8.1c0.5-0.1,1-0.3,1.6-0.4c1.8-0.4,4.3-1,6.5-2.1c5.8-2.8,8.9-7.4,9.1-13.5c0.3-6-2.5-10.7-8-13.6
		c-3.2-1.7-6.7-3.1-10.1-4.5c-2.3-0.9-4.7-1.9-7-3c-1.5-0.7-3.5-2.6-3.5-4.5c0-1.9,1.2-4.9,3.1-5.6c1.7-0.6,4.3-1.4,6.9-1.4
		c0.7,0,1.4,0.1,2.1,0.2c2.3,0.4,4.4,1.5,6.4,2.6c0.7,0.4,1.4,0.8,2.1,1.1c0.9,0.4,1.8,0.7,2.5,0.7c1.2,0,2.1-0.5,3-1.7
		c1.3-1.8,1.2-3.5-0.3-5.3c-3.4-3.8-9.6-6.2-16.2-6.2c-5,0-9.4,1.4-12.5,3.8c-4.1,3.3-6.1,8.1-5.4,13c0.7,4.9,3.9,9,8.7,11
		c1.9,0.8,3.8,1.6,5.7,2.3c1.9,0.8,3.9,1.5,5.8,2.3c1.7,0.7,3.6,1.5,5.3,2.7c2.1,1.5,3.3,3.6,3.3,5.7c0,2.1-1.2,4-3.2,5.4
		c-2,1.4-4.6,2.2-7,2.4C216.9,216.5,216.5,216.5,216.1,216.5z"/>
	<path class="st0" d="M167.7,224.8c2.6,0,4.3-1.5,5.4-4.7c2.1-6.3,4.3-12.8,6.5-19l0.1-0.2c1.1-3.1,2.1-6.1,3.2-9.2
		c1.9-5.6,3.9-11.3,5.8-17c0.7-2,0.7-3.7,0.1-4.8c-0.4-0.9-1.3-1.5-2.4-1.8c-0.4-0.1-0.8-0.2-1.2-0.2c-2.4,0-3.8,2.7-4.3,4.3
		c-0.3,0.9-0.6,1.9-1,2.8c-0.2,0.7-0.5,1.4-0.7,2.1c-2.4,7.1-4.9,14.2-7.4,21.5l-2.6,7.5l-1.3,3.8l-1.5-3.7c-0.2-0.5-0.4-1-0.6-1.4
		c-0.3-0.8-0.6-1.4-0.8-2c-1.4-3.9-2.8-7.8-4.2-11.7c-2.3-6.4-4.6-12.8-6.9-19.2c-0.9-2.6-2.5-4.1-4.3-4.1c-0.4,0-0.9,0.1-1.3,0.2
		c-1.1,0.4-1.9,1-2.3,1.9c-0.5,1.1-0.5,2.7,0.2,4.5c2.6,7.4,5.3,14.8,7.9,22.1c2.8,7.8,5.7,15.8,8.5,23.7
		C163.4,223.4,165.1,224.8,167.7,224.8L167.7,224.8z"/>
	<path class="st0" d="M211.1,88.2c0.3,0.1,0.8,0.1,1.3,0.1c0.3,0,0.5,0,0.8,0c0.3,0,0.6,0,0.9,0c12.1,0,24.3,0,36.4,0l9.7,0l9.7,0
		h0.8l12.2,0l12.2,0c9.8,0,19.5,0,29.3,0c0.6,0,1.1,0,1.7,0c0.5,0,1.1,0,1.6,0c1,0,1.7,0,2.4-0.1c2.5-0.3,3.7-1.6,3.8-4
		c0.1-2.3-1.5-3.9-3.9-4.1c-0.3,0-0.6,0-1.1,0c-0.2,0-0.5,0-0.7,0c-0.2,0-0.5,0-0.7,0c0,0,0,0,0,0l-50.6,0l-62.9,0
		c-0.3,0-0.6,0-0.9,0c-0.3,0-0.5,0-0.8,0c-0.5,0-0.8,0-1.1,0.1c-2.4,0.4-3.5,1.7-3.6,3.9C207.5,86.3,208.6,87.7,211.1,88.2z"/>
</g>
</svg>
