<?xml version="1.0" encoding="utf-8"?>
<!-- Generator: Adobe Illustrator 23.0.1, SVG Export Plug-In . SVG Version: 6.00 Build 0)  -->
<svg version="1.1" id="Layer_1" xmlns="http://www.w3.org/2000/svg" xmlns:xlink="http://www.w3.org/1999/xlink" x="0px" y="0px"
	 viewBox="0 0 285.9 381.9" style="enable-background:new 0 0 285.9 381.9;" xml:space="preserve">
<style type="text/css">
	.st0{fill:#9A9A9A;}
</style>
<g>
	<path class="st0" d="M146.8,280c-1.2-0.1-2.4-0.1-3.7-0.1c-24.5,0-46.2,17.9-50.3,41.8c-2.2,12.6,0.2,25.4,6.8,36.1
		c6.6,10.7,16.9,18.5,29.1,22.1c1.9,0.6,3.9,1,5.8,1.5c0.9,0.2,1.7,0.4,2.6,0.6h11.6c0.9-0.2,1.8-0.4,2.7-0.6c2-0.5,4.1-1,6.1-1.5
		c9.5-2.8,17.6-8.1,24-15.6c1.7-2,1.7-4.3-0.1-6c-0.8-0.7-1.7-1.1-2.6-1.1c-1.2,0-2.3,0.5-3.4,1.6c-0.5,0.4-0.9,0.9-1.4,1.4
		c-0.7,0.7-1.3,1.4-2.1,2.1c-8.8,7.7-18.4,11.6-28.4,11.6c-5.3,0-10.8-1.1-16.3-3.3c-16.2-6.4-25.5-19-26.9-36.3
		c-1.4-17.5,6-31.4,21.3-40.2c7-4.1,14.2-6.1,21.4-6.1c7.9,0,15.7,2.5,23.1,7.4c14.4,9.4,20.8,23.2,19.2,40.9
		c-0.2,2.5,0.2,5.5,3.4,6c0.2,0,0.4,0,0.6,0c2.9,0,3.8-2.9,4.1-4.7c2.1-13.1-1.6-26.8-10.3-37.8C174.2,288.2,160.9,281.1,146.8,280z
		"/>
	<path class="st0" d="M273.4,90.9c-16.3,0-32.6,0-48.9,0c-16.6,0-33.2,0-49.9,0l-4,0c-5.4,0-5.5,3-5.5,4c0,1.2,0.3,2.1,0.9,2.8
		c0.9,0.9,2.5,1.4,4.7,1.4c3.6,0,7.2,0,10.8,0l7.6,0l7.6,0c6.2,0,12.3,0,18.5,0c6.2,0,12.3,0,18.5,0c15.2,0,26.8,0,37.7-0.1l0.1,0
		c1.6,0,3.7,0.2,5,1.6c1.3,1.4,1.3,3.5,1.2,5c-0.2,1.8-0.1,3.6-0.1,5.5c0,0.9,0,1.8,0,2.6c0,6.5-0.7,7.1-7,7.1l-137.2,0l-118.2,0
		c-0.3,0-0.5,0-0.8,0c-0.2,0-0.5,0-0.7,0c-0.2,0-0.5,0-0.7,0c-0.2,0-0.3,0-0.5,0c-1.3,0-2.3-0.4-3-1.1c-0.8-0.8-1.2-2-1.2-3.6
		c0-2.1,0-4.2,0-6.2c0-1.3,0-2.6,0-3.9c0-6.3,0.7-7,7.2-7l9.6,0l22.2,0l22.2,0c24,0,48,0,72.1,0c2.5,0,5.5-0.7,5.5-4
		c0-1.2-0.3-2.1-1-2.8c-0.9-0.9-2.4-1.4-4.3-1.4c-22.3,0-44.5,0-66.8,0c-20.9,0-41.7,0-62.6,0c-7.3,0-12,4.5-12.2,11.8
		c-0.2,5.3-0.2,10.2,0,14.9c0.3,7,4.9,11.5,12.1,11.6c1.4,0,2.8,0,4.2,0c1.2,0,2.3,0,3.5,0c1.1,0,2.2,0,3.3,0h1l0.4,0.9
		c0.1,0.2,0.2,0.4,0.2,0.5c0.1,0.3,0.3,0.6,0.3,1c0,0.6,0,1.1,0.1,1.7l0,0.6c0.4,13.9,6.2,25.2,17.3,33.5c4.6,3.5,9.4,6.9,14,10.2
		c2.1,1.5,4.2,3,6.3,4.5l0.4,0.3c0.4,0.3,0.7,0.5,1,0.7c0.9,0.6,1.9,0.9,2.8,0.9c1.3,0,2.4-0.6,3.2-1.7c1.4-2,0.9-4.2-1.2-5.8
		c-3.1-2.3-6.2-4.6-9.3-6.8c-4.2-3-8.6-6.2-12.8-9.4c-9.5-7.3-14-17.2-13.3-29.5l0.1-1.4h1.4h215.9h1.5l0,1.5
		c0.4,12.8-4.4,22.9-14.2,30.1c-27.8,20.3-50.9,37-72.5,52.6c-4.5,3.2-6.5,7.1-6.4,12.4c0.1,6.7,0.1,13.5,0.1,20.1
		c0,2.8,0,5.7,0,8.6v1.7l-1.7-0.2c-0.2,0-0.4,0-0.6-0.1c-0.5,0-0.9-0.1-1.4-0.2l-4.5-1.6c-7.2-2.6-14.6-5.3-21.9-8.1
		c-1.7-0.7-2.8-3.2-2.8-4.7c-0.1-4.2-0.1-8.4-0.1-12.5c0-1.5,0-3,0-4.5c0-4.1-1.6-7.4-4.8-9.8l-2-1.4c-9.4-6.9-19-14-28.7-20.7
		c-0.7-0.5-1.8-0.7-3-0.7c-0.7,0-1.3,0.1-1.8,0.3c-0.8,0.3-2,2.2-2,3c0.1,1.4,1.3,3.3,2.6,4.3c9,6.8,18.1,13.4,27.2,19.8
		c3.1,2.1,4.3,4.7,4.2,8.4c-0.1,3.7-0.1,7.4-0.1,11.1c0,2.6,0,5.4,0,8c-0.1,3,1.1,4.5,3.9,5.6c7.8,2.8,15.8,5.7,23.4,8.5
		c5,1.8,9.9,3.6,14.9,5.4c1.2,0.4,2.3,0.7,3.2,0.7c2.7,0,4.1-1.9,4.1-5.8c0-2.5,0-4.9,0-7.4c0-8.5,0.1-17.3-0.1-25.9
		c-0.1-3.9,1.2-6.4,4.3-8.6c20.5-14.7,41.2-29.8,61.3-44.4l10-7.3c8.6-6.3,14.1-14.6,16.4-24.8c0.6-2.6,0.8-5.3,1.1-8.2
		c0.1-1.3,0.3-2.7,0.4-4.1l0.2-1.3h1.3c1.1,0,2.2,0,3.3,0c1.1,0,2.2,0,3.4,0c1.3,0,2.7,0,4,0c7.5-0.1,12.1-4.6,12.4-12
		c0.1-4.7,0.1-9.4,0-14.1C285.6,95.4,280.9,90.9,273.4,90.9z"/>
	<path class="st0" d="M53.1,0.9c-20.9,0-37.5,16.4-37.9,37.4c-0.2,9.9,3.6,19.4,10.6,26.7c7,7.3,16.4,11.4,26.4,11.6
		c0.2,0,0.5,0,0.7,0c20.8,0,37.5-16.4,37.9-37.4c0.2-9.9-3.6-19.4-10.6-26.7c-7-7.3-16.4-11.4-26.4-11.6C53.5,0.9,53.3,0.9,53.1,0.9
		l0-0.7c0,0,0,0,0,0L53.1,0.9z M82.5,38.7c0,7.9-3,15.4-8.6,21c-5.6,5.6-13,8.7-20.9,8.7l-0.1,0c-16.2,0-29.5-13.2-29.6-29.5
		c0-7.9,3-15.3,8.6-21c5.6-5.6,13-8.7,20.9-8.7l0.1,0C69.2,9.2,82.5,22.4,82.5,38.7z"/>
	<path class="st0" d="M143,76.7l0.1,0c10.1,0,19.6-4,26.7-11.2c7.1-7.2,11-16.7,11-26.8c-0.1-20.8-17.1-37.7-37.8-37.7h0l-0.1,0
		c-10.1,0-19.6,4-26.7,11.2c-7.1,7.2-11,16.7-11,26.8C105.2,59.7,122.2,76.7,143,76.7z M143.1,9.2c0.3,0,0.5,0,0.8,0
		c16.2,0.4,29,13.9,28.6,30.2c-0.4,16.3-13.4,29.1-29.7,29.1c-0.3,0-0.5,0-0.8,0c-16.2-0.4-29-13.9-28.6-30.2
		C113.8,21.9,126.8,9.2,143.1,9.2z"/>
	<path class="st0" d="M233.5,0.7c-4.9,0-10,1.1-15.1,3.2c-13.9,5.8-22.3,17.3-23.2,31.4c-0.2,11.6,3.7,22.2,11.1,30
		c6.8,7.1,15.9,11.1,25.7,11.3c0.3,0,0.5,0,0.8,0c20.7,0,37.7-16.7,37.9-37.3c0-1.4-0.3-4.8-3.7-5.2c-0.1,0-0.3,0-0.4,0
		c-3.2,0-3.9,3.3-4,4.8c0,0.4-0.1,0.9-0.1,1.4c0,0.3,0,0.6-0.1,0.9c-1.2,14.9-13.3,26.5-27.9,27.2c-0.4,0-0.9,0-1.3,0
		c-14.4,0-27-10.4-29.3-24.2c-2.6-15,6.4-29.5,20.8-33.7c3-0.9,5.9-1.3,8.8-1.3c6.9,0,13.5,2.6,19.5,7.7c1.3,1.1,2.8,1.8,4,1.8
		c1.4,0,2.5-0.7,3.2-2.1c1.1-2.1,0.6-3.8-1.6-5.7C250.6,4.1,242.2,0.7,233.5,0.7L233.5,0.7l0-0.7c0,0,0,0,0,0L233.5,0.7z"/>
	<path class="st0" d="M143.6,346c-0.6,0-1.1-0.1-1.7-0.2c-2.3-0.6-4.4-1.9-6.4-3.1l-0.2-0.1c-1-0.6-2-0.9-2.9-0.9
		c-1.1,0-2.1,0.5-2.9,1.5c-1.5,1.7-1.3,4.1,0.5,5.6c0.9,0.8,2,1.5,3.1,2.2c1,0.6,2,1.3,3,2c0.5,0.4,2.4,2,2.8,4.1
		c0.3,1.4,1.3,4.5,3.9,4.5c0.1,0,0.2,0,0.3,0c2.5-0.2,3.7-1.5,4.2-4.3c0.2-1.5,1.3-3.5,2.8-4.4c5.8-3.6,8.2-8.3,7.4-14.5
		c-0.7-5.4-4.1-9-10.6-11.1c-0.4-0.1-0.8-0.3-1.3-0.4c-1.2-0.3-2.6-0.7-3.7-1.5c-1-0.7-3.4-3.4-2.6-5.4c0.7-1.8,2.9-3.1,4.6-3.7
		c0.3-0.1,0.7-0.2,1.1-0.2c1,0,2,0.3,2.8,0.7c0.2,0.1,0.4,0.1,0.6,0.2c1,0.3,1.9,0.5,2.7,0.5c1.7,0,2.9-0.8,3.6-2.5
		c0.4-1.1,0.4-2.1,0-3c-0.5-1.1-1.6-2-3.2-2.6c-2.1-0.8-4.4-1.9-4.6-5.6c0-0.8-0.2-2.7-3.9-3.3c-3.5,0.6-3.9,2.6-4,4.1
		c0,2.6-1,4.3-3.2,6c-3.6,2.7-5.5,6.7-5.4,10.9c0.2,4.2,2.4,8,6.2,10.3c1.7,1.1,3.7,1.8,5.8,2.5c0.8,0.3,1.7,0.6,2.5,0.9
		c1.3,0.5,5.3,2.1,4.1,6.5C148.2,344.4,146.2,346,143.6,346z"/>
	<path class="st0" d="M217.2,32.7c0,2.4,1.8,4.1,4.6,4.2c0.6,0,1.1,0,1.9,0c0.5,0,1.1,0,1.6,0c0.5,0,1,0,1.5,0h1l0.4,0.9
		c0.1,0.2,0.2,0.4,0.2,0.5c0.2,0.3,0.3,0.7,0.3,1.2c0,1.5,0,3,0.1,4.5c0,1.5,0,3,0.1,4.5c0,2.6,0.8,5.7,4.1,5.7l0.1,0
		c3.3-0.1,4-3.1,4-5.6c0-2.2,0-4.4,0-6.7c0-1.1,0-2.2,0-3.4v-1.5h1.5c0.8,0,1.5,0,2.1,0c0.6,0,1.1,0,1.6,0c0.7,0,1.3,0,1.9,0
		c2.7-0.1,4.4-1.7,4.4-4.1c0-2.4-1.7-4.1-4.3-4.1c-3.7-0.1-7.5-0.1-11.4-0.1c-3.6,0-7.5,0-11.4,0.1
		C219.1,28.7,217.3,30.4,217.2,32.7z"/>
	<path class="st0" d="M41.8,36.9c0.6,0,1.2,0,2,0c0.6,0,1.1,0,1.7,0c0.6,0,1.2,0,1.9,0h1.5v1.5c0,1.3,0,2.5,0,3.6c0,2.4,0,4.7,0,7
		c0,1.5,0.5,5.1,4.1,5.1c3.6,0,4.1-3.6,4.1-5.1c0.1-2.3,0-4.6,0-7c0-1.2,0-2.4,0-3.6v-1.5h1.5c0.7,0,1.4,0,2.1,0c0.6,0,1.1,0,1.6,0
		c0.7,0,1.3,0,1.9,0c2.7-0.1,4.4-1.7,4.5-4c0-1.1-0.3-2.1-1-2.9c-0.8-0.9-2.1-1.3-3.5-1.3c-3.7,0-7.5-0.1-11.2-0.1
		c-3.7,0-7.5,0-11.2,0.1c-1.4,0-2.7,0.5-3.5,1.3c-0.7,0.8-1.1,1.7-1,2.9C37.3,35.2,39,36.8,41.8,36.9z"/>
	<path class="st0" d="M142.9,28.6c-3.8,0-7.7,0-11.4,0.1c-2.5,0-4.3,1.7-4.3,4.1c0,2.3,1.7,3.9,4.4,4.1c0.6,0,1.2,0,2,0
		c0.6,0,1.1,0,1.7,0c0.6,0,1.3,0,2,0h1.5v1.5l0,2c0,1.3,0,2.5,0,3.7c0,0.5,0,1.1,0,1.6c0,1.2,0,2.4,0,3.6c0.1,1.4,0.6,4.8,4,4.9
		l0.1,0c2.4,0,4-1.9,4.1-5c0.1-2.3,0.1-4.7,0-7.2c0-1.2,0-2.3,0-3.6v-1.5h1.5c0.7,0,1.4,0,2.1,0c0.6,0,1.2,0,1.7,0
		c0.8,0,1.4,0,2-0.1c2.6-0.2,4.3-1.8,4.3-4.2c0-2.4-1.8-4-4.4-4C150.5,28.7,146.6,28.6,142.9,28.6L142.9,28.6l0-0.7c0,0,0,0,0,0
		L142.9,28.6z"/>
</g>
</svg>
