<?xml version="1.0" encoding="utf-8"?>
<!-- Generator: Adobe Illustrator 23.0.1, SVG Export Plug-In . SVG Version: 6.00 Build 0)  -->
<svg version="1.1" id="Layer_1" xmlns="http://www.w3.org/2000/svg" xmlns:xlink="http://www.w3.org/1999/xlink" x="0px" y="0px"
	 viewBox="0 0 381.1 326.9" style="enable-background:new 0 0 381.1 326.9;" xml:space="preserve">
<style type="text/css">
	.st0{fill:#9A9A9A;}
</style>
<g>
	<path class="st0" d="M213.1,220.8c-6.7,0-13.4,0-20.1,0c-16,0-32.6,0-48.9-0.1c-4.9,0-10.8-0.2-16.3-1.5
		c-19.7-4.6-35.2-18.7-41.6-37.7c-6.4-19.1-2.3-39.8,10.8-55.4c3.8-4.5,1.6-6.5,0.9-7.1c-0.9-0.8-1.8-1.2-2.7-1.1
		c-1.3,0.1-2.8,1.1-4.4,2.9c-8.4,9.9-13.5,21.2-15,33.6c-0.5,3.7-2.1,5-5.6,5c-13.5-0.1-27.2-0.1-40.5-0.1c-5.4,0-10.8,0-16.1,0
		c-0.8,0-1.6-0.1-2.4-0.1c-0.4,0-0.8-0.1-1.3-0.1L8.4,159l0.1-1.5c0.4-10.6,1.9-20.6,4.8-30.4c8.8-29.9,27.3-55.8,52-72.8
		c27.2-18.8,61.4-26.7,98.9-23l1.4,0.1v66.2l-8.6,0c-5.3,0-10.4,0-15.6,0c-9.1,0-17.3,1.5-25,4.7c-3.2,1.3-4.3,3.2-3.4,5.6
		c0.4,1.1,1.1,1.9,2,2.3c1.2,0.5,2.7,0.4,4.4-0.3c6.9-2.8,14.4-4.1,23-4.1c0.1,0,0.2,0,0.2,0c20.9,0.1,42.1,0,62.6,0l7.9,0
		c5.7,0,6.7-1,6.7-6.7c0-23.4,0-46.7,0-70.1c0-5.6-0.9-6.5-6.5-6.5c-24.1,0-48.2,0-72.4,0c-14.6,0-27.2,1.8-38.7,5.4
		c-51.7,16.3-84.8,51-98.4,103.4c-1.3,4.9-2,10.1-2.7,15.1c-0.3,2.3-0.7,4.7-1,7.1V173c0.1,0.2,0.1,0.4,0.2,0.6
		c0.2,0.6,0.4,1.3,0.5,2c2.6,28.9,13.5,54.9,32.4,77.3c4.3,5.1,9.2,9.7,14,14.3c1,1,2,1.9,3.1,2.9c0.9,0.9,2,1.3,3,1.3
		c1,0,2-0.5,2.8-1.4c1.6-1.7,1.5-3.9-0.2-5.7c-0.6-0.7-1.4-1.3-2.1-2c-0.3-0.2-0.5-0.5-0.8-0.7c-20.1-18.1-33.6-40-40.1-65.2
		c-1.5-6-2.5-12.2-3.5-18.2c-0.4-2.8-0.9-5.6-1.4-8.4l-0.3-1.5L9,168c0.6-0.1,1.1-0.2,1.5-0.2c0.7-0.1,1.1-0.2,1.6-0.2
		c5.7,0,11.4,0,17.2,0c13.7,0,27.8,0,41.7-0.1c4,0,4.5,2.9,4.7,4.8c3.6,27,24.1,49.5,50.1,54.7c7.4,1.5,15.3,1.6,22.9,1.8
		c3.4,0.1,7,0.1,10.4,0.3c1.1,0.1,2.2,0,3.3,0c0.5,0,1.1,0,1.6,0h1.5v66H164c-3.7,0-7.5,0.1-11.2,0.1c-8.1,0.1-16.5,0.3-24.7-0.3
		c-16.9-1.2-33.5-6.4-50.7-15.7c-1.2-0.6-2.3-1-3.2-1c-1.4,0-2.4,0.7-3.2,2.1c-0.6,1-0.7,2-0.5,3c0.3,1.2,1.3,2.2,2.8,3.1
		c20.2,11.1,39.7,16.7,59.6,17.3c19.7,0.5,39.7,0.5,59.1,0.5c7.3,0,14.6,0,21.8,0c0,0,0,0,0.1,0c2.3,0,3.7-0.4,4.5-1.2
		c0.8-0.8,1.2-2.4,1.2-4.9c0-22.8,0-45.6,0-68.5l0-2C219.7,221.7,218.9,220.8,213.1,220.8z M174.3,31.3h37v66.3h-37V31.3z
		 M211.3,295.6h-37v-66.3h37V295.6z"/>
	<path class="st0" d="M302.2,123.5c3.5,3.5,8.5,5.3,15,5.3c4.9,0,9.8,0,14.7,0l5.1,0h1.5c2.5,0,4.9,0,7.4,0c5.4,0,11,0.1,16.6-0.1
		c9.7-0.2,17.6-7.2,18.4-16.4c0.7-7.8-0.5-15.1-3.7-21.8C369,73,349.3,63.1,330.5,67.1c-20,4.3-33,20.4-33.4,41.2
		C297,114.9,298.7,120,302.2,123.5z M333.5,74.9c17.6-2.4,33.6,7.7,38,24.1c1,3.6,1.2,7.4,1.2,10.3c0.1,3.3-0.9,6.1-2.8,8.1
		c-1.9,2-4.7,3.1-8.1,3.1c-3.1,0-6.2,0.1-9.3,0.1c-2.3,0-4.7,0-7,0c-2.3,0-4.6,0-7,0l-5.9,0c-5.3,0-10.6,0-15.8,0
		c-7.8,0-11.4-3.7-11.4-11.6C305.4,91.5,317.2,77.1,333.5,74.9z"/>
	<path class="st0" d="M330.1,265.2c-19.9,4.4-32.9,20.9-32.9,41.9c0,12.3,7.2,19.6,19.4,19.7c5.1,0,10.1,0,15.2,0c1.8,0,3.6,0,5.4,0
		v0h1.5c2.5,0,4.9,0,7.4,0c5.4,0,11,0.1,16.6-0.1c9.7-0.2,17.6-7.3,18.4-16.5c0.7-7.8-0.6-15.2-3.7-21.8
		C368.9,270.8,349.1,261,330.1,265.2z M369.9,315.4c-2,2-4.9,3.1-8.4,3.2c-3,0-6.1,0-9.1,0c-2.3,0-4.6,0-6.9,0c-2.3,0-4.6,0-6.9,0
		l-6.6,0c-5.2,0-10.4,0-15.5,0c-7.3,0-11.1-3.8-11.1-11.1c-0.2-17.7,11.6-32.2,28-34.5c17.6-2.5,33.6,7.6,38.1,24
		c1,3.6,1.2,7.4,1.3,10.3C372.8,310.6,371.8,313.5,369.9,315.4z"/>
	<path class="st0" d="M338.8,55.5c0,0,0.1,0,0.1,0c7.4,0,14.4-2.9,19.7-8.1c5.2-5.2,8.1-12.1,8.1-19.5c0-7.4-2.9-14.4-8.1-19.7
		C353.3,2.9,346.4,0,339,0c0,0,0,0,0,0c-15.2,0-27.6,12.3-27.7,27.5c-0.1,7.5,2.8,14.5,8,19.8C324.5,52.5,331.4,55.4,338.8,55.5z
		 M325.3,13.9c3.7-3.7,8.7-5.7,13.8-5.7c10.6,0.1,19.3,8.9,19.3,19.5c0,5.2-2,10.1-5.7,13.8c-3.7,3.7-8.6,5.7-13.8,5.7
		c0,0-0.1,0-0.1,0c-10.6-0.1-19.3-8.8-19.3-19.4C319.5,22.6,321.6,17.6,325.3,13.9z"/>
	<path class="st0" d="M339,198c0,0-0.1,0-0.1,0c-15.2,0.1-27.6,12.5-27.6,27.6c0,7.4,2.8,14.4,8.1,19.7c5.2,5.3,12.2,8.1,19.6,8.2
		c0,0,0,0,0,0c7.4,0,14.4-2.9,19.7-8.1c5.2-5.2,8.1-12.2,8.1-19.6c0-7.4-2.9-14.4-8.2-19.6C353.2,200.9,346.3,198,339,198z
		 M352.8,239.5c-3.7,3.7-8.6,5.7-13.8,5.7c-0.1,0-0.1,0-0.2,0c-10.6-0.1-19.3-8.8-19.3-19.5c0-5.2,2.1-10.1,5.9-13.9
		c3.7-3.6,8.5-5.6,13.6-5.6c0.1,0,0.2,0,0.3,0c10.6,0.1,19.3,8.9,19.3,19.5C358.5,231,356.4,235.9,352.8,239.5z"/>
	<path class="st0" d="M238.6,31c13,0.1,25.9,0.1,38.2,0c1.9,0,3.3-0.5,4.2-1.5c0.7-0.7,1-1.7,1-2.8c-0.1-2.5-1.9-3.9-5.3-3.9
		c-4.4,0-8.8,0-13.1,0c-1.9,0-3.7,0-5.6,0l-5.7,0c-1.9,0-3.9,0-5.8,0c-2.5,0-5.1,0-7.6,0c-3.6,0-5.5,1.4-5.6,4c0,1.1,0.3,2.1,1,2.8
		C235.2,30.5,236.7,31,238.6,31z"/>
	<path class="st0" d="M277.5,295.9c-5.8,0-12-0.1-18.4-0.1c-6.9,0-14.1,0-21.2,0.1c-1.3,0-3.1,0.9-3.8,2c-0.8,1.1-1,2.3-0.4,3.5
		c0.7,1.5,2.4,2.5,4.3,2.5c4.6,0.2,9.3,0.1,13.8,0.1c3.9,0,7.9,0,11.8,0c4.6,0,9.3,0,13.9-0.1c1.5,0,2.7-0.5,3.5-1.4
		c0.7-0.7,1-1.7,1-2.8C281.9,297.4,280.2,295.9,277.5,295.9z"/>
	<path class="st0" d="M269.5,97.9c-3.3-0.1-6.8,0-10.1,0c-1.5,0-3,0-4.5,0c-1.5,0-3,0-4.4,0c-1.5,0-3.1,0-4.6,0c-2,0-3.9,0-5.9,0
		c-2.3,0-5.1,0.7-5.2,4c0,1.1,0.3,2.1,1,2.8c0.9,0.9,2.2,1.4,3.9,1.4c10.1,0.1,20.1,0.1,29.9,0c1.6,0,3-0.5,3.9-1.4
		c0.7-0.7,1-1.7,1-2.9C274.3,98.4,271.3,97.9,269.5,97.9z"/>
	<path class="st0" d="M269.2,229c1.9,0,3.4-0.6,4.3-1.5c0.7-0.7,1-1.6,0.9-2.8c-0.1-3.2-2.9-3.9-5.3-3.9c-4.9,0-9.8,0-14.6,0
		c-4.9,0-9.8,0-14.6,0c-2.3,0-5.1,0.7-5.2,3.9c0,1.1,0.3,2.1,0.9,2.8c0.9,0.9,2.4,1.5,4.4,1.5c3.4,0.1,6.8,0.1,10.2,0
		c1.5,0,3,0,4.5,0c1.5,0,2.9,0,4.4,0C262.4,229.1,265.9,229.1,269.2,229z"/>
	<path class="st0" d="M295.6,258.3c-7.5-0.1-14.7-0.1-21.7,0c-1.7,0-3,0.4-3.8,1.1c-0.8,0.7-1.1,1.7-1.1,2.9c0,3.2,2.6,4,4.7,4.1
		c2.5,0.1,5.1,0.1,7.6,0.1c1.1,0,2.2,0,3.3,0c0.1,0,0.2,0,0.2,0c1.1,0,2.1,0,3.2,0c2.5,0,5.1,0,7.6,0c1.5-0.1,5.1-0.6,5.1-4.2
		C300.7,258.9,297.5,258.4,295.6,258.3z"/>
	<path class="st0" d="M276.5,64.2c-0.1,1.2,0.2,2.2,0.9,2.9c0.7,0.8,1.8,1.3,3.1,1.3c5.3,0.2,10.8,0.2,16.3,0c2.4-0.1,4-1.7,4-4
		c0-2.4-1.7-3.9-4.4-4c-1.8-0.1-3.6-0.1-5.4,0c-0.9,0-1.7,0-2.6,0c-0.8,0-1.5,0-2.3,0c-0.8,0-1.5,0-2.3,0c-1,0-2,0-3,0
		C278.1,60.4,276.7,61.7,276.5,64.2z"/>
	<path class="st0" d="M246.7,68.5c0.7,0,1.5,0,2.2,0h1.5v0.1h0.2c1.7,0,3.4,0,5,0c0.3,0,0.6,0,0.9-0.1c1.5-0.2,4-1.1,3.9-4.2
		c-0.1-2.4-1.6-3.8-4.1-3.9c-4.7-0.1-9.6-0.1-14.5,0c-2.5,0.1-4.1,1.6-4.2,3.9c-0.1,2.3,1.6,4,4.2,4.2
		C243.5,68.6,245.1,68.6,246.7,68.5z"/>
	<path class="st0" d="M249.1,258.4c-1.1,0-2.3-0.1-3.5-0.1c-1.4,0-2.9,0.1-4.4,0.2c-2.5,0.3-3.2,2.1-3.3,3.6
		c-0.1,2.2,0.9,3.6,3.1,4.1c1,0.2,2,0.3,3,0.3c0.4,0,0.8,0,1.1,0.1c0.5,0,1.1,0,1.5-0.1c1,0,1.9-0.1,2.7-0.2c2.5-0.4,3.9-2,3.7-4.3
		C252.8,259.7,251.5,258.5,249.1,258.4z"/>
</g>
</svg>
