<?xml version="1.0" encoding="utf-8"?>
<!-- Generator: Adobe Illustrator 23.0.1, SVG Export Plug-In . SVG Version: 6.00 Build 0)  -->
<svg version="1.1" id="Layer_1" xmlns="http://www.w3.org/2000/svg" xmlns:xlink="http://www.w3.org/1999/xlink" x="0px" y="0px"
	 viewBox="0 0 366.3 381" style="enable-background:new 0 0 366.3 381;" xml:space="preserve">
<style type="text/css">
	.st0{fill:#9A9A9A;}
</style>
<g>
	<path class="st0" d="M290.6,226.4c-11.7-4.5-23.3-8.9-34.4-13.1l-1.2-0.5c-8.8-3.3-18.1-6.9-27.3-10.4c-0.9-0.3-1.9-0.6-3-1
		c-3-0.9-6.1-1.8-7.7-4.1c-1.7-2.5-1.3-6.1-1-9.6c0.1-0.9,0.2-1.6,0.2-2.3c0.1-2.1,1.3-4.4,2.7-5.6c9.9-8.4,16.4-18.6,19.3-30.3
		c0.8-3.3,1.2-6.6,1.7-10.3l0-0.1c0.2-1.6,0.4-3.3,0.7-4.9l0.2-1.3l0.5,0c0,0,1.7,0,2.2,0c0.5,0,1,0,1.5,0c0.6,0,1.2,0,1.7,0
		c10.9-0.4,19.9-7.5,22.4-17.6c2.7-10.8-1.9-21.2-11.8-26.5c-2.4-1.3-3.3-2.9-3.3-5.7c0.1-12.6,0.1-25,0-37.1
		c-0.1-12.1-8.3-21-20-21.7c-6.5-0.4-7.2-0.9-8.9-7.1c-2.7-9.9-9-15.5-18.6-16.6c-5.1-0.6-10.3-0.6-15.4-0.6c-1.5,0-3.1,0-4.7,0
		l-0.2,0c-1.8,0-3.2,0.5-4.1,1.3c-0.7,0.7-1,1.7-1,2.9c0.1,3.3,2.8,4,5.2,4c2,0,3.9,0,5.9,0c1.1,0,2.3,0,3.4,0c2.8,0,4.9,0,6.8,0.1
		c8.5,0.4,12.9,3.9,14.9,11.7c2.2,8.8,6.4,12.2,15.5,12.5c7.5,0.3,12.7,5.3,12.8,12.5c0.2,14.3,0.1,28.6,0,42c0,4.6-3.2,7.2-8,6.4
		c-6.9-1.1-11.9-6.3-12.9-13.7c-0.2-1.1-0.7-3.7-2.1-5.1c-0.9-0.9-1.9-1.4-2.9-1.4c-1.8,0-3.8,1.4-5.2,3.7
		c-6.6,10.8-16.2,16.4-28.5,16.5c-8.2,0.1-16.9,0.1-27.3,0.1c-8.4,0-17,0-24.7-0.1l-10.6,0c-7.8,0-12.5-4.7-12.5-12.4l0-3.5
		c0-12.1-0.1-24.7,0-37c0.2-15.9,11.5-29.3,26.9-31.7c4.2-0.7,8.4-0.7,12.6-0.7l2.6,0c1.5,0,3.1,0,4.8-0.1c3.3-0.1,5.1-1.6,5.2-4.1
		c0-2.6-1.8-4.1-5-4.2c-1.8,0-3.7,0-6,0c-2,0-4.1,0-6.1,0l-1,0c-24.4,0.1-42.2,17.9-42.3,42.4c0,11.3,0,23.3,0,38.6
		c0,2,0.1,3.9,0.6,5.5c1,3.1,0,5-1.8,7c-6.7,7.3-8.3,15.9-4.6,24.8c3.8,9.2,10.9,14.1,21,14.6c0.5,0,1.1,0,1.8,0c0.5,0,1,0,1.7,0
		c0.6,0,1.2,0,1.9,0h1.4l0.2,3.5c0.1,1.3,0.2,2.4,0.2,3.5c1.1,14.8,6.5,26.6,16.2,35.1c5.9,5.2,8.1,10.6,7.5,18.6
		c-0.2,3.1-1.4,4.7-4.3,5.8c-7.7,3-15.4,6-22.8,9l-0.3,0.1c-14.3,5.7-29.2,11.6-43.9,16.9c-17.5,6.2-36.1,25.3-35.6,52.5
		c0.5,31.1,0.3,62,0,85.5c-0.1,9.4,3.3,14.8,10.9,17.5l260.5,0l0,0c7.4-2.9,10.8-7.4,10.8-14.2c0-9.1,0-18.2,0-27.2v0
		c0-21.4,0.1-43.5-0.1-65.3C323.9,253.2,310.5,234,290.6,226.4z M231.9,114.9c0.1,9.2,0.2,18.8-0.9,28.1c-2.6,23.3-23.2,41-47.9,41
		c-0.7,0-1.3,0-2,0c-25.9-1-46.3-20.3-47.6-45c-0.4-8-0.3-15.8-0.2-24.1c0-3.7,0.1-7.5,0.1-11.4V102h7.3c3.9,0,7.8,0,11.7-0.1l0.3,0
		c3.9,0,8-0.1,11.9-0.1c5.8,0,10.7,0.1,15.2,0.2c0.8,0,1.6,0,2.4,0c14.4,0,25.3-4.1,33.4-12.6l1-1l4.4,3.6c3.2,2.7,6.3,5.2,9.4,7.8
		c0.9,0.8,1.5,2.1,1.5,3.3C231.8,107.2,231.8,111.3,231.9,114.9z M198.1,321.8c0.9,7.7,1.8,15.4,2.7,23.1l3.2,27.7h-42.7l1-8.8
		c0.6-5.6,1.2-10.3,1.7-15.2c1-8.4,2-16.8,3-25.3l0-0.2c2.1-18,4.3-36.6,6.4-54.9l0.1-0.6c1-8.5,1.2-10.8,10-10.8c0.8,0,1.7,0,2.6,0
		l0.9,0l3.5,0l1.1,9.1c0.5,3.7,0.9,7.4,1.3,11.2c0.2,1.9,0.4,3.9,0.7,5.9l0,0.2c0.4,3.4,0.8,6.9,1.2,10.3c0.3,1.9,1.1,5,4.1,5
		c0.2,0,0.4,0,0.7,0c3.5-0.5,3.6-4,3.4-6c-0.4-3.5-0.8-7.2-1.2-10.1c-1.1-8.7-2.2-17.6-2.7-26.5c-0.2-3,1.2-5.9,2.5-8.7
		c0.5-1.1,1-2.2,1.4-3.3c0.4-1.1,1.8-1.5,2.6-1.5c0.1,0,0.2,0,0.3,0c0.3,0,0.7,0.1,1.1,0.1c3.6,0,6.2-2.3,9-4.7l0.9-0.8
		c1.8-1.5,3.6-3,5.5-4.5l6.6-5.4l-17.1,110.3l-0.1,0.5l-3.4,0l-0.7-6.1c-0.4-3.5-0.8-7.2-1.3-10.8c-0.4-2.8-2-4.7-4.1-4.7
		c-0.6,0-1.2,0.2-1.9,0.5C198.4,317.6,197.8,319.2,198.1,321.8z M140.6,230.5c1.3,1,2.4,2.1,3.6,3.1l0,0c2.5,2.2,4.7,4,7,5.6
		c1.3,0.9,3,1.4,4.7,2c1,0.3,2.1,0.7,3.1,1.2c1.2,0.5,2.8,1.2,3.7,2.6c3,4.9,4,9.9,3.2,15.9c-2.3,17.5-4.3,35.4-6.3,52.7l-0.1,0.6
		c-0.7,6.3-1.4,12.5-2.2,18.8l-0.1,1.2l-3.2,0.3L137.6,228L140.6,230.5z M193.9,243.8c-1.7,3-3.5,4.9-6.9,4.9c-0.4,0-0.9,0-1.4-0.1
		c-0.3,0-0.6-0.1-1.1-0.1c-0.3,0-0.6,0-1,0l-0.1,0c-0.5,0-1,0-1.7,0l0,0c-1,0.3-2,0.5-2.9,0.5c-5.2,0-7.5-4.5-9-8.5
		c-1.4-3.6-1.7-6.6,1.2-9.6c0,0,0.1-0.1,0.1-0.1l0,0c2.3-6.6,7.3-7.5,11.4-7.5c1.2,0,2.4,0.1,3.6,0.1l1.2,0.1
		c1.4,0.1,2.5,1.2,3.1,1.8c0.5,0.5,0.8,1.1,1.2,1.7c0.3,0.5,0.6,1,0.9,1.3C196.8,232.9,197.3,237.8,193.9,243.8z M202,204.6
		c-1.6,0.9-3.9,2.5-5.6,4.6c-4.2,5.4-9.5,6.1-14.1,6.1c-1.7,0-3.4-0.1-5-0.2c-1.3-0.1-2.6-0.9-3.4-1.6c-1.4-1.2-2.8-2.4-4.2-3.6
		l-0.1-0.1c-2.5-2.1-5.1-4.4-7.7-6.3c-4-3-5.6-6.3-4.8-10.5c0.1-0.7,0.1-1.5,0.1-2.5c0-0.6,0-1.1,0-1.7v-2.2l2,0.8
		c8.2,3.1,16.3,4.7,24.1,4.7c7.5,0,15-1.5,22.2-4.4l1.6-0.7l0.4,1.7C208.6,194.1,209,200.6,202,204.6z M206.6,234.6l-10-14.8
		l4.4-3.7c3.4-2.8,7.3-6.1,11-9.1c0.7-0.6,1.7-0.7,2.2-0.7c0.6,0,1.1,0.1,1.6,0.3c3.4,1.2,6.8,2.6,10.4,4l6.3,2.5L206.6,234.6z
		 M150.4,206.4c1.1,0,2.2,0.4,3,1c3.5,2.8,6.9,5.7,10.6,8.7l4.6,3.8l-10,14.8L132.7,213l2.3-0.9c1.2-0.5,3.3-1.3,4.1-1.6l0.3-0.1
		c3.6-1.4,6.8-2.7,9.9-3.8C149.6,206.4,150,206.4,150.4,206.4z M315.9,365.9c0,5.5-3,6.7-5.4,6.8c-3.8,0.1-7.8,0.1-12.7,0.1
		c-2.3,0-4.6,0-6.9,0l-1.2,0c-2.8,0-5.6,0-8.4,0h-1.5v-29.6c0-22.9,0-46.6,0-69.9c0-1.6,0-3.1-0.4-4.4c-0.5-1.8-1.7-2.7-3.6-2.7
		c-0.2,0-0.4,0-0.6,0c-2.2,0.2-3.3,1.3-3.6,3.5c-0.1,0.8-0.1,1.8-0.1,2.6c0,0.3,0,0.6,0,0.9c0,25.9,0,98.6,0,98.6v0.6h-56.9
		l24.2-156.2l0.1-0.8l16.8,6.4c7,2.7,14,5.3,20.9,8c2.5,1,5,1.9,7.6,2.9l3.3,1.3c16.9,6.5,28.3,22.7,28.4,40.4
		c0.1,19.8,0.1,39.8,0.1,59.2v0.3C315.9,344.4,315.9,355.3,315.9,365.9z M50.2,277.8c-0.3-19.8,12.6-38.6,30.7-44.7
		c9.5-3.2,19-7,28.2-10.8l0.1-0.1c4.1-1.6,8.3-3.3,12.4-5c0.8-0.3,1.5-0.6,2.4-0.9l3.2-1.2l24.3,156.7l0.1,0.7H94.8v-5.9
		c0,0,0-66.7,0-93.3c0-0.5,0-1,0.1-1.4c0.1-0.9,0.1-1.6,0-1.8c-0.5-0.8-2.2-3.3-3.9-3.9c-0.3-0.1-0.7-0.2-1-0.2
		c-1.3,0-2.4,1-2.9,2.6c-0.4,1.3-0.5,2.8-0.5,4.3c0,25.8,0,52,0,77.3l0,22.4l-17.6,0c-5.1,0-9.2,0-12.9,0c-3.4,0-5.6-2.2-5.7-5.7
		c0-0.6,0-1.2,0-1.8l0-0.5c0-8.5,0-17.1,0.1-25.5l0-0.6C50.5,318.7,50.5,298.1,50.2,277.8z M240.3,124.2v-20.8l12.4-7l0.3-0.1
		l0.7,0.2c6,2.2,9.4,9.7,7.6,16.7c-1.9,7.4-7.5,11.5-15.7,11.5c-1.2,0-2.5-0.1-3.8-0.3L240.3,124.2z M124.8,103.2V124l-1.2,0.2
		c-1.5,0.3-2.9,0.4-4.3,0.4c-6.7,0-11.8-3.1-14.5-8.7c-2.8-6.1-1.5-13,3.5-17.3l0.6-0.5L124.8,103.2z"/>
	<path class="st0" d="M35.7,178.5L35.7,178.5L35.7,178.5L35.7,178.5c-0.4-0.4-0.8-0.8-1.1-1.2c-16.7-18.4-25.5-40.1-26.2-64.4
		C7.6,85,17,60.5,36.4,40c0.8-0.8,1.7-1.8,2-2.8c0.7-2.1,0.1-3.7-1.7-4.7c-0.8-0.4-1.5-0.7-2.2-0.7c-1.2,0-2.4,0.7-3.7,2
		C11.4,54.1,0.4,79.4,0,105c0,24.1,4.5,42.2,14.7,58.8c3.9,6.4,8.8,12.3,13.6,18.1l0.1,0.2c1.1,1.3,2.1,2.6,3.2,3.8
		c0.8,1,1.9,1.6,2.9,1.6c1,0,2-0.4,2.9-1.2c1.7-1.6,1.7-3.9,0-6C36.8,179.6,36.3,179.1,35.7,178.5z"/>
	<path class="st0" d="M336.6,35.1c-2.1-2.2-3.8-3.3-5.2-3.3c-0.8,0-1.7,0.4-2.5,1.2c-1.7,1.6-2,3.6,1.9,7.9
		c25.5,28.4,33.1,61.4,22.8,98.1c-4.1,14.5-12,28-23.5,40c-2.6,2.7-3,5-1.4,6.9c0.9,1,1.8,1.5,2.8,1.5c1.3,0,2.8-0.8,4.3-2.4
		c19.8-20.8,30.1-46.2,30.6-75.5C365.8,80.6,355.8,55.6,336.6,35.1z"/>
	<path class="st0" d="M51.8,167.9c1.5,1.6,2.8,2.3,4.1,2.3c0.7,0,1.5-0.3,2.2-0.8c1-0.7,1.6-1.6,1.7-2.6c0.1-1.4-0.6-3.1-2.2-4.8
		C29.4,131.7,29.4,87.5,57.7,57c3.3-3.6,2.2-5.5,0.9-6.8c-0.8-0.8-1.7-1.3-2.6-1.3c-1.3,0-2.7,0.8-4.3,2.5
		c-15.2,16-23.1,35.5-23.4,58C28.5,132.1,36.4,151.8,51.8,167.9z"/>
	<path class="st0" d="M308.7,57.2L308.7,57.2c0.3,0.3,0.5,0.6,0.8,0.9c19.3,22,24.8,47.3,16.4,75.4c-3.2,10.6-9,20.1-17.6,29.2
		c-1.4,1.5-2,3.3-1.6,4.8c0.3,1.3,1.3,2.2,2.7,2.7c0.4,0.1,0.9,0.2,1.2,0.2c1.2,0,2.3-0.7,3.8-2.2c15.8-16.6,23.3-36.1,23.7-61.3
		c-0.1-0.8-0.2-1.8-0.3-3l0-0.1c-0.3-3.2-0.8-7.6-1.6-11.8c-3.3-15.8-10.7-29.6-22.2-41.2c-1.2-1.2-2.4-1.8-3.5-1.8
		c-0.9,0-1.8,0.4-2.7,1.2c-1.8,1.7-1.7,4,0.3,6.3C308.2,56.6,308.4,56.9,308.7,57.2z"/>
	<path class="st0" d="M288.6,143.7c-0.2,0.3-0.5,0.5-0.7,0.8l-0.4,0.4c-3.4,3.8-2.5,5.6-1.1,7.1c0.8,0.8,1.7,1.2,2.5,1.2
		c1.4,0,3-0.9,4.7-2.7c10.6-11.5,15.8-25.1,16.2-43.1c-0.1-0.8-0.3-1.8-0.4-3c-0.4-3.1-1-6.9-1.9-10.7c-2.5-9.8-7.6-18.5-14.9-25.9
		c-1.1-1.1-2.2-1.6-3.3-1.6c-0.9,0-1.8,0.4-2.6,1.1c-2.6,2.3-1,4.9,0.1,6.2c0.1,0.1,0.2,0.3,0.4,0.4c0.1,0.1,0.3,0.3,0.4,0.4
		c11,12.1,15.5,26.3,13.5,42.2C299.7,126.5,295.5,135.7,288.6,143.7z"/>
	<path class="st0" d="M56.7,113.7L56.7,113.7c0.3,2.5,0.6,5.5,1.2,8.6c2.3,10.9,7.4,20.6,15.2,28.7c1.4,1.4,2.8,2.2,4.1,2.2
		c0.9,0,1.8-0.4,2.6-1.2c1.3-1.3,2.4-3.2-0.8-6.8c-0.1-0.1-0.2-0.2-0.3-0.3c-0.2-0.2-0.3-0.3-0.5-0.5
		c-10.4-11.9-14.7-25.6-12.9-40.9c1.3-11,6-21,13.9-29.5c1.5-1.6,2.1-3.4,1.8-4.9c-0.3-1.2-1.2-2.1-2.7-2.6
		c-0.5-0.2-0.9-0.3-1.4-0.3c-1.2,0-2.3,0.6-3.7,2.1c-11,11.6-16.3,25.2-16.8,43C56.5,111.9,56.6,112.7,56.7,113.7z"/>
</g>
</svg>
