<?xml version="1.0" encoding="utf-8"?>
<!-- Generator: Adobe Illustrator 23.0.1, SVG Export Plug-In . SVG Version: 6.00 Build 0)  -->
<svg version="1.1" id="Layer_1" xmlns="http://www.w3.org/2000/svg" xmlns:xlink="http://www.w3.org/1999/xlink" x="0px" y="0px"
	 viewBox="0 0 489 505" style="enable-background:new 0 0 489 505;" xml:space="preserve">
<style type="text/css">
	.st0{fill:#9A9A9A;}
</style>
<g>
	<path class="st0" d="M473.7,497c-2,0-4.2,0-6.3-0.6c-1.5-0.4-2.6-1.8-2.6-3.4v-61.7c0-82.5,0-165,0-247.5c0-6.7-0.8-7.5-7.5-7.5
		c-7.1,0-14.2,0-21.3,0l-9.2,0l-12.5,0c-10.2,0-20.3,0-30.5,0c-6.3,0-7.1,0.8-7.1,7.3l0,2.7c0,3,0,6.1,0,9.2
		c0.1,4.5,2.7,4.7,3.7,4.7c1,0,3.9,0.2,4.2-4.6c0.1-1.6,0.1-3.2,0.1-5c0-0.8,0-1.7,0-2.5c0-1.9,1.6-3.5,3.5-3.5h64.9
		c1.9,0,3.5,1.6,3.5,3.5v305.2c0,1.9-1.6,3.5-3.5,3.5h-64.9c-1.9,0-3.5-1.6-3.5-3.5v-35.6c0-74.7,0-149.4,0-224.1c0-2,0-4.2-0.5-6.1
		c-0.5-2-1.6-2.8-3.7-2.7c-2.3,0.1-3.4,1.1-3.6,3.5c-0.2,1.3-0.1,2.7-0.1,4.2c0,0.4,0,0.9,0,1.3c0,84.3,0,168.7,0,253v6.4
		c0,1.9-1.6,3.5-3.5,3.5h-25.1c-1.9,0-3.5-1.6-3.5-3.5v-59c0-56.6,0-113.2,0-169.8c0-7.1-0.7-7.8-7.7-7.8c-12.5,0-24.9,0-37.4,0
		l-15.6,0l-5.8,0c-4.4,0-8.8,0-13.2,0c-8.3,0-8.6,0.3-8.6,8.4c0,0.9,0,1.8,0,2.7l0,1.3l0,224.4c0,1.9-1.6,3.5-3.5,3.5h-25.1
		c-1.9,0-3.5-1.6-3.5-3.5l0-41.9c0-35.7,0-71.5,0-107.2c0-6.9-0.5-7.4-7.4-7.4c-23.2,0-46.5,0-69.7,0l-2.8,0c-7.9,0-8.3,0.4-8.3,8.6
		l0,104.1l0,43.6c0,1.9-1.6,3.5-3.5,3.5h-25.1c-1.9,0-3.5-1.6-3.5-3.5c0-2.4,0-4.8,0-7.2c0-5.6,0-10.8,0-16.1c0-1.7-0.5-4.6-3.7-4.7
		c-2.9-0.2-4.1,2.3-4.2,4.6c-0.2,2.3-0.1,4.6-0.1,7.1c0,1.1,0,2.1,0,3.2c0,3.1,0,6.2,0,9.3l0,3.8c0,1.9-1.6,3.5-3.5,3.5H27.7
		c-1.9,0-3.5-1.6-3.5-3.5v-64.4c0-1.9,1.6-3.5,3.5-3.5h64.9c1.9,0,3.5,1.6,3.5,3.5c0,1,0,1.9,0,2.8c0,1.8-0.1,3.5,0.1,5
		c0.2,1.5,0.8,2.8,1.8,3.6c0.5,0.4,1.2,0.8,2.2,0.7c2.7-0.3,3.8-1.6,3.9-4.4c0.1-4.3,0.1-8.6,0-12.9c0-5.9-0.8-6.6-6.7-6.7
		c-24.8,0-49.7,0-74.5,0c-6.1,0-6.9,0.8-6.9,6.9c0,15.3,0,30.5,0,45.8l0,23.8c0,1.9-1.6,3.5-3.5,3.5c-0.7,0-1.4,0-2,0
		c-1.3,0-2.4,0-3.6,0c-4.6-0.2-5.7,0.8-6.5,2.8c-0.7,1.8-0.5,2.9,2.4,5.3h475.5c2.4-2.1,3-3,2.5-4.6
		C479.8,497.3,478.6,497,473.7,497z M216,493.3c0,1.9-1.6,3.5-3.5,3.5H148c-1.9,0-3.5-1.6-3.5-3.5V348.6c0-1.9,1.6-3.5,3.5-3.5h64.5
		c1.9,0,3.5,1.6,3.5,3.5V493.3z M336.4,493.1c0,1.9-1.6,3.5-3.5,3.5h-64.5c-1.9,0-3.5-1.6-3.5-3.5V268.3c0-1.9,1.6-3.5,3.5-3.5h64.5
		c1.9,0,3.5,1.6,3.5,3.5V493.1z"/>
	<path class="st0" d="M379.8,63c2.4,0.8,5.2,2.9,5.9,5.6c3.9,13.6,12.4,22.3,26.1,26.5c2,0.6,4.9,2.8,4.9,5.7
		c0.1,10.7,0.1,21.2,0.1,32.3l0,7.7c0,1.9-1.6,3.5-3.5,3.5c-1.8,0-3.6,0-5.3,0c-1.6,0-3.2,0-4.8,0c-2,0-4.1,0-6,0.2
		c-1.6,0.1-4.3,0.8-4.3,4.1c0.1,2.3,1.5,3.7,4,3.7c16.5,0.1,33.2,0.1,47.9,0c2.1,0,3.2-0.9,3.8-3.1c0.3-1.1,0.1-2-0.5-2.8
		c-0.8-1.1-2.4-1.8-4.3-1.9c-3.4-0.2-6.8-0.1-10.4-0.1c-1.6,0-3.2,0-4.8,0c-1.9,0-3.5-1.6-3.5-3.5V99c0-1.6,1.1-3,2.6-3.4
		c13-3.3,21.7-10.4,25.8-21.1c2.6-6.9,6.4-10.8,13.3-13.7c15.5-6.5,22.7-18.9,22.1-38c-0.2-5.9-1.1-6.8-6.8-6.8c-4.9,0-9.8,0-14.8,0
		l-6.8,0c-1.9,0-3.4-1.5-3.5-3.3c-0.1-1.2-0.1-2.3-0.1-3.4c0-4.7-0.1-7.4-2.6-9.2h-67.1c-2.3,1.4-2.5,3.4-2.6,7.8
		c0,1.7,0,3.4-0.3,5.2c-0.3,1.7-1.7,3-3.5,3h-11.4c0,0,0,0,0,0c-1.2,0-2.3,0-3.5,0c-2.6,0-5.3,0-7.9,0c-4.5,0.1-5.1,1.8-5.4,3.9
		C350.2,40.3,360.5,56.7,379.8,63z M457.1,27.8c0-1.9,1.6-3.5,3.5-3.5h16.6c1.9,0,3.5,1.5,3.5,3.5c0.2,12.7-8.2,24-19.4,26.3
		c-0.2,0-0.5,0.1-0.7,0.1c-0.8,0-1.6-0.3-2.2-0.8c-0.8-0.7-1.3-1.7-1.3-2.7V27.8z M392.8,25c0-3.7,0-7.4,0-11.2c0-0.7,0.1-1.4,0.2-2
		c0-0.2,0.1-0.4,0.1-0.6c0.3-1.7,1.7-3,3.5-3h48.7c1.9,0,3.5,1.6,3.5,3.5v4.8c0,4.4,0,8.8,0,13.2c0,10,0.1,20.2-0.1,30.4
		c-0.2,13.5-9.1,24.6-22.1,27.5c-2,0.4-4,0.7-6,0.7c-10.5,0-20.4-6.1-25-15.9c-1.7-3.6-2.7-7.7-2.7-11.5
		C392.8,48.9,392.8,36.7,392.8,25z M361.1,27.6c0.1-1.9,1.6-3.3,3.5-3.3H381c1.9,0,3.5,1.6,3.5,3.5v22.9c0,1.1-0.5,2.1-1.3,2.7
		c-0.6,0.5-1.4,0.8-2.2,0.8c-0.2,0-0.5,0-0.7-0.1C368.9,51.7,360.5,40,361.1,27.6z"/>
	<path class="st0" d="M25.9,335.5l305-203.4c1.1-0.7,2.1-1.4,3.5-2.3l2.4-1.6c1.3-0.8,3-0.7,4.2,0.3c1.2,1,1.6,2.7,0.9,4.1
		c-0.4,0.9-0.7,1.6-1,2.3c-0.6,1.3-1,2.3-1.5,3.3c-1.3,2.6-2.7,5.2-4,7.9c-2.9,5.7-6,11.6-8.8,17.4c-1.1,2.3-1.3,3.7-1.3,4.1
		c0.7,1.4,2.5,3,4,3.4c0.7,0.2,1.9,0.6,3.9-3.3c3.3-6.5,6.6-12.9,10-19.4c5.8-11.4,11.9-23.2,17.8-34.8c1.3-2.5,1.6-4.7,0.8-5.9
		c-0.7-1.1-2.7-1.7-5.5-1.6c-11.2,0.5-22.7,1.2-33.7,1.9c-3.4,0.2-6.8,0.4-10.1,0.6l-2.6,0.2c-5.3,0.3-10.8,0.6-16.2,1.1
		c-2.4,0.2-3.5,1.4-3.6,4c-0.1,1.9,1.6,3.5,4.1,3.7c0.7,0.1,1.5,0,2.4-0.1c0.4,0,0.8-0.1,1.1-0.1c7.4-0.4,14.8-0.8,22.2-1.2l7.5-0.4
		c0.1,0,0.1,0,0.2,0c1.5,0,2.9,1,3.3,2.4l0.3,0.9c0.5,1.5-0.1,3-1.3,3.9c-0.5,0.3-1,0.7-1.5,1.1c-1.1,0.8-2.2,1.6-3.3,2.3
		C249.2,177,173.3,227.7,97.3,278.3l-75.9,50.6c-4.3,2.9-5.2,4.7-5.4,5.5c0,0.3-0.2,1,0.7,2.3C17.6,337.9,19.1,340.1,25.9,335.5z"/>
</g>
</svg>
