<?xml version="1.0" encoding="utf-8"?>
<!-- Generator: Adobe Illustrator 23.0.1, SVG Export Plug-In . SVG Version: 6.00 Build 0)  -->
<svg version="1.1" id="Layer_1" xmlns="http://www.w3.org/2000/svg" xmlns:xlink="http://www.w3.org/1999/xlink" x="0px" y="0px"
	 viewBox="0 0 381.1 381.1" style="enable-background:new 0 0 381.1 381.1;" xml:space="preserve">
<style type="text/css">
	.st0{fill:#9A9A9A;}
</style>
<g>
	<path class="st0" d="M311.3,101.2c-5.9-35.6-27.7-66.5-60-84.8C218.8-2.1,180.7-5.1,146.8,8.2c-48.7,19-79,63.4-79.2,115.7
		c-0.1,48.9-0.1,97,0,133.5c0,5.3,0.4,11,1.2,17.4c6.4,49.9,43.5,91.2,92.4,102.8c4.6,1.1,9.3,1.8,13.9,2.6c2.1,0.3,4.3,0.7,6.4,1.1
		H200c0.2-0.1,0.4-0.1,0.5-0.2c0.6-0.2,1.3-0.4,2-0.5c19.1-1.8,37.2-8.1,54-18.7l0.5-0.3c1.3-0.8,2.5-1.6,3.6-2.5
		c1.9-1.7,2.1-3.4,0.8-5.4c-1.3-1.9-3.1-2.3-5.4-1.2c-0.6,0.3-1.1,0.7-1.7,1.1c-0.3,0.2-0.7,0.5-1,0.7
		c-35.8,22.3-72.3,25.3-108.7,8.9c-22.2-10-39.3-24.1-50.8-42c-11.4-17.7-17.4-39.1-17.9-63.6c-0.6-35.5-0.4-71.7-0.2-106.7
		c0.1-8.9,0.1-17.9,0.1-26.8c0-6.9,0.7-14.4,2.1-22.2c5-29,22.3-55.5,47.4-72.9C150.8,11.3,182,4.5,211,10.2
		c55.1,10.7,93.8,57.3,94.1,113.2c0.2,44.7,0.1,90.2,0,134.2l0,0.4c-0.1,22.7-6.2,43.7-18.4,62.5c-1.8,2.8-3.8,5.4-5.8,8
		c-1.3,1.6-2.6,3.3-3.8,5c-1.5,2.1-1.3,4.1,0.5,5.7c1.7,1.4,4,1.2,5.8-0.5c0.3-0.3,0.7-0.7,1-1.2l0.3-0.4
		c18.9-22.9,28.6-49.8,28.6-79.9c0.1-52.3,0.1-94.6-0.1-133.1C313.3,116.9,312.6,109.2,311.3,101.2z"/>
	<path class="st0" d="M24.7,149c1.5-1.6,2.2-3,2.1-4.2c0-0.9-0.6-1.8-1.6-2.7c-1.3-1.2-3.3-2.1-6.6,1.4c-8,8.5-13.6,18.5-16.4,29.8
		c-0.6,2.3-1.1,4.6-1.5,6.9c-0.2,1-0.4,2-0.6,3.1v13.9c0.1,0.3,0.1,0.6,0.2,1c0.2,0.8,0.4,1.7,0.5,2.5c2.3,14.4,8.5,26.9,18.3,37.2
		c1.4,1.5,2.7,2.2,3.9,2.2c0.9,0,1.8-0.4,2.7-1.3c1.4-1.4,2.4-3.2-0.7-6.7C2.8,208.1,2.7,173.1,24.7,149z"/>
	<path class="st0" d="M157.8,84c-0.2-0.9-0.8-1.7-1.8-2.4c-0.6-0.4-1.4-0.8-2.2-0.8c-1.2,0-2.6,0.7-4.1,3
		c-5.8,8.4-8.7,18.1-8.7,28.8c0,14.1,0,28.2,0,42.4c0,16.6,0,33.3,0,49.9c0,2.6,0.2,5.3,0.7,8.4c3.5,24,26.6,43,50.6,41.6
		c26.4-1.6,47.3-22.4,47.6-47.3c0.5-37.5,0.5-68.7,0-98.2c-0.2-14.4-7.3-27.9-19.3-37c-12.3-9.3-27.7-12.4-42.1-8.6
		c-3.9,1-4.3,2.8-3.8,5.2c0.3,1.2,0.8,2,1.5,2.5c0.9,0.6,2.4,0.7,4.2,0.3c7.5-1.7,14.9-1.6,21.9,0.5c19.9,5.9,32.4,25.6,29,45.9
		l-0.2,1.3l-4.8,0c-2.7,0-5.3,0-8,0c-4.4,0-5.3,1.7-5.3,4.1c0,2.1,0.6,4,5.3,4.1c2.7,0,5.5,0,8.2,0l5.1,0v26.9l-5.8,0
		c-1.9,0-3.8,0-5.8,0c-4.6,0-9.4,0-14.1,0.1c-2.4,0-3.9,1.6-4,4c-0.1,2.4,1.4,3.9,3.9,4.1c0.8,0.1,1.7,0.1,2.6,0.1c0.3,0,0.7,0,1,0
		c5,0,10.1,0,15.2,0l7,0v26.9h-1.5c-1.3,0-2.5,0-3.8,0c-2.8,0-5.5,0-8.3,0c-4.1,0.1-5,1.6-5.1,4c0,1.3,0.2,2.3,0.9,2.9
		c0.8,0.8,2.2,1.2,4.3,1.3c2.7,0.1,5.5,0,8.2,0c1.2,0,2.4,0,3.6,0h1.3l0.2,1.3c2.3,16.8-5.5,33.2-19.9,41.7
		c-14.1,8.4-32.2,7.5-45.1-2.1c-12.6-9.4-18.3-22.6-16.9-39.2l0.1-1.1l1.1-0.3c0.2,0,0.3-0.1,0.5-0.1c0.3-0.1,0.6-0.2,0.9-0.2
		c1.4,0,2.8,0,4.1,0c2.1,0,4.2,0,6.4-0.1c4.7-0.1,5.6-1.8,5.6-4.3c0-2.5-0.9-3.9-5.4-4c-2.7,0-5.3,0-8,0l-5.1,0v-26.9l8.2,0
		c5.2,0,10.2,0,15.3,0c5.4,0,6.1-2.3,6.1-4.3c0-2-0.7-3.9-5.8-4c-2.1,0-4.1,0-6.2,0l-17.7,0v-26.9h1.5c1.3,0,2.6,0,3.8,0
		c2.9,0,5.6,0,8.3,0c4.4-0.1,4.9-2.4,5-4.1c0-1.4-0.3-2.4-1-3c-0.8-0.7-2.1-1-3.9-1.1c-2.8,0-5.7,0-8.5,0c-1.3,0-2.5,0-3.8,0h-1.4
		l-0.1-1.4c-1-11.5,1.3-21.2,7.1-29.6C157.6,86.7,158.1,85.2,157.8,84z"/>
	<path class="st0" d="M260.4,201.4c-1.6-0.1-3.8,0.4-4.1,4.6c-0.1,1.8-0.2,3.5-0.4,5.3c-2.2,26.3-20.8,49.1-46.2,56.9
		c-25.5,7.8-53.8-1-70.4-21.8c-9.2-11.5-14.1-25-14.5-39.9c-0.1-2.9-0.8-4.2-2.7-4.8c-1.1-0.3-2.6-0.6-3.8,0.3
		c-1.2,0.9-1.8,2.7-1.8,5c0.8,34.2,25.6,63.9,59.1,70.7c2.1,0.4,4.3,0.8,6.4,1.2c1,0.2,1.9,0.3,2.9,0.5l1.2,0.2v31.1h-5.7
		c-1.7,0-3.5,0-5.2,0c-4.1,0-8.2,0-12.4,0c-1.7,0-3.1,0.5-3.9,1.4c-0.7,0.7-1,1.7-1,2.8c0.1,3.3,3.1,3.9,4.9,4c0.3,0,0.7,0,1,0
		l0.4,0l52.5,0l0.6,0c0.8,0,1.5,0,2.2-0.1c2.3-0.3,3.5-1.5,3.6-3.8c0.1-2.1-0.9-3.5-2.9-4.1c-1.1-0.3-2.4-0.3-3.7-0.3
		c-4.9,0-9.7,0-14.7,0l-6.9,0v-31l1-0.3c0.2-0.1,0.3-0.1,0.4-0.1c0.3-0.1,0.5-0.2,0.8-0.2c0.5-0.1,1.1-0.2,1.6-0.2
		c0.7-0.1,1.4-0.2,2.1-0.3c30.4-5.3,50.7-22.8,60.3-51.9c1.7-5.2,2.3-11,2.9-16.6c0.1-1.2,0.3-2.4,0.4-3.7c0.2-1.5-0.1-2.7-0.9-3.6
		C262.9,201.9,261.8,201.5,260.4,201.4z"/>
	<path class="st0" d="M358,141c-1.1,0-2,0.6-2.7,1.2c-1.4,1.3-2.5,3.2,0.7,6.7c22.4,24.4,22.5,58.7,0.2,83.4
		c-3.1,3.4-2.1,5.2-0.5,6.7c1.4,1.3,3.4,2.3,6.6-1.2c12.1-12.9,18.4-28.7,18.8-47.1c-0.4-18.5-6.8-34.5-19.1-47.4
		C360.3,141.6,359,141,358,141z"/>
	<path class="st0" d="M339.1,157.7C339,157.7,339,157.7,339.1,157.7c-1,0-1.9,0.4-2.8,1.4c-1.4,1.3-2.4,3.1,0.5,6.5
		c13.4,15.3,13.4,34.5,0.1,50.1c-1.2,1.4-1.8,2.8-1.7,4.1c0.1,1,0.6,1.9,1.5,2.7c1.8,1.5,3.5,1.9,6.4-1.2
		c7.9-8.7,11.8-18.9,11.9-31.1c-0.2-11.5-4.2-21.7-12.1-30.1C341.5,158.5,340.2,157.8,339.1,157.7z"/>
	<path class="st0" d="M43.8,165.8c3.7-4.3,1.3-6.3,0.6-7c-1.5-1.3-3.3-2.3-6.8,1.6c-7.7,8.6-11.4,18.5-11.5,30.3
		c0.1,11.7,4.1,21.9,12,30.4c3,3.2,4.8,2.8,6.6,1.1c1.5-1.4,2.5-3.2-0.6-6.7C31,200.7,30.9,180.7,43.8,165.8z"/>
</g>
</svg>
