<?xml version="1.0" encoding="utf-8"?>
<!-- Generator: Adobe Illustrator 23.0.1, SVG Export Plug-In . SVG Version: 6.00 Build 0)  -->
<svg version="1.1" id="Layer_1" xmlns="http://www.w3.org/2000/svg" xmlns:xlink="http://www.w3.org/1999/xlink" x="0px" y="0px"
	 viewBox="0 0 381 381" style="enable-background:new 0 0 381 381;" xml:space="preserve">
<style type="text/css">
	.st0{fill:#9A9A9A;}
</style>
<g>
	<path class="st0" d="M381,50.4c-0.2-15.6-11.6-26.9-27.1-27c-12.7-0.1-25.7-0.1-38.2,0c-5.5,0-10.9,0-16.4,0c-0.1,0-0.1,0-0.2,0
		H294l-0.3-1.1c-3.3-12.6-10.6-19.7-22.5-21.9C269.3,0,267.3,0,265.3,0l-0.6,0c-41.2,0-82.5,0-123.7,0h-23.7
		c-16.6,0-25.1,6.3-30.2,22.3l-0.3,1l-22.5,0c-11.8,0-23.6,0-35.4,0c-15.2,0-24.5,7.1-28.5,21.8c-0.1,0.4-0.3,0.7-0.5,1v232.5
		c0,0,0,0.1,0,0.1c0.2,0.4,0.4,0.8,0.5,1.2c3.5,13.8,13.3,21.4,27.6,21.4c28.3,0,56.6,0,84.9,0l39.7,0v29.9l-1.3,0.2
		c-0.9,0.1-1.7,0.3-2.6,0.4c-1.9,0.3-3.6,0.5-5.4,1c-13.8,3.4-23.3,15.3-23.7,29.5c0,1,0,2.1,0,3.2c0,1.7,0.1,3.4-0.1,5.1
		c-0.5,5,1.4,8.3,5.7,10.3h129.9c4.3-2,6.2-5.3,5.7-10.3c-0.1-1.8-0.1-3.6-0.1-5.4c0-2.4,0-4.6-0.3-6.8c-2.1-14.2-13.4-24.8-28-26.4
		c-0.8-0.1-1.5-0.2-2.3-0.3c-0.4-0.1-0.7-0.1-1.1-0.2l-1.3-0.2v-30h16.7c16.3,0,32.6,0,48.9,0c1.2,0,2.5,0,3.6-0.3
		c2-0.6,2.9-2,2.8-4.2c-0.2-2.1-1.3-3.3-3.4-3.6c-1-0.1-2-0.1-3.1-0.1c-0.4,0-0.8,0-1.1,0l-262.9,0c-14.1,0-21.2-7.2-21.2-21.3
		l0-219.4c0-13.7,7.2-20.9,20.9-20.9c12.1,0,24.3,0,36.4,0l21.2,0v14.3l-19.8,0c-11.8,0-23.5,0-35.3,0c-6.7,0-9.2,2.5-9.2,9.2
		c0,71.6,0,143.2,0,214.9c0,6.5,2.5,9,9,9c106,0,212,0,318,0c6.5,0,9-2.5,9-9.1c0-71.6,0-143.2,0-214.9c0-6.6-2.5-9.1-9.3-9.1
		c-11.7,0-23.3,0-35,0l-20,0v-14l1.4-0.1c0.4,0,0.8,0,1.2-0.1c0.8,0,1.7-0.1,2.6-0.1c17.8,0,35.5,0,53.3,0
		c12.6,0,20.1,7.6,20.1,20.2c0,73.7,0,147.5,0,221.2c0,12.6-7.5,20.1-20.2,20.1c-4.3,0-8.5,0-12.8,0c-5.4,0-10.7,0-16.1,0
		c-2,0-5.5,0.5-5.5,4.1c0,1.2,0.4,2.2,1.3,3c1,0.8,2.4,1.2,4.2,1.2c11.4,0,20.9,0,29.6,0c16.3-0.1,27.7-11.5,27.7-27.9
		c0-51.9,0-103.8,0-155.6l0-56.6l0-3.4C381,55.4,381,52.9,381,50.4z M230.2,340.2c12.8,0.1,22.4,9.9,22.6,23.2c0,1.7,0,3.4,0,5.1
		c0,0.8,0,1.7,0,2.5v1.5h-125l0.1-1.6c0.1-1.3,0.1-2.7,0.1-4c0-3,0.1-5.8,0.6-8.7c2.1-10.6,11.2-18,22.1-18.1
		C181,339.9,206.3,339.9,230.2,340.2z M161.4,301.6h58v29.9h-58V301.6z M285.7,266.1c0,0.6,0,1.2-0.1,1.9c0,0.3-0.1,0.7-0.1,1.1
		l-0.1,1.4H95.3l0-164.9c0-3.2-0.5-5.3-1.6-6.4c-0.6-0.6-1.4-0.9-2.6-0.8c-1.3,0-4.1,0.1-4.1,7.1l0,164.9H31v-216h56.1l0,7.1
		c0,4.5,0,9,0,13.5c0,2.7,0.8,4.2,2.6,5.1c1.2,0.5,2.6,0.5,3.6-0.2c1.2-0.8,1.9-2.2,1.9-3.8c0.1-5.7,0.1-11.5,0.1-17
		c0-2.3,0-4.6,0-6.9c0-2.6,0-5.2,0-7.7c0-5.5,0-11.1,0-16.6c0.1-11.5,7.9-19.3,19.4-19.3c50.3,0,101.2,0,151.5,0
		c11.6,0,19.4,7.8,19.4,19.3c0,68.3,0,136.7,0,205L285.7,266.1z M294.3,54.3h55.7v216.2h-55.7V54.3z"/>
	<path class="st0" d="M190.5,33.8C190.5,33.8,190.4,33.8,190.5,33.8c-38.9,0-70.5,31.7-70.5,70.6c0,18.8,7.4,36.4,20.7,49.8
		c13.3,13.3,31,20.6,49.8,20.6c0,0,0,0,0.1,0c18.8,0,36.4-7.4,49.8-20.7c13.3-13.4,20.7-31.1,20.6-49.8
		C261,65.3,229.3,33.8,190.5,33.8z M234.2,148.5c-11.8,11.6-27.4,18-43.9,18c-0.1,0-0.2,0-0.4,0c-34.1-0.2-61.8-28.2-61.7-62.5
		c0-16.6,6.6-32.2,18.4-43.9C158.5,48.4,174.1,42,190.6,42c0.1,0,0.1,0,0.2,0c16.5,0.1,32.1,6.6,43.8,18.4
		c11.8,11.9,18.2,27.6,18.1,44.3C252.7,121.3,246.1,136.8,234.2,148.5z"/>
	<path class="st0" d="M255,203.3c-0.6,0-1.1,0-1.7,0c-0.3,0-0.5,0-0.8,0h-17.7c-35.4,0-70.9,0-106.3,0c-0.4,0-0.8,0-1.2-0.1
		c-0.6,0-1.4-0.1-1.7,0.1c-0.8,0.4-3.1,1.8-3.4,2.9c-0.3,1,0.1,3.1,0.8,3.8c0.9,0.8,2.8,1.4,4.7,1.4c16.5,0.1,33.3,0.1,49.5,0.1
		l49.5,0c0.1,0,0.2,0,0.2,0c2.5,0,5.1,0,7.6,0c6.8,0,13.7,0,20.6,0c2.6,0,4.4-1.7,4.4-4C259.4,205.2,257.6,203.4,255,203.3z"/>
	<path class="st0" d="M255.2,237c-0.5,0-1.1,0-1.7,0c-0.3,0-0.5,0-0.8,0H128.3c-0.3,0-0.5,0-0.8,0c-0.6,0-1.2,0-1.7,0
		c-2.5,0.2-4.2,1.8-4.2,4c0,2.3,1.7,4,4.3,4.2c0.6,0,1.3,0,2,0c0.3,0,0.6,0,0.9,0l61.5,0l61.8,0c0.3,0,0.6,0,1,0c0.8,0,1.5,0,2.3,0
		c2.4-0.2,4.1-2,4-4.2C259.4,238.9,257.6,237.2,255.2,237z"/>
	<path class="st0" d="M218.4,71c-4.9-0.5-9.2,1.1-13,4.9c-5.8,5.8-11.6,11.6-17.6,17.7l-9.2,9.2l-1-1.3c-0.4-0.5-0.8-1.1-1.1-1.5
		c-0.6-0.9-1.2-1.6-1.8-2.2c-3-2.8-6.9-4.2-10.7-4.2c-3.9,0-7.7,1.4-10.6,4.3c-6.1,5.9-6.4,15-0.7,21.2c4.7,5.1,9.4,9.8,13.9,13.9
		c7.2,6.5,18,6.6,24.6,0.3c13.9-13.2,27.2-26.8,37.3-37.3c5-5.2,4.1-11.3,2.5-15.6C228.9,74.8,224.6,71.6,218.4,71z M222.7,90.2
		c-0.5,0.7-1.1,1.3-1.7,1.9l-0.3,0.3c-2.6,2.6-5.2,5.2-7.8,7.8c-8.2,8.2-16.7,16.8-25.2,25c-1.5,1.4-3.2,2.4-5,3.4
		c-0.8,0.5-1.7,0.9-2.5,1.4l-0.7,0.5l-0.8-0.4c-0.9-0.5-1.7-0.9-2.5-1.3c-1.8-0.9-3.5-1.7-4.9-2.9c-3.7-3.3-7.2-6.9-10.5-10.4
		l-1.3-1.3c-3.3-3.4-3.5-7.3-0.6-10.4c2.9-3,7.3-2.8,10.7,0.4c0.8,0.8,1.6,1.6,2.4,2.3c0.6,0.6,1.3,1.3,1.9,1.9
		c3.6,3.5,6.8,3.5,10.4,0c5.2-5.1,10.3-10.3,15.4-15.4c3.4-3.4,6.9-6.9,10.3-10.3l0.3-0.3c0.9-0.9,1.9-1.9,3.2-2.6
		c3.3-1.6,6.4-1.1,8.6,1.5C224.5,84.2,224.7,87.3,222.7,90.2z"/>
</g>
</svg>
