<?xml version="1.0" encoding="utf-8"?>
<!-- Generator: Adobe Illustrator 23.0.1, SVG Export Plug-In . SVG Version: 6.00 Build 0)  -->
<svg version="1.1" id="Layer_1" xmlns="http://www.w3.org/2000/svg" xmlns:xlink="http://www.w3.org/1999/xlink" x="0px" y="0px"
	 viewBox="0 0 380.9 380.9" style="enable-background:new 0 0 380.9 380.9;" xml:space="preserve">
<style type="text/css">
	.st0{fill:#9A9A9A;}
</style>
<path class="st0" d="M373.2,310.8c-8-8.1-16.2-16.3-24.2-24.2c-3.1-3.1-6.2-6.1-9.2-9.2c-2.2-2.2-3.4-3-4.5-3c-0.7,0-1.7,0.3-3.3,1
	l-1,0.4l-0.8-0.8l-6.1-6.1l-7.6-7.6l-0.9-0.9l0.7-1.1c8.5-13.4,13.6-28.4,14.9-44.6c0.2-2.1-0.2-3.7-1.1-4.7
	c-0.6-0.7-1.5-1.1-2.7-1.2c-0.1,0-0.2,0-0.3,0c-3,0-3.9,2.8-4,5.2c-3.5,43.6-38.9,78.9-82.4,82.1c-2.3,0.2-4.6,0.3-6.9,0.3
	c-26.5,0-51.5-11.7-68.5-32c-17.1-20.4-24.1-47.2-19.4-73.5c7.1-39.9,40.3-69.9,80.7-73.1c2.4-0.2,4.8-0.3,7.2-0.3
	c38.6,0,72.8,24.4,84.9,60.7c0.9,2.6,1.5,5.2,2.1,7.7c0.4,1.8,0.9,3.6,1.4,5.3c0.6,2,1.9,3.1,3.6,3.1c0.3,0,0.7,0,1-0.1
	c2.3-0.5,3.2-1.9,3.1-4.4c-0.1-1.1-0.3-2.2-0.5-3.1c-6.3-28.1-22.1-49.8-47-64.4c-3-1.8-3.6-3.8-3.6-6.4c0-5.8,0-11.7,0-17.3
	c0-7.2,0-14.7,0.1-22c0-3-0.9-5.2-3.1-7.4C253,46.5,230.9,24.4,210.1,3.4C207.7,1,205.4,0,202,0c-34.8,0.1-66,0.1-97.3,0.1
	c-31.5,0-59.4,0-85.3-0.2l-0.2,0C8.9,0,3,3.8,0,12.3v51.8c1.6,2.5,3,2.8,3.9,2.8c0.4,0,0.9-0.1,1.4-0.3c2.1-0.7,2.8-2.2,2.8-5.8
	C8,50.2,8,39.4,8.1,28.9c0-3.5,0-7,0-10.5c0-8,2.2-10.2,10.1-10.2l97.3,0l39.8,0l39.8,0h4.3h1.6v1.6v4.5l0,14.1
	c0,10.9,0,21.9,0,32.8c0,10.7,6.1,16.8,16.8,16.8c6.3,0,12.7,0,19,0l14.1,0l14.1,0h0.1h4h1.6v1.6V114v2.1l-2-0.5
	c-0.3-0.1-0.6-0.1-0.8-0.2c-0.5-0.1-1.1-0.3-1.6-0.4c-10.7-3.6-20.7-5.3-30.7-5.4c-34.1,0-68.3,0-102.4,0l-22.8,0l-0.3,0l-0.3,0
	c-0.4,0-0.8,0-1.1,0.1c-2.1,0.3-3.3,1.4-3.5,3.5c-0.3,2.2,0.7,3.6,2.9,4.2c0.9,0.3,1.9,0.3,3,0.3l0.3,0l0.3,0h0.1
	c15.2,0,30.4,0,45.7,0l12.6,0l12.6,0h1.9l2.1,0h4.8l-3.8,2.9c-1.8,1.3-3.5,2.7-5.2,4c-4.5,3.4-8.8,6.7-13.2,9.8
	c-1.1,0.7-3.8,2.5-6.8,2.5c-10.1,0.1-20.3,0.1-29.1,0.1l-4.9,0l-4.9,0c-3.8,0-7.6,0-11.5,0c0,0,0,0,0,0c-0.3,0-0.6,0-0.9,0
	c-0.3,0-0.6,0-0.9,0c-1.4,0-1.7,0.2-1.9,0.3c-1.2,0.3-2.9,0.7-2.8,4.1c0,0.5,0.4,3,3.5,3.7c0,0,0.2,0.1,0.8,0.1c0.3,0,0.7,0,1.1-0.1
	c0.4,0,0.8-0.1,1.2-0.1c7.2,0,14.3,0,21.5,0l8.5,0l8.5,0h0.2l4.7,0h3.2l-1.9,2.6c-9.2,12.2-15.1,25.1-18.2,39.3l-0.2,0.9l-0.9,0.3
	c-0.2,0.1-0.3,0.1-0.5,0.2c-0.3,0.1-0.6,0.2-1.1,0.2c-8,0-16,0-24,0.1c-2.9,0-4.9,0.5-5.9,1.5c-0.6,0.6-0.9,1.4-0.9,2.5
	c0,1.3,0,4,6.9,4l9.2,0l6.8,0l6.9,0h1.6v1.6v16.3v1.6h-1.6l-1.5,0l-1.3,0l-1.5,0l-1,0c-1.7,0-3.5,0-5.2,0c-1.7,0-3.4,0-5.2,0
	c-4,0-7.1,0-10,0.1c-2.4,0-4,1.5-4.1,3.8c-0.1,2.2,1.5,3.8,3.9,4.2c0.5,0.1,1,0.1,1.4,0.1c0.2,0,0.4,0,0.7,0c0.2,0,0.5,0,0.7,0
	c1.9,0,3.8,0,5.8,0c2.1,0,4.2,0,6.3,0c3.6,0,6.5,0,9.3-0.1c0.1,0,0.2,0,0.3,0c3.2,0,4.8,1.3,5.5,4.5c2.3,10.9,6.7,21.4,12.9,31.1
	c0.9,1.4,1.9,2.8,3,4.5c0.5,0.8,1.1,1.7,1.7,2.6l1.6,2.5h-3l-2,0l-1.4,0l-1.3,0l-2.7,0l-8.5,0l-8.5,0c-5.8,0-13.5,0-21.2,0
	c-2.9,0-4.6,1.5-4.6,4c0,2.3,1.7,3.8,4.4,4.1c0.4,0,0.9,0.1,1.5,0.1c0.3,0,0.6,0,0.8,0c0.3,0,0.6,0,0.9,0l3.8,0l7.7,0l7.7,0
	c9.8,0,20.2,0,30.8,0c1.6,0,3.5,0.1,4.8,1.1c5,3.7,10.1,7.6,15,11.4c1.6,1.2,3.2,2.5,4.8,3.7l3.7,2.9h-4.7h-3.8h-0.7l-12,0l-12,0
	c-15.4,0-30.8,0-46.2,0h0l-0.1,0l-0.2,0l-0.2,0c-1.2,0-2.2,0-3.1,0.3c-2,0.6-3,2-2.8,4c0.2,2.2,1.4,3.4,3.6,3.7
	c0.3,0,0.7,0.1,1.2,0.1c0.3,0,0.5,0,0.8,0c0.3,0,0.5,0,0.8,0c0,0,0,0,0,0c9.5,0,19.1,0,28.6,0c10.2,0,20.5,0,30.7,0
	c25.4,0,44.8,0,62.9-0.1c5.5,0,11.2-0.5,16.9-1.5c4.2-0.7,8.2-1.7,12.5-2.8c1.9-0.5,3.8-1,5.7-1.4l2-0.5v2l0,2.1v2l0,16.5
	c0,13.9,0,27.7,0,41.6c0,8.3-2.1,10.4-10.3,10.4l-124.5,0l-117.4,0c-8.5,0-10.6-2.1-10.6-10.5l0-30c0-80.3,0-163.2,0-244.9
	c0-3.4-0.4-5-2.7-5.9c-0.5-0.2-1.1-0.3-1.5-0.3c-1.4,0-2.6,1.1-3.9,2.6v284.9c2,6.1,6,10.1,12.2,12.2h254.5
	c8.8-3,12.6-8.9,12.4-19.3c-0.2-9.8-0.2-19.7-0.1-29.3c0-9.8,0.1-20-0.1-29.9c-0.1-5.1,0.7-10.6,8-13.2c0.3-0.1,0.6-0.2,0.7-0.2
	l0.9-0.2l0.6,0.6l8.6,8.6l4.9,4.9l1,1l-0.8,1.1c-1.7,2.4-1.6,4.5,0.4,6.5c3.4,3.4,6.8,6.8,10.3,10.3c8.4,8.5,17.2,17.2,25.9,25.7
	c4.4,4.3,9.8,6.4,16,6.4c1.2,0,2.5-0.1,3.8-0.3c10.3-1.4,17.2-7,20.5-16.5C382.7,327.1,380.6,318.3,373.2,310.8z M260,69.7
	c-0.1,0-0.1,0-0.2,0c-0.5,0.1-1.2,0.2-2,0.2c-7.7,0-15.5,0-23.2,0c-5.5,0-11,0-16.5,0c-6.4,0-8.9-2.5-9-9c0-9.3,0-18.7,0-28l0-11.3
	v-2.6v-3.9l2.7,2.7l28.1,28.1L260.9,67l2.3,2.3L260,69.7z M309.3,297.5l-1.1-1.2l-7.7-8.1l-3-3.1l-1.1-1.1l1.1-1.1l5.6-5.6l6.9-6.8
	l1.1-1.1l1.1,1.1l3.7,3.7l7.3,7.3l1.1,1.1l-1.1,1.1l-8.4,8.4l-4.4,4.4L309.3,297.5z M368,340.6c-3.3,3.4-8,5.4-12.6,5.4
	c-3.7,0-7.2-1.3-9.7-3.8c-8-7.7-15.8-15.8-23.3-23.6c-3.1-3.2-6.2-6.5-9.4-9.7l-1.1-1.1l1.1-1.1l20.9-20.9l1.1-1.1l1.1,1.1
	c3.2,3.1,6.5,6.3,9.6,9.4c7.7,7.5,15.6,15.2,23.1,23C374.6,324.2,374.2,334.2,368,340.6z"/>
<path class="st0" d="M49.7,103.9c-6.4,0.1-10.9,4.4-11.1,10.6c-0.3,8.2-0.3,16.7,0,25.3c0.2,6.3,4.6,10.6,11,10.7
	c4.3,0.1,8.5,0.1,12.5,0.1c4.1,0,8.2,0,12.1-0.1c6.3-0.2,10.8-4.7,11-11.2c0.1-2.7,0.1-5.4,0-8.1c0-1.3,0-2.6,0-3.8
	c0-1.2,0-2.4,0-3.6c0-2.7,0-5.6,0-8.4c-0.1-6.9-4.5-11.5-11.3-11.6c-4-0.1-8.1-0.1-12.1-0.1v-0.8c0,0,0,0,0,0l0,0.8
	C57.8,103.7,53.7,103.8,49.7,103.9z M62,111.9c3.4,0,7,0,10.7,0l0.1,0c1.5,0,2.6,0.4,3.4,1.2c1.1,1.1,1.1,2.6,1.1,3.6
	c-0.1,2.4-0.1,4.9,0,7.3c0,1,0,2.1,0,3.1c0,1.1,0,2.1,0,3.2c0,2.4,0,4.9,0,7.3c0,1.1,0,2.7-1.1,3.8c-0.8,0.8-1.9,1.2-3.5,1.2l-0.1,0
	c-3.4,0-6.9-0.1-10.5-0.1c-3.5,0-7.1,0-10.7,0.1l-0.1,0c-1.5,0-2.6-0.4-3.3-1.2c-1.1-1.1-1.2-2.6-1.2-3.6c0.1-7.8,0.1-14.7,0-21.3
	c0-1.5,0.4-2.7,1.1-3.5c1.1-1.1,2.5-1.2,3.5-1.2l0.1,0C54.8,111.9,58.4,111.9,62,111.9z"/>
<path class="st0" d="M38.6,274.5c-0.3,8.6-0.3,17,0,25c0.2,6.3,4.6,10.6,11,10.7c4.2,0.1,8.4,0.2,12.5,0.2c4.1,0,8.2-0.1,12.1-0.2
	c6.6-0.2,10.9-4.7,11-11.5c0.1-2.6,0-5.3,0-7.9c0-1.2,0-2.4,0-3.6c0-1.2,0-2.5,0-3.7c0-2.7,0-5.5,0-8.2c-0.1-7-4.7-11.6-11.6-11.7
	c-3.9,0-7.8-0.1-11.7-0.1c-3.9,0-7.9,0-11.8,0.1C43.3,263.6,38.8,267.9,38.6,274.5z M51.4,271.5c3.3,0.1,6.7,0.1,10.2,0.1
	c3.4,0,6.9,0,10.7-0.1l0.2,0c1,0,2.6,0.1,3.6,1.2c1.1,1.1,1.2,2.6,1.2,3.7c-0.1,6.8-0.1,13.9,0,20.9c0,1.1-0.1,2.7-1.2,3.8
	c-0.8,0.8-2,1.2-3.5,1.2l-0.1,0c-3.5,0-7.1-0.1-10.5-0.1c-3.5,0-7,0-10.4,0.1l-0.2,0c-1.1,0-2.6-0.1-3.7-1.2c-0.8-0.8-1.2-2-1.1-3.7
	c0.1-2.5,0.1-5.1,0-7.5c0-1.1,0-2.2,0-3.2c0-1,0-2,0-3c0-2.3,0-4.7,0-7c0-1.1,0.1-2.7,1.1-3.8c0.8-0.8,2-1.2,3.5-1.2L51.4,271.5z"/>
<path class="st0" d="M50,229.5c1.3,0,2.7,0,4.3,0c1.3,0,2.6,0,3.9,0c1.1,0,2.3,0,3.4,0l0.4,0c1.2,0,2.4,0,3.6,0c1.2,0,2.4,0,3.6,0
	c1.8,0,3.3,0,4.7,0c6.6-0.1,11.1-4.7,11.2-11.2c0.1-7.7,0.1-15.5,0-24c-0.1-6.8-4.5-11.2-11.1-11.3c-3.9-0.1-8-0.1-12.1-0.1
	c-4,0-8.1,0-12.2,0.1c-6.5,0.1-10.9,4.2-11.2,10.5c-0.3,8.3-0.3,16.8,0,25.4C38.8,225.2,43.3,229.4,50,229.5z M47.7,192.1
	c0.7-0.7,1.7-1.1,3.1-1.1l0.1,0c2.4,0,4.7,0,6.9,0l1.9,0l1.9,0c3.4,0,7.4,0,11.4,0.1c1.7,0,4,2.3,4.1,4.1c0.2,6.8,0.2,14,0,22.2
	c0,1.6-1.9,3.9-3.6,3.9c-5.1,0.1-10.2,0.1-14.5,0.1c-1.8,0-3.5,0-5.3,0c-1.8,0-3.7,0-5.6,0h-1.6v-1.6l0-4l0-8.6c0-1.2,0-2.3,0-3.5
	c0-2.7,0-5.4,0-8.1C46.6,194.5,46.7,193.1,47.7,192.1z"/>
<path class="st0" d="M233.5,135.2c-32.1,0-60.5,22-69,53.5c-3.6,13.3-3.2,26.5,1,39.3c0.4,1.3,2.2,2.9,3.7,3.4c0,0,0,0,0,0
	c0,0,0,0,0.1,0c1,0,2.6-0.9,2.9-1.4c0.9-1.5,0.5-4.4,0.4-5.3c-0.3-2.1-0.7-4.3-1.1-6.5c-0.7-3.5-1.3-7.1-1.4-10.7
	c-0.5-32.7,24.1-60.2,57.2-63.8c2.3-0.2,4.6-0.4,6.9-0.4c19,0,37,8.6,49.2,23.7c12,14.7,16.7,33.6,12.9,51.7
	c-5.5,26.4-21.9,43.6-47.5,49.9c-5.7,1.4-11.3,2.1-16.6,2.1c-18.3,0-34.5-8-48.1-23.9c-1.7-2-3.4-3.1-4.8-3.1
	c-0.7,0-1.4,0.3-2.2,0.9c-0.8,0.7-1.3,1.4-1.4,2.3c-0.2,1.4,0.6,3.1,2.1,5c13.8,17.1,34.2,26.9,55.8,26.9c8.3,0,16.5-1.4,24.5-4.2
	c13.8-4.9,25.7-14,34.4-26.2c8.6-12.2,13.2-26.5,13.3-41.3c-0.1-1.2-0.2-2.4-0.3-3.6c-0.2-2.6-0.4-5.2-0.8-7.7
	c-5.6-34-33.6-58.8-68.1-60.4C235.7,135.2,234.6,135.2,233.5,135.2L233.5,135.2l0-0.8c0,0,0,0,0,0L233.5,135.2z"/>
<path class="st0" d="M228,239c4.3,0,8.5-2,12.5-6.1c8.8-8.9,17.7-18.1,27.5-28.2c6.8-7.1,7.1-16.8,0.7-23.2c-3-3-6.8-4.6-10.8-4.6
	c-4.5,0-9,2-12.7,5.6c-3.8,3.7-7.6,7.3-11.7,11.1c-1.8,1.7-3.6,3.4-5.4,5.1l-1.1,1l-1.1-1l-0.4-0.4c-0.4-0.4-0.9-0.9-1.4-1.4
	c-3.5-3.2-7.7-5-11.9-5c-4.1,0-8,1.7-11,4.7c-6.4,6.5-6,16.3,1,23.1c2.8,2.8,5.7,5.6,8.5,8.3c1.6,1.6,3.3,3.2,4.9,4.8
	C219.4,237,223.7,239,228,239z M207.4,214c-3.6-3.6-3.8-8.2-0.6-11.5c1.5-1.5,3.3-2.3,5.3-2.3c2.1,0,4.3,0.9,6.3,2.7
	c1.1,1,2.1,2,3.1,3c0.4,0.4,0.8,0.8,1.3,1.2c2.4,2.3,3.8,3.3,5,3.3c1.2,0,2.7-1,5.1-3.5c1.8-1.8,3.6-3.7,5.4-5.5
	c4.1-4.3,8.4-8.7,12.7-12.9c1.7-1.6,4.2-2.9,6.4-3.1c0.3,0,0.5,0,0.8,0c1.7,0,3.4,0.7,4.6,2c1.6,1.7,2.5,4.1,2.4,6.8l0,0.4l-0.2,0.4
	c-0.1,0.2-0.2,0.4-0.4,0.7c-0.5,1-1.2,2.3-2.2,3.4c-8.9,9.3-18.4,19-28.2,29c-1.9,2-4,2.9-6.1,2.9c-2.1,0-4.1-0.9-6-2.8
	C217.2,223.6,212.3,218.8,207.4,214z"/>
</svg>
