<?xml version="1.0" encoding="utf-8"?>
<!-- Generator: Adobe Illustrator 23.0.1, SVG Export Plug-In . SVG Version: 6.00 Build 0)  -->
<svg version="1.1" id="Layer_1" xmlns="http://www.w3.org/2000/svg" xmlns:xlink="http://www.w3.org/1999/xlink" x="0px" y="0px"
	 viewBox="0 0 384 384" style="enable-background:new 0 0 384 384;" xml:space="preserve">
<style type="text/css">
	.st0{fill:#818181;}
</style>
<g>
	<path class="st0" d="M358.8,59.8c-4.6-0.2-9.1-0.1-13.4,0c-3.3,0.1-5.4,2.1-5.4,5.1c0,2.9,2.2,4.9,5.5,5c2.1,0.1,4.3,0,6.4,0
		c1.4,0,2.9,0,4.3,0c6.2,0.1,9.1,2.9,9.1,8.9c0,11.5,0,23,0,34.1c0,0.7-0.1,1.4-0.2,2c-0.1,0.3-0.1,0.6-0.1,0.9l-0.2,1.1l-206.1,0
		c-0.4,0-0.7,0-1.1,0c-0.8,0-1.6,0-2.4,0c-3.4,0.1-5.6,2-5.6,4.9c-0.1,3,2.2,5,5.7,5.2c0.8,0,1.6,0,2.4,0l1.1,0l206.5,0v175.4
		c0,9.1-2.1,11.2-11.2,11.2l-272.1,0c-0.4,0-0.8,0-1.2,0c-0.4,0-0.8,0-1.2,0c-0.6,0-1.2,0-1.8,0.1c-2.9,0.5-4.4,2.2-4.4,5
		c0,2.8,1.5,4.4,4.4,5c0.9,0.2,1.9,0.1,2.9,0.1c0.4,0,0.8,0,1.2,0c90.8,0,181.7,0,272.5,0c14.3,0,20.9-6.6,20.9-20.8l0-222.5l0-0.9
		c0-1,0-2,0-2.9C375,67.6,367.7,60.2,358.8,59.8z"/>
	<path class="st0" d="M40,313.7c-2.2-0.1-4.4-0.1-6.5,0c-1,0-2,0-3,0c-8,0-10.4-2.4-10.4-10.4l0-127.9l0-48.3l33.5,0
		c26.9,0,53.8,0,80.6,0c2.3,0,4.1-0.6,5.2-1.8c0.8-0.9,1.3-2,1.2-3.4c-0.1-3.1-2.4-4.9-6.4-4.9c-13.1,0-26.3,0-39.4,0l-74.8,0
		l0-35.7c0-9.2,2.1-11.3,11.1-11.3l53,0l69.9,0c56.8,0,113.5,0,170.3,0c2.5,0,6.6-0.6,6.7-5c0-1.4-0.4-2.5-1.2-3.3
		c-1.1-1.1-3-1.8-5.3-1.8c-0.4,0-0.7,0-1.1,0l-0.5,0h-65.1l-227.7,0C17,59.8,10,66.8,10,80c0,57,0,114,0,170.9V268
		c0,3.8,0,7.5,0,11.3c0,8.8,0,17.9,0.1,26.8c0.1,9.8,7.5,17.3,17.3,17.6c4,0.1,8.3,0.1,12.6,0c3.3-0.1,5.5-2.1,5.5-5
		C45.4,315.8,43.3,313.8,40,313.7z"/>
	<path class="st0" d="M169.1,193.1c-13,0-26,0-39.1,0l-16.4,0L97,193c-5.5,0-11.1,0-16.6,0c-7.6,0-15.1,0-22.7,0
		c-10,0-15.9,6-15.9,16c0,26.3,0,50.2,0,73.3c0,10,6,15.9,16,15.9c37.1,0,74.3,0,111.4,0c10,0,15.9-6,15.9-16c0-26.3,0-50.3,0-73.3
		C185.1,199,179.1,193.1,169.1,193.1z M164.5,203.3l-3,2.3c-0.5,0.4-0.9,0.7-1.3,1c-0.7,0.6-1.3,1-2,1.5c-4.3,3-8.7,6.1-13,9.1
		c-9.5,6.6-19,13.3-28.5,20c-1,0.7-2.1,1.3-3.3,1.3c-0.9,0-1.9-0.3-3-1.1c-10.5-7.5-21.2-15-31.6-22.2c-3.8-2.7-7.7-5.3-11.5-8
		c-0.4-0.3-0.7-0.5-1.1-0.9c-0.2-0.2-0.5-0.4-0.8-0.7l-2.7-2.3H164.5z M52.2,282.4V209l52.4,36.7L52.2,282.4z M62.3,288.1l3-2.3
		c0.5-0.4,0.9-0.7,1.2-0.9c0.7-0.5,1.2-0.9,1.8-1.3c3.8-2.7,7.6-5.3,11.4-8c9.9-6.9,20.1-14.1,30.1-21.2c2.6-1.9,4.7-1.9,7.3,0
		c9.9,7,19.9,14.1,29.7,20.9c3.8,2.7,7.6,5.3,11.5,8c0.6,0.4,1.2,0.9,2,1.5c0.4,0.3,0.8,0.6,1.3,1l3,2.3H62.3z M174.7,282.4
		l-52.4-36.7l52.4-36.7V282.4z"/>
	<path class="st0" d="M327.6,193.1c-12.9,0-25.8,0-38.7,0l-16.8,0l-16.5,0c-5.5,0-11,0-16.5,0c-7.5,0-15,0-22.4,0
		c-10.3,0-16.2,5.9-16.2,16.2c0,24.3,0,48.6,0,72.9c0,10.3,5.9,16.2,16.2,16.2c37,0,74,0,111,0c10.3,0,16.2-5.9,16.2-16.2
		c0-24.3,0-48.6,0-72.9C343.8,199,337.9,193.1,327.6,193.1z M323.2,203.3l-3,2.3c-0.5,0.4-0.9,0.7-1.2,1c-0.7,0.5-1.2,0.9-1.7,1.3
		c-13.9,9.8-27.9,19.5-41.9,29.3l-0.3,0.2c-0.8,0.6-1.8,1.3-3.1,1.3c-0.8,0-1.6-0.3-2.6-0.9c-10.5-7.5-21.3-15-31.6-22.2
		c-4.1-2.9-8.3-5.8-12.4-8.7c-0.3-0.2-0.6-0.5-0.8-0.9c-0.1-0.1-0.3-0.3-0.4-0.5l-1.8-2.1H323.2z M210.7,282.6v-73.7l52.6,36.8
		L210.7,282.6z M221.7,288.1l2.5-2.3c0.3-0.3,0.6-0.6,0.9-0.8c0.6-0.5,1-1,1.6-1.4l4.6-3.2c12.2-8.6,24.8-17.4,37.3-26
		c1.4-1,4.3-1.8,5.8-0.8c12.4,8.5,24.7,17.1,37.6,26.2l11.8,8.3H221.7z M333.5,282.5L281,245.7l52.5-36.8V282.5z"/>
	<path class="st0" d="M58.8,152.4c0.3,0,0.7,0,1,0l78.5,0c52.4,0,104.7,0,157.1,0c4.7,0,7-1.7,7.1-5c0-1.4-0.4-2.5-1.2-3.3
		c-1.1-1.2-3.1-1.8-5.8-1.8l-1.1,0l-0.5,0l-234.8,0l-1,0c-0.3,0-0.6,0-1,0c-0.7,0-1.3,0-2,0c-7.4,0.4-14,5.6-16,12.7
		c-1.6,5.5-0.6,11.1,2.7,15.5c3.4,4.6,8.9,7.2,15.1,7.2c32.7,0,65.4,0,98,0l37.6,0l36.9,0c33,0,66.1,0,99.1,0
		c5.1,0,9.8-1.9,13.2-5.3c3.3-3.3,5.1-7.8,5-12.5c-0.1-9.9-7.9-17.5-18.1-17.6c-3.5,0-7.3,0-11.1,0c-4,0-6.2,1.9-6.2,5
		c0,3.2,2.3,5,6.2,5c1.5,0,3,0,4.5,0c2.3,0,4.7,0,7,0.1c4.4,0.2,7.6,3.4,7.6,7.6c0,4.1-3.1,7.3-7.5,7.6c-0.7,0.1-1.4,0-2.1,0
		c-0.3,0-0.5,0-0.8,0l-267.3,0c-0.3,0-0.5,0-0.8,0c-0.8,0-1.6,0-2.5-0.1c-4.2-0.4-7.1-3.5-7.1-7.5c0-4,2.9-7.2,7-7.6
		C56.8,152.3,57.8,152.3,58.8,152.4z"/>
	<path class="st0" d="M43.6,85.2c-2,0-4,0.8-5.5,2.2c-1.6,1.5-2.6,3.5-2.7,5.7c-0.1,2.2,0.7,4.2,2.3,5.9c1.5,1.6,3.6,2.5,5.7,2.6
		c2.2,0.1,4.2-0.8,5.8-2.3c1.6-1.6,2.5-3.6,2.5-5.8c0.1-4.4-3.5-8.1-7.8-8.3C43.8,85.2,43.7,85.2,43.6,85.2z"/>
	<path class="st0" d="M75.3,85.2c-0.1,0-0.2,0-0.3,0c-4.4,0.2-7.9,3.9-7.9,8.2c0,2.2,0.9,4.2,2.5,5.8c1.6,1.6,3.6,2.4,5.8,2.4
		c2.2,0,4.2-0.9,5.8-2.6c1.5-1.6,2.4-3.7,2.3-5.9c-0.1-2.2-1-4.2-2.6-5.7C79.4,86,77.4,85.2,75.3,85.2z"/>
	<path class="st0" d="M98.9,93.5c0.1,4.4,3.7,8,8.1,8.1c2.1,0,4.2-0.8,5.8-2.4c1.6-1.6,2.5-3.6,2.5-5.8c0-2.2-0.8-4.2-2.4-5.8
		c-1.6-1.6-3.6-2.4-5.8-2.4c0,0,0,0,0,0c-2.2,0-4.2,0.9-5.8,2.5C99.7,89.3,98.8,91.3,98.9,93.5z"/>
	<path class="st0" d="M59.5,313.7C59.5,313.7,59.5,313.7,59.5,313.7c-2.8,0-5,2.2-5.1,4.9c0,2.7,2.2,5.1,4.9,5.1
		c1.3,0,2.6-0.5,3.5-1.4s1.5-2.2,1.6-3.5c0-1.3-0.5-2.6-1.4-3.5C62.1,314.3,60.9,313.7,59.5,313.7z"/>
</g>
</svg>
