<?xml version="1.0" encoding="utf-8"?>
<!-- Generator: Adobe Illustrator 23.0.1, SVG Export Plug-In . SVG Version: 6.00 Build 0)  -->
<svg version="1.1" id="Layer_1" xmlns="http://www.w3.org/2000/svg" xmlns:xlink="http://www.w3.org/1999/xlink" x="0px" y="0px"
	 viewBox="0 0 384 384" style="enable-background:new 0 0 384 384;" xml:space="preserve">
<style type="text/css">
	.st0{fill:#808080;}
	.st1{fill:none;stroke:#808080;stroke-width:10;stroke-miterlimit:10;}
</style>
<path class="st0" d="M373.4,262.1c-5.2-9.6-15.2-13.6-26.8-10.6l-9.7,2.5c-27,6.9-55,14-82.6,20.5c-5.4,1.3-12.2,0.6-17.1-1.7
	c-13.7-6.4-27.5-13.3-40.8-20c-6.8-3.5-13.9-7-20.9-10.5c-20.3-10-46.1-5.8-58.9,9.5c-11.9,14.3-25.5,13.4-39.9,12.4l-3.6-0.2
	l-1.6-11.3H12.3v97.1h59.5l1-11.1l1.3-0.1c4.3-0.4,8.8-0.6,13.3-0.6c11.5,0,23.5,1.7,35.6,7.7c15.8,7.9,36.7,17.8,58.4,24.8
	c34.6,11.2,61.8,8.4,85.5-8.9c14.4-10.5,29.4-20.9,43.8-30.9c6.7-4.6,13.4-9.3,20-13.9c3.6-2.5,7.2-5,10.8-7.5
	c8.5-5.8,17.2-11.9,25.6-18.1C376.5,283.8,379,272.5,373.4,262.1z M61.4,340.3H22.3v-78.1h39.1V340.3z M362.7,281.4
	c-0.9,2.2-3.2,3.6-5.4,4.9c-0.7,0.4-1.5,0.9-2.1,1.3c-9.8,6.9-19.8,13.8-29.4,20.5c-21.1,14.7-43,29.9-64.2,45.2
	c-12.7,9.2-26.6,13.7-42.5,13.7c-10.5,0-21.8-2-34.1-5.9c-17.9-5.7-35.4-13.8-52.2-21.7c-2.8-1.3-5.7-2.6-8.5-4
	c-13.2-6.1-24.7-8.4-36.3-7.4c-3,0.3-5.9,0.2-9.1,0.1c-1.5,0-3-0.1-4.5-0.1h-1.5v-51.5l0.8-0.4c0.3-0.2,0.6-0.4,0.9-0.5
	c0.6-0.4,1.3-0.9,2.2-0.8c22.3,1.9,37.1-3.6,49.5-18.4c9.8-11.7,26.8-14.2,43.2-6.4c24.8,11.8,49.1,24.1,71.6,35.7
	c3.5,1.8,7.8,5.7,9.3,10c1.3,3.9,0.6,10.4-2.3,13.3c-2.9,2.9-9.4,3.5-13.3,2.3c-9.7-2.9-19.5-6.2-28.9-9.4
	c-8.5-2.8-17.2-5.8-25.9-8.5c-1.3-0.4-2.7-1.1-4.1-1.7c-2.8-1.3-6-2.8-8-2c-1.1,0.4-1.9,1.5-2.6,3.3c-0.8,2.1-0.8,3.7-0.2,4.8
	c1.1,2,4.6,2.7,7.7,3.3c1.6,0.3,3.1,0.6,4.5,1.1c10.2,3.7,20.7,7.2,30.9,10.5c6.9,2.2,13.9,4.6,20.9,7c12.1,4.2,20,3,26.6-3.8
	c7-7.3,8-15.9,3.3-26.5c-0.3-0.7-0.5-1.4-0.7-2.3c-0.1-0.5-0.2-1-0.4-1.7l-0.4-1.5l22.4-5.6c20.5-5.1,40.9-10.3,61.4-15.4
	c1.1-0.3,2.1-0.7,3.3-1.1c2.6-0.9,5.4-1.9,8-1.4c4.6,0.8,10.6,3,12.4,6.7C366,270.4,365.4,274.9,362.7,281.4z"/>
<path class="st0" d="M244.5,223.8C244.5,223.8,244.5,223.8,244.5,223.8c58.4,0,106.1-47.6,106.3-106C351,59.4,303.6,11.5,245.3,11
	c-28.2-0.2-54.8,10.7-75.1,30.7c-20.3,20-31.5,46.6-31.6,74.8c-0.1,28.8,10.9,55.9,31.2,76.1C189.7,212.7,216.3,223.8,244.5,223.8z
	 M244.7,21.1c0.1,0,0.2,0,0.3,0c25.9,0.1,50.2,10.3,68.4,28.7c18.2,18.4,28.1,42.7,27.9,68.5c-0.4,52.7-43.7,95.5-96.7,95.5
	c-0.1,0-0.2,0-0.4,0c-25.9-0.1-50.2-10.3-68.4-28.7c-18.2-18.4-28-42.7-27.8-68.6C148.4,63.8,191.8,21.1,244.7,21.1z"/>
<path class="st0" d="M200.2,184.9c27.8,18.3,63.4,17.9,90.7-1.2c23.2-16.2,38-47.6,33.6-70.7H164.8
	C160.6,137.6,175.9,168.9,200.2,184.9z M174.6,123.1h140.2l-0.1,1.6c-0.7,16.9-8.6,33.1-22.2,45.4c-13.2,11.9-30.5,18.7-47.7,18.7
	c-0.2,0-0.5,0-0.7,0c-36.6-0.4-68.4-29.8-69.4-64.1L174.6,123.1z"/>
<circle class="st1" cx="206.6" cy="79.2" r="17"/>
<circle class="st1" cx="284.1" cy="79.2" r="17"/>
</svg>
