<?xml version="1.0" encoding="utf-8"?>
<!-- Generator: Adobe Illustrator 23.0.1, SVG Export Plug-In . SVG Version: 6.00 Build 0)  -->
<svg version="1.1" id="Layer_1" xmlns="http://www.w3.org/2000/svg" xmlns:xlink="http://www.w3.org/1999/xlink" x="0px" y="0px"
	 viewBox="0 0 384 384" style="enable-background:new 0 0 384 384;" xml:space="preserve">
<style type="text/css">
	.st0{display:none;fill:#262262;stroke:#DD4F77;stroke-width:1.5;stroke-miterlimit:10;}
	.st1{display:none;fill:#FFF200;}
	.st2{fill:#808080;}
</style>
<rect x="-93.1" y="-12" class="st0" width="557.8" height="483.3"/>
<rect x="176.3" y="183.3" class="st1" width="10" height="10"/>
<g>
	<path class="st2" d="M366.1,286c0-1.9,0-3.8,0-5.6c0-4.9-0.4-5.9-5.2-7.3c-5.2-1.5-8.2-4.4-10.8-10.2c-3.1-7.1-3-12.1,0.4-17.5
		c1.4-2.2,1-4.5-1-6.6c-1.1-1.1-2.2-2.3-3.3-3.4c-3.4-3.5-6.9-7.1-10.6-10.4c-1.8-1.6-2.4-0.2-2.5-5.7c-0.6-30.7,0-61.9,0-92.1v-12
		c0-5.5-1.5-7-7.2-7c-8.7,0-17.5,0-26.2,0h-4.5c-6.6,0-7.9,1.2-7.9,7.8c0,21.2,0,42.4,0,63.5v29.2h-0.8c-1,0-2-0.1-3-0.1
		c-7.4-0.4-13.8-0.7-14.5,9.8c0,0-0.1,1-0.1,1.4c-0.1,2.7-2.4,2.2-2.4,2.2v-25.7c0-15.8,0-31.6,0-47.4c0-5.2-1.6-6.8-6.7-6.8
		c-4.4,0-8.9,0-13.4,0s-8.9,0-13.3,0h-4.7c-6.6,0-7.7,1.2-7.7,7.9c0,11.2,0,22.4,0,33.6v31.7c0,15.7,0,31.3,0,47
		c0,5.9-0.9,7.2-6.3,9.3c-0.4,0.2-0.9,0.3-1.3,0.5c-1,0.4-2,0.8-3,1.2c-2.9,1-4.1,2.9-4,6c0.1,3.7,0.1,7.4,0.1,11c0,1.6,0,3.1,0,4.7
		c0,7-0.4,8.7,6.7,9.6c9,1.1,16.3,14.4,9,26.3c-1.7,2.8-1.1,5.4,1.4,7.8c2.7,2.6,5.3,5.2,7.9,7.8c1.4,1.4,2.8,2.8,4.2,4.3
		c3.2,3.1,4.6,3.7,8.6,1.5c5-2.7,9.3-2.8,15.1-0.5c7,2.8,10.4,6.4,11.8,12.4c0.4,1.5,1,2.5,2.1,3.2c1,0.7,2.4,1,4.2,0.9
		c1.7,0,3.2-0.1,4.8-0.1c1.5,0,3,0,4.4,0c0.8,0,1.5,0,2.3,0c2.1,0,4.1,0.1,6.1,0.1c0.1,0,0.1,0,0.1,0c3.7,0.1,5.8-1.4,6.5-4.6
		c1.4-5.6,4.6-9,11.1-11.7c5.5-2.3,10.4-3.1,16.1,0.4c2.8,1.7,5.4,1.2,8-1.5c2.5-2.7,5.2-5.3,7.7-7.8c1.4-1.4,2.8-2.7,4.1-4.1
		c3.2-3.2,3.8-4.7,1.6-8.6c-3.1-5.6-2.4-10.2-0.4-15.4c2.7-6.8,6.2-10.2,12.2-11.6c2.9-0.7,4.3-2.7,4.2-6.2
		C366,293.7,366,289.8,366.1,286z M297.5,120.7c0-0.3,0.1-0.6,0.1-0.9c0-0.2,0.1-0.4,0.1-0.7l0.1-0.6H323v0.7c0,0.4,0.1,0.8,0.1,1.2
		c0.1,0.8,0.1,1.6,0.1,2.4c0,33.4,0,66.8,0,100.2c0,2.4-0.2,3.9-1.2,4.5c-0.3,0.2-0.7,0.3-1.1,0.3c-0.9,0-2.1-0.5-3.7-1.2
		c-2.8-1.3-5.8-2.7-8.8-3.6c-2.5-0.8-3.9-2.1-5.1-4.7c-0.9-2.1-0.7-6-1.9-7.8c-1-1.6-2.3-0.7-3.4-1.3c-0.7-0.4-0.6-2.2-0.6-3.3
		C297.5,177.5,297.5,149.1,297.5,120.7z M231.5,152.3h25.4V174c0,15.9,0,31.9,0,47.8c0,2.6-0.7,4.3-2,5.2s-3.2,0.8-5.5-0.2
		c-0.1-0.1-0.3-0.1-0.4-0.2c-0.3-0.1-0.6-0.3-1-0.4c-3.8-2.2-6.6-3-9-2.3c-2.3,0.6-4.2,2.4-6.1,5.5l-1.4,2.4V152.3z M347.2,298.9
		c-1,0.7-2.3,1.9-3.8,5c-0.8,1.8-1.5,3.7-2.2,5.5c-0.9,2.5-1.8,5-3.1,7.3c-2.2,4-2.4,7.1-0.4,10.6c2.4,4.4,2.1,5.8,1.6,6.5
		c-1.7,2.5-4.1,4.6-6.4,6.7c-0.5,0.4-1,0.9-1.4,1.3c-0.7,0.6-1.8,0.2-3.1-0.3c-0.7-0.3-1.4-0.6-2.1-1c-1.2-0.6-2.4-1.2-3.6-1.4
		c-2.2-0.4-4.4-0.3-6,0.3c-5.7,2-10.8,4.2-15.6,6.5c-1.8,0.9-3.6,2.6-4.9,4.5c-1,1.5-1.6,3.2-2.2,5c-0.3,0.8-0.6,1.6-0.9,2.4
		l-0.2,0.4h-0.5c-0.3,0-0.6,0-0.8,0c-0.6,0-1.1,0-1.6,0.1c-1.3,0.2-2.6,0.3-3.8,0.3c-4.5,0-8.9-1.8-10.3-9.2c-0.1-0.6-0.9-1.9-5-3.9
		c-1.8-0.9-3.8-1.6-5.7-2.3c-2.5-0.9-5.1-1.9-7.4-3.2c-3.6-2-6.5-2.1-10-0.5c-1.1,0.5-1.9,0.9-2.6,1.3c-3.5,1.7-3.8,1.7-6.3-1
		c-0.6-0.6-1.3-1.4-2.2-2.3c-0.8-0.8-1.4-1.4-2-1.9c-2.7-2.5-2.8-2.9-1.1-6.2c0.3-0.7,0.8-1.5,1.2-2.5c1.8-3.8,1.7-6.8-0.4-10.3
		c-2.2-3.7-3.9-7.8-4.8-11.6c-1-4.2-3.1-6.4-7.2-7.8c-5.9-2-6.1-2.6-6.1-8.6v-0.4c0-6.4,0.1-6.9,6.4-9.1c3.8-1.3,5.7-3.4,6.7-7.3
		c1.1-4.1,2.8-8.2,5-12c2.1-3.5,2.2-6.5,0.4-10.3c-0.5-1-0.9-1.8-1.2-2.5c-1.6-3.2-1.6-3.6,0.8-5.9c0.6-0.6,1.3-1.2,2.2-2.2
		c0.2-0.2,0.5-0.5,0.7-0.8c0.7-0.8,1.4-1.6,2.3-2.1c1.3-0.7,2.9-1,4.3-0.8c1.4,0.1,2.7,0.9,3.8,1.6c3.3,1.9,6.2,1.8,10-0.4
		c3.9-2.2,8-4,11.9-5c4-1,6.2-3,7.4-6.7c2.1-6.3,2.7-6.5,9-6.5l0,0h7.6v0.7c0.3,7.7,4.6,12,14.3,14.2c2.7,0.6,5.1,2,6.7,3.1
		c3.3,2.3,6.3,2.4,10.2,0.5c5.8-2.8,6.3-2.6,10.7,1.8l0.1,0.1c0.2,0.2,0.5,0.5,0.7,0.7c0.5,0.5,1,1,1.5,1.4c2.1,1.6,2.5,3.6,1,5.9
		c-0.1,0.2-0.2,0.4-0.3,0.5c-0.1,0.3-0.2,0.5-0.4,0.7c-2.7,4.4-2.6,8.3,0.3,12.7c1.9,2.9,3.3,6.5,4.4,10.7c1,4.3,3.3,6.4,5.3,7.2
		c1.3,0.5,3.1,0.7,5.5,1.8c2.3,1,3,3.1,3.4,9.1C357.7,296.1,348,298.3,347.2,298.9z"/>
	<path class="st2" d="M200.4,182.7c0-5.1-1.7-6.7-6.8-6.7c-5.4,0-10.8,0-16.2,0s-10.8,0-16.2,0c-5.2,0-6.7,1.6-6.7,6.8
		c0,46.1,0,92.2,0,138.4c0,5.3,1.6,7,7,7c9.4,0,19.5,0,31.7,0c5.8,0,7.3-1.5,7.3-7.4c0-16.7,0-33.5,0-50.2v-18.3V234
		C200.5,216.8,200.5,199.8,200.4,182.7z M190.1,317.7H165V186h25.1V317.7z"/>
	<path class="st2" d="M247.9,98.3c1.7-1.4,3.5-2.9,5.3-4.5l1.5-1.3l-0.3,1.9c-0.2,1.5-0.4,2.8-0.6,4.1c-0.4,2.8-0.8,5.2-1,7.6
		c-0.4,3.5,1.3,5.8,4.2,6.1c3.2,0.3,5.1-1.3,5.6-4.9c1.6-10,2.9-18.8,4.1-27.1c0.3-1.8-0.2-3.5-1.2-4.6s-2.7-1.7-4.6-1.7h-0.1
		c-5.1,0.2-10.5,0.5-16.1,0.8c-2.3,0.1-4.6,0.3-7,0.4c-1.2,0.1-2.4,0.1-3.6,0.2c-2.2,0.1-3.8,0.8-4.8,1.9c-0.8,0.9-1.2,2.1-1.1,3.6
		c0.2,3.1,2.7,4.9,6.6,4.6c2.2-0.1,4.4-0.3,6.5-0.4l3.5-0.2l0.5,1.8l-0.3,0.3c-0.2,0.2-0.5,0.5-0.7,0.7c-0.5,0.5-1.1,1-1.6,1.5
		c-39.2,34-83.3,63.6-131.1,88c-27.9,14.2-57.8,26.9-89,37.9c-2.2,0.8-3.8,2-4.4,3.4c-0.5,1.1-0.5,2.3,0,3.7c1.1,2.8,4,3.8,7.7,2.4
		c80-27.9,151.2-67.5,211.7-117.6C241,104.2,244.3,101.3,247.9,98.3z"/>
	<path class="st2" d="M127,213.5c-5.1,0-10.3,0-15.7,0c-5.1,0-10.4,0-16,0c-5.7,0-7.2,1.5-7.2,7.4c0,11.9,0,23.8,0,35.6v14.3v13.9
		c0,12,0,24,0,36c0,5.9,1.5,7.4,7.2,7.4c4.8,0,9.8,0,15,0s10.6,0,16.4,0c5.9,0,7.4-1.5,7.4-7.3c0-33.4,0-66.8,0-100.1
		C134,215,132.5,213.5,127,213.5z M123.6,318H98.5v-94.2h25.1V318z"/>
	<path class="st2" d="M274.9,51.5c1.8,1.4,3.5,2.8,5.2,4.2c2.1,1.7,4.3,3.5,6.5,5.1c1.8,1.4,2.8,2.8,1.9,5.6
		c-0.9,2.9-1.7,5.9-2.5,8.8c-0.5,1.9-1,3.7-1.5,5.6c-1,3.5-0.2,6.2,2.4,8c1.3,0.9,2.5,1.3,3.9,1.3c1.3-0.1,2.7-0.6,4.2-1.6
		s3.1-2,4.7-3c2.6-1.7,5.3-3.4,7.8-5.2c1.1-0.8,2-1.1,2.9-1.1c1,0,2,0.5,3,1.2c4.3,3,8.8,5.9,13.1,8.6c2.7,1.7,5.4,1.6,7.7-0.4
		c2.3-1.9,3-4.2,2.2-7.2c-0.6-1.9-1.1-3.9-1.5-5.8c-0.8-2.9-1.5-6-2.5-8.9s0.1-4.5,2-5.9c2.3-1.7,4.5-3.5,6.7-5.3
		c1.5-1.2,3-2.4,4.4-3.6c3.1-2.4,4-4.8,3.1-7.8c-0.9-3.1-3.3-4.7-7.6-4.9c-1.2-0.1-2.4-0.1-3.6-0.2c-3.4-0.2-6.8-0.4-10.2-0.4
		c-2.8,0-4.2-1-5.1-3.6c-1.2-3.6-2.6-7.1-3.9-10.6c-0.4-1.1-0.9-2.2-1.3-3.4c-1.2-3.3-3.4-4.8-6.7-4.8c-2.9,0.1-4.9,1.7-6,4.7
		c-0.5,1.4-1,2.7-1.6,4.1c-1.2,3.1-2.4,6.3-3.5,9.5c-0.8,2.4-2.1,4.1-5.4,4.1c0,0,0,0-0.1,0c-4.5,0-9.1,0.3-13.6,0.6l-1.3,0.1
		c-2.3,0.2-5.3,1.1-6.3,4.6C271.3,46.9,272.2,49.4,274.9,51.5z M289.9,49c1.2-0.1,2.2-0.2,3.3-0.3c2.2-0.2,4-0.4,5.9-0.4
		c3.7,0,6-1.7,7.2-5.3c0.6-1.7,1.3-3.4,2.1-5.4c0.4-0.9,0.8-1.9,1.2-3l0.7-1.8l0.7,1.8c0.4,1,0.8,1.9,1.1,2.7c0.8,1.8,1.4,3.4,1.9,5
		c1.4,4.3,3.9,6.2,8.2,6.1c1.8,0,3.5,0.1,5.5,0.4c1,0.1,2,0.2,3.1,0.3l1.9,0.2l-1.5,1.2c-0.8,0.6-1.4,1.2-2.1,1.7
		c-1.3,1.1-2.4,2.1-3.7,2.9c-4.3,2.8-5.5,6.3-3.7,11.1c0.5,1.5,0.9,3,1.2,4.5c0.2,0.7,0.3,1.4,0.5,2.1l0.4,1.5l-1.4-0.7
		c-1.4-0.7-2.8-1.4-4.1-2.2c-2.9-1.6-5.6-3.2-8.2-3.2l0,0c-2.5,0-5.1,1.7-7.9,3.4c-1.3,0.8-2.6,1.6-3.9,2.3l-1.5,0.8l0.4-1.6
		c0.2-0.8,0.4-1.7,0.6-2.5c0.4-1.8,0.9-3.7,1.5-5.6c1.1-3.8,0.2-6.6-2.8-8.9c-1.5-1.1-2.8-2.2-4.4-3.6c-0.8-0.6-1.6-1.3-2.5-2
		l-1.5-1.2L289.9,49z"/>
	<path class="st2" d="M61.2,249.4c-5.4,0-11,0-16.6,0c-5.5,0-11,0-16.6,0c-0.3,0-0.6,0-0.8,0c-4,0.2-5.5,2-5.5,6.4
		c0,7.9,0,15.8,0,23.8v1.2v8.2v9.6c0,7.7,0,15.5,0,23.2c0,4.6,1.7,6.3,6.1,6.3c5.3,0,10.7,0.1,16.2,0.1c5.6,0,11.3,0,17.2-0.1
		c4.5,0,6.2-1.7,6.2-6.2c0.1-23.5,0.1-45.2,0-66.3C67.5,251.1,65.8,249.4,61.2,249.4z M57.1,317.8H31.9v-58.3h25.2V317.8z"/>
	<path class="st2" d="M286.3,248.1c-0.1,0-0.1,0-0.2,0c-10.6,0-20.7,4.2-28.4,11.9c-7.8,7.7-12,17.9-12,28.6
		c0,21.8,18.5,40.3,40.3,40.5c0.1,0,0.2,0,0.3,0c10.5,0,20.6-4.2,28.3-11.9c7.8-7.8,12.1-17.9,12.1-28.6
		C326.6,266.7,308.2,248.2,286.3,248.1z M307.6,310.1c-5.7,5.6-13.3,8.7-21.4,8.7c-0.1,0-0.2,0-0.2,0c-16.9-0.1-30.1-13.4-30-30.3
		c0.1-16.8,13.3-30.1,30.1-30.2c0.1,0,0.1,0,0.2,0c8,0,15.6,3.1,21.2,8.8c5.8,5.8,8.9,13.4,8.9,21.6
		C316.4,296.8,313.3,304.4,307.6,310.1z"/>
</g>
</svg>
