<?xml version="1.0" encoding="utf-8"?>
<!-- Generator: Adobe Illustrator 23.0.1, SVG Export Plug-In . SVG Version: 6.00 Build 0)  -->
<svg version="1.1" id="Layer_1" xmlns="http://www.w3.org/2000/svg" xmlns:xlink="http://www.w3.org/1999/xlink" x="0px" y="0px"
	 viewBox="0 0 327.7 333.9" style="enable-background:new 0 0 327.7 333.9;" xml:space="preserve">
<style type="text/css">
	.st0{fill:#9A9A9A;}
</style>
<g>
	<path class="st0" d="M289.6,38c-12.4-12.3-26.8-21.9-43-28.4C230.9,3.2,214.4,0,197.5,0h0c-26.8,0-52.4,8.1-74,23.5
		C97,42.2,79.7,67.2,72,97.6c-9.3,36.8-3.3,72.2,18,105.2l1,1.6l-1.5,1.1c-0.4,0.3-0.8,0.6-1.2,0.9c-0.8,0.6-1.6,1.1-2.3,1.7
		c-5.8,4-11.6,8-17.4,12c-15.1,10.4-30.8,21.2-46,32c-5,3.5-9.1,7.2-12.4,11.1c-8.9,10.6-12.3,25-9,38.6c3.1,13,11.7,23.3,23.5,28.4
		c5.9,2.5,11.9,3.7,18,3.7c14.2,0,27.1-6.7,36.4-19c3.1-4,6-8.3,8.8-12.5c1.1-1.6,2.2-3.3,3.4-4.9c9.1-13.1,18.1-26.2,27.3-39.3
		l10.6-15.4l1-1.5l1.6,0.9c20.5,11.8,42.6,17.8,65.6,17.8c21,0,42.1-5.2,60.8-15.1c18.7-9.9,34.9-24.2,46.8-41.4
		c17.1-24.8,24.9-55.1,22.1-85.4C324.4,87.7,311,59.3,289.6,38z M122.3,238.4c-0.1,0.2-0.3,0.5-0.4,0.7c-0.3,0.6-0.7,1.3-1.2,2
		c-8,11.5-16,23.1-24,34.6c-7.2,10.4-14.4,20.8-21.6,31.3c-7,10.1-14.6,15.8-23.9,18c-2.5,0.6-5.1,0.9-7.8,0.9
		c-12.3,0-24.1-5.9-29.4-14.6c-8.6-14.1-7.6-31.4,2.5-43.2c2.7-3.1,5.8-5.9,8.9-8.1c17.5-12.3,35.4-24.6,52.7-36.6
		c4.9-3.4,12.1-8.4,17-11.8c0.6-0.7,5.3,5.7,7.3,7.5c2.2,1.9,4.4,3.9,6.5,5.6c3,2.5,5.9,5,9,7.6l4.1,3.5l1.3,1.1L122.3,238.4z
		 M197.4,252L197.4,252L197.4,252L197.4,252c-32.3,0-62.8-12.8-85.8-35.9C88.5,193,75.8,162.4,75.8,130C75.9,62.7,130.8,8,198.1,8h0
		h0.1c32.5,0,63.1,12.8,86.1,35.8c23,23.1,35.6,53.7,35.6,86.3C319.7,197.4,264.8,252,197.4,252z"/>
	<path class="st0" d="M198.1,36l-0.2,0c-51.8,0-94,42.1-94.1,93.9c0,51.7,42,94,93.7,94.1l0.3,0c51.8,0,94-42.1,94-93.9
		C291.9,78.3,249.8,36.1,198.1,36z M258.7,190.8C242.5,207,220.8,216,197.8,216l-0.1,0c-47.3-0.1-85.9-38.6-85.9-85.9
		c0-23,8.9-44.7,25.2-60.9C153.2,53,174.8,44,197.9,44l0.1,0c47.3,0,85.8,38.6,85.9,85.9C283.9,152.9,274.9,174.5,258.7,190.8z"/>
</g>
</svg>
