<?xml version="1.0" encoding="utf-8"?>
<!-- Generator: Adobe Illustrator 23.0.1, SVG Export Plug-In . SVG Version: 6.00 Build 0)  -->
<svg version="1.1" id="Layer_1" xmlns="http://www.w3.org/2000/svg" xmlns:xlink="http://www.w3.org/1999/xlink" x="0px" y="0px"
	 viewBox="0 0 384 384" style="enable-background:new 0 0 384 384;" xml:space="preserve">
<style type="text/css">
	.st0{fill:#818181;}
</style>
<path class="st0" d="M9.5,298.6c0,7.1,0.3,11.1,2,12.2c1.7,1.1,5.6-0.2,12.5-3.1c7.2-3,14.4-6.1,21.6-9.2
	c20.3-8.6,41.2-17.5,62-25.8c2.6-1,5.7-1.5,8.8-1.5c3,0,6,0.5,8.5,1.4c19.9,7.7,40.8,16.4,63.9,26.8c5.1,2.3,10.2,6.5,13.6,11.2
	c24.5,33.6,57,47.2,96.8,40.5c37.8-6.4,67.4-36,75.5-75.5c7.6-36.9-8.4-74.8-40.7-96.4c-6.4-4.3-8.7-8.7-8.6-16.2
	c0.3-29.1,0.2-79.1,0.2-115.6l0-17.2c0-6.5-0.4-11-2.5-12.4c-2-1.3-6.2,0-12,2.4c-8.7,3.7-17.5,7.4-26,11c-18.8,8-38.3,16.3-57.6,24
	c-5.4,2.2-13.1,2.2-18.5,0c-13.3-5.3-26.7-11-39.6-16.5c-14-6-28.5-12.2-43-17.8c-5.8-2.3-14-2.4-19.4-0.2
	c-15.8,6.3-31.8,13-47.2,19.6C46.4,46.1,32.6,52,18.9,57.5c-7.3,2.9-9.7,6.7-9.6,15.1c0.3,24.7,0.2,66.1,0.2,99.5
	c0,10.7,0,20.5,0,28.5l0,28.9C9.5,252.6,9.5,275.6,9.5,298.6z M346.4,309.7c-13.6,19.7-35.8,31.6-60.9,32.6c-1.2,0-2.3,0.1-3.5,0.1
	c-25.4,0-49.7-11.3-65.5-30.7l-0.5-0.6l0.4-0.6c6.2-9.5,15.9-13.6,25.3-17.7c3.4-1.5,7-3,10.3-4.7c1.6-0.9,3.9,0.6,6.4,2.2
	c0.6,0.4,1.3,0.8,1.8,1.1c14.1,7.9,27.9,7.9,42-0.1c3.5-2,9.6-2.1,13.3-0.3c7.5,3.6,14.9,8,22,12.2c2.8,1.7,5.7,3.4,8.5,5l0.9,0.5
	L346.4,309.7z M258.8,222.4c5.4-6.3,13.2-9.8,22-9.8c0.1,0,0.3,0,0.4,0c13.3,0.2,27.6,9.2,27.5,23.4c-0.1,16.3-2.6,30-7.4,40.7
	c-2.8,6.2-16.4,9.4-24.7,9.7c-0.2,0-0.4,0-0.7,0c-8.2,0-17.1-4.2-18.4-16.2c-0.4-3.9-1.6-7.9-2.8-11.7c-1-3.3-2.1-6.7-2.6-10.2
	C250.6,238.4,253,229.2,258.8,222.4z M223.3,73.7c0-2.5,2.4-6.1,4.7-7.1c22.6-9.7,44.9-19,68.5-28.9L315,30v1.5
	c0,18.2,0.3,44.4,0.5,69.8c0.2,24.6,0.5,50,0.5,67v1.2l-1.2-0.2c-45.5-7.8-54.6-5.6-90.3,11.8l-1.4,0.7v-1.6c0-4.8,0-10.6,0-17.1
	C223.1,134.1,223.1,94.3,223.3,73.7z M223.6,196.7c30.4-28.8,77.9-30.7,110.5-4.5c33.1,26.6,42,72.7,20.9,107.2l-0.5,0.8l-0.8-0.5
	c-3.3-1.8-6.5-3.6-9.7-5.4c-7.2-4.1-14.1-7.9-21.2-11.3c-8.1-3.8-10.1-8.5-7.4-17.2c2.4-7.7,5.1-17.8,4.6-27.6
	c-0.5-10.1-5.2-19.3-13.1-25.9c-8.7-7.2-20.3-10.4-31.9-8.9c-10.1,1.4-19.2,6.8-25.4,15.4c-6.9,9.5-9.6,22-7.4,34.1
	c0.5,2.5,1.3,5.2,2.1,7.9c1.8,5.9,3.7,12,1.6,16.4c-2.1,4.4-7.8,6.8-13.2,9.2c-2.7,1.2-5.4,2.4-7.7,3.8c-3.4,2.1-6.8,4.5-10,6.9
	c-1.5,1.1-2.9,2.1-4.4,3.2l-0.8,0.6l-0.6-0.8C190.6,274.5,190.9,227.8,223.6,196.7z M122.6,223.4c0-2.8,0-5.3,0-7.4V30l1.4,0.6
	c2.8,1.1,5.5,2.2,8.2,3.3c5.9,2.4,11.5,4.6,17.1,7c5.6,2.3,11.3,4.8,16.8,7.1c12.1,5.2,24.6,10.6,37.2,15.3
	c8.7,3.3,10.3,8.1,10.3,15.9c0,4.2,0.2,21.9,0.3,37.5c0.1,11.7,0.2,21.8,0.2,24.4c0,0.6,0,1.5,0.1,2.7c0.4,11.4,1.6,46-11.1,61.9
	c-16.6,21-20.6,47.7-12,81.6l0.5,1.9l-1.8-0.8c-7.5-3.1-14.9-6-22-8.8c-14.3-5.6-27.9-10.9-40.9-17.5
	C122.6,260.1,122.4,244.1,122.6,223.4z M29.5,63.8c18.8-7.5,37.3-15.2,56.8-23.5c7.5-3.2,15-6.3,22.7-9.6l1.3-0.6l0.1,1.4
	c0.1,1.8,0.2,3.4,0.3,4.9c0.2,2.9,0.3,5.4,0.3,8c0,16,0,34.3,0,53.7c0,50.5,0,107.8,0.2,149.6c0.1,8.4-1.8,14-11.4,17.8
	c-18.4,7.2-36.5,14.9-55.7,23c-7.6,3.2-15.3,6.5-23.3,9.8l-1.4,0.6v-82.7c0-8.6,0-18.8,0-30c0-35.4,0.1-79.4-0.2-106.3
	C19.2,71,21.9,66.8,29.5,63.8z"/>
<g>
	<path class="st0" d="M65.9,111.5c-17.2,0-25.4,15.2-22.4,27.8c2.6,9.9,22.6,37.8,22.6,37.8s21.5-30.7,23.2-38.5
		C91.9,126.5,82.8,111.5,65.9,111.5z M66.4,141.1c-4.4,0-7.9-3.5-7.9-7.9c0-4.4,3.5-7.9,7.9-7.9c4.4,0,7.9,3.5,7.9,7.9
		C74.3,137.6,70.7,141.1,66.4,141.1z"/>
</g>
<rect x="82.3" y="220.1" transform="matrix(0.7694 0.6387 -0.6387 0.7694 165.0885 -7.3863)" class="st0" width="20.9" height="9.7"/>
<rect x="63.2" y="192.7" transform="matrix(0.3239 0.9461 -0.9461 0.3239 236.695 63.9023)" class="st0" width="20.9" height="9.7"/>
<rect x="146.5" y="200.2" transform="matrix(-0.7694 0.6387 -0.6387 -0.7694 408.6866 262.5572)" class="st0" width="20.9" height="9.7"/>
<rect x="196.1" y="151.8" transform="matrix(-0.7694 0.6387 -0.6387 -0.7694 465.5297 145.2397)" class="st0" width="20.9" height="9.7"/>
<rect x="249.8" y="148.2" transform="matrix(-0.7308 -0.6826 0.6826 -0.7308 345.9634 442.4558)" class="st0" width="20.9" height="9.7"/>
<rect x="224.9" y="137.5" transform="matrix(-0.9871 -0.1602 0.1602 -0.9871 444.7887 320.5891)" class="st0" width="20.9" height="9.7"/>
<rect x="116.7" y="222.5" transform="matrix(-0.7694 0.6387 -0.6387 -0.7694 370.0987 320.9881)" class="st0" width="20.9" height="9.7"/>
<rect x="171.2" y="178.8" transform="matrix(-0.7071 0.7071 -0.7071 -0.7071 439.9139 185.0096)" class="st0" width="20.9" height="9.7"/>
<path class="st0" d="M282.1,248h-0.7c-2.1,0-3.8-1.7-3.8-3.8v-14.1c0-2.1,1.7-3.8,3.8-3.8h0.7c2.1,0,3.8,1.7,3.8,3.8v14.1
	C286,246.3,284.2,248,282.1,248z"/>
<path class="st0" d="M277.5,243.8L277.5,243.8c0-2.3,1.9-4.2,4.2-4.2h9c2.3,0,4.2,1.9,4.2,4.2l0,0c0,2.3-1.9,4.2-4.2,4.2h-9
	C279.4,248,277.5,246.1,277.5,243.8z"/>
</svg>
