<?xml version="1.0" encoding="utf-8"?>
<!-- Generator: Adobe Illustrator 23.0.1, SVG Export Plug-In . SVG Version: 6.00 Build 0)  -->
<svg version="1.1" id="Layer_1" xmlns="http://www.w3.org/2000/svg" xmlns:xlink="http://www.w3.org/1999/xlink" x="0px" y="0px"
	 viewBox="0 0 384 384" style="enable-background:new 0 0 384 384;" xml:space="preserve">
<style type="text/css">
	.st0{fill:#808080;}
	.st1{fill:none;stroke:#818181;stroke-width:10;stroke-miterlimit:10;}
</style>
<path class="st0" d="M372.7,307.7c0-2.3-0.6-4-1.5-4.9c-0.7-0.7-1.9-1-3.4-1c-2,0-4.2,0.1-4.2,6.5c0,9.6,0,19.5,0,29.6
	c-0.1,17.8-5.7,23.6-23.3,23.7c-32.3,0.2-65.4,0.2-98.4,0c-17.8-0.1-23.5-5.8-23.5-23.4c0-66.8,0-132.2,0-194.6
	c0-19,6.7-25.7,25.4-25.7c29.4-0.1,58.4,0,92.9,0c20.8,0,26.9,6,26.9,26.5c0.1,29.8,0.1,54.1,0,76.5c0,7.5,2.1,7.6,4.2,7.6
	c2.3,0,3.1-0.7,3.4-1c1-1,1.6-3.2,1.6-5.9c0-8.2,0-16.3,0.1-24.5c0.1-19.5,0.2-39.7-0.3-59.5c-0.4-16.6-12.2-28.4-28.8-28.7
	c-35.9-0.5-71.5-0.5-105.9,0c-16.9,0.3-28.5,12.2-28.8,29.7c-0.1,6.5-0.1,13-0.1,19.4c0,3,0,5.9,0,8.9v42H23.8l0-58.8
	c0-34.4,0-68.9,0-103.3c0-20.3,4.7-25,25.1-25c65.5,0,130.9,0,196.4,0l61.6,0c1.8,0,3.7,0,5.5,0c6.3,0,11.2,1.8,14.6,5.3
	c3.3,3.4,4.9,8.3,4.7,14.5c-0.1,4.9-0.1,10-0.1,14.9c0,4,0.1,8.2,0,12.3c-0.1,4.7,0.9,6.4,1.5,7c0.6,0.6,1.8,0.9,3.4,0.9
	c1.4,0,2.4-0.3,2.9-0.8c0.4-0.4,1.4-1.9,1.2-6.5c-0.2-5.3-0.1-10.7-0.1-15.9c0-2.4,0-4.8,0-7.2c0-25.4-8.1-33.6-33.2-33.6
	c-29.9,0-59.8,0-89.6,0l-35,0c-13.3,0-26.6,0-39.9,0c-32.4,0-65.9,0-98.9,0.1c-17.7,0-29.2,10.1-29.2,25.7
	c-0.3,66.6-0.3,137.2,0,209.8c0.1,16,10.8,26.4,27.3,26.5c20.4,0.2,41.2,0.1,61.3,0.1c8.7,0,17.4,0,26.1,0h18.2l0,10.2
	c0,3,0,5.6,0,8.2c-0.1,9.2-0.5,26-0.5,26s-16.4,0-25,0.3c-2,0.1-4.1,0.1-6.1,0.1c-3.8,0-7.4,0-10.9,0.4c-6.9,0.9-13,4.2-17,9.5
	c-4.1,5.3-5.8,12.2-4.7,19.2c2,13.9,12.6,22,29,22c39.6,0.1,79.8,0.1,118.8,0c15.1,0,30.2,0,45.3,0c6.6,0,13.2,0,19.8,0
	c15.3,0,31.1,0.1,46.6-0.1c17.1-0.2,28.3-9.4,29.4-24c0.7-10.3,0.5-20.9,0.3-31.2C372.7,312.8,372.7,310.3,372.7,307.7z
	 M108.6,265.8c-19.7,0-39.4,0-59.1,0c-20.8,0-25.6-4.8-25.6-25.7c0-3.4,0-6.8,0-10.4l0-10.8h184.7v46.8l-58.5,0
	C136.2,265.8,122.4,265.8,108.6,265.8z M209,361.5h-5.5c-8.1,0-16.3,0-24.5,0c-8.2,0-16.6,0-25,0c-14.8,0-29.7,0-44.5-0.2
	c-5.2,0-9.6-1.8-12.6-5c-2.1-2.2-4.5-6.2-4.1-12.6c0.5-9.4,7-15.1,17.4-15.1c11.4-0.1,22.9-0.1,34.1-0.1c6.5,0,12.9,0,19.4,0
	c0.8,0,1.5,0,2.3,0c9.2,0.1,9.7-0.8,9.9-4.3c0-1,0.1-3-0.6-3.7c-1.4-1.5-6.3-1.1-9.9-1.1l-0.4,0c0,0,0,0,0,0c-1.6,0-7.4,0-7.4,0
	l0.8-44.1l50.9,0.2V361.5z"/>
<circle class="st1" cx="56.1" cy="59.5" r="10.4"/>
<circle class="st1" cx="96.8" cy="59.5" r="10.4"/>
<circle class="st1" cx="137.5" cy="59.5" r="10.4"/>
<circle class="st1" cx="253.8" cy="247.5" r="10.4"/>
<path class="st1" d="M336.8,216.2h-94.3c-3.1,0-5.7-2.5-5.7-5.7v-13.4c0-3.1,2.5-5.7,5.7-5.7h94.3c3.1,0,5.7,2.5,5.7,5.7v13.4
	C342.5,213.7,339.9,216.2,336.8,216.2z"/>
</svg>
