<?xml version="1.0" encoding="utf-8"?>
<!-- Generator: Adobe Illustrator 23.0.1, SVG Export Plug-In . SVG Version: 6.00 Build 0)  -->
<svg version="1.1" id="Layer_1" xmlns="http://www.w3.org/2000/svg" xmlns:xlink="http://www.w3.org/1999/xlink" x="0px" y="0px"
	 viewBox="0 0 384 384" style="enable-background:new 0 0 384 384;" xml:space="preserve">
<style type="text/css">
	.st0{fill:#808080;}
</style>
<g>
	<path class="st0" d="M43.1,142.6c-10,0-20.1,0-30.1,0.1v216.9l17.1,0c79.8,0,159.6,0.1,239.4,0.1V142.4l-43.6,0
		c-32,0-64.1,0-96.1,0C100.9,142.4,72,142.5,43.1,142.6z M259.9,349.6H25.7L24,344c-3.2-10.1-1-18.5,6.5-25.9
		c15.9-15.5,31.9-31.5,47.3-47c6.3-6.4,12.7-12.7,19-19c1.1-1.1,2.3-2.2,3.7-3.5c0.7-0.6,1.5-1.4,2.4-2.2l5.7-5.2l64.1,64.4l36.3-36
		l5.6,5.6c3.8,3.8,7.7,7.7,11.5,11.4c10.1,9.9,20.5,20.1,30,31c0.9,1.1,3.1,4.1,3.1,4.1l0.5,12.9L259.9,349.6z M259.8,152.2v155.5
		L210,255.1l-35.4,36.8l-66.8-65.4l-84.6,85.5V152.2H259.8z"/>
	<polygon class="st0" points="127,35.3 168.2,35.3 168.8,47.3 178.9,47.3 180.1,35.1 310.7,35.1 312,47.5 322.1,47.5 322.7,35.2 
		363.4,35.2 363.4,206.9 323,206.9 322.2,195 312.7,195 312.7,217.1 374,217.1 374,25.4 117.6,25.4 117.6,99.3 127,99.3 	"/>
	<rect x="169.5" y="90.7" class="st0" width="8.6" height="8.8"/>
	<rect x="313" y="91" class="st0" width="8.6" height="8.7"/>
	<rect x="312.8" y="142.9" class="st0" width="8.7" height="8.5"/>
	<path class="st0" d="M191.6,205.7c0-3.3-1.1-6.2-3.1-8.3c-2.1-2.1-4.9-3.1-8.2-3.1h0c-6.2,0-11.3,5-11.4,11c0,3,1.3,6,3.6,8.2
		c2.2,2.2,5.1,3.4,8,3.4C186.7,216.9,191.6,212,191.6,205.7z"/>
</g>
</svg>
