<?xml version="1.0" encoding="utf-8"?>
<!-- Generator: Adobe Illustrator 23.0.1, SVG Export Plug-In . SVG Version: 6.00 Build 0)  -->
<svg version="1.1" id="Layer_1" xmlns="http://www.w3.org/2000/svg" xmlns:xlink="http://www.w3.org/1999/xlink" x="0px" y="0px"
	 viewBox="0 0 503.3 503.3" style="enable-background:new 0 0 503.3 503.3;" xml:space="preserve">
<style type="text/css">
	.st0{fill:#9A9A9A;}
</style>
<g>
	<path class="st0" d="M349.5,139.8c-13.2-11.9-30.2-18.4-47.7-18.4c-2.8,0-5.6,0.2-8.4,0.5c-16.6,2.1-32.2,9.9-43.8,22
		c-11.6,12.1-18.9,27.9-20.4,44.6l0,0c-2.4,24.3,7.2,48.4,25.6,64.5c5.3,4.6,8.3,11.3,8.3,18.3v17.4c0,8,3.1,15.5,8.8,21.2
		c5.7,5.7,13.2,8.8,21.2,8.8h17.2c8,0,15.5-3.1,21.2-8.8c5.7-5.7,8.8-13.2,8.8-21.2v-17.4c-0.1-6.9,2.9-13.5,8.1-18.1
		c16.4-14.2,26-34.8,26.2-56.5C374.7,175.1,365.6,154.4,349.5,139.8z M328.7,299.5c-3.8,6.6-10.9,10.7-18.5,10.8H293
		c-7.6,0-14.7-4.1-18.5-10.8l-3.8-6.5h61.7L328.7,299.5z M271.5,284.5v-17.3h60.2v17.3H271.5z M342.8,246.8
		c-3.1,2.7-5.6,5.9-7.4,9.6l-1.2,2.4h-28.4v-21.5c0-1.3-0.6-2.6-1.7-3.4l-29.5-22.1c-2-1.5-3.2-3.8-3.2-6.3v-7.6h4.3l-4.3-0.4
		c0.2-3,2.1-5.6,4.9-6.8s6-0.7,8.3,1.3l0.3,0.2l5,5c3.1,2.9,7.2,4.6,11.6,4.6s8.5-1.7,11.6-4.7l5.2-5.2c2.3-2,5.5-2.5,8.3-1.3
		s4.7,3.8,4.9,6.8v0.3v7.5c0,2.5-1.2,4.8-3.1,6.3l-8.8,6.6l5.1,6.8l8.8-6.6l0,0c4.1-3.1,6.5-8,6.5-13.1v-7.5c0-4.4-1.7-8.5-4.8-11.6
		c-3.1-3.1-7.2-4.8-11.6-4.8s-8.5,1.7-11.6,4.8l-5,5c-3.1,3.1-8.1,3.1-11.2,0l-5-5c-3.1-3.1-7.2-4.8-11.6-4.8s-8.5,1.7-11.6,4.8
		c-3,3-4.8,7.3-4.8,11.6v7.5c0,5.1,2.5,10,6.6,13.1l27.8,20.8v19.4h-28.4l-1.2-2.4c-1.9-3.7-4.4-7-7.5-9.7
		c-16.4-14.2-24.8-35.7-22.7-57.2c1.4-14.7,7.9-28.7,18.1-39.3c10.2-10.6,23.8-17.6,38.3-19.7h0.3c2.4-0.3,4.9-0.4,7.4-0.4
		c0,0,0,0,0.1,0c15.6,0,30.6,5.8,42.2,16.2c14.3,12.9,22.3,31.3,22.1,50.5C365.8,215.9,357.3,234.2,342.8,246.8z"/>
	<rect x="297.4" y="87.2" class="st0" width="8.5" height="17"/>
	<rect x="391.7" y="190.1" class="st0" width="17" height="8.5"/>
	<rect x="194.4" y="190.1" class="st0" width="17" height="8.5"/>
	
		<rect x="227.6" y="116.1" transform="matrix(0.7071 -0.7071 0.7071 0.7071 -20.1952 200.4467)" class="st0" width="8.5" height="17"/>
	
		<rect x="362.8" y="120.4" transform="matrix(0.7071 -0.7071 0.7071 0.7071 20.6297 299.0733)" class="st0" width="17" height="8.5"/>
	<path class="st0" d="M362.1,55.2c-19.3-8-39.9-11.9-60.5-11.9c-27.6,0-55.2,7.1-79.5,21.2c-42.4,24.5-71.5,68.1-77.9,116.7
		c-6.4,48.5,10.5,98.2,45.2,132.8c29.5,29.5,70.2,46.4,111.9,46.4c0.1,0,0.2,0,0.3,0h1.3c48.5-0.4,95-23.6,124.5-62.1
		c29.8-38.9,40-90.3,27.3-137.6C441.9,113.3,407.3,73.9,362.1,55.2z M407.8,307.9c-28.4,28.4-66.1,44-106.2,44s-77.8-15.6-106.2-44
		c-28.1-27.9-44.2-66.6-44.2-106.2s16.1-78.3,44.2-106.2c28.4-28.4,66.1-44,106.2-44s77.8,15.6,106.2,44c28.4,28.4,44,66.1,44,106.2
		S436.2,279.5,407.8,307.9z"/>
	<path class="st0" d="M444.3,59C408.4,23.2,360.8,2.3,310.2,0.2s-99.8,14.7-138.5,47.4s-63.5,78.4-69.9,128.7
		c-6.3,50.3,6.3,100.7,35.7,142l2.1,3l-20.2,20.2l-3-3.3c-2.4-2.4-5.6-3.7-9-3.7s-6.6,1.3-9.1,3.7L3.7,432.9
		C1.3,435.3,0,438.6,0,442s1.3,6.6,3.7,9.1l48.5,48.5c2.4,2.4,5.6,3.7,9.1,3.7c3.4,0,6.6-1.3,9.1-3.7l94.7-94.7
		c2.4-2.4,3.8-5.6,3.8-9.1c0-3.4-1.3-6.6-3.8-9.1l-3.1-3.1l24.8-24.8v8.2c41,28.4,90.7,40.7,140.2,34.4c50.3-6.3,96-31.2,128.7-69.9
		s49.6-87.9,47.4-138.5C501,142.5,480.1,94.9,444.3,59z M162.1,395.9L61.3,496.7L6.6,442l100.8-100.8L162.1,395.9z M156,377.7
		l-30.4-30.4l19.2-19.2l3.1,3.6c3.5,4.1,7.2,8.4,11.3,12.5c4,4,8.4,7.8,12.5,11.3l3.6,3.1L156,377.7z M480,275.6
		c-9.8,23.5-23.8,44.6-41.9,62.6c-18,18-39.1,32.1-62.6,41.9s-48.4,14.7-73.9,14.7s-50.3-4.9-73.9-14.7
		c-23.5-9.8-44.6-23.8-62.6-41.9c-18.1-18-32.2-39-42-62.6s-14.8-48.4-14.8-73.9s5-50.4,14.8-74s23.9-44.6,42-62.6
		c18-18,39.1-32.1,62.6-41.9s48.4-14.7,73.9-14.7s50.4,4.9,73.9,14.7s44.6,23.8,62.6,41.9c18,18,32.1,39.1,41.9,62.6
		s14.7,48.4,14.7,73.9C494.7,227.2,489.7,252.1,480,275.6z"/>
</g>
</svg>
