<?xml version="1.0" encoding="utf-8"?>
<!-- Generator: Adobe Illustrator 23.0.1, SVG Export Plug-In . SVG Version: 6.00 Build 0)  -->
<svg version="1.1" id="Layer_1" xmlns="http://www.w3.org/2000/svg" xmlns:xlink="http://www.w3.org/1999/xlink" x="0px" y="0px"
	 viewBox="0 0 379.4 379.4" style="enable-background:new 0 0 379.4 379.4;" xml:space="preserve">
<style type="text/css">
	.st0{fill:#9A9A9A;}
</style>
<g>
	<path class="st0" d="M332.4,64.9c-37-41.6-83.8-63.4-139.1-64.8c-39.6-1-76.1,9.7-108.7,31.8C40.2,62,12.7,104,2.9,156.6
		c-0.9,4.8-1.5,9.7-2.1,14.5c-0.3,2.2-0.6,4.5-0.9,6.7v23.7c0.3,2.1,0.6,4.3,0.8,6.4c0.6,4.6,1.2,9.4,2,14
		c8.5,47.8,32.3,87.3,70.6,117.4c29.4,23.1,63.6,36.3,101.6,39.4c1,0.1,7.8,0.6,16,0.6c4,0,14.6-0.5,16.7-0.7
		c4.4-0.5,8.9-1.1,13.3-1.8c42.9-7.4,79.2-27,107.7-58.2c39.8-43.5,56.3-95.4,49-154.3C373,126.9,357.8,93.4,332.4,64.9z
		 M317.7,318.1c-34.3,34.2-79.8,53.1-128,53.1c-0.1,0-0.3,0-0.4,0C89.4,370.9,8.2,289.5,8.3,189.5c0-48.4,19-94,53.4-128.2
		C96,27,141.4,8.2,189.7,8.2c0.1,0,0.2,0,0.4,0c100,0.2,181.2,81.7,181.1,181.6C371.2,238.2,352.2,283.8,317.7,318.1z"/>
	<path class="st0" d="M189.7,353.9C189.7,353.9,189.8,353.9,189.7,353.9c43.8,0,85-17.1,116.1-48.2c31.1-31.1,48.1-72.3,48.1-116
		c-0.1-90.3-73.7-163.9-164-164.1c-0.1,0-0.3,0-0.4,0C146,25.5,105,42.5,74,73.4c-31.2,31.1-48.4,72.4-48.4,116.2
		c0,43.8,17,85,48.1,116.1C104.7,336.7,146,353.9,189.7,353.9z M76.4,82.8c28.7-30.4,67.5-47.7,109.1-48.9
		c41.7-1.2,81.3,14,111.4,42.8c30.2,28.7,47.4,67.6,48.6,109.6c1.1,41.4-14.1,80.7-43,110.8c-28.8,30.1-67.8,47.3-109.8,48.5l0,0
		c-0.9,0-1.8,0-2.7,0c-40.4,0-78.6-15.2-107.8-43C52.3,274,35.2,235.4,33.9,193.9C32.7,152.5,47.8,113,76.4,82.8z"/>
	<path class="st0" d="M97.5,174.6c4.1,0.5,8.3,0.8,12.3,1.1c2.1,0.2,4.2,0.3,6.3,0.5l4.9,0.4c10.1,0.9,20.1,1.8,30.2,2.7
		c5.2,0.5,8.4,3.2,8.5,7.4c0,1.5,0.1,3,0.2,4.5c0.3,7.9,0.7,16-2.6,24.1c-6.6,16.5-13.3,33.4-19.6,49.7c-3.4,8.6-6.8,17.2-10.1,25.8
		c-2.7,6.9-2,12.7,2,17.9c3.7,4.8,9.5,7.1,15.3,6.3c6.1-0.8,11.3-4.9,13.8-10.9c5.4-12.9,10.8-26.1,15.9-38.8
		c2.4-5.9,4.8-11.8,7.2-17.6c1.2-3,2.4-5.9,3.8-9.1l4-9.7l2.2,4.7c0.3,0.6,0.5,1.2,0.8,1.6c0.4,0.9,0.8,1.7,1.1,2.4l5.8,14
		c6.9,16.8,14.1,34.2,21.1,51.4c2.1,5.1,5,8.4,9,10.3c6.1,2.9,13.5,1.8,18.5-2.7c5.4-4.8,7-12.1,4.3-19.1c-2-5.1-3.9-10.1-5.9-15.2
		c-6.6-17.2-13.5-35-20.7-52.3c-4.9-11.6-6.9-22.9-6.2-34.5c0.4-7.3,3-9.9,10.1-10.5l2.7-0.2c16.1-1.4,32.8-2.9,49.2-4.4
		c8.2-0.8,14.8-6.9,15.6-14.6c0.6-5.4-1.1-10.6-4.5-14.2c-3.3-3.5-8-5.2-13.1-4.9c-17.4,1.1-34.6,2.8-47.7,4.1
		c-27.6,2.8-55.8,2.8-83.9,0c-18.7-1.9-33.8-3.2-47.7-4.1c-0.4,0-0.8,0-1.3,0c-8.8,0-15.8,6.4-16.5,15.3
		C81.6,165.7,88,173.5,97.5,174.6z M90.6,157.2c0.1-2.4,1.1-4.6,2.7-6c1.7-1.5,4.1-2.2,6.8-2l3.8,0.3c11.4,0.9,23.2,1.8,34.7,3.1
		c26.2,2.9,50.1,3.7,73,2.4c14.3-0.8,28.9-2.2,43-3.6c6.3-0.6,12.9-1.3,19.3-1.8l1.1-0.1c1.5-0.1,3.1-0.3,4.6-0.3
		c5.2-0.1,8.9,3.1,9.2,7.9c0.3,4.9-2.9,8.7-7.9,9.2c-4.2,0.5-8.5,0.9-12.7,1.2l-3.4,0.3c-4.9,0.4-9.8,0.9-14.8,1.3
		c-7.3,0.6-14.6,1.3-21.8,1.9c-10.8,1-16.5,7.2-17.1,18.6c-0.6,13.1,1.7,25.6,7,38.3c6.4,15.2,12.5,30.8,18.3,45.9
		c2.5,6.4,5,12.8,7.5,19.2c0.1,0.2,0.2,0.4,0.3,0.6c0.3,0.8,0.6,1.6,0.9,2.5c1.1,4.7-1.1,9-5.5,10.5c-4.3,1.5-8.6-0.4-10.5-4.6
		c-1.2-2.6-2.3-5.3-3.3-7.9c-0.4-1.1-0.9-2.2-1.3-3.2l-7.1-17.2c-5.8-14.1-11.6-28.2-17.5-42.3c-2.2-5.4-5.6-7.7-10.7-7.4
		c-4.5,0.3-7.5,2.6-9.4,7.5c-6.8,16.6-13.6,33.1-20.5,49.7l-7.4,17.9c-0.3,0.8-0.6,1.6-1,2.4c-1.7,3.7-4.7,5.7-7.9,5.7
		c-1.1,0-2.3-0.2-3.4-0.7c-4.7-2-6.5-6.5-4.5-11.6c3.3-8.5,6.7-17.1,9.9-25.5l1.8-4.5c1.5-3.9,3.1-7.9,4.6-11.8
		c4-10.2,8.1-20.7,12.3-31c3.9-9.6,5.4-17.2,4.7-24.1l0-0.2c0-1.4,0-2.7,0-3.9c0-2.4,0-4.4,0-6.4c-0.4-8.5-6-14.9-14-15.9
		c-8.9-1.1-17.9-1.9-26.7-2.7c-3.5-0.3-7-0.6-10.5-0.9c-2.8-0.3-5.5-0.5-8.3-0.7c-3.2-0.3-6.4-0.5-9.6-0.9
		C93.7,165.9,90.4,162.2,90.6,157.2z"/>
	<path class="st0" d="M189.8,129.8c0,0,0.1,0,0.1,0c19.9-0.1,36-16.3,35.9-36.2c0-9.7-3.8-18.7-10.6-25.5
		c-6.8-6.7-15.8-10.4-25.5-10.4c0,0-0.1,0-0.1,0c-9.7,0-18.7,3.8-25.5,10.6c-6.8,6.8-10.5,15.9-10.4,25.6
		C153.7,113.7,169.9,129.8,189.8,129.8z M189.8,65.9C189.8,65.9,189.8,65.9,189.8,65.9c15.3,0,27.8,12.5,27.8,27.7
		c0,7.5-2.9,14.5-8.1,19.8c-5.2,5.2-12.2,8.1-19.7,8.1c-0.1,0-0.1,0-0.2,0c-15.2-0.1-27.6-12.6-27.5-27.9
		C162,78.3,174.5,65.9,189.8,65.9z"/>
</g>
</svg>
