<?xml version="1.0" encoding="utf-8"?>
<!-- Generator: Adobe Illustrator 23.0.1, SVG Export Plug-In . SVG Version: 6.00 Build 0)  -->
<svg version="1.1" id="Layer_1" xmlns="http://www.w3.org/2000/svg" xmlns:xlink="http://www.w3.org/1999/xlink" x="0px" y="0px"
	 viewBox="0 0 381 369.8" style="enable-background:new 0 0 381 369.8;" xml:space="preserve">
<style type="text/css">
	.st0{fill:#9A9A9A;}
</style>
<g>
	<path class="st0" d="M344.4,0.1c-66.5,0-133,0-199.5,0l-31.5,0l-0.7,0c-1,0-2,0-2.9,0.1c-2.3,0.3-3.5,1.5-3.6,3.7
		c-0.1,2.4,1,3.8,3.4,4.2c1.4,0.2,2.8,0.2,4.2,0.2h0.4c76.9,0,153.7,0,230.6,0c16.9,0,27.8,10.8,27.8,27.6c0,69.1,0,138.2,0,207.4
		c0,0.9-0.1,1.7-0.1,2.5c0,0.3,0,0.6-0.1,0.9l-0.1,1.7l-14.3-3v-26.8c0-34.6,0-69.2,0-103.7c0-3.2-0.5-5.3-1.6-6.3
		c-0.6-0.6-1.5-0.9-2.6-0.8c-1.9,0.1-4,0.6-4,7.1l0,29.4c0,14.3,0,28.6,0,43c0,1-0.1,1.9-0.1,3.1c0,0.6-0.1,1.2-0.1,1.9l-0.1,3.3
		l-3.5-3.3c-0.7-0.6-1.1-1.1-1.6-1.5c-10.9-10.2-26-14.2-40.3-10.8c-14.4,3.5-26.1,14-31.2,28.1c-2.5,7-2.5,14-2.5,21.5l0,2
		c0,3,0,5.9,0,9l0,5.6l-2.5,0.2c-0.7,0.1-1.3,0.1-1.9,0.2c-7.4,0.6-12.9,4.1-16.1,10.5c-1.6,3.1-3.5,4.2-7,4.2c0,0,0,0,0,0
		c-51.9-0.1-104.8-0.1-155.8-0.1l-41.8,0c-10.4,0-14.1-3.7-14.1-14c0-67.4,0-134.7,0-202.1c0-10.5,3.5-14.1,14-14.1
		c97,0,194,0,291,0c10.2,0,13.8,3.6,13.8,13.9c0,8.4,0,16.9,0,25.3l0,11.5c0,0.7,0,1.4,0,2.1c0.1,5.9,3.1,5.9,4.1,5.9
		c1.1,0,2-0.3,2.7-1c1-1,1.5-2.6,1.5-4.8l0-5c0-11.7,0.1-23.9,0-35.8c-0.1-12.8-7.8-20.4-20.6-20.4c-106,0-202.1,0-294,0
		c-2.7,0-4.8,0.2-6.6,0.7c-9,2.5-13.9,9.9-13.9,20.8c0,67.7,0,135.5,0,203.2c0,1.7,0,3.2,0.2,4.7c1,8.1,5.3,13.5,13,16
		c3.1,1,6.7,1.1,9.9,1.1c53.6,0.1,108.2,0.1,160.9,0l40.5,0v14.3H94.7c-5.8,0-11.6,0-17.5,0c-13.3,0-27.1,0-40.7,0
		c-17.7-0.1-28.3-10.6-28.3-28.3c0-72.9,0-145.7,0-218.6v-0.3c0-2.1,0-4.2,0.4-6.3c2.3-13.1,12.5-21.6,26-21.7
		c8.6-0.1,17.3-0.1,25.7,0c7.4,0,15.1,0,22.6,0c2.3,0,5-0.7,5-4.1c0-3.3-2.7-4-5-4c-4.4,0-8.7,0-13.1,0C57.4,0,44.6-0.1,32,0.3
		C18.2,0.7,6.3,9.7,1.8,23.4c-0.4,1.3-0.9,2.7-1.2,4C0.3,28,0.2,28.5,0,29.1v233.6c0.2,0.6,0.3,1.1,0.5,1.7c0.4,1.3,0.8,2.7,1.3,4
		c4.9,14.6,17.9,23.4,34.7,23.4c17.9,0,36.1,0,53.7,0c7.6,0,15.2,0,22.8,0h7.4l-1.2,2.2c-0.9,1.6-1.8,3.2-2.6,4.7
		c-1.8,3.1-3.4,6-4.5,9c-3.6,9.8-9.8,13.5-19,11.4c-0.3-0.1-0.8,0-1.2,0c-0.2,0-0.4,0-0.6,0c-10.1,0.6-18.3,9.1-18.5,19.2
		c-0.1,5.5,1.8,10.6,5.5,14.4c3.8,3.9,9.1,6.1,15,6.1c29.3,0,58.7,0,88,0l40.5,0c2.4,0,4.8,0,7.3,0c5.6,0,11.3,0,16.9,0.1
		c1.7,0,3.9,0.8,4.9,2.1c4.3,6,10.2,8.7,18.5,8.7c0,0,0,0,0.1,0c15,0,30,0,45,0c14.9,0,29.8,0,44.6,0c14.2,0,21.9-7.9,21.9-22.1
		c0-103.7,0-207.5,0-311.2C381,14.4,366.6,0.1,344.4,0.1z M247.4,350.2l-1.3,0.2c-0.3,0-0.5,0.1-0.8,0.1c-0.6,0.1-1.2,0.2-1.9,0.2
		l-6.1,0c-25.8,0-51.5,0-77.3,0c-22.1,0-44.2,0-66.2,0c-4.6,0-8.8-2.1-11-5.5c-2-3.1-2.3-7-0.7-10.6c2-4.6,5.9-7.1,11.2-7.1
		c4.8,0,9.6,0,14.3,0l20.5,0c31.5,0,63,0,94.5,0c0.3,0,0.7,0,1,0c0.9,0,1.7,0,2.4-0.1c2.3-0.5,3.5-1.9,3.5-4c0-2.2-1.2-3.5-3.5-4
		c-0.7-0.2-1.5-0.1-2.4-0.1c-0.3,0-0.7,0-1,0c-28.6,0-57.2,0-85.8,0h-21.4l1.2-2.2c1-1.9,2-3.8,3-5.7c3.2-6.1,6.3-11.9,9.6-17.6
		c0.3-0.5,1.1-1.9,5.6-1.9c25.6-0.1,51.6,0,76.7,0l36,0V350.2z M278.6,233c-0.2-8.1-0.5-16.4,2.9-24.5c6.3-15.2,22.3-23.9,38.9-21.2
		c16.1,2.7,28.4,16.4,29.3,32.7c0.3,5.6,0.2,11.3,0.1,16.8c0,2.6-0.1,5.1-0.1,7.7v1.5h-14.1l0-3c0-1,0-2,0-3c0-2,0-4,0-6
		c0-4.4,0.1-9-0.2-13.4c-0.8-11.2-9.8-19.6-21.1-19.6c0,0-0.1,0-0.1,0c-11.3,0-20.4,8.5-21.1,19.7c-0.3,4.3-0.3,8.8-0.2,13.1
		c0,2,0,3.9,0,5.9c0,1,0,2,0,3.1l0,3.2h-14.4l0.1-1.6C278.8,240.7,278.7,236.8,278.6,233z M301.4,237.1c-0.1-5.7-0.2-11.6,0.2-17.4
		c0.4-6.3,6.8-10.3,12.4-10.3c5.9-0.1,12.4,4,12.8,10.3c0.4,5.8,0.3,11.7,0.2,17.4c0,2.5-0.1,5-0.1,7.5v1.5h-25.6v-1.5
		C301.5,242.1,301.4,239.6,301.4,237.1z M372.7,348.4c0,8.6-4.5,13.1-12.9,13.2c-15,0-30.3,0.1-45.6,0.1c-15.2,0-30.4,0-45.6-0.1
		c-8.5,0-13-4.6-13-13.1c0-26.9,0-53.7,0-80.6c0-8.8,4.4-13.2,13.1-13.3c10.7,0,21.4,0,32.1,0l13.3,0l13.4,0c10.6,0,21.3,0,31.9,0
		c8.8,0,13.1,4.3,13.2,13.2C372.8,294.6,372.8,321.5,372.7,348.4z"/>
	<path class="st0" d="M149.1,162.3c0.6,0.1,1.3,0.1,1.9,0c0.3,0,0.6,0,0.9,0l29.8,0c38.1,0,76.1,0,114.2,0c13.1,0,20.9-7.8,21-20.8
		c0.1-10.7,0.1-22,0-36.7c-0.1-13.7-7.7-21.2-21.4-21.2c-25.4,0-50.9,0-76.3,0l-28.6,0l-30,0c-25.4,0-50.7,0-76.1,0
		c-11.9,0-20,7.8-20.2,19.4c-0.2,13.6-0.2,27,0,40.1c0.2,11.5,8.2,19.2,19.9,19.3c10.7,0,21.5,0,32,0l5.1,0c5.8,0,5.8-3.1,5.8-4.1
		c0-1.1-0.3-2.1-1-2.7c-0.9-0.9-2.6-1.4-4.8-1.4c-6.6,0-13.1,0-19.7,0c-5.4,0-10.9,0-16.3,0c-8.9,0-12.9-4-12.9-12.9
		c0-11.6,0-23.8,0-36.4c0-9,4.1-13,13.2-13c70,0,140,0,209.9,0c9,0,13.1,4,13.1,13.1c0,12.9,0,25.8,0,35.6c0,9.7-3.8,13.5-13.4,13.5
		l-142.5,0c-0.3,0-0.7,0-1,0c-0.3,0-0.7,0-1,0c-0.5,0-1.1,0-1.6,0.1c-2.4,0.3-4,1.9-3.9,4.2C145.4,160.7,146.6,162,149.1,162.3z"/>
	<path class="st0" d="M123,110.9c-1.4-0.4-3.3,0.6-5.2,1.6c-1,0.6-2.1,1.1-3.2,1.5l-1.9,0.7l-0.2-2c-0.7-8.5-2-9-4.3-9.1
		c-2.2-0.1-3.4-0.1-4.6,9l-0.3,2l-1.8-0.8c-0.9-0.4-1.8-0.9-2.7-1.4c-1.9-1.1-3.8-2.2-5.3-1.8c-0.8,0.2-1.6,1-2.3,2.3
		c-1.8,3.2-0.5,4.3,3.4,6.7c0.9,0.6,1.9,1.1,2.8,1.8l1.7,1.3l-1.8,1.2c-0.6,0.4-1.3,0.8-1.9,1.2c-4,2.4-5.4,3.6-3.7,6.8
		c1.8,3.3,3.6,2.6,7.1,0.9c1-0.5,2-1,3-1.3l1.7-0.6l0.2,1.8c0.2,1.2,0.1,2.4,0.1,3.5c0,4.4,0.3,6,3.7,6.2c1.6,0.1,2.7-0.1,3.4-0.7
		c1.1-1,1.2-3.2,1.3-5.4c0-1,0.1-2.1,0.2-3.1l0.3-1.8l1.7,0.7c8.3,3.1,8.8,2.2,9.9,0.3c1.2-2,1.4-3.1-5.4-8.2l-1.5-1.1l1.4-1.2
		c0.9-0.7,1.9-1.3,2.9-1.9c3.4-2,4.9-3.1,3.2-6.4C124.6,111.9,123.8,111.1,123,110.9z"/>
	<path class="st0" d="M179.2,113.1c-1.9-3.5-3.7-2.7-7.5-0.7c-1,0.6-2.1,1.1-3.2,1.5l-1.9,0.7l-0.1-2c0-0.7,0-1.4-0.1-2.2
		c0-4.9-0.4-6.7-4.2-6.8c-0.1,0-0.1,0-0.2,0c-3.5,0-3.8,1.7-4,6.1c0,0.9-0.1,1.8-0.2,2.7l-0.2,1.9l-1.8-0.7c-1-0.4-2-1-3-1.5
		c-3.7-2.1-5.4-2.8-7.4,0.4c-2,3.4-0.4,4.5,3.2,6.7c0.9,0.6,1.9,1.2,2.7,1.8l1.5,1.2l-1.5,1.2c-7.1,5.5-6.7,6.3-5.5,8.2
		c2,3.2,3.7,2.5,7.2,0.8c0.9-0.5,1.9-0.9,2.9-1.3l1.7-0.6l0.3,1.8c0.2,1.2,0.2,2.5,0.2,3.7c0,4.1,0.1,5.9,3.8,6.1
		c1.5,0.1,2.6-0.2,3.2-0.8c1.1-1,1.2-3.2,1.3-5.3c0-1.1,0.1-2.3,0.3-3.4l0.3-1.9l1.7,0.8c7.7,3.3,8.7,2.4,9.8,0.3
		c1.1-2,1.4-3.4-5.5-8l-1.7-1.2l1.7-1.3c0.9-0.7,1.9-1.3,2.9-1.9C179.8,117.4,181,116.3,179.2,113.1z"/>
	<path class="st0" d="M233.2,113.2c-1.9-3.5-3.7-2.7-7.5-0.7c-1,0.5-2,1.1-3.1,1.5l-1.8,0.7l-0.2-1.9c-0.1-0.9-0.1-1.8-0.2-2.6
		c-0.2-4.6-0.6-6.3-4.2-6.4c-0.1,0-0.1,0-0.2,0c-3.5,0-3.9,1.7-4,6.2c0,0.9-0.1,1.8-0.2,2.8l-0.2,2.1l-1.9-0.9
		c-0.9-0.4-1.8-0.9-2.6-1.4c-4.1-2.4-5.8-3-7.7,0.2c-2,3.3-0.5,4.5,3.2,6.7c1,0.6,2,1.2,2.9,2l1.6,1.3l-1.7,1.1
		c-0.6,0.4-1.2,0.8-1.9,1.2c-4,2.4-5.4,3.7-3.6,6.8c1.7,3.1,3.4,2.7,7.3,0.7c0.9-0.4,1.7-0.9,2.6-1.2l1.7-0.7l0.3,1.8
		c0.2,1.2,0.2,2.5,0.2,3.7c0,4.1,0.2,5.9,3.8,6.1c1.5,0.1,2.6-0.2,3.2-0.8c1.1-1,1.2-3.2,1.3-5.3c0-1.1,0.1-2.3,0.3-3.3l0.3-1.9
		l1.7,0.7c7.8,3.3,8.7,2.4,9.8,0.3c1.1-2,1.4-3.4-5.5-8l-1.7-1.2l1.7-1.3c0.9-0.7,1.9-1.3,2.9-1.9
		C233.8,117.4,235,116.3,233.2,113.2z"/>
	<path class="st0" d="M264.9,142.1c2.8,0,5.7,0,8.5,0c3.3,0,6.6,0,9.9,0c2.9-0.1,4.7-1.7,4.7-4.1c0-2.5-1.8-4.1-4.7-4.1
		c-4.6,0-9.3-0.1-14-0.1c-4.7,0-9.4,0-14.1,0.1c-2.9,0-4.7,1.6-4.7,4.1c0,2.4,1.8,4,4.7,4.1C258.4,142.2,261.7,142.2,264.9,142.1z"
		/>
	<path class="st0" d="M314.3,282.1C314.2,282.1,314.2,282.1,314.3,282.1c-7.7,0-14.4,4.6-17.2,11.8c-2.4,6.4-1.6,15.4,4.6,19.6
		c7,4.6,9.5,9.5,8.7,16.8c-0.1,0.7,0.1,1.4,0.5,1.9c0.6,0.7,1.8,1.2,3.2,1.3c2.5,0.1,3.8-1.1,4.1-3.5c0.3-2.2,0.3-4.3,0.1-6.4
		c-0.3-3.3,0.9-5.3,4.1-6.8c7.6-3.6,11.6-12.1,9.6-20.6C330.3,288,322.7,282.1,314.3,282.1z M314.3,310.4
		C314.3,310.4,314.3,310.4,314.3,310.4c-5.6,0-10-4.4-10.1-10c0-2.7,1-5.3,2.9-7.1c1.9-1.9,4.4-2.9,7.1-2.9c0,0,0,0,0,0
		c5.6,0,10,4.4,10,10C324.3,306,319.9,310.4,314.3,310.4z"/>
</g>
</svg>
