<?xml version="1.0" encoding="utf-8"?>
<!-- Generator: Adobe Illustrator 23.0.1, SVG Export Plug-In . SVG Version: 6.00 Build 0)  -->
<svg version="1.1" id="Layer_1" xmlns="http://www.w3.org/2000/svg" xmlns:xlink="http://www.w3.org/1999/xlink" x="0px" y="0px"
	 viewBox="0 0 381 354.2" style="enable-background:new 0 0 381 354.2;" xml:space="preserve">
<style type="text/css">
	.st0{fill:#9A9A9A;}
</style>
<path class="st0" d="M367.4,0c-47.3,0-94.5,0-141.8,0c-8.7,0-13.3,4.6-13.3,13.4c0,26.7,0,53.5,0,80.2c0,1.3,0,2.6,0.3,3.8
	c1.4,6.3,6.1,9.6,13.9,9.6c29.7,0,59.4,0,89.1,0l37.3,0v123.6h-22.2l0.5-1.9c0.1-0.5,0.3-1,0.4-1.5c0.2-1,0.5-1.9,0.7-2.8
	c3.3-10.4,3.9-21.2,1.9-32.3c-3.4-18.5-14-34.3-29.8-44.5c-16-10.3-35.1-13.5-53.7-8.9c-18.1,4.5-33.1,16-42.4,32.4
	c-9.2,16.3-11.3,35.9-5.8,53.6c8.3,26.6,32.9,46.2,60,47.7c25.5,1.3,46.1-8.6,61.2-29.7l0.3-0.4c1-1.4,2.1-2.9,3.7-3
	c6.1-0.2,12.1-0.2,18.5-0.1c1.9,0,3.8,0,5.7,0h1.5l0,11.3c0,7.3,0,14.5,0,21.7c0,10.4-6.3,16.6-16.6,16.6c-103.9,0-207.7,0-311.6,0
	c-10.2,0-16.6-6.4-16.7-16.7c0-8.3,0-16.7,0-24.8l0-3.3c0-0.8,0.1-1.5,0.1-2.3c0-0.4,0.1-0.8,0.1-1.2l0.1-1.4l170.1,0
	c0.4,0,0.7,0,1.1,0c0.9,0,1.7,0,2.5,0c2.7-0.2,4.4-1.9,4.4-4.2c0-2.4-1.7-3.9-4.4-4.1c-0.9-0.1-1.7,0-2.6,0c-0.3,0-0.7,0-1,0
	l-170.4,0l0-182c0-12.7,5.9-18.6,18.7-18.6l158.3,0c0.3,0,0.7,0,1,0c1,0,2,0,3-0.1c2.5-0.2,3.7-1.5,3.8-3.9c0.1-2.3-1.1-3.7-3.6-4.3
	c-0.7-0.2-1.6-0.1-2.4-0.1c-0.3,0-0.7,0-1,0c0,0,0,0,0,0c-22.3,0-44.6,0-66.9,0l-35.4,0c-20.4,0-40.8,0-61.2,0
	c-10.8,0-18.5,5.7-21.8,16c-0.2,0.5-0.4,1-0.6,1.4c0,0-0.1,0.1-0.1,0.1v237.9c3.7,13.8,13.3,20.4,29.2,20.1
	c25-0.4,50.3-0.3,74.9-0.2c10.2,0,20.3,0.1,30.5,0.1h6.2v27.5h-1.5c-2,0-4,0-6,0c-2,0-3.9,0-5.9,0c-2.3,0-4.6,0-7,0
	c-12.6,0.1-22.8,8.9-25,21.3c-0.5,3.1-0.3,5.1,0.7,6.3c1,1.2,3,1.8,5.9,1.8c0,0,0,0,0.1,0c44.4-0.1,89.5-0.1,133.1-0.1
	c13.9,0,27.8,0,41.7,0c4.7,0,7.2-0.6,8.3-2c1.1-1.4,1-4.1-0.2-8.7c-0.1-0.3-0.2-0.5-0.3-0.8c-0.1-0.2-0.1-0.4-0.2-0.5
	c-3.4-10.3-12.7-17.1-23.5-17.3c-4.4-0.1-8.9-0.1-13.3,0c-2,0-4,0-6,0h-1.5v-27.5l25,0c23.4,0,46.9,0,70.3,0c2.5,0,5.3-0.1,7.8-0.7
	c11.4-2.7,18.2-11.9,18.2-24.5c0-38.9,0-77.8,0-116.7l0-48.4l3.3,0c1.1,0,1.9,0,2.8,0c8.8-0.2,13.2-4.8,13.3-13.6
	c0-26.6,0-53.2,0-79.9C381,4.7,376.3,0,367.4,0z M271.9,146l1.5,0c21.1-0.5,45.6,19.3,50.6,40.9l0.3,1.5l-52.4,11.1V146z
	 M258.1,261.3l-0.2,1.3l-1.3,0c-0.3,0-0.6,0-0.9,0c-9.2,0-19.1-4.7-27.9-13.3c-12.4-12-20-29.1-20-44.5
	c0.1-37.3,31.1-58.4,53.5-59.2l1.5-0.1l0.1,1.5C264.4,184.4,262.8,222.8,258.1,261.3z M291.4,258.5c-4.3,3-13.4,5.3-20.3,5.3
	c-1.1,0-2.1-0.1-3.1-0.2l-1.4-0.2l3.5-39.8l2.8-0.9l19.6,34.9L291.4,258.5z M301.5,253.3l-1.4,0.9L274,207.6l52-11l0.3,1.5
	C329.5,214.5,322,239.5,301.5,253.3z M149.4,297.7h82.1v26.8h-82.1V297.7z M259.2,333.1c8.3,0,13.9,3.5,16.5,10.4l0.8,2H104.1
	l0.9-2.1c2.6-6,7.2-9.3,13.9-10.3c0.8-0.1,1.7-0.1,2.5-0.1l0.4,0l22.3,0C182.4,333.1,220.8,333.1,259.2,333.1z M226.1,93.3
	c-0.5,0.6-0.9,1.1-1.6,1.8c-0.4,0.4-0.8,0.8-1.2,1.3l-2.6,2.9l0-25.3c0-19.5,0-39.7,0-59.5c0-1.7,0.1-3.5,1.4-4.8
	c0.9-0.9,2.2-1.4,4.2-1.3c34.5,0.1,69.6,0.1,103.6,0.1l31,0c0.3,0,0.7,0,1.2,0.1c0.3,0,0.7,0.1,1.2,0.1l3,0.2l-2,2.3
	c-2.3,2.5-4.5,5-6.7,7.5c-6.8,7.6-13.2,14.8-19.9,22c-1.8,1.9-5.4,2.6-7.8,2.1c-6-1.1-11,0.5-15.9,4.9c-2.5,2.3-5.1,4.6-7.6,6.8
	c-4.5,4-9.1,8.1-13.5,12.2c-3.6,3.3-7.3,4.2-11.7,2.6c-2.8-1-5.7-1.8-8.6-2.6c-2.5-0.7-5-1.4-7.5-2.3c-7.9-2.6-14.5-0.6-20,6.1
	C238.6,78,232.3,85.7,226.1,93.3z M371.4,97.2c-1.2,1.2-3,1.4-4.4,1.4c0,0,0,0,0,0c-31.7-0.1-63.9-0.1-95.1-0.1l-32.4,0
	c-0.7,0-1.3-0.1-2.1-0.1c-0.4,0-0.9-0.1-1.5-0.1L233,98l1.9-2.2c1.7-2,3.3-4,4.9-6c4.5-5.5,8.7-10.7,13.3-15.7
	c1.7-1.9,5.6-2.6,8.1-2c6.2,1.4,12.3,3.4,17.7,5.2c7.3,2.4,13.4,1,19.2-4.3c3.7-3.5,7.6-6.9,11.3-10.2c3.2-2.8,6.4-5.7,9.6-8.6
	c3.1-2.9,6.2-3.9,10.1-3.2c6.1,1.1,11.4-0.8,15.8-5.7l9.5-10.7c4.1-4.6,8.3-9.3,12.5-13.9c0.5-0.6,1.1-1.2,1.8-1.9
	c0.4-0.4,0.7-0.8,1.2-1.2l2.2-2.3l0.4,3.1c0.1,0.4,0.1,0.8,0.2,1.2c0.1,0.7,0.2,1.3,0.2,1.9c0,7.2,0,14.3,0,21.5
	c0,16.3,0,33.2,0.1,49.8C372.7,94.1,372.6,96,371.4,97.2z"/>
<path class="st0" d="M186.8,67.3c0-9.6-5.1-14.7-14.7-14.7c-21.6,0-43.1,0-64.7,0s-43.1,0-64.6,0c-9.7,0-14.9,5.2-14.9,15
	c0,43,0,86,0,128.9c0,9.8,5.2,15,15,15c43,0,86,0,128.9,0c10,0,15-5.1,15-15.2c0-15,0-30,0-45l0-19.1l0-19
	C186.8,97.8,186.8,82.5,186.8,67.3z M70.4,202.8H56.5V147h13.9V202.8z M112.9,202.9H99v-86.4h13.9V202.9z M157.2,202.9h-13.9V91.7
	h13.9V202.9z M176.5,201.9c-1,0.9-2.5,1.2-4.3,1.2c-1.4,0-3.1-0.2-5.1-0.4l-1.3-0.2l0-112.8c0-5.8-0.9-6.8-6.6-6.8
	c-6.3,0-12.2,0-18,0c-5.5,0-6.5,1-6.5,6.5c0,26.4,0,52.9,0,79.3l0,34.2h-13.2l0-27.5c0-20.3,0-40.6,0-61c0-5.7-1-6.7-6.7-6.7
	c-6.5,0-12.4,0-18.4,0c-5,0-6.1,1.1-6.1,6.1c0,20.2,0,40.3,0,60.5l0,28.3H79.1l0-20.4c0-12.5,0-24.9,0-37.4c0-5.7-1-6.7-6.7-6.7
	l-2.2,0c-5.3,0-10.8,0-16.2,0c-4.7,0-6,1.3-6,6c0,12.6,0,25.1,0,37.7l0,21.2l-3,0c-1,0-1.9,0-2.8,0c-1.9,0-3.4-0.5-4.5-1.5
	c-1-1-1.5-2.4-1.5-4.3c0-0.5,0-0.9,0-1.4l0-0.9l0-126.4c0-6.7,1.2-7.8,7.9-7.8l126,0c7.4,0,8.3,0.9,8.3,8.2l0,124.5
	C178.5,197.5,178.3,200.3,176.5,201.9z"/>
</svg>
