<?xml version="1.0" encoding="utf-8"?>
<!-- Generator: Adobe Illustrator 23.0.1, SVG Export Plug-In . SVG Version: 6.00 Build 0)  -->
<svg version="1.1" id="Layer_1" xmlns="http://www.w3.org/2000/svg" xmlns:xlink="http://www.w3.org/1999/xlink" x="0px" y="0px"
	 viewBox="0 0 380.8 334.4" style="enable-background:new 0 0 380.8 334.4;" xml:space="preserve">
<style type="text/css">
	.st0{fill:#9A9A9A;}
</style>
<g>
	<path class="st0" d="M380.8,156.4c-0.2-2.7-1.7-4.3-4-4.4c0,0,0,0-0.1,0c-2.3,0-3.8,1.7-4,4.2c0,0.7,0,1.5,0,2.3c0,0.3,0,0.7,0,1
		l0,97.1c0,8.6-2,10.6-10.5,10.6H18.4c-8.3,0-10.4-2-10.4-10.2V18.4c0-8,2.2-10.2,10.1-10.2c114.9,0,229.7,0,344.6,0
		c7.8,0,10,2.2,10,9.9l0,110.2c0,0.3,0,0.7,0,1c0,0.9,0,1.7,0.1,2.5c0.4,2.4,1.8,3.6,4.1,3.6c2.7-0.1,3.6-1.9,3.8-3.5
		c0.1-0.8,0.1-1.6,0.1-2.5c0-0.3,0-0.6,0-1c0-36.6,0-73.2,0-109.9c0-12.9-5.6-18.4-18.6-18.4l-73.3,0c-88.3,0-179.6,0-269.5-0.1
		c0,0,0,0-0.1,0C9,0,3,3.8,0,12.3V263c2.9,8.5,8.8,12.3,19,12.3c0.1,0,0.2,0,0.3,0c33.6-0.2,67.7-0.2,100.7-0.1
		c12.2,0,24.4,0,36.5,0h6.1v26.9l-1,0.4c-0.2,0.1-0.3,0.1-0.3,0.2c-0.2,0.1-0.5,0.3-1,0.3c-3.1,0-6.2,0-9.3,0c-6.4,0-13,0-19.6,0.1
		c-7.8,0.1-13.7,5.3-14.8,12.8c-0.4,3-0.4,6.1-0.4,9.1c0,0.9,0,1.8,0,2.7c0,3.1,0.3,4.7,1.2,5.5c0.8,0.8,2.5,1.2,5.7,1.2
		c44.8,0,89.5,0,134.2,0l0.7,0c0.5,0,1,0,1.5,0c3.1-0.2,4.5-1.6,4.6-4.6c0.1-3.7,0.2-8-0.1-12.2c-0.6-8.8-6.8-14.5-15.8-14.6
		c-5.8,0-11.7,0-17.4,0c-2.6,0-5.2,0-7.7,0H218v-27.8h44.2c33.7,0,67.5,0,101.2,0c11.4,0,17.4-6,17.4-17.3c0-23.7,0-47.3,0-71
		l0-28.4l0-0.6C380.8,157.4,380.8,156.9,380.8,156.4z M171.3,275.4h38.1v27.5h-38.1V275.4z M227.9,311.1l5.7,0c4.3,0,8.7,0,13,0
		c2.9,0,5.7,0.3,7.6,2.1c1.9,1.9,2.1,4.8,2.1,7.8c0,0.8-0.1,1.5-0.1,2.4c0,0.4,0,0.8-0.1,1.2l-0.1,1.5H124.5l0-3.2
		c0-1.1,0-2.1,0-3.1c0.1-6.2,2.7-8.7,8.9-8.7c23.6,0,47.2,0,70.9,0L227.9,311.1z"/>
	<path class="st0" d="M357.5,30c0-5.6-1-6.6-6.6-6.6c-75.7,0-151.5,0-227.2,0c-0.3,0-0.6,0-0.9,0c-0.8,0-1.5,0-2.2,0.1
		c-2.4,0.5-3.6,1.9-3.5,4.1c0.1,2.3,1.4,3.6,3.8,3.8c0.9,0.1,1.9,0.1,2.9,0.1c0.4,0,0.7,0,1.1,0l224.2,0v188.6H31.5V31.4l62.4,0
		c0.3,0,0.6,0,0.9,0c0.8,0,1.5,0,2.2-0.1c2.3-0.3,3.4-1.5,3.5-3.8c0.1-2.2-0.9-3.5-3.2-4.1c-0.7-0.2-1.6-0.2-2.5-0.2
		c-0.3,0-0.5,0-0.8,0c-12.6,0-25.2,0-37.8,0c-8.8,0-17.5,0-26.3,0c-5.7,0-6.6,0.9-6.6,6.6c0,63.9,0,127.7,0,191.6
		c0,5.9,0.9,6.8,6.8,6.8c106.9,0,213.7,0,320.6,0c5.9,0,6.8-0.9,6.8-6.7C357.5,157.8,357.5,93.9,357.5,30z"/>
	<path class="st0" d="M46.6,199.5c0,5.6,1,6.6,6.6,6.6c37.1,0,74.2,0,111.3,0c5.7,0,6.6-0.9,6.6-6.5c0-48.9,0-97.7,0-146.6
		c0-5.5-0.9-6.4-6.4-6.4c-18.6,0-37.1,0-55.7,0s-37.1,0-55.7,0c-5.9,0-6.8,0.9-6.8,6.7c0,17.4,0,34.8,0,52.2l0,20.9l0,17.5
		C46.6,162.4,46.6,181,46.6,199.5z M54.8,54.9h107.9v142.9H54.8V54.9z"/>
	<path class="st0" d="M192.2,206.1c11.8,0,23.6,0,35.5,0l10.6,0c0.9,0,1.9,0,2.8,0c2.2,0,4.6,0.1,6.8-0.1c2.5-0.1,4.1-1.8,4-4.2
		c-0.1-3.1-2.7-3.7-4.1-3.8c-0.7,0-1.4,0-2.1,0l-0.8,0l-50.1,0v-50H326v50l-18.6,0c-11.1,0-22.2,0-33.3,0c-2.2,0-3.8,0.5-4.7,1.5
		c-0.6,0.6-0.9,1.5-0.9,2.6c0,2.6,2,4,5.8,4c18.1,0,36.2,0,54.3,0c4.2,0,5.5-1.3,5.5-5.4c0-17.8,0-36.5,0-55.5
		c0-4.1-1.3-5.5-5.5-5.5c-45.6,0-91.2,0-136.8,0c-4.3,0-5.5,1.2-5.5,5.4c-0.1,17.9-0.1,36.6,0,55.5
		C186.4,204.9,187.7,206.1,192.2,206.1z"/>
	<path class="st0" d="M192.3,124.5c7.7,0,15.3,0,23,0l9.6,0l9.8,0c7.9,0,15.7,0,23.5,0c5,0,6.1-1.1,6.1-5.9c0-23.9,0-45.6,0-66.3
		c0-4.5-1.2-5.7-5.6-5.7c-11,0-22,0-33.1,0c-11.2,0-22.4,0-33.6,0c-4.5,0-5.7,1.1-5.7,5.5c0,21.4,0,43.8,0,66.7
		C186.4,123.5,187.4,124.5,192.3,124.5z M194.7,54.9h61.3v61.4h-61.3V54.9z"/>
	<path class="st0" d="M328.6,93.1c-5.1,0-10.2,0-15.2,0l-6.4,0l-6.5,0c-2.2,0-4.3,0-6.5,0c-2.9,0-5.8,0-8.7,0
		c-2.1,0-3.7,0.5-4.6,1.4c-0.6,0.7-0.9,1.5-0.9,2.7c0,1.1,0.1,3.9,5.4,3.9c14.7,0,29.4,0,43.7,0c2,0,5.4-0.5,5.4-3.9
		c0-1.1-0.3-1.9-0.9-2.6C332.3,93.7,330.7,93.2,328.6,93.1z"/>
	<path class="st0" d="M329.3,54.6c1.7,0,3-0.5,3.9-1.4c0.7-0.7,1-1.6,1-2.7c0-2.5-1.9-3.9-5-4c-14.5,0-29.4,0-44.5,0
		c-2.3,0-4.9,0.7-5,3.9c0,1.2,0.3,2.1,0.9,2.8c0.9,0.9,2.3,1.3,4.2,1.4c5.2,0,10.4,0,15.6,0l6.4,0c0.1,0,0.2,0,0.2,0
		c2.2,0,4.3,0,6.5,0C318.7,54.6,324.1,54.7,329.3,54.6z"/>
	<path class="st0" d="M284.9,77.9c5.1,0,10.3,0,15.4,0l6.6,0l6.3,0c5.1,0,10.2,0,15.4,0c2.1,0,3.7-0.5,4.6-1.5
		c0.6-0.7,0.9-1.5,0.9-2.6c-0.1-3.4-3.5-3.9-5.5-3.9c-7.7,0-15.1,0-22.2,0c-7.4,0-14.5,0-21.5,0c-3.5,0-5.3,1.4-5.3,4
		c0,1.3,0.4,2.2,1.2,2.9C281.7,77.5,283.1,77.9,284.9,77.9z"/>
	<path class="st0" d="M285.2,124.5c5.1,0,10.2,0,15.4,0l6.3,0l6.6,0c5.1,0,10.3,0,15.5,0c1.9,0,3.4-0.5,4.3-1.4
		c0.6-0.7,1-1.5,0.9-2.6c-0.1-3.5-3.4-4-5.4-4c-14.5,0-29.2,0-43.7,0c-3.5,0-5.3,1.3-5.4,4c0,1.2,0.3,2.1,0.9,2.7
		C281.4,124,283,124.5,285.2,124.5z"/>
	<path class="st0" d="M168.3,244.7c-1.8,0-3.3,0.5-4.2,1.4c-0.7,0.7-1,1.6-1,2.8c0.1,2.5,1.8,3.8,5.1,3.8c5.2,0,10.4,0,15.5,0l6.6,0
		l6.6,0c5.2,0,10.4,0,15.5,0c3.3,0,5.1-1.3,5.1-3.8c0-1.1-0.3-2.1-1-2.8c-0.9-0.9-2.4-1.4-4.2-1.4
		C198,244.7,183.1,244.7,168.3,244.7z"/>
	<path class="st0" d="M132.7,121.8c-14.5-7.5-29.3-14.8-44.5-22.3c-1.9-1-3.6-1.1-4.8-0.4c-1.2,0.7-1.8,2.4-1.9,4.6
		c-0.1,5.1,0,10.3,0,15.3c0,2.3,0,4.5,0,6.8c0,2.2,0,4.4,0,6.6c0,5.1,0,10.3,0,15.5c0,2.3,0.7,4,1.9,4.7c1.2,0.7,3,0.6,5.1-0.5
		l2.6-1.3c13.7-6.8,27.8-13.8,41.5-20.9c1.5-0.8,3.2-2.9,3.2-4.1C135.9,124.7,134.2,122.6,132.7,121.8z M89.9,142.5v-33.3l33.3,16.6
		L89.9,142.5z"/>
</g>
</svg>
