<?xml version="1.0" encoding="utf-8"?>
<!-- Generator: Adobe Illustrator 23.0.1, SVG Export Plug-In . SVG Version: 6.00 Build 0)  -->
<svg version="1.1" id="Layer_1" xmlns="http://www.w3.org/2000/svg" xmlns:xlink="http://www.w3.org/1999/xlink" x="0px" y="0px"
	 viewBox="0 0 368.4 370.9" style="enable-background:new 0 0 368.4 370.9;" xml:space="preserve">
<style type="text/css">
	.st0{fill:#9A9A9A;}
</style>
<g>
	<path class="st0" d="M366.1,246.6c-1.6-2.6-4.4-3.9-8.3-3.9h-0.1c-5.4,0-10.6,0-16.2,0l-9,0v-6.1c0-1.3,0-2.7,0-4l0-0.7
		c0-4.7,0-9.6,0.1-14.5c0.1-2,2.1-3.7,3.2-4.4c6.2-3.6,9.6-10.1,8.6-16.6c-1.1-7-6.6-12.5-13.5-13.6c-6.6-1.1-13.2,2.3-16.5,8.4
		c-1.5,2.9-3.4,3.5-6,3.5c-12.3,0-24.8,0-37,0l-22.9,0l0-10.6c0-7.3,0-15.5,0-23.5c0-0.9-0.1-1.9-0.2-2.9c-0.1-1.3-0.2-2.5-0.2-3.9
		c0.1-1.8,0.3-3.8,1.4-5.4c2.3-3.3,4.7-6.4,7.3-9.6l0.5-0.6c0.4-0.5,0.7-0.9,1.1-1.4l0.1-0.1l-6.5-5l-1.9,2.4
		c-2.7,3.4-5.2,6.6-7.7,9.8c-1.4,1.7-2.6,2.5-3.9,2.6c-3,0.2-5.8,0.1-8.9,0.1l-0.1,0c-1,0-2.1,0-3.1,0h-1.9v-1.9c0-1.1,0-2.2,0-3.3
		c0-2.4,0-4.6-0.1-6.8c-0.1-2.9,1.1-4.4,3.1-5.7c3.1-2.2,5.3-4.3,6.6-6.3c1.9-3.1,4.1-3.7,6.9-3.7c13.4,0.1,27.1,0.1,40.3,0l18.9,0
		l0,9.3c0,5.4,0,10.4,0,15.6c0,6.9,4.1,11.1,11,11.1c16.6,0.1,31.8,0,46.5,0c6.6,0,10.8-4.2,10.8-10.9l0-5.4v0
		c0-13.4,0.1-27.3-0.1-41c0-2.2-1-4.9-2.5-7.3c-1.5-2.4-4.3-3.6-8.1-3.6l-0.1,0c-5.4,0-10.7,0-16.3,0l-8.9,0v-5.7c0-1.6,0-3.2,0-4.8
		v0c0-4.8,0-9.8,0.1-14.7c0.1-2,2.1-3.7,3.2-4.4c6.2-3.6,9.6-10.1,8.6-16.6c-1.1-7-6.6-12.5-13.5-13.6c-6.6-1.1-13.2,2.3-16.5,8.4
		c-1.5,2.8-3.4,3.4-6,3.5c-13.1,0-26.3,0-39.1,0l-21.1,0v-1.9c0-1.5,0-2.9,0-4.3c0-3.5,0-7.1,0.1-10.6c0-1.5,0.2-3.8,1.4-5.4
		c2.3-3.3,4.7-6.3,7.3-9.6c0.5-0.7,1.1-1.4,1.6-2l0.1-0.1l-6.4-4.9L252-0.2l-0.1,0.1c-0.6,0.8-1.3,1.6-1.9,2.4c-2.5,3.1-4.8,6-7,9.1
		c-1.7,2.4-3.7,3.4-6.7,3.4l-0.1,0c-13.4-0.1-27.8-0.1-45.4,0c-6.3,0-10.5,4.2-10.6,10.3c-0.1,16.1-0.1,32.1,0,47.6
		c0,6,4.2,10.2,10.2,10.3c15.4,0.1,31.4,0.1,47.6,0c6.1,0,10.3-4.3,10.3-10.6c0-4.1,0-8.3,0-12.4v-0.2c0-2.6,0-5.1,0-7.7
		c0-0.8,0.1-1.6,0.1-2.4l0-0.2c0-0.3,0.1-0.6,0.1-0.9l0.1-1.7l12.3,0c16.6,0,32.3,0,48.4,0.1c1.7,0,3.2,1.4,4.1,2.3
		c3.1,2.9,6,5.9,8.4,8.4l0.3,0.3c0.8,0.8,1.9,1.9,2,3.4c0.1,6,0.1,11.8,0.1,18l0,7.4l-5.9,0c-2.5,0-4.8,0-7.2,0
		c-6.8,0.1-10.9,4.2-11,11.1c0,2.4,0,4.6,0,7.4l0,4.9l-1.5,0.3c-0.2,0-0.4,0.1-0.6,0.1l0,0c-0.4,0.1-0.8,0.2-1.2,0.2l-7.9,0
		c-16.2,0-33,0-49.5-0.1c-1.9,0-3.9-1.6-4.8-3.1c-3.2-5.5-7.7-8.4-13.6-8.7c-7.3-0.4-14.1,4.4-16.2,11.5c-2.1,7.2,0.9,14.6,7.5,18.5
		c1.5,0.9,3.5,2.1,3.7,4c0.2,3,0.2,6,0.2,8.9l0,0.2c0,1,0,2,0,3v1.9l-9.1,0c-4.8,0-10.2,0-15.5,0c-7.4,0-11.4,4.1-11.4,11.3
		c0,14,0,28.8,0,45.4c0,7.6,3.9,11.5,11.6,11.5c10.1,0,20.5,0,30.4,0l12.7,0c9.1,0,11.5-1.9,14-10.6l0.4-1.4l10.8,0
		c15.3,0,32.5,0,49.4,0.1c1.6,0,2.8,1.2,3.8,2.1l0.2,0.2c2,1.9,3.9,3.9,5.8,5.7l0.5,0.5c0.6,0.6,1.2,1.2,1.8,1.8
		c0.1,0.1,0.3,0.3,0.5,0.4l0.1,0.1c0.8,0.6,1.8,1.4,1.9,2.8c0.1,6.3,0.1,12.5,0.1,19l0,6.9h-1.9c-1.3,0-2.6,0-3.9,0h-0.1
		c-2.6,0-5.1,0-7.6,0c-6.2,0.1-10.3,4.2-10.4,10.5c0,2.3,0,4.5,0,6.9c0,1.1,0,2.3,0,3.5v2.6l-2.5-0.8c-6.9-2.3-12.2,0.5-17,3.8
		c-4.3,3-8,2.9-12.5-0.4c-6.1-4.4-13.4-5.5-20.2-2.8c-6.8,2.7-11.7,8.7-13.2,16.1c-0.6,3.1-0.6,6.4-0.5,9.6l0,0.2c0,0.7,0,1.4,0,2.1
		c0,2.7-1.1,4.4-3.7,5.3c-12.2,4.3-23.9,8.5-36.3,12.9l-13,4.7l-0.6-1.7c-0.1-0.3-0.2-0.6-0.3-0.8l0-0.1c-0.2-0.6-0.4-1.1-0.6-1.6
		c-10.3-35.9-32.5-62.9-65.7-80.1c-3.1-1.6-3.5-4-3.5-6.1c0.1-7.3,0.1-13.6,0-19.4c-0.1-3,0.7-5.2,4.4-6.6
		c13.1-5,21.3-14.4,24.5-27.8c0.6-2.7,0.8-5.4,0.9-8.4c0.1-1.8,0.2-3.7,0.4-5.5c0.2-1.6,1.2-3.7,2.8-4.5c4.7-2.4,7.8-5.7,8.9-9.5
		c1-3.4,0.3-7.1-2-10.9c-8.1-13.5-11.3-27.5-9.9-43c0.2-2.2,0.7-4.6,2.9-7c9-10,11.5-21.4,7.4-33.6c-4.3-13-13.5-20.9-26.5-22.8
		c-4.1-0.6-8.6-0.9-14.6-0.9c-2.6,0-5.3,0.1-7.9,0.1l-3.1,0.1c-2.1,0-4.2,0-6.2,0.1c-7.6,0-15.6,0.1-23,1.5
		c-31.9,6-53.6,24.4-64.3,54.7c-10.6,30-5.3,57.8,15.8,82.6c4.4,5.1,9.9,9.5,15.3,13.7c2.9,2.3,5.9,4.7,8.7,7.2
		c1.7,1.5,3,4.1,3.1,6.2c0.2,7.2,0.2,15.1,0,24.8c0,2.1-0.8,4.3-2,5.8c-14.3,17.7-18.6,37.9-12.8,59.9c8.2,31.3,28.2,57.2,56.1,72.9
		c17.5,9.8,36.6,14.8,56.1,14.8c11,0,22.1-1.6,33-4.9c25.3-7.6,50.6-16.9,75.1-26c4-1.5,8-3,12-4.5c12.1-4.5,19.8-13.9,22.2-27.2
		c1.1-6.2,5-8.7,8.8-11.2l3-2l0.4,3c1.2,10.3,3.9,12.7,14.3,12.7l12.6,0c9.2,0,20,0,30.5,0c7,0,11.1-4.1,11.2-10.9l0-4.2
		c0-13.8,0.1-28.2-0.1-42.2C368.4,251.5,367.5,248.8,366.1,246.6z M328.3,206.7c-2.1,0-4-0.9-5.5-2.4c-1.5-1.5-2.3-3.5-2.3-5.6
		c0-4.3,3.6-7.8,7.8-7.8h0.1c2.1,0,4,0.9,5.5,2.4c1.5,1.5,2.3,3.5,2.3,5.6c0,2.1-0.9,4-2.4,5.5C332.4,205.9,330.4,206.7,328.3,206.7
		L328.3,206.7z M360.1,251.3v51.3h-51.3v-51.3H360.1z M220.4,122.7c-2,0-4-0.8-5.5-2.3c-1.5-1.5-2.3-3.4-2.4-5.5
		c0-4.3,3.4-7.9,7.8-7.9c0,0,0,0,0,0c2.1,0,4,0.8,5.5,2.3c1.5,1.5,2.4,3.4,2.4,5.5C228.3,119,224.7,122.7,220.4,122.7L220.4,122.7z
		 M213.5,181.3l-6-7.8l-0.1-0.1l-5.2,5.8l-0.1,0.1l13.1,13.1l0.1,0.1l24.8-31.9v45.9h-51.3v-51.3h45.1L213.5,181.3z M320.5,42.8
		c0-4.3,3.6-7.8,7.8-7.8l0.1,0c2.1,0,4,0.9,5.5,2.4c1.5,1.5,2.3,3.5,2.3,5.6c0,2.1-0.9,4-2.4,5.5c-1.5,1.5-3.4,2.3-5.5,2.3l-0.1,0
		c-2.1,0-4-0.9-5.5-2.4h0C321.3,46.8,320.5,44.9,320.5,42.8z M308.7,146.5V95.2H360v51.3H308.7z M213.4,49.4l-6.3-8.4l-5.2,5.7
		l13.4,13.4l0.1,0.1L240,28.7v45.9h-51.2V23.2h45L213.4,49.4z M254.4,284.4l4,7l0.1,0.1l26.8-15.4c0.3-0.2,0.7-0.4,1-0.6
		c0.8-0.5,1.7-1,2.6-1.5c4-2,7.9-1.2,10,2.3c2.2,3.6,1.5,7.4-2,10.1c-5.4,4.3-10,7.7-14.4,10.9c-1.6,1.1-2.1,2.1-2.2,4.1
		c-0.5,13.6-8.9,24.6-21.5,28.1l-1.5,0.4l-1.9-3.8c-0.8-1.6-1.7-3.3-2.5-5c-0.6-1.1-1.1-2.3-1.6-3.4l0,0c-1.1-2.4-2.1-4.7-3.5-6.7
		c-5.7-8.5-5.9-17.7-5.4-24.8c0.4-5.3,2.8-9.2,7.2-11.5c2-1.1,3.9-1.6,5.8-1.6c2.6,0,5.3,1,8.3,2.9l2.5,1.7L254.4,284.4z
		 M132.7,167.1l-5.7,15.5l-12-15.5H132.7z M146.2,362.8c-19.6,0-38.9-5.4-55.8-15.6c-26.7-16.1-45.2-42.6-50.6-72.8
		C36.8,258.1,41,243,52,229.5c1.1-1.4,3.3-2.4,5.1-2.4c0.1,0,0.1,0,0.2,0c3.1,0.1,6.2,0.4,9.2,0.7c2.7,0.2,5.6,0.5,8.4,0.6
		c4.2,0.2,5.1,3,5.5,5.1c0.5,2.9,1.1,5.8,1.7,8.6l0,0.1c0.8,3.8,1.5,7.7,2.2,11.5c0.4,2.1,1,2.7,2.8,3.1c6.3,1.4,12.5,2.9,18.3,4.6
		c2,0.6,4.1,2.4,4.9,4.4c1.7,4.1,3,8.3,4,11.9c0.5,1.7,1.3,2.5,3.2,3.2c7.5,2.4,15.1,5,22.5,7.4l0.3,0.1c6.8,2.3,13.9,4.6,21,6.9
		c2.1,0.7,4.7,1.9,5.8,5.5c1.3,4,2.6,7.8,4.1,11.8c0.6,1.6,1.2,3.3,1.7,4.9l0.6,1.6l-1.5,0.7c-20.4,9.8-37.1,7.1-47.5,3.1
		c-14-5.4-25.3-16.7-31-30.8c-1.8-4.4-3.9-8.8-5.9-12.8c-5.5-11.1-14-18.9-25.8-23.7l-0.1,0l-2.7,7.8l0.1,0c0.1,0,0.1,0.1,0.2,0.1
		c9.6,3.9,16.8,10.9,21.9,21.3c0.9,1.8,1.8,3.7,2.6,5.5l0,0.1c3.2,6.9,6.6,14,11.1,20c16.5,22,44.5,30,71.4,20.4
		c15.5-5.5,31.4-11.2,45.4-16.2l24.6-8.8l13,25.9l-1.4,0.9c-0.2,0.1-0.3,0.2-0.4,0.3l0,0c-0.4,0.3-0.8,0.6-1.4,0.8
		c-6.8,2.4-13.8,4.9-20.5,7.3l-0.3,0.1c-15.4,5.5-31.3,11.3-47.1,16.3C167.9,361.1,157.1,362.8,146.2,362.8z M153.7,284.1
		c-0.4-0.1-0.7-0.2-1.1-0.3l0,0c-0.8-0.2-1.6-0.4-2.5-0.7c-1.7-0.6-3.4-1.1-5-1.7l-0.2-0.1c-6.4-2.1-13.1-4.3-19.6-6.7
		c-2.2-0.8-3.9-2.8-4.7-4.5c-1.7-3.7-2.7-6.8-3.2-9.7c-0.7-4.1-2.7-5.9-7.4-6.6c-4.7-0.8-9.3-2.1-13.8-3.4l-0.9-0.3
		c-1.6-0.5-3.5-2-3.9-3.8c-0.7-2.7-1.2-5.5-1.8-8.5l0-0.2c-0.2-1.1-0.4-2.2-0.6-3.4l-0.6-3.1l3,1c28,9,49.1,25,64.4,49l2.6,4.1
		L153.7,284.1z M132.3,146.7v11.9h-24l0,0.1c-0.8,11.1,2.8,19.8,11,26.7l1.7,1.4l-1.7,1.5c-13,11-30.1,8-44.6-8l-0.1-0.1l-6.8,4.5
		l0.1,0.1c7.5,11.2,18,17.2,32.2,18.3l1.7,0.1v22.2l-45.4-8.2v-70.5l-1.8,0c-2.5,0-5,0-7.4,0c-4.3,0-8.2-1.6-10.9-4.3
		c-2.5-2.5-3.8-6-3.8-9.7c0.1-7.9,6.2-13.6,14.6-13.7c2.3,0,4.7,0,7.2,0l2,0l0-0.1c-0.4-11.3,2.4-19.9,8.9-27.1l1.2-1.3l1.4,1.1
		c4.6,3.6,10.1,3.6,15.9,3.5l1.4,0c3.1,0,6.2,0,9.2,0l0.3,0c4.2,0,9,0,13.6-0.1c5-0.1,9.8-0.3,15-0.6c2.3-0.1,4.6-0.2,6.9-0.3l2-0.1
		v2c0,0.9,0,1.9,0,3c0,2.4,0,5.2,0,7.9c-0.2,6,1.1,11.6,4,17.1c2.6,4.8,4.9,9.7,6.9,13.8c1.5,3.2,1,5.2,0.3,6.4
		c-0.7,1.2-2.3,2.6-5.9,2.7c-0.8,0-1.7,0-2.4,0L132.3,146.7z M118.9,86.7c-11.2,0.1-22.8,0.1-33,0.1l-6.8,0c-5.5,0-9.7-3.3-10.5-8.3
		c-0.8-4.9,2-9.2,7.4-11.1c1.7-0.6,3.4-1.2,5.1-1.8l0.7-0.2l-2.5-7.4l0-0.1l-0.1,0c-11.4,2.4-16.8,7-18.6,15.8
		c-0.2,1.1-0.7,3.3-0.3,4.5c1.6,4.7-0.9,7.6-2.7,9.8c-4.4,5.2-7.3,11.4-8.7,18.6c-0.1,0.7-0.3,1.3-0.5,1.9c-0.1,0.2-0.1,0.5-0.2,0.7
		l-0.3,1.2l-1.2,0.2c-14.1,2-22.2,10-22.4,21.9c-0.3,15.6,11.9,21.1,22.2,23l1.5,0.3l0.1,1.5c0,0.3,0,0.6,0.1,1
		c0,0.8,0.1,1.6,0.1,2.4c0,3.2,0,6.4,0,9.5l0,4.8l-3,2.2l-1.1-1c-1.6-1.4-3.3-2.8-4.9-4.2c-3.6-3-7.4-6.2-10.6-9.8
		C8.1,138.6,3,112.6,13.4,84.7c10.6-28.5,32-45.4,62-48.9c7.7-0.9,15.6-1.2,23.2-1.2c7.9,0,15.6,0.3,22.4,0.6c6.2,0.3,12,3,16.3,7.7
		c4.7,5.1,7.3,12.1,7,19.2C143.6,75.7,132.5,86.5,118.9,86.7z"/>
	<rect x="300.5" y="350.8" class="st0" width="7.7" height="7.9"/>
	<rect x="324.5" y="350.9" class="st0" width="7.9" height="7.8"/>
	<rect x="348.6" y="350.8" class="st0" width="7.7" height="7.9"/>
	<path class="st0" d="M116.4,111h-8.1l0,0.1c0,0.4,0,0.8,0,1.1c0,3.8-0.1,10.2-7.8,10.3l-0.1,0c-7.7,0-7.8-6.2-7.9-10
		c0-0.5,0-1,0-1.5l0-0.1h-8.1l0,0.1c-0.6,8.9,2.1,14.5,8.7,18.1c2.4,1.3,4.9,1.9,7.5,1.9c3.6,0,7.1-1.2,10.1-3.7
		c4.8-4,6.6-9,5.9-16.3L116.4,111z"/>
</g>
</svg>
