<?xml version="1.0" encoding="utf-8"?>
<!-- Generator: Adobe Illustrator 23.0.1, SVG Export Plug-In . SVG Version: 6.00 Build 0)  -->
<svg version="1.1" id="Layer_1" xmlns="http://www.w3.org/2000/svg" xmlns:xlink="http://www.w3.org/1999/xlink" x="0px" y="0px"
	 viewBox="0 0 497.4 495.1" style="enable-background:new 0 0 497.4 495.1;" xml:space="preserve">
<style type="text/css">
	.st0{fill:#9A9A9A;}
</style>
<g>
	<path class="st0" d="M258.1,275.1c-2.3,0-4.2,1.9-4.2,4.2c0,2.4,1.9,4.2,4.2,4.2h169.2c2.4,0,4.2-1.9,4.2-4.2s-1.9-4.2-4.2-4.2
		H258.1z"/>
	<path class="st0" d="M42.3,300.4c0,14,11.4,25.3,25.3,25.3S93,314.4,93,300.4s-11.4-25.3-25.3-25.3S42.3,286.5,42.3,300.4z
		 M67.8,317.4h-0.1c-9.3,0-16.9-7.6-17-16.9c-0.1-4.5,1.6-8.8,4.9-12c3.3-3.3,7.5-5.1,12-5.1h0.2c9.3,0,16.9,7.6,16.9,16.9
		C84.7,309.6,77.1,317.3,67.8,317.4z"/>
	<path class="st0" d="M257,198.9l170.8,0c0.1,0,0.2,0,0.3,0c1,0,2-0.4,2.8-1c0.8-0.7,1.3-1.7,1.4-2.9c0.1-1.1-0.3-2.2-1-3.1
		c-0.6-0.8-1.6-1.3-2.8-1.4l-171.2,0c-1.1,0-2,0.3-2.8,1c-0.8,0.7-1.3,1.7-1.4,2.9c-0.1,1,0.3,2.1,1,3.1
		C254.9,198.2,255.9,198.7,257,198.9z"/>
	<path class="st0" d="M258.1,156.5h169.2c2.4,0,4.2-1.9,4.2-4.2s-1.9-4.2-4.2-4.2H258.1c-2.4,0-4.2,1.9-4.2,4.2
		C253.9,154.7,255.8,156.5,258.1,156.5z"/>
	<path class="st0" d="M184.9,486.7l-138.4,0c-21,0-38.1-17.1-38.1-38.1v-42.3c0-21,17.1-38.1,38.1-38.1h177.2l0.3,0
		c1.1,0.1,2.2-0.3,3.1-1c0.8-0.7,1.3-1.7,1.4-2.9c0.2-2.3-1.5-4.3-3.9-4.5H46.5c-21,0-38.1-17.1-38.1-38.1v-42.3
		c0-21,17.1-38.1,38.1-38.1h402.1c21,0,38.1,17.1,38.1,38.1v42.3c-0.1,5.8-1.5,11.6-4.1,16.8c-0.4,1-0.5,2.1-0.1,3.1
		c0.5,1.2,1.2,2,2.2,2.4c1.2,0.6,2.4,0.4,3.2,0.2c1.1-0.3,2-1.2,2.4-2.2c3.1-6.4,4.8-13.4,4.8-20.4v-42.3c0-14.6-7.1-28.6-19-37.2
		L469,237l7.1-5.1c11.8-8.6,18.9-22.4,19-37.1v-42.3c0-8.5-2.5-17-7.1-24.5l-1-1.6v-0.8L422.2,22c-8.3-13.5-23.4-22-39.3-22H112.2
		c-15.9,0-31,8.4-39.3,22L8.4,125.6l0,0v0.8l-1,1.6c-4.8,7.4-7.3,15.9-7.3,24.5v42.3c0,14.6,7.1,28.5,19,37.1l7.1,5.1l-7.1,5.1
		C7.1,250.7,0,264.7,0,279.3v42.3c0,14.6,7.1,28.5,19,37.1l7.1,5.1l-7.1,5.1c-11.9,8.7-19,22.7-19,37.3v42.3
		C0,474.1,20.9,495,46.5,495l138.5,0c2.2-0.3,3.8-2.2,3.7-4.5C188.5,488.5,186.9,486.9,184.9,486.7z M453.4,105.9
		c-0.9,0-1.8-0.1-2.6-0.2c-0.2,0-0.5-0.1-0.7-0.1l-0.3-0.1c-0.5-0.1-0.9-0.2-1.2-0.2H46.5c-1.2,0-2.3,0-3,0.2L27.6,110L80,26.3l0,0
		c7-11.2,19-17.9,32.3-17.9h270.4c13.3,0,25.4,6.7,32.4,17.9l49.8,79.6H453.4z M19.6,221.6c-7.2-7.2-11.2-16.8-11.2-27v-42.3
		c0-21,17.1-38.1,38.1-38.1h402.1c21,0,38.1,17.1,38.1,38.1v42.3c0,21-17.1,38.1-38.1,38.1h-402c-0.1,0-0.1,0-0.2,0
		C36.3,232.7,26.8,228.8,19.6,221.6z"/>
	<path class="st0" d="M67.7,198.8c14,0,25.3-11.4,25.3-25.3c0-14-11.4-25.3-25.3-25.3c-14,0-25.3,11.4-25.3,25.3
		C42.4,187.4,53.8,198.8,67.7,198.8z M83.8,174.8c-0.7,8.4-7.2,15-15.6,15.6c-0.2,0-0.4,0-0.7,0.1c-0.2,0-0.4,0-0.6,0
		c-8.9,0-16.3-6.9-16.9-15.7c-0.4-4.5,1.1-8.9,4.1-12.3c3-3.5,7.1-5.6,11.6-5.9c0.4,0,0.9-0.1,1.3-0.1c0.4,0,0.9,0,1.3,0.1
		c4.4,0.3,8.4,2.3,11.3,5.7C82.7,165.8,84.1,170.2,83.8,174.8z"/>
	<path class="st0" d="M478.9,380.9c-12.5-13.1-29.3-20.6-47.4-21.2h-13.3l-1.9-2.8c-26.9-40.7-81.9-52-122.7-25
		c-22.3,14.7-36.6,38.5-39.3,65.2l-0.5,4.9l-4.8,0.8c-12.3,2-23.1,8.6-30.3,18.6c-7.3,10-10.2,22.3-8.2,34.6
		c3.6,22.6,23.2,39.1,45.8,39.1c0.5,0,1.1,0,1.6,0h169.6c0.6,0,1.3,0,1.9,0c17.4,0,33.8-6.5,46.6-18.5
		c13.2-12.5,20.7-29.3,21.2-47.3C497.9,411.2,491.3,394,478.9,380.9z M472.5,467.8c-10.8,11.6-25.4,18.3-41.3,18.9H258.1
		c-21,0-38.1-17.1-38.1-38.1s17.1-38.1,38.1-38.1c2.3,0,4.1-1.9,4.1-4.1c-0.1-21.4,8.2-41.5,23.4-56.8
		c15.1-15.2,35.2-23.6,56.6-23.7h0.2c29.2,0,56,15.8,70.1,41.3c0.8,1.5,2.6,2.4,4.3,2.1c3.7-0.6,7-1,10.3-1.1
		c15.8-0.5,30.9,5.1,42.4,15.9c11.6,10.8,18.3,25.4,18.9,41.3C489,441.3,483.4,456.3,472.5,467.8L472.5,467.8z"/>
	<path class="st0" d="M42.3,427.4c0,14,11.4,25.3,25.3,25.3S93,441.4,93,427.4c0-14-11.3-25.4-25.2-25.4
		C53.7,402,42.3,413.4,42.3,427.4z M67.8,444.4h-0.1c-9.3,0-16.9-7.6-17-16.9c-0.1-4.6,1.6-8.9,4.9-12l0,0c3.2-3.2,7.4-5,11.9-5.1
		h0.3c9.3,0,16.9,7.6,16.9,16.9C84.7,436.6,77.1,444.3,67.8,444.4z"/>
</g>
</svg>
