<?xml version="1.0" encoding="utf-8"?>
<!-- Generator: Adobe Illustrator 23.0.1, SVG Export Plug-In . SVG Version: 6.00 Build 0)  -->
<svg version="1.1" id="Layer_1" xmlns="http://www.w3.org/2000/svg" xmlns:xlink="http://www.w3.org/1999/xlink" x="0px" y="0px"
	 viewBox="0 0 370.7 377.3" style="enable-background:new 0 0 370.7 377.3;" xml:space="preserve">
<style type="text/css">
	.st0{fill:#9A9A9A;}
</style>
<g>
	<path class="st0" d="M354.7,327.2c-2.9-4.4-5.8-8.9-8.7-13.3c-0.5-0.7-0.9-1.4-1.4-2.2c-0.2-0.4-0.5-0.8-0.7-1.2l-2.3-3.8l4.3-1.2
		c1.3-0.4,2.6-0.7,3.9-1.1c2.9-0.8,5.6-1.6,8.4-2.3c4.8-1.2,5.7-3.8,6-6c0.3-2.2,0-4.8-4.4-7.3c-5.1-3-10.3-6-15.4-9
		c-6-3.5-12.2-7.2-18.3-10.6c-3.9-2.2-5.6-5.1-5.6-9.6c0.1-85,0.1-168.5,0-231.7c0-2.8-0.1-6.4-0.9-9.6C316.7,6.9,307.3,0,294.5,0
		C205.2,0,116,0,26.7,0C10,0,0,10.1,0,26.9C0,110,0,193.1,0,276.2C0,293,10,303,26.8,303c34.6,0,69.2,0,103.9,0l0.8,0
		c0.9,0,1.7,0,2.4-0.1c2-0.3,3.5-2,3.5-4c0-2.1-1.5-3.8-3.6-4.1c-0.7-0.1-1.5-0.1-2.3-0.1c-0.3,0-0.6,0-1,0l-103.5,0
		c-12.4,0-18.7-6.3-18.7-18.7c0-53.1,0-106.2,0-159.3l0-56.1H312v200.1l-8.1-4.7c-1.8-1-3.4-2-5.1-3c-1.8-1.1-3.7-2.1-5.5-3.2
		c-4.5-2.7-9.2-5.4-13.9-8c-3.9-2.2-6.1-1.2-7.7,0c-2.3,1.6-3.1,3.8-2.7,7.1l0.4,2.8c0.2,1.8,0.5,3.6,0.7,5.4c1,8.1,2,16.1,3,24.4
		l1.6,13.2h-25.3c-16.3,0-32.5,0-48.8,0c-4.1,0-4.9,1.4-5.5,2.9c-0.5,1.3-0.3,2.5,0.3,3.4c0.9,1.3,2.6,2,4.7,2c16.6,0,33.3,0,49.9,0
		l24.9,0l0.7,2.4c0.1,0.2,0.1,0.5,0.2,0.6c0.2,0.5,0.3,1,0.4,1.6l1,8c1,8.1,2,16.5,2.9,24.8c0.5,4.3,1.9,6.5,5,7.5
		c2.6,0.8,4.9,0.5,8.3-3.7c1.7-2.1,3.4-4.2,5.2-6.4l5.2-6.5l3.5,5c0.6,0.9,1.2,1.7,1.7,2.4c2,3.1,4,6.2,6,9.2
		c5,7.7,10.2,15.6,15.4,23.2c1.1,1.6,2.7,3,4.5,4.6c0.5,0.5,1.1,0.9,1.6,1.4h2.9c2.5-1.6,4.9-3.2,7.4-4.8c6.4-4.1,12.7-8.2,19-12.3
		c2.7-1.7,4.1-3.5,4.5-5.2c0.4-1.8-0.3-4-2.1-6.6C363.9,341.2,359.3,334.2,354.7,327.2z M311.4,50c0,0.1-0.1,0.1-0.1,0.2l-0.9,1.8
		H8.7v-3.4c0-2.7,0-5.4-0.1-8.1c-0.1-6.3-0.2-12.8,0.2-19.1c0.4-6.8,6.6-12.4,14.3-13c1.1-0.1,2.1-0.1,3.1-0.1l0.9,0l266.2,0
		c6.4,0,11.1,1.5,14.2,4.7c3.2,3.1,4.7,7.8,4.7,14.1c0,6.1-0.1,12.3-0.1,18.3l0,2.4C312.1,48.8,311.7,49.6,311.4,50z M338.6,368.3
		l-2.9-4.2c-0.7-1-1.4-2-2-3c-2.8-4.3-5.6-8.5-8.4-12.8c-4.9-7.4-9.7-14.8-14.6-22.2c-1.3-2-3.4-4.3-6.1-4.4
		c-2.1-0.1-4.5,1.3-6.6,3.9c-0.9,1.1-1.8,2.2-2.9,3.6l-6.8,8.4l-10.6-87l75.4,44.2l-10.5,3.1c-1.8,0.5-3.4,1-5,1.5
		c-2.7,0.8-4.5,2.3-5.3,4.3c-0.7,2-0.3,4.3,1.2,6.6c5.4,8.4,11,16.9,16.4,25.1c2.5,3.9,5.1,7.7,7.6,11.6c0.5,0.8,1,1.6,1.6,2.5
		l2.6,4.1L338.6,368.3z"/>
	<path class="st0" d="M62.7,193.1c-2.6,0.3-4.1,1.9-4,4.4c0.2,3.1,2.7,3.7,4.2,3.8c0.8,0.1,1.7,0,2.6,0l0.9,0l93.7,0l31.6,0
		c21.1,0,42.1,0,63.2,0c3,0,5.1-0.6,6.2-1.6c0.4-0.4,0.8-1,0.8-2.5c0-1.2,0-4.2-7.1-4.2c-63.1,0-126.2,0-189.3,0l-0.5,0
		c-0.2,0-0.3,0-0.5,0C64,193,63.3,193,62.7,193.1z"/>
	<path class="st0" d="M111.9,98.3c-5.6,0-11.2,0-16.8,0l-7.2,0l-7.2,0c-2.4,0-4.8,0-7.2,0c-3.2,0-6.4,0-9.6,0
		c-4.3,0-5.2,1.8-5.2,4.8c-0.1,16.1-0.1,32.5,0,48.7c0,3.6,1.4,4.9,5.2,4.9c14.7,0,30.4,0,48,0c4.1,0,5.5-1.4,5.5-5.4
		c0.1-15.6,0.1-31.7,0-47.6C117.3,99.7,115.9,98.3,111.9,98.3z M108.8,148.2H67.2v-41.4h41.6V148.2z"/>
	<path class="st0" d="M62.1,248.5c1.2,0.2,2.6,0.3,4.2,0.3c51.7,0,103.4,0,155.1,0l0.7,0c0.8,0,1.6,0,2.3-0.1
		c2.2-0.2,4.6-1.5,4.5-4.3c-0.1-3.4-3.4-3.9-4.7-4c-0.7,0-1.5,0-2.2,0l-1,0l-88,0c-22.4,0-44.7,0-67.1,0l-0.7,0c-1,0-1.9,0-2.7,0.1
		c-2.2,0.2-3.6,1.6-3.7,3.7C58.6,246.6,59.8,248.1,62.1,248.5z"/>
	<path class="st0" d="M256.4,98.3c-28.6,0-57.1,0-85.7,0l-9.5,0l-0.5,0c-0.1,0-0.3,0-0.4,0c-0.4,0-0.8,0-1.1,0.1
		c-1.9,0.3-3.1,1.8-3.4,3c-0.2,0.7-0.4,2.2,0.8,3.4c0.9,0.9,3,1.7,4.6,1.7c12,0.2,24.2,0.2,36,0.1c3.9,0,7.7,0,11.6,0l13.7,0
		c11.5,0,23.1,0,34.6,0c3.1,0,5-1.5,5.1-4c0-1.1-0.3-2-0.9-2.7C260.1,98.8,258.5,98.3,256.4,98.3z"/>
	<path class="st0" d="M257.2,145.6c-0.5,0-0.9,0-1.4,0l-0.7,0l-11.6,0c-27,0-54,0-81,0l-0.4,0c-1.1,0-2.2,0-3,0.2
		c-2.3,0.5-3.6,2.2-3.4,4.5c0.3,2.9,2.7,3.6,4.8,3.6c11.6,0,23.2,0,34.8,0l13.5,0l13.4,0c11.6,0,23.3,0,34.9,0c2.4,0,4.9-1.1,4.9-4
		C262.1,147.4,260.2,145.8,257.2,145.6z"/>
	<path class="st0" d="M166.6,294.8c-1.1,0-2.1,0.3-2.9,1.1c-0.8,0.8-1.3,1.9-1.3,3c0,2.3,1.8,4,4,4.1c0,0,0,0,0.1,0
		c2.1,0,4-1.9,4.1-4.1C170.7,296.9,168.8,294.9,166.6,294.8z"/>
	<path class="st0" d="M88.6,26.9L88.6,26.9C88.6,26.9,88.6,26.9,88.6,26.9c-2.3,0-4.1,1.7-4.1,4c0,1.1,0.4,2.1,1.2,2.9
		c0.8,0.8,1.9,1.3,3,1.3c2.1,0,4-2,4-4.2C92.7,28.6,90.9,26.9,88.6,26.9z"/>
	<path class="st0" d="M61.1,26.9C61.1,26.9,61,26.9,61.1,26.9c-2.3,0-4.1,1.8-4.1,4.1c0,2.1,1.9,4,4.1,4.1c1,0,2-0.4,2.8-1.1
		c0.8-0.8,1.3-1.9,1.2-3.1C65.1,28.5,63.4,26.9,61.1,26.9z"/>
	<path class="st0" d="M33.7,26.9C33.6,26.9,33.6,26.9,33.7,26.9L33.7,26.9c-2.5,0-4.1,1.6-4.1,4c0,1.1,0.5,2.1,1.3,2.9
		c0.8,0.8,1.9,1.2,3,1.2c2.1-0.1,4-2.1,3.9-4.2C37.7,28.6,36,26.9,33.7,26.9z"/>
</g>
</svg>
