<?xml version="1.0" encoding="utf-8"?>
<!-- Generator: Adobe Illustrator 23.0.1, SVG Export Plug-In . SVG Version: 6.00 Build 0)  -->
<svg version="1.1" id="Layer_1" xmlns="http://www.w3.org/2000/svg" xmlns:xlink="http://www.w3.org/1999/xlink" x="0px" y="0px"
	 viewBox="0 0 380.5 380.5" style="enable-background:new 0 0 380.5 380.5;" xml:space="preserve">
<style type="text/css">
	.st0{fill:#9A9A9A;}
</style>
<g>
	<path class="st0" d="M350.3,0.1c-32.7,0-65.5,0-98.2,0h-41.9v8.5h39c34,0,67.9,0,101.9,0c11.2,0,19.7,7,20.7,17.1
		c0.4,4.7,0.3,9.3,0.2,14.2c0,2.1-0.1,4.3-0.1,6.5v1.8H198.3v8.5H372v292.9c0,14.7-7.8,22.5-22.5,22.5H31.2
		c-15.1,0-22.7-7.6-22.7-22.6L8.5,84H0v272.5c0.3,0.8,0.6,1.7,0.8,2.5c0.6,2,1.3,3.9,2.1,5.7c3.8,7.7,10.1,12.8,18.8,15.1
		c0.6,0.2,1.2,0.4,1.8,0.6c0.2,0.1,0.3,0.1,0.5,0.2h332.1c0.2-0.1,0.5-0.3,0.8-0.4c16.3-4.5,23.6-14,23.6-30.9v-50.4
		c0-89.6,0-179.1,0-268.7C380.5,11.9,368.6,0.1,350.3,0.1z"/>
	<path class="st0" d="M170.5,46.1c0-2.2,0-4.3,0-6.4c0-4.6,0-9,0-13.4c-0.3-14.4-12-26.1-26.1-26.2C109.5,0,72.3,0,27.5,0.1
		C15.6,0.2,5.1,8,1.4,19.8c-0.3,1-0.7,2.1-1,3.1L0,24.1v44.5h8.6v-12h173.7V48h-11.8V46.1z M162,47.8H8.6V46c0-2.1,0-4.1-0.1-6.1
		C8.4,35.4,8.4,31,8.6,26.6c0.6-10.3,9.3-18,20.3-18c17,0,33.9,0,50.9,0h20.3h12.2c9.7,0,19.3,0,29,0c13.1,0,20.7,7.6,20.7,20.9
		v11.3V47.8z"/>
	<path class="st0" d="M338.2,78c-16.5,0-33,0-49.5,0h-20.2h-20.4c-6.8,0-13.6,0-20.4,0c-9.8,0-19.6,0-29.4,0
		c-11.8,0-18.3,6.4-18.3,18.1c0,30.7,0,61.5,0,92.2c0,11.7,6.5,18.1,18.3,18.1c46.6,0,93.2,0,139.8,0c11.8,0,18.3-6.4,18.3-18.1
		c0-30.7,0-61.5,0-92.2C356.5,84.5,350,78.1,338.2,78z M348,188c0,7.4-2.6,10-10,10c-23.2,0-46.5,0-69.7,0s-46.5,0-69.7,0
		c-7.4,0-10-2.6-10-10c0-30.5,0-61,0-91.5c0-7.4,2.6-10,10-10c16.9,0,33.8,0,50.7,0h19h19c16.9,0,33.8,0,50.7,0c7.4,0,10,2.6,10,10
		C348,127,348,157.5,348,188z"/>
	<path class="st0" d="M42.3,350.5c46.6,0,93.2,0,139.8,0c11.8,0,18.3-6.4,18.3-18.2c0-30.7,0-61.5,0-92.2c0-11.7-6.5-18.1-18.3-18.1
		c-16.4,0-32.8,0-49.2,0h-20.5H91.8c-6.9,0-13.7,0-20.6,0c-9.6,0-19.2,0-28.9,0c-11.8,0-18.3,6.4-18.3,18.1c0,30.7,0,61.5,0,92.2
		C24,344.1,30.5,350.5,42.3,350.5z M32.5,240.5c0-7.4,2.6-10,10-10c46.5,0,93,0,139.5,0c7.4,0,10,2.6,10,10c0,30.5,0,61,0,91.5
		c0,7.4-2.6,10-10,10c-17,0-34.1,0-51.1,0h-18.6H92.9c-6.4,0-12.9,0-19.3,0c-10.3,0-20.7,0-31,0c-7.4,0-10-2.6-10-10
		C32.5,301.5,32.5,271,32.5,240.5z"/>
	<path class="st0" d="M29.3,126.1c-3.8,0.1-5.3,1.4-5.3,5.1c-0.1,8-0.1,15.4,0,22.5c0,3.4,1.5,4.8,5.1,4.9c1.8,0,3.6,0,5.4,0
		c0.8,0,1.6,0,2.4,0H38l0.5,1c0.1,0.2,0.2,0.4,0.3,0.6c0.1,0.2,0.2,0.4,0.2,0.5c2.7,4.5,5.4,11.2-2.8,17.1c-0.8,0.6-1.3,1.3-1.4,2.2
		c-0.1,1.2,0.5,2.6,1.6,3.7c5.5,5.7,11.1,11.3,16.7,16.7c2,1.9,4.1,1.9,6.3-0.1c0.6-0.5,1.1-1.1,1.7-1.7c0.9-1,1.9-2,3-2.8
		c0.9-0.7,2.2-1.1,3.5-1.1c0.5,0,1,0.1,1.5,0.2c1.9,0.6,3.7,1.4,5.6,2.3c0.7,0.3,1.5,0.7,2.3,1l1.1,0.5v1.2c0,0.8,0,1.7,0,2.5
		c0,1.8,0,3.7,0,5.6c0.1,3.1,1.6,4.6,4.6,4.7c7.6,0.1,15.4,0.1,23.2,0c3,0,4.5-1.6,4.6-4.6c0.1-1.9,0.1-3.8,0-5.6c0-0.9,0-1.7,0-2.6
		v-1.1l1-0.5c0.2-0.1,0.4-0.2,0.6-0.3c0.3-0.1,0.5-0.2,0.7-0.3c6.9-4.2,12.4-3.3,16.7,2.9c0.6,0.9,1.4,1.4,2.3,1.4
		c1.2,0.1,2.5-0.4,3.6-1.5c5.4-5.3,11-10.9,16.7-16.7c1.1-1.2,1.7-2.5,1.6-3.7c-0.1-0.9-0.5-1.6-1.4-2.2c-8.3-5.9-5.6-12.5-2.8-17.1
		c0.1-0.1,0.1-0.3,0.2-0.5c0.1-0.2,0.2-0.4,0.3-0.6l0.5-1h3.4c1.7,0,3.4,0,5.1,0c4-0.1,5.5-1.4,5.5-5.3c0.1-8,0.1-15.2,0-22.1
		c0-3.6-1.5-5-5.3-5.1c-1.8,0-3.6,0-5.3,0c-0.8,0-1.5,0-2.3,0h-1.2L150,125c-0.2-0.4-0.3-0.8-0.4-1.1c-0.2-0.5-0.3-0.8-0.4-1.1
		c-3.9-5.9-3-11,2.9-15.4c1.1-0.8,1.7-1.8,1.8-2.8c0.1-1.2-0.6-2.7-1.9-4c-2.9-3-5.9-5.9-8.7-8.8c-1.2-1.2-2.5-2.4-3.7-3.7
		c-3.2-3.2-5.4-5.3-6.9-5.3l0,0c-1.5,0-3.6,2-6.8,5.2c-0.1,0.1-0.2,0.2-0.3,0.3c-0.4,0.4-0.9,1-1.7,1.3c-1.2,0.4-2.5,0.8-3.8,0.4
		c-2.1-0.8-4.1-1.6-6.1-2.5c-0.8-0.3-1.5-0.7-2.3-1l-1.1-0.5v-5c0-0.4,0-0.9,0-1.3c0-1,0-1.9,0-2.8c-0.1-3.3-1.6-4.8-4.8-4.9
		c-7.8,0-15.4,0-23,0.1c-3.2,0-4.7,1.5-4.8,4.8c-0.1,1.9,0,3.7,0,5.6c0,0.8,0,1.6,0,2.4V86l-1.5,0.7c-0.1,0.1-0.2,0.1-0.3,0.2
		c-4.6,2.8-11.5,5.6-17.4-2.8c-0.6-0.8-1.3-1.2-2.1-1.3c-1.2-0.1-2.6,0.5-3.8,1.7c-5.3,5.2-10.9,10.7-16.4,16.4
		c-1.2,1.2-1.9,2.7-1.7,4c0.1,0.8,0.5,1.4,1.2,1.9c8.1,5.4,6,12,2.8,17.7c-0.2,0.3-0.3,0.5-0.5,0.7c-0.1,0.1-0.1,0.2-0.2,0.3
		l-0.5,0.7h-0.8c-0.7,0-1.5,0-2.2,0C32.7,126,31,126,29.3,126.1z M32.8,134.5h1.8c0.6,0,1.2,0,1.9,0c1.4,0,2.9,0,4.3,0
		c2.8,0.1,4.3-1.1,5.4-4.2c1.8-5,3.6-9.5,5.6-13.6c1.5-3,1.2-4.8-0.8-6.7c-1-0.9-2-1.8-3.1-2.8l-3-2.7l11.8-11.7l1.2,1.5
		c0.4,0.5,0.8,1,1.2,1.5c0.9,1.1,1.8,2.2,2.7,3.2c1.9,2.1,3.9,2.3,7,0.7c3.8-2,8-3.8,12.6-5.3c4.5-1.6,5-2.2,5-6.6
		c0-1.1,0-2.2,0-3.4v-3.5H102v1.8c0,0.6,0,1.3,0,1.9c0,1.4,0,2.9,0,4.3c-0.1,2.8,1.1,4.3,4.2,5.3c4.7,1.6,9.1,3.4,13,5.3
		c4.2,2,5,1.9,8-1c0.8-0.8,1.6-1.6,2.4-2.6c0.4-0.5,0.9-1,1.4-1.5l1.3-1.5l10.7,12.7l-1.4,1.1c-0.2,0.1-0.4,0.3-0.7,0.5
		c-0.7,0.5-1.8,1.3-2.6,2.1c-3,3-3.2,3.8-1.1,7.9c2,4,3.7,8.3,5.2,12.6c1.4,4,2.2,4.7,6.1,4.7c1.2,0,2.3,0,3.6,0h3.7V150H154
		c-0.6,0-1.2,0-1.9,0c-1.4,0-2.9,0-4.3,0c-2.8-0.1-4.3,1.1-5.4,4.2c-1.7,4.9-3.4,9.1-5.3,13c-2,4.1-2.1,4.9,1.2,8.2
		c0.7,0.7,1.5,1.4,2.4,2.1c0.4,0.3,0.8,0.7,1.2,1l1.5,1.3l-12.3,11.4l-1.2-1.5c-0.2-0.2-0.4-0.5-0.6-0.8c-0.5-0.8-1.3-1.8-2.1-2.7
		c-3-3-3.8-3.1-7.9-1.1s-8.3,3.8-12.6,5.2c-4,1.4-4.7,2.2-4.7,6.1c0,1.2,0,2.3,0,3.6v3.7H86.5v-3.5c0-1.3,0-2.6,0-4
		c0-3.7-0.7-4.5-4.6-5.9c-4.6-1.6-9-3.4-12.9-5.4c-3.8-1.9-4.8-1.7-7.6,1.1c-0.8,0.8-1.6,1.7-2.3,2.6c-0.3,0.4-0.7,0.8-1,1.2
		l-1.3,1.5l-11.2-12.1L47,178c0.3-0.2,0.6-0.5,0.9-0.8c0.9-0.8,2.1-1.8,3.3-2.9c1.8-1.7,2.1-3.5,0.8-6.1c-2.1-4.5-4.1-9.3-5.9-14.2
		c-1.1-2.9-2.6-4.1-5.2-4c-1.4,0-2.8,0-4.2,0c-0.7,0-1.4,0-2.1,0h-1.8C32.8,150,32.8,134.5,32.8,134.5z"/>
	<path class="st0" d="M351.5,302.5c3.5-0.1,4.9-1.6,5-5.1c0.1-8,0.1-15.4,0-22.5c0-3.4-1.5-4.9-5.1-4.9c-1.8,0-3.6,0-5.3,0
		c-0.8,0-1.6,0-2.4,0h-1.1l-0.5-1c-0.1-0.2-0.2-0.4-0.3-0.6c-0.1-0.2-0.2-0.4-0.3-0.5c-2.7-4.5-5.4-11.3,2.8-17.1
		c0.8-0.6,1.3-1.3,1.4-2.2c0.1-1.2-0.5-2.5-1.6-3.7c-5.5-5.7-11.1-11.3-16.7-16.7c-1.1-1.1-2.5-1.6-3.6-1.5
		c-0.9,0.1-1.7,0.6-2.3,1.4c-4.4,6.2-9.8,7.1-16.7,2.9c-0.2-0.1-0.4-0.2-0.7-0.3c-0.2-0.1-0.4-0.2-0.7-0.3l-1-0.5v-1.1
		c0-0.8,0-1.7,0-2.5c0-1.8,0-3.7,0-5.6c-0.1-3.1-1.6-4.6-4.6-4.7c-7.6-0.1-15.4-0.1-23.2,0c-3,0-4.5,1.6-4.6,4.6
		c-0.1,1.9-0.1,3.8,0,5.6c0,0.9,0,1.7,0,2.6v1.1l-1,0.5c-0.2,0.1-0.4,0.2-0.6,0.3c-0.3,0.1-0.5,0.2-0.7,0.3
		c-6.8,4.3-12.3,3.4-16.7-2.8c-0.6-0.9-1.4-1.4-2.3-1.5c-1.2-0.1-2.6,0.5-3.9,1.8c-5.9,5.8-11.3,11.2-16.4,16.4
		c-1.1,1.2-1.7,2.5-1.6,3.7c0.1,0.9,0.5,1.6,1.4,2.2c6.2,4.5,7.2,10,2.8,17.1c-0.1,0.1-0.1,0.3-0.2,0.5c-0.1,0.2-0.2,0.4-0.3,0.6
		l-0.5,1h-1.1c-0.9,0-1.7,0-2.6,0c-1.8,0-3.5,0-5.1,0c-3.7,0.1-5.1,1.5-5.2,5.3c0,3.8,0,7.8,0,11.6c0,1.6,0,3.3,0,4.9
		c0,5.2,0,8.4,1,9.5s4.2,1.2,9.4,1.4c1.3,0,3.6,0.7,4.5,2.3c4.5,8.2,4.4,9-2,15.7l-0.3,0.3c-2.4,2.6-2.4,4.7,0,7.1
		c2.8,2.8,5.6,5.7,8.4,8.4c1.2,1.2,2.4,2.3,3.5,3.5c3.5,3.5,5.9,5.9,7.4,5.9l0,0c1.5,0,3.8-2.3,7.4-5.7l0.1-0.1
		c0.3-0.3,0.7-0.9,1.4-1.1c0.1,0,0.3-0.1,0.5-0.1c0.6-0.2,1.3-0.4,2.1-0.4c0.3,0,0.7,0,1.1,0.2c8.7,3,9.3,3.7,9.5,12.7v0.4
		c0.1,3.3,1.6,4.9,4.8,4.9c7.3,0.1,15,0.1,22.8,0c3.3,0,4.8-1.5,4.9-4.8c0.1-1.9,0-3.7,0-5.6c0-0.8,0-1.7,0-2.5v-1.2l1.1-0.4
		c0.4-0.1,0.7-0.3,1-0.4c0.5-0.2,0.8-0.3,1-0.4c5.9-4,11.1-3,15.7,3c0.8,1,1.7,1.5,2.6,1.6c1.2,0.1,2.6-0.6,3.9-1.8
		c2.8-2.7,5.7-5.6,8.4-8.3c1.3-1.3,2.5-2.5,3.8-3.8c3.5-3.4,5.7-5.7,5.7-7.2s-2.2-3.8-5.7-7.4c-0.1-0.1-0.2-0.1-0.2-0.2
		c-0.4-0.3-0.9-0.8-1.2-1.6c-0.3-0.8-0.7-2.2-0.2-3.4c0.8-2.1,1.6-4,2.5-6.2c0.3-0.8,0.7-1.5,1-2.3l0.5-1.1h1.2c0.8,0,1.7,0,2.5,0
		C347.9,302.6,349.7,302.6,351.5,302.5z M347.9,294h-3.6c-1.3,0-2.5,0-3.8,0c-4.1,0-4.8,0.6-6.3,5c-1.4,4-3.1,8.1-5.1,12.3
		c-2,4.1-1.9,4.9,1,7.9c0.8,0.8,1.6,1.5,2.6,2.4c0.5,0.4,1,0.9,1.5,1.3l1.5,1.3l-12.4,10.7l-1.1-1.3c-0.2-0.3-0.5-0.6-0.8-1
		c-0.8-0.9-1.8-2.1-2.9-3.2c-1.7-1.8-3.5-2-6.2-0.8c-4.5,2.1-9.3,4.1-14.2,5.9c-2.9,1.1-4,2.5-4,5.2c0,1.4,0,2.8,0,4.2
		c0,0.7,0,1.4,0,2.1v1.8h-15.5v-3.7c0-1.5,0-3.1,0-4.6c0-2.4-1-3.8-3.6-4.8c-5.1-2-10.1-4.1-14.9-6.2c-2.4-1.1-4.1-0.9-5.6,0.7
		c-1,1-2,2.2-3.1,3.4c-0.5,0.6-1,1.2-1.6,1.8l-1.3,1.5l-10.8-12.5l1.3-1.1c0.3-0.3,0.7-0.6,1.1-1c1-0.9,2.3-1.9,3.4-3.1
		c1.5-1.6,1.8-3.2,0.7-5.6c-2-4.5-4-9.3-6.2-14.9c-1-2.5-2.4-3.6-4.7-3.6c0,0,0,0-0.1,0c-1.5,0-2.9,0-4.5,0h-3.9v-15.5h8.4l0,0
		c2.4,0,3.8-1,4.8-3.6c2.1-5.3,4.1-10.2,6.2-14.9c1.1-2.4,0.8-4-0.7-5.6c-1-1.1-2.1-2.1-3.3-3.2c-0.6-0.5-1.1-1-1.7-1.6l-1.4-1.3
		l12-11.1l1.2,1.3c0.4,0.4,0.8,0.9,1.2,1.3c0.9,1.1,2,2.3,3.1,3.4c1.5,1.5,3.2,1.8,5.6,0.7c4.5-2,9.4-4,14.9-6.2
		c2.5-1,3.6-2.4,3.6-4.8c0-1.4,0-2.9,0-4.4v-4H294v3.9c0,1.5,0,3,0,4.5c0,2.4,1,3.8,3.6,4.8c4.7,1.8,9.7,3.8,14.6,6
		c2.7,1.2,4.4,1,6.2-0.8c1-1,1.9-2.1,2.9-3.2c0.5-0.6,1-1.1,1.5-1.7l1.3-1.5l11.2,12.2L334,250c-0.4,0.4-0.9,0.8-1.3,1.2
		c-1.1,0.9-2.3,2-3.4,3.1c-1.6,1.5-1.8,3.2-0.7,5.6c2.1,4.7,4.1,9.5,6.2,14.9c1,2.6,2.4,3.6,4.8,3.6h4.3h4.2V294H347.9z"/>
	<rect x="186.3" y="0.3" class="st0" width="8" height="8.1"/>
	<rect x="300.2" y="24.2" class="st0" width="8.1" height="8.1"/>
	<rect x="324.2" y="24.2" class="st0" width="8" height="8.1"/>
	<rect x="348.2" y="24.3" class="st0" width="8.2" height="8"/>
	<rect x="24.3" y="24.3" class="st0" width="98" height="8.1"/>
	<rect x="138.2" y="24.3" class="st0" width="8.1" height="8.1"/>
	<path class="st0" d="M214.1,142.1l25.6-25.6l-5.8-5.8c-2.4,2.4-4.7,4.7-7.1,7c-7.1,7.1-14.5,14.5-21.7,21.7
		c-1.3,1.3-2.4,3.2,0.8,6.5c3.3,3.3,6.7,6.7,9.9,10c1.6,1.6,3.3,3.2,4.9,4.9c3.3,3.3,6.5,6.5,9.6,9.7l3.1,3.1l6.3-5.8L214.1,142.1z"
		/>
	<path class="st0" d="M320.8,128.9c-3.7-3.7-7.5-7.5-11.3-11.3c-1.9-1.9-3.7-4-5.4-5.9c-0.4-0.5-0.8-0.9-1.2-1.4l-6.9,6.9l26,25.9
		l-25,24.8l5.6,5.9c2.3-2.3,4.7-4.7,7-7c7.1-7,14.4-14.3,21.5-21.5c1.5-1.5,2.6-3.5-0.7-6.8C327.3,135.3,324.1,132.1,320.8,128.9z"
		/>
	<polygon class="st0" points="281.7,105.8 247.4,168.7 254.9,172.7 289.2,109.8 	"/>
	<rect x="48.2" y="270.3" class="st0" width="128.2" height="8"/>
	<rect x="48.3" y="294.3" class="st0" width="128" height="8.1"/>
	<rect x="48.2" y="318.2" class="st0" width="128" height="8"/>
	<rect x="72.2" y="246.2" class="st0" width="104" height="8.1"/>
	<rect x="48.2" y="246.3" class="st0" width="8.2" height="8"/>
	<path class="st0" d="M94,170.5c7.6,0,14.8-2.9,20.2-8.3c5.4-5.4,8.3-12.6,8.3-20.2c0-15.4-12.7-28-28.2-28l0,0
		c-7.6,0-14.7,2.9-20,8.3c-5.3,5.3-8.3,12.4-8.3,20C66,157.8,78.6,170.5,94,170.5z M80.4,128.3c3.8-3.7,8.7-5.7,14-5.7
		c0.1,0,0.1,0,0.2,0c5.2,0,10.1,2.1,13.8,5.9c3.7,3.8,5.7,8.7,5.7,13.9c0,5.3-2.2,10.3-6,14c-3.7,3.6-8.6,5.6-13.8,5.6
		c-0.1,0-0.2,0-0.3,0c-10.8-0.1-19.5-9-19.4-19.8C74.5,136.9,76.6,132,80.4,128.3z"/>
	<path class="st0" d="M286.4,258h-0.1c-7.5,0-14.6,2.9-20,8.3c-5.4,5.3-8.3,12.4-8.3,19.9c0,15.5,12.5,28.2,27.9,28.4
		c0.1,0,0.2,0,0.2,0c7.6,0,14.7-2.9,20-8.2c5.4-5.4,8.4-12.5,8.4-20.1C314.5,270.7,301.9,258.1,286.4,258z M300.2,300.2
		c-3.7,3.7-8.7,5.8-13.9,5.8l0,0c-10.8,0-19.6-8.8-19.7-19.5c0-5.3,2-10.3,5.7-14c3.7-3.8,8.7-5.9,14-5.9h0.1c5.2,0,10,2,13.8,5.7
		s5.8,8.6,5.9,13.8C306,291.4,303.9,296.4,300.2,300.2z"/>
</g>
</svg>
