<?xml version="1.0" encoding="utf-8"?>
<!-- Generator: Adobe Illustrator 23.0.1, SVG Export Plug-In . SVG Version: 6.00 Build 0)  -->
<svg version="1.1" id="Layer_1" xmlns="http://www.w3.org/2000/svg" xmlns:xlink="http://www.w3.org/1999/xlink" x="0px" y="0px"
	 viewBox="0 0 381 359.7" style="enable-background:new 0 0 381 359.7;" xml:space="preserve">
<style type="text/css">
	.st0{fill:#9A9A9A;}
</style>
<g>
	<path class="st0" d="M301.2,271.1c-1-0.2-2.1-0.2-3.3-0.2l-0.9,0c-56.3,0-112.6,0-169,0l-94.2,0c-1.8,0-3.6,0-5.4-0.1
		C18.5,270.2,10.6,263.4,9,254c-0.7-3.8-0.7-7.7-0.8-11.7c0-1.8,0-3.6-0.1-5.4L8,235.3l18.7,0c11,0,21.9,0,32.9,0
		c5.8,0,5.8-3.1,5.8-4.1c0-1.2-0.3-2.1-0.9-2.7c-0.9-0.9-2.5-1.4-4.8-1.4c-10.7,0-21.5,0-32.2,0l-19.2,0l0-54.7
		c0-46.9,0-93.9,0-140.8c0-14.3,8.9-23.1,23.3-23.2c4.5,0,9,0,13.5,0c5.1,0,10.2,0,15.3,0c3.3,0,5-1.4,5-4.1c0-3.4-2.7-4.1-5-4.1
		l-5.7,0C46.4,0,37.8-0.1,29.3,0.2c-13.2,0.3-24.2,8.6-28,21c-0.3,1-0.6,2.1-0.9,3.1L0,25.6v228c0.1,0.2,0.3,0.4,0.4,0.8
		C5,271.5,15,279.1,32.8,279.1c22,0,44,0,66,0h24.7h6.1v1.5c0,3,0,6-0.1,8.9c-0.1,6.7-0.2,13,0.3,19.3c0.7,8.8-2,15.1-8.3,19.7
		c-5.6,4.1-7.8,9.5-6.8,16.6c0.1,0.8,0.1,1.6,0.1,2.3c0,0.3,0,0.6,0,0.9c0,8.2,3.2,11.4,11.2,11.4c35.3,0,70.6,0,105.9,0l23,0l0.5,0
		c0.8,0,1.6,0,2.3-0.1c5.2-0.6,8.4-4,8.5-9.3c0-1.4,0-2.9,0-4.3c0-1.8,0-3.6,0-5.4c0.2-3.5-1-6.4-3.6-8.9c-1-0.9-2-1.8-3.1-2.8
		c-3-2.6-6.2-5.3-7.6-8.9c-1.4-3.5-1.1-7.6-0.9-11.5c0.1-1.5,0.2-3.1,0.2-4.6c0-5.3,0-10.6,0-16.1l0-8.7h13.9c10.7,0,21.4,0,32.1,0
		l0.7,0c1,0,2,0,2.9-0.1c2.4-0.3,3.5-1.4,3.7-3.7C304.8,272.9,303.7,271.5,301.2,271.1z M254.1,334.5c2.2,2.7,4.6,5.7,4,10.3
		c-0.1,0.9-0.1,1.9-0.1,3.1c0,0.6,0,1.2,0,1.8v1.5H123.4l-0.2-1.3c-0.7-5.5-0.8-11.4,4.9-16.9c5.5-5.2,10.5-7.3,17.3-7.1
		c12.3,0.4,24.8,0.3,36.9,0.2c4.9,0,9.9-0.1,14.8-0.1l0.8,0c0.6,0,1.2,0,1.8,0c2.3-0.1,5.1-0.8,5.1-4.1c0-1.2-0.3-2.1-1-2.8
		c-0.8-0.9-2.2-1.3-3.9-1.3c-7.9,0-15.9,0-23.9,0l-37.9,0v-38.5h104.6v38.5l-5.8,0c-3.3,0-6.6,0-9.9,0c-2.5,0-5.5,0.7-5.6,4
		c0,1.1,0.3,2,0.9,2.7c0.9,1,2.6,1.5,4.7,1.6c0.7,0,1.3,0,2,0.1c1.6,0.1,3.1,0.1,4.5-0.1C241.8,324.7,248.3,327.4,254.1,334.5z"/>
	<path class="st0" d="M349.8,0.1c-85.2,0-171.9,0-255.7,0l-6.4,0c-1.2,0-2.5,0-3.6,0.4c-2,0.6-2.9,2-2.7,4.2
		c0.2,2.2,1.3,3.3,3.4,3.6c1,0.1,2,0.1,3.1,0.1l0.8,0c26,0,52.1,0,78.1,0h19.2V227l-98.2,0c-1,0-1.9,0-2.8,0.1
		c-2.3,0.2-3.5,1.4-3.7,3.7c-0.2,2.2,0.9,3.7,3,4.2c1.1,0.3,2.4,0.3,3.8,0.3l0.7,0c81.5,0,163,0,244.5,0h39.4l0,5.3
		c0,2.6,0,4.9,0,7.3c0,14.1-8.8,22.9-23,23.1c-4.4,0-8.9,0-13.2,0c-1.8,0-3.6,0-5.5,0c-1.7,0-3.3,0-5,0c-2.1,0-5.5,0.6-5.6,4.1
		c0,1.1,0.3,2,0.9,2.7c0.9,1,2.6,1.5,4.8,1.5c7,0,15.3,0.1,23.6,0c18.6-0.1,31.1-12.7,31.1-31.3c0-72.1,0-144.2,0-216.3
		C381,12.7,368.5,0.1,349.8,0.1z M372.7,172l0,54.8H194.9l-0.1-1.4c0-0.5-0.1-0.9-0.1-1.4c-0.1-1-0.1-1.9-0.1-2.8l0-47.1
		c0-52.4,0-106.6-0.1-159.9c0-1.7,0.2-3.4,1.3-4.6c1.2-1.2,2.9-1.3,4.5-1.3c34.4,0.1,69.3,0.1,103.1,0.1c15.2,0,30.5,0,45.7,0
		c14.5,0,23.5,9,23.5,23.4C372.7,78.5,372.7,125.2,372.7,172z"/>
	<path class="st0" d="M142.7,67.7c-14.8-7.5-29.4-15-41.7-21.3c-1.5-0.8-3-1.2-4.4-1.2c-1.5,0-3,0.4-4.6,1.2
		c-16.7,8.6-29.5,15.2-41.7,21.3c-3.6,1.8-5.2,4.3-5.2,8.1c0,14.7,0,29.5,0,44.2c0,3.7,1.6,6.3,4.9,8c13.5,6.8,27.9,14.1,42,21.4
		c3,1.6,5.8,1.6,8.6,0.2c14.1-7.2,28.2-14.4,42.3-21.6c3.3-1.7,4.8-4.2,4.8-8c-0.1-5.2-0.1-10.5,0-15.6c0-2.2,0-4.3,0-6.5
		c0-2.2,0-4.3,0-6.5c0-5,0-10.2,0.1-15.3C148,72.2,146.4,69.6,142.7,67.7z M92.2,130.5l0,9.8l-2.2-1.1c-2.7-1.4-5.4-2.8-8-4.2
		c-5.9-3.2-11.5-6.2-17.3-8.4c-9-3.4-12.5-9.1-11.4-18.9c0.6-5.6,0.4-11.2,0.3-17.2c-0.1-2.7-0.1-5.4-0.1-8.3v-2.5l7,3.6
		c3.5,1.8,6.7,3.4,10,5.1c1.6,0.8,3.3,1.7,4.9,2.5c4.5,2.3,9.2,4.7,13.7,7.1c1,0.5,3,2,3,3.8C92.3,111.2,92.3,120.6,92.2,130.5z
		 M96.7,91.6c-3.4,0-6.6-2-9.8-3.9c-1.2-0.8-2.4-1.5-3.6-2.1c-5-2.5-10.1-5.1-15.3-7.8L58.5,73l9.3-4.7c9.2-4.7,17.9-9.1,26.7-13.5
		c1.1-0.5,2.8-0.8,4.1-0.1c8.9,4.5,17.7,8.9,27,13.7l9.2,4.7l-9.4,4.8c-5.2,2.7-10.2,5.2-15.2,7.8c-1.2,0.6-2.4,1.3-3.6,2.1
		C103.3,89.6,100.1,91.5,96.7,91.6C96.7,91.6,96.7,91.6,96.7,91.6z M139.5,118c0,1.5-1.3,3.2-2.5,3.8c-9,4.7-17.8,9.2-27.2,13.9
		l-8.7,4.4l-0.3-2.1c0-0.3-0.1-0.7-0.1-1c-0.1-0.6-0.2-1.2-0.2-1.9l0-4.4c0-9,0-18.3,0.1-27.5c0-1.4,0.8-4,2.5-4.9
		c8.8-4.6,17.6-9.1,26.9-13.8l9.6-4.9l0,9.7C139.6,99.3,139.6,108.6,139.5,118z"/>
	<path class="st0" d="M196,253.8c0-1.2-0.3-2.1-0.9-2.8c-0.9-0.9-2.5-1.4-4.6-1.4c0,0,0,0,0,0c-5.4,0-5.5,3-5.5,4
		c0,1.2,0.3,2.1,1,2.9c0.9,1,2.5,1.5,4.5,1.5c0,0,0,0,0,0C192.5,257.9,195.9,257.3,196,253.8z"/>
	<path class="st0" d="M354.5,160.1c-0.9-0.3-2.1-0.3-3.2-0.3c-44.9,0-89.7,0-134.6,0c-1.1,0-2.1,0-2.9,0.3c-1.4,0.5-3.1,1.5-2.9,4.1
		c0.2,2.3,1.4,3.5,3.7,3.8c0.7,0.1,1.5,0.1,2.3,0.1c0.3,0,0.6,0,0.9,0l75.8,0l56.9,0c0,0,0,0,0,0c0.3,0,0.6,0,0.9,0
		c0.8,0,1.5,0,2.2-0.1c2.2-0.3,3.3-1.5,3.5-3.6C357.5,162.1,356.6,160.8,354.5,160.1z"/>
	<path class="st0" d="M354.4,188.2c-0.3-0.3-1.6-0.2-2.4-0.2c-0.3,0-0.6,0-1,0c-18.3,0-36.7,0-55.1,0l-11.7,0l-19,0
		c-4.8,0-9.6,0-14.4,0c-11.6,0-23.2,0-34.8,0c-3.2,0-5.1,1.5-5.1,4c0,2.5,2,4.1,5.1,4.2c0.4,0,0.8,0,1.2,0l0.6,0h19
		c37.9,0,75.8,0,113.8,0c0.3,0,0.5,0,0.8,0c1,0,2.5,0,2.9-0.3c1.5-1.3,2.7-3,2.7-4.1C357.1,191,355.9,189.4,354.4,188.2z"/>
	<path class="st0" d="M353.7,131.7c-0.4-0.3-1.5-0.2-2.3-0.1c-0.4,0-0.8,0-1.2,0c0,0,0,0,0,0c-13.3,0-26.7,0-40,0l-11,0l-8.7,0
		c-14,0-28,0-41.9,0l-0.5,0c-0.1,0-0.3,0-0.4,0c-1,0-2,0-3,0.2c-2.1,0.3-3.2,1.5-3.3,3.7c-0.1,2.3,0.9,3.7,3.1,4.2
		c1,0.2,2.1,0.3,3,0.3c41.9,0,73.8,0,103.4,0c1.3,0,2.7-0.1,3.9-0.5c1.4-0.5,2.9-1.8,2.3-3.7C356.8,134.4,355.5,132.9,353.7,131.7z"
		/>
	<path class="st0" d="M241.5,90l3.7,4.3c0.9,1.1,1.8,2.1,2.8,3.2c2.3,2.7,4.6,5.4,7,8c1.8,1.9,4.1,2.2,5.9,0.6
		c1.8-1.6,1.9-3.8,0.2-6c-0.3-0.4-0.7-0.9-1.1-1.3c-0.2-0.2-0.4-0.4-0.5-0.6l-21.4-24.8l7.3-8.4c5.1-5.9,10.1-11.7,15.1-17.5
		c3.5-4.1,1.3-6.1,0.5-6.8c-0.8-0.7-1.7-1.1-2.6-1.1c-0.1,0-0.1,0-0.2,0c-1.2,0.1-2.6,0.9-3.9,2.4c-7.6,8.7-15.5,17.9-24.3,28
		c-2.2,2.6-2.2,4.3,0.2,7C234,81.4,237.7,85.7,241.5,90z"/>
	<path class="st0" d="M309.9,106.2c0.9,0.7,1.8,1.1,2.8,1c1.2-0.1,2.3-0.7,3.3-1.8c8.6-9.9,17.3-20,25-28.9c1.8-2.1,1.8-4,0-6.2
		c-1.8-2.1-3.7-4.3-5.5-6.4l-1.3-1.5c-1.6-1.8-3.1-3.6-4.7-5.4c-4.4-5.1-8.9-10.4-13.6-15.4c-0.8-0.8-2.6-1.5-3.9-1.5
		c-0.3,0-0.5,0-0.7,0.1c-0.9,0.2-2.3,2.2-2.6,3.7c-0.1,0.6,0.5,2.1,2,4c5.1,6.1,10.2,12,15.6,18.2c1.8,2.1,3.7,4.3,5.6,6.4l0.8,1
		l-0.8,1c-2.1,2.4-4.2,4.9-6.3,7.3c-5.4,6.3-10.6,12.2-15.7,18.2C308,102.2,308,104.5,309.9,106.2z"/>
	<path class="st0" d="M279.2,106.4c2.6,0.5,4.3-1,5.1-4.5c1.5-6.6,3-13.1,4.4-19.7c1-4.6,2.1-9.2,3.1-13.8
		c1.3-5.6,2.5-11.1,3.7-16.4l1.4-6.1c0.1-3-1.1-4.9-3.3-5.3c-0.3,0-0.5-0.1-0.8-0.1c-2.9,0-3.9,3.1-4.2,4.5
		c-3.7,16.5-7.5,33.1-11.2,49.6l-1.2,5.4c-0.5,2.1-0.3,3.8,0.4,4.9C277.3,105.7,278.1,106.2,279.2,106.4z"/>
	<path class="st0" d="M217.4,140.1c2.6,0,5-0.9,5.8-2.2c0.7-1.2,0.8-2.5,0.3-3.7c-0.5-1.2-1.5-2-2.8-2.3c-0.7-0.2-1.5-0.2-2.3-0.2
		c-0.4,0-0.7,0-1.1-0.1c-0.4,0-0.7,0-1.1,0.1c-0.8,0-1.6,0.1-2.3,0.2c-1.3,0.3-2.3,1.2-2.8,2.3c-0.5,1.2-0.4,2.5,0.3,3.7
		C212.4,139.2,214.7,140,217.4,140.1z"/>
</g>
</svg>
