<?xml version="1.0" encoding="utf-8"?>
<!-- Generator: Adobe Illustrator 23.0.1, SVG Export Plug-In . SVG Version: 6.00 Build 0)  -->
<svg version="1.1" id="Layer_1" xmlns="http://www.w3.org/2000/svg" xmlns:xlink="http://www.w3.org/1999/xlink" x="0px" y="0px"
	 viewBox="0 0 384 384" style="enable-background:new 0 0 384 384;" xml:space="preserve">
<style type="text/css">
	.st0{fill:#808080;}
</style>
<path class="st0" d="M287.4,7.6c-17.4,0-35,0-52.2,0c-20,0-39.4,0-57.6,0c-17.8,0-22.5,4.5-22.5,22c0,10.8,0,21.5,0,32.3
	c0,27.2,0.1,55.4-0.3,83.1c-0.1,6.2-2.6,13.4-6.5,18.2c-7.3,9.2-15,18.2-22.5,27c-9,10.6-18.4,21.6-27,32.7
	c-6.4,8.3-10.9,18.2-12.4,27.1c-3.7,22.4-6.2,45.7-7.8,71.5c-1.1,17.7,6.9,34.8,21.3,45.6c14,10.5,31.9,13.4,47.8,7.6
	c1.1-0.4,2-1.3,3.4-2.5c0.3-0.3,0.6-0.5,0.9-0.8c-14.4,1.6-22,2-35.6-0.7c-11.3-2.2-19.6-9.7-25.5-22.9l-1.5-3.3L92,347
	c0.7,0.7,1.5,1.3,2.2,2c1.5,1.4,2.9,2.8,4.5,4c22,18.3,57.4,15.4,75.8-6.2c14.3-16.8,28.3-37.7,23.8-65.7c-0.2-1.5-0.1-2.9,0.1-4.7
	c0.1-0.9,0.2-2,0.3-3.1l0-0.7h0.7c9,0,17.8,0,26.6,0c21.4,0,41.7,0.1,62.3-0.1c14.1-0.1,20.3-6.4,20.4-20.4
	c0.1-80.3,0.1-153.6,0-224.2C308.5,13.3,302.6,7.6,287.4,7.6z M158.7,346.6c-7.3,6.1-15.7,9.1-24.5,9.1c-6.9,0-14-1.8-21.2-5.6
	c-16.2-8.4-24.5-22.3-23.5-39.3c1-17,3.2-34.2,5.3-50.8c0.6-4.4,1.1-8.8,1.6-13.2c0.4-3.3,1.9-6.9,4-9.5
	c12.8-15.7,25.7-31.3,39.3-47.7c4.2-5.1,8.5-10.2,12.8-15.5l1.1-1.3l0.2,1.7c2,14.1,1.7,23.5-5.9,32.8
	c-8.9,10.9-17.7,23.2-27.8,38.6c-1.6,2.4-1.9,5.8-2.2,9.2c-0.1,1.1-0.2,2.1-0.3,3.2c0.9-0.5,1.8-0.9,2.7-1.3c3-1.4,5.8-2.8,7.5-5
	c5.8-7.5,11.4-15.3,16.9-22.9c5.2-7.2,10.6-14.6,16-21.7c0.9-1.1,1.8-2.4,2.7-3.8c4.2-6.2,9.5-13.9,15.4-10.2c2.1,1.3,3.4,3,3.9,5.1
	c1,4.5-2.3,9.8-5,14.1c-0.6,1-1.2,1.9-1.7,2.7c-5.9,10.3-13.1,23.8-16.9,37.5c-1.9,6.9-0.8,14.9,0.2,22.5c0.1,0.8,0.2,1.6,0.3,2.5
	c2.2,17.1-3.3,30.3-16.7,40.4c-0.7,0.5-1.4,1-2.2,1.5c-2.7,1.8-5.8,3.9-6.3,6.6c-0.3,1.5,0.3,3.2,1.7,5.1c1.4,0.3,9.4-2.7,13.2-5.9
	c18.3-15.4,18.3-15.4,20.7-50.6l0.1-1.9h15.8l0.1,0.6C193.6,301.3,184.6,325.2,158.7,346.6z M295.2,259.6c-2.1,2.1-5.4,3-10.6,3
	c-0.2,0-0.3,0-0.5,0c-23.9-0.3-48.1-0.2-71.6-0.2c-10.9,0-21.8,0-32.7,0c-2,0-4-0.2-6-0.4c-1-0.1-2-0.2-3.1-0.3l-0.5,0l-0.1-0.5
	c-3.2-12.6,2.8-22.1,8.5-31.3c0.9-1.4,1.7-2.7,2.5-4.1c1.2-2.1,5.5-2.2,9.7-2.3l1.6,0c26.4-0.1,53.7-0.3,80.5,0.1
	c4,0,8.3-0.5,9.6-1.9c1.3-1.3,1.9-3.6,1.9-7.3c-0.3-58.3-0.2-117-0.1-172.1c0-3.4-0.3-7.9-1.7-9.3c-1.1-1.1-5-1.6-7.8-1.6
	c-22.4,0.2-44.4,0.2-67.8,0.1c-7.6,0-18.6,0-27,0c-0.8,0-1.7-0.1-2.1,0.4c-0.3,0.3-0.3,1.4-0.3,1.4v146.7l-0.8,0
	c-5.2-0.3-5.3-0.3-10.1,2.2l-1,0.5l-0.1-1.1c-0.1-0.9-0.2-1.7-0.2-2.5c-0.2-1.8-0.4-3.5-0.4-5.2c0-14.1,0-28.2,0-42.4
	c0-33,0.1-67.2-0.2-100.8c0-5.3,0.9-8.6,3-10.7c2.1-2.1,5.4-3,10.6-2.9c36.4,0.4,72.3,0.4,106.5,0c5-0.1,8.3,0.9,10.4,2.9
	c2.1,2.1,3.1,5.4,3,10.9c-0.3,80.5-0.3,151.7,0,217.6C298.4,254,297.4,257.4,295.2,259.6z M191.3,191.5c-0.4-2.5-4-6.8-5.4-8.3
	l-0.2-0.2l0-0.3c0-0.1-0.3-10.2-0.4-13.8c-0.4-29.3-0.3-59-0.3-87.8c0-9.9,0-19.9,0-29.8V38h91.8v178.7h-92c0,0,1.7-1.5,2.3-2.7
	c1.3-2.5,2.4-4.6,2.9-6.8C191.6,200.8,192.1,197.2,191.3,191.5z"/>
<circle class="st0" cx="227" cy="243.1" r="10.4"/>
</svg>
