<?xml version="1.0" encoding="utf-8"?>
<!-- Generator: Adobe Illustrator 23.0.1, SVG Export Plug-In . SVG Version: 6.00 Build 0)  -->
<svg version="1.1" id="Layer_1" xmlns="http://www.w3.org/2000/svg" xmlns:xlink="http://www.w3.org/1999/xlink" x="0px" y="0px"
	 viewBox="0 0 384 384" style="enable-background:new 0 0 384 384;" xml:space="preserve">
<style type="text/css">
	.st0{fill:#818181;}
</style>
<path class="st0" d="M359.5,305c-5.3-5-10.4-10.2-15.4-15.3c-2.2-2.2-4.4-4.5-6.6-6.7l-10.4-10.4c-8.5-8.5-17.3-17.3-26-26
	c-3.1-3.1-5.5-3.1-8.6,0c-0.8,0.8-1.5,1.7-2.1,2.7c-0.3,0.5-0.7,1-1,1.4L287,254l-31.8-31.6l1.7-2.8c0.3-0.4,0.5-0.9,0.8-1.3
	c25.9-39.4,30.5-81.7,13.6-125.6c-1.5-4-0.1-6.5,1.6-8.4c7.3-8.8,14.6-17.6,21.9-26.4l19.4-23.3l1,8.1c0.6,5,0.7,9.8,0.7,14.4
	c0,1.3,0,2.7,0.1,4c0,1.9,0.7,3.4,1.8,4.5c0.9,0.8,2.1,1.3,3.3,1.2c3-0.1,4.7-2.2,4.8-5.7c0.1-14.1,0.1-28.1,0-41.5
	c0-4.1-1.6-5.7-5.7-5.7c-13.2-0.1-26.8-0.1-41.5,0c-1.9,0-3.5,0.6-4.5,1.6c-0.8,0.8-1.3,2-1.2,3.3c0,3.6,3.1,4.9,5.9,4.9
	c4.3,0.1,8.6,0.1,12.8,0c2.4,0,4.8,0,7.2,0c0.9,0,1.7,0.1,2.6,0.2c0.5,0,1,0.1,1.5,0.1l6.8,0.5l-44.8,54l-2.6-4.2
	c-18.9-30.6-48.5-51.8-83.4-59.7C144,6.8,107,13.3,77.4,32.6C20.8,69.4,1.3,144.9,32.9,204.4c16.2,30.5,40.6,51.6,72.4,62.6
	c42.1,14.6,82.7,9,120.8-16.4l2.4-1.6l31.5,31.4l-3,2.4c-0.2,0.2-0.5,0.4-0.8,0.6c-0.5,0.4-1.2,0.9-1.7,1.4
	c-2.4,2.3-3.5,4.1-3.5,5.5c0,1.4,1.2,3.2,3.6,5.6c5.1,5.1,10.2,10.2,15.3,15.3c12.1,12,24.6,24.5,36.7,36.9l0.2,0.2
	c7.9,8.1,15.4,15.8,26.2,16.7h0c0.5,0,1,0.1,1.5,0.1c1.1,0.1,2.1,0.2,3,0.2c1.3,0,3,0,4.4-0.3c4.5-0.8,9.2-2.7,14-5.6
	c7.8-4.6,12.6-11.7,15-22.3c0.8-3.9,0.7-9.5,0.6-10.6C370.5,318.8,366.6,311.8,359.5,305z M31.2,173.2l-0.4-2
	c-0.2-1.4-0.5-2.7-0.7-4.1c-0.5-2.9-1.1-6-1.5-9c-6.6-47,17.6-96.3,58.8-119.9c46.7-26.7,101.1-21.8,142,12.8
	c10.5,8.9,19.3,19.6,26,31.9c1.1,2,1.1,5.4-0.6,7.5c-8.1,9.9-16.5,20-24.5,29.7l-4.2,5.1c-0.4,0.5-0.8,0.8-1.2,1.1
	c-0.1,0.1-0.2,0.2-0.4,0.3l-1.8,1.4l-86.2-45.9c-1.5-0.8-2.9-1.6-4.4-2.3c-3.8-2-5.2-1.7-8.1,1.4c-9.4,10-18.8,20-28.2,30l-27.2,29
	c-9.7,10.3-19.4,20.7-29.1,31c-0.2,0.2-2.5,2.6-2.7,3.1c-0.2,0.3-0.4,0.6-0.6,0.9l-1.5,2.1l-2.1,3L31.2,173.2z M222.3,240.8
	c-20.8,15.8-46,24.1-71.9,24.1c-10.3,0-20.8-1.3-31.1-4c-36.4-9.4-65.8-33.9-80.7-67.3c-1.5-3.3-1-6.1,1.5-8.7
	c31.5-33.5,58-61.7,84.7-90.4c3.4-3.6,6.8-4.2,11.2-1.7c21.7,11.7,43.9,23.5,65.3,34.9l18.5,9.8c5.7,3,6.6,2.9,10.8-2.1
	c8.5-10.3,17.1-20.6,25.6-30.9c0.5-0.6,0.9-1.1,1.5-1.7c0.3-0.3,0.6-0.7,0.9-1.1l3.9-4.4l2,5.6c5.8,16.6,8,32.8,6.5,49.5
	C267.8,188.8,251.4,218.6,222.3,240.8z M237.6,241.6l10.4-10.8l30.3,30.3l-11.5,9.7L237.6,241.6z M356.2,345.8
	c-4.4,5.5-10.5,8.7-17.2,9.1c-0.5,0-1,0-1.4,0c-6.4,0-12.5-2.6-17.3-7.3c-6.6-6.5-13.3-13.2-19.7-19.6c-3.2-3.3-6.5-6.5-9.7-9.8
	c-5.7-5.7-11.4-11.4-17.2-17.1l-10.5-10.4l33.4-33.4l2.4,1.9c0.1,0.1,0.2,0.1,0.2,0.2c0.5,0.3,1.1,0.8,1.8,1.5l10.8,10.8
	c13.7,13.7,27.9,27.8,41.8,41.8C363,322.7,364,336.1,356.2,345.8z"/>
</svg>
