<?xml version="1.0" encoding="utf-8"?>
<!-- Generator: Adobe Illustrator 23.0.1, SVG Export Plug-In . SVG Version: 6.00 Build 0)  -->
<svg version="1.1" id="Layer_1" xmlns="http://www.w3.org/2000/svg" xmlns:xlink="http://www.w3.org/1999/xlink" x="0px" y="0px"
	 viewBox="0 0 384 384" style="enable-background:new 0 0 384 384;" xml:space="preserve">
<style type="text/css">
	.st0{fill:#808080;}
	.st1{fill:none;}
</style>
<path class="st0" d="M236.3,300.9c-1.1-2.6-2.2-5-3.4-8.5c-2.4-6.9-5.6-11.4-14.1-11c-5.1,0.3-10.3,0.2-15.4,0.2c-1.9,0-3.9,0-5.8,0
	c-12.9,0-19.4,0-23.5,2.7c-4.1,2.7-6.6,8.6-11.7,20.4c-1.7,4-2.1,6.9-1.2,8.4c0.9,1.4,3.6,2.2,7.7,2.2c7.2,0.1,14.6,0.1,21.8,0
	c3.1,0,6.2,0,9.3,0c0.1,0,0.2,0,0.2,0c3.3,0,6.5,0,9.8,0c7.5,0,15.3,0.1,22.9-0.1c2.2-0.1,5-0.5,6.1-2.2c1.1-1.7,0.4-4.4-0.4-6.4
	C237.8,304.3,237,302.6,236.3,300.9z M222.3,305.2h-47.7l0.2-2.7c0.6-8.3,5-12,13.4-11.4c5.2,0.3,10.6,0.3,15.8,0.2
	c2.8,0,5.7-0.1,8.6-0.1c8.9,0.1,9.5,1.3,12.1,10.7l0.9,3.2L222.3,305.2z"/>
<path class="st0" d="M234.1,139c-1.4,0-6,5-6.9,5.9c-4.5,4.5-4.7,4.7-9,8.9c-1.9,1.9-3.6,3.6-5.1,5.2c-5.3,5.4-8.5,8.7-10.5,8.7
	c0,0,0,0,0,0c-2,0-5.1-3.2-10.3-8.5c-1.5-1.5-3.1-3.2-5-5.1c-2.2-2.2-4.2-4.6-6.6-7.4c-1.2-1.4-2.5-2.9-3.9-4.6l-1.8-2.1l-1.9,2
	c-2.6,2.8-5.1,5.4-7.6,8c-5.7,6-11,11.6-16.3,17.2l-0.2,0.2c-1.8,1.9-3.8,4-5.4,3.9c-0.8,0-1.8-0.6-2.9-1.8c-2.5-2.7-2-4.6,2.5-9
	l3.7-3.7c7.7-7.7,15.7-15.6,23.4-23.5c1.9-1.9,3.6-2.9,5.1-2.9c0,0,0,0,0,0c1.6,0,3.3,1,5.3,3.1c4.6,4.8,7.4,8.4,12.1,12.9
	c2,1.9,5,4.9,7,6.8l2.8,2.7l28.4-25.6c0,0,2.6-2.7,3.9-2.6c0.8,0,3.2,2.6,3.2,2.6l32.5,36.2c0,0,7.3,7.8,8.6,8.2
	c1.3,0.3,5-9.5,6.2-12.8c2.1-5.4,4.8-12.5,8.2-21.7c0.8-2.3,7.2-22.4,11.2-22.6c4.7-0.2,7.5,3.5,9.4,5.3c2.7,2.6,8.4,6.7,12.8,8.2
	c6.9,2.4,53.2,0.2,47.9,1l4.1,2l-4,2.5c0,0-39.2,4.4-51.5,0.6c-2.5-0.8-8.6-5.9-8.6-5.9s-5.4-5.9-7-5.6c-1.6,0.3-4.3,7.8-4.3,7.8
	s-11.7,36.8-19.3,48.1c-0.8,1.2-2,2.2-4,2.6c-2.4,0.5-5.9-2.1-5.9-2.1l-36.9-40.8C237.4,141.6,235.3,139,234.1,139z"/>
<polyline class="st1" points="313.1,114.1 313.1,113.5 313.1,69.1 88.8,69.1 88.8,213.1 313.1,213.1 313.1,150.5 "/>
<path class="st0" d="M313.1,213.1H88.8v-144h224.3v44.4v0.6h8.3c0-14.9,0-32.7,0-43.6c0-8.9-0.8-9.6-9.9-9.6c-67.3,0-155,0-221.1,0
	c-9.1,0-9.7,0.5-9.7,9.7c-0.1,34.9-0.1,102.3,0,140.7c0,9.7,0.4,10,10.3,10c24.1,0,58.3,0,82.4,0l27.2,0c9.1,0,18.3,0,27.4,0
	c9.1,0,18.3,0,27.5,0c15.5,0,41.1,0,56.6,0.2c3.7,0.1,6.1-0.6,7.5-1.9c1.3-1.3,2-3.7,2-7.4l-0.1-61.6h-8.3V213.1z"/>
<g>
	<polyline class="st1" points="329.8,114.1 329.8,52.5 71.8,52.5 71.8,230.6 329.8,230.6 329.8,150.5 	"/>
	<path class="st1" d="M321.6,238.2C321.5,238.2,321.5,238.2,321.6,238.2c-64.9,0.1-130.9,1.1-194.6,1.1l-56,0l-0.6,1.5
		c-5.8,13.5-11.7,30-17.3,45.9c-5.7,16.1-11.7,32.8-17.6,46.7l-1.5,3.5h327.9l-1.2-3.3c-0.4-1.1-0.7-2-1-3c-0.6-1.9-1.2-3.6-2-5.3
		c-3.7-10.5-7.9-25.1-10.9-37.4c-3.6-14.7-13.3-49.3-13.3-49.3S324.6,238.2,321.6,238.2z"/>
	<path class="st0" d="M329.8,230.6h-258v-178h258v61.5h9.1c0-5.3,0-10.3,0-14.7c0-16.2,0-31.9,0-46.9c0-9.9-0.7-10.1-9.3-10.1
		c-29.2,0-58.3,0-87.5,0c-56.2,0-114.3,0-171.5-0.1c0,0,0,0-0.1,0c-3.6,0-5.9,0.6-7.2,2c-1.4,1.4-2,3.8-1.9,7.6
		c0.3,27.1,0.2,60.8,0.1,90.6l0,15.6c0,7.5,0.3,15.3,0.6,22.9c0.8,18.2,0.9,53.3,0.9,53.3S41.3,291,31.2,314l-0.2,0.4
		c-3.6,8.2-7.6,17.1-11.4,25c-0.1,0.8-0.2,1.6-0.4,2.4c-0.2,1.1-0.5,2.4-0.1,2.8c1.8,2.3,6.4,2.3,10.1,2.3H30
		c114.8,0.2,220.8,0.2,333.6,0c0.5,0,1,0,1.5,0c3.8,0,5.5-0.9,7.2-3.3c0.2-0.6,2.1-1.8-1.5-9.4c-0.3-0.6-0.5-1.1-0.7-1.5
		c-7.7-17.9-30.4-98.4-30.4-98.4s-0.4-43-0.7-83.9h-9.3V230.6z M346.7,287.9c3,12.2,7.2,26.9,10.9,37.4c0.7,1.7,1.3,3.5,2,5.3
		c0.3,0.9,0.7,1.9,1,3l1.2,3.3H33.9l1.5-3.5c5.9-13.9,11.9-30.6,17.6-46.7c5.7-15.9,11.5-32.4,17.3-45.9l0.6-1.5l56,0
		c63.8,0,129.7-1,194.6-1.1c0,0,0.1,0,0.1,0c3,0,11.8,0.5,11.8,0.5S343.1,273.3,346.7,287.9z"/>
</g>
</svg>
