<?xml version="1.0" encoding="utf-8"?>
<!-- Generator: Adobe Illustrator 23.0.1, SVG Export Plug-In . SVG Version: 6.00 Build 0)  -->
<svg version="1.1" id="Layer_1" xmlns="http://www.w3.org/2000/svg" xmlns:xlink="http://www.w3.org/1999/xlink" x="0px" y="0px"
	 viewBox="0 0 384 384" style="enable-background:new 0 0 384 384;" xml:space="preserve">
<style type="text/css">
	.st0{fill:#808080;}
</style>
<path class="st0" d="M377.8,143.5c-0.3-22.6-15.9-43-37.8-49.6c-0.6-0.2-1.3-0.4-2-0.6l-2.5-0.8l1.2-1C350.6,79,353.7,65,353.8,55.5
	c0.2-13-5.2-25.9-14.4-34.7C320.7,3.1,292.6,3.1,273.9,21c-9.3,8.9-14.5,21.5-14.2,34.5c0.2,13.4,6.3,26.2,17.1,35.9l1.2,1.1
	l-1.6,0.4c-11.3,3.1-20.2,8.5-27.4,16.5c-7.4,8.3-11.7,18-13.2,29.6l-0.1,0.9l-0.9-0.1c-16-1.7-29.9,3.2-41.3,14.5l-0.5,0.5
	l-0.6-0.5c-19.2-14.1-19.6-14.2-42-14.9l-0.8,0l-0.1-0.8c-1.3-11-5.6-20.8-12.8-29c-7.2-8.3-16.3-13.8-27.7-16.9l-1.6-0.4l1.2-1.1
	c13.8-12.4,16.9-26.3,17.1-35.7c0.3-12.9-4.8-25.5-13.9-34.5C94,3.7,65.3,3.2,46.7,20.3c-9.4,8.6-15.1,21.7-15,34.9
	c0,9.6,3,23.7,17,36.2l1.1,1l-2.2,0.8c-0.6,0.2-1.1,0.4-1.7,0.6c-21.8,7.3-34.4,21.9-37.4,43.5c-1.2,8.3-1,17-0.9,25.4
	c0,2,0.1,3.9,0.1,5.9c0.2,15.4,7,27.3,20.4,35.5c2.7,1.6,3.6,3.3,3.6,6.3c-0.1,26.8-0.1,54.1-0.1,80.5l0,20c0,4.1,0,8.3,0,12.4
	c0,9.4-0.1,19.2,0.1,28.8c0.1,7.8,3.6,15.1,9.7,19.9c6.1,4.9,14,6.8,21.7,5.2c5.4-1.1,10.2-4,15.1-9.2l0.7-0.7l0.6,0.7
	c5.3,6.1,11.4,9.2,18.6,9.7c7.3,0.5,14.1-2,19.3-6.9c5.4-5,8.3-12,8.3-19.7c0.1-28,0-56.4,0-83.9c0-11.3,0-22.5,0-33.8v-6.6
	l66.9,56.6l66.9-56.6l0,39c0,28.3,0,56.6,0,84.9c0,11.8,6.1,21.1,16.3,25.1c10.6,4.1,20.2,2,28.6-6.3c0.4-0.4,0.8-0.7,1.2-1
	c0.2-0.1,0.4-0.3,0.6-0.5l0.7-0.5l0.6,0.6c5.3,6,11.4,9.2,18.7,9.6c7.3,0.4,14.1-2.1,19.2-6.9c5.3-5.1,8.3-12.1,8.3-19.9
	c0.1-49.4,0-95.4,0-140.6c0-3,1-4.7,3.6-6.3c11.8-6.9,18.4-16.7,19.7-28.9c1-9.6,0.9-19.6,0.7-29.2L377.8,143.5z M269.9,54.7
	c0-9.8,3.9-19,10.9-26c7-7,16.2-10.8,26-10.8c0,0,0.1,0,0.1,0c20.3,0,36.8,16.6,36.8,37c0,9.8-3.9,19.1-10.9,26
	c-7,7-16.2,10.8-26,10.8c0,0,0,0-0.1,0c-9.8,0-19-3.9-26-10.9S269.8,64.5,269.9,54.7z M321,102.2l-14.2,21.4l-14.3-21.4H321z
	 M41.9,54.8c0-20.3,16.5-36.9,36.8-37h0h0c0,0,0,0,0.1,0c20.3,0,36.9,16.5,36.9,36.8c0,20.3-16.5,36.9-36.8,37c0,0-0.1,0-0.1,0
	c-9.8,0-19-3.8-26-10.8C45.7,73.9,41.9,64.6,41.9,54.8z M91.5,102l-0.1,0.9c-0.4,7.3-5.7,12.6-12.6,12.7c0,0-0.1,0-0.1,0
	c-6.9,0-12-5.1-12.8-12.6l-0.1-1H91.5z M28.2,117c6.8-8.5,16.1-13.6,26.2-14.3l0.8-0.1l0.2,0.8c2.9,14.4,11.1,22.3,23.1,22.5
	c0.1,0,0.2,0,0.3,0c12.2,0,20.1-7.7,23.6-23l0.2-0.9l0.9,0.3c1,0.3,2.1,0.6,3.1,0.9c2.3,0.6,4.6,1.3,6.8,2.2
	c14.8,6.6,23.5,18.2,25.9,34.3c0.4,2.4-0.3,3.7-2.4,4.7c-2.2,1.1-4.3,2.4-6.5,3.7c-1,0.6-2,1.2-3,1.8l-1.4,0.8v-16.8h-10.2v35.5
	l-0.9,0c-0.4,0-0.8,0-1.1,0.1c-0.7,0-1.3,0.1-1.8,0.1l-2.9,0c-9.8,0-19.5,0-29.3,0c-7.8,0-15.6,0-23.3,0c-6.1,0-8.6-2.5-8.6-8.5
	c0-6.6,0-13.1,0-19.7l0-7.6H37.8v23.6H18.4l-0.1-0.8C16.1,142,19.7,127.5,28.2,117z M115.6,349.6c0,1.8,0,3.6-0.4,5.4
	c-1.8,8.1-9.2,13.5-17.3,12.5c-8.1-0.9-14.1-7.7-14.1-16.1c0-21.7,0-43.7,0-65.1l0-50.5H73.6l0,34c0,26.9,0,53.9,0,80.8
	c0,5.9-2.5,11-6.9,14.1c-2.6,1.8-5.7,2.8-8.8,2.8c-1.8,0-3.6-0.3-5.4-0.9c-6.5-2.3-10.6-8.3-10.6-15.6c0-15.9,0-31.7,0-47.6l0-93.7
	h73.8l0,25.5C115.7,273.4,115.7,311.5,115.6,349.6z M117.8,199.6c-5.4,0-10.8,0-16.2,0.1c-7.8,0-15.7,0.1-23.7,0.1
	c-10.4,0-20.9-0.1-31.3-0.3c-7.5-0.2-14.9-3.6-20.3-9.4c-5.5-5.9-8.5-13.7-8.2-21.3l0-0.9H19c1.5,0,3,0,4.4,0c4.4,0,8.5,0,12.7,0.1
	c1.3,0,2.8,1.3,3.4,2.4c3.6,6.4,8.9,9.5,16.3,9.5c0,0,0,0,0,0c21.9,0,41.8,0,60.7,0c3.7,0,7,1.4,9,3.9c1.8,2.2,2.4,4.9,1.9,7.8
	C126.5,196.3,122.6,199.6,117.8,199.6z M257.8,213.8c-0.3,0.4-0.7,0.8-1,1.2c-0.9,1.1-1.9,2.3-3.1,3.3
	c-16.1,13.7-32.5,27.6-48.4,41.1l-12.5,10.6l-10.2-8.6c-7.9-6.7-15.8-13.3-23.6-19.9c-2.1-1.8-4.3-3.6-6.5-5.4
	c-6.2-5.2-12.5-10.5-18.7-15.9c-2.4-2.1-4.5-4.6-6.6-7l-0.4-0.5c-0.9-1-1.2-2-1.1-2.9c0.1-1,0.9-2,2.2-2.9
	c6.2-4.3,9.8-10.4,9.9-16.9c0-6.6-3.6-12.9-10-17.4c-1.3-0.9-2-1.9-2.2-3.1c-0.3-1.8,0.8-3.4,1.8-4.8c6.1-8.2,15.5-13.6,25.9-14.6
	c10.5-1,20.8,2.3,28.5,9.3c2.6,2.4,5,5.1,7.6,8c1.1,1.2,2.2,2.4,3.3,3.7c1.1-1.2,2.2-2.4,3.2-3.6c2.5-2.9,4.9-5.5,7.5-7.9
	c7.5-6.9,17.8-10.4,28.2-9.4c10.4,1,20,6.2,26.2,14.5c1.1,1.5,2.1,3.1,1.9,4.8c-0.3,1.7-1.8,2.9-3.3,4c-5.7,4-8.9,10.1-8.8,16.8
	c0.1,6.6,3.4,12.5,9.1,16.2c1.8,1.1,2.7,2.3,2.8,3.5C259.7,211.3,258.7,212.7,257.8,213.8z M343.6,350.6c0,5.9-2.5,11.1-6.9,14.2
	c-2.6,1.9-5.7,2.8-8.8,2.8c-1.8,0-3.5-0.3-5.3-0.9c-6.7-2.3-10.7-8.2-10.8-15.9c0-16.6,0-33.1,0-49.7l0-65.3h-10.2l0,33.9
	c0,27.1,0,54.2,0,81.3c0,5.7-2.5,10.7-6.8,13.8c-4.1,2.9-9.3,3.7-14.2,2c-6.6-2.2-10.7-8.2-10.7-15.5c0-10.2,0-20.4,0-30.5l0-110.8
	h73.6l0.1,0.8c0,0.2,0,0.5,0.1,0.8c0.1,0.7,0.1,1.5,0.1,2.2l0,16.8C343.7,270.6,343.7,310.6,343.6,350.6z M359.3,189.9
	c-5.5,5.9-12.9,9.3-20.4,9.5c-10.5,0.2-21,0.3-31.5,0.3c-8.4,0-16.7,0-24.9-0.1c-4.9,0-9.9-0.1-14.8-0.1c-2.7,0-5.2-1.1-7-2.9
	c-1.9-1.9-2.8-4.4-2.8-7.1c0.1-5.7,4.5-9.6,10.6-9.6c19.7,0,40-0.1,60.3,0c0.1,0,0.1,0,0.2,0c8,0,13.6-3.2,17.1-9.8
	c0.5-1,2-2.1,3.2-2.1c4.2-0.1,8.4-0.1,12.8-0.1c1.4,0,2.9,0,4.3,0h0.9l0,0.9C367.8,176.3,364.8,184,359.3,189.9z M367.6,152.2
	c0,1.4,0,2.9,0,4.4v0.9H348v-23.6h-10.3v5.5c0,2.2,0,4.5,0,6.7c0,5.2,0,10.5,0,15.8c0,4.9-2.6,7.7-7.1,7.7c-9.4,0-19,0-28.5,0
	c-5.1,0-10.3,0-15.3,0l-16.6,0v-35.7h-10.2v16.9l-13.6-8l0-0.5c0.1-17.4,14.5-35.2,31.4-39c3-0.7,4.1,1,5,2.5
	c7.3,11,14.6,22,21.9,32.9l0.5,0.7c0.5,0.7,0.9,1.3,1.5,2.1l0.2,0.2c0,0,0.1-0.1,0.1-0.1c0.5-0.7,1-1.3,1.4-1.9l5-7.4
	c5.8-8.6,11.7-17.5,17.4-26.3c1.7-2.6,3.5-3.3,6.4-2.5c17.5,5.3,30.1,21.6,30.6,39.8C367.7,146.3,367.7,149.2,367.6,152.2z"/>
<path class="st0" d="M198.8,201.6c0.4,0.6,0.6,1.3,0.9,1.9c0,0,0,0.1,0,0.1h10.1c-0.5-5.8-2.4-9.5-5.7-11.2
	c-6.6-3.4-6.7-8.6-6.2-14.1c0.1-0.7,0-1.4,0-2.2c0-0.1,0-0.2,0-0.3h-10.2c0,0.6,0,1.3,0,1.9c0,2-0.1,4,0.1,5.9
	c0.2,2.7-0.4,4.9-3.7,6.7c-5.9,3.1-9.2,10-8.2,16.8c1,6.9,6.1,12.5,12.9,14.1c0.9,0.2,1.7,0.3,2.7,0.4c0.8,0.1,1.6,0.2,2.5,0.3
	c3.6,0.7,5.6,3,5.8,6.5c0.2,3.3-1.6,5.8-4.9,6.8c-3.3,1-6.2-0.2-8-3.3c-0.4-0.6-0.6-1.3-0.9-1.9c0,0,0-0.1,0-0.1h-10.1
	c0.5,5.6,2.3,9.3,5.4,10.9c6.8,3.5,6.9,8.9,6.5,15.1c0,0.5,0,1.1,0,1.7c0,0,0,0,0,0h10.2c0-0.6,0-1.3,0-1.9c0-2,0.1-4-0.1-5.9
	c-0.2-3.3,0.8-5.1,3.7-6.7c5.9-3.1,9.2-10,8.2-16.8c-1.1-7-6-12.4-12.9-14.1c-0.8-0.2-1.7-0.3-2.7-0.4c-0.8-0.1-1.6-0.2-2.5-0.3
	c-3.6-0.7-5.6-3-5.8-6.5c-0.2-3.3,1.6-5.8,4.9-6.8C194.1,197.2,196.9,198.4,198.8,201.6z"/>
<rect x="301.9" y="151.8" class="st0" width="9.7" height="9.7"/>
</svg>
