<?xml version="1.0" encoding="utf-8"?>
<!-- Generator: Adobe Illustrator 23.0.1, SVG Export Plug-In . SVG Version: 6.00 Build 0)  -->
<svg version="1.1" id="Layer_1" xmlns="http://www.w3.org/2000/svg" xmlns:xlink="http://www.w3.org/1999/xlink" x="0px" y="0px"
	 viewBox="0 0 384 384" style="enable-background:new 0 0 384 384;" xml:space="preserve">
<style type="text/css">
	.st0{fill:none;stroke:#808080;stroke-width:10;stroke-miterlimit:10;}
	.st1{stroke:#808080;stroke-width:10;stroke-miterlimit:10;}
</style>
<g>
	<path class="st0" d="M271.3,4.3c12.9,0.2,15.1,13.3,14.8,26.2c-0.2,8.1-0.1,16.3-0.1,25.6c8.8,0,17.1-0.1,25.4,0
		c14.6,0.2,21.9,7.6,21.9,22.2c0,31.5-0.1,63,0.1,94.5c0,6.1-1.1,10-8.2,10c-7.4,0-8.7-3.9-8.7-10.5c0.3-30.4,0-60.8,0.2-91.3
		c0.1-6.3-1.5-8.9-8.2-8.5c-7.2,0.5-14.5,0.1-22.6,0.1c0,3.6,0,6.6,0,9.5c0,30.2-0.1,60.3,0.1,90.5c0,6.3-1.7,9.9-8.5,9.9
		c-6.9,0-8.5-3.6-8.5-9.9c0.2-47-0.1-94,0.3-141c0.1-7.9-1.7-10.8-10.3-10.8c-72,0.3-144,0.3-216,0c-7.8,0-10,2.1-10,10
		c0.3,84.8,0.2,169.5,0.2,254.3c0,10.4,0,10.4,10.9,10.4c41,0,82,0,123.1,0c8.3,0,12.4,4.3,9.3,10.6c-1.4,2.9-6.5,5.6-9.9,5.6
		c-25.3,0.5-50.5,0.3-75.8,0.3c-3,0-6,0-10.1,0c0,10.5-0.3,20.7,0.3,30.9c0.1,1.3,4.8,3.4,7.3,3.4c26.1,0.3,52.2,0.3,78.2,0
		c6.8-0.1,9.7,2.9,9.7,9c0,4.4-1.8,7.8-7.3,7.8c-29.1-0.1-58.1,0.1-87.2-0.3c-10-0.1-17.3-8.5-17.6-18.8c-0.2-10.3-0.1-20.5-0.1-32
		c-8.4,0-16.2,0-23.9,0C23.8,312,16.6,305,16.5,289c-0.1-87.2,0.1-174.4-0.2-261.6c0-11.9,3.6-21.9,15.3-23.1
		C111.5,4.3,191.4,4.3,271.3,4.3z"/>
	<path class="st0" d="M337.8,325.7c10.6,11.7,21,23,31.8,34.9c-7.3,6.6-14.2,13-21.9,20C337.2,369,327,358,316.9,347
		c-43.2,25-83.3,6.6-101.3-18.5c-21.6-30.2-18.3-70.5,8-96.6c25.6-25.4,66.5-28.2,96.1-6.6C345.6,244.4,361.8,284.2,337.8,325.7z
		 M334.8,285.5c0.1-32.5-26.3-59.3-58.5-59.5c-32.9-0.2-59.8,26.2-60,58.9c-0.3,32.2,27.2,59.8,59.5,59.7
		C307.9,344.5,334.7,317.6,334.8,285.5z"/>
	<path class="st0" d="M220.5,120.4c-14.4,7.5-27.4,7.3-39.6-0.8c-13.2-8.9-18.3-22.1-15.4-37.5c3.1-15.9,13.6-25.3,31-29.3
		C197.3,77.8,204.3,100.6,220.5,120.4z"/>
	<path class="st0" d="M129.8,162.3c21.2,0,42.3,0.1,63.5-0.1c5.4,0,10.5,0.9,10.6,7.1c0.1,6.7-5.1,7.8-10.9,7.8
		c-42.3-0.1-84.6-0.1-126.9,0c-5.4,0-10.4-0.7-10.6-7.2c-0.2-7.1,5.2-7.7,10.8-7.7C87.5,162.4,108.7,162.3,129.8,162.3z"/>
	<path class="st0" d="M118.8,201.4c17.6,0,35.2,0.1,52.9,0c5.3,0,10.3,0.6,10.3,7.3c0,6.6-4.7,7.5-10.2,7.5
		c-35.5-0.1-71-0.1-106.5,0c-5.6,0-10.4-1.4-10.4-7.4c-0.1-6.1,4.7-7.5,10.3-7.5C83.1,201.5,100.9,201.4,118.8,201.4z"/>
	<path class="st0" d="M105.6,259.3c-13,0-26.1,0-39.1,0c-5.1,0-10.4-0.2-10.6-7.1c-0.1-6.7,4.8-7.7,10.1-7.7c26.1,0,52.1,0,78.2,0
		c5.3,0,10.2,0.9,10.1,7.6c-0.1,6.8-5.4,7.1-10.5,7.1C131.1,259.3,118.4,259.3,105.6,259.3z"/>
	<path class="st0" d="M93.7,50.1c6.6,0,12.5,0,18.9,0c0,22.7,0,45.1,0,68c-6.2,0-12.3,0-18.9,0C93.7,95.7,93.7,73.3,93.7,50.1z"/>
	<path class="st0" d="M63,61.7c6.6,0,12.4,0,18.8,0c0,18.9,0,37.4,0,56.5c-6.2,0-12.2,0-18.8,0C63,99.5,63,80.9,63,61.7z"/>
	<path class="st0" d="M124,82.7c6.4,0,12.5,0,19.2,0c0,11.8,0,23.3,0,35.4c-6.3,0-12.4,0-19.2,0C124,106.5,124,94.8,124,82.7z"/>
	<path class="st1" d="M243.4,74.4c-9.7,0.7-19.1,1.4-29.3,2.1c-0.5-10.1-1-19.5-1.5-28.9C228.4,44.8,242.9,57.2,243.4,74.4z
		 M217.2,72.9c7.8-0.6,15.1-1.1,22.6-1.6C237,57.7,226,48.7,216.2,51.4C216.5,58.3,216.9,65.2,217.2,72.9z"/>
	<path class="st0" d="M215.6,87.9c10.4,0,19.7,0,29.3,0c-0.6,10.1-4.4,18.1-13.2,24.1C226.4,104.1,221.3,96.4,215.6,87.9z"/>
	<path class="st0" d="M269.4,286.1c6.4-6.7,12.5-13.1,18.6-19.7c4.5-4.9,9.4-6.9,14.7-1.8c4.9,4.7,3.6,9.6-0.7,14.3
		c-7.8,8.3-15.4,16.8-23.2,25.1c-6,6.3-9.9,6.4-16.8,0.6c-4.7-4.1-9.4-8.2-13.9-12.6c-3.8-3.7-4.3-8.3-0.7-12.4
		c3.8-4.4,8.5-4.5,13.1-1.2C263.5,280.5,266.2,283.2,269.4,286.1z"/>
</g>
</svg>
