<?xml version="1.0" encoding="utf-8"?>
<!-- Generator: Adobe Illustrator 23.0.1, SVG Export Plug-In . SVG Version: 6.00 Build 0)  -->
<svg version="1.1" id="Layer_1" xmlns="http://www.w3.org/2000/svg" xmlns:xlink="http://www.w3.org/1999/xlink" x="0px" y="0px"
	 viewBox="0 0 384 384" style="enable-background:new 0 0 384 384;" xml:space="preserve">
<style type="text/css">
	.st0{fill:#808080;}
</style>
<g>
	<path class="st0" d="M365.4,252.1c-5.2-9.6-15.2-13.6-26.8-10.6l-9.7,2.5c-27,6.9-55,14-82.6,20.5c-5.4,1.3-12.2,0.6-17.1-1.7
		c-13.7-6.4-27.5-13.3-40.8-20c-6.8-3.5-13.9-7-20.9-10.5c-20.3-10-46.1-5.8-58.9,9.5c-11.9,14.3-25.5,13.4-39.9,12.4l-3.6-0.2
		l-1.6-11.3H4.3v97.1h59.5l1-11.1l1.3-0.1c4.3-0.4,8.8-0.6,13.3-0.6c11.5,0,23.5,1.7,35.6,7.7c15.8,7.9,36.7,17.8,58.4,24.8
		c34.6,11.2,61.8,8.4,85.5-8.9c14.4-10.5,29.4-20.9,43.8-30.9c6.7-4.6,13.4-9.3,20-13.9c3.6-2.5,7.2-5,10.8-7.5
		c8.5-5.8,17.2-11.9,25.6-18.1C368.5,273.8,371,262.5,365.4,252.1z M53.4,330.3H14.3v-78.1h39.1V330.3z M354.7,271.4
		c-0.9,2.2-3.2,3.6-5.4,4.9c-0.7,0.4-1.5,0.9-2.1,1.3c-9.8,6.9-19.8,13.8-29.4,20.5c-21.1,14.7-43,29.9-64.2,45.2
		c-12.7,9.2-26.6,13.7-42.5,13.7c-10.5,0-21.8-2-34.1-5.9c-17.9-5.7-35.4-13.8-52.2-21.7c-2.8-1.3-5.7-2.6-8.5-4
		c-13.2-6.1-24.7-8.4-36.3-7.4c-3,0.3-5.9,0.2-9.1,0.1c-1.5,0-3-0.1-4.5-0.1h-1.5v-51.5l0.8-0.4c0.3-0.2,0.6-0.4,0.9-0.5
		c0.6-0.4,1.3-0.9,2.2-0.8c22.3,1.9,37.1-3.6,49.5-18.4c9.8-11.7,26.8-14.2,43.2-6.4c24.8,11.8,49.1,24.1,71.6,35.7
		c3.5,1.8,7.8,5.7,9.3,10c1.3,3.9,0.6,10.4-2.3,13.3c-2.9,2.9-9.4,3.5-13.3,2.3c-9.7-2.9-19.5-6.2-28.9-9.4
		c-8.5-2.8-17.2-5.8-25.9-8.5c-1.3-0.4-2.7-1.1-4.1-1.7c-2.8-1.3-6-2.8-8-2c-1.1,0.4-1.9,1.5-2.6,3.3c-0.8,2.1-0.8,3.7-0.2,4.8
		c1.1,2,4.6,2.7,7.7,3.3c1.6,0.3,3.1,0.6,4.5,1.1c10.2,3.7,20.7,7.2,30.9,10.5c6.9,2.2,13.9,4.6,20.9,7c12.1,4.2,20,3,26.6-3.8
		c7-7.3,8-15.9,3.3-26.5c-0.3-0.7-0.5-1.4-0.7-2.3c-0.1-0.5-0.2-1-0.4-1.7l-0.4-1.5l22.4-5.6c20.5-5.1,40.9-10.3,61.4-15.4
		c1.1-0.3,2.1-0.7,3.3-1.1c2.6-0.9,5.4-1.9,8-1.4c4.6,0.8,10.6,3,12.4,6.7C358,260.4,357.4,264.9,354.7,271.4z"/>
	<path class="st0" d="M241.6,213.8C241.6,213.8,241.6,213.8,241.6,213.8c58.4,0,106.1-47.6,106.3-106C348.1,49.4,300.7,1.5,242.4,1
		c-28.2-0.2-54.8,10.7-75.1,30.7c-20.3,20-31.5,46.6-31.6,74.8c-0.1,28.8,10.9,55.9,31.2,76.1C186.8,202.7,213.4,213.8,241.6,213.8z
		 M241.8,11.1c0.1,0,0.2,0,0.3,0c25.9,0.1,50.2,10.3,68.4,28.7c18.2,18.4,28.1,42.7,27.9,68.5c-0.4,52.7-43.7,95.5-96.7,95.5
		c-0.1,0-0.2,0-0.4,0c-25.9-0.1-50.2-10.3-68.4-28.7c-18.2-18.4-28-42.7-27.8-68.6C145.5,53.8,188.9,11.1,241.8,11.1z"/>
	<g>
		<path class="st0" d="M213.4,120.4c10.4,6.5,19.4,10.3,29.8,10.3c8,0,12.2-2.8,12.2-7.5c0-13.8-48.2-11.4-48.2-41.8
			c0-16.7,14.3-27.6,36.4-27.6c15.1,0,25.3,5.8,33.4,14l-12,13.9c-7.8-5.5-13.9-8.3-23-8.3c-7.4,0-11.5,2.8-11.5,7.6
			c0,11.7,48.2,10.3,48.2,40.4c0,16.3-13.9,28.9-39.1,28.9c-11.8,0-27.1-5-36.8-13.4L213.4,120.4z M234.4,32.8h16.1v28.6h-16.1V32.8
			z M250.5,140.4v33.7h-16.1v-33.7H250.5z"/>
	</g>
</g>
</svg>
