<?xml version="1.0" encoding="utf-8"?>
<!-- Generator: Adobe Illustrator 23.0.1, SVG Export Plug-In . SVG Version: 6.00 Build 0)  -->
<svg version="1.1" id="Layer_1" xmlns="http://www.w3.org/2000/svg" xmlns:xlink="http://www.w3.org/1999/xlink" x="0px" y="0px"
	 viewBox="0 0 384 384" style="enable-background:new 0 0 384 384;" xml:space="preserve">
<style type="text/css">
	.st0{fill:#808080;}
	.st1{fill:none;stroke:#808080;stroke-width:10;stroke-miterlimit:10;}
</style>
<g>
	<path class="st0" d="M368.4,44.8c-5.5-0.3-11-0.2-16.8-0.1c-1.5,0-2.9,0-4.4,0v10.5h15.6v195.5H24.1V54.9h153.3V44.7
		c-26.9,0-53.8,0-80.7,0c-25.4,0-50.7,0-76.1,0c0,0,0,0,0,0c-2.6,0-4.4,0.5-5.4,1.6c-1.3,1.3-1.9,3.7-1.9,7.7
		c0.1,58.1,0.1,117.3,0.1,174.4c0,23,0,46.1,0,69.1c0,9.2,0.9,10,10.2,10c19.4,0,38.7,0,58.1,0l57.7,0v56.3h-3.3c-3.1,0-6.1,0-9,0
		c-7,0-13.6,0.1-20.4-0.1c-0.1,0-0.3,0-0.4,0c-2.8,0-4.8,0.5-5.9,1.6c-0.8,0.8-1.2,2-1.2,3.7c0,1.7,0.3,2.9,1.1,3.7
		c1.1,1.1,3.3,1.7,6.3,1.6c57.9-0.1,116.2-0.1,173.5-0.1c0,0,0,0,0,0c6.9,0,7.5-2.2,7.6-5.2c0.1-2.5-0.7-3.4-1-3.6
		c-1-1.1-3.2-1.6-6.4-1.6c-7,0-14.1,0-21.2,0l-12,0v-56.3h3.3c10.7,0,21.3,0,31.8,0c26.6,0,54.2,0,81.1,0c9.9,0,10.4-0.5,10.4-10.6
		c0-52.6,0-105.3,0-157.9l0-24.3c0-6.4,0-12.7,0-19.1c0-14.1,0-28.7,0-43.1C373.8,45.7,371.1,44.9,368.4,44.8z M235.2,363.3h-83.9
		v-55.2h83.9V363.3z M363,296.4H24.2v-34.1H363V296.4z"/>
	<path class="st0" d="M216.3,153.1c3.6,0.1,7.3,0.1,11.4,0c2.1,0,4.3,0,6.6,0h3.3v3.3c0,3.3,0,6.5-0.1,9.6
		c-0.1,7.6,0.1,33.5,1.3,35.4c2.1-1.5,20.9-21.6,26.7-29.1c11.1-14.3,25.9-21,43.6-19.5c6.6,0.6,12.3-1.2,16.6-5.1
		c4.8-4.4,7.5-11.4,7.6-19.6c0.1-28,0.1-58.3,0-92.8c0-14.6-9.7-24.5-24-24.5c-32-0.2-63.5-0.2-93.7,0c-14.7,0.1-24.7,10.1-24.8,25
		c-0.2,28.9-0.2,59,0,91.9C190.9,142.9,200.7,152.7,216.3,153.1z M201.7,37c0-11,4.4-15.5,15.1-15.6c29.1-0.2,59.7-0.2,91.1-0.1
		c10.4,0,15.2,5.1,15.2,15.8c0,32.3,0,61.5-0.2,89.3c0,6.5-1.5,10.7-4.5,13.3c-2.8,2.4-6.6,3.2-11.8,2.4
		c-18.9-2.8-33.1,3.4-44.7,19.7c-1.3,1.8-15.5,20.4-15.5,20.4l1.6-21.5c0-3.8,0-7.5,0-11.3c0-4.9-2.1-6.9-7.1-6.9
		c-3.1,0-6.3,0-9.5,0c-4.7,0-9.5,0-14.2-0.1c-11-0.3-15.5-4.7-15.5-15.2C201.6,98.4,201.6,68.9,201.7,37z"/>
	<path class="st0" d="M219.2,99.9l0.2,0c12.2,2.6,14.9,11.1,17.3,18.6c0.4,1.4,0.8,2.7,1.2,4.1c1.2,4.1,2.3,7.9,4.3,10.9
		c0.5-0.2,1.3-0.5,1.9-0.7c0.6-0.2,1.1-0.5,1.8-0.7c0.9-0.3,1.7-0.6,2.5-0.8c0.1,0,0.2-0.1,0.3-0.1c-1.1-5.1-2.8-10.2-4.7-15.6
		c-0.8-2.4-1.7-4.9-2.5-7.4l-1.6-5l5.2-0.6c15.3-1.8,32.9-2.6,48.2,9.3c2.9,2.2,20.7,12.1,20.9,12c0.2-0.1,1.6-3.8,1.7-11.2
		c0.2-22.2,0.1-44.7,0-65.8c-0.1-11.2-2.2-15.4-2.2-15.4s-2.4,1.7-11.2,7.6c-18.3,12.2-37.6,13.7-56.3,15.2
		c-6.3,0.5-15.1,0.3-22.8,0.1c-3.4-0.1-6.4-0.2-8.8-0.2c-0.4,5.3-1.4,45.1-1.4,45.1S216.8,99.4,219.2,99.9z M298.7,50.7l9.5-4v64.5
		c0,0-27.9-12.4-28-23.5c0-4.7-0.2-8.5-0.3-11.6C279.1,59.5,281,58.1,298.7,50.7z M222,62.9l49.7-4v36.4L222,94V62.9z"/>
	<g>
		<path class="st1" d="M165.2,84.7H43.5c-3.3,0-6-2.7-6-6v0c0-3.3,2.7-6,6-6h121.7c3.3,0,6,2.7,6,6v0
			C171.2,82,168.5,84.7,165.2,84.7z"/>
		<circle class="st1" cx="75.7" cy="78.3" r="14.6"/>
	</g>
	<g>
		<path class="st1" d="M43.5,134.7h121.7c3.3,0,6-2.7,6-6v0c0-3.3-2.7-6-6-6H43.5c-3.3,0-6,2.7-6,6v0
			C37.5,132,40.2,134.7,43.5,134.7z"/>
		<circle class="st1" cx="133" cy="128.3" r="14.6"/>
	</g>
	<path class="st1" d="M43.5,184.7h121.7c3.3,0,6-2.7,6-6v0c0-3.3-2.7-6-6-6H43.5c-3.3,0-6,2.7-6,6v0C37.5,182,40.2,184.7,43.5,184.7
		z"/>
	<circle class="st1" cx="93" cy="178.3" r="14.6"/>
</g>
</svg>
