<?xml version="1.0" encoding="utf-8"?>
<!-- Generator: Adobe Illustrator 23.0.1, SVG Export Plug-In . SVG Version: 6.00 Build 0)  -->
<svg version="1.1" id="Layer_1" xmlns="http://www.w3.org/2000/svg" xmlns:xlink="http://www.w3.org/1999/xlink" x="0px" y="0px"
	 viewBox="0 0 384 384" style="enable-background:new 0 0 384 384;" xml:space="preserve">
<style type="text/css">
	.st0{fill:#808080;}
</style>
<g>
	<path class="st0" d="M337.1,104.9c-5.1,0-10.2,0-15.3,0c-13.4,0-27.3,0-40.9-0.1c-2.2,0-4.8-1-6.4-2.5
		c-14.8-13.3-31.9-22.7-50.8-27.8c-2.4-0.7-4.9-1.2-7.4-1.8c-1.2-0.3-2.4-0.5-3.6-0.8l-0.6-0.1l0-1.7c0-0.7,0-1.4,0-2.1
		c0.6-30.6-19.6-57.2-49.1-64.6c-1.4-0.4-7.1-1.2-12.8-1.5c-5.1-0.3-10.2,0-11.9,0.3c-25,4-42.2,17.8-51.1,41.1
		c-8.7,22.8-5,44.5,11,64.7l2.4,2.9l-0.4,0.5c-28.7,34.4-37.4,73.8-25.8,117.2l0.3,0.9l-8.9,0c-5.8,0-11.4,0-17.1,0
		c-7.8,0-11,3.2-11,10.8c0,9.2,0,18.5,0,27.7l0,5.6c0,8.8,2.8,11.7,11.6,11.7c4.4,0,8.8,0,13.2,0c13.2,0,26.9,0.1,40.4-0.1
		c6.2-0.1,10.7,1.4,15.1,5.2c7.6,6.5,11.2,13.9,11.1,23.3c-0.1,7.2,0,14.5,0,21.6c0,10.6,0.1,21.6-0.2,32.4
		c-0.2,8.3,2.7,13.3,9.3,16.2h92.7c4.3-1.9,8.6-4.7,9.2-10.5c0.4-3.6,0.3-7.3,0.1-10.7c-0.1-2.8-1.7-4.3-4.6-4.5
		c-2.7-0.2-4.6,1.6-4.9,4.5c-0.2,2.1-0.3,4.2-0.1,6.2c0.2,1.9-0.1,3.2-0.9,4.1c-0.8,0.9-2.1,1.3-4.2,1.3c0,0-0.1,0-0.1,0
		c-26.9-0.1-54.3-0.1-81.3,0c-2.1,0-3.4-0.3-4.2-1.2c-0.8-0.9-1.2-2.1-1.2-4.2c0.1-7.8,0.1-15.7,0-23.3c0-9.7,0-19.7,0.1-29.6
		c0.2-11.5-2.9-20.8-9.4-28.2c-0.3-0.4-0.2-0.8-0.2-1.1c0-0.1,0-0.1,0-0.2l0-0.4l0.4-0.2c0,0,0.1-0.1,0.1-0.1
		c0.2-0.1,0.5-0.3,0.8-0.3c1.8,0,3.5,0,5.3,0c3,0,6.2,0,9.3-0.1c6.8-0.2,10-3.4,10-10.2c0-1,0-1.9,0-3l0-2.6l1,0.4
		c36.1,13.3,67.3,7.8,92.9-16.5c25.7-24.4,32.9-55.3,21.3-91.9l-0.3-1h1c2,0,4.1,0,6.1,0c6.9,0,13.5,0,20.1,0.1
		c1.4,0,3.2,1.9,3.4,3.2c0.7,4.2,1.3,8.4,1.9,12.5c0.6,4,1.2,8.2,1.9,12.2l0,0.2c0.6,3.4,1.2,6.9,2.7,9.8
		c5.2,9.6,10.6,19.3,15.9,28.6c2.4,4.2,4.7,8.4,7.1,12.5c2,3.6,2.3,6.8,1,9.2s-4.2,3.6-8.3,3.6c-3.1,0-6.1,0-9.2,0
		c-2.2,0-4.4,0-6.6,0c-8.7,0-13.6,4.9-13.7,13.7c0,3.8,0,7.7,0,11.4c0,3.2,0,6.4,0,9.5c-0.1,18-11.4,29.2-29.4,29.4
		c-3.3,0-6.7,0-10,0c-3.5,0-7.1,0-10.6,0c-3.6,0-9.9,1.1-11.8,7.7c-1.2,4.1-1,8.7-0.7,13.8c0.1,1.1,0.5,1.9,1.4,2.5
		c0.9,0.5,2,0.8,3.3,0.7c1.7-0.1,3.8-0.8,4.3-3.6c0.2-1.4,0.2-2.9,0.2-4.4c0-0.4,0-0.7,0-1.1c0-5.4,0.4-5.8,5.7-5.9
		c2.2,0,4.5,0,6.7,0c5,0,10.2,0,15.3-0.2c18.7-0.8,34.1-16,35-34.7c0.4-7.4,0.3-14.9,0.2-22.1l0-2.2c0-1.9,0.3-3.1,1.1-3.9
		c0.8-0.8,2-1.1,3.7-1c3.7,0.2,7.5,0.1,11.2,0.1c1.3,0,2.5,0,3.8,0c7.5,0,13.5-3.1,16.7-8.5c3.1-5.4,2.8-12.2-0.8-18.7l-3.3-6
		c-4.7-8.4-9.5-17.2-14.5-25.7c-3.8-6.4-7.4-13.4-7.5-22.3c0-4.5-0.9-8.9-1.7-13.6c-0.4-2.1-0.8-4.2-1.1-6.3l-0.1-0.9l8.8,0
		c5.9,0,11.8,0,17.7,0c7.6,0,10.7-3.1,10.7-10.6c0-11.4,0-23,0-34.5C347.8,108,344.7,104.9,337.1,104.9z M211.9,82
		c17.7,3,33.6,10.3,47.3,21.6l1.6,1.3l-18.9,0c-8.6,0-10.9,2.1-12,10.4l-0.1,0.9L229,116c-1.5-0.5-3-1.1-4.5-1.7
		c-3.3-1.3-6.7-2.6-10.2-3.6c-3.4-1-6.9-1.7-10.3-2.4c-1.5-0.3-3-0.6-4.4-0.9l-0.9-0.2l12.6-25.4L211.9,82z M97.2,44.1
		c9.6-21.6,31.5-34.8,54.4-32.7c23.4,2.2,39.8,14.7,47.5,36.4c7.7,21.7,3,41.7-13.8,57.8c-6.5,6.3-14,13.5-16.3,23.9
		c-0.3,1.2-2.2,2.3-3.3,2.3c-1.9,0.1-3.7,0.1-5.6,0.1c-1.1,0-2.2,0-3.3,0c-1.1,0-2.3,0-3.4,0h-0.8v-26.3l2-0.5
		c1.1-0.3,2.2-0.6,3.3-0.9c10.3-2.8,19.2-9.9,24.3-19.4c5.2-9.6,6.2-20.5,2.9-30.6c-1.2-3.6-3-5.1-5.8-4.7c-1.5,0.2-2.6,0.9-3.3,2
		c-0.8,1.3-1,3.1-0.4,5c1.9,6,2,11.7,0.6,17.4c-2.8,11-11.9,19.3-23,21.3l-0.9,0.2v-0.9c0-0.7,0-1.3-0.1-2c-0.1-1.6-0.1-3.2,0.2-4.8
		c0.3-1.4,1.9-2.6,3.2-3.3c7.8-3.8,12-10.9,11.6-19.6c-0.4-7.8-5.6-14.8-13.1-17.5c-9.6-3.5-20.3,0.9-24.7,10.1
		c-4.6,9.6-1.3,20.9,7.5,25.4c5.6,2.9,6.2,6.6,5.3,11.6l-0.1,0.7l-0.7-0.1c-14.7-2.6-25.2-17-23.5-32.3c1.7-15.2,15.4-27,30.5-26.2
		c3.7,0.2,7.3,1.2,10.7,2.3c5.3,1.7,6.9-0.4,7.7-2.2c0.5-1.2,0.6-2.4,0.2-3.4c-0.6-1.4-2-2.6-4.3-3.6c-10-4.2-21-4.1-31,0.3
		c-10.1,4.5-17.9,13.1-21.5,23.5c-3.5,10.1-2.6,21.5,2.5,31.1c5.1,9.6,14,16.8,24.4,19.7c1,0.3,2.1,0.5,3.2,0.8
		c0.5,0.1,1.1,0.3,1.6,0.4l0.6,0.1v26.4h-0.8c-1.1,0-2.3,0-3.4,0c-3.3,0-6.3,0-9.5-0.1c-1.1,0-2.6-1.3-2.9-2.4
		c-2.2-9.5-7.9-16.2-15.8-23.3C92.8,90.5,87.6,65.6,97.2,44.1z M153.6,174.7c-2,0-4.1,0-6.1,0l-6,0c-4.8,0-9.8,0-14.6,0
		c-4.4,0-6.9-2-7-5.6c-0.1-1.7,0.4-3.1,1.4-4.1c1.2-1.3,3.1-1.9,5.6-1.9c14.7,0,28.2,0,41.2,0c4.3,0,6.8,2.2,6.8,5.8
		c0,3.6-2.6,5.8-6.9,5.8c-2.8,0-5.6,0-8.5,0C157.7,174.7,155.6,174.7,153.6,174.7z M159.5,184.7l-0.2,0.9c-0.2,0.9-0.4,1.8-0.5,2.7
		c-0.4,2.3-0.8,4.4-1.5,6.5c-0.5,1.4-2.5,2.9-4.2,3.1c-2,0.2-3.9,0.3-5.7,0.3c-1.9,0-3.6-0.1-5.3-0.3c-1.7-0.2-3.8-1.9-4.5-3.6
		c-0.8-1.9-1.1-3.9-1.5-6c-0.2-0.9-0.3-1.8-0.5-2.7l-0.2-0.9H159.5z M173.6,151.3c-1.2,1.3-3.1,1.9-5.7,1.9c-6.7,0-13.6,0-20.6,0
		c-6.6,0-13.4,0-20.2,0c-2.6,0-4.5-0.6-5.8-1.8c-1-1-1.5-2.3-1.4-3.9c0-2.6,1.3-5.7,7.2-5.7c4.7,0,9.5,0,14.2,0l6,0l6.2,0
		c4.8,0,9.6,0,14.4,0c4.4,0,6.9,2.1,7,5.6C175.1,148.9,174.6,150.3,173.6,151.3z M147.3,76.4c-2.7,0-5.2-1.2-7.2-3.1
		c-1.9-2-3-4.6-2.9-7.3c0.1-2.7,1.2-5.2,3.1-7.1c2-1.9,4.6-2.9,7.4-2.8c2.8,0.1,5.3,1.2,7.1,3.1c1.9,2,2.8,4.6,2.7,7.4
		c-0.2,5.4-4.7,9.8-10.1,9.8C147.4,76.4,147.4,76.4,147.3,76.4z M107.8,118.2l0.5-0.4l0.5,0.4c4.7,3.9,6.2,9.3,7.7,14.4l0,0.1
		c0.4,1.3-1.1,2.9-1.3,3.1c-5.7,6.1-6.6,12-2.9,19.7c0.6,1.2,0.7,2.9,0.2,4c-9,22.6-8.6,45.3,1.1,67.5c0.1,0.3,0.2,0.7,0.2,1
		c0,0.1,0,0.3,0,0.5l0.1,0.8H85.7l-0.2-0.4C70,201.2,82.2,141.1,107.8,118.2z M145.4,275.4H47.6v-35.9h97.8V275.4z M257.8,226.2
		c-9.7,19.1-27,33.1-47.6,38.5c-6.5,1.7-12.9,2.5-19.4,2.5c-10.4,0-20.8-2.2-30.9-6.6c-3.1-1.4-5.1-3.1-4.8-7.3
		c0.3-3.7,0.2-7.5,0.1-11.1c0-1,0-2-0.1-3.1c-0.1-6.1-3.5-9.5-9.6-9.6c-4.8-0.1-10.6-0.1-16.5,0c-2.4,0.1-3.9-0.8-5-3
		c-7-13.8-9.5-28-7.8-43.4l0.1-0.9l0.9,0.2c0.6,0.2,1.2,0.3,1.8,0.5c1.5,0.4,3,0.8,4.4,1.3c1,0.4,2.1,1.6,2.4,2.7
		c0.5,1.8,0.9,3.6,1.2,5.3c0.3,1.3,0.5,2.6,0.9,3.8c1.9,7.7,7.1,11.7,14.6,11.5c4.8-0.2,7.3,1.3,9.7,5.8
		c9.9,18.8,31.9,27.5,52.3,20.8c5.6-1.8,5.4-4.6,4.8-6.6c-0.9-3-3.5-3.9-7.6-2.7c-17.1,5.2-34.3-2.2-41.9-18l-0.3-0.6l0.6-0.3
		c6-3.3,7-9,8.1-15.1l0.2-1.1c0.6-3.3,1.6-5.3,5.5-6.3c3.9-1,7.1-3.5,9-7.2c2.1-3.9,2.4-8.6,0.9-12.7c-0.3-0.7-0.6-1.5-1-2.3
		c-0.2-0.4-0.4-0.9-0.6-1.4l-0.3-0.8l0.8-0.2c6-1.9,12.2-1.7,19.1,0.7c9.4,3.2,17,10.2,20.8,19.3c3.8,9.1,3.6,19.5-0.8,28.5
		c-2.8,5.7-1.7,7.8,0.8,9c1.3,0.6,2.4,0.8,3.4,0.4c1.6-0.5,3.1-2.3,4.6-5.4c6.7-13.9,5.7-30.1-2.8-43.2
		c-8.5-13.1-22.8-20.7-38.4-20.3c-1.2,0-2.9,0.1-3.5-1.2l-1.8-2.8c-1.7-2.8-3.5-5.7-5.2-8.5c-0.5-0.8-0.8-2.1-0.6-3.2
		c0.7-2.5,1.4-4.9,2.4-7.2c2.1-4.4,5.3-8.7,12.9-8c13.1,1.3,23.5,4.2,32.8,9.2c2.2,1.2,3.7,2.7,3.6,5.9c-0.2,4.2-0.1,8.6-0.1,12.8
		c0,1.6,0,3.2,0,4.8c0,8.1,2.9,10.9,11.1,10.9c1.3,0,2.5,0,3.8,0c3,0,6.2,0.1,9.3-0.1c3.4-0.2,5.2,1,6.5,4.3
		C268.7,184.6,267.5,207,257.8,226.2z M337.8,150.6h-97.6v-35.8h97.6V150.6z"/>
	<path class="st0" d="M112.9,251.9c5.4,0,10.7,0,16.1,0c4.1,0,6.6,2.2,6.6,5.5c0,3.3-2.5,5.7-6.5,5.7c-11,0.1-22,0.1-32.9,0
		c-4,0-6.6-2.3-6.6-5.6c0-3.4,2.4-5.6,6.5-5.6C101.7,251.9,107.3,251.9,112.9,251.9z"/>
	<path class="st0" d="M70,251.9c2.4,0,4.7-0.1,7.1,0c3.2,0.2,5.1,2,5.4,5.1c0.2,3.2-1.5,5.6-4.6,5.8c-5.2,0.4-10.5,0.4-15.7,0.1
		c-3.1-0.2-4.8-2.5-4.9-5.7c0-3,2.3-5.2,5.6-5.3C65.2,251.8,67.6,251.9,70,251.9z"/>
	<path class="st0" d="M305.3,138.3c-5.5,0-11,0.1-16.5,0c-4.1-0.1-6.6-2.2-6.7-5.5c0-3.3,2.5-5.7,6.5-5.7c11-0.1,21.9-0.1,32.9,0
		c4.1,0,6.6,2.3,6.7,5.5c0.1,3.4-2.5,5.6-6.9,5.6C316,138.4,310.6,138.3,305.3,138.3z"/>
	<path class="st0" d="M262.6,138.3c-2.4,0-4.7,0.1-7.1,0c-3.3-0.2-5.6-2.4-5.7-5.3c-0.1-2.9,2-5.5,5.2-5.7c5-0.2,10-0.2,14.9,0
		c3.2,0.2,4.9,2.3,5.1,5.4c0.2,2.9-2.2,5.3-5.4,5.5C267.4,138.4,265,138.3,262.6,138.3C262.6,138.3,262.6,138.3,262.6,138.3z"/>
</g>
</svg>
