<?xml version="1.0" encoding="utf-8"?>
<!-- Generator: Adobe Illustrator 23.0.1, SVG Export Plug-In . SVG Version: 6.00 Build 0)  -->
<svg version="1.1" id="Layer_1" xmlns="http://www.w3.org/2000/svg" xmlns:xlink="http://www.w3.org/1999/xlink" x="0px" y="0px"
	 viewBox="0 0 384 384" style="enable-background:new 0 0 384 384;" xml:space="preserve">
<style type="text/css">
	.st0{fill:#808080;}
</style>
<g>
	<path class="st0" d="M171.1,278.4c0,18.9,0,38,0,57.1c0,14.1-2.3,16.4-16.5,16.2c-6.4-0.1-12.7-0.1-19.1,0
		c-6.3,0.1-12.4,0.3-16-6.7c-0.6-1.2-3.4-1.7-5.2-2c-19.8-3.3-26.9-20-15.5-36.5c6.3-9.2,12.7-18.4,18.6-26.9
		c-5.1-2.8-11.5-4.4-14.2-8.4c-2.7-4.1-2.3-10.7-2.4-16.2c-0.3-17.7-0.1-35.4-0.1-53.1c0-22.8,9.4-32.4,31.9-32.8
		c2.6,0,5.2-0.2,7.7-0.3c-3.6-6.9-7.8-13.2-10.2-20c-1.7-4.8-1.8-10.5-1.3-15.7c0.7-8.6,6.9-14.1,15-14.7
		c8.9-0.7,15.5,3.7,17.5,12.8c3,14-1.3,26-13,37c9.3,0.8,17.3,1.5,25.9,2.2c-13.6-38.8-5.5-71.4,29.6-94.5
		c24.1-15.9,57.7-13.8,80.9,3c28,20.4,35.6,47.7,24.9,91.1c7.6-0.5,15.1-1,21.2-1.4c-3.6-9.1-8.1-17.8-10.3-27.1
		c-2-8.3,0.2-16.8,8.6-21.5c10.9-6.1,23.2,0.9,24.6,13.8c1.3,12.1-1.8,20.6-13.6,35.3c5.2,0,9.1-0.1,13,0
		c17.9,0.3,28.3,10.8,28.4,29c0.1,20.4,0.1,40.7,0,61.1c-0.1,14.4-3,17.4-18.8,18.1c0,10.4,0,20.9,0,31.4c0,10.3-0.1,20.7,0,31
		c0.1,8.1-3.9,11.9-11.9,11.8c-9-0.1-18,0.1-27.1,0c-9.3-0.1-12.6-3.5-12.6-13c-0.1-20.1,0-40.1,0-60.7c-1.2-0.3-2.2-0.7-3.2-0.7
		c-11.2-0.4-14.9-3.9-15-14.9c-0.1-19.8,0-39.5,0-59.3c0-2.8,0-5.6,0-8.5c-1.1-0.3-2.1-0.6-3.2-0.9c-1.3,3.5-3.6,7.1-3.7,10.6
		c-0.4,18.3-0.1,36.6-0.2,54.9c0,14.4-3.4,17.8-18.8,18.3c0,4.8,0,9.7,0,14.6c0,15.9-0.1,31.9,0,47.8c0,8.1-3.8,11.9-11.9,11.8
		c-9-0.1-18,0.1-27.1,0c-9.4-0.1-12.5-3.4-12.5-13c-0.1-17.4,0-34.8,0-52.2c0-2.9,0-5.8,0-8.6c-16.2-1.3-18.6-4.1-18.7-19.9
		c0-10.4,0-20.9,0-31.3c-1-0.2-2-0.4-3-0.6c-1.4,4.1-3.4,8.2-3.9,12.4c-0.7,6.1-0.2,12.4-0.2,18.6
		C189.6,274,188.1,275.8,171.1,278.4z M341.1,343.1c14,2.4,14.1,2.3,14.1-10.3c0-37.2-0.1-74.4,0.2-111.6c0-2.5,2.5-4.9,3.9-7.3
		c1.1,2.4,3.2,4.7,3.3,7.1c0.2,13.9-0.3,27.8,0.2,41.6c0.1,2.5,3.6,4.8,5.6,7.3c1.8-2.2,5.1-4.4,5.1-6.6c0.3-23,0.4-46-0.1-69.1
		c-0.3-10.1-7.8-16.4-18.2-16.7c-11.8-0.3-23.6-0.2-35.4,0c-11.9,0.2-19,7.6-19.1,19.6c-0.1,21.3,0,42.5,0,63.8
		c0,4.2-0.3,9.4,5.7,8.5c2-0.3,4.6-5.4,4.7-8.4c0.5-13.6,0.1-27.2,0.4-40.7c0-2.1,2.2-4.2,3.4-6.3c1.4,2.1,3.2,4.1,4.1,6.4
		c0.6,1.5,0.1,3.5,0.1,5.3c0,35.7,0,71.4,0,107.2c0,3.7,0.5,7.3,0.8,11c4.8,0,8.5,0,12.9,0c0.2-3.9,0.5-7.4,0.5-10.8
		c0-24.5-0.1-49,0.2-73.5c0-2.4,2.3-4.8,3.5-7.1c1.5,2.4,4.1,4.8,4.2,7.2c0.3,23,0.2,46.1,0.2,69.1
		C341.1,333.4,341.1,338.3,341.1,343.1z M258.8,343.8c0.2-3.5,0.5-6.1,0.5-8.7c0-37.7,0-75.5,0.2-113.2c0-2.7,2.1-5.4,3.2-8.1
		c1.4,2.7,3.9,5.4,4,8.1c0.4,13.6-0.1,27.1,0.5,40.7c0.1,2.4,3.7,4.7,5.6,7.1c1.6-2.4,4.3-4.6,4.7-7.1c0.8-4.9,0.2-10,0.2-15
		c0-14.2,0-28.5,0-44c-23.6,11.8-46.1,12.1-69.4,1.6c-1.4,3.7-3.4,6.6-3.5,9.5c-0.3,16.2-0.3,32.4,0.1,48.7c0.1,2.2,3.5,4.2,5.3,6.3
		c1.7-2,3.9-3.8,4.9-6.1c0.8-2,0.2-4.6,0.2-7c0-12.4-0.2-24.8,0.2-37.2c0.1-1.9,2.5-3.7,3.8-5.6c1.2,1.8,2.7,3.4,3.3,5.3
		c0.6,1.9,0.2,4.1,0.2,6.2c0,36,0,72,0,107.9c0,3.4,0.3,6.9,0.5,10.3c4.9,0,8.9,0,13.7,0c0-3.8,0-7,0-10.2c0-23.6,0-47.2,0-70.8
		c0-2.3-0.2-4.8,0.5-7c0.4-1.4,2.3-3.1,3.5-3.1c1.2,0,3.2,1.7,3.6,3c0.7,2.2,0.5,4.6,0.5,7c0,24.2,0,48.4,0,72.5
		c0,2.9,0.3,5.7,0.5,8.9C250.3,343.8,254.1,343.8,258.8,343.8z M172.9,218.5c1.6-2.2,3.6-5.1,5.6-8c5.3-7.6,4.4-15.8,0.9-23.4
		c-3.4-7.4-10.2-10-18.3-9.8c-10.6,0.2-21.2,0-31.8,0.1c-13.4,0.2-20.4,6.7-20.6,19.9c-0.3,21.2-0.3,42.5,0.1,63.7
		c0.1,2.9,2.9,8,5,8.3c5.8,0.8,5.8-4.3,5.8-8.6c0-13.3-0.2-26.5,0.2-39.8c0.1-2.4,2.1-4.7,3.3-7.1c1.4,2.4,3.2,4.7,4,7.3
		c0.7,2.2,0.1,4.7,0.1,7c0,11.5,0,23,0,34.6c7.9-8.3,14.2-16.8,19.9-25.7c4-6.3,7.8-11.3,16.5-3.6c0-5.2-0.4-8.7,0.1-12.1
		c0.4-2.6,1.9-5,2.9-7.5C168.6,215.4,170.6,216.8,172.9,218.5z M241.7,73.2c-36.4,0-65.9,29.2-66,65.5c-0.1,36.4,29.1,66,65.3,66.3
		c36.6,0.3,66.5-29.5,66.4-66.1C307.4,102.5,278.1,73.2,241.7,73.2z M155.9,238c-17.8,25.7-35.3,50.9-52.6,76
		c-4.5,6.5-3,12.2,2.8,17.1c8.1,6.8,15,5.9,21.4-3.4c15.9-22.6,31.6-45.4,47.4-68.1c1.3-1.8,2.3-3.8,3.5-5.9
		C170.8,248.5,163.8,243.6,155.9,238z M163.5,292.3c-18.6,14.5-14.3,33.1-13.8,51.9c5.5-1.4,13.1,4.2,13.6-5.4
		C164,323.6,163.5,308.4,163.5,292.3z M145.4,158.9c7.5-6.1,11.4-17.4,8-25.9c-1.2-2.8-5.1-6.2-7.8-6.3c-2.8-0.1-7,3-8.3,5.7
		C133.4,140.1,138,153.4,145.4,158.9z M337.1,158.8c7-5.7,11.5-18.2,8.2-25.8c-1.3-2.9-5-5.9-8-6.4c-2.5-0.4-6.7,2.4-8.1,4.9
		C325.1,139.1,329.6,153.3,337.1,158.8z M201.6,202.2c-0.4-0.9-0.8-1.7-1.2-2.6c-2.1,0.8-5.1,0.9-6.2,2.4c-7.6,10.4-15,21-22.1,31.8
		c-1,1.5,0.2,4.4,0.3,6.6c0.9,0,1.8,0,2.7,0C184,227.7,192.8,214.9,201.6,202.2z M140.6,323.2c-5.2,7.1-9.5,12.9-14.8,20.2
		c6,0,10.1,0,14.8,0C140.6,337.2,140.6,331,140.6,323.2z"/>
	<path class="st0" d="M23.8,277.6c-15.8-0.6-18.9-4-18.9-18.9c0-19.2,0-38.3,0-57.5c0-22,9.8-31.8,31.8-32c2.6,0,5.2,0,9.6,0
		c-2.1-2.6-3.1-4.1-4.3-5.4c-8.6-9.5-10.9-20.8-8.5-32.9c1.5-7.7,6.9-12.2,15.1-12.4c8.3-0.2,14.4,3.3,16.6,11.7
		c3.8,14.7-1,27-13.4,39.1c6,0,10-0.1,13.9,0c17.6,0.5,27.8,10.9,27.9,28.4c0.1,20.4,0,40.7,0,61.1c0,15.5-2.3,18-18.1,19.2
		c0,19.3,0,38.7,0,58.1c0,13.2-2.8,15.9-16.2,15.8c-7.2-0.1-14.5,0-21.7,0c-11.1-0.1-13.7-2.6-13.7-13.4
		C23.8,318.3,23.8,298.3,23.8,277.6z M67.5,343.7c0-4.2,0-8,0-11.7c0-36.3-0.1-72.6,0.2-108.9c0-3.1,2.6-6.2,3.9-9.3
		c1.3,3.2,3.5,6.4,3.7,9.6c0.4,12.7-0.1,25.4,0.4,38.1c0.1,2.8,3.4,5.5,5.2,8.3c1.7-2.6,4.9-5.1,5-7.7c0.4-22.1,0.4-44.3,0.1-66.4
		c-0.1-10.5-7.5-17.8-17.9-18.1c-12.4-0.3-24.8-0.3-37.2,0c-10.2,0.3-17.6,7-17.8,17.2c-0.5,22.7-0.4,45.5,0,68.2
		c0,2.3,3.2,4.6,4.9,6.9c2-2.4,4.4-4.5,5.8-7.2c0.8-1.6,0.1-4,0.1-6.1c0-12.4-0.1-24.8,0.2-37.2c0-1.8,2.1-3.6,3.1-5.4
		c1.4,1.8,3.3,3.5,4,5.5c0.7,1.8,0.2,4.1,0.2,6.1c0,36,0,72,0,108c0,12.1,1.2,12.8,13.4,9.2c0.2-0.6,0.5-1.1,0.5-1.7
		c0.1-26.9,0-53.7,0.3-80.6c0-2.7,2.7-5.5,4.1-8.2c1.2,2.7,3.3,5.3,3.3,8c0.3,24.2,0.1,48.4,0.2,72.6c0,3.5,0.3,6.9,0.5,10.9
		C58.3,343.7,62.3,343.7,67.5,343.7z M49.5,159.1c7.4-6.8,11.2-17.5,8.1-25.7c-1.1-2.9-5-6.7-7.5-6.7c-3.1,0.1-7.5,3.2-9,6.1
		C37.6,140.2,42,152.8,49.5,159.1z"/>
	<path class="st0" d="M241.3,197.4c-32.4,0-58-26-58-58.7c0.1-31.8,26.1-57.8,58.1-58.1c32-0.2,58.6,26.3,58.6,58.6
		C300.1,171.4,273.9,197.4,241.3,197.4z M278.3,173.4c19-18.4,19-50.7-1.4-70.5c-20.3-19.7-52.9-18.9-72.2,1.8
		c-18.9,20.1-18.1,52,0.4,68.5c11.3-1.9,21.4-3.6,32.4-5.5c-9.4-8.3-13.3-18.4-13.2-30c0.1-12,6.9-19.4,17.2-19.2
		c10.1,0.2,16.3,7.3,16.6,18.9c0.2,12-4.3,22-12.9,30.4C256,169.6,266.1,171.3,278.3,173.4z M213.1,179
		c12.2,13.7,46.2,13.8,55.9-0.2C250.2,176.6,232.2,176.3,213.1,179z M240.2,159.6c8.4-6.6,12.6-18.5,9.1-26.6
		c-1.2-2.9-5.3-6.5-7.9-6.3c-3.1,0.2-7.7,3.6-8.5,6.5C230.3,142.9,233.3,151.6,240.2,159.6z"/>
	<path class="st0" d="M241.7,94.6c18.6-0.1,36,12.1,41.5,29.9c0.8,2.7-0.7,6.1-1.2,9.1c-1.9-2-4.7-3.8-5.7-6.2
		c-6.7-16.8-20.6-25.9-37.7-24.8c-2.8,0.2-5.8-1.9-8.7-2.9c2.7-1.7,5.4-3.5,8.2-5C239.2,94.4,240.5,94.7,241.7,94.6z"/>
</g>
</svg>
