<?xml version="1.0" encoding="utf-8"?>
<!-- Generator: Adobe Illustrator 23.0.1, SVG Export Plug-In . SVG Version: 6.00 Build 0)  -->
<svg version="1.1" id="Layer_1" xmlns="http://www.w3.org/2000/svg" xmlns:xlink="http://www.w3.org/1999/xlink" x="0px" y="0px"
	 viewBox="0 0 384 384" style="enable-background:new 0 0 384 384;" xml:space="preserve">
<style type="text/css">
	.st0{fill:#808080;}
</style>
<g>
	<path class="st0" d="M188.6,203.7c0-5.1-1.7-6.7-6.8-6.7c-5.4,0-10.8,0-16.2,0s-10.8,0-16.2,0c-5.2,0-6.7,1.6-6.7,6.8
		c0,46.1,0,92.2,0,138.4c0,5.3,1.6,7,7,7c9.4,0,19.5,0,31.7,0c5.8,0,7.3-1.5,7.3-7.4c0-16.7,0-33.5,0-50.2v-18.3V255
		C188.7,237.8,188.7,220.8,188.6,203.7z M178.3,338.7h-25.1V207h25.1V338.7z"/>
	<path class="st0" d="M254.6,147.9c0-7.1-1.7-9.3-6.8-9.3c-5.4,0-10.8,0-16.2,0s-10.8,0-16.2,0c-5.2,0-6.7,2.2-6.7,9.4
		c0,63.8,0,127.5,0,191.4c0,7.3,1.6,9.7,7,9.7c9.4,0,19.5,0,31.7,0c5.8,0,7.3-2.1,7.3-10.2c0-23.1,0-46.3,0-69.4v-25.3v-25.3
		C254.7,195.1,254.7,171.5,254.6,147.9z M244.3,334.6h-25.1V152.5h25.1V334.6z"/>
	<path class="st0" d="M316.6,116.1c0-8.2-1.7-10.7-6.8-10.7c-5.4,0-10.8,0-16.2,0s-10.8,0-16.2,0c-5.2,0-6.7,2.6-6.7,10.9
		c0,73.8,0,147.7,0,221.7c0,8.5,1.6,11.2,7,11.2c9.4,0,19.5,0,31.7,0c5.8,0,7.3-2.4,7.3-11.9c0-26.7,0-53.7,0-80.4v-29.3v-29.3
		C316.7,170.7,316.7,143.5,316.6,116.1z M306.3,332.3h-25.1V121.4h25.1V332.3z"/>
	<path class="st0" d="M115.2,234.5c-5.1,0-10.3,0-15.7,0c-5.1,0-10.4,0-16,0c-5.7,0-7.2,1.5-7.2,7.4c0,11.9,0,23.8,0,35.6v14.3v13.9
		c0,12,0,24,0,36c0,5.9,1.5,7.4,7.2,7.4c4.8,0,9.8,0,15,0s10.6,0,16.4,0c5.9,0,7.4-1.5,7.4-7.3c0-33.4,0-66.8,0-100.1
		C122.2,236,120.7,234.5,115.2,234.5z M111.8,339H86.7v-94.2h25.1V339z"/>
	<path class="st0" d="M263.1,47.5c1.8,1.4,3.5,2.8,5.2,4.2c2.1,1.7,4.3,3.5,6.5,5.1c1.8,1.4,2.8,2.8,1.9,5.6
		c-0.9,2.9-1.7,5.9-2.5,8.8c-0.5,1.9-1,3.7-1.5,5.6c-1,3.5-0.2,6.2,2.4,8c1.3,0.9,2.5,1.3,3.9,1.3c1.3-0.1,2.7-0.6,4.2-1.6
		s3.1-2,4.7-3c2.6-1.7,5.3-3.4,7.8-5.2c1.1-0.8,2-1.1,2.9-1.1c1,0,2,0.5,3,1.2c4.3,3,8.8,5.9,13.1,8.6c2.7,1.7,5.4,1.6,7.7-0.4
		c2.3-1.9,3-4.2,2.2-7.2c-0.6-1.9-1.1-3.9-1.5-5.8c-0.8-2.9-1.5-6-2.5-8.9s0.1-4.5,2-5.9c2.3-1.7,4.5-3.5,6.7-5.3
		c1.5-1.2,3-2.4,4.4-3.6c3.1-2.4,4-4.8,3.1-7.8c-0.9-3.1-3.3-4.7-7.6-4.9c-1.2-0.1-2.4-0.1-3.6-0.2c-3.4-0.2-6.8-0.4-10.2-0.4
		c-2.8,0-4.2-1-5.1-3.6c-1.2-3.6-2.6-7.1-3.9-10.6c-0.4-1.1-0.9-2.2-1.3-3.4c-1.2-3.3-3.4-4.8-6.7-4.8c-2.9,0.1-4.9,1.7-6,4.7
		c-0.5,1.4-1,2.7-1.6,4.1c-1.2,3.1-2.4,6.3-3.5,9.5c-0.8,2.4-2.1,4.1-5.4,4.1c0,0,0,0-0.1,0c-4.5,0-9.1,0.3-13.6,0.6l-1.3,0.1
		c-2.3,0.2-5.3,1.1-6.3,4.6C259.5,42.9,260.4,45.4,263.1,47.5z M278.1,45c1.2-0.1,2.2-0.2,3.3-0.3c2.2-0.2,4-0.4,5.9-0.4
		c3.7,0,6-1.7,7.2-5.3c0.6-1.7,1.3-3.4,2.1-5.4c0.4-0.9,0.8-1.9,1.2-3l0.7-1.8l0.7,1.8c0.4,1,0.8,1.9,1.1,2.7c0.8,1.8,1.4,3.4,1.9,5
		c1.4,4.3,3.9,6.2,8.2,6.1c1.8,0,3.5,0.1,5.5,0.4c1,0.1,2,0.2,3.1,0.3l1.9,0.2l-1.5,1.2c-0.8,0.6-1.4,1.2-2.1,1.7
		c-1.3,1.1-2.4,2.1-3.7,2.9c-4.3,2.8-5.5,6.3-3.7,11.1c0.5,1.5,0.9,3,1.2,4.5c0.2,0.7,0.3,1.4,0.5,2.1l0.4,1.5l-1.4-0.7
		c-1.4-0.7-2.8-1.4-4.1-2.2c-2.9-1.6-5.6-3.2-8.2-3.2l0,0c-2.5,0-5.1,1.7-7.9,3.4c-1.3,0.8-2.6,1.6-3.9,2.3l-1.5,0.8l0.4-1.6
		c0.2-0.8,0.4-1.7,0.6-2.5c0.4-1.8,0.9-3.7,1.5-5.6c1.1-3.8,0.2-6.6-2.8-8.9c-1.5-1.1-2.8-2.2-4.4-3.6c-0.8-0.6-1.6-1.3-2.5-2
		l-1.5-1.2L278.1,45z"/>
	<path class="st0" d="M49.4,270.4c-5.4,0-11,0-16.6,0c-5.5,0-11,0-16.6,0c-0.3,0-0.6,0-0.8,0c-4,0.2-5.5,2-5.5,6.4
		c0,7.9,0,15.8,0,23.8v1.2v8.2v9.6c0,7.7,0,15.5,0,23.2c0,4.6,1.7,6.3,6.1,6.3c5.3,0,10.7,0.1,16.2,0.1c5.6,0,11.3,0,17.2-0.1
		c4.5,0,6.2-1.7,6.2-6.2c0.1-23.5,0.1-45.2,0-66.3C55.7,272.1,54,270.4,49.4,270.4z M45.3,338.8H20.1v-58.3h25.2V338.8z"/>
</g>
</svg>
