<?xml version="1.0" encoding="utf-8"?>
<!-- Generator: Adobe Illustrator 25.2.0, SVG Export Plug-In . SVG Version: 6.00 Build 0)  -->
<svg version="1.1" id="Layer_3" xmlns="http://www.w3.org/2000/svg" xmlns:xlink="http://www.w3.org/1999/xlink" x="0px" y="0px"
	 viewBox="0 0 285.4 95.2" style="enable-background:new 0 0 285.4 95.2;" xml:space="preserve">
<style type="text/css">
	.st0{fill:#0F9D59;}
	.st1{fill:#0A6E3D;}
	.st2{fill:#4284F4;}
	.st3{fill:#77777A;}
</style>
<g>
	<g>
		<path class="st0" d="M76.1,92.5l21.9,0l0,0L68.1,2.8v86.3C70.2,91.2,73,92.5,76.1,92.5"/>
		<path class="st1" d="M53.1,47.6l12.5,37.5c0,0,0,0,0,0c0.5,1.5,1.4,2.9,2.5,4V2.8l0-0.1L53.1,47.6z"/>
		<path class="st2" d="M38.1,2.7L38.1,2.7L38.1,2.7L8.2,92.5l0,0h21.9c3.2,0,6-1.3,8-3.4c1.1-1.1,2-2.5,2.5-4c0,0,0,0,0,0L68.1,2.7
			L38.1,2.7L38.1,2.7L38.1,2.7z"/>
	</g>
	<g>
		<path class="st3" d="M127.6,80.3h9.9l-3.8-10c-0.3-0.8-0.7-1.9-1.1-3.3c-0.3,1.2-0.7,2.3-1.1,3.3L127.6,80.3z M138.2,82.1h-11.3
			l-3.9,9.8h-2.1L132.1,64h1.2l10.9,27.9h-2.2L138.2,82.1z"/>
		<path class="st3" d="M154.9,72.5c-2.3,0-3.9,0.8-5.1,2.4c-1.1,1.6-1.7,3.9-1.7,6.9c0,5.9,2.3,8.8,6.8,8.8c2.3,0,4-0.7,5.1-2
			c1.1-1.4,1.6-3.6,1.6-6.7v-0.3c0-3.2-0.5-5.5-1.6-6.9C159,73.2,157.3,72.5,154.9,72.5 M154.9,70.8c1.5,0,2.8,0.3,3.9,0.8
			c1.1,0.5,2.1,1.5,2.9,2.8h0.1c-0.1-1.6-0.1-3.2-0.1-4.7v-7.4h1.9v29.6h-1.2l-0.5-3.2h-0.2c-1.6,2.4-3.8,3.5-6.8,3.5
			c-2.9,0-5-0.9-6.5-2.7c-1.5-1.8-2.3-4.4-2.3-7.8c0-3.6,0.7-6.3,2.2-8.2C149.9,71.8,152,70.8,154.9,70.8"/>
		<path class="st3" d="M192.7,91.9h-1.6L185,70.5c-0.5-1.8-0.9-3.2-1.1-4.3c-0.2,1.1-0.5,2.4-0.9,3.8c-0.4,1.4-2.4,8.8-6.1,22h-1.6
			l-7.6-27.8h2l4.9,17.9c0.2,0.7,0.4,1.4,0.5,2c0.2,0.6,0.3,1.2,0.5,1.7c0.1,0.5,0.3,1.1,0.4,1.6c0.1,0.5,0.2,1,0.3,1.5
			c0.3-1.7,0.9-4.3,1.9-7.9l4.8-16.9h2.1l5.6,19.3c0.6,2.2,1.1,4,1.4,5.4c0.2-0.9,0.4-1.9,0.6-2.9c0.3-1,2.2-8.3,5.9-21.8h2
			L192.7,91.9z"/>
		<path class="st3" d="M205.2,81.5c0,2.8,0.6,5.1,1.9,6.6c1.2,1.6,3,2.4,5.3,2.4c2.3,0,4-0.8,5.3-2.4c1.2-1.6,1.9-3.8,1.9-6.6
			c0-2.9-0.6-5.1-1.9-6.6c-1.3-1.6-3-2.4-5.3-2.4c-2.3,0-4,0.8-5.3,2.3C205.8,76.5,205.2,78.7,205.2,81.5 M221.5,81.5
			c0,3.4-0.8,6-2.5,7.9c-1.6,1.9-3.9,2.8-6.8,2.8c-1.8,0-3.4-0.4-4.8-1.3c-1.4-0.9-2.4-2.1-3.2-3.8c-0.7-1.6-1.1-3.5-1.1-5.7
			c0-3.4,0.8-6,2.5-7.9c1.6-1.9,3.9-2.8,6.7-2.8c2.8,0,5.1,1,6.7,2.9C220.7,75.6,221.5,78.2,221.5,81.5"/>
		<path class="st3" d="M235,70.8c0.9,0,1.8,0.1,2.8,0.3l-0.4,1.8c-0.9-0.2-1.8-0.3-2.7-0.3c-1.8,0-3.2,0.7-4.3,2.2
			c-1.1,1.5-1.7,3.4-1.7,5.7v11.4h-1.9V71.2h1.6l0.2,3.7h0.1c0.8-1.5,1.8-2.6,2.7-3.2C232.4,71.1,233.6,70.8,235,70.8"/>
		<path class="st3" d="M249.2,72.5c-2.2,0-4,0.8-5.1,2.4c-1.1,1.6-1.7,3.9-1.7,6.9c0,5.9,2.3,8.8,6.8,8.8c2.3,0,4-0.7,5.1-2
			c1.1-1.4,1.6-3.6,1.6-6.7v-0.3c0-3.2-0.5-5.5-1.6-6.9C253.3,73.2,251.6,72.5,249.2,72.5 M249.2,70.8c1.5,0,2.8,0.3,3.9,0.8
			c1.1,0.5,2.1,1.5,2.9,2.8h0.1c-0.1-1.6-0.1-3.2-0.1-4.7v-7.4h1.9v29.6h-1.2l-0.5-3.2H256c-1.6,2.4-3.8,3.5-6.8,3.5
			c-2.9,0-5-0.9-6.5-2.7c-1.5-1.8-2.3-4.4-2.3-7.8c0-3.6,0.7-6.3,2.2-8.2C244.1,71.8,246.3,70.8,249.2,70.8"/>
		<path class="st3" d="M277.2,86.5c0,1.8-0.7,3.3-2.1,4.3c-1.4,1-3.4,1.5-6,1.5c-2.8,0-5-0.4-6.6-1.3v-2c2.1,1,4.3,1.6,6.6,1.6
			c2,0,3.6-0.3,4.6-1c1.1-0.7,1.6-1.6,1.6-2.7c0-1-0.4-1.9-1.3-2.6c-0.8-0.7-2.2-1.4-4.2-2.1c-2.1-0.7-3.5-1.4-4.3-1.9
			c-0.8-0.5-1.5-1.1-1.9-1.8c-0.4-0.7-0.6-1.5-0.6-2.5c0-1.5,0.6-2.8,1.9-3.7c1.3-0.9,3.1-1.4,5.4-1.4c2.2,0,4.3,0.4,6.3,1.3
			l-0.7,1.7c-2-0.8-3.9-1.3-5.6-1.3c-1.7,0-3,0.3-4,0.8c-1,0.6-1.5,1.3-1.5,2.3c0,1.1,0.4,1.9,1.1,2.6c0.8,0.7,2.3,1.4,4.5,2.2
			c1.9,0.7,3.2,1.3,4.1,1.8c0.8,0.5,1.5,1.1,1.9,1.8C277,84.8,277.2,85.6,277.2,86.5"/>
	</g>
	<g>
		<path class="st3" d="M230.5,32.5c1.2-1.2,1.3-2.8,1.3-3.8c0-3.7-2.2-9.4-6.4-9.4c-1.3,0-2.8,0.7-3.6,1.7c-0.9,1.1-1.1,2.5-1.1,3.8
			c0,3.4,2,9.1,6.4,9.1C228.3,34,229.7,33.4,230.5,32.5 M229,42.3c-0.4,0-0.7,0-1.2,0c-0.5,0-3.2,0.1-5.4,0.8
			c-1.1,0.4-4.4,1.7-4.4,5.3c0,3.6,3.5,6.3,9,6.3c4.9,0,7.5-2.4,7.5-5.5C234.6,46.5,232.9,45.1,229,42.3 M232.7,19.5
			c1.2,1,3.6,3,3.6,6.9c0,3.8-2.2,5.6-4.3,7.3c-0.7,0.7-1.4,1.4-1.4,2.5c0,1.1,0.8,1.7,1.3,2.2l1.8,1.4c2.3,1.9,4.3,3.6,4.3,7.2
			c0,4.8-4.7,9.7-13.5,9.7c-7.4,0-11-3.5-11-7.3c0-1.8,0.9-4.5,3.9-6.3c3.2-1.9,7.5-2.2,9.8-2.4c-0.7-0.9-1.5-1.9-1.5-3.5
			c0-0.9,0.3-1.4,0.5-2c-0.6,0.1-1.1,0.1-1.6,0.1c-5.4,0-8.5-4.1-8.5-8.1c0-2.4,1.1-5,3.3-6.9c2.9-2.4,6.4-2.8,9.2-2.8h10.5
			l-3.3,1.8L232.7,19.5L232.7,19.5z"/>
		<path class="st3" d="M206.8,37.3c1.2-1.6,1.5-3.7,1.5-5.7c0-4.5-2.1-13.1-8.5-13.1c-1.7,0-3.4,0.7-4.6,1.7c-2,1.8-2.4,4.1-2.4,6.3
			c0,5.1,2.5,13.4,8.7,13.4C203.6,39.9,205.7,39,206.8,37.3 M200.5,41.5c-8.1,0-12.5-6.4-12.5-12.1c0-6.7,5.5-12.5,13.2-12.5
			c7.5,0,12.2,5.9,12.2,12.1C213.4,35.1,208.8,41.5,200.5,41.5"/>
		<path class="st3" d="M179.2,37.3c1.2-1.6,1.5-3.7,1.5-5.7c0-4.5-2.1-13.1-8.5-13.1c-1.7,0-3.4,0.7-4.6,1.7c-2,1.8-2.4,4.1-2.4,6.3
			c0,5.1,2.5,13.4,8.7,13.4C175.9,39.9,178,39,179.2,37.3 M172.8,41.5c-8.1,0-12.5-6.4-12.5-12.1c0-6.7,5.5-12.5,13.2-12.5
			c7.5,0,12.2,5.9,12.2,12.1C185.8,35.1,181.1,41.5,172.8,41.5"/>
		<path class="st3" d="M156.4,40.7l-7.3,1.7c-3,0.5-5.6,0.9-8.5,0.9c-14.2,0-19.6-10.5-19.6-18.7c0-10,7.6-19.3,20.7-19.3
			c2.8,0,5.5,0.4,7.9,1.1c3.8,1.1,5.7,2.4,6.8,3.2l-4.2,4.1l-1.8,0.4l1.3-2.1c-1.8-1.7-4.9-4.8-11-4.8c-8.1,0-14.2,6.2-14.2,15.2
			c0,9.7,7,18.8,18.2,18.8c3.3,0,5-0.7,6.5-1.3v-8.3l-7.8,0.4l4.1-2.2h10.9l-1.3,1.3c-0.4,0.3-0.4,0.4-0.5,0.8
			c-0.1,0.5-0.1,2-0.1,2.5L156.4,40.7L156.4,40.7z"/>
		<path class="st3" d="M248.9,39.2c-1.7-0.2-2.1-0.5-2.1-2.5v-0.6V7.5c0-0.1,0-0.2,0-0.3c0.2-1.8,0.7-2.1,2.3-3.1h-7.3L238,6h3.9v0
			l0,0v30.1v1.7c0,1-0.2,1.2-1.4,2.7h9.1l1.9-1.1C250.7,39.4,249.8,39.3,248.9,39.2"/>
		<path class="st3" d="M265,24.4c1-0.4,1.5-0.7,1.5-1.4c0-2.1-2.3-4.4-5.1-4.4c-2,0-5.9,1.6-5.9,7.1c0,0.9,0.1,1.8,0.2,2.7L265,24.4
			z M269.8,39.7c-0.6,0.3-1.1,0.7-1.7,0.9c-1.7,0.8-3.4,1-4.9,1c-1.6,0-4.2-0.1-6.8-2c-3.6-2.5-5.2-7-5.2-10.8
			c0-7.9,6.4-11.8,11.7-11.8c1.8,0,3.7,0.5,5.2,1.4c2.6,1.7,3.2,3.9,3.6,5.1l-12,4.9l-3.9,0.3c1.3,6.5,5.7,10.3,10.5,10.3
			c2.6,0,4.5-0.9,6.2-1.8L269.8,39.7z"/>
	</g>
</g>
</svg>
