<?xml version="1.0" encoding="utf-8"?>
<!-- Generator: Adobe Illustrator 23.0.1, SVG Export Plug-In . SVG Version: 6.00 Build 0)  -->
<svg version="1.1" id="Layer_1" xmlns="http://www.w3.org/2000/svg" xmlns:xlink="http://www.w3.org/1999/xlink" x="0px" y="0px"
	 viewBox="0 0 384 384" style="enable-background:new 0 0 384 384;" xml:space="preserve">
<style type="text/css">
	.st0{fill:#808080;}
	.st1{fill:none;stroke:#808080;stroke-width:10;stroke-miterlimit:10;}
</style>
<g>
	<path class="st0" d="M320.6,238.6c15.5-26.4,21-55,16.3-84.9c-7.1-45.9-37.4-83.5-80.8-100.7c-43.7-17.3-91.8-10.3-128.6,18.5
		c-16.7,13.1-29.5,29.5-38.1,49c0.1,0,0.2,0,0.3,0c5.1-0.6,9.9-1.2,14.6-2.5c2.5-0.7,5.4-2.6,6.7-4.4c28-41.2,66.2-59,113.5-52.7
		c39,5.2,73.6,31,90.3,67.4c16.6,36.1,13.3,76.3-8.9,110.3c-19,29.1-49.8,47.5-84.4,50.4c-36,3.1-71.2-10.6-96.4-37.6l-0.6-0.7
		c-0.7-0.7-2-2.1-2.7-2.6c-5.9,0.3-12,1-18.3,1.8c-0.1,0-0.2,0-0.3,0c15.6,21.2,34.9,35.8,58.8,44.7c40.1,14.8,80.1,10.5,119-12.9
		l3.2-1.9l55.5,60.7l33.4-30.5c-3.8-4.1-7.6-8.3-11.4-12.4c-13.4-14.6-26-28.3-39.1-42.1C317.3,250,316.8,245.1,320.6,238.6z"/>
	<path class="st1" d="M206.3,198.7c15.5,0,28.6-12.9,28.9-28.3c0.3-16.1-12.5-28.9-28.9-28.9c-16,0-28.7,12.2-28.9,27.9
		C177.3,185.2,190.5,198.6,206.3,198.7z"/>
	<g>
		<path class="st0" d="M274.3,160.6c-6.3-32.1-33.7-55.8-66.5-57.5c-32.7-1.7-60.7,18.5-68,49.3c-1.3,5.3-7,10.5-12.6,11.3
			c-14.4,2.1-29.1,4.1-43.2,6l-0.1,0c-15.6,2.1-31.8,4.4-47.7,6.7c-1.2,0.2-3.4,1.4-5,3.1c-4.3,4.6-8.4,9.7-12.3,14.6
			c-0.1,0.2-0.2,0.3-0.4,0.4l14.7,10.8l15.8-20.3l22.7,17l17.5-22.2l23.2,17.5l24.6-17.3l4.3,8.6c0.3,0.6,0.5,1.1,0.8,1.5
			c0.5,1,0.9,1.8,1.3,2.7c12.1,27,32,41.6,61,44.3c20.6,2,40.4-5.7,54.4-21.1C272.6,201.1,278.3,180.8,274.3,160.6z M260.9,184.5
			l-7.9,0.3c-1,0-2.2,0.2-3.5,0.3c-4.5,12.2-14.1,22.1-26.1,27.1c-0.2,1.8-0.5,3.7-1,5.9l-1.4,6.4h-26.6l-1.3-6.6
			c-0.3-1.6-0.6-3.1-0.8-4.6c-13.3-4.4-24.1-14.9-29-28h-11.3v-28.6l10.4-0.6c4.3-14.1,15.3-25,29.5-29.5l0.7-10.2h27.6l0.7,10.3
			c14.1,4.5,25,15.4,29.3,29.4l10.7,0.9V184.5z"/>
	</g>
</g>
</svg>
