<?xml version="1.0" encoding="utf-8"?>
<!-- Generator: Adobe Illustrator 23.0.1, SVG Export Plug-In . SVG Version: 6.00 Build 0)  -->
<svg version="1.1" id="Layer_1" xmlns="http://www.w3.org/2000/svg" xmlns:xlink="http://www.w3.org/1999/xlink" x="0px" y="0px"
	 viewBox="0 0 505.1 387.2" style="enable-background:new 0 0 505.1 387.2;" xml:space="preserve">
<style type="text/css">
	.st0{fill:#9A9A9A;}
</style>
<g>
	<path class="st0" d="M495.6,120.2c13.9-18.1,12.4-42.8-3.7-58.7C476.1,45.9,451,44.4,433.5,58c-3.3,2.6-6.3,3-10.4,1.6
		c-9.6-3.5-18-1.7-24.9,5.3c-6.8,6.9-8.6,15.1-5.2,24.5c1.6,4.5,0.9,7.6-2.4,10.9c-17,16.8-34.1,34-50.8,50.6
		c-5.8,5.8-11.7,11.7-17.5,17.5c-0.6,0.6-1.3,1.2-2.1,1.9c-0.4,0.3-0.8,0.7-1.3,1.1l-5.9,5.3V53.8h9.2c3.9,0,7.8,0,11.7,0
		c9.4,0,19.2,0,28.8-0.1c2.1,0,3.7-0.5,4.5-1.4c0.6-0.6,0.9-1.6,0.9-2.8c0-1.4-0.1-3.7-5.5-3.7c-9,0-18.1,0-26.9,0
		c-3.7,0-7.4,0-11.1,0h-11.4l-0.2-3.3c0-0.7-0.1-1.3-0.1-1.9c-0.1-1.2-0.1-2.2-0.1-3.3c0-4.1,0-8.1,0-12.2c0-6.4,0-12.8,0-19.3
		c0-5.7-2.9-5.8-4-5.8c-1.8,0-2.4,0.6-2.6,0.8c-0.9,0.9-1.4,2.6-1.4,4.8c0,4.6,0,9.2,0,13.9c0,2,0,4.1,0,6.1v20.2l-176.7,0
		c-0.4,0-0.8,0-1.2,0c-0.9,0-1.8,0-2.7,0c-4.6,0.2-4.7,2.6-4.8,3.7c0,0.9,0.1,2,0.9,2.9c0.7,0.8,1.9,1.2,3.5,1.3
		c5.7,0.2,11.4,0.2,17,0.1c3,0,5.9,0,8.9,0c1,0,19,0.1,19,0.1l-105,60.5V53.8l10.8,0c5.7,0,11.3,0,16.9,0c4.4,0,5.1-1.4,5.6-3
		c0.2-0.9,0.4-2.2-0.4-3.2c-0.8-1-2.3-1.6-4.2-1.7c-5.7-0.1-11.4-0.1-17.5-0.1c-2.6,0-5.3,0-8.1,0h-3.5l0-9.4c0-3.1,0-6.2,0-9.2
		c0-7.3,0-14.8-0.1-22.2c0-1.9-0.5-3.3-1.3-4.1C61.6,0.3,60.6,0,59.4,0c-1.2,0-3.7,0.1-3.8,5c-0.1,6.3-0.1,12.8-0.1,19
		c0,2.6,0,5.3,0,7.9l0,13.8h-9.6c-3.6,0-7.2,0-10.9,0c-9.1,0-18.5,0.1-27.7-0.1C4,45.6,1.7,46.3,0,48v3.4c1.6,1.8,3.9,2.5,7.8,2.4
		c10.4-0.1,20.6-0.1,31.4-0.1c4.1,0,8.3,0,12.4,0h3.5v279.3l-3.3,0.1c-0.6,0-1.1,0.1-1.7,0.1c-1.2,0.1-2.5,0.1-3.8,0.1
		c-2.9,0-5.8,0-8.7,0c-9.8,0-19.9,0.1-29.8-0.1c-3.9-0.1-6.1,0.6-7.8,2.4v3.4c1.8,1.7,4.1,2.3,7.9,2.3c9.8-0.2,19.8-0.1,29.4-0.1
		c3,0,6.1,0,9.1,0c1.3,0,2.5,0.1,3.9,0.2c0.6,0,1.3,0.1,2,0.1l3.3,0.2v3.3c0,3.7,0,7.4,0,11c0,8.9,0,17.4,0,25.9c0,4.9,2.6,5,3.8,5
		c1.2,0,2.2-0.2,2.8-0.8c0.8-0.8,1.3-2.2,1.3-4.1c0.1-5.9,0.1-12,0.1-17.9c0-2.5,0-5,0-7.6l0-8l0-7.3h59.7c42.6,0,85.3,0,127.9,0
		c5.9,0,6-2.1,6-3.7c0.1-1.8-0.6-2.5-0.8-2.7c-0.9-0.9-2.7-1.5-5.1-1.5c-3.6-0.1-7.2-0.1-10.8,0c-1.6,0-3.1,0-4.7,0l-32.1,0l8.8-6.3
		c9.4-6.8,19-12.3,28-17.4c2.5-1.4,5.7-0.3,7,0.5c4.3,2.5,8.8,2.8,14.4,0.8c3.3-1.2,6.6-2.4,9.9-3.6c5.8-2.1,11.6-4.1,17.3-6.2
		c2.4-0.9,4.8-1.7,7.4-2.5c1.1-0.4,2.3-0.8,3.4-1.2l4.6-1.6v37.3h-3.5c-1.7,0-3.3,0-5,0c-3.7,0-7.1,0-10.6,0c-2.4,0-4.3,0.6-5.3,1.7
		c-0.6,0.6-0.9,1.4-0.8,2.5c0,1,0.1,3.8,6,3.8c3.6,0,7.3,0,11,0l4.9,0h3.3l0.2,3.3c0,0.7,0.1,1.3,0.1,1.8c0.1,1,0.1,1.8,0.1,2.7
		c0,3.7,0,7.5,0,11.2c0,7.3,0,14.8,0,22.3c0,2.9,1.3,4.4,3.7,4.5c3.3,0.1,4.1-2.4,4.2-4.6c0.1-1.2,0.1-2.4,0-3.6c0-0.6,0-1.1,0-1.7
		l0-35.9l21.2,0c9.4,0,18.8,0,28.2,0c5.8,0,5.9-2.4,5.9-3.8c0-1.8-0.6-2.5-0.8-2.7c-0.9-0.9-2.7-1.5-5.2-1.5c-6.9-0.1-13.9,0-20.6,0
		c-2.9,0-5.9,0-8.8,0H313V330c0-2.5,0-5.1,0-7.5c0-8.6,0-16.7,0.2-25c0.1-3.2,3.5-5.7,5.6-6.5c6.1-2.3,11.4-4.4,15.9-8.9
		c26.4-26.7,53.4-53.6,79.4-79.7c13.1-13.1,26.2-26.2,39.2-39.3c2.6-2.6,5.7-4.7,10.9-2.7c9.3,3.6,17.6,1.8,24.7-5.3
		c7-7,8.7-15.4,5.1-24.9C492.6,126.4,493,123.5,495.6,120.2z M212.1,54.1h92.4v60.4L200.2,54.3L212.1,54.1z M156.1,333.2H63.9v-60.5
		l94.2,54.4L156.1,333.2z M240.8,298c-0.6,1.8-2.2,3.4-4.5,4.8c-6,3.5-12,7-18,10.4c-7.6,4.4-15.4,8.9-23,13.4
		c-3.7,2.2-7.3,3.2-11,3.2c-3.7,0-7.5-1.1-11.4-3.4c-33.7-19.6-66.7-38.7-98.1-56.7c-7.5-4.3-11.2-10.6-11.2-19.3
		c0.1-39.9,0.1-77,0-113.5c0-8.8,3.7-15.2,11.5-19.7c34.7-19.8,66.5-38.2,97.3-56.2c8.2-4.8,15.8-4.7,24.1,0.1
		c30.4,17.8,61.9,36,96.4,55.7c8.4,4.8,12.4,11.8,12.2,21.4c-0.2,8.7-0.2,17.5-0.1,26c0,5.2,0,10.6,0,15.9c0,2.6-0.2,5.5-2.1,7.5
		c-7.9,8.2-15.9,16.1-24.3,24.6c-2.4,2.4-4.8,4.8-7.3,7.3l-5.6,5.6l-0.4-7.9c0-0.9-0.1-1.7-0.1-2.4c-0.1-1.4-0.2-2.4-0.2-3.6
		c0-3.7,0-7.5,0-11.2c0-11.4-0.1-23.2,0-34.8c0.1-12.4-5-21.3-15.6-27.3c-14.5-8.2-30.3-17.3-49.8-28.7c-10.3-6-20.3-6.1-30.5-0.1
		c-17.1,9.9-34,19.7-50.2,29c-10.3,5.9-15.2,14.4-15.2,26c0.1,20.4,0.1,40.4,0,59c0,11.4,4.9,19.8,15,25.6c16,9.2,33.1,19,50.2,29
		c10.3,6,20.3,6.1,30.5,0.1c11.7-6.8,23.6-13.7,35.2-20.3l11.2-6.4c1-0.6,2-1.1,3.4-1.9c0.7-0.4,1.5-0.8,2.5-1.3l8-4.4l-3,8.6
		c-0.7,1.9-1.3,3.6-1.9,5.3c-1.3,3.5-2.3,6.6-3.4,9.7c-1.2,3.5-2.3,6.9-3.5,10.4C245.5,284.3,243.2,291.2,240.8,298z M111.7,202.4
		c0-3,0-6,0-9c0-3,0-6,0-8.9c0-6.7,0-13.7,0-20.5c-0.1-8.2,3.5-14.4,10.8-18.6c16.9-9.6,34-19.5,51-29.4c7.2-4.2,14.4-4.2,21.5-0.1
		c16.8,9.7,34.1,19.8,51.4,29.7c7,4,10.6,10.1,10.6,18.2c0,8,0,16,0,24c0,11.8,0,23.7,0,35.5c0,8.1-3.5,14.3-10.4,18.3
		c-15.5,8.9-31.1,17.9-46.6,26.9l-5.3,3.1c-3.4,2-6.9,3-10.4,3c-3.5,0-7.1-1-10.7-3.1c-20.7-12-36.6-21.2-51.4-29.7
		c-7-4-10.6-10.2-10.5-18.2C111.7,216.4,111.7,209.3,111.7,202.4z M269.8,299.7c-1.3,0.5-2.5,0.9-3.7,1.4c-2.8,1-5.4,2-8.1,2.8
		c-1.1,0.3-2,0.4-2.8,0.4c-2.1,0-3.5-0.8-4.3-1.7c-1.2-1.2-2.3-3.5-1.1-7.4c0.8-2.5,1.7-5,2.7-7.6c0.4-1.2,0.9-2.3,1.3-3.6l1.8-5.1
		l19.5,18.9L269.8,299.7z M323.5,278.6c-0.7,1.6-2.3,2.8-4.7,3.7l-1.4,0.5c-9.5,3.5-19.4,7-29.2,10.3c-0.6,0.2-1.4,0.3-2.1,0.3
		c-2.1,0-4.5-0.8-6-2.2c-6.9-6.5-12.4-12.1-17.4-17.5c-1.9-2.1-2.7-6.1-1.8-9c2-6.2,4.2-12.4,6.4-18.4c1.1-3,2.1-6,3.2-8.9l0.2-0.5
		c1-2.8,2.8-8.1,9.7-7.4l0.7,0.1c4.7,0.5,11.2,1.2,13.5,8.7c0.6,1.9,0.8,3.8,1,5.3c0.1,0.5,0.1,0.9,0.2,1.3l0.1,0.4l0,0.4
		c-0.1,1.2-0.2,2.2-0.3,3.2c-0.2,2-0.4,3.7-0.5,5.3c0,1.2,0.1,2.8,1.1,3.7c0.9,0.8,2.4,1.2,4.2,1l1.4-0.1c3.3-0.3,6.7-0.7,10.1-0.4
		c4.4,0.3,8.4,3,10.8,7.1C325,269.6,325.3,274.5,323.5,278.6z M332.8,271.1l-1.6-5.7c-2.1-7.5-7.1-12.3-14.7-14.5l-1.2-0.3l-3.8-5.6
		l3-1.9c0.6-0.4,1.3-0.8,1.9-1.2c1.1-0.6,2.2-1.2,2.9-1.9c20.5-20.4,41.2-41.1,59.4-59.3c0.3-0.3,0.7-0.7,1.1-1
		c0.4-0.4,1.1-1,1.3-1.3c0.3-3.7-0.1-5.4-0.6-6.2c-1.1-1.8-3.4-0.6-4.1-0.2c-0.9,0.6-1.9,1.5-2.9,2.5L373,175
		c-22.2,22.2-40.9,40.9-59.7,59.7c-0.6,0.6-1.2,1.5-2,2.6c-0.5,0.7-1.1,1.5-1.7,2.4l-4,5.4l-2.1-6.4c-3-9.2-7.5-14.3-14.2-16
		l-5.9-1.5L401.6,103l21.9,21.8l-5.9,5.8c-3.8,3.7-8,7.8-12.2,11.9c-1.3,1.3-2.8,2.7-4.2,4.2c-1.8,1.9-3.5,4.6-1.1,6.9
		c0.8,0.7,2.8,2.7,6.6-1.1c3.7-3.7,7.5-7.4,11.1-11.1c1.9-2,3.9-3.9,5.8-5.8c0.9-0.9,1.7-1.7,2.5-2.4l3.3-3.2l22.3,22.2L332.8,271.1
		z M486.2,145.3c-2.9,5.9-8.1,8.8-15.9,8.8l-1,0l-0.8-0.5c-0.3-0.2-0.8-0.4-1.4-0.7c-1.8-0.9-4.2-2-6.1-3.9
		c-17.3-17.1-35.8-35.6-56.5-56.4c-3.3-3.3-5.1-7.5-5.1-11.7c0-3.9,1.7-7.7,4.7-10.6c6.2-6.1,15.4-5.9,21.9,0.5
		c17.2,17.1,35.3,35.1,56.8,56.8C488,132.8,489.2,139.2,486.2,145.3z M488.6,115.9l-2.5,2.9l-50.9-50.9l2.5-2.5
		c11.9-12,34.2-11.5,47.8,1C499.5,79.4,500.9,101.6,488.6,115.9z"/>
</g>
</svg>
