<?xml version="1.0" encoding="utf-8"?>
<!-- Generator: Adobe Illustrator 23.0.1, SVG Export Plug-In . SVG Version: 6.00 Build 0)  -->
<svg version="1.1" id="Layer_1" xmlns="http://www.w3.org/2000/svg" xmlns:xlink="http://www.w3.org/1999/xlink" x="0px" y="0px"
	 viewBox="0 0 381.1 363.7" style="enable-background:new 0 0 381.1 363.7;" xml:space="preserve">
<style type="text/css">
	.st0{fill:#9A9A9A;}
</style>
<g>
	<path class="st0" d="M346.1,97.9c8.8-18.4,17.8-37.2,27.4-57.5c5.6-11.7,1.4-24.2-10.1-30.2c-5.3-2.8-10.9-5.5-16.8-8
		c-12.2-5.3-24.3-0.7-30,11.4c-4.5,9.4-8.9,18.8-13.4,28.2c-3.1,6.6-6.3,13.2-9.4,19.8c-0.4,0.9-0.9,1.8-1.4,2.7l-1.2,2.3l-1.2-0.3
		c-25.3-7.3-33.7-7.3-56.3-7.2c-2.7,0-5.7,0-8.7,0c-7.9,0-15.9,0-23.8,0c-20.9,0-42.4-0.1-63.6,0.1c-8.8,0.1-17.5,0.8-25.9,2.1
		c-51.4,8.1-96.9,51-108.1,102c-1,4.8-1.8,9.7-2.6,14.5c-0.4,2.2-0.7,4.4-1.1,6.6v25.2c0.1,0.2,0.1,0.4,0.2,0.6
		c0.2,0.6,0.4,1.3,0.5,2c3.3,33.9,17.7,63.2,42.8,87.1c1.4,1.3,2.8,3.9,2.7,6.1c-0.3,7.4-0.7,14.9-1.2,22.2c-0.2,3.3-0.4,6.7-0.6,10
		l-0.2,3.8c-0.3,5.1-0.6,10.4-0.7,15.6c0,2.4,0.7,4.4,2.2,5.5c1.5,1.2,3.7,1.5,6.2,0.9c1.2-0.3,2.5-1,3.8-1.6
		c4.9-2.5,9.7-5,14.5-7.5c11-5.6,22.3-11.5,33.5-17.1c2.4-1.2,5.4-1.9,8.1-1.9c12.8-0.1,25.7-0.1,38.3-0.1c4.6,0,9.2,0,13.9,0l0.5,0
		c1,0,2,0,3-0.1c2.1-0.3,3.2-1.6,3.4-3.7c0.1-2.1-0.9-3.5-2.9-4.1c-1.1-0.3-2.5-0.3-3.7-0.3l-10.6,0c-14.3,0-29.2-0.1-43.8,0.1
		c-2.9,0-6,0.8-8.6,2.1c-9.2,4.6-18.5,9.4-27.5,14c-3.5,1.8-7,3.6-10.5,5.4c-1.9,1-3.9,2-5.9,3l-5.2,2.7v-2.4c0-0.5,0-0.9,0-1.3
		c0-0.7,0-1.3,0-1.9c0.2-3.9,0.4-7.8,0.6-11.7c0.6-11,1.2-22.4,1.9-33.6c0.2-3.6-0.8-6-3.6-8.6C14.5,261.1,1,218.6,11.2,168.4
		c6-29.6,21.3-54.9,44.3-73.3c22.8-18.2,51-27.9,81.5-27.9c9.5,0,19.1,0,28.6,0c25.9,0,52.7-0.1,79,0.2c8.2,0.1,16.4,1.2,24.4,2.4
		c1.5,0.2,3,0.4,4.4,0.6c2.9,0.4,5.7,1.3,8.6,2.2c1.3,0.4,2.6,0.8,3.9,1.2l1.7,0.5l-2.4,5.1c-1,2.2-2,4.3-3,6.3
		c-1.4,2.9-2.8,5.8-4.2,8.8c-3.3,6.9-6.7,14-9.9,21c-0.6,1.4-0.8,2.7-0.4,3.8c0.3,0.9,1.1,1.7,2.2,2.2c2.8,1.3,4.6-0.6,5.6-2.3
		c0.3-0.6,0.7-1.3,1-1.9l0.1-0.3l23.4-49.4c2.7-5.6,5.3-11.2,8.1-16.9l3.8-7.9l41.9,20l-0.6,1.4l-68.8,144.8l-41.9-20l5.1-10.7
		c3.2-6.7,6.3-13.2,9.4-19.8c0.7-1.4,1.3-2.8,2-4.2c1.8-3.7,3.7-7.5,5.1-11.4c0.5-1.2,0-3.8-0.9-4.7c-0.6-0.6-2.9-1-4.5-0.5
		c-0.2,0.1-1.1,0.5-2.5,3.4c-7.7,15.9-14.5,30.2-21.2,44.6c-1.3,2.8-2.1,6.1-2.4,9.5c-0.7,9-1.3,18.1-1.8,27
		c-0.3,4.3-0.5,8.7-0.8,13c-0.3,3.9-0.5,7.7-0.9,11.8c-0.1,1.8-0.3,3.7-0.4,5.5l-0.1,1.4h-25.4c-38.2,0-76.5,0-114.7,0l-0.8,0
		c-1.1,0-2.1,0-3.1,0.1c-2.5,0.3-3.7,1.5-3.7,3.9c0,2.4,1.2,3.7,3.6,4c1.2,0.2,2.4,0.2,3.7,0.2l0.6,0l37.3,0c32.9,0,65.9,0,98.8,0
		c1.7,0,3.7,0,5.4,0.9c5.4,2.8,7,2.6,11.3-1.3l5.3-4.9c13.4-12.4,27.2-25.2,40.8-37.9c1.3-1.2,2.6-3,3.5-5
		c11.7-24.6,23.6-49.6,35.1-73.9l11.3-23.9c0.4-0.8,0.8-1.5,1.3-2.5c0.3-0.5,0.5-1,0.9-1.6l1.1-2.2l1.4,2c1.2,1.7,2.4,3.3,3.6,4.9
		c2.5,3.4,4.9,6.6,7,10c18,28.4,23.8,60,17.6,96.8c-4.6,27.5-19.3,53.3-41.5,72.5c-22.1,19.3-49.7,30.3-77.5,31
		c-12.6,0.3-25.5,0.3-37.9,0.3c-6.2,0-12.5,0-18.7,0c-0.3,0-0.7,0-1.1,0c-1.1,0-2.3-0.1-2.9,0.3c-1.6,1-3,2.5-3.1,3.4
		c-0.1,1,0.9,2.9,2.1,3.9c0.6,0.6,2.5,0.6,3.8,0.6l0.2,0c10.2,0,20.4,0,30.5,0c6.8,0,13.6,0,20.5,0c0.1,0,0.2,0,0.3,0
		c12.6,0,24-1.4,34.9-4.4c55.8-15.2,95.2-62.2,100.3-119.9c3.6-40.9-7.7-76.6-33.6-106.1C344.7,102.3,345,100.2,346.1,97.9z
		 M315.4,35l0.7-1.4c1-2.1,2-4.1,3-6.1c2.3-4.8,4.5-9.4,7-13.9c2.8-4.9,10-6.8,16-4.3c7,2.9,13,5.7,18.4,8.7c7,3.9,9.2,11,5.6,18.7
		c-1.8,3.8-3.6,7.6-5.4,11.5l-3.2,6.7L315.4,35z M237,254.4l1.6-23.8l15.9,7.6L237,254.4z M277.5,216.7c-1.2,1.1-2.4,2.2-3.6,3.3
		c-3.8,3.6-7.4,6.9-11.1,10.2c-0.6,0.6-1.6,0.8-2.5,0.8c-0.8,0-1.5-0.2-2.1-0.4c-5.4-2.4-10.9-5-16.3-7.7c-1.1-0.6-2.7-2.2-2.6-3.8
		c0.2-5,0.6-9.9,0.9-15.1c0.1-1.6,0.2-3.2,0.3-4.8l0.1-2.2l38.3,18.2L277.5,216.7z"/>
	<path class="st0" d="M205.8,173.1c-0.4,0-0.8,0-1.3,0l-0.6,0l-18.3,0c-32.6,0-65.3,0-97.9,0c0,0,0,0,0,0c-0.3,0-0.6,0-1,0
		c-1,0-2.4-0.1-2.9,0.3c-1.5,1-2.8,2.6-2.9,3.5c-0.1,1,0.9,2.9,2.1,3.9c0.6,0.5,2.4,0.5,3.6,0.5h0.4c15.9,0,32.1,0,47.7,0l11.1,0
		l16,0c14.6,0,29.3,0,43.9,0c3.4,0,5.1-1.3,5.2-3.9C211.2,173.8,207.8,173.2,205.8,173.1z"/>
	<path class="st0" d="M207.4,213.5c-0.7-0.1-1.4-0.1-2.2-0.1c-0.3,0-0.6,0-1,0l-73,0l-43.6,0c-0.3,0-0.6,0-0.9,0
		c-0.8,0-1.5,0-2.2,0.1c-2.4,0.3-3.6,1.5-3.7,3.7c-0.2,2.3,0.9,3.8,3.4,4.4c0.6,0.2,1.4,0.1,2.2,0.1c0.3,0,0.5,0,0.8,0
		c39.1,0,78.2,0,117.3,0c0,0,0,0,0,0c0.3,0,0.6,0,0.8,0c0.9,0,1.8,0,2.5-0.2c2.3-0.6,3.4-2,3.2-4.2
		C210.9,215.1,209.7,213.8,207.4,213.5z"/>
	<path class="st0" d="M157.1,133.1c-8.5,0-17.1,0-25.7,0l-19.1,0c-8.8,0-17.7,0-26.5,0c0,0,0,0-0.1,0c-2.6,0-4,0.7-4.8,2.4
		c-0.6,1.3-0.6,2.6,0.1,3.7c0.9,1.4,2.7,2.2,4.8,2.2c24.9,0.1,50,0,71.2,0c2.5,0,5.5-0.7,5.6-4.1c0-1.1-0.3-2.1-0.9-2.7
		C160.9,133.6,159.3,133.1,157.1,133.1z"/>
</g>
</svg>
