<?xml version="1.0" encoding="utf-8"?>
<!-- Generator: Adobe Illustrator 23.0.1, SVG Export Plug-In . SVG Version: 6.00 Build 0)  -->
<svg version="1.1" id="Layer_1" xmlns="http://www.w3.org/2000/svg" xmlns:xlink="http://www.w3.org/1999/xlink" x="0px" y="0px"
	 viewBox="0 0 368 367.7" style="enable-background:new 0 0 368 367.7;" xml:space="preserve">
<style type="text/css">
	.st0{fill:#9A9A9A;}
</style>
<g>
	<path class="st0" d="M219.1,217c-2-1.2-4.2-2-6.6-2.9c-1.1-0.4-2.3-0.9-3.5-1.3l-2.3-0.9l2.9-4.2c1-1.5,2-3,3-4.4
		c11.6-17,24.7-37,33-58.9c8.5-22.4,10.6-40,6.9-56.8c-6.6-30.2-24.3-48.9-52.8-55.7c-6.1-1.5-12.1-2.2-17.8-2.2
		c-20.7,0-38.6,9.6-53.3,28.5c-13.3,17.1-17.4,38.2-12.7,64.3c3.3,18,10.6,36.1,22.3,55.2c4.6,7.5,9.4,14.7,14.4,22.3
		c2.2,3.4,4.5,6.8,6.7,10.2l1.4,2.1l-2.4,0.9c-0.6,0.2-1.1,0.4-1.6,0.6c-1.1,0.4-2.1,0.7-3.1,1.1c-7.9,3.1-13.2,6.6-17.1,11.3
		c-6.1,7.3-6.1,16.3,0,23c3.4,3.8,7.3,6.7,11.1,8.6c17.4,8.6,36.7,10.3,59,5.2c11.2-2.6,19.1-6.9,24.8-13.5
		c6.4-7.4,6.3-16.6-0.1-23.5C228,222.6,223.8,219.9,219.1,217z M130,143.2c-6.9-18.2-9.3-34.7-7.3-50.5
		c3.7-29.6,29.2-53.7,58.2-54.9c30.6-1.3,57.3,19.7,63.6,49.8c3.4,16.5,1.4,33.6-6.5,53.9c-3,7.8-6.5,16.1-11.2,23.6
		c-9.3,15.1-18.8,29.8-28.9,45.3c-3.9,6-7.9,12.1-11.8,18.3l-1.6,2.5l-1.7-2.5c-4.1-5.9-8.3-11.8-12.3-17.4
		C154.5,189.2,139.5,168.2,130,143.2z M218.8,249.6c-6.2,3.7-13.4,6-22.7,7.3c-3,0.4-6,0.6-8.2,0.7c-0.8,0.1-1.5,0.1-2.1,0.2l-0.1,0
		l-0.1,0c-9.6-0.1-20.7-0.9-31.1-5.6c-4.1-1.9-7.9-4.4-11.1-7.2c-2.3-2.1-3.5-4.4-3.6-6.8c-0.1-2.5,1-5.1,3.4-7.6
		c5.7-6.1,13.2-8.6,20.4-10.4c2.1-0.5,4.3,1.7,4.9,2.5c2.5,3.4,4.9,6.9,7.3,10.3c1.3,1.9,2.6,3.8,4,5.7c1,1.4,2.5,3.1,4.2,3.1
		c0,0,0,0,0,0c1.7,0,3.1-1.7,4.1-3c3.8-5.6,7.3-10.7,10.7-15.8c0.7-1,2.7-4,6.7-2.3c1.5,0.6,3.1,1.2,4.6,1.8c2.8,1,5.7,2,8.3,3.5
		c7.7,4.3,9.3,8.7,9.4,11.7C228,240.5,226.4,245.1,218.8,249.6z"/>
	<path class="st0" d="M74.5,289.7c4.3,0,5.5-1.2,5.5-5.5c0-23,0-46,0-69c0-4.3-1.2-5.5-5.5-5.5c-23,0-46,0-69,0
		c-4.3,0-5.5,1.2-5.5,5.5c0,23,0,46,0,69c0,4.3,1.2,5.5,5.5,5.5c8.2,0,16.3,0,24.5,0l10,0l10,0C58.2,289.7,66.3,289.7,74.5,289.7z
		 M32.3,217.9h15.6v21.5H32.3V217.9z M8.3,281.5V218H24l0,8.6c0,5,0,10.1,0,15.1c0,5,1,6.1,6.1,6.1l1,0c6.4,0,13.1,0,19.6,0
		c4.1,0,5.3-1.3,5.3-5.3c0-5.1,0-10.3,0-15.6l0-9h15.8v63.6H8.3z"/>
	<path class="st0" d="M362.4,209.7c-8.1,0-16.2,0-24.3,0l-9.8,0l-10.1,0c-3.4,0-6.7,0-10.1,0c-4.8,0-9.6,0-14.4,0
		c-4.6,0-5.7,1.2-5.7,5.6c0,22.9,0,45.7,0,68.6c0,4.6,1.2,5.7,5.6,5.7c22.9,0,45.7,0,68.6,0c4.6,0,5.7-1.2,5.7-5.6
		c0-22.9,0-45.7,0-68.6C368,210.9,366.8,209.7,362.4,209.7z M320.2,217.9h15.5v21.7h-15.5V217.9z M359.8,281.5h-63.6V218H312l0,8.6
		c0,5,0,10,0,15c0,5,1,6.1,6,6.1l1,0c6.4,0,13.1,0,19.6,0c4.1,0,5.3-1.3,5.3-5.3c0-4.9,0.1-9.8,0.1-14.7l0-7c0-0.2,0-0.4,0.1-0.7
		l0.4-2h15.2V281.5z"/>
	<path class="st0" d="M218.5,287.7c-23,0-46,0-69,0c-4.3,0-5.5,1.2-5.5,5.5c0,23,0,46,0,69c0,4.3,1.2,5.5,5.5,5.5
		c8.2,0,16.3,0,24.5,0l10,0l10,0c8.2,0,16.3,0,24.5,0c4.3,0,5.5-1.2,5.5-5.5c0-23,0-46,0-69C224,289,222.8,287.7,218.5,287.7z
		 M176.3,296h15.5v21.5h-15.5V296z M215.8,359.5h-63.5V296H168l0,8.6c0,5,0,10.1,0,15.1c0,5,1,6.1,6.1,6.1l1.5,0
		c6.3,0,12.7,0,19.1,0c4.1,0,5.3-1.3,5.3-5.3c0-5.1,0-10.3,0-15.5l0-9h15.8V359.5z"/>
	<path class="st0" d="M45.4,308.1c20.5,13.7,44.7,22.8,76,28.5l1.3-7.9c-30-5.6-53.2-14.3-72.7-27.1l-0.4,0.5
		c-1.1,1.6-2.2,3-3.2,4.5C46,307.1,45.7,307.6,45.4,308.1z"/>
	<path class="st0" d="M318,301.6c-19.5,12.9-42.1,21.3-72.7,27.2l1.3,7.8c31.3-5.7,55.6-14.8,76-28.5l-0.1-0.1
		c-0.8-1.1-1.5-2.2-2.2-3.2C319.6,303.8,318.8,302.7,318,301.6z"/>
	<path class="st0" d="M116.8,166.8l-1.6-7.8c-26.4,5.9-47.2,14.3-65,26.3l4.6,6.5C71.6,180.6,90.9,172.8,116.8,166.8z"/>
	<path class="st0" d="M318.1,191.8c0.8-1.1,1.5-2.1,2.3-3.1c0.8-1.1,1.5-2.2,2.4-3.4c-17.9-11.9-38.3-20.2-63.9-26l-1.6,7.7
		C282.6,173,301.6,180.7,318.1,191.8z"/>
	<polygon class="st0" points="125.4,36.2 115.9,26.8 111,31.5 120.5,41.1 	"/>
	<polygon class="st0" points="256.9,31.5 252.5,27.1 243,36.5 247.4,41.1 	"/>
	<rect x="180.2" class="st0" width="7.6" height="13.5"/>
	<rect x="84.2" y="96" class="st0" width="13.6" height="7.5"/>
	<rect x="270.2" y="96" class="st0" width="13.7" height="7.5"/>
	<path class="st0" d="M184,53.7C184,53.7,184,53.7,184,53.7c-25.3,0-46,20.6-46,45.9c0,12.3,4.8,23.9,13.5,32.6
		c8.7,8.7,20.3,13.5,32.5,13.5c0,0,0.1,0,0.1,0c25.3-0.1,45.8-20.7,45.8-46.1C230,74.3,209.3,53.7,184,53.7z M210.8,126.6
		c-7.2,7.2-16.7,11.1-26.8,11.1c0,0,0,0-0.1,0c-10.1,0-19.6-4-26.8-11.2c-7.2-7.2-11.1-16.8-11.1-26.9c0-10.1,4-19.6,11.2-26.8
		c7.2-7.2,16.7-11.1,26.8-11.1c0,0,0,0,0.1,0c20.9,0,37.9,17.1,37.9,38.1C222,109.9,218,119.4,210.8,126.6z"/>
	<path class="st0" d="M200.9,91.2l-0.7-0.1c-4.1-0.5-9.2-1.1-11-7.6c-1-3.6-2.2-5.7-5.1-5.8c0,0-0.1,0-0.1,0c-2.8,0-3.7,1.7-5.1,5.4
		l-0.2,0.6c-1.8,4.8-4.9,7.2-9.7,7.3c-3.8,0.1-5.9,0.6-6.8,3.2c-0.9,2.6,0.7,4.1,3.3,6.4l0.3,0.2c2.7,2.3,6,6.1,3.7,12
		c0,0.1,0,0.4-0.1,0.6c0,0.4,0,0.9-0.2,1.4c-0.8,3.1-0.4,4.7,1.3,6c1.2,0.9,3,1.6,5.9-0.7c5-3.9,9.9-3.9,15.1,0
		c3,2.2,4.7,1.5,5.9,0.6c1.1-0.8,2.4-2.3,1.3-5.5c-2.2-6.4-0.5-11.8,5.1-16.2c0.8-0.6,1.4-1.7,1.8-2.6c0.1-0.2,0.2-0.3,0.3-0.5
		C205.8,93,204.3,91.7,200.9,91.2z M187.9,107.8h-7.8l-3.2-8.7l7.1-4.8l7.1,4.7L187.9,107.8z"/>
</g>
</svg>
