<?xml version="1.0" encoding="utf-8"?>
<!-- Generator: Adobe Illustrator 23.0.1, SVG Export Plug-In . SVG Version: 6.00 Build 0)  -->
<svg version="1.1" id="Layer_1" xmlns="http://www.w3.org/2000/svg" xmlns:xlink="http://www.w3.org/1999/xlink" x="0px" y="0px"
	 viewBox="0 0 368.8 368.8" style="enable-background:new 0 0 368.8 368.8;" xml:space="preserve">
<style type="text/css">
	.st0{fill:#9A9A9A;}
</style>
<g>
	<path class="st0" d="M368.8,55.5c0.9-18.2-7.2-34.7-20.7-44.9c-1.2-0.9-2.5-1.8-3.8-2.6c-1.3-0.8-2.7-1.6-4.1-2.3
		c-4.2-2.1-8.8-3.7-13.6-4.7c-12.8-2.5-24.9-0.5-36.1,6C275.8,15.7,267,29,264.3,46.7l-0.2,1.4l-5.4,0c-12.2,0-18.6,6.4-18.6,18.5
		c0,11,0,22.1,0,33.1l0,20.2h-15.3l0.1-1.8c2-28.1-8-57-27.4-79.3c-0.6-0.7-1.3-1.4-1.9-2.1c-15.4-16.7-35-28.2-56.7-33.5
		c-1.8-0.4-3.6-0.8-5.5-1.2c-2.8-0.5-5.5-0.9-8.4-1.3c-1.9-0.2-3.8-0.4-5.7-0.5c-2.4-0.2-4.8-0.2-7.1-0.2C61,0.1,15.9,35,3.5,85.5
		c-5.4,21.9-4.5,43.2,2.7,63.4c1.7,4.7,3.6,9.3,6,13.8c15.8,31,41.8,51.1,77.1,59.8l1.3,0.3v29.5l-0.9,0.5
		c-8.1,4.1-11.4,8.5-11.4,15.2l0,10.8c-0.1,18.8-0.2,38.3,0.1,57.4c0.3,17.3,15,32,32.7,32.6c9.5,0.3,18.5-3,25.3-9.5
		c6.7-6.4,10.4-15.1,10.5-24.4c0.2-16.5,0.1-33.3,0.1-49.6c0-5.5,0-10.9,0-16.4c0-1.3-0.2-2.7-0.5-4.1c-1.5-6.6-6.1-9.9-9.9-11.6
		c-0.3-0.1-0.5-0.2-0.8-0.3l-1.1-0.4V223l1.2-0.3c20.8-5.8,38-14.6,51.6-26.7c18.2-16.1,30.1-37.9,36.2-65.7l0.3-1.3l16.2,0v5.9
		c0,4.9,0,9.8,0,14.6c0,11.3,0,23,0,34.5c0,9.5,7,16.6,16.6,16.7c1.3,0,2.7,0,4,0l3.2,0l0.2,1.4c5.2,33.6,33.4,49,57.2,46.4
		c26.3-2.8,46.7-24.3,47.4-50c0.7-26.2-17.7-49.3-42.9-53.6c-13.3-2.3-25.6,0-36.6,6.9c-14,8.7-22.4,21.7-24.9,38.6l-0.2,1.2
		l-1.3,0.1c-2.7,0.3-4.9,0.5-6.7,0.3c-0.3,0-0.6-0.1-0.9-0.2c-0.1,0-0.3,0-0.4-0.1c-1.3-0.3-2.3-0.8-3.2-1.6c-2.1-1.9-3-5.1-3-10.6
		c0.1-10.1,0.1-20.3,0.1-30.5c0-6.8,0-13.6,0-20.3c0-10.1,0-20.2,0-30.2c0-10.3,0-20.5,0-30.8c0-4.1,0.4-7.1,2.3-8.9
		c1.9-1.9,4.9-2.2,9.1-2.2c0.5,0,1,0,1.6,0.1L264,57l0.2,1.3c5,32.8,32.9,48.4,56.5,46.3c9-0.8,17.3-3.8,24.4-8.4
		C358.8,87.3,367.9,72.4,368.8,55.5z M138.1,269.8l0,11.4c0,17.4,0,35.4,0,53.1c-0.1,14.5-11.3,25.8-25.5,25.8c0,0,0,0-0.1,0
		c-14.3,0-25.5-11.4-25.6-26.1c0-4.8,0-9.7,0-14.5c0-0.7,0-1.4,0-2.1c0,0,0-0.1,0-0.1c0-1.8,0-3.5,0-5.3c0-3.3,0-6.6,0-9.9l0-9.3
		c0-7.6,0-15.3,0-22.9c0-0.8,0-1.5,0.1-2.2c0.6-4.8,3.5-7,8.9-7c12.2,0,23.1,0,33.3,0C135.2,260.8,138.1,263.8,138.1,269.8z
		 M126.1,231.6c0,4.3,0.1,8.8-0.1,13.2c-0.2,4.2-3,7-7.5,7.1c-2,0.1-4.1,0.1-6.1,0.1c-2,0-4.1,0-6-0.1c-4.4-0.2-7.3-2.9-7.5-7.2
		c-0.2-4.4-0.1-8.9-0.1-13.2c0-1.8,0-3.7,0-5.5v-1.7h27.2v1.7C126.1,228,126.1,229.8,126.1,231.6z M215.7,118.3l-0.1,1.5h-13.8
		l-0.2-1.5c-0.3-2.7-0.6-5.5-0.8-8.2c-0.5-5.7-1.1-11.6-2.3-17.2C189.7,52,152.1,23,109,24.1c-40.7,1-76.6,32.4-83.5,72.9
		c-0.8,4.5-1.2,9-1.3,13.4c-0.3,14.8,3,29.3,9.7,42.4c2,3.9,4.3,7.7,7,11.3c13.9,19.3,34.8,32,58.7,35.7c43.9,6.8,87-21.7,98.1-64.8
		c1-3.9,2.8-7.3,8.8-6.4c1.2,0.2,2.4,0.1,3.8,0.1c0.7,0,1.4-0.1,2.2-0.1h1.9l-0.3,1.9c-6.9,43.2-46.7,85.4-101.2,85.4
		c-4.5,0-9.1-0.3-13.8-0.9c-27.4-3.5-51.8-17.5-68.7-39.4c-14.3-18.6-21.8-41-21.6-64.2c0-4.3,0.3-8.6,0.9-13
		c3.6-27.3,17.8-51.7,40-68.6c1-0.7,2-1.5,3-2.2c0.6-0.5,1.3-0.9,2-1.4C76,12.1,101.3,6.2,126.6,9.8c27.4,3.9,51.6,18,68.1,39.6
		C210,69.4,217.6,94.5,215.7,118.3z M177,119.8v-11.5h-32.9v2.2c0,5.7,0,11.3,0,17c0,17.3,0,35.2,0.1,52.7c0,4.3-1.6,6.5-5.5,7.3
		c-1.7,0.4-3.3,0.9-5.1,1.4c-0.8,0.3-1.7,0.5-2.6,0.8l-2.1,0.6V48.4H96.3v140.8l-1.3,0.3c-0.3,0.1-0.5,0.1-0.6,0.1
		c-0.3,0.1-0.6,0.1-1.1,0c-11.8-2.6-12.4-3.4-12.4-15.5V84.2H48.3v73.1l-2.9-3.7c-13.9-17.6-18.4-52.7-1.9-81
		c19.5-33.3,60.9-48.4,96.4-35c38.4,14.5,55.3,52.5,51.7,80.8l-0.2,1.4H177z M191.4,129c0,0-3.1,11.3-4.9,15.4
		c-2,4.5-10.3,19.2-10.3,19.2L177,129H191.4z M168.2,165c0,3.3-1,5.6-3.5,7.4c-2,1.5-3.9,3-6,4.6c-0.9,0.7-1.9,1.5-3,2.3l-2.7,2.1
		v-64.5h15v9.2c0,3.4,0,6.8,0,10.2C168.1,145.7,168.1,155.5,168.2,165z M119.9,56.9v134.8h-14.8V56.9H119.9z M71.9,92.9v88.8
		l-2.7-2.2c-1.1-0.9-2.1-1.7-3.1-2.5c-2.7-2.2-5.3-4.2-7.7-6.4c-1.1-1-1.6-2.8-1.6-4.2c0-22.2,0-44.7,0-66.5l0-3.9
		c0-0.4,0.1-0.7,0.1-1.1c0-0.2,0.1-0.4,0.1-0.6l0.2-1.4H71.9z M316.4,152.8c0,0,0.1,0,0.1,0c24,0,43.6,19.5,43.7,43.5
		c0.1,24.1-19.4,43.7-43.5,43.8c0,0-0.1,0-0.1,0c-11.6,0-22.5-4.5-30.7-12.7c-8.3-8.2-12.9-19.2-12.9-30.8
		C272.8,172.5,292.3,152.9,316.4,152.8z M316.6,96.1C316.5,96.1,316.5,96.1,316.6,96.1c-24.1,0-43.7-19.5-43.7-43.6
		c0-24.1,19.5-43.7,43.6-43.7c0,0,0.1,0,0.1,0c24,0,43.6,19.5,43.6,43.6c0,11.6-4.5,22.6-12.8,30.8S328.2,96,316.6,96.1z"/>
	<path class="st0" d="M309.3,264.1c-11.3,0-22.6,0-34,0l-20.5,0v-1.7c0-1,0-1.9,0-2.8c0-1.9,0-3.5,0-5.2c0.1-6.1-2.3-10.3-7.4-12.9
		c-5.1-2.5-10-1.8-15,2.1c-1.4,1.1-2.8,2.2-4.2,3.2c-3.1,2.3-6.3,4.8-9,7.5c-7.5,7.6-16.3,10.7-27.4,9.9c-0.6,0-1.1-0.1-1.6-0.1
		c-4.3,0-8,1.3-10.8,3.9c-3.4,3.1-5.2,8-5.2,13.6c0,23.9,0,47.2,0,69.3c0,10.9,6.7,17.6,17.5,17.6c39.8,0,79.4,0,117.7,0
		c10.6,0,17.5-6.8,17.5-17.3c0-23.6,0-47.2,0-70.1C326.8,270.9,319.9,264.1,309.3,264.1z M318.1,282c0,23,0,46,0,69
		c0,6.3-2.8,9.1-9.2,9.1c-19.5,0-39,0-58.5,0s-39,0-58.5,0c-6.3,0-9.1-2.8-9.1-9.1c0-23,0-46,0-69c0-6.3,2.8-9.1,9.1-9.2
		c0.6,0,1.2,0,1.8-0.1c1.6-0.1,3.2-0.1,4.8,0.1c7.7,1.2,14.3-1.2,20.8-7.3c4.4-4.2,9.3-7.9,14.1-11.5c1.4-1.1,2.8-2.1,4.2-3.2
		c0.9-0.7,3.8-2.4,5.7-1.3c1.7,1,2.7,3.4,2.8,5.3c0.1,4.7,0.1,9.3,0.1,14.2c0,1.2,0,2.5,0,3.8l18.8,0c14.6,0,29.1,0,43.7,0
		c1.7,0,3.1,0.2,4.3,0.5C316.5,274.4,318.1,277.1,318.1,282C318.1,282,318.1,282,318.1,282L318.1,282z"/>
	<rect x="288.4" y="120.3" class="st0" width="8.3" height="8.2"/>
	<rect x="312.3" y="120.4" class="st0" width="8.3" height="8.2"/>
	<rect x="336.4" y="120.3" class="st0" width="8.2" height="8.4"/>
	<polygon class="st0" points="335.6,32.2 303.3,65.2 297.1,57 291.2,62.4 304.5,75.6 341.6,38.5 	"/>
	<polygon class="st0" points="341.4,182.7 336,176.6 303.3,209.4 297,200.9 291.2,206.4 304.4,219.7 	"/>
	<rect x="222.3" y="288.3" class="st0" width="80.2" height="8.2"/>
	<rect x="222.3" y="312.2" class="st0" width="80.3" height="8.3"/>
	<rect x="222.4" y="336.3" class="st0" width="80.2" height="8.2"/>
	<rect x="198.4" y="288.2" class="st0" width="8.2" height="8.4"/>
	<rect x="198.3" y="312.2" class="st0" width="8.2" height="8.3"/>
	<rect x="198.3" y="336.4" class="st0" width="8.3" height="8.2"/>
</g>
</svg>
