<?xml version="1.0" encoding="utf-8"?>
<!-- Generator: Adobe Illustrator 23.0.1, SVG Export Plug-In . SVG Version: 6.00 Build 0)  -->
<svg version="1.1" id="Layer_1" xmlns="http://www.w3.org/2000/svg" xmlns:xlink="http://www.w3.org/1999/xlink" x="0px" y="0px"
	 viewBox="0 0 381.3 301" style="enable-background:new 0 0 381.3 301;" xml:space="preserve">
<style type="text/css">
	.st0{fill:#9A9A9A;}
</style>
<path class="st0" d="M5.4,225.5L5.4,225.5c2.1-0.8,2.8-2.3,2.6-5.6c0-0.7,0-1.3,0-1.9c0-0.3,0-0.5,0-0.8v-149h264.5l0,30.6
	c0,29.1,0,59.1,0,88.7c0,1.8,0.1,4.1,0.7,6.1c2.1,6.8,4.4,13.7,6.7,20.4l0.2,0.6c1.3,3.8,3.9,5.9,7.4,6l0.2,0c3.6,0,6.2-2.1,7.5-6
	c0.4-1.1,0.8-2.3,1.2-3.4c1.5-4.3,3.1-8.8,4.2-13.2c1-3.8,2.1-8.4,2.1-12.7c0.1-28.5,0.1-57.3,0.1-85.2c0-8.6,0-17.2,0-25.8l0-6H373
	V70c0,0.9,0,1.7,0,2.5l0,0.2c0,1.9,0,3.8,0,5.6c0.1,2.4,1.7,4.1,3.8,4.1c0,0,0,0,0.1,0c2.1,0,3.7-1.7,3.8-4.3c0-0.5,0-1,0-1.4l0-0.7
	l0-13.7c0-10.2,0-20.3,0-30.5c0-19.2-12.4-31.6-31.5-31.6c-46.5,0-93,0-139.5,0l-16.5,0l-0.5,0c-1.1,0-2,0-2.9,0.1
	c-2,0.3-3,1.4-3.1,3.5c-0.1,2.1,0.8,3.3,2.7,3.8c1.4,0.3,3.1,0.3,4.6,0.3h0.2c41.3,0,82.6,0,123.8,0l28.8,0c0.4,0,0.8,0,1.2,0l0.2,0
	c1.1,0,2.6,0,4,0c11.8,0.6,20.6,9.6,20.7,21.4c0.1,5.1,0.1,10.2,0,15.2l0,0.2c0,2.3,0,4.5,0,6.8V60h-70.3v-1.8c0-2.1,0-4.3,0-6.4
	c0-5.3,0.1-10.3-0.1-15.4c-0.1-3.1-0.7-5.9-1.6-8c-2.7-6.1-9.8-9.6-16.4-8.1c-7.1,1.6-11.9,7.3-12.1,14.2
	c-0.1,5.4-0.1,10.9-0.1,16.3c0,2.4,0,4.9,0,7.3V60H8v-1.8c0-2.6,0-5.1,0.1-7.6C8.2,45,8.3,39.8,7.9,34.5C7.3,26.6,9.3,20,13.8,15.3
	c4.7-5,11.9-7.6,20.8-7.5C65.5,8.3,96.8,8.2,127,8.1l0.5,0C139,8,150.8,8,162.4,8h0.2c1.6,0,3.2,0,4.6-0.3c1.9-0.4,2.8-1.6,2.8-3.7
	c0-2-1-3.2-3-3.6c-0.8-0.2-1.6-0.2-2.5-0.2h-0.1c-44.6,0-89.2,0-133.9,0c-0.8,0-1.8,0-2.9,0.1C14.8,1.2,4.2,10.2,1.1,22.7
	c-0.2,0.7-0.4,1.4-0.6,2l-0.2,0.6v197.9C2.1,225.7,3.4,226.3,5.4,225.5z M287.6,212.6l-5.8-17.3h11.5L287.6,212.6z M294.7,187.2
	h-14.3v-56.4h14.3V187.2z M294.7,122.6h-14.2V48.7h14.2V122.6z M284.1,28.9c2.1-1,5.3-0.8,7.4,0.3c4.1,2.1,3.7,6.2,3.3,9.5l-0.2,1.9
	h-14l-0.2-1.5C280.1,36.1,279.4,31.1,284.1,28.9z"/>
<path class="st0" d="M380.6,152l0-0.1c0.1-14.2,0.1-30.2,0.1-45.8c0-0.3,0-0.7,0-1c0-0.8,0-1.5,0-2.2c-0.2-2.3-1.7-3.9-3.8-4
	c0,0,0,0-0.1,0c-2.1,0-3.7,1.7-3.9,4.1c0,0.7,0,1.5,0,2.2c0,0.3,0,0.7,0,1l0,159l0,1.8c0,1.5,0,3.1,0,4.7c-0.3,9.7-7,18-16.1,20.2
	c-3.1,0.7-6.3,0.8-9.3,0.8c-75,0-286.4,0-313.9,0c-1.7,0-3.5,0-5.4-0.2c-11.8-1-20.1-10-20.2-21.9C8,263.4,8,256,8,248.5
	c0-3.4-0.3-4.9-2.5-5.8c-2.1-0.8-3.3,0-5.2,2.1v30.6l0.3,1.1c0.3,1,0.6,1.9,0.9,2.9c3.5,11.8,13.6,20,25.8,20.9
	c3.8,0.3,7.7,0.3,11.2,0.3h1.1c28.2,0,56.4,0,84.6-0.1l1.6,0c25.5,0,51.8-0.1,78-0.1c55.3,0,99.8,0.1,139.9,0.4
	c12.3,0.1,21.8-3.2,28.2-9.7c6.3-6.4,9.4-15.7,9.2-27.5C380.4,226.4,380.5,188.6,380.6,152z"/>
<path class="st0" d="M58,248.3L58,248.3c0.7,0.1,1.6,0.1,2.4,0.1l1,0l129.3,0l129.3,0c0.3,0,0.7,0,1,0c0.8,0,1.7,0,2.5-0.1
	c2.1-0.3,3.1-1.3,3.3-3.3c0.2-2.1-0.6-3.3-2.5-3.9c-1.2-0.4-2.7-0.4-3.9-0.4c-83,0-170.3,0-259.4,0c-1.3,0-2.8,0-3.9,0.4
	c-1.9,0.6-2.7,1.9-2.5,3.9C54.9,246.9,56,248,58,248.3z"/>
<path class="st0" d="M59.4,183.6c-0.5,0-0.9,0-1.2,0.1c-2.4,0.5-3.4,1.7-3.4,4c0.1,2.1,1.1,3.3,3.4,3.6h0c0.7,0.1,1.5,0.1,2.4,0.1
	c0.4,0,0.7,0,1.1,0l102.7,0l61.8,0c0.3,0,0.6,0,0.9,0c0.8,0,1.5,0,2.2-0.1c2.4-0.3,3.5-1.5,3.7-3.8c0.1-2-1.4-3.6-3.7-3.9
	c-0.6-0.1-1.2-0.1-1.9,0l-0.1,0c-0.3,0-0.6,0-0.9,0c-55.1,0-110.2,0-165.3,0c-0.3,0-0.6,0-0.8,0l-0.1,0
	C59.9,183.6,59.6,183.6,59.4,183.6z"/>
<path class="st0" d="M58.1,219.8L58.1,219.8c0.8,0.1,1.6,0.1,2.5,0.1c0.3,0,0.6,0,1,0c19,0,38,0,57,0h50.3c19.1,0,38.2,0,57.3,0
	c0.3,0,0.6,0,1,0c0.9,0,1.7,0,2.5-0.1c2.2-0.4,3.3-1.6,3.4-3.7c0.1-2.1-0.9-3.3-3.1-3.9c-0.7-0.2-1.6-0.2-2.5-0.1l-0.1,0
	c-0.2,0-0.5,0-0.7,0c-55.1,0-110.2,0-165.3,0c-0.3,0-0.6,0-0.9,0c-0.3,0-0.6,0-0.8,0c-0.5,0-1,0-1.6,0.1c-2.2,0.5-3.2,1.8-3.1,3.9
	C54.8,218.3,55.9,219.4,58.1,219.8z"/>
<path class="st0" d="M71,156.8c4.3,0,8.7,0,12.6,0l5.5,0c1.9,0,3.8,0,5.7,0l0.2,0c4.3,0,8.7,0,13,0c4.8-0.1,7.4-2.5,7.5-7
	c0.2-13.1,0.2-26.2,0-38.9c-0.1-4.3-2.7-6.7-7.2-6.8c-12.1-0.1-24.4-0.1-37.8,0c-4.8,0-7.4,2.6-7.5,7.3c-0.1,12.2-0.1,24.9,0,37.8
	C63,154.3,65.6,156.8,71,156.8z M70.8,112.1h36.9v36.6H70.8V112.1z"/>
<path class="st0" d="M145.7,162.8c10.7,0.1,22.1,0.1,31.2,0.1l31,0h0.3c1.9,0,3.9,0,5.8,0l0.2,0c4.8,0,9.8,0,14.6-0.1
	c2.4,0,4.1-1.6,4.2-3.8c0-2.2-1.6-3.7-4.1-3.9c-0.4,0-0.9,0-1.3,0l-0.8,0h-21.3c-19.6,0-39.3,0-58.9,0c-0.4,0-0.7,0-1.2-0.1
	c-0.7-0.1-1.1-0.1-1.3,0l-0.2,0.1c-1.1,0.7-3.1,1.9-3.3,2.8c-0.3,0.9,0.4,2.9,1.2,3.9C142.2,162.3,143.6,162.8,145.7,162.8z"/>
<path class="st0" d="M144.1,134.3L144.1,134.3c0.6,0.1,1.3,0,2,0c0.3,0,0.6,0,0.9,0l66.7,0c1.4,0,2.9,0,4.3,0
	c3.6,0.1,7.3,0.1,10.9-0.2c1.2-0.1,3.1-1.4,3.6-2.5c0.3-0.7,0-2.8-0.8-3.8c-0.5-0.6-2.3-1.2-4-1.2c-10.4-0.1-21.3-0.1-31-0.1h-3.5
	c-2.1,0-4.2,0-6.3,0l-5.9,0l-23.7,0c-1.2,0-2.5,0-3.7,0l-0.2,0c-3,0-6.1,0-9.1,0.1c-2.3,0.1-3.8,1.5-3.9,3.6
	C140.1,132.5,141.7,134.1,144.1,134.3z"/>
<path class="st0" d="M227.6,97.7L227.6,97.7c-9.9,0-19.5,0-30.2,0l-34,0c-6,0-11.9,0-17.9,0c-4.6,0-5.3,2-5.3,3.7
	c0,1.1-0.1,3.9,5.4,4c0.3,0,0.7,0,1,0l0.4,0l18.7,0c20.1,0,40.2,0,60.3,0c1.5,0,2.9,0,4-0.3c1-0.3,1.9-0.9,2.4-1.8
	c0.5-0.9,0.6-1.9,0.2-2.9C232,98.5,230.7,97.7,227.6,97.7z"/>
<path class="st0" d="M35.2,44.9c3,3,6.9,4.7,11.1,4.7l0.1,0c8.8,0,15.8-6.9,15.9-15.7c0.1-8.7-6.9-15.9-15.7-16.1
	c-4.2-0.1-8.2,1.5-11.2,4.5c-3,3-4.7,7-4.8,11.2C30.6,37.9,32.2,41.9,35.2,44.9z M40.9,28c1.6-1.5,3.6-2.3,5.8-2.3
	c4.3,0.1,7.8,3.7,7.9,8.1c0,4.4-3.4,8-7.7,8.1c-0.1,0-0.2,0-0.3,0c-2.1,0-4.1-0.8-5.6-2.2c-1.6-1.5-2.4-3.5-2.4-5.8
	C38.5,31.7,39.3,29.5,40.9,28z"/>
<path class="st0" d="M89.3,49.6c4.3,0,8.3-1.7,11.2-4.6c3-3,4.6-7,4.6-11.2c0-4.2-1.7-8.2-4.7-11.2c-3-3-7-4.6-11.1-4.6
	c-4.2,0-8.2,1.7-11.2,4.7c-3,3-4.6,7-4.6,11.2C73.4,42.7,80.4,49.6,89.3,49.6z M89.2,25.7c2.2,0,4.2,0.9,5.7,2.4
	c1.6,1.6,2.4,3.7,2.3,5.9c-0.1,4.5-3.6,7.8-8,7.8h0c-2.2,0-4.3-0.9-5.8-2.4c-1.5-1.6-2.3-3.6-2.3-5.9C81.3,29.3,84.9,25.7,89.2,25.7
	z"/>
<path class="st0" d="M131.9,17.9c-4.1,0-7.9,1.6-10.9,4.5c-3,3-4.8,6.9-4.8,11.2c-0.1,4.3,1.5,8.3,4.5,11.3c2.9,3,6.9,4.7,11.1,4.7
	c0.1,0,0.1,0,0.2,0c8.8,0,15.7-6.8,15.9-15.6c0.1-8.7-6.8-16-15.6-16.1C132.1,17.9,132,17.9,131.9,17.9z M140,34.1
	c-0.1,4.4-3.6,7.8-8,7.8c-4.5,0-7.9-3.4-8-7.8c-0.1-2.2,0.8-4.3,2.3-5.9c1.5-1.6,3.5-2.4,5.7-2.4c2.2,0,4.2,0.9,5.7,2.4
	C139.3,29.7,140.1,31.8,140,34.1z"/>
</svg>
