<?xml version="1.0" encoding="utf-8"?>
<!-- Generator: Adobe Illustrator 23.0.1, SVG Export Plug-In . SVG Version: 6.00 Build 0)  -->
<svg version="1.1" id="Layer_1" xmlns="http://www.w3.org/2000/svg" xmlns:xlink="http://www.w3.org/1999/xlink" x="0px" y="0px"
	 viewBox="0 0 384 384" style="enable-background:new 0 0 384 384;" xml:space="preserve">
<style type="text/css">
	.st0{fill:#808080;stroke:#808080;stroke-width:2;stroke-miterlimit:10;}
</style>
<g>
	<path class="st0" d="M67.4,350.8c-3,0-5.3,0-8.2,0c0-6.1,0-12,0-18c0-13.1-4.9-18-18-18c-5.9,0-11.7,0.1-17.6-0.1
		c-2.9-0.1-3.8,1-3.7,3.8c0.1,9.1,0.1,18.2,0,27.4c0,1.5,0,3,0,4.7c-2.7,0-5.1,0-8.2,0c0-1.5,0-3,0-4.6c0-21.4,0-42.8,0-64.1
		c0-19,11.6-33.4,30.2-37.2c10.4-2.1,20.9-3.6,31.4-5.4c12.9-2.2,19.3-9.9,18.8-22.9c-0.1-1.6-0.8-3.5-1.9-4.6
		c-8.2-8.6-14.4-18.4-18.5-29.6c-0.6-1.6-2.1-3.1-3.6-3.9c-10.6-5.7-16.4-14.4-17.2-26.4c-0.3-4.1-0.2-8.2-0.1-12.2
		c0.1-8.2,3.8-12.2,11.9-13.2c0.7-0.1,1.3-0.2,2.6-0.4c-0.9-1.8-1.7-3.3-2.5-4.7c-6.9-12.3-12.1-25-11.6-39.5
		c0.5-16.5,8.2-28.4,22.9-35.8c2.3-1.2,4.5-3,6.1-5c13.9-17.8,32.8-25,54.5-26c15.1-0.7,29.9,1.8,44.1,7.1c1.9,0.7,4.4,2.8,4.4,4.3
		c0,1.6-2.3,3.5-4,4.8c-1.8,1.4-4,2.3-6,3.5c-0.7,0.4-1.3,1-2.4,1.9c1.6,0.8,2.8,1.5,4,2.1c9.7,4.7,18.9,10.4,26.1,18.6
		c9.5,10.7,12.8,23.2,10.2,37.2c-1.8,10.1-6.2,19.1-11.4,27.8c-0.6,0.9-1.1,1.9-1.6,2.8c-0.1,0.2,0,0.5,0,0.8
		c0.2,0.2,0.3,0.5,0.5,0.5c10.4,1.3,13.3,4.6,13.3,15.1c0,3,0,6,0,9c-0.2,12.4-6,21.6-16.8,27.5c-2.5,1.4-3.9,3-4.8,5.6
		c-3.5,10.2-9.1,19.2-16.6,26.9c-2.5,2.6-3.4,5-3.2,8.6c0.6,10.7,6.6,18.1,17.4,20.1c10.3,1.9,20.7,3.4,31,5.3
		c14.9,2.8,25.7,10.8,30.5,25.6c1.1,3.4,1.6,7.2,1.6,10.8c0.1,22.5,0.1,44.9,0.1,67.4c0,0.8-0.2,1.6-0.3,2.5c-2.6,0-5,0-7.9,0
		c0-3.8,0-7.4,0-11.1c0-7.2,0-14.4,0-21.6c0-2.1-0.5-3.3-3-3.3c-7.5,0.1-15-0.2-22.5,0.1c-8.7,0.3-14,6.1-14,14.8
		c-0.1,6.7-0.1,13.3-0.1,20c0,0.2-0.2,0.5-0.4,1c-2.3,0-4.7,0-7,0c0-9.4-1-18.8,0.3-27.9c1.3-9.5,11.1-15.9,21.5-16.1
		c7.2-0.1,14.4-0.1,21.6,0c2.7,0,3.6-0.9,3.5-3.5c-0.1-7.5,0.1-15-0.1-22.5c-0.4-13.5-8.1-24.1-21.2-27.2c-12.3-3-24.9-4.7-37.4-6.7
		c-1.3-0.2-3.2,1.2-4.4,2.3c-9,7.9-18.6,14.6-30.1,18.5c-18.3,6.2-35.5,3.1-51.6-7c-5.7-3.6-10.8-8.2-16.4-12.2
		c-1.4-1-3.4-1.6-5-1.4c-10.2,1.5-20.4,3.6-30.6,5C33.2,253.9,18.9,264,20,283.3c0.4,6.7,0.1,13.3,0,20c0,2.5,0.8,3.4,3.3,3.3
		c6.9-0.1,13.9-0.1,20.8,0c13.5,0.1,22.9,9.2,23.2,22.7C67.5,336.3,67.4,343.4,67.4,350.8z M189.4,137.1l0-0.2c0-8.9,0-17.8,0-26.8
		c0-3.7-1.5-5.2-5.6-4.5c-17.9,2.8-35.2,0.9-52-6.3c-9.9-4.2-20.2-7.5-31.1-8c-12.2-0.6-20.3,4.6-23.8,16.2
		c-1.8,5.9-2.9,12.3-2.9,18.4c0.1,11.7,1,23.4,2.1,35c2.7,28.9,17.6,49.1,44.2,60.7c7.5,3.3,15.1,3.3,22.6,0
		c25.1-10.8,39.9-29.6,43.7-56.6C187.8,156.1,189.2,138.4,189.4,137.1z M66.3,110.2c0.3,0,0.7-0.1,1-0.1c0.2-0.8,0.5-1.5,0.7-2.3
		c5.2-17.7,16.5-25.7,35-24.4c11.3,0.8,21.9,4.2,32.2,8.6c15.1,6.5,30.6,8.1,46.8,5.8c10.1-1.4,11.9-0.2,15.3,9.4
		c0.1,0.2,0.4,0.2,0.6,0.3c9.5-14.4,7.7-33.8-4.3-46.3c-8-8.3-17.9-13.6-28.4-18c-5.5-2.3-6.3-5.3-2.6-10c1.6-2.1,3.5-3.9,5.3-5.8
		c-6.8-3-22.7-5.1-34.5-4.3c-20.2,1.4-37.2,8.6-48.9,26c-1,1.5-3.1,2.6-4.9,3.4c-7.4,3.2-13.5,7.8-16.9,15.3
		C56.1,82.5,60.1,96.5,66.3,110.2z M88.3,242.3c26.8,25.9,58.8,27.1,86.4,0c-7.2-5.3-11.5-12.4-12.2-22.6
		c-20.9,16.7-41.3,16.1-61.8,0.4C99.7,230.1,95.6,237,88.3,242.3z M68.2,168.6c-0.7-10.7-1.2-20.3-1.9-29.9c-0.1-2,0.3-4.2-3-4.1
		c-2.9,0.1-4.3,1.5-4.3,4.3c0,4.9-0.1,9.8,0.3,14.6C59.9,159.3,62.8,164.1,68.2,168.6z M197,134.8c-0.7,11-1.5,21.9-2.3,33.9
		c5.9-5.1,8.7-10.5,9.1-17.1c0.2-3.8,0.1-7.6,0-11.4C203.8,135.2,202.8,134.4,197,134.8z"/>
	<path class="st0" d="M269,228.1c-2.7,0-4.8,0.1-7,0c-10.4-0.3-16.6-6.3-16.7-16.7c-0.1-22.1-0.1-44.1,0-66.2
		c0.1-10.5,6.4-16.6,17-16.6c21-0.1,41.9,0,62.9,0c1.4,0,2.9,0,4.3,0c0.1-0.3,0.3-0.7,0.4-1c-5.2-4.4-10.4-8.9-15.8-13.1
		c-0.9-0.7-2.6-0.4-4-0.4c-15.5,0-31,0-46.6,0c-12.6,0-18.5-6-18.5-18.6c0-20.8,0-41.7,0-62.5c0-12.4,6.2-18.6,18.6-18.6
		c32.3,0,64.5,0,96.8,0c12.7,0,18.8,6.1,18.8,18.8c0,20.7,0,41.4,0,62.1c0,12.9-5.8,18.9-18.7,18.7c-4-0.1-5.3,1.2-4.9,5.1
		c0.3,2.9,0.1,5.9,0.1,9.6c2.4,0,4.4,0,6.4,0c10.8,0.1,17,6.2,17.1,17c0.1,13.3,0,26.7,0,40c0,8.3,0.1,16.6,0,24.9
		c-0.1,11.3-6.2,17.5-17.5,17.5c-15.5,0.1-31,0.1-46.6,0c-3.4,0-5.9,1-8.4,3.2c-9.9,8.5-20,16.9-30.1,25.1c-1.4,1.2-4.1,2-5.7,1.4
		c-1.2-0.4-2.1-3.3-2.1-5.1C268.9,244.7,269,236.7,269,228.1z M277.2,245.4c2-1.5,3.1-2.3,4.1-3.1c7.8-6.5,15.6-13.2,23.6-19.5
		c1.9-1.5,4.8-2.6,7.3-2.7c15.9-0.2,31.9-0.1,47.8-0.1c9.3,0,11.4-2.1,11.4-11.2c0-20.3,0-40.6,0-60.9c0-8.9-2.2-11.1-11.1-11.1
		c-2.6,0-4.2,0.2-4.4,3.6c-0.3,4.1-3.6,5.3-7,2.8c-2.1-1.5-3.9-3.4-6.1-4.8c-1-0.7-2.4-1.4-3.7-1.4c-25.7-0.1-51.5-0.1-77.2,0
		c-5.6,0-8.3,2.9-8.4,8.4c-0.1,22.1-0.1,44.1,0,66.2c0,5.5,2.9,8.2,8.4,8.5c3,0.1,6,0,9,0.1c5,0.1,6.2,1.3,6.3,6.4
		C277.2,232.3,277.2,238.3,277.2,245.4z M347.9,131.7c0-7.6,0-14,0-20.4c0-3.5,1.6-5.3,5.2-5.3c2.6,0,5.2,0,7.8,0
		c8,0,10.5-2.5,10.6-10.5c0-20.7,0-41.4,0-62.1c0-8.4-2.3-10.8-10.6-10.8c-32.3,0-64.5,0-96.8,0c-7.8,0-10.4,2.5-10.4,10.2
		c0,21,0,41.9,0,62.9c0,7.6,2.7,10.2,10.4,10.2c14,0,28.1,0.5,42.1-0.2c8.2-0.4,14.3,2.1,20,7.5C332.6,119.5,339.9,125,347.9,131.7z
		"/>
	<path class="st0" d="M131.5,175.7c8.1,0,16.3-0.1,24.4,0.1c1.8,0.1,4.4,1,5.1,2.3c0.7,1.3-0.1,4.2-1.2,5.3
		c-5.1,5-10.1,10.3-16,14.2c-9.1,6-20.5,4.4-30.2-3.5c-3.8-3-7.1-6.7-10.3-10.4c-1.1-1.3-2.1-4.1-1.4-5.3c0.8-1.5,3-2.5,5.2-2.8
		c0.1,0,0.3,0,0.4,0C115.5,175.7,123.5,175.7,131.5,175.7z M147.8,184.2c-11.1,0-21.7,0-32.5,0C123.8,195.4,138.3,195.5,147.8,184.2
		z"/>
	<path class="st0" d="M110.4,127.3c4.7,0,9.1,1.9,12.6,4.1c1.3,0.8,2.7,3.1,2.4,4.7c-0.4,2.5-2.9,3.7-5.2,2.6
		c-6.6-3.1-13-2.9-19.7,0c-1.2,0.5-3.7-0.8-4.2-2c-0.5-1.3-0.9-3.7,1.1-4.9C101.4,129.3,105.8,127.3,110.4,127.3z"/>
	<path class="st0" d="M328.4,192.2c-9,0-17.3-0.1-25.5,0.1c-0.8,0-2.2,1.7-2.3,2.7c-0.3,3,0.3,6.1-0.3,8.9c-0.4,1.7-2.1,4-3.7,4.3
		c-2.6,0.6-4.2-1.6-4.2-4.2c0-10.2-0.4-20.5,0.4-30.6c0.7-10.2,10.2-18.4,20.4-19c10.4-0.6,20,6.4,22.5,16.5c0.6,2.5,0.9,5.1,1,7.7
		c0.1,7.8,0,15.5,0.1,23.3c0,3.1-0.1,6.5-4.3,6.5c-4,0-4-3.3-3.9-6.3C328.5,199.1,328.4,196,328.4,192.2z M328.9,184
		c-0.6-4.7-0.7-8.9-1.8-12.8c-1.5-5.2-5.9-7.7-11.1-8.3c-5.1-0.7-9.5,1.2-12.6,5.2c-3.2,4.1-3.2,9.1-2.8,14.1
		c0.1,0.7,1.4,1.7,2.1,1.7C311.1,184.1,319.5,184,328.9,184z"/>
	<path class="st0" d="M292.3,63.3c-0.7-7.8,1.4-15.7,8.9-21.4c12.4-9.5,31.1-3.2,34.4,12c2,9.1,2.4,18.4-2.3,27.1
		c-0.5,0.9,0,2.9,0.8,3.8c2,2.4,3.6,4.9,0.8,7.4c-2.8,2.4-4.9,0.2-7-1.7c-0.9-0.8-2.7-1.5-3.6-1.1c-16.6,7.4-33.3-5.2-32-23
		C292.3,65.7,292.3,65,292.3,63.3z M326.6,75.9c2.8-6.6,2.3-12.9,1.4-19c-1-6.9-7.1-11.6-13.7-11.5C307.6,45.6,301.9,50,301,57
		c-0.7,4.9-0.8,10.1,0,15c1.5,9.2,10.9,13.8,19.1,9.5c-1.4-1.8-2.8-3.6-4.1-5.4c-1.4-2-1.7-4.1,0.4-5.8c2.1-1.6,4.1-1.1,5.8,0.7
		C323.5,72.5,324.8,74,326.6,75.9z"/>
	<path class="st0" d="M152.9,128.4c4.7,0,9.1,1.9,12.6,4.1c1.3,0.8,2.7,3.1,2.4,4.7c-0.4,2.5-2.9,3.7-5.2,2.6
		c-6.6-3.1-13-2.9-19.7,0c-1.2,0.5-3.7-0.8-4.2-2c-0.5-1.3-0.9-3.7,1.1-4.9C143.9,130.4,148.3,128.5,152.9,128.4z"/>
</g>
</svg>
