<?xml version="1.0" encoding="utf-8"?>
<!-- Generator: Adobe Illustrator 23.0.1, SVG Export Plug-In . SVG Version: 6.00 Build 0)  -->
<svg version="1.1" id="Layer_1" xmlns="http://www.w3.org/2000/svg" xmlns:xlink="http://www.w3.org/1999/xlink" x="0px" y="0px"
	 viewBox="0 0 384 384" style="enable-background:new 0 0 384 384;" xml:space="preserve">
<style type="text/css">
	.st0{fill:#808080;}
</style>
<g>
	<path class="st0" d="M299.7,192.2c0.2-8.8,0.2-16.8,0-24.5c0-1.3-0.6-2.5-1.5-3.3c-1-0.9-2.3-1.4-3.7-1.3c-2.8,0.2-4.6,2.3-4.6,5.4
		c-0.1,3.3,0,6.7,0,9.9c0,1.5,0,2.9,0,4.4v4h-26v-4c0-1.5,0-3,0-4.5c0-3.4,0-6.5,0-9.7c-0.1-3.3-2.1-5.5-5-5.5c0,0,0,0,0,0
		c-3,0-4.9,2.2-4.9,5.6c-0.1,6.9-0.1,14.3,0,22.4c0,4.1,1.9,5.9,6.2,5.9c1.7,0,3.5,0,5.2,0l6.6,0l0,14.5c0,17.1,0,33.2-0.1,49.7
		c0,2.8-2.3,5.5-4.5,6.6c-5.3,2.8-9,6.4-11.1,11.2c-1.5,3.3-3.9,4.8-7.5,4.8c0,0-0.1,0-0.1,0c-7.5-0.1-15.1-0.1-22.4-0.1
		c-2.6,0-5.3,0-7.9,0h-20.4v-4c0-0.5,0-1,0-1.4c0-0.8,0-1.4,0-2.1c-0.4-11.6-8.9-21-20.3-22.3c-3.5-0.4-7.1-0.3-10.9-0.3
		c-1.6,0-3.2,0.1-4.8,0c-4.6,0-9.1,0-13.7,0l-10,0v-20h4c1.1,0,2.2,0,3.2,0c2.2,0,4.2,0,6.3,0c15.6-0.4,28-12.8,28.2-28.3
		c0.2-15.6,0.2-31.7,0-49.4c-0.2-12.8-9.1-24.1-21.7-27.3c-1-0.3-2.1-0.5-3.3-0.7c-0.6-0.1-1.2-0.2-1.8-0.4l-3.1-0.7v-3.2
		c0-1.5,0-3,0-4.4c0-3.3,0-6.4,0-9.6c0-2.9-1.4-5.9-5-5.9c-3.6,0-5,3.1-5,5.9c0,3.1,0,6.4,0,9.5c0,1.4,0,2.9,0,4.3v4h-50v-4
		c0-1.5,0-2.9,0-4.3c0-3.2,0-6.2,0-9.3c0-1.4-0.4-6-4.9-6.1c-1.4,0-2.5,0.4-3.3,1.2c-1.1,1.1-1.7,2.8-1.7,4.9c0,3.2,0,6.3,0,9.5
		l0,7.2l-2.8,0.9c-0.3,0.1-0.5,0.2-0.7,0.2c-0.5,0.2-0.9,0.3-1.4,0.4c-16.6,3.6-25.1,14.1-25.1,31.2l0,7.7c0,12,0,24.1,0,36.1
		c0,18.3,12.3,30.6,30.6,30.7c1.7,0,3.4,0,5,0l6.2,0v20l-13.8,0c-3.2,0-6.4,0-9.6,0c-3.8,0-7.7,0-11.5,0c-15.3,0-24.9,9.5-24.9,24.8
		c0,24.8,0,49.5,0,74.3l0,17.6l0,0.7c0,0.8,0,1.5,0.1,2.1c0.3,2.5,2.4,4.4,4.8,4.4c2.5,0.1,4.7-1.8,5.1-4.3c0.1-0.7,0.1-1.6,0.1-2.6
		c0-0.3,0-0.6,0-0.9l0-90.7c0-10.3,5-15.4,15.3-15.4c38.4,0,76.7,0,115.1,0c10.8,0,15.6,4.9,15.6,15.8l0,90.4c0,0.3,0,0.6,0,0.9
		c0,0.9,0,1.7,0.1,2.4c0.3,2.6,2.4,4.5,4.9,4.5c0,0,0,0,0,0c2.5,0,4.6-1.9,4.9-4.5c0.1-0.7,0.1-1.5,0.1-2.4l0-0.9
		c0-18.8,0-37.7,0-56.6v-19.7h7.6c3.6,0,7.2,0,10.8,0c10.3,0,21,0,31.5-0.1c4.1,0,6.8,1.6,8.7,5.4c4.3,8.8,14.2,14,23.7,12.4
		c10.5-1.8,18-9.4,19.5-19.8c1.4-9.4-4-19.3-12.8-23.5c-3.5-1.7-5.1-4.2-5.1-8.1c0.1-13.7,0.1-27.7,0.1-41.2c0-5,0-10,0-15
		c0-0.6,0-1.3,0.1-2c0-0.3,0-0.7,0.1-1l0.2-3.8h3.8c1,0,2,0,2.9,0c2,0,3.9,0,5.7,0C297,196.9,299.6,195.6,299.7,192.2z M79.9,223.7
		c-12,0-20.1-8.1-20.2-20.1c0-15,0-30.4,0-45.7c0-12.2,7.9-20.1,20.1-20.1c8.1,0,16.2,0,24.3,0l10.6,0l10.6,0c8.1,0,16.2,0,24.3,0
		c12.2,0,20.1,7.9,20.2,20.1c0,14.9,0,30.3,0,45.7c0,12-8.1,20.1-20.1,20.1c-11.4,0-22.9,0-34.6,0S91.7,223.8,79.9,223.7z
		 M127.4,253.7H102V234h25.4V253.7z M289.7,288.9c-0.1,3.5-1.5,6.7-4,9.1c-2.5,2.4-5.6,3.7-9,3.7c-0.1,0-0.2,0-0.3,0
		c-3.5-0.1-6.7-1.5-9.1-4.1c-2.4-2.6-3.7-5.9-3.6-9.3c0.1-3.5,1.6-6.7,4.2-9.1c2.6-2.4,5.9-3.6,9.4-3.5
		C284.3,276.1,289.8,282,289.7,288.9z"/>
	<path class="st0" d="M353,7c-12.1,0-24.2,0-36.3,0L301,7l-16.1,0c-5.3,0-10.7,0-16,0c-6.9,0-13.8,0-20.7,0
		c-14.6,0-24.4,9.7-24.4,24.2c0,14.1,0,28.2,0,42.3c0,19.1,0,38.3,0,57.4c0,4,1.1,5.3,2.8,6.3c1.7,0.9,3.3,1,6.6-1.3
		c8.6-5.9,18.8-12.9,28.9-19.6c2.3-1.5,5.3-2.4,8-2.4c18.7-0.1,37.8-0.1,56.2-0.1c9,0,18,0,27,0c14.9,0,24.5-9.6,24.5-24.4
		c0-17.5,0-36.3,0-57.7C377.7,16.7,368,7,353,7z M367.7,89.1c0,9.5-5.3,14.7-14.9,14.7c-7.5,0-15,0-22.5,0c-21,0-42.7,0-64.1,0.1
		c-2.1,0-4.8,0.8-7,2.2c-4.5,2.7-8.8,5.7-13.4,8.9c-1.9,1.3-3.9,2.7-5.9,4.1l-6.2,4.2l0-30.3c0-21.6,0-42,0-62.8
		c0-7.8,5.7-13.1,14.1-13.1c14.4,0,28.9,0,43.3,0l16.3,0l13.2,0c10.7,0,21.5,0,32.2,0c9.7,0,14.8,5.1,14.8,14.7
		C367.8,50.8,367.8,70,367.7,89.1z"/>
	<path class="st0" d="M75.8,313.8C75.8,313.8,75.8,313.8,75.8,313.8c-2.8,0-4.9,2.1-5,5.2c-0.1,2-0.1,3.9,0,6c0,1,0,1.9,0,2.9
		c0,0.9,0,1.8,0,2.6c0,2,0,3.9,0,5.8c0.1,3.3,2.2,5.5,5.1,5.4c2.9-0.1,4.8-2.2,4.9-5.3c0.1-6.2,0.1-11.8,0-17.4
		C80.6,315.9,78.6,313.8,75.8,313.8z"/>
	<path class="st0" d="M119.7,327.8c0-1,0-2,0-3c0-2.1,0.1-4.1-0.1-6.1c-0.1-2.8-2.2-4.9-4.9-4.9c0,0,0,0,0,0c-2.7,0-4.8,2.1-4.9,4.9
		c-0.2,5.8-0.2,11.8,0,18.1c0.1,2.8,2.1,4.9,4.9,5c0,0,0.1,0,0.1,0c2.7,0,4.8-2.1,5-5.1c0.1-2,0.1-4,0-6.1
		C119.7,329.6,119.7,328.7,119.7,327.8z"/>
	<path class="st0" d="M153.8,313.8C153.8,313.8,153.8,313.8,153.8,313.8c-2.7,0-4.8,2.1-5,4.9c-0.1,1.9-0.1,3.9,0,5.9
		c0,0.9,0,1.9,0,2.8l0,4c0,1.8,0,3.5,0.1,5.2c0.1,2.9,2.2,5,4.8,5.1c2.8,0.1,5-2.1,5.1-5c0.2-6.2,0.2-12.3,0-18.1
		C158.6,315.9,156.5,313.8,153.8,313.8z"/>
	<path class="st0" d="M90.7,175.8c0,0-0.1,0-0.1,0c-2.6,0.1-4.8,2.4-4.8,5c0,1.3,0.5,2.6,1.5,3.5c1,0.9,2.2,1.5,3.5,1.5c0,0,0,0,0,0
		c1.3,0,2.6-0.6,3.5-1.5c0.9-1,1.5-2.2,1.4-3.5c0-1.3-0.6-2.5-1.6-3.5C93.2,176.3,92,175.8,90.7,175.8z"/>
	<path class="st0" d="M138.8,175.8L138.8,175.8C138.8,175.8,138.8,175.8,138.8,175.8c-1.4,0-2.6,0.5-3.5,1.4c-1,0.9-1.5,2.2-1.5,3.5
		c0,2.6,2.2,4.9,4.8,5c1.3,0,2.6-0.4,3.5-1.4c1-0.9,1.6-2.2,1.6-3.5c0-1.3-0.5-2.6-1.4-3.5C141.4,176.4,140.1,175.8,138.8,175.8z"/>
	<path class="st0" d="M264.9,55.8c-0.1,0-0.1,0-0.2,0c-1.2,0-2.4,0.5-3.4,1.4c-1,0.9-1.6,2.2-1.6,3.5c-0.1,2.6,2.1,4.9,4.7,5.1
		c1.3,0.1,2.6-0.4,3.6-1.3c1-0.9,1.6-2.1,1.7-3.5c0.1-1.3-0.4-2.6-1.3-3.6C267.5,56.4,266.2,55.8,264.9,55.8z"/>
	<path class="st0" d="M300.7,55.8c0,0-0.1,0-0.1,0c-2.6,0.1-4.8,2.4-4.8,5c0,1.3,0.5,2.6,1.5,3.5c1,1,2.2,1.5,3.5,1.5
		c1.3,0,2.6-0.6,3.5-1.5c0.9-1,1.5-2.2,1.4-3.5c0-1.3-0.6-2.5-1.6-3.5C303.2,56.3,302,55.8,300.7,55.8z"/>
	<path class="st0" d="M336.8,55.8L336.8,55.8C336.8,55.8,336.8,55.8,336.8,55.8c-1.3,0-2.6,0.5-3.5,1.5c-1,1-1.5,2.2-1.5,3.5
		c0,2.6,2.2,4.9,4.8,5c1.3,0,2.6-0.4,3.5-1.4c1-0.9,1.6-2.2,1.6-3.5c0-1.3-0.5-2.6-1.4-3.5C339.4,56.3,338.1,55.8,336.8,55.8z"/>
</g>
</svg>
