<?xml version="1.0" encoding="utf-8"?>
<!-- Generator: Adobe Illustrator 23.0.1, SVG Export Plug-In . SVG Version: 6.00 Build 0)  -->
<svg version="1.1" id="Layer_1" xmlns="http://www.w3.org/2000/svg" xmlns:xlink="http://www.w3.org/1999/xlink" x="0px" y="0px"
	 viewBox="0 0 384 384" style="enable-background:new 0 0 384 384;" xml:space="preserve">
<style type="text/css">
	.st0{fill:none;stroke:#808080;stroke-width:10;stroke-miterlimit:10;}
	.st1{fill:#808080;}
</style>
<g>
	<path class="st0" d="M177.9,16.8c1.6,0.4,2.7,1.5,4,2.5C200.3,34.1,218.6,49,237,63.8c2.7,2.2,2.7,5.6,0,7.8
		c-17.1,13.8-34.2,27.6-51.2,41.4c-1.8,1.4-3.5,2.8-5.2,4.2c-1.6,1.3-3.4,1.7-5.3,0.8c-1.9-0.9-2.7-2.5-2.7-4.6c0-8.1,0-16.2,0-24.4
		c0-0.4,0-0.8,0-1.4c-13.9,1.6-27,5.4-39.4,11.6C107.9,111.9,89,131,77.1,156.6c-23.9,51.2-9,112,35.7,146.4
		c44.7,34.5,107.1,33.5,150.6-2.6c23.1-19.2,37.3-43.7,42.1-73.4c4.8-29.6-0.9-57.3-16.4-83.1c10.6-7.3,21.2-14.7,31.9-22.1
		c1.2,2.1,2.5,4,3.6,6.1c9.4,16.4,15.8,33.9,19,52.5c1.2,7.1,1.9,14.2,2.2,21.4c0,0.4,0.1,0.8,0.2,1.3c0,3,0,6,0,8.9
		c-0.1,0.4-0.2,0.8-0.2,1.2c-0.3,8.7-1.3,17.3-3,25.8c-4,19.7-11.4,38.1-22.4,54.9c-19.2,29.4-45.2,50.4-78.1,62.9
		c-15,5.7-30.5,8.9-46.5,9.8c-1.6,0.1-3.3,0.2-4.9,0.4c-3,0-6,0-8.9,0c-0.4-0.1-0.7-0.2-1.1-0.2c-6.5-0.2-13-0.8-19.4-1.9
		c-17.2-2.7-33.5-8-48.8-16.1c-30.3-16.1-53.3-39.4-68.8-70c-9.9-19.5-15.3-40.2-16.6-62.1c-0.1-1.6-0.2-3.2-0.4-4.8c0-3,0-6,0-8.9
		c0.1-0.4,0.2-0.8,0.2-1.2c0.2-6.1,0.8-12.1,1.7-18.1c2.1-14,5.9-27.4,11.6-40.3C49,123.9,61,106.8,76.5,92
		c11.3-10.8,23.9-19.7,37.9-26.8c17.9-9.1,36.9-14.6,56.9-16.4c1.3-0.1,1.3-0.1,1.3-1.4c0-8.4,0-16.8,0-25.3c0-2.7,1.1-4.2,3.7-5.1
		c0.1,0,0.3-0.1,0.4-0.2C177.1,16.8,177.5,16.8,177.9,16.8z"/>
	<g>
		<path class="st1" d="M121.2,203.8c5.7,0,11.1,0,16.6,0c0,2.3,0,4.6,0,6.8c-8.6,0-17.2,0-25.9,0c0-0.3,0-0.5,0-0.8
			c0.2-2.4,0.4-4.8,0.7-7.2c0.4-2.9,1.9-5.3,3.6-7.7c2.5-3.5,5.6-6.5,8.5-9.7c0.9-1,1.8-1.9,2.6-2.9c2-2.3,2.6-5,2.3-7.9
			c-0.1-0.8-0.3-1.7-0.6-2.5c-0.4-1.2-1.4-1.9-2.6-2.1c-0.8-0.1-1.7-0.1-2.5,0c-1.4,0.2-2.3,1-2.8,2.4c-0.6,1.7-0.6,3.4-0.6,5.2
			c0,1.4,0,1.4-1.4,1.4c-2.1,0-4.1,0-6.2,0c-0.5,0-0.7-0.2-0.7-0.7c0-2.2,0-4.3,0.5-6.4c1-4.5,3.8-7.3,8.3-8.4
			c3.3-0.7,6.6-0.8,9.9,0.4c4.4,1.6,7.2,5.5,7.5,10.2c0.3,5.5-1.6,10.1-5.4,14c-2.6,2.7-5.2,5.4-7.8,8.1c-1.5,1.6-2.9,3.3-3.6,5.5
			C121.5,202.2,121.4,202.9,121.2,203.8z"/>
		<path class="st1" d="M141.6,201c0-2.3,0-4.6,0-6.8c0-0.2,0.1-0.4,0.2-0.6c4.6-9.7,9.3-19.5,13.9-29.2c0.2-0.3,0.3-0.6,0.8-0.6
			c2.9,0,5.8,0,8.8,0c0.2,0,0.3,0,0.6,0.1c0,0.3,0,0.6,0,0.9c0,9.5,0,18.9,0,28.4c0,0.9,0,0.9,0.9,0.9c1,0,2.1,0,3.1,0
			c0,2.3,0,4.5,0,6.9c-0.9,0-1.8,0-2.7,0c-1.5,0-1.3-0.2-1.3,1.3c0,2.5,0,5,0,7.5c0,0.3,0,0.5,0,0.8c-0.3,0-0.4,0-0.6,0
			c-2.5,0-5,0-7.5,0c-0.6,0-0.7-0.2-0.7-0.7c0-2.7,0-5.4,0-8.1c0-0.9,0-0.9-0.9-0.9c-4.5,0-9.1,0-13.6,0
			C142.2,201,141.9,201,141.6,201z M148,194.1c0.4,0,0.6,0,0.8,0c2.5,0,5,0,7.5,0c0.6,0,0.7-0.2,0.7-0.8c0-6,0-11.9,0-17.9
			c0-0.2,0-0.4-0.1-0.6c-0.1,0-0.1,0-0.2,0C153.8,181.2,150.9,187.6,148,194.1z"/>
	</g>
	<path class="st1" d="M238.9,212.2c1.6-14.2,6.1-27.3,12.9-39.8c-0.2,0-0.5-0.1-0.7-0.1c-5.7,0-11.4,0-17.2,0c-0.9,0-0.9,0-0.9-0.9
		c0-1.8,0-3.5,0-5.3c0-0.5,0.1-0.7,0.7-0.7c8.5,0,16.9,0,25.4,0c0.5,0,0.6,0.2,0.6,0.6c0,1.8,0,3.5,0,5.3c0,0.3-0.1,0.6-0.2,0.8
		c-4.8,8.7-7.8,18-9.8,27.7c-0.8,3.9-1.4,7.8-1.6,11.7c0,0.4,0,0.7-0.6,0.7c-2.7,0-5.4,0-8.1,0C239.3,212.3,239.1,212.3,238.9,212.2
		z"/>
	<g>
		<path class="st1" d="M183.5,214.4c1.1-1.6,2.1-3.1,3.1-4.6c9.6-14.4,19.3-28.8,28.9-43.2c0.3-0.5,0.6-0.6,1.2-0.4
			c1.3,0.5,2.6,0.9,4,1.3c0.2,0.1,0.4,0.1,0.7,0.2c-1,1.6-2,3-3,4.5c-9.6,14.4-19.3,28.8-28.9,43.2c-0.4,0.6-0.8,0.8-1.5,0.5
			C186.6,215.4,185.1,214.9,183.5,214.4z"/>
		<path class="st1" d="M221.3,214.4c-1.1-1.6-2.1-3.1-3.1-4.6c-9.6-14.4-19.3-28.8-28.9-43.2c-0.3-0.5-0.6-0.6-1.2-0.4
			c-1.3,0.5-2.6,0.9-4,1.3c-0.2,0.1-0.4,0.1-0.7,0.2c1,1.6,2,3,3,4.5c9.6,14.4,19.3,28.8,28.9,43.2c0.4,0.6,0.8,0.8,1.5,0.5
			C218.3,215.4,219.8,214.9,221.3,214.4z"/>
	</g>
</g>
</svg>
