<?xml version="1.0" encoding="utf-8"?>
<!-- Generator: Adobe Illustrator 23.0.1, SVG Export Plug-In . SVG Version: 6.00 Build 0)  -->
<svg version="1.1" id="Layer_1" xmlns="http://www.w3.org/2000/svg" xmlns:xlink="http://www.w3.org/1999/xlink" x="0px" y="0px"
	 viewBox="0 0 384 384" style="enable-background:new 0 0 384 384;" xml:space="preserve">
<style type="text/css">
	.st0{fill:#818181;}
</style>
<g>
	<path class="st0" d="M347.1,269.4c-2.6-1.2-3.1-2.8-3.1-5.1c0.1-11.4,0-22.9,0-34.1l0-10.4l0-12.2c0-10.8,0-21.5,0-32.3
		c0-3.8-1.9-6.2-4.9-6.2c-1.3,0-2.4,0.4-3.3,1.3c-1.1,1.1-1.7,2.8-1.7,4.8c0,32.3,0,64.5,0,96.8c0,4.3,1.3,5.7,5.7,6.2
		c2.6,0.3,4.1,1,4.8,2.4c0.6,1.3,0.2,2.9-1.1,4.9c-6.5,9.6-13.6,20-22.3,32.7c-1.3,1.8-2.6,2.7-4,2.7c-1.4,0-2.7-0.9-3.9-2.7
		c-8.1-11.8-15.5-22.6-22.5-33c-1.3-1.8-1.6-3.4-1-4.7c0.6-1.3,2-2,4.3-2.3c5.1-0.6,6.4-2,6.4-7.1c0-5.7,0-11.5,0-17.2l0-5.5
		c0-1.6,0-3.2,0-4.9c0-3.9,0-8-0.1-11.9c-0.1-3.1-2.2-5.4-5.1-5.4c0,0,0,0,0,0c-2.7,0-4.7,2.1-5,5.2c-0.1,0.7-0.1,1.5-0.1,2.3l0,0.7
		l0,7c0,7.7,0,15.7,0,23.5c0,2.3-0.8,3.6-2.8,4.6c-3.9,2-6.7,5.2-7.7,9.1c-1,3.9-0.2,8,2.3,11.7c8.9,13.2,16.3,24.2,23.5,34.4
		c2.9,4.1,7.1,6.4,11.7,6.4c0,0,0,0,0.1,0c4.4,0,8.5-2.2,11.3-6.1c7.9-11.1,15.8-22.7,24.3-35.6c2.2-3.4,2.9-7.3,1.8-11.1
		C353.5,274.4,350.8,271.2,347.1,269.4z"/>
	<path class="st0" d="M197.8,370.9c0,0,0.1,0,0.1-0.1c0.5-0.2,0.9-0.5,1.4-0.7c0,0,0.1,0,0.1-0.1c0.5-0.3,0.9-0.6,1.3-0.9
		c0,0,0.1,0,0.1-0.1c0.4-0.3,0.9-0.7,1.3-1.1c0,0,0,0,0.1-0.1c0.4-0.4,0.9-0.8,1.3-1.2c0,0,0,0,0.1-0.1c0.4-0.4,0.8-0.9,1.3-1.4
		c0,0,0,0,0-0.1c0.4-0.5,0.8-1.1,1.3-1.6c0,0,0,0,0,0c0.4-0.6,0.9-1.2,1.3-1.9c4-6.1,8.2-12.1,12.2-18c1.8-2.6,3.6-5.2,5.4-7.8
		c1.6-2.4,3.2-4.7,4.9-7.1c3.7-5.4,7.6-11.1,11.3-16.7c2.6-4,3.1-8.7,1.6-13c-1.5-4.1-4.8-7.3-9-8.7c-1.2-0.4-2.5-0.6-3.9-0.8
		c-0.7-0.1-1.4-0.2-2.1-0.4l-0.8-0.2v-4.3c0-4.3,0-8.7,0-13c0-12.7,0-25.9-0.1-38.9c0-3.6,1.5-4.9,4.2-5.9
		c51-19.1,80.8-73,69.4-125.4c-3.2-14.7-9.1-28.1-17.1-39.7c-2-2.9-4.1-5.7-6.4-8.4c-2.8-3.3-5.8-6.5-9-9.5
		c-1.3-1.2-2.6-2.3-3.9-3.5c-1.3-1.1-2.7-2.2-4-3.3c-19.2-14.8-43.2-23.2-68.6-22.9c-6.4,0.1-12.8,0.7-19.3,1.9
		c-17.3,3.2-33.5,10.7-47.3,21.6c-9.4,7.5-17.6,16.5-24.3,26.8C84.3,90.3,79,121.5,86.3,150.4c11.9,47.2,52.7,80.8,101.6,83.5
		c4.1,0.2,6.6-1.4,6.9-4.5c0.3-3.4-1.8-5.3-6.2-5.7c-1.2-0.1-2.5-0.2-3.7-0.3c-2.6-0.2-5.3-0.4-7.9-0.8
		c-26.6-4.4-49.8-18.7-65.3-40.4c-15.5-21.6-21.5-48-17.1-74.3c4.4-26.3,18.8-49.4,40.7-64.9c21.8-15.5,48.3-21.6,74.5-17.2
		c25.1,4.3,47.5,17.9,63,38.3c15.6,20.6,22.4,45.8,19.2,70.9c-5.3,41.6-28.5,69.9-69,84.2c-5.3,1.8-5.9,2.4-5.9,8.1
		c0,21.8,0,43.5,0,65.2c0,5.8,1.5,7.3,7.4,7.3c0.3,0,0.6,0,0.8,0c0.7,0,1.5-0.1,2.2,0.1c0.4,0.1,0.7,0.2,1.2,0.3
		c1.8,0.4,3.6,0.8,4.2,2.1c0.9,1.7-0.3,4.6-1.2,6c-9.7,14.4-19.6,28.9-29.3,43l-4.5,6.6c-1.8,2.6-3.3,3.8-4.8,3.8c0,0,0,0,0,0
		c-1.6,0-3-1.1-4.8-3.8c-9.6-14-19.1-28-28.7-42l-5.4-7.9c-0.3-0.5-0.7-1-0.9-1.5c-0.8-1.6-0.8-3.2-0.1-4.4c0.7-1.2,2.1-2,4-2.1
		c1.1-0.1,2.2,0,3.3,0c1.1,0,2.3,0,3.4,0c3.3-0.2,5.2-2,5.3-4.9c0.1-12.4,0.1-25.1,0-37.9c0-2.6-2.2-4.8-4.9-4.8c0,0,0,0,0,0
		c-2.6,0-4.8,2.1-5,4.8c-0.1,1.4-0.1,2.8-0.1,4.2c0,0.6,0,1.2,0,1.7l0,18l0,8l-0.8,0.2c-0.7,0.1-1.4,0.3-2.1,0.4
		c-1,0.2-2,0.3-2.9,0.6c-0.3,0.1-0.6,0.2-0.9,0.3c-3.8,1.2-6.7,3.8-8.4,7.2c-0.2,0.5-0.4,1-0.6,1.5c-1.5,4.5-0.8,9.6,2.2,13.9
		c4.9,7.3,10,14.7,14.9,21.9c6,8.8,12.2,17.8,18.2,26.8c0.3,0.5,0.7,1,1,1.5c0.1,0.1,0.2,0.2,0.2,0.3c0.3,0.4,0.6,0.8,0.9,1.1
		c0.1,0.2,0.3,0.3,0.4,0.4c0.3,0.3,0.5,0.7,0.8,1c0.2,0.2,0.3,0.3,0.5,0.5c0.3,0.3,0.5,0.6,0.8,0.9c0.2,0.2,0.4,0.3,0.6,0.5
		c0.3,0.3,0.6,0.5,0.9,0.8c0.2,0.2,0.4,0.3,0.7,0.5c0.3,0.2,0.6,0.4,0.9,0.7c0.2,0.2,0.5,0.3,0.7,0.4c0.3,0.2,0.6,0.4,1,0.5
		c0.3,0.1,0.6,0.2,0.8,0.4c0.3,0.1,0.7,0.3,1,0.4h6.6c0,0,0.1,0,0.1,0C196.9,371.4,197.4,371.2,197.8,370.9z"/>
	<path class="st0" d="M260.8,130.9c-0.5,3.4,0.7,5.8,3.2,6.7c1.6,0.6,3.3,0.4,4.6-0.4c1.2-0.8,1.9-2.1,2-3.6l0.1-1.7
		c0.3-6.8,0.6-13.8-0.4-20.4c-5.9-37-36.3-63.4-72.4-65.6c-4.9-0.3-9.9-0.1-15,0.5c-0.3,0-0.5,0-0.8,0.1
		c-19.2,2.6-36.1,12.3-48.2,26.3c-12,13.8-19.3,31.7-19.5,51.1c0.1,1.4,0.2,2.7,0.3,4.1c0.2,2.9,0.4,5.8,0.9,8.7
		c4.2,26.5,21.6,48.7,46.5,59.4c24.9,10.7,53,8,75.2-7.3c7.8-5.4,14.5-12,19.8-19.6c1.8-2.6,1.4-5.6-1-7.3c-2.2-1.6-5-1-7.1,1.3
		c-0.3,0.3-0.5,0.7-0.8,1c-0.2,0.2-0.3,0.4-0.5,0.6c-16.6,21.1-38.2,30.2-64.3,26.9c-18.3-2.3-34.5-11.9-45.6-27.1
		c-11.1-15.2-15.5-34.5-12.1-52.8c2.8-15,10.7-28.9,22.1-39c11.4-10.1,26-16.1,41.1-16.9c32.1-1.7,60.7,18.8,69.6,49.7
		C261.2,114.6,261.9,122.9,260.8,130.9z"/>
	<path class="st0" d="M116.1,266.2c-0.8-0.6-1.6-1.1-2.5-1.6c-2.8-1.4-3.4-3.3-3.4-5.7c0.1-10.3,0.1-21,0-31.9c0-2-0.6-3.7-1.7-4.8
		c-0.2-0.2-0.5-0.4-0.7-0.6c0,0,0,0,0,0c-0.8-0.5-1.7-0.7-2.7-0.7c-3.1,0-5.1,2.5-5.1,6.2c0,12.8,0,26.1,0,39.6
		c0,4.2,1.6,5.9,5.7,6.3c1.7,0.2,4.2,0.6,5,2.3c0.8,1.7-0.3,3.7-1.3,5c-7.3,10.8-14.8,21.7-22.1,32.4c-0.9,1.3-2.2,2.9-4.1,2.9
		c0,0,0,0,0,0c-1.9,0-3.3-1.8-4.2-3.1c-7.3-10.6-14.5-21.2-21.7-31.8c-1.1-1.6-2.3-3.7-1.5-5.4c0.8-1.7,3.2-2.2,5.2-2.4
		c3.8-0.4,5.2-2,5.3-5.9c0-0.4,0-0.8,0-1.2l0-0.5l0-93.6l0-0.6c0-0.5,0-1,0-1.5c-0.1-1.8-0.7-3.4-1.8-4.4c-0.9-0.8-1.9-1.2-3.1-1.2
		c-0.1,0-0.1,0-0.2,0c-2.8,0.1-4.8,2.4-4.8,5.6c0,15,0,30.1,0,45.1l0,48.1l-1.5,0.8c-0.7,0.3-1.3,0.6-1.9,0.9
		c-3.6,1.9-6.3,5.2-7.3,9.1c-0.9,3.5-0.4,7,1.5,9.9c8.8,13.7,17.2,25.9,25.4,37.3c2.5,3.4,6.3,5.3,10.6,5.3c0,0,0,0,0.1,0
		c4.3,0,8.3-2,10.8-5.5c8.4-11.6,16.8-24,25-36.7c0.5-0.8,0.9-1.6,1.3-2.5c0.5-1.3,0.8-2.6,0.8-3.9c0.1-1.3-0.1-2.7-0.4-4.1
		C120,270.5,118.4,268,116.1,266.2z"/>
	<path class="st0" d="M220.8,139.6c-1.2-6.1-5.4-11.3-11.4-14c-2.9-1.3-6-2.2-9.4-3.2c-2.3-0.6-4.6-1.2-6.8-1.7
		c-3.8-0.9-7.7-1.8-11.5-3.1c-3.7-1.3-6.1-3.9-6.8-7.3c-0.7-3.5,0.8-7.2,3.9-9.9c1.2-1,2.7-2,4.3-2.8c7.6-3.6,19.8-2.6,25.8,4.6
		c1,1.3,2.3,2,3.6,2.1c1.3,0.1,2.5-0.3,3.6-1.3c2.3-2,2.4-4.9,0.1-7.6c-3.5-4.2-8.1-7-14.2-8.7c-0.7-0.2-1.5-0.5-2.2-0.7l-1.8-0.6
		v-0.7c0-0.8,0-1.6,0-2.3c0-1.6,0-3.1,0-4.6c-0.1-3.6-2.1-5.8-5.1-5.8c-3-0.1-5,2.2-5.2,5.7c-0.1,1.6-0.1,3.1,0,4.8
		c0,0.8,0,1.5,0,2.3v0.8l-2,0.6c-0.8,0.2-1.5,0.4-2.2,0.7c-5.6,1.7-10,4.3-13.5,8.1c-0.8,0.9-1.6,1.9-2.2,2.9
		c-0.4,0.7-0.8,1.4-1.2,2.1s-0.7,1.4-0.9,2.2c-1.2,3.3-1.5,6.8-0.9,10.3c0.6,3.4,2.2,6.4,4.4,9c1.7,2,3.9,3.6,6.4,4.9
		c3.1,1.5,6.7,2.5,10.1,3.4c1,0.3,2,0.5,3,0.8c2,0.6,4,1.1,6,1.5c3.4,0.8,6.9,1.7,10.2,2.9c3.1,1.2,5.2,3.5,5.9,6.5
		c0.7,3.1-0.2,6.3-2.5,9c-1.9,2.1-4.5,3.6-6.2,4.4c-7.3,3.4-19.5,2.3-25.4-4.9c-1-1.2-2.2-1.9-3.5-2c-0.1,0-0.2,0-0.3,0
		c-1.2,0-2.4,0.5-3.4,1.4c-2.1,1.9-2.2,4.9-0.1,7.4c3.2,3.9,7.4,6.7,12.5,8.3c1.1,0.4,2.2,0.7,3.4,1l2.4,0.7v0.7c0,0.7,0,1.5,0,2.2
		c0,1.6,0,3,0,4.5c0,0.5,0.1,0.9,0.1,1.3c0,0.3,0.1,0.5,0.2,0.7c0,0.2,0.1,0.3,0.1,0.5c0.7,2.1,2.3,3.4,4.4,3.5c0.1,0,0.2,0,0.3,0
		c3.1,0,5-2.3,5.1-6.2c0-1.4,0-2.8,0-4.4c0-0.7,0-1.5,0-2.3v-0.8l0.8-0.2c7.7-1.9,12.8-4.6,16.7-8.9
		C220.2,152.3,222.1,145.8,220.8,139.6z"/>
</g>
</svg>
