<?xml version="1.0" encoding="utf-8"?>
<!-- Generator: Adobe Illustrator 23.0.1, SVG Export Plug-In . SVG Version: 6.00 Build 0)  -->
<svg version="1.1" id="Layer_1" xmlns="http://www.w3.org/2000/svg" xmlns:xlink="http://www.w3.org/1999/xlink" x="0px" y="0px"
	 viewBox="0 0 384 384" style="enable-background:new 0 0 384 384;" xml:space="preserve">
<style type="text/css">
	.st0{fill:#808080;}
</style>
<g>
	<path class="st0" d="M362.6,213.2c-3.7-2.9-4.4-5.7-4.5-9.6c-0.7-31-26.4-58.2-57.3-60.6c-6.8-0.5-13.8-0.5-20.6-0.5
		c-2.3,0-4.5,0-6.8,0c-2.1,0-3.5-0.5-4.1-2.9c-4.9-17.7-16-30.5-33-38.1c-2-0.9-2.8-2.1-2.7-4.3c0-3.8,0-7.6,0-11.3
		c0-5.2,0-10.5,0.1-15.8c0-2,0.8-4.2,2.1-5.9c5.3-7.1,7.1-14.8,5.4-23c-2.3-11.4-11.3-20.3-22.5-22.1c-12-1.9-23.2,3.2-29.2,13.4
		c-6,10.2-5.1,22.4,2.4,32.1c1,1.3,1.7,3.1,1.7,4.5c0.1,5.2,0.1,10.4,0.1,15.5c0,4.2,0,8.4,0,12.6c0,2-0.4,3.3-2.8,4.3
		c-8.2,3.4-15.3,8.7-21.4,15.8c-0.3,0.4-0.7,0.7-1.2,1.1c-0.3,0.2-0.6,0.5-0.9,0.8l-0.8,0.7V119c0-4.5,0-9,0-13.4
		c0-9.9,0.1-19.2-0.1-28.7c-0.4-25-20.9-45.5-45.7-45.8c-25.6-0.2-49-0.2-71.6,0c-14,0.2-25.9,6.1-35.5,17.8C9,54.9,5.9,62,3.8,72.2
		V170c1.5,7.2,3.8,15.5,9.5,22.7c9.4,11.8,21.4,18,35.9,18.5c2.8,0.1,5.7,0.1,8.5,0c1.3,0,2.6,0,3.9,0h0.3l1,1.7l-0.4,0.3
		c-0.3,0.2-0.5,0.3-0.8,0.5c-0.6,0.3-1.1,0.6-1.5,1c-14.4,13.3-20.7,32.4-16.9,51.2c3.8,18.7,17.1,33.9,35.4,40.4
		c2.3,0.8,3.3,2.1,3.6,4.6c4.1,33.3,30.5,56.6,64,56.6c56.2,0.1,103.1,0.1,147.6,0c36.2-0.1,63.8-27.4,64.3-63.7
		c0-2.5,0.8-4.1,2.8-5.5c11.3-8.4,18.3-19.9,20.9-34.2c0.1-0.8,0.2-16.3,0.1-17.3C379.7,232.8,373.2,221.5,362.6,213.2z M213.7,28.8
		C213.7,28.8,213.7,28.8,213.7,28.8c9.8,0,17.9,8.1,17.9,17.9c0,10-7.8,17.9-17.8,18c0,0-0.1,0-0.1,0c-4.8,0-9.4-1.9-12.8-5.3
		c-3.4-3.4-5.3-7.9-5.2-12.8C195.8,37,204,28.8,213.7,28.8z M223.2,74.3v22.9H204V74.3H223.2z M168.5,141.9
		c1.5-16.7,22.9-34,43.2-34.8c27.7-1.1,44.6,20.1,47.3,34.7l0.1,0.6h-90.7L168.5,141.9z M81.6,295.8l-0.5,0
		c-12.6-1-27.5-20.1-28.6-36.6c-1.4-20.6,11.7-41.3,28.6-45l0.6-0.1V295.8z M52.3,201.1c-22.9-0.1-38.4-15.5-38.4-38.5
		c0-27.7,0-55.4,0-83C13.9,57,29.6,41.3,52,41.2c22.1-0.1,44.4-0.1,66.4,0c22.4,0.1,38.1,15.9,38.1,38.4l0,9.7
		c0,20.5,0.1,41.7,0,62.6c-0.1,9.8,2.6,18.2,8,25.7c1.4,1.9,2.8,3.9,4.1,5.9c1.3,1.9,2.6,3.8,4,5.7c1.4,1.9,3,4.9,1.2,8.4
		c-1.6,3.1-4.6,3.5-7.3,3.5c0,0,0,0-0.1,0c-15,0-30,0-45,0l-30.7,0C77.9,201.1,65.1,201.1,52.3,201.1z M184.6,192c0-0.3,0-0.6,0.1-1
		c0-0.2,0.1-0.4,0.1-0.7l0.1-0.4l19.5,0c11.9,0,23.8,0,35.7,0c12.5,0,18.9,6.4,18.9,19c0,30.9,0,61.8,0,92.7
		c0,12.2-6.4,18.6-18.5,18.6c-15.8,0-31.6,0-47.3,0c-15.2,0-30.5,0-45.7,0c-11.8,0-18.3-6.6-18.4-18.4c0-28.7,0-57.3,0-86
		c0-0.8,0-1.6,0.1-2.5c0-0.5,0.1-1,0.1-1.5l0-0.5l5,0c3.5,0,7,0,10.4,0c2.2,0,4.4,0,6.5,0c4.9,0,10-0.1,15,0.1
		c5.7,0.3,10.8-1.8,14.4-5.8C183.9,201.8,185.4,196.8,184.6,192z M193.8,357.4c-16,0-31.9,0-47.5,0c-31-0.1-54.4-23.5-54.5-54.5
		c0-20.2,0-40.8,0-60.6c0-8.8,0-17.7,0-26.5v-4.1h27l0,29.6c0,20,0,40,0,60c0,18.2,10.9,29.1,29,29.1c30.8,0,61.6,0,92.3,0
		c17.8,0,28.8-11.1,28.8-28.9c0-31,0-62.1,0-93.1c0-17.5-10.9-28.5-28.4-28.5c-23.3-0.1-41.3-0.1-58.2,0.1c-3,0-4.8-0.9-6.4-3.4
		c-0.5-0.8-1-1.5-1.5-2.2c-3.2-4.7-6.5-9.6-7.4-15.7c-0.1-1.1-0.2-2.1-0.3-3.3c0-0.6-0.1-1.2-0.2-2l0-0.5h4.1c7.2,0,14.4,0,21.6,0
		c16.1,0,32.8,0,49.2,0c26.3,0.1,47.7,17.1,53.3,42.2c0.8,3.6,1.2,7.6,1.2,11.9c0.1,31.7,0.1,64.2,0,96.4
		c-0.1,30.9-23.4,54.2-54.4,54.2C225.6,357.4,209.6,357.4,193.8,357.4z M345.4,320.6c-7.1,21.4-27,36.1-49.7,36.7
		c-1.9,0-3.9,0.1-5.9,0.1c-1.6,0-3.3,0-5,0c-1.8,0-3.8,0-5.8,0h-1.4l2.4-2c0.6-0.5,1.1-0.9,1.5-1.3c16.2-13.2,24.4-30.1,24.5-50.5
		c0.1-24.1,0.1-48.5,0.1-72.2c0-8,0-15.9,0-23.9c0-21.3-8.5-38.8-25.2-52c-0.4-0.3-0.8-0.7-1.2-1.1l-0.2-0.2
		c-0.2-0.2-0.2-0.5-0.1-0.7l0-0.4l0.4-0.1c30.6-3.1,51.2,6.8,63.1,30.5c3.6,7.1,5.2,14.9,5,23l0,0.4l-0.4,0.1
		c-0.7,0.1-1.4,0.3-2.1,0.4c-1.5,0.3-3,0.5-4.4,0.9c-10.3,2.7-17.5,11.3-17.7,21.4c-0.4,17.9-0.4,34.4,0,50.4
		c0.3,11.8,9.2,21.1,21.7,22.5c0.5,0.1,1,0.1,1.5,0.2l1.2,0.2l0,0.4C348.6,310,346.9,316.1,345.4,320.6z M357.2,288.4
		c-3.1,2.7-6.4,4.1-9.8,4.1c-1.9,0-3.8-0.4-5.8-1.3c-5.6-2.4-8.4-7-8.4-13.5c0-5.4,0-10.7,0-16.1l0-6.9c0-2.3,0-4.6,0-6.9
		c0-4.8,0-9.8,0-14.6c-0.1-7.3,2.6-12.1,8.4-14.6c5.8-2.5,11.3-1.2,16.7,3.9c9.2,8.6,14.3,20.7,14,33.2
		C372.2,268.4,366.7,280.2,357.2,288.4z"/>
	<path class="st0" d="M85.5,114.1c-2-0.1-3.9,0.6-5.3,2c-1.4,1.3-2.2,3-2.2,4.9c-0.1,1.9,0.6,3.7,2,5.1c1.3,1.4,3.2,2.2,5.1,2.2
		c1.9,0,3.8-0.7,5.2-2.1c1.4-1.3,2.1-3.1,2.1-5C92.5,117.4,89.3,114.2,85.5,114.1z"/>
	<path class="st0" d="M122.7,114.1c-0.1,0-0.2,0-0.3,0c-1.9,0-3.6,0.7-5,1.9c-1.4,1.3-2.2,3.1-2.3,5c-0.1,1.9,0.6,3.7,2,5.1
		c1.4,1.4,3.2,2.2,5.1,2.3c2,0.1,3.8-0.7,5.2-2c1.4-1.3,2.1-3.1,2.1-5C129.6,117.3,126.6,114.2,122.7,114.1z"/>
	<path class="st0" d="M48.3,114.1c-0.1,0-0.2,0-0.3,0c-1.9,0-3.7,0.7-5,1.9c-1.4,1.3-2.1,3-2.2,5c-0.1,2,0.6,3.8,2,5.2
		c1.3,1.4,3.1,2.2,5.1,2.2c2,0.1,3.8-0.7,5.2-2.1c1.4-1.3,2.1-3.1,2.2-5C55.3,117.4,52.2,114.2,48.3,114.1z"/>
	<path class="st0" d="M178.7,275.9c3.5,0.1,7,0,10.5,0c1.6,0,3.1,0,4.7,0l4.2,0c3.5,0,7.1,0,10.6,0c2.4,0,4.3-0.6,5.5-1.8
		c0.8-0.8,1.2-2,1.2-3.3c-0.1-3.1-2.4-4.9-6.5-5c-5.4,0-10.4,0-15.3,0c-5.1,0-10,0-14.7,0c-2.2,0-3.9,0.6-5,1.6
		c-0.8,0.9-1.3,2-1.2,3.5C172.8,275,176,275.9,178.7,275.9z"/>
	<path class="st0" d="M230.4,257.2c0,0,0.1,0,0.1,0c3.9,0,7-3.1,7.1-7c0-1.9-0.7-3.7-2.1-5.1c-1.4-1.3-3.2-2.1-5.1-2.1
		c0,0-0.1,0-0.1,0c-4,0.1-7,3.1-7,7.1c0,2,0.7,3.8,2,5.1C226.6,256.5,228.4,257.2,230.4,257.2z"/>
	<path class="st0" d="M157.6,243C157.6,243,157.6,243,157.6,243c-4,0-7,3-7.1,7c-0.1,4,2.8,7.1,6.8,7.3c2,0.1,3.9-0.6,5.3-1.9
		c1.4-1.3,2.1-3.1,2.2-5c0-2-0.7-3.8-2-5.2C161.4,243.7,159.6,243,157.6,243z"/>
</g>
</svg>
