<?xml version="1.0" encoding="utf-8"?>
<!-- Generator: Adobe Illustrator 23.0.1, SVG Export Plug-In . SVG Version: 6.00 Build 0)  -->
<svg version="1.1" id="Layer_1" xmlns="http://www.w3.org/2000/svg" xmlns:xlink="http://www.w3.org/1999/xlink" x="0px" y="0px"
	 viewBox="0 0 384 384" style="enable-background:new 0 0 384 384;" xml:space="preserve">
<style type="text/css">
	.st0{fill:none;stroke:#808080;stroke-width:10;stroke-miterlimit:10;}
	.st1{fill:#808080;}
</style>
<g>
	<g>
		<path class="st0" d="M299.7,187.9c-11.4,0-22.7,0-34.6,0c17.8-27.5,35.2-54.4,52.6-81.2c0.3,0,0.6,0,0.9,0
			c17.4,26.9,34.7,53.7,52.5,81.2c-12.3,0-23.9,0-35.8,0c-0.1,1.1-0.2,1.8-0.2,2.5C333.9,235,315.6,271.1,281,299
			c-19.5,15.7-41.9,25.3-66.7,28.5c-44.1,5.6-82.9-6.4-116-36.4c-2.3-2.1-4.6-4.3-6.9-6.6c-0.4-0.5-0.7-1.7-0.4-2.1
			c6.3-10,12.7-19.9,19.3-30.1c19.4,23.4,43.6,37.9,74,40.7c21.6,2,42.1-1.8,61.2-12.7C283.2,258.9,299.9,221.6,299.7,187.9z"/>
		<path class="st0" d="M298.3,92.7c-6.7,10.4-13.1,20.4-19.7,30.7c-2.6-2.5-5.1-4.8-7.4-7.2c-9.5-9.8-20.1-18.1-32.5-23.9
			c-15.4-7.1-31.5-10.1-48.5-9.5c-32.1,1.3-57.9,15.1-78.2,39.5c-13.8,16.6-21.1,36-22.9,57.5c-0.2,2.3-0.1,4.6-0.1,6.8
			c0,0.4,0.1,0.7,0.1,1.6c11.2,0,22.4,0,33.6,0c0.1,0.3,0.3,0.5,0.4,0.8c-17.4,26.8-34.8,53.7-52.1,80.5c-0.3,0-0.6,0-0.9,0
			c-17.4-26.8-34.7-53.6-52.4-80.9c12.2-0.3,23.8-0.5,35.5-0.8c1-37.5,13.6-70.2,39.6-97.3c18.8-19.5,41.4-33.1,67.9-39.1
			C214,39.3,259.7,54.1,298.3,92.7z"/>
	</g>
	<g>
		<path class="st1" d="M252,218.3c0-4.5,0-8.9,0-13.4c0-16.6-5.9-24.8-21.5-30c-4.7-1.6-9.5-2.7-14.6-3.8c-2.4-0.5-4.8-1.1-7.3-1.7
			l-1.8-0.4l1.2-1.4c15.9-19,18.4-41.2,5.9-54c-5-5.1-12.9-8.2-21.2-8.3c-7.4-0.1-14.2,2.4-18.5,6.7c-4.5,4.5-8.2,11.6-9.5,18.5
			c-2.4,12.9,2,25.3,13.1,36.8l1.3,1.4l-1.9,0.5c-2.7,0.7-5.3,1.3-7.8,1.9c-5.5,1.3-10.8,2.5-15.8,4.3c-14,5-19.8,13.3-19.8,28.5
			c0,4.8,0,9.5,0,14.3c0,8.7,0.1,17.7-0.1,26.6c-0.1,3.3,0.5,5.4,1.7,6.7c1.2,1.2,3.3,1.8,6.3,1.8c17-0.1,34-0.2,51.1-0.2
			c17.1,0,34.1,0.1,51.1,0.2c3.1,0,5.1-0.6,6.4-1.8c1.2-1.3,1.8-3.4,1.7-6.7C252,236.1,252,227.1,252,218.3z M172.4,135.3
			c0.2-13.4,7.7-21.1,20.5-21.1c0,0,0.1,0,0.1,0c12.9,0.1,20.3,7.9,20.4,21.4c0.1,15-9.2,27.8-20.2,28c-0.1,0-0.2,0-0.3,0
			c-4.3,0-8.4-1.8-12-5.4C175.5,152.8,172.3,144.2,172.4,135.3z M243.6,230.8c0,4,0.1,8.1,0.1,12.3v1.1h-16.5v-1.1
			c0-2.6,0-5.3,0.1-7.9c0.1-6.6,0.2-13.5-0.3-20.2c-0.2-2.9-2.7-7.3-3.9-7.4c-1.4-0.2-2.4,0-3.1,0.5c-1.2,1-1.1,3.5-1.1,5.7
			c0,0.5,0,0.9,0,1.3c-0.1,6.5,0,12.8,0,19.6c0,2.8,0,5.6,0,8.4v1.1h-51.7v-1.1c0-2.7,0-5.3,0-8c0-6.5,0-13.3,0-20
			c0-0.4,0-0.9,0-1.4c0-2.2,0.1-4.7-1.1-5.7c-0.6-0.5-1.6-0.7-3-0.5c-1.2,0.2-3.8,4.5-4,7.4c-0.5,6.7-0.4,13.3-0.3,20.3
			c0,2.7,0.1,5.5,0.1,8.2v1.1h-16.2v-1.1c0-4.3-0.1-8.7-0.1-12.9c-0.2-11-0.3-22.3,0.7-33.3c0.5-4.9,7-11.1,12.1-13
			c24.3-9,49.7-9.1,75.5-0.3c8.8,3,13.4,9.8,13.1,19.5C243.5,212.5,243.6,221.4,243.6,230.8z"/>
	</g>
</g>
</svg>
