<?xml version="1.0" encoding="utf-8"?>
<!-- Generator: Adobe Illustrator 23.0.1, SVG Export Plug-In . SVG Version: 6.00 Build 0)  -->
<svg version="1.1" id="Layer_1" xmlns="http://www.w3.org/2000/svg" xmlns:xlink="http://www.w3.org/1999/xlink" x="0px" y="0px"
	 viewBox="0 0 384 384" style="enable-background:new 0 0 384 384;" xml:space="preserve">
<style type="text/css">
	.st0{fill:none;stroke:#818181;stroke-width:5;stroke-miterlimit:10;}
	.st1{fill:#808080;}
</style>
<g>
	<path class="st0" d="M221.3,127.2c-10.7,1.9-16.1-0.6-23,3.6c-2,1.2-6.7-0.1-9-1.8c-4.5-3.3-8.8-4.8-14.2-3.2
		c-6.2,1.8-10.1-0.5-13.4-6.4c-1.9-3.4-6.3-6.2-10.1-7.4c-6.1-2-9-4.9-9.3-11.7c-0.2-3.7-2.5-8.1-5.3-10.7
		c-5.1-4.7-6.8-8.8-3.6-15.5c1.5-3.2,1-8.4-0.5-11.9c-2.6-6.1-1.8-10,3.3-14.5c2.9-2.6,4.9-7.4,5.3-11.4c0.7-6.4,2.7-9.9,9.4-11.6
		c3.7-1,7.6-4.5,9.7-8c3.3-5.6,6.7-7.7,13.4-6.5c3.8,0.7,8.9-0.7,12.2-2.8c5.6-3.6,9.8-4.4,15.5,0c2.9,2.2,7.9,3,11.7,2.5
		c6.7-0.9,11.2,0,14.5,6.8c1.6,3.2,5.9,6,9.6,7.1c6.4,2,9.5,4.9,9.6,12.1c0.1,3.6,2.7,8,5.5,10.6c5,4.5,6.5,8.5,3.4,15
		c-1.5,3.2-1.1,8.4,0.3,11.9c2.6,6.3,2.4,11.1-3.7,14.7c-4.8,2.8-5,7.6-5.1,12.3c0,6.1-2.7,9.6-8.8,10.3c-5.6,0.6-8.2,4.5-10.7,8.9
		C226.4,122.4,224.7,126.6,221.3,127.2z M246.2,67.6c-0.1-28.4-23.2-51.4-51.7-51.4c-28.4,0-51.4,23.1-51.4,51.6
		c0,28.8,23.2,51.9,52,51.7C223.5,119.3,246.3,96.2,246.2,67.6z"/>
	<path class="st0" d="M191.4,132.2c-10,17.2-22,38.6-32.8,57.3c-3.2-7.3-6.1-13.2-8.5-19.4c-1.4-3.6-3.4-4.7-7.2-4.4
		c-7.2,0.7-14.4,0.9-23.2,1.5c10.2-17.8,21.8-37.4,32.4-55.7"/>
	<path class="st0" d="M223.6,52.5c-2.1-2.1-4.3-4.5-7.7-8C206,55,196.6,65,187,75.2c-5.2-5-9.9-9.4-14.8-14.1
		c-2.7,2.8-4.8,5-6.6,6.9c7.4,7.5,14.4,14.5,21.2,21.4C199,77.2,211.2,65,223.6,52.5z"/>
	<path class="st0" d="M197.7,132.2c10,17.2,22,38.6,32.8,57.3c3.2-7.3,6.1-13.2,8.5-19.4c1.4-3.6,3.4-4.7,7.2-4.4
		c7.2,0.7,14.4,0.9,23.2,1.5c-10.2-17.8-21.8-37.4-32.4-55.7"/>
</g>
<path class="st1" d="M347.5,178.4c-2.5-3.1-5-6.2-7.6-9.3l-1.4-1.7l1.4-1.7c2.6-3.1,5.1-6.2,7.7-9.3c5.9-7.2,11.5-14,17.2-21
	c2.8-3.4,4-5.9,3.6-7.3c-0.4-1.4-2.6-2.9-6.5-4.4c-11.5-4.4-23.1-8.9-34.4-13.1l-11.1-4.2c-5.4-2-11.8-4.5-18.1-6.8
	c-5.7-2.1-6.9,1.1-7.4,2.4c-0.8,2.1-1.1,4.4,4.2,6.5c1,0.4,1.9,0.7,2.9,1.1s1.9,0.8,2.9,1.1c13.4,5.1,26.8,10.2,40.6,15.4l14.3,5.4
	l-2.4,3c-1.9,2.3-3.7,4.5-5.5,6.7c-4.2,5.1-8.2,9.9-12,15c-3.3,4.4-7,5.4-12.4,3.2c-7.1-2.8-14.4-5.6-21.4-8.2
	c-4.8-1.8-9.8-3.7-14.8-5.6c-2.5-1-5.6-2-7.3-1.1c-0.3,0.1-1.3,0.6-2.1,2.8c-1.2,3.3-0.4,4.9,6.4,7.4c6,2.2,12,4.5,18.4,6.9
	c2.8,1,5.6,2.1,8.5,3.2l5.9,2.2l-5.6,2.8c-0.9,0.4-1.6,0.8-2.2,1.1c-1.2,0.6-2.2,1.1-3.2,1.5l-15.3,5.8
	c-30.8,11.7-62.7,23.8-94.2,35.5c-3.8,1.4-8.5,0.7-11.4-0.4c-30-11.2-60.5-22.7-89.9-33.9L80,173.5c-1.7-0.7-3.4-1.4-5.4-2.2
	c-1.1-0.5-2.2-0.9-3.5-1.5l-6.3-2.7l6.4-2.4c3.3-1.3,6.5-2.5,9.6-3.6c6.9-2.6,13.5-5.1,20-7.7c2.9-1.2,4.5-3.2,4.7-4.6
	c0.1-0.8-0.1-1.4-0.8-2c-1.7-1.5-5.9-2.4-8.1-1.6c-7.4,2.4-14.9,5.3-22.1,8.1c-5.1,2-10.3,4-15.6,5.8c-2.8,1-7.9,1.1-10.2-1.4
	c-4.9-5.4-9.4-11-14.2-16.9c-1.6-2-3.3-4.1-5-6.2l-2.4-2.9l3.4-1.4c1-0.4,2-0.8,2.9-1.2c1.8-0.8,3.4-1.4,5-2
	c11.7-4.5,23.4-8.9,35.1-13.3l14.2-5.4c5-1.9,5-4.3,4.1-6.5c-0.6-1.5-1.4-3-3.9-3c-0.9,0-2.1,0.2-3.6,0.7c-0.4,0.1-0.7,0.3-1,0.4
	s-0.7,0.3-1,0.4c-6.3,2.4-12.5,4.7-18.8,7.1c-14,5.3-28.6,10.8-42.8,16.2c-3.9,1.5-6.1,3-6.5,4.4c-0.4,1.5,0.8,4,3.6,7.4
	c5.7,7,11.4,14,17,20.9c2.5,3,4.9,6,7.3,9l1,1.3l-0.6,1.5c-0.1,0.2-0.2,0.4-0.2,0.6c-0.2,0.5-0.4,1.2-0.9,1.8l-0.9,1.1
	c-6,7.4-12.1,15-18.2,22.4c-4.3,5.2-9.1,11.1-8.6,13.1s7.9,4.7,13.8,6.8c6.3,2.3,8.7,5.8,8.6,12.7C36,239,36,251.6,36,263.7
	c0,14.3,0,29.1-0.2,43.7c-0.1,6.9,1.9,9.9,8.3,12.3c23.3,8.6,46.9,17.5,69.8,26.2c23.2,8.8,47.3,17.9,70.9,26.6
	c3.7,1.4,9,1.4,12.7,0c24.8-9.2,49.9-18.6,74.1-27.8c21.8-8.2,44.3-16.8,66.6-25c6.3-2.3,8.3-5.2,8.2-11.5
	c-0.3-17.8-0.2-35.9-0.2-53.4c0-6.8,0-13.6,0-20.3c0-8-0.8-16.2-0.8-16.2s8.8-3.6,15.9-6.4c4.1-1.6,6.4-3.2,6.8-4.7
	c0.4-1.4-0.8-3.8-3.4-7.1C359.2,192.6,353.3,185.4,347.5,178.4z M33.3,205.7l-1.1-0.4c-1-0.4-3.3-1.2-3.8-1.6
	c-0.3-0.3-0.5-0.4-0.5-0.8c0-0.5,0.9-1.7,0.9-1.7l1.3-1.6c1.6-1.9,3.1-3.9,4.7-5.8c4.3-5.3,10.7-13.7,15.3-18.9
	c1.9-2.1,6.4-3.7,9.4-2.6c34,12.7,65.3,28.3,100.6,41.7l23.3,8.8l-2.4,3c-1.6,2-3.2,3.9-4.8,5.9c-5.2,6.4-10.1,12.3-15.3,18.2
	c-1.1,1.3-3,1.7-4.7,1.7c-1.2,0-2.4-0.2-3.1-0.5C113.2,236.1,72.6,220.6,33.3,205.7z M185.8,362.6L53.2,312.5
	c-3.2-1.2-7.6-2.8-7.5-9.4c0.2-17.5,0.2-35.3,0.2-52.5c0-7.3,0-14.6,0-21.9c0-0.9,0.2-1.7,0.3-2.6c0.1-0.4,0.2-0.9,0.3-1.5l0.5-3.3
	l18,6.8c15.3,5.8,30.4,11.5,45.5,17.2c4.1,1.6,8.3,3.1,12.4,4.6c10.2,3.8,20.8,6.7,31.1,10.9c5.8,2.4,9.1,1.5,12.7-3.5
	c2.8-3.9,6-6.7,9.3-10.6c1.6-1.9,3.2-3.8,4.9-5.9l4.9-5.9L185.8,362.6L185.8,362.6z M338.7,303.6c0,3.1-2.7,7-5.5,8.1
	c-39.2,15-81.2,30-119.8,44.5l-13.8,5.5c-0.4,0.1-2.9,1-2.9,1V360V235.1l4.9,5.8c1.7,2,3.4,4,5,5.8c3.5,4.1,6.8,7.9,9.8,12
	c3.3,4.5,6.5,5.3,12.2,3.1c24-9.3,48.5-18.5,72.2-27.4c8.1-3,16.1-6.1,24.2-9.1c1.6-0.6,3.2-1.2,5.1-1.9l7-2.5v19.9
	C336.9,262.6,338.9,282.9,338.7,303.6z M352.1,204.3c-0.7,0.4-1.4,0.7-2,1c-1.3,0.7-2.6,1.3-4,1.9c-11,4.2-22,8.3-33,12.4
	c-26.4,9.9-53.7,20.2-80.5,30.5c-2.1,0.8-4,1.3-5.8,1.3c-3,0-5.7-1.3-8.4-5c-3.4-4.7-7.2-9.2-11.2-14c-1.8-2.1-3.6-4.4-5.5-6.7
	l-2.4-3l62.4-23.6c5.4-2,10.8-4.1,16.2-6.1c14.8-5.6,31.2-12.3,46.2-18.2c5.6-2.2,9.5-1.2,13,3.4c3.7,4.8,7.5,10.5,11.6,15.4
	c1.7,2.1,3.1,4.4,4.9,6.6l2,2.5L352.1,204.3z"/>
</svg>
