<?xml version="1.0" encoding="utf-8"?>
<!-- Generator: Adobe Illustrator 23.0.1, SVG Export Plug-In . SVG Version: 6.00 Build 0)  -->
<svg version="1.1" id="Layer_1" xmlns="http://www.w3.org/2000/svg" xmlns:xlink="http://www.w3.org/1999/xlink" x="0px" y="0px"
	 viewBox="0 0 384 384" style="enable-background:new 0 0 384 384;" xml:space="preserve">
<style type="text/css">
	.st0{fill:#808080;}
	.st1{fill:none;stroke:#808080;stroke-width:10;stroke-miterlimit:10;}
</style>
<path class="st0" d="M117.4,145.6c0-1.2,0.4-1.8,1.4-2.4c6-3.2,11.9-6.4,17.8-9.6c1-0.5,1.9-1.5,2.5-2.4c3.3-5.9,6.5-11.9,9.7-17.9
	c0.5-1,1.1-1.3,2.3-1.3c6.9,0.3,13.8,0.5,20.8,0.6c0.8,0,1.8-0.2,2.5-0.7c5.9-3.6,11.8-7.2,17.7-10.9c1-0.6,1.6-0.6,2.6,0
	c5.8,3.6,11.7,7.2,17.5,10.8c0.8,0.5,1.9,0.8,2.9,0.8c6.9-0.1,13.7-0.4,20.6-0.6c1.1,0,1.7,0.3,2.3,1.3c3.1,5.9,6.4,11.8,9.5,17.7
	c0.7,1.3,1.5,2.2,2.8,2.8c6,3.2,11.9,6.4,17.8,9.6c0.9,0.5,1.3,1.1,1.2,2.1c-0.2,4.2-0.3,8.5-0.4,12.7c0,0.8,0,1.7,0,2.4
	c0.3,0.1,0.4,0.1,0.5,0.1c0.7,0,1.4,0.1,2.1,0c4.8-0.4,8.2,1.4,9.8,6.1c0,14,0,27.9,0,41.9c-2,6.2-7.1,6.5-12.5,6.1c0,0.8,0,1.4,0,2
	c0.1,4.5,0.2,8.9,0.4,13.4c0,1.1-0.3,1.6-1.2,2.1c-5.9,3.1-11.8,6.4-17.7,9.5c-1.3,0.7-2.3,1.6-3,2.9c-3.1,5.9-6.4,11.8-9.5,17.7
	c-0.5,1-1.1,1.3-2.3,1.3c-6.9-0.3-13.7-0.5-20.6-0.6c-1,0-2,0.3-2.9,0.8c-5.9,3.5-11.7,7.1-17.5,10.8c-1,0.6-1.6,0.6-2.6,0
	c-5.9-3.7-11.8-7.3-17.7-10.9c-0.7-0.4-1.7-0.7-2.5-0.7c-6.9,0.1-13.8,0.4-20.8,0.6c-1.1,0-1.7-0.3-2.3-1.3
	c-3.2-6.1-6.5-12.2-9.9-18.3c-0.4-0.8-1.2-1.5-2-2c-6.1-3.3-12.1-6.6-18.3-9.9c-0.9-0.5-1.3-1-1.2-2.1c0.2-4.5,0.3-8.9,0.4-13.4
	c0-0.6,0-1.2,0-1.7c-0.3-0.1-0.4-0.2-0.5-0.2c-0.7,0-1.4-0.1-2.1,0c-4.8,0.4-8.2-1.5-9.8-6.1c0-14,0-27.9,0-41.9
	c2-6.2,7.1-6.5,12.1-6.1 M201.1,209.7c0.8,0,1.5,0,2.3,0c22.9,0,45.9,0,68.8,0c3,0,3.8-0.8,3.8-3.7c0-12.1,0-24.3,0-36.4
	c0-3-0.8-3.7-3.8-3.7c-52.6,0-105.3,0-157.9,0c-3.1,0-3.8,0.7-3.8,3.9c0,12,0,24,0,36.1c0,3.2,0.7,3.9,4,3.9c22.9,0,45.8,0,68.7,0
	c0.7,0,1.5,0,2.3,0c0,1.8,0,3.4,0,5.2c-14.9,0-29.8,0-44.7,0c8.7,17.7,29.7,34,57.3,31.9c24.1-1.8,41.4-18,47.8-32
	c-14.9,0-29.8,0-44.7,0c0-1.4,0-2.6,0-3.8C201,210.7,201.1,210.3,201.1,209.7z M123.1,160.8c3.5,0,6.8,0,10.1,0
	c1.2,0,1.8-0.3,2.4-1.4c1.6-3,3.3-6,5.3-8.8c4-5.8,9-10.8,14.9-15c1,1.4,2,2.7,3,4.2c-7.6,5.6-13.6,12.5-18,20.9
	c35.2,0,70.1,0,105.3,0c-6.8-12.7-16.5-21.9-29.6-27.3c-18.4-7.6-36.3-6.1-53.6,3.6c-0.9-1.5-1.7-2.9-2.5-4.3c0.4-0.3,0.7-0.5,1-0.7
	c18.6-10.2,37.7-11.4,57.3-3.3c14.7,6.1,25.4,16.6,32.6,30.8c0.3,0.5,0.8,1.2,1.2,1.2c3.7,0.1,7.4,0.1,11.6,0.1
	c0-4.2-0.1-8.2,0-12.2c0-1.2-0.3-1.7-1.3-2.3c-5.6-3-11.2-6-16.7-9c-0.8-0.4-1.6-1.2-2-2c-3-5.5-6-11-9-16.6
	c-0.6-1.1-1.2-1.5-2.5-1.5c-6.3,0.3-12.6,0.4-18.9,0.5c-1,0-2-0.3-2.9-0.8c-5.4-3.2-10.7-6.5-16.1-9.9c-1-0.6-1.6-0.6-2.6,0
	c-5.3,3.4-10.7,6.6-16.1,9.9c-0.8,0.5-1.9,0.8-2.9,0.8c-6.3-0.1-12.7-0.3-19-0.5c-1.1,0-1.7,0.3-2.3,1.3c-3,5.6-6,11.2-9,16.7
	c-0.4,0.8-1.2,1.6-2,2c-5.5,3.1-11.1,6.1-16.7,9c-1.1,0.6-1.4,1.2-1.3,2.4 M263.9,214.9c-3.8,0-7,0.1-10.2,0
	c-1.5-0.1-2.2,0.4-2.8,1.7c-15.2,30.6-51.9,43.9-83.1,30.3c-14.4-6.3-25.1-16.5-32.2-30.5c-0.3-0.6-0.8-1.4-1.2-1.4
	c-3.7-0.1-7.4-0.1-11.6-0.1c0,4.2,0.1,8.2,0,12.2c0,1.2,0.3,1.7,1.3,2.3c5.6,3,11.2,6,16.7,9.1c0.8,0.4,1.5,1.2,2,2
	c3,5.5,6,11,9,16.6c0.6,1.2,1.4,1.5,2.7,1.5c6.3-0.3,12.7-0.4,19-0.5c0.7,0,1.6,0.2,2.2,0.6c5.4,3.3,10.8,6.6,16.2,10
	c1.1,0.7,1.8,0.7,2.9,0c5.3-3.3,10.6-6.6,15.9-9.8c0.9-0.5,2-0.8,3-0.8c6.3,0.1,12.6,0.3,18.9,0.5c1.2,0,1.7-0.3,2.3-1.3
	c2.9-5.6,5.9-11.1,9-16.6c0.5-0.9,1.3-1.7,2.2-2.2c5.5-3.1,11.1-6,16.6-9c0.5-0.3,1.3-0.9,1.3-1.3
	C263.9,223.7,263.9,219.4,263.9,214.9z"/>
<path class="st0" d="M212.6,174.8c1.4,0,2.8-0.1,4.2,0.1c0.5,0.1,1.1,0.7,1.4,1.2c2.9,4.6,5.8,9.2,8.9,14.2c0-5.4,0-10.3,0-15.3
	c1.8,0,3.4,0,5.1,0c0,8.4,0,16.9,0,25.6c-1.4,0-2.9,0.1-4.3-0.1c-0.5-0.1-0.9-0.7-1.3-1.2c-2.9-4.6-5.8-9.2-8.9-14.2
	c0,5.5,0,10.6,0,15.7c-1.8,0-3.4,0-5.1,0C212.6,192.1,212.6,183.5,212.6,174.8z"/>
<path class="st0" d="M125.2,175c3.3,0,6.6-0.3,9.8,0.1c4.8,0.6,7.3,5.5,5.5,10c-0.4,0.9-0.3,1.5,0.4,2.2c2.2,2.5,2.7,5.4,1.5,8.5
	c-1.2,3.1-3.6,4.8-6.9,5.1c-0.6,0.1-1.3,0-1.9,0c-2.7,0-5.5,0-8.4,0C125.2,192.2,125.2,183.6,125.2,175z M130.3,189.6
	c0,2.1,0,4.1,0,6.1c1.6,0,3,0.1,4.4,0c1.7-0.1,2.9-1.3,3-3c0-1.7-1.1-3-3-3.1C133.4,189.5,131.9,189.6,130.3,189.6z M130.3,180
	c0,1.6,0,2.9,0,4.4c1.2,0,2.2,0,3.3,0c1.3,0,2.2-0.7,2.3-2.1c0.1-1.4-0.8-2.2-2.2-2.3C132.6,179.9,131.5,180,130.3,180z"/>
<path class="st0" d="M169.8,198.1c-1.3,1.1-2.5,2.2-3.9,3.3c-2.5-2.9-4.9-5.8-7.7-9.1c0,3.1,0,5.6,0,8.4c-1.8,0-3.4,0-5.1,0
	c0-8.6,0-17.1,0-26.1c3.5,0.2,7.1,0.1,10.5,0.7c3.2,0.5,5.4,3.6,5.7,6.7c0.3,3.2-1.3,6.2-4.3,7.8c-0.4,0.2-0.9,0.5-1.5,0.8
	C165.6,193.1,167.6,195.5,169.8,198.1z M158.3,180c0,2,0,3.8,0,5.7c2-0.1,4.2,0.5,5.4-1.5c0.4-0.7,0.4-2.1,0-2.8
	C162.4,179.4,160.3,180,158.3,180z"/>
<path class="st0" d="M242.5,200.2c0-8.5,0-16.9,0-25.5c3.7,0.2,7.4,0.1,10.9,0.6c3,0.4,5.1,2.5,6.4,5.2c2.2,4.5,2.3,9.2,0.1,13.8
	c-1.9,4-5.1,6-9.6,6C247.8,200.2,245.2,200.2,242.5,200.2z M247.6,194.9c3,0.3,5.9,0.4,7.5-2.6c1.8-3.4,1.8-6.9-0.2-10.1
	c-1.7-2.8-4.5-2.4-7.3-2.2C247.6,185,247.6,189.9,247.6,194.9z"/>
<path class="st0" d="M202.3,199.5c-1.6,0.6-3.1,1.2-4.8,1.8c-0.6-1.6-1.3-3.2-1.8-4.8c-0.3-0.9-0.7-1.1-1.6-1.1
	c-2.2,0.1-4.3,0.1-6.5,0c-1.1,0-1.5,0.4-1.8,1.3c-0.5,1.5-1.1,3-1.7,4.6c-1.7-0.6-3.2-1.2-4.8-1.8c2.6-6.8,5.1-13.5,7.6-20.1
	c0.3-0.9,0.8-1.8,1-2.7c0.4-1.5,1.2-1.8,2.7-1.9c2-0.1,2.7,0.6,3.4,2.4C196.6,184.5,199.5,191.9,202.3,199.5z M190.8,183.5
	c-0.9,2.5-1.7,4.5-2.5,6.7c1.8,0,3.3,0,5,0C192.5,188,191.7,186,190.8,183.5z"/>
<g>
	<path class="st1" d="M120.3,148.5c-2.1,0.8-3.6,1.9-5.9-0.1c-7.3-6.1-16.1-9.3-26.4-7.3c-4.3,0.9-8.5,2.6-12.4,4.6
		c-2.6,1.3-4.8,1.9-7.7,1.2c-5.6-1.2-11.4-1.9-17.1,0.4c-1.5-7.3-3.2-14.4,1.5-21.6c7.7,3.2,15.3,1.2,22.8-1.1
		c7.9-2.4,10.1-7.2,6.6-13.7c-5.3-10-15-14-27.8-11.3c-11.1,2.3-19.1,7.6-21.9,17.8c-0.4,1.5-1.7,2.9-2.9,4.2
		c-11.4,12.7-18.6,27-20.4,43c-0.3,2.5-0.7,5-0.4,7.5c0.2,1.5,1.1,3.4,2.5,4.4c19,14.1,40.5,20,65.5,13.6c0.5-0.1,1-0.1,1.7-0.1
		c3.1,8.4,8.8,15.2,16.7,20.6"/>
	<path class="st1" d="M109,210c-5,2.5-12.7,1.9-14.3,0.8c-7.9-5.5-13.6-12.3-16.7-20.6c-0.8,0-1.3,0-1.7,0.1
		c-25,6.4-46.5,0.5-65.5-13.6c-1.3-1-2.3-2.9-2.5-4.4c-0.3-2.5,0.1-5,0.4-7.5c1.8-16.1,8.9-30.3,20.4-43c1.1-1.3,2.5-2.7,2.9-4.2
		c2.7-10.2,10.8-15.4,21.9-17.8c12.8-2.7,22.5,1.3,27.8,11.3c3.5,6.5,1.3,11.2-6.6,13.7c-7.5,2.3-15.1,4.4-22.8,1.1
		c-4.8,7.2-3,14.3-1.5,21.6c5.7-2.4,11.5-1.6,17.1-0.4c2.9,0.6,5.1,0.1,7.7-1.2c3.9-1.9,8.1-3.7,12.4-4.6c10.3-2,19.1,1.2,26.4,7.3
		c2.3,1.9,3.8,0.9,5.9,0.1"/>
</g>
<g>
	<path class="st1" d="M291.7,210.7c7.9-5.5,13.6-12.3,16.7-20.6c0.8,0,1.3,0,1.7,0.1c25,6.4,46.5,0.5,65.5-13.6
		c1.3-1,2.3-2.9,2.5-4.4c0.3-2.5-0.1-5-0.4-7.5c-1.8-16.1-8.9-30.3-20.4-43c-1.1-1.3-2.5-2.7-2.9-4.2c-2.7-10.2-10.8-15.4-21.9-17.8
		c-12.8-2.7-22.5,1.3-27.8,11.3c-3.5,6.5-1.3,11.2,6.6,13.7c7.5,2.3,15.1,4.4,22.8,1.1c4.8,7.2,3,14.3,1.5,21.6
		c-5.7-2.4-11.5-1.6-17.1-0.4c-2.9,0.6-5.1,0.1-7.7-1.2c-3.9-1.9-8.1-3.7-12.4-4.6c-10.3-2-19.1,1.2-26.4,7.3
		c-2.3,1.9-3.8,0.9-5.9,0.1"/>
	<path class="st1" d="M266.2,148.5c2.1,0.8,3.6,1.9,5.9-0.1c7.3-6.1,16.1-9.3,26.4-7.3c4.3,0.9,8.5,2.6,12.4,4.6
		c2.6,1.3,4.8,1.9,7.7,1.2c5.6-1.2,11.4-1.9,17.1,0.4c1.5-7.3,3.2-14.4-1.5-21.6c-7.7,3.2-15.3,1.2-22.8-1.1
		c-7.9-2.4-10.1-7.2-6.6-13.7c5.3-10,15-14,27.8-11.3c11.1,2.3,19.1,7.6,21.9,17.8c0.4,1.5,1.7,2.9,2.9,4.2
		c11.4,12.7,18.6,27,20.4,43c0.3,2.5,0.7,5,0.4,7.5c-0.2,1.5-1.1,3.4-2.5,4.4c-19,14.1-40.5,20-65.5,13.6c-0.5-0.1-1-0.1-1.7-0.1
		c-3.1,8.4-8.8,15.2-16.7,20.6c-1.6,1.1-9.3,1.8-14.3-0.8"/>
</g>
</svg>
