<?xml version="1.0" encoding="utf-8"?>
<!-- Generator: Adobe Illustrator 23.0.1, SVG Export Plug-In . SVG Version: 6.00 Build 0)  -->
<svg version="1.1" id="Layer_1" xmlns="http://www.w3.org/2000/svg" xmlns:xlink="http://www.w3.org/1999/xlink" x="0px" y="0px"
	 viewBox="0 0 384 384" style="enable-background:new 0 0 384 384;" xml:space="preserve">
<style type="text/css">
	.st0{fill:none;stroke:#808080;stroke-width:10;stroke-miterlimit:10;}
	.st1{fill:none;stroke:#808080;stroke-width:10;stroke-linecap:round;stroke-linejoin:round;}
	.st2{fill:#808080;}
</style>
<g>
	<g>
		<path class="st0" d="M275,56.9c1.8,58.9-19.2,103.1-66.4,134.4c-9.7,6.4-17.5,6.3-27-0.1c-41.4-27.3-63.7-65.3-66.2-114.8
			c-0.7-13.8,0.1-27.7-0.3-41.6c-0.3-10.1,3.6-12.3,13.9-12.7c19-0.7,37.8-4.9,56.8-7c6.6-0.7,13.6-0.2,20.2,0.6
			c17.9,2.2,35.7,6.7,53.6,6.7c12.2,0,16.2,2.7,15.5,14.3C274.6,44.3,275,52.1,275,56.9z"/>
		<path class="st1" d="M248.1,53.1l-64.5,64.5L162,96.2"/>
	</g>
	<g>
		<path class="st2" d="M178.6,334.7c-0.1-1.8-0.1-3.6-0.1-5.3c0-6.6-0.1-12.3-3.1-15.4c-1.9-1.9-5.1-2.8-9.7-2.8l-1.4,0l-0.2-1.4
			c-1-8.6-0.7-17.5-0.4-26.1c0.8-20.8,1.1-34.8-13.9-51.7c-0.5-0.6-4.9-4.4-5.5-4.9c-19.3-12.8-41.9-34.7-63.4-32.4
			c-7.3,0.8-10.5,6.8-10.5,6.8c0-0.1-2.6-10-2.7-10.5c-1.4-5-2.7-10-4.1-15c-2.5-9.3-3.1-18.8-5.8-28.2c-4.8-17.1-15.4-25-29.2-21.7
			c-5.5,1.3-9.9,4.4-12.6,8.9c-3.7,6.1-4.3,14.5-1.8,24.2c1.8,6.8,3.7,13.7,5.7,20.4c3.5,12.2,7.2,24.9,9.6,37.6
			c5.8,31.2,19,52.9,41.5,68.1c6.5,4.4,11.2,15.8,12.5,24.7l0.3,1.9l-1.9,0c-7.7-0.2-11.6,0-13.2,1.6c-1.5,1.5-1.4,5.2-1.3,11.4
			c0,1.4,0.1,3,0.1,4.7c0.1,8.5,0.1,15.8,0,22.5c-0.1,7.4-0.1,12.4,2.1,14.6c1.7,1.7,5.1,2.4,11.2,2.4c1.6,0,3.2,0,4.9,0
			c6.9,0,14.7,0.1,22.8,0.1c16.8,0.1,34.1,0.3,47.1-0.1l1.2,0c11.4-0.4,17.8-0.6,20.3-3.3c2.6-2.8,2.4-9.2,1.8-22
			C178.9,341.1,178.7,338,178.6,334.7z M70,272.3c-15.3-10.7-24.3-24.5-28.2-43.5c-3.1-15.2-7.4-30.3-11.6-45
			c-2.4-8.4-4.9-17.1-7.1-25.7l0-0.2c-1.5-5.8-3.2-12.3-0.2-17.2c1.6-2.7,4.5-4.5,8.5-5.4c4.1-0.9,7.6-0.5,10.3,1.3
			c4.7,3,6.6,9.3,7.9,15.1c1.6,7.2,3.1,14.6,4.6,21.8c3.1,14.8,6.2,30.1,9.9,45c1.5,6,5.2,12,9.2,15c10.3,7.5,21.6,13.5,33.3,19.5
			c1.1,0.6,3.4-0.2,5.4-0.8c0.5-0.2,1.1-0.3,1.6-0.5c-0.2-0.4-0.3-0.8-0.5-1.2c-0.7-1.9-1.4-3.8-2.5-4.6c-3.5-2.3-7.3-4.3-10.9-6.3
			c-5.9-3.2-12-6.6-17.2-10.9c-5.1-4.3-9.6-14.1-7.8-19.5c1.2-3.4,3.2-5.7,6.1-6.7c4.9-1.8,10.9-0.2,15.1,2.3
			c5.1,3.1,11.3,6.1,16.4,9c7.2,4.2,13.7,9.6,21,14.1c13.4,8.3,20.8,20.7,21.3,35.8c0.3,10.3,0.3,20.6,0.2,31.5
			c0,4.9-0.1,9.9-0.1,15.1v1.6h-1.6c-10.3,0-20.3,0.1-29.9,0.2c-9.6,0.1-19.4,0.1-29.5,0.1h-1.7l0.1-1.7
			C92.9,295.3,86.1,283.6,70,272.3z M171.8,359H74v-37h97.8V359z"/>
		<path class="st2" d="M211.1,343.8c-0.5,12.8-0.8,19.2,1.8,22c2.6,2.8,8.9,3,20.3,3.3l1.2,0c13.1,0.4,30.4,0.3,47.1,0.1
			c8.1-0.1,15.8-0.1,22.8-0.1c1.7,0,3.3,0,4.9,0c6.1,0,9.4-0.7,11.2-2.4c2.3-2.3,2.2-7.2,2.1-14.6c-0.1-6.6-0.1-14,0-22.5
			c0-1.7,0-3.3,0.1-4.7c0.1-6.2,0.2-9.9-1.3-11.4c-1.6-1.6-5.5-1.7-13.2-1.6l-1.9,0l0.3-1.9c1.3-8.9,6-20.2,12.5-24.7
			c22.5-15.2,35.7-36.9,41.5-68.1c2.4-12.7,6-25.3,9.6-37.6c1.9-6.7,3.9-13.6,5.7-20.4c2.5-9.7,1.9-18.1-1.8-24.2
			c-2.7-4.5-7.1-7.6-12.6-8.9c-13.7-3.3-24.4,4.6-29.2,21.7c-2.6,9.4-3.2,19-5.8,28.2c-1.4,5-2.7,10-4.1,15
			c-0.1,0.5-2.7,10.4-2.7,10.5c0,0-3.3-6-10.5-6.8c-21.6-2.3-44.2,19.6-63.4,32.4c-0.6,0.4-5,4.3-5.5,4.9
			c-15,16.8-14.7,30.9-13.9,51.7c0.3,8.6,0.7,17.5-0.4,26.1l-0.2,1.4l-1.4,0c-4.6,0-7.8,0.9-9.7,2.8c-3.1,3-3.1,8.7-3.1,15.4
			c0,1.7,0,3.5-0.1,5.3C211.4,338,211.2,341.1,211.1,343.8z M298.2,310.2l0.1,1.7h-1.7c-10,0-19.9-0.1-29.5-0.1
			c-9.7-0.1-19.7-0.2-29.9-0.2h-1.6V310c0-5.2,0-10.2-0.1-15.1c-0.1-10.9-0.2-21.2,0.2-31.5c0.5-15.1,7.9-27.5,21.3-35.8
			c7.3-4.5,13.8-9.9,21-14.1c5-2.9,11.3-6,16.4-9c4.2-2.5,10.2-4.1,15.1-2.3c2.8,1,4.9,3.3,6.1,6.7c1.9,5.4-2.7,15.2-7.8,19.5
			c-5.2,4.4-11.3,7.7-17.2,10.9c-3.7,2-7.4,4.1-10.9,6.3c-1.1,0.7-1.8,2.7-2.5,4.6c-0.1,0.4-0.3,0.8-0.5,1.2
			c0.5,0.2,1.1,0.3,1.6,0.5c2,0.6,4.3,1.3,5.4,0.8c11.7-6,23-12,33.3-19.5c4-2.9,7.7-8.9,9.2-15c3.6-14.9,6.8-30.2,9.9-45
			c1.5-7.1,3-14.5,4.6-21.8c1.2-5.8,3.2-12.1,7.9-15.1c2.8-1.8,6.3-2.2,10.3-1.3c4,0.9,6.9,2.7,8.5,5.4c3,4.9,1.3,11.4-0.2,17.2
			l0,0.2c-2.2,8.6-4.7,17.3-7.1,25.7c-4.2,14.7-8.5,29.9-11.6,45c-3.9,19-12.9,32.8-28.2,43.5C304,283.6,297.2,295.3,298.2,310.2z
			 M218.4,322h97.8v37h-97.8V322z"/>
	</g>
</g>
</svg>
