<?xml version="1.0" encoding="utf-8"?>
<!-- Generator: Adobe Illustrator 23.0.1, SVG Export Plug-In . SVG Version: 6.00 Build 0)  -->
<svg version="1.1" id="Layer_1" xmlns="http://www.w3.org/2000/svg" xmlns:xlink="http://www.w3.org/1999/xlink" x="0px" y="0px"
	 viewBox="0 0 384 384" style="enable-background:new 0 0 384 384;" xml:space="preserve">
<style type="text/css">
	.st0{fill:#808080;}
	.st1{fill:none;stroke:#808080;stroke-width:10;stroke-linecap:round;stroke-linejoin:round;}
</style>
<g>
	<path class="st0" d="M84.3,63.2c0.4-7.2-0.1-10.9,4.2-13.2c5.2-2.8,10.6-2.2,17.2-2.2c4-23.8,13.5-34.7,37.1-34.7
		c10.8,0,21.6,0,32.4,0c23.9,0,32.6,10.2,37.3,35c4.6,0,9.4,0.1,14.2-0.1c9-0.3,11.7-0.4,11.5,8.7c0,1.8,0,3.7,0,6.9
		c10.4,0,20.5,0,30.6,0c5.9,0,11.7-0.3,17.6,0.1c13.5,0.8,20.7,8.4,20.9,22c0.2,14.8,0,29.6,0,44.5c0,71.9,0,143.9,0,215.8
		c0,21.1-7.9,27.4-31.5,26.4c-77.2-3.3-154.4-4-231.6-0.1c-24.2,1.2-32.2-4.9-32.2-26.5c0-85.5,0-171,0-256.5c0-19.1,7-26,26.4-26
		C52.1,63.2,72.8,63.2,84.3,63.2z M84.3,74.5c-14.4,0-32.4,0-46.3,0c-12.8,0-15.1,2.4-15.1,15.1c0,85.5,0,171,0,256.5
		c0,14.3,1.4,15.7,16.1,15.7c79.9,0,159.9,0,239.8,0c16,0,18.2-2.3,18.2-18c0-84.3,0-168.5,0-252.8c0-2.2,0.8-4.8-0.2-6.4
		c-2.3-3.6-5.3-9.2-8.2-9.4c-16.5-0.9-33-0.4-49.7-0.4c-0.2,2.6-0.4,4.1-0.5,5.6c-0.4,15.6-0.4,15.6-15.8,15.6c-39.5,0-79,0-118.5,0
		C82.6,96.1,86.8,96.1,84.3,74.5z M227.1,56.8H92.6v28.1h134.5V56.8z M200.6,47.3c0-12.3-5.9-22.6-17.3-23c-16-0.5-32-0.5-48,0
		c-11.3,0.4-17.3,11.2-16.5,22.9H200.6z"/>
	<path class="st0" d="M321.1,211.5c0-24.1-0.1-48.2,0-72.2c0.1-16.9,9-25.7,25.8-25.5c16.1,0.2,24.6,9,24.7,25.7
		c0.1,48.5,0.1,96.9-0.1,145.4c0,6.3-1.9,12.7-3.4,19c-5.1,20.3-10.2,40.6-15.8,60.9c-0.8,2.8-2.5,7.4-5.7,7.5
		c-3.4,0.1-5.7-4.7-6.5-7.6c-6.4-23.5-12.3-47.1-18.2-70.7c-0.8-3.2-0.7-6.7-0.7-10.1C321.1,259.7,321.1,235.6,321.1,211.5z
		 M360.1,283.1c0-39.5,0-78.5,0-117.6c-9.4,0-18.1,0-26.8,0c0,39.7,0,78.7,0,117.6C342.6,283.1,351.1,283.1,360.1,283.1z
		 M362.4,153.9c0.6-10,2.5-20.8-7.7-27c-4.4-2.7-13.1-2.3-17.2,0.5c-9.5,6.6-7,16.8-6.8,26.7C340.5,154,351.8,153.9,362.4,153.9z
		 M345.9,341.6c0.5,0,1,0,1.4,0c3.8-15.3,7.7-30.5,11.6-46.3c-8.8,0-16.5,0-25.2,0C337.9,311.1,341.9,326.4,345.9,341.6z"/>
	<path class="st0" d="M52.9,132.3c0,18.8,0,36.2,0,54.3c17.6,0,34.8,0,53.5,0c0-4.9-0.1-9.3,0.2-13.6c0.2-2.5,2.8-4.5,5.5-4.6
		c3-0.2,5.2,2.2,5.2,4.6c0,27.8,3,24.9-23.1,25.1c-14.5,0.1-29-0.1-43.5,0.1c-6.7,0.1-9.4-2.5-9.3-9.3c0.3-19.4,0.3-38.9,0-58.4
		c-0.1-6.3,2.3-9,8.6-8.9c19.4,0.2,38.9-0.2,58.3,0.3c2.9,0.1,4.8,2.1,4.7,5.6c-0.1,3.3-1.7,4.6-4.6,4.7
		C90.3,132.5,72.1,132.3,52.9,132.3z"/>
	<path class="st1" d="M110.3,142.8L76,177.2l-11.5-11.5"/>
	<path class="st0" d="M185.6,183.1c2.1,1.6,4.1,3.4,6,5c0.8,0.7,1.6,1.4,2.4,2.1l2.3,2c2,1.7,4,3.4,6,5.2c0.4,0.3,0.7,0.3,0.9,0.2
		c0.4-0.2,1.3-0.8,3.3-3.1c2-2.3,2.4-3.3,2.5-3.7c0.1-0.2,0.1-0.5-0.4-0.9c-1.6-1.3-3.1-2.7-4.7-4c-4-3.4-8-6.8-12-10.3c0,0,0,0,0,0
		c-0.4-0.3-0.7-0.2-1-0.1c-0.7,0.3-1.9,1.4-3.3,3c-1.9,2.3-2.4,3.3-2.5,3.8C185.3,182.5,185.2,182.8,185.6,183.1z"/>
	<path class="st0" d="M258.8,183.1c-2.1,1.6-4.1,3.4-6,5c-0.8,0.7-1.6,1.4-2.4,2.1l-2.3,2c-2,1.7-4,3.4-6,5.2
		c-0.4,0.3-0.7,0.3-0.9,0.2c-0.4-0.2-1.3-0.8-3.3-3.1c-2-2.3-2.4-3.3-2.5-3.7c-0.1-0.2-0.1-0.5,0.4-0.9c1.6-1.3,3.1-2.7,4.7-4
		c4-3.4,8-6.8,12-10.3c0,0,0,0,0,0c0.4-0.3,0.7-0.2,1-0.1c0.7,0.3,1.9,1.4,3.3,3c1.9,2.3,2.4,3.3,2.5,3.8
		C259.2,182.5,259.2,182.8,258.8,183.1z"/>
	<path class="st0" d="M226.9,161.4c-0.1,2.6,0,5.3,0.1,7.9c0,1,0,2.1,0.1,3.2l0.1,3c0,2.6,0.1,5.3,0.2,7.9c0,0.5-0.2,0.7-0.4,0.8
		c-0.4,0.2-1.4,0.6-4.5,0.6c-3,0.1-4.1-0.2-4.4-0.4c-0.2-0.1-0.4-0.3-0.5-0.9c0-2-0.1-4.1-0.1-6.1c-0.1-5.2-0.2-10.5-0.4-15.8
		c0,0,0,0,0,0c0-0.5,0.3-0.7,0.5-0.8c0.7-0.4,2.2-0.6,4.4-0.6c3-0.1,4.1,0.3,4.5,0.5C226.7,160.7,227,160.9,226.9,161.4z"/>
	<path class="st0" d="M214.4,134.8c-19.9,2.7-36.7,15.3-44.9,33.8c-8.2,18.4-6.3,39.2,4.9,55.7c2.7,4,6.1,7.6,9.4,11.1l1.2,1.3
		c3.5,3.8,5.3,8.2,5.5,13.6c0.1,2.3-0.6,3.6-2.7,4.6c-5.2,2.7-8,8.1-7.3,14.1c0.6,5.5,4.8,10.2,10.4,11.8c0.5,0.1,0.9,0.3,1.4,0.4
		l1.2,0.3l0,1.7c0,0.9,0,1.7,0,2.5c0.1,11.7,8.1,20.5,19.5,21.4c6.1,0.5,12.2,0.5,18.2,0c11.3-0.9,19.3-9.8,19.4-21.5
		c0-0.9,0-1.8,0-2.7l0-1.7l0.5-0.1c0.9-0.2,1.8-0.4,2.6-0.7c5.7-1.9,9-5.7,9.8-11.3c1-6.7-1.8-11.7-8.2-15.1
		c-0.9-0.5-1.5-1.7-1.5-2.6c-0.2-5.9,1.4-10.5,4.9-14.1l1-1c2.1-2.2,4.2-4.4,6.2-6.7c12.1-14,16.6-32.4,12.5-50.5
		c-4.1-18-16.1-32.6-32.9-39.9c-3.7-1.6-7.8-2.6-11.7-3.6c-0.9-0.2-1.8-0.5-2.8-0.7c-0.4-0.1-4.4-0.5-8.6-0.6
		C218.5,134.3,214.6,134.8,214.4,134.8z M255.8,267c0,1.7-0.5,3.1-1.5,4.2c-1.2,1.3-3.1,1.9-5.5,2c-2.6,0-5.3,0-7.9,0
		c-2.3,0-4.6,0-6.9,0c-2.3,0-5.1,0.7-5.1,4c0,3.4,3.2,4,5.1,4c1.8,0,3.6,0,5.3,0c0.8,0,1.6,0,2.3,0h0.5l0.1,0.5
		c1.1,4.8,0.3,9.2-2.3,12.5c-2.5,3.2-6.5,5-11.3,5.1c-1.4,0-2.8,0-4.2,0c-1.2,0-2.4,0-3.6,0l-3.4,0c-5.7,0-9.7-1.4-12.3-4.2
		c-2.7-2.9-3.8-7.3-3.3-13.3l0-0.6l2.9,0c1.7,0,3.3,0,4.9,0c2,0,5.5-0.6,5.5-4c0-1.1-0.3-1.9-0.9-2.6c-0.9-0.9-2.4-1.4-4.4-1.4
		c-2.1,0-4.1,0-6.2,0c-2.6,0-5.4,0-8.1,0c-2.4,0-4.2-0.7-5.5-2c-1-1.1-1.6-2.5-1.5-4.2c0.1-3.6,2.8-6,6.9-6c17.7,0,35.6,0,53.3,0
		C253,261,255.7,263.3,255.8,267z M252,152.2c10.7,7.9,17.6,19.5,19.3,32.6c2.1,15.9-2.4,30-13.4,41.8l-0.3,0.3
		c-0.3,0.3-0.5,0.6-0.8,0.9c-8.1,7.6-11.6,15.3-10.8,24.3l0.1,0.7h-19.6v-45.2h0.6c0.8,0,1.6,0,2.4,0c1.8,0,3.7,0,5.5,0
		c3,0,4.8-1.5,4.8-4c0-1.1-0.3-2.1-1-2.8c-0.8-0.8-2.1-1.3-3.7-1.3c-8.7,0-17.4,0-25.8,0c-1.6,0-2.9,0.5-3.7,1.3
		c-0.7,0.7-1,1.7-1,2.8c0,2.5,1.8,3.9,4.9,3.9c1.8,0,3.5,0,5.3,0c0.8,0,1.7,0,2.5,0h0.6v45.2h-19.2l-0.1-2c-0.1-1-0.1-1.9-0.2-2.9
		c-0.3-6.8-3.3-12.6-9.4-18.5c-8.4-8.1-13.5-17.1-15.7-27.7c-2.7-12.8,0.2-26.6,7.9-37.8c7.6-11.1,19.4-18.7,32.3-20.9
		C227.3,140.8,241,144,252,152.2z"/>
	<path class="st0" d="M46.4,226.5c11.7-0.1,23.6-0.1,35.1-0.1c4.7,0,9.4,0,14.1,0l13.6,0c11.6,0,23.7-0.1,35.5,0
		c2.4,0,3.2-0.2,3.7-0.4c0.9-0.4,2.3-1.4,2.4-4.5c0-3-1.4-4.1-2.2-4.4c-0.5-0.2-1.4-0.4-3.9-0.4c-9.1,0-18.3,0-27.4,0.1
		c-23.1,0-47.1,0.1-70.6,0.1c0,0,0,0-0.1,0c-2.2,0-3.2,0.3-3.7,0.5c-1.6,0.7-2.5,2.3-2.5,4.4c0,3,1.6,4.1,2.6,4.5
		C43.4,226.2,44.3,226.5,46.4,226.5z"/>
	<path class="st0" d="M46.4,256.5c11.7-0.1,23.6-0.1,35.1-0.1c4.7,0,9.4,0,14.1,0l13.6,0c11.6,0,23.7-0.1,35.5,0
		c2.4,0,3.2-0.2,3.7-0.4c0.9-0.4,2.3-1.4,2.4-4.5c0-3-1.4-4.1-2.2-4.4c-0.5-0.2-1.4-0.4-3.9-0.4c-9.1,0-18.3,0-27.4,0.1
		c-23.1,0-47.1,0.1-70.6,0.1c0,0,0,0-0.1,0c-2.2,0-3.2,0.3-3.7,0.5c-1.6,0.7-2.5,2.3-2.5,4.4c0,3,1.6,4.1,2.6,4.5
		C43.4,256.2,44.3,256.5,46.4,256.5z"/>
	<path class="st0" d="M46.4,286.5c11.7-0.1,23.6-0.1,35.1-0.1c4.7,0,9.4,0,14.1,0l13.6,0c11.6,0,23.7-0.1,35.5,0
		c2.4,0,3.2-0.2,3.7-0.4c0.9-0.4,2.3-1.4,2.4-4.5c0-3-1.4-4.1-2.2-4.4c-0.5-0.2-1.4-0.4-3.9-0.4c-9.1,0-18.3,0-27.4,0.1
		c-23.1,0-47.1,0.1-70.6,0.1c0,0,0,0-0.1,0c-2.2,0-3.2,0.3-3.7,0.5c-1.6,0.7-2.5,2.3-2.5,4.4c0,3,1.6,4.1,2.6,4.5
		C43.4,286.2,44.3,286.5,46.4,286.5z"/>
	<path class="st0" d="M46.4,316.5c11.7-0.1,23.6-0.1,35.1-0.1c4.7,0,9.4,0,14.1,0l13.6,0c11.6,0,23.7-0.1,35.5,0
		c2.4,0,3.2-0.2,3.7-0.4c0.9-0.4,2.3-1.4,2.4-4.5c0-3-1.4-4.1-2.2-4.4c-0.5-0.2-1.4-0.4-3.9-0.4c-9.1,0-18.3,0-27.4,0.1
		c-23.1,0-47.1,0.1-70.6,0.1c0,0,0,0-0.1,0c-2.2,0-3.2,0.3-3.7,0.5c-1.6,0.7-2.5,2.3-2.5,4.4c0,3,1.6,4.1,2.6,4.5
		C43.4,316.2,44.3,316.5,46.4,316.5z"/>
	<path class="st0" d="M54.2,346.5c26.6-0.2,53.5-0.2,79.6-0.2c10.6,0,21.3,0,32,0l30.8-0.1c26.4-0.1,53.7-0.1,80.6-0.1
		c5.5,0,7.3-0.2,8.4-0.4c2-0.4,5.3-1.4,5.4-4.5c0.1-3-3.1-4.1-5-4.4c-1.2-0.2-3.1-0.4-8.9-0.4c-20.8,0-41.6,0.1-62.3,0.1
		c-52.6,0.1-106.9,0.2-160.4,0.2c0,0-0.1,0-0.1,0c-5.1,0-7.2,0.3-8.4,0.5c-3.6,0.7-5.6,2.3-5.6,4.4c0,3,3.7,4.1,5.9,4.5
		C47.3,346.2,49.4,346.5,54.2,346.5z"/>
</g>
</svg>
