<?xml version="1.0" encoding="utf-8"?>
<!-- Generator: Adobe Illustrator 23.0.1, SVG Export Plug-In . SVG Version: 6.00 Build 0)  -->
<svg version="1.1" id="Layer_1" xmlns="http://www.w3.org/2000/svg" xmlns:xlink="http://www.w3.org/1999/xlink" x="0px" y="0px"
	 viewBox="0 0 313.7 332.3" style="enable-background:new 0 0 313.7 332.3;" xml:space="preserve">
<style type="text/css">
	.st0{fill:#9A9A9A;}
</style>
<path class="st0" d="M291.2,84.1l-1.4-0.4v-1.5V78c0-6.9,0-13.8,0-20.7c0-13.5,0-27.5,0-41.2c-0.1-9-7.2-16.1-16.1-16.1
	c-0.3,0-0.6,0-1,0c-8.6,0.5-14.9,7.7-14.9,17v177v4.7v2.7l-2.6-0.8c-1.4-0.4-2.2-0.7-3-1l0,0l0,0c-32.2-13.6-64.9-27.3-96.6-40.6
	c-3.3-1.3-3.7-3.7-3.7-6c0.1-25.1,0.1-50.6,0-75.7c0-4,2.1-5.4,4.4-6.4c12.4-5.1,25-10.4,37.1-15.5l8.5-3.6l24.6-10.4l12.3-5.2
	c1.6-0.7,2.7-1.6,3.1-2.7c0.3-0.9,0.2-1.8-0.3-2.9c-0.7-1.5-1.8-2.2-3.4-2.2c-0.8,0-1.7,0.2-2.7,0.6l0,0l0,0
	c-0.2,0.1-0.4,0.2-0.7,0.3c-0.3,0.1-0.6,0.3-1,0.4c-27,11.4-55,23.2-82.4,34.7c-2.7,1.1-5.8,1.8-8.7,1.8c-7.6,0.1-15.8,0.1-26.6,0.1
	c-4.4,0-8.9,0-13.3,0c-4.4,0-8.9,0-13.3,0c-1.7,0-3.3,0-4.6,0.3l0,0l0,0c-7.7,1.8-12,7-13.1,15.8L71.6,84h-1.8h-5.3
	c-9.6,0.1-16.4,6.9-16.5,16.5c-0.1,9.9-0.1,19.6,0,29.6c0.2,8.9,7.1,15.7,16,15.9l5.7,0h1.7l0.3,1.7c1.7,11.3,7.8,16.5,19,16.5
	c0.9,0,1.9,0,2.8-0.1l2.1-0.2v2.1V196v2h-2c-2.2,0-4.4,0-6.4,0c-2.1,0-4.1,0-6.1,0c-2.3,0-4.3,0-6.2-0.1c-0.4,0-0.8,0-1.2,0
	c-6.8,0-13.1,2.2-19.1,6.7c-1.8,1.3-3.4,2.8-5.2,4.3c-0.8,0.7-1.7,1.5-2.5,2.2l-2.2,1.9l-1-2.7c-3-8.5-8.6-12.4-17.7-12.4
	c-0.5,0-1,0-1.6,0c-2.1,0.1-4.3,0.1-7,0.1c-1.6,0-3.2,0-4.8,0c-1.6,0-3.2,0-4.8,0c-1,0-2,0-3,0C1.3,198.2,0,199.5,0,203v124.1
	c0,3.6,1.3,4.9,4.9,5c1.1,0,2.3,0,3.7,0c1.1,0,2.2,0,3.3,0c1.1,0,2.2,0,3.3,0c2.5,0,4.4,0,6.2,0.1c1.2,0.1,2.2,0.1,3.2,0.1
	c8.4,0,13.3-2.2,16.9-7.5l1.2-1.8l1.7,1.3c7.2,5.6,11.8,7.6,17.3,7.7c8.2,0.1,16.6,0.2,25.9,0.2c5.8,0,11.8,0,18.3-0.1
	c1.3,0,2.3-0.4,3-1.1c0.7-0.7,1.1-1.8,1-3c-0.1-1-0.3-3.8-4.9-3.8H65.6c-13.6,0-21.7-8.1-21.7-21.8c0-5.1,0-10.2,0-15.3
	c0-15,0-30.5-0.1-45.8c-0.1-11.9,4.7-21.5,14.7-29.3c5-4,10.4-5.9,16.7-5.9c0.2,0,0.3,0,0.5,0c8.9,0.1,18.5,0.1,31,0.1
	c5.2,0,10.3,0,15.5,0c5.2,0,10.3,0,15.4,0c7.5,0,12.3,4.1,12.4,10.8c0.1,3.1-0.9,5.8-2.9,7.8c-2.2,2.3-5.5,3.5-9.5,3.5h-37.1
	c-6.7,0-7.2,0.4-7.5,7c-1,17.6-11.1,27.8-28.5,28.9c-2.1,0.2-4.6,1-4.4,4.2l0,0l0,0c0.1,2.4,1.6,3.7,4.6,3.8c0.2,0,0.4,0,0.6,0
	c15.5,0,29-10,33.6-24.9c0.5-1.7,0.9-3.6,1.3-5.5c0.3-1.2,0.5-2.5,0.8-3.8l0.4-1.5h1.6h16h2.7l-0.8,2.6c-1.8,5.8-0.8,10.9,3.3,16
	l1,1.2l-1,1.2c-5.5,7.1-5.6,14.2-0.4,21.2l0.6,0.7l-0.2,0.9c-1.2,5.5-4.5,8.1-10,8.1c-0.8,0-1.7-0.1-2.7-0.2
	c-0.4-0.1-0.9-0.1-1.5-0.1c-0.5,0-1.1,0-1.7,0c-0.7,0-1.5,0-2.3,0h-2v-2c0-0.6,0-1.1,0-1.7c0-1.4,0-2.6-0.1-3.7l0-0.1l0-0.1
	c-0.1-1.7-0.7-4.5-3.9-4.5h0l0,0l-0.1,0c-2.2,0-3.7,1.7-3.8,4.3c-0.1,3.7-0.1,7.4,0,11.1c0.1,3.1,1.5,4.5,4.6,4.6
	c0.9,0,1.9,0.1,2.8,0.1c1.4,0.1,2.9,0.1,4.3,0.1c1.8,0,3.2-0.1,4.6-0.3c0.8-0.1,1.6-0.2,2.3-0.2c4.9,0,8.1,2.6,9.7,8l0.3,1l-0.6,0.8
	c-4.6,6-5.2,11.9-2,17.8c3.1,5.9,8.2,8.8,15.5,8.8c0.2,0,0.5,0,0.7,0c2.3-0.1,4.8-0.1,8.1-0.1c1.5,0,2.9,0,4.4,0c1.5,0,2.9,0,4.4,0
	c1.9,0,3.4,0,4.9,0c8-0.1,14.5-5.7,15.9-13.5c0.8-4.4-0.4-8.6-3.9-13.4l-0.9-1.2l0.9-1.2c5.5-7.3,5.5-14.2,0-21.6l-0.9-1.2l0.9-1.2
	c5.5-7.2,5.5-14.3,0-21.6l-0.9-1.2l0.9-1.2c4.7-6.1,5.4-12,2.2-18.1c-3.1-5.8-8.3-8.7-15.9-8.8l-2.5,0l0.6-2.4
	c2.2-9,2.4-12.9-0.9-17.3c-3.4-4.7-3.7-9.4-3.5-13.9c0.1-1.4,0.1-2.9,0-4.3c-0.2-2.4-1.7-3.9-3.9-3.9l-0.1,0l0,0h0
	c-2.2,0-3.7,1.6-3.8,4.1c-0.1,1.2,0,2.5,0,3.7c0,0.6,0,1.3,0,1.9v2h-2h-35.8h-2v-2v-29.7v-2h2c4.5,0,9,0,13.5,0c4.4,0,8.8,0,13.2,0
	c5,0,9.3,0,13.2,0c1.2,0,2.5,0.5,3.6,1c34.5,14.5,70.1,29.6,105.2,44.4l0,0l0,0c1.3,0.6,3,1.9,3.8,3.6c3.4,7,8.8,11.1,15,11.1
	c1.1,0,2.2-0.1,3.4-0.4c8.2-1.8,12.8-8.2,12.8-17.6v-44.2v-20.1v-1.4l1.3-0.5c15.1-5.6,22.5-14.3,22.6-26.6
	C313.8,98.4,306.4,88.9,291.2,84.1z M69.9,138.1c-0.7,0-1.4,0-2.1,0c-0.7,0-1.3,0-2,0c-0.8,0-1.4,0-2,0c-4.8-0.3-7.8-3.3-7.8-8
	c-0.1-9.9-0.1-20.1,0-30c0-4.7,3-7.7,8.1-8c0.5,0,1.1,0,1.8,0c0.6,0,1.2,0,1.8,0c0.7,0,1.3,0,2,0h2v2c0,14.3,0,27.8,0.1,42l0,2H69.9
	z M35.9,215.7c0,0.2,0,0.5,0,0.7v97.1c0,8.1-2.5,10.6-10.6,10.6H10.1h-2v-2c0-39,0-75.9-0.1-114.1l0-2h2c1.6,0,3.1,0,4.6,0
	c1.5,0,3.1,0,4.6,0c3.7,0,6.6,0,9.2,0.1c3.9,0.1,6.6,2.7,7.3,6.9C36,214,35.9,214.9,35.9,215.7z M167.8,316.2L167.8,316.2
	c-0.1,4.6-3.3,7.7-7.9,7.9c-4,0.1-8,0.1-12,0.1c-4,0-8,0-12-0.1c-4.5,0-7.8-3.2-8-7.7l0,0v0c0-4.6,3.4-8,8.1-8.1c1.2,0,2.5,0,4.1,0
	c1.3,0,2.7,0,4,0c1.3,0,2.7,0,4,0c1.3,0,2.5,0,3.8,0c1.3,0,2.6,0,3.9,0c1.5,0,2.7,0,3.9,0C164.5,308.3,167.8,311.5,167.8,316.2
	L167.8,316.2z M159.7,300.1c-1.2,0-2.5,0-4.1,0c-1.3,0-2.7,0-4,0c-1.3,0-2.7,0-4,0c-1.8,0-3.7,0-5.5,0c-1.9,0-3.8,0.1-5.7,0.1h0l0,0
	c-2.6-0.1-4.9-1-6.4-2.6c-1.4-1.5-2.1-3.5-2.1-5.7l0,0l0,0c0.3-4.7,3.6-7.7,8.5-7.7c3.8,0,7.7-0.1,11.6-0.1c3.9,0,7.8,0,11.6,0.1
	c4.9,0,8.3,3.2,8.3,7.9C167.9,296.8,164.6,300,159.7,300.1z M127.9,268.1c0-4.7,3.3-7.9,8.2-8c1.2,0,2.5,0,3.9,0c1.3,0,2.6,0,3.9,0
	c1.3,0,2.6,0,3.9,0c1.3,0,2.6,0,3.9,0c1.3,0,2.6,0,3.9,0c1.5,0,2.7,0,3.9,0c5,0.1,8.3,3.2,8.4,7.7c0.1,2.3-0.7,4.3-2.1,5.8
	c-1.6,1.6-3.8,2.5-6.4,2.5c-3.8,0-7.7,0.1-11.6,0.1c-3.9,0-7.8,0-11.6-0.1C131.2,276,127.9,272.8,127.9,268.1z M151.9,236.1
	c1.2,0,2.4,0,3.6,0c1.4,0,2.6,0,3.7,0c5.3,0.1,8.6,3.1,8.7,7.8l0,0v0c0,4.8-3.5,8.1-8.6,8.1c-3.8,0-7.6,0.1-11.4,0.1
	s-7.6,0-11.4-0.1c-2.8-0.1-5-1-6.6-2.6c-1.4-1.5-2.1-3.4-2-5.6c0.1-4.7,3.5-7.7,8.8-7.8c1.2,0,2.5,0,3.9,0c1.3,0,2.6,0,3.9,0
	c1.3,0,2.6,0,3.9,0C149.5,236.1,150.7,236.1,151.9,236.1z M143.7,76.1v77.8v1.8l-1.8,0.2l-0.3,0c-1,0.1-2,0.2-3.1,0.2H89.8
	c-7.1,0-9.9-2.7-9.9-9.8V83.7c0-6.7,2.9-9.6,9.7-9.6h52.1h2V76.1z M281.7,209.7c-0.9,4.1-3.8,6.5-7.7,6.5c-4.3,0-7.2-2.5-8-6.7
	c-0.2-1-0.2-2.1-0.1-3c0-0.3,0-0.5,0-0.8v-187c0-0.3,0-0.6,0-0.9c0-0.9,0-1.9,0.1-2.9c0.8-4.2,3.8-6.6,8-6.6h0l0,0
	c4.1,0.1,6.9,2.5,7.7,6.5l0,0l0,0c0.2,1.1,0.2,2.3,0.1,3.4c0,0.3,0,0.7,0,1v93.3v92.6c0,0.4,0,0.7,0,1.1
	C282,207.4,282,208.5,281.7,209.7z M292.6,130.5l-2.5,0.7v-2.6V95.8v-2.5l2.5,0.6c7.6,1.8,13.3,9.6,13.3,18.2
	C305.9,120.7,300.3,128.5,292.6,130.5z"/>
</svg>
