<?xml version="1.0" encoding="utf-8"?>
<!-- Generator: Adobe Illustrator 23.0.1, SVG Export Plug-In . SVG Version: 6.00 Build 0)  -->
<svg version="1.1" id="Layer_1" xmlns="http://www.w3.org/2000/svg" xmlns:xlink="http://www.w3.org/1999/xlink" x="0px" y="0px"
	 viewBox="0 0 380.6 381.1" style="enable-background:new 0 0 380.6 381.1;" xml:space="preserve">
<style type="text/css">
	.st0{fill:none;stroke:#808080;stroke-width:10;stroke-miterlimit:10;}
</style>
<path class="st0" d="M142,224c-9.6-8.5-16.2-14.1-17.8-32h-1c-2.4,0-4.7-0.6-6.8-1.8c-3.4-2.1-6.1-5.4-7.5-9.2
	c-3.5-8-9.8-19,2.6-35.1l-1.6-1.1l-0.3-2.3c-0.3-4.3-0.4-9.2-0.4-14.8c-0.3-19.7-0.7-43.8-16.6-48.6l-6.8-2l4.5-5.5
	c11.8-14.9,25.1-28.4,39.9-40.5c15-11.9,30.8-20,46-22.3c16-2.7,32.5,2,44.8,12.5c4.4,3.6,8.4,7.7,12.1,12.1
	c14.3,1.6,27.4,9.2,35.9,21c5.2,7.1,9.2,15.1,11.6,23.6c2.6,8.7,3.5,17.8,3.1,26.7c-0.4,16.3-13,27.1-18.6,43.3c2,0,4,0.6,5.8,1.6
	c6.7,3.6,6.8,11.2,5.1,17.8c-1.7,5.4-4,11.6-6.1,16.9c-2.6,7.1-9.9,6.3-13.3,7.7c-0.3,17.6-8.5,22.4-19.3,32.7
	c-15.9,17.6-72.4,22.7-91.2,2.6L142,224z M138.1,246.5l28.2,74.3l14.2-40.5l-6.9-7.7c-5.2-7.7-3.4-16.3,6.1-17.9
	c3.5-0.3,7.1-0.4,10.5-0.3c3.8-0.3,7.7-0.1,11.5,0.4c8.9,2,9.9,10.7,5.4,17.6l-6.9,7.7l14.2,40.5l25.5-74.3
	c18.4,16.6,83.4,20,103.7,31.3c28.1,15.8,29.2,64.7,29.2,95.4H8c0-24.8-1.6-80,26.4-95.4C59.4,263.9,117.6,264.9,138.1,246.5z"/>
</svg>
