<?xml version="1.0" encoding="utf-8"?>
<!-- Generator: Adobe Illustrator 23.0.1, SVG Export Plug-In . SVG Version: 6.00 Build 0)  -->
<svg version="1.1" id="Layer_1" xmlns="http://www.w3.org/2000/svg" xmlns:xlink="http://www.w3.org/1999/xlink" x="0px" y="0px"
	 viewBox="0 0 384 384" style="enable-background:new 0 0 384 384;" xml:space="preserve">
<style type="text/css">
	.st0{fill:#808080;}
</style>
<g>
	<path class="st0" d="M358.6,300.3c-7.7-17.9-30.4-98.4-30.4-98.4s-0.9-92.3-0.9-135.1c0-16.2,0-31.9,0-46.9
		c0-9.9-0.7-10.1-9.3-10.1c-29.2,0-58.3,0-87.5,0c-56.2,0-114.3,0-171.5-0.1c0,0,0,0-0.1,0c-3.6,0-5.9,0.6-7.2,2
		c-1.4,1.4-2,3.8-1.9,7.6C50.1,46.3,50,80,50,109.8l0,15.6c0,7.5,0.3,15.3,0.6,22.9c0.8,18.2,0.9,53.3,0.9,53.3s-21.8,56.9-31.9,80
		l-0.2,0.4c-3.6,8.2-7.6,17.1-11.4,25c-0.1,0.8-0.2,1.6-0.4,2.4c-0.2,1.1-0.5,2.4-0.1,2.8c1.8,2.3,6.4,2.3,10.1,2.3h0.8
		c114.8,0.2,220.8,0.2,333.6,0c0.5,0,1,0,1.5,0c3.8,0,5.5-0.9,7.2-3.3c0.2-0.6,2.1-1.8-1.5-9.4C359,301.1,358.7,300.6,358.6,300.3z
		 M60.2,20h258v178h-258V20z M22.3,304.4l1.5-3.5c5.9-13.9,11.9-30.6,17.6-46.7c5.7-15.9,11.5-32.4,17.3-45.9l0.6-1.5l56,0
		c63.8,0,129.7-1,194.6-1.1c0,0,0.1,0,0.1,0c3,0,11.8,0.5,11.8,0.5s9.7,34.6,13.3,49.3c3,12.2,7.2,26.9,10.9,37.4
		c0.7,1.7,1.3,3.5,2,5.3c0.3,0.9,0.7,1.9,1,3l1.2,3.3H22.3z"/>
	<path class="st0" d="M224.7,268.4c-1.1-2.6-2.2-5-3.4-8.5c-2.4-6.9-5.6-11.4-14.1-11c-5.1,0.3-10.3,0.2-15.4,0.2
		c-1.9,0-3.9,0-5.8,0c-12.9,0-19.4,0-23.5,2.7c-4.1,2.7-6.6,8.6-11.7,20.4c-1.7,4-2.1,6.9-1.2,8.4c0.9,1.4,3.6,2.2,7.7,2.2
		c7.2,0.1,14.6,0.1,21.8,0c3.1,0,6.2,0,9.3,0c0.1,0,0.2,0,0.2,0c3.3,0,6.5,0,9.8,0c7.5,0,15.3,0.1,22.9-0.1c2.2-0.1,5-0.5,6.1-2.2
		c1.1-1.7,0.4-4.4-0.4-6.4C226.2,271.8,225.4,270.1,224.7,268.4z M210.8,272.6H163l0.2-2.7c0.6-8.3,5-12,13.4-11.4
		c5.2,0.3,10.6,0.3,15.8,0.2c2.8,0,5.7-0.1,8.6-0.1c8.9,0.1,9.5,1.3,12.1,10.7l0.9,3.2L210.8,272.6z"/>
	<path class="st0" d="M299,94.1c0-16.1,0-31.8,0-45.9c0-8.9-0.8-9.6-9.9-9.6c-67.3,0-135,0-201.1,0c-9.1,0-9.7,0.5-9.7,9.7
		c-0.1,34.9-0.1,82.3,0,120.7c0,9.7,0.4,10,10.3,10c24.1,0,48.3,0,72.4,0l27.2,0c9.1,0,18.3,0,27.4,0c9.1,0,18.3,0,27.5,0
		c15.5,0,31.1,0,46.6,0.2c3.7,0.1,6.1-0.6,7.5-1.9c1.3-1.3,2-3.7,2-7.4C299,147.1,299,120.2,299,94.1z M288.7,168.8H88.4v-120h200.3
		V168.8z"/>
	<path class="st0" d="M134.8,144.6c1.6,0,3.6-2.1,5.4-3.9l0.2-0.2c5.3-5.5,10.7-11.2,16.3-17.2c2.4-2.6,4.9-5.2,7.6-8l1.9-2l1.8,2.1
		c1.4,1.6,2.7,3.1,3.9,4.6c2.4,2.8,4.4,5.2,6.6,7.4c1.9,1.9,3.5,3.6,5,5.1c5.2,5.3,8.3,8.5,10.3,8.5c0,0,0,0,0,0
		c2,0,5.2-3.3,10.5-8.7c1.5-1.5,3.2-3.3,5.1-5.2c5.1-5.1,10.2-10.2,15.9-15.8l12.8-12.8v6c0,2.2-0.1,4.1-0.2,5.7
		c-0.2,2.7-0.3,4.7,0.3,6.1c0.7,1.9,1.4,2.5,4.3,2.6c2.3,0.1,4.7-0.6,4.9-2c1-10.1,1-19.7-0.1-28.6c-0.1-1-0.4-3.7-1.6-4.8
		c-1-0.9-4.2-2-5.6-2.2l-2.7-0.3c-8.1-0.9-13.5-1.5-21.9-0.7c-2.2,0.2-3.9,1.4-4.2,2.9c-0.4,2.4-0.2,4.2,0.7,5.3
		c0.8,1.1,2.2,1.8,4.3,2.1c0.8,0.1,1.5,0.2,2,0.3c1.6,0.3,2.5,0.4,5.5,0.7l5.3,0.5l-35.3,36.2l-1.8-1.7c-2-2-4-3.9-6-5.8
		c-4.7-4.5-9.5-9.1-14.1-13.9c-2-2.1-3.7-3.1-5.3-3.1c0,0,0,0,0,0c-1.5,0-3.2,0.9-5.1,2.9c-7.7,7.9-15.7,15.8-23.4,23.5l-3.7,3.7
		c-4.5,4.4-5,6.3-2.5,9C133,144,134,144.6,134.8,144.6z"/>
</g>
</svg>
