<?xml version="1.0" encoding="utf-8"?>
<!-- Generator: Adobe Illustrator 23.0.1, SVG Export Plug-In . SVG Version: 6.00 Build 0)  -->
<svg version="1.1" id="Layer_1" xmlns="http://www.w3.org/2000/svg" xmlns:xlink="http://www.w3.org/1999/xlink" x="0px" y="0px"
	 viewBox="0 0 360.1 312.1" style="enable-background:new 0 0 360.1 312.1;" xml:space="preserve">
<style type="text/css">
	.st0{fill:#9A9A9A;}
</style>
<path class="st0" d="M353.3,152c-0.9,0-2,0.3-3.2,0.9c-3.7,1.8-7.3,3.7-10.9,5.4c-3.6,1.8-7.3,3.7-10.9,5.5c-3,1.5-5,2.1-6.8,2.1
	c-4,0-6.2-3.5-7.9-6.7c-7.7-14.7-15.5-29.4-23.2-44.1c-7.7-14.7-15.4-29.4-23.2-44.1c-3.9-7.5-2.9-10.7,4.6-14.9
	c27-15.1,54.5-30.6,81-45.5c0.2-0.1,0.4-0.2,0.6-0.3c0.8-0.4,1.5-0.8,2.1-1.4c2.2-2.1,1.5-3.9,0.8-5c-0.8-1.3-1.8-1.9-3-1.9
	c-0.5,0-1.1,0.1-1.7,0.3c-1.1,0.4-2.2,1.1-3.4,1.7c-8,4.5-15.9,8.9-23.8,13.4c-17.8,10-36.2,20.4-54.3,30.4
	c-8.3,4.5-13.3,9.1-13.2,18l0,2h-2c-2.7,0-5.3,0-8,0c-2.6,0-5.3,0-7.9,0c-7,0-15.3-0.1-23.6-0.4c-0.3,0-0.5,0-0.8,0
	c-9.2,0-16.9,3.3-23.6,10c-14.8,15-29.9,30.1-44.6,44.7c-6,5.9-11.9,11.9-17.9,17.9c-0.5,0.5-0.9,1-1.4,1.5c-0.5,0.5-0.9,1-1.3,1.4
	c-6,7.1-6.7,16.7-1.9,24.5c3.9,6.2,10.5,10,17.3,10c1.8,0,3.6-0.3,5.4-0.8c3.8-1.1,7.9-3.6,11.2-6.6c8.4-8,16.4-16.1,24.9-24.8
	c2.1-2.2,4.3-4.3,6.4-6.5l1.5-1.6l1.4,1.7c0.4,0.4,0.7,0.8,1,1.2c0.5,0.7,1,1.2,1.4,1.6c8.7,7.8,17.3,11.5,26.2,11.5
	c2.4,0,4.8-0.3,7.3-0.8c9.4-2.1,17.7-7.9,25.3-17.8c1.1-1.4,1.6-2.8,1.4-4c-0.1-0.9-0.6-1.8-1.5-2.5c-0.7-0.5-1.4-0.8-2.1-0.8
	c-1.3,0-2.7,0.9-4.3,2.6l-0.6,0.6c-3.3,3.5-6.7,7.1-10.6,9.8c-4.8,3.3-9.7,5-14.7,5c-4.9,0-9.8-1.6-14.4-4.8
	c-3.6-2.5-7.2-5.8-11.1-10.1c-1.9-2.1-3.3-3.1-4.5-3.1c-1.1,0-2.6,0.9-4.4,2.7l-34.5,34.5c-3.2,3.1-6.8,4.8-10.5,4.8
	c-3.3,0-6.4-1.4-8.9-3.9c-5.4-5.5-4.9-13.2,1-19.1c21.4-21.5,43.3-43.4,64.4-64.5c4.5-4.4,9.7-6.5,15.9-6.5c7.1,0,14.2,0.1,21.2,0.1
	c7,0,14.1,0,21.1-0.1c0.2,0,0.3,0,0.4,0c3,0,4.9,1.2,6.3,4c6.7,13,13.7,26.2,20.4,38.9c2.4,4.5,4.7,9,7.1,13.4
	c1.8,3.4,3.5,6.7,5.3,10c2.4,4.5,4.6,8.8,6.7,12.8l0.7,1.3l-1,1c-9.8,9.9-17.9,18.1-26.5,26.9l-1.5,1.5l-1.4-1.5
	c-1.5-1.7-3.2-3.4-5-5.2l-2.1-2.1c-4.7-4.8-9.6-9.8-14.7-14.4c-0.6-0.6-2.1-1.1-3.6-1.1c-0.4,0-0.7,0-0.8,0.1
	c-0.8,0.2-2.3,2.1-2.3,3c-0.1,1.2,1,3.3,2.2,4.6c8.9,9,17.9,18,26.6,26.8c2.9,2.9,5.9,5.9,8.8,8.8c1.4,1.3,2.6,2.5,3.6,3.7
	c4.5,5.5,4.3,13.4-0.5,18.1c-2.4,2.3-5.5,3.5-8.7,3.5c-3.5,0-6.9-1.4-9.6-4c-1-1-2-2-2.9-2.9c-1.3-1.3-2.5-2.5-3.7-3.7
	c-1-0.9-2-1.4-3.1-1.4c-0.9,0-1.8,0.4-2.6,1.1c-1.8,1.7-1.7,3.9,0.1,5.9c1,1.1,2.1,2.2,3.2,3.3c1.1,1.1,2.3,2.2,3.4,3.4
	c5.3,5.8,5.3,13.4,0,18.6c-2.5,2.4-5.6,3.7-8.9,3.7c-3.4,0-6.7-1.4-9.4-3.9c-1.2-1.1-2.3-2.2-3.4-3.4c-1.1-1.1-2.2-2.2-3.3-3.2
	c-1.1-1-2.2-1.5-3.3-1.5c-1,0-1.8,0.4-2.6,1.2c-2.3,2.4-0.8,4.8,0.3,6c1.1,1.2,2.3,2.4,3.5,3.6c0.9,0.9,1.9,1.8,2.8,2.8
	c5.3,5.6,5.4,13.5,0.3,18.6c-2.5,2.5-5.7,3.9-9,3.9c-3.4,0-6.8-1.4-9.6-4.1c-1.1-1-2.2-2.1-3.3-3.2c-1.1-1.1-2.1-2.1-3.1-3.1
	c-1.1-1.1-2.3-1.6-3.4-1.6c-0.9,0-1.8,0.4-2.6,1.2c-2.6,2.5-0.6,5.2,0.4,6.2c1,1.1,2,2.1,3.1,3.1c1.1,1.1,2.2,2.1,3.2,3.3
	c5.1,5.5,5.3,13.2,0.4,18.2c-2.4,2.4-5.8,3.8-9.3,3.8c-3.3,0-6.5-1.2-8.9-3.4c-2.3-2.1-4.6-4.4-6.8-6.6c-0.9-0.9-1.7-1.8-2.6-2.7
	l-1.1-1.1l0.8-1.3c4.4-7.8,4.7-15.1,0.7-22.1c-3.9-6.8-10.1-10.4-19-10.8l-1.8-0.1l-0.1-1.8c-1.1-13.9-8.4-21.2-22.4-22.4l-1.8-0.1
	l0-1.8c-0.1-6.5-2.2-11.6-6.3-15.7c-3.8-3.8-8.9-5.8-15.5-6.1l-1.7-0.1l-0.2-1.7c-1.8-14.1-8.9-21.8-20-21.8
	c-3.9,0-8.2,0.9-12.9,2.8l-1.2,0.5l-0.9-0.9c-9-8.9-17.7-17.6-26.8-26.7l-1-1l0.7-1.3c15.5-29.5,28.4-53.8,40.4-76.5
	c1-1.9,3.7-3.1,5.6-3.1c2.8,0,5.8,0,9.3,0c2.8,0,5.6,0,8.3,0c2.8,0,5.6,0,8.3,0c6.1,0,10.8,0,15.2-0.1c7.1,0,12.4,1.8,16.9,5.8
	c1,0.9,2,1.3,3,1.3c1.1,0,2.1-0.5,2.8-1.4c0.8-0.9,1.1-2,1-3.1c-0.1-1-0.7-1.9-1.6-2.5c-3.8-2.6-7.8-5.4-12-6.6
	c-3.8-1.1-8.1-1.1-12.2-1.2c-0.8,0-1.6,0-2.5,0c-4.9-0.1-10.2-0.1-17.2-0.1c-2.9,0-5.8,0-8.7,0c-2.9,0-5.9,0-8.8,0h-2l0-2
	c0.2-8.9-4.9-13.5-12.5-17.7c-11.4-6.1-22.8-12.6-33.9-18.9c-4.7-2.7-9.4-5.3-14.1-8L7.8,3C6.7,2.4,5.7,2.1,4.7,2.1
	c-1.4,0-2.4,0.7-3.2,2.1l0,0l0,0c-1.1,2.1-0.4,4.1,2.3,5.9l3.2,1.7c13.4,7.5,26.7,15,40,22.5c13.3,7.5,26.6,15,40,22.5
	c6.1,3.4,7.3,7.2,4,13.4c-7.9,14.9-15.9,30.2-23.6,44.9c-7.7,14.7-15.8,30-23.7,44.9c-1.4,2.8-3.6,6-7.5,6c-1.6,0-3.4-0.5-5.7-1.6
	c-2.5-1.2-4.9-2.5-7.4-3.7c-4.9-2.5-10-5-15-7.5c-1.3-0.6-2.5-1-3.5-1c-1.4,0-2.4,0.7-3.1,2.1c-0.4,0.9-1.8,3.5,3.1,6L28,172.1l0,0
	l0,0c1.3,0.7,2.8,1.2,4.4,1.6c1.2,0.3,2.4,0.4,3.6,0.4c4.7,0,8.9-2.1,12.5-6.3l1.4-1.6l1.5,1.5c8,7.9,15.9,15.8,24.2,24.1l1.5,1.5
	l-1.5,1.4c-1,0.9-2,1.8-3.2,2.8c-2.1,1.8-4.2,3.6-6,5.7c-4.9,5.4-6.7,12.7-4.8,19.6c1.9,6.9,7.1,12.3,14,14.4c1.5,0.5,3.2,0.8,4.9,1
	c0.8,0.1,1.7,0.3,2.6,0.4l1.6,0.3l0,1.6c0.2,6.3,2.3,11.4,6.3,15.6c4,3.9,9.2,6,15.9,6.3l1.9,0.1l0,1.9c0.1,6.5,2.2,11.7,6.4,15.8
	c4,3.9,9.1,5.9,15.5,6.1l1.2,0l0.5,1.1c0.3,0.7,0.5,1.2,0.5,1.7c0.5,9.6,5.1,16.2,13.6,19.5c2.7,1,5.3,1.6,7.8,1.6
	c5.5,0,10.8-2.5,15.6-7.5c1.1-1.1,2.1-2.3,3.2-3.5c1.4-1.5,2.8-3,4.3-4.6l1.5-1.5l1.4,1.5c1.1,1.2,2.2,2.3,3.2,3.4
	c2,2.2,3.8,4.2,5.7,5.9c4.2,3.8,9.5,5.8,14.9,5.8c9.2,0,16.9-5.7,19.6-14.4c0.5-1.7,0.7-3.4,1-5.3c0.1-0.8,0.3-1.6,0.4-2.4l0.3-1.6
	l1.6-0.1c6.3-0.2,11.4-2.2,15.5-6.2c4-3.9,6.1-9.1,6.4-15.9l0.1-1.9l1.9-0.1c6.6-0.2,11.7-2.3,15.7-6.4c3.9-4,6-9.2,6.2-15.5
	l0.1-1.6l1.6-0.3c0,0,0.1,0,0.2-0.1c0.2-0.1,0.6-0.3,1-0.3c9.9-0.6,16.4-5.2,19.5-13.7c3.2-8.7,1.2-16.5-5.9-23.5
	c-1.7-1.7-3.7-3.2-5.5-4.7c-0.7-0.6-1.4-1.1-2-1.6l-1.7-1.4l1.6-1.6c4.4-4.3,8.5-8.5,12.5-12.5c4.1-4.1,7.9-7.9,11.8-11.7l1.4-1.3
	l1.4,1.3c5.2,4.8,8.7,6.7,12.6,6.7c3,0,6.5-1.1,11.4-3.6c2.3-1.2,4.7-2.3,7-3.5c4.5-2.3,9.2-4.6,13.8-6.9c2.1-1.1,4.2-3,2.7-5.9
	C355.8,152.7,354.8,152,353.3,152z M90.3,226.9c-1.5,1.4-3.5,2.1-5,2.6c-0.5,0.2-0.9,0.3-1.2,0.4l-0.5,0.2l-0.5,0
	c-6.6-0.5-10.5-2.8-12.8-7.5c-2.3-5-1.7-9.9,1.7-13.7c5-5.4,10.3-10.7,15.7-15.7c2.2-2,5.1-3.1,8.2-3.1c3.4,0,6.7,1.4,9.2,3.8
	c4.9,4.7,5.3,12.5,0.9,17.4C101.5,216.1,96.4,221.2,90.3,226.9z M115.3,250c-2.7,2.5-6,3.9-9.4,3.9c-3.3,0-6.4-1.3-8.8-3.6
	c-2.5-2.4-3.9-5.6-4-8.9c-0.1-3.5,1.3-6.9,4-9.6c4.8-5.1,9.8-10,14.1-14.1c2.6-2.5,5.6-3.7,8.8-3.7c1.8,0,3.7,0.4,5.5,1.3
	c5,2.2,7.4,6.4,7.8,13.1l0,0.6l-0.3,0.5c-0.2,0.3-0.4,0.9-0.7,1.5c-0.7,1.5-1.6,3.6-3.1,5.2C124.7,241,119.9,245.6,115.3,250z
	 M138.2,275c-2.2,2-5.1,3.2-8.1,3.2c-3.5,0-6.8-1.4-9.3-3.9c-4.9-5-5.2-12.5-0.6-17.4c4.4-4.9,9.6-10,15.7-15.7
	c1.6-1.5,3.6-2.2,5.1-2.7c0.4-0.1,0.9-0.3,1.2-0.4l0.4-0.2l0.5,0c6.4,0.5,10.4,2.9,12.7,7.6c2.3,4.9,1.6,9.9-1.8,13.7
	C148.3,265.4,143.2,270.5,138.2,275z M178,283.2c-5,5.5-10.3,10.8-15.7,15.7c-2.3,2.1-5.1,3.2-8.1,3.2c-3.4,0-6.8-1.4-9.2-3.9
	c-4.9-4.9-5.2-12.5-0.7-17.4c4.4-4.9,9.6-10,15.7-15.7c1.6-1.5,3.6-2.2,5.1-2.7c0.4-0.1,0.9-0.3,1.2-0.4l0.4-0.2l0.5,0
	c6.4,0.5,10.4,2.9,12.7,7.6C182.1,274.5,181.4,279.5,178,283.2z"/>
</svg>
