<?xml version="1.0" encoding="utf-8"?>
<!-- Generator: Adobe Illustrator 23.0.1, SVG Export Plug-In . SVG Version: 6.00 Build 0)  -->
<svg version="1.1" id="Layer_1" xmlns="http://www.w3.org/2000/svg" xmlns:xlink="http://www.w3.org/1999/xlink" x="0px" y="0px"
	 viewBox="0 0 380.6 349.8" style="enable-background:new 0 0 380.6 349.8;" xml:space="preserve">
<style type="text/css">
	.st0{fill:#9A9A9A;}
</style>
<g>
	<g>
		<path class="st0" d="M320.6,243.1c-7.6-0.9-13.6,2.1-18.7,9.4c-27.9,39.4-64.4,59.3-108.8,59.3c-7.7,0-15.7-0.6-23.9-1.8
			c-51.3-7.6-94.2-47.1-106.7-98.3c-0.2-0.7-0.3-1.5-0.3-2.1c0-0.3,0-0.5-0.1-0.7l-0.2-1.9h4.8c2,0,4,0,5.9,0c3.9,0.1,7-1.5,8.7-4.3
			c1.6-2.6,1.6-6-0.1-9.2c-9.2-17.8-18.7-36.1-29.1-55.8c-1.8-3.4-4.6-5.4-7.8-5.5c-3.1-0.1-6.1,1.5-8.1,4.6
			c-8.7,13.3-17.5,26.9-26,40c-3.4,5.3-6.8,10.5-10.2,15.8v4.4c2,5,5.7,7.2,11.5,7c1.2-0.1,2.4,0,3.5,0.1c1,0.1,2,0.1,2.9,0.1
			c3.9-0.1,4.9,2.3,5.4,4.8c13.2,63.8,50.9,108,111.8,131.3c2.9,1.1,5,1.3,6.3,0.7c0.7-0.4,1.3-1.1,1.6-2.2c0.6-2,0.7-3.9-5.5-6.1
			c-32.8-11.6-59.6-32-79.7-60.6c-14.7-21-24-44.4-27.6-69.7c-0.7-4.9-1.4-5.5-6.5-5.7c-3-0.2-6-0.3-9.2-0.6
			c-1.5-0.1-2.9-0.2-4.5-0.3l-2.8-0.2L44,139.3l31.2,59.8l-2.9-0.2c-1.3-0.1-2.5-0.1-3.7-0.2c-2.4-0.1-4.5-0.3-6.7-0.4
			c-4-0.2-7.8-0.2-8.9,1.2c-1.1,1.2-0.6,4.5,0.4,9c8.7,40.4,34.6,74.9,70.9,94.5c36.2,19.6,79,22.3,117.3,7.5
			c27.6-10.6,50.1-28.7,66.7-53.6c2.2-3.3,5-5.4,8.1-6c2.7-0.5,5.4,0.1,7.9,1.7c2.5,1.7,4.1,4,4.6,6.7c0.6,3-0.2,6.1-2.2,9.1
			c-31.1,45.4-74.3,69.9-128.6,72.9c-7.4,0.4-14.9-0.2-22.2-0.8c-3.4-0.3-7-0.6-10.5-0.7c-0.2,0-0.3,0-0.4,0c-2.4,0-3.8,1.1-4.1,3.1
			c-0.5,3,1.6,4.2,3.5,4.7c0.4,0.1,0.9,0.2,1.3,0.2h0.3c20.2,2.8,39.7,2.3,58-1.5c46.5-9.6,83.5-34.7,110-74.6
			c3.5-5.2,4.1-10.9,1.8-16.8C333.2,248,328,244,320.6,243.1z"/>
		<path class="st0" d="M371.6,151c-1.7,0-3.3-0.2-5-0.4c-1.3-0.2-2.5-0.3-3.7-0.4c-3.3-0.2-4.9-1.6-5.6-5c-0.3-1.4-0.6-2.9-0.9-4.3
			c-1.6-7.8-3.2-15.9-5.7-23.5C333.4,64.7,293.2,24.9,240.4,8.1C187.6-8.6,131.8,0.8,87.1,33.8C69.8,46.6,55.3,62.5,44,80.9
			c-4.4,7.1-4.3,14.1,0.3,20.8c4.5,6.7,11,9.3,19.2,7.9c6.7-1.2,10.6-6,13.6-10.5c27.2-40.9,66.1-61.4,115.6-61.2
			c13.2,0.1,26.7,2.6,41.2,7.7c1.7,0.6,4.1,0.5,5.8-0.2c0.5-0.3,1.4-2.2,1.2-2.9c-0.6-1.6-2.4-3.4-3.8-4c-21-7.8-43-10.4-65.5-7.5
			c-35.1,4.4-64.6,19.9-87.8,46c-3.8,4.3-7.2,9.1-10.5,13.7c-1.4,2-2.9,4.2-4.5,6.2c-3.8,5.1-10.1,6.5-15.1,3.2
			c-4.9-3.2-6.2-9.4-3.3-14.7c0.4-0.7,0.8-1.3,1.2-1.9l0.2-0.4c35-55.2,99.6-83.7,164.6-72.7c70.9,12,125.9,69.9,133.8,141
			c0.5,4.8,1.4,5.7,6.3,6.1c3.1,0.3,6.1,0.6,9.4,0.9c1.5,0.2,3.1,0.3,4.7,0.5l2.9,0.3l-39.9,54.4l-27.7-61.3l2.8,0.3
			c1.7,0.2,3.3,0.3,4.9,0.5c3.4,0.3,6.6,0.7,9.8,0.8c1.2,0.1,2.7-0.1,3.7-1.2c0.8-0.9,1.1-2.3,0.8-4c-6.2-36.3-23.9-66.3-52.6-89.1
			c-3.8-3-7.7-5.6-12.2-8.5c-2.2-1.4-4.4-1.1-5.7,0.8c-2,2.8,0.4,5,1.5,5.8c0.6,0.4,1.1,0.8,1.7,1.2l0.7,0.4
			c19.8,13,35.3,30.3,46.1,51.4c5.3,10.5,9,21.1,11.3,32.5l0.4,2.2l-2.2-0.2c-1-0.1-1.9-0.2-2.9-0.3c-1.9-0.2-3.8-0.4-5.6-0.5
			c-0.3,0-0.6,0-0.8,0c-3.2,0-6,1.4-7.7,3.8c-1.7,2.5-2,5.6-0.7,8.5c8.3,18.8,16.9,38,26.5,58.7c1.4,3,4.1,5,7.1,5.3
			c3.1,0.3,5.9-1,7.9-3.6c6.5-8.7,13-17.7,19.3-26.3c6.1-8.3,12.3-16.9,18.6-25.4c2.1-2.8,2.4-6.2,0.9-9.3
			C378.2,153,375.1,151.1,371.6,151z"/>
	</g>
	<g>
		<path class="st0" d="M119.1,141.2H139c8.3,0,14.1,1.2,17.7,3.7c3.5,2.4,5.3,6,5.3,10.5c0,2.5-0.4,4.6-1.3,6.4
			c-0.9,1.7-2,3.1-3.4,4.1s-2.8,1.7-4.2,2.1v0.4c1.6,0.4,3.1,1,4.7,1.9c1.5,0.9,2.8,2.2,3.9,4c1,1.8,1.5,4.2,1.5,7.2
			c0,3.5-0.9,6.4-2.6,8.9s-4.3,4.4-7.5,5.8c-3.3,1.3-7.1,2-11.6,2h-22.2v-57H119.1z M134.6,163.1h4.6c2.6,0,4.3-0.5,5.4-1.6
			c1-1.1,1.6-2.3,1.6-3.8c0-1.6-0.6-2.8-1.8-3.6s-3-1.2-5.5-1.2h-4.3V163.1z M134.6,174.4v12h5.4c2.7,0,4.6-0.6,5.6-1.7
			c1.1-1.2,1.6-2.6,1.6-4.4c0-1-0.2-2-0.7-2.9s-1.2-1.6-2.3-2.2c-1.1-0.6-2.6-0.8-4.5-0.8L134.6,174.4L134.6,174.4z"/>
		<path class="st0" d="M210.7,198.3h-41.4v-10.2l13.9-14.1c2.9-3,5.1-5.4,6.7-7.3c1.6-1.8,2.7-3.4,3.4-4.6c0.7-1.3,1-2.6,1-4
			c0-1.7-0.5-2.9-1.6-3.7s-2.4-1.1-3.9-1.1c-1.8,0-3.6,0.5-5.4,1.5c-1.8,1-3.9,2.5-6.2,4.6l-8.5-9.9c1.7-1.5,3.5-3,5.5-4.4
			c1.9-1.4,4.2-2.5,6.8-3.4s5.8-1.3,9.6-1.3c3.9,0,7.2,0.7,10.1,2c2.9,1.4,5.1,3.2,6.6,5.6c1.6,2.4,2.3,5,2.3,8
			c0,3.3-0.6,6.3-1.8,8.8c-1.2,2.6-3,5.2-5.4,7.8s-5.4,5.5-9.1,8.8l-4.2,3.8v0.4h21.6L210.7,198.3L210.7,198.3z"/>
		<path class="st0" d="M219.9,141.2h19.9c8.3,0,14.1,1.2,17.7,3.7c3.5,2.4,5.3,6,5.3,10.5c0,2.5-0.4,4.6-1.3,6.4
			c-0.9,1.7-2,3.1-3.4,4.1s-2.8,1.7-4.2,2.1v0.4c1.6,0.4,3.1,1,4.7,1.9c1.5,0.9,2.8,2.2,3.9,4c1,1.8,1.5,4.2,1.5,7.2
			c0,3.5-0.9,6.4-2.6,8.9s-4.3,4.4-7.5,5.8c-3.3,1.3-7.1,2-11.6,2h-22.2v-57H219.9z M235.3,163.1h4.6c2.6,0,4.3-0.5,5.4-1.6
			c1-1.1,1.6-2.3,1.6-3.8c0-1.6-0.6-2.8-1.8-3.6s-3-1.2-5.5-1.2h-4.3V163.1z M235.3,174.4v12h5.4c2.7,0,4.6-0.6,5.6-1.7
			c1.1-1.2,1.6-2.6,1.6-4.4c0-1-0.2-2-0.7-2.9s-1.2-1.6-2.3-2.2c-1.1-0.6-2.6-0.8-4.5-0.8L235.3,174.4L235.3,174.4z"/>
	</g>
</g>
</svg>
