<?xml version="1.0" encoding="utf-8"?>
<!-- Generator: Adobe Illustrator 23.0.1, SVG Export Plug-In . SVG Version: 6.00 Build 0)  -->
<svg version="1.1" id="Layer_1" xmlns="http://www.w3.org/2000/svg" xmlns:xlink="http://www.w3.org/1999/xlink" x="0px" y="0px"
	 viewBox="0 0 355.5 380.5" style="enable-background:new 0 0 355.5 380.5;" xml:space="preserve">
<style type="text/css">
	.st0{fill:#9A9A9A;}
</style>
<g>
	<path class="st0" d="M355.4,97.9c0-11.3-6.5-17.8-17.9-17.8c-5,0-10,0-15,0l-19.2,0v-6.3c0-3.5,0-6.9,0-10.4c0-7.8,0-15.6,0-23.3
		c0-9.1-4.8-13.9-13.8-13.9c-7.2,0-13.2,0-18.7,0c-4.5,0-5.2,1.9-5.2,3.8c0,1,0,3.9,5.1,4c3.9,0,7.8,0,11.6,0c1.9,0,3.8,0,5.7,0
		c6.5,0,7.6,1.1,7.6,7.8c0,58.5,0,117,0,175.5c0,6.7-1.2,7.8-8,7.8H67.8c-6.7,0-7.9-1.2-7.9-7.9l0-183.2l152.4,0c11,0,22.3,0,33.4,0
		c1.8,0,3.2-0.5,4.1-1.4c0.7-0.7,1-1.6,0.9-2.6c-0.1-3-2.8-3.6-5.1-3.6c-4.7,0-9.4,0-14.2,0c-5.3,0-10.6,0-15.8,0
		c-1.2,0-2.4,0.1-3.7,0.2c-3.5,0.3-7.2,0.5-10-1.1c-2.9-1.7-4.4-5.1-5.9-8.4c-0.5-1.1-1-2.2-1.5-3.2C189.6,4.5,182,0,171.5,0
		c0,0-0.1,0-0.1,0c-23.9,0.1-48.1,0.1-71.6,0C89.2,0,78.5,0,67.9,0C57.5,0,52.2,5.4,52.2,15.9c0,13.6,0,27.3,0,40.9l0,23.2l-11.6,0
		c-7.4,0-14.6,0-21.7,0C6.3,80.1,0,86.4,0,98.9c0,65.7,0,131.5,0,197.2c0,12.6,6.4,19,19.1,19c28.1,0,56.2,0,84.4,0l40.7,0v1.8
		c0,1.4,0,2.9,0.1,4.2c0.1,3.1,0.2,6-0.2,9c-1,8.5-5.9,15-10.5,20.2c-3.4,3.8-7.3,3.8-10.8,3.8c-1.1,0-2.1,0-3.1,0.1
		c-6.9,0.7-11.4,3.8-13.7,9.4c-0.6,1.4-1.1,3-1.7,4.5c-0.2,0.6-0.4,1.2-0.6,1.8c-2.1,5.9-1.6,7.6,3.4,10.6h141.5
		c5-3,5.5-4.8,3.3-10.7l-0.5-1.5c-0.6-1.6-1.1-3.2-1.8-4.8c-1.9-4.8-5.5-7.7-10.6-8.8c-1.7-0.3-3.5-0.4-5.4-0.5
		c-1.3,0-2.7-0.1-4.1-0.2c-2.2-0.2-3.8-0.8-4.9-1.7c-5.2-4.1-8.9-9.1-11.2-15c-2.6-6.6-2.9-13.5-1.2-20.9l0.3-1.3l7,0
		c4.2,0,8.3,0,12.4,0c1.1,0,2.3,0,3.4,0c2.7,0,5.4,0,8.1-0.1c2.5-0.1,4-1.6,4-3.9c0-3.1-2.6-3.7-4.2-3.7c-0.8,0-1.7,0-2.6,0
		c-0.4,0-0.7,0-1.1,0h-66.1c-51.4,0-102.9,0-154.3,0c-8.1,0-11.2-3-11.2-11.1c0-6.3,0-12.6,0-18.9l0-18.8h339.9l0,12.6
		c0,8.7,0,17.2,0,25.8c0,7.1-3.2,10.3-10.4,10.4c-6.4,0-12.8,0-19.2,0l-19.8,0c-10.5,0-21,0-31.5,0c-2.8,0-4.6,1.4-4.6,3.7
		c-0.1,2.2,1.7,3.8,4.5,4c0.5,0,1,0,1.5,0l0.7,0l18.3,0c16.5,0,33.1,0,49.6,0c12.3,0,18.8-6.5,18.8-18.9c0-17.4,0-34.8,0-52.2
		l0-20.9l0-35.4C355.5,157.8,355.5,127.9,355.4,97.9z M234,361.9c6.3,0,8.1,2.6,9.5,8.5l0.5,2.2H111.8l0.3-2
		c1.1-6.5,3.4-8.7,9.4-8.7C159.2,361.9,197,361.9,234,361.9z M204,315.4l-0.3,2c-1.7,13.3,1.1,24.3,8.5,33.7l2.2,2.8h-73.2l2.2-2.8
		c7.4-9.7,10.2-20.7,8.3-33.7l-0.3-2H204z M162.4,8.2c16.1-2.3,23.7,2,28.2,15.7l0.8,2.3H189c-1.5,0-2.9,0-4.3,0c-1.4,0-2.8,0-4.1,0
		c-2.7,0-5.3,0-8-0.1c-1.4,0-3.3-0.9-4.1-2.3c-1.9-3.2-3.7-6.5-5.4-9.7c-0.6-1.1-1.2-2.2-1.9-3.4l-1.2-2.2L162.4,8.2z M130.6,8
		C148,6.7,153.1,9.5,159,23.7l1,2.4l-6.4,0c-1.3,0-2.5,0-3.7,0c-3.4,0-6.7,0-10,0c-1.1,0-2.4-0.8-3-1.8c-2-3.5-3.9-6.9-5.9-10.6
		l-3.1-5.5L130.6,8z M60,13.8c0.2-3.8,2.6-6,6.4-6c3.8,0,7.5,0,11.3,0c10.8,0,21.9-0.1,32.9,0.3c3.9,0.1,7.9,2.7,10.5,5.1
		c2,1.9,3.3,4.3,4.7,6.8c0.6,1.1,1.2,2.2,1.9,3.3l1.6,2.7H59.9v-1.8c0-1.1,0-2.2,0-3.2C59.9,18.5,59.9,16.2,60,13.8z M19.6,106
		c0,35.8,0,71.5,0,107.3v37H8l-0.1-1.7c0-0.4,0-0.8-0.1-1.2c-0.1-0.9-0.1-1.8-0.1-2.8c0-48.6,0-97.2,0-145.8c0-8.2,2.9-11,11.1-11.1
		c7.2,0,14.5,0,21.8,0l11.2,0v11.8l-9,0c-5.7,0-11.3,0-16.9,0C20.3,99.7,19.6,100.3,19.6,106z M327.8,250.3H27.6V107.7h24.6l0,34.8
		c0,25.1,0,50.1,0,75.2c0,10.4,4.6,15.1,14.9,15.1c73.7,0,147.5,0,221.2,0c10.4,0,15-4.6,15-15c0-24.9,0-49.8,0-74.7l0-35.4h24.5
		V250.3z M347.7,246c0,0.6-0.1,1.2-0.1,1.9c0,0.3-0.1,0.6-0.1,0.9l-0.1,1.6h-11.5l0-144.1c0-6-0.6-6.6-6.5-6.6c-5.5,0-11.1,0-16.6,0
		l-8.9,0l-0.2-1.6c0-0.4-0.1-0.7-0.1-1c-0.1-0.6-0.2-1.2-0.2-1.7c0-1.2,0-2.5,0-3.8l0-3.2l1.6-0.2c0.4,0,0.7-0.1,1.1-0.1
		c0.7-0.1,1.5-0.2,2.2-0.2l1.9,0c9.1,0,18.5,0,27.7,0c6.8,0,9.9,3.2,9.9,10c0,47,0,93.9,0,140.9L347.7,246z"/>
	<path class="st0" d="M240.6,53.1c0.1,1.8-0.7,4-2,5.2c-8.7,7.9-17.7,15.9-26.6,23.7c-1.3,1.1-3.8,1.7-5.4,1.2
		c-4.9-1.4-9-0.4-12.8,3.2c-1.5,1.4-4.1,2.1-5.9,1.8c-6.4-1.3-12.9-2.8-19.4-4.6c-1.8-0.5-3.8-2.2-4.6-3.9c-2.5-5.1-7.5-8-12.4-7.2
		c-5.6,0.9-9.5,5-10.2,10.9c-0.3,2-1.6,4.2-3.2,5.2c-8.7,5.6-16.7,10.5-24.6,15.1c-1.8,1.1-4.5,1.4-6.7,0.9
		c-3.8-0.9-7.6-0.1-10.6,2.1c-2.8,2.2-4.4,5.4-4.4,9c-0.1,6.5,5,11.6,11.4,11.7c3.3,0,6.3-1.1,8.5-3.3c2.2-2.2,3.3-5.1,3.3-8.3
		c0-3.2,1.3-4.7,3.3-5.9c3.2-1.9,6.4-3.9,9.6-5.9c4.7-2.9,9.6-5.9,14.4-8.7c1.8-1,4.4-1,6.1-0.4c4.6,1.5,8.6,0.9,12.5-2.1
		c1.6-1.2,4.1-1.8,5.9-1.4c6.9,1.4,13.8,3,20.5,4.9c1.9,0.5,4,2,5.1,3.8c3.1,4.8,8.1,6.9,13.3,5.5c5-1.3,8.4-5.8,8.7-11.4
		c0.1-1.8,0.9-4.2,2.4-5.6c8.5-7.8,17.3-15.6,26.9-23.9c1.4-1.2,3.8-1.9,5.6-1.6c5.7,0.9,10.4-1.1,13-5.5c2.5-4.3,1.9-9.9-1.4-13.6
		c-3.4-3.8-8.7-5-13.4-2.9C242.8,42.9,240.2,47.4,240.6,53.1z M156.9,85.2c-0.4,0.3-0.8,0.6-1.1,0.9c-0.9,0.7-1.7,1.4-2.8,1.5
		c-0.1,0-0.1,0-0.2,0c-1.4,0-2.7-1.3-2.9-1.6c-0.6-0.7-0.9-1.4-0.7-2.1c0.3-1.3,1.4-3.3,3.2-3.6c1.2-0.2,2.2,0.5,3.2,1.2
		c0.4,0.3,0.8,0.6,1.2,0.9l2.2,1.4L156.9,85.2z M206.2,94.5c-0.3,1.6-2.1,3-3.5,3.3c-0.1,0-0.3,0-0.4,0c-0.6,0-1.2-0.3-1.8-0.8
		c-0.3-0.2-1.7-1.4-1.6-2.9c0-1.1,0.7-2,1.4-2.9c0.3-0.3,0.6-0.7,0.9-1.2l1.5-2.2l1.5,2.2c0.3,0.5,0.6,0.9,0.9,1.2
		C205.7,92.3,206.5,93.3,206.2,94.5z M248.6,51.4c0.2-1.5,1.6-3.3,3.2-3.6c1.2-0.3,2.2,0.5,3.2,1.2c0.4,0.3,0.8,0.6,1.2,0.9l2.2,1.4
		l-2.1,1.5c-0.5,0.3-0.8,0.6-1.2,0.9c-0.9,0.7-1.7,1.4-2.8,1.5c0,0-0.1,0-0.1,0c-1.3,0-2.4-1.1-2.7-1.5
		C248.7,52.9,248.5,52.2,248.6,51.4z"/>
	<path class="st0" d="M270.6,100c0-5.5-2.7-8.2-8.2-8.3c-3.4,0-6.8-0.1-10.1-0.1c-3.4,0-6.7,0-10.1,0.1c-5.6,0.1-8.3,2.8-8.3,8.3
		c-0.1,31.9-0.1,65.6,0,100.1c0,5.8,2.7,8.5,8.9,8.5c6.6,0.1,13.2,0,18.7,0c6.7,0,9.2-2.5,9.2-9.2c0-11.9,0-23.8,0-35.7l0-13.4
		l0-14.8C270.6,123.7,270.6,111.9,270.6,100z M262.5,200.7h-20.8V99.8h20.8V200.7z"/>
	<path class="st0" d="M134.5,199.6c0,6.2,2.6,8.9,8.7,9c6.6,0.1,13.1,0.1,19.4,0c5.9-0.1,8.7-2.8,8.7-8.7c0-27,0-54.3,0-80.9
		c0-5.8-2.8-8.5-8.8-8.6c-3.1,0-6.1,0-9,0c-3.7,0-7.1,0-10,0c-6.4,0-9,2.6-9,9c0,9.4,0,18.9,0,28.3l0,11.8l0,11.7
		C134.5,180.7,134.5,190.2,134.5,199.6z M142.4,118.4h20.9v82.3h-20.9V118.4z"/>
	<path class="st0" d="M114.5,140.6c-7-0.2-14.4-0.2-22.8,0c-3.6,0.1-6.5,2.6-6.7,5.5c-0.4,9-0.2,18.1-0.1,25c0,0.9,0.4,1.7,1,2.2
		c0.6,0.5,1.3,0.7,2.1,0.6c1.2-0.1,2.8-1.3,4.4-3c0.2-0.3,0.2-1.6,0.2-2.3c0-0.3,0-0.6,0-0.9c0-4.2,0-8.4,0-12.8l0-6.6h21.1v52.2
		H92.6v-1.8c0-0.7,0-1.4,0-2.1c0-1.4,0.1-2.7-0.1-4c-0.2-2.4-1.7-3.9-3.9-3.9c-0.1,0-0.2,0-0.2,0c-2.2,0.1-3.5,1.6-3.6,4
		c-0.1,2-0.1,4,0,6l0,1c0.1,6,2.7,8.6,8.7,8.6c6.1,0.1,12.1,0,18.7,0c6.8,0,9.4-2.6,9.4-9.5c0-5.3,0-10.6,0-15.9l0-6.6
		c0-2.7,0-5.5,0-8.2c0-6.4,0-13,0-19.5C121.6,145.9,120.7,140.8,114.5,140.6z"/>
	<path class="st0" d="M221,171.7c0-4.9,0-9.8,0-14.8c0-6.2-2.6-8.9-8.7-8.9c-3.3,0-6.6,0-9.8,0c-3.3,0-6.5,0-9.6,0
		c-5.9,0.1-8.7,2.8-8.7,8.6c-0.1,14.8-0.1,29.4,0,43.4c0,5.7,2.8,8.5,8.4,8.6c6.9,0.1,13.7,0.1,20.2,0c5.6-0.1,8.3-2.9,8.3-8.7
		c0-5,0-10.1,0-15.1l0-6.6L221,171.7z M212.9,200.6H192V156h20.9V200.6z"/>
	<path class="st0" d="M171.6,279c-0.1,0-0.3,0-0.4,0c-2.3,0.2-3.8,1.7-3.8,3.8c0,2.2,1.5,3.7,3.7,3.8c4.4,0.2,8.9,0.2,13.3,0
		c2.2-0.1,3.7-1.6,3.7-3.8c0-2.2-1.5-3.7-3.7-3.8c-1.5-0.1-2.9-0.1-4.5-0.1c-0.7,0-1.4,0-2.1,0l-6,0C171.7,279,171.7,279,171.6,279z
		"/>
</g>
</svg>
