<?xml version="1.0" encoding="utf-8"?>
<!-- Generator: Adobe Illustrator 23.0.1, SVG Export Plug-In . SVG Version: 6.00 Build 0)  -->
<svg version="1.1" id="Layer_1" xmlns="http://www.w3.org/2000/svg" xmlns:xlink="http://www.w3.org/1999/xlink" x="0px" y="0px"
	 viewBox="0 0 384 384" style="enable-background:new 0 0 384 384;" xml:space="preserve">
<style type="text/css">
	.st0{fill:#808080;}
</style>
<g>
	<path class="st0" d="M16.7,90.3c17.7,0,33.5,0.5,49.3-0.4c4-0.2,8.6-4.4,11.6-7.9c66.5-76.7,181.1-81.2,251.6-9.6
		c67.1,68.1,65,177.9-4.7,243.7c-69.5,65.6-179.7,61.1-243.1-10.7c-8.9-10.1-17.6-14.3-30.6-13.1c-10.7,0.9-21.6,0.2-34.2,0.2
		c0,15.1,0,29.7,0,44.2c0,11.6,0.2,23.2-0.2,34.9c-0.1,2.4-1.6,1.9-4.3,1.9c-2.7,0-4.4,0.4-4.6-0.7c-0.3-2.1-0.2-5.6-0.2-7.9
		c0-114.6,0-229.3,0-343.9c0-0.4,0-0.8,0-1.2c0.3-4.4,9-4.4,9.1-0.5c0.4,19.7,0.2,39.5,0.2,59.3C16.7,82,16.7,85.4,16.7,90.3z
		 M46.9,191.4c-0.2,89.1,71.6,161.6,160.4,161.8c88.8,0.2,161.2-71.7,161.8-160.6c0.6-88.3-72-161.5-160.6-161.9
		C119.8,30.3,47,102.7,46.9,191.4z M62.9,282.7c-34.2-61.3-34-121.7,0.8-182.4c-16.2,0-31,0-46.2,0c0,61,0,121.5,0,182.4
		C32.4,282.7,46.6,282.7,62.9,282.7z"/>
	<path class="st0" d="M90.7,217.8c0.1-5.3,12.4-4,12.4-4s2.1-9.5,2.8-12.3c6.1-21.8,12.8-43.4,19.4-65.4c-8.4,0.4-15.7,1-22.9,0.9
		c-1.3,0-4.2-0.7-4-4.2c0.2-3.2,1.2-4.2,3.9-4.8c11.5-2.5,24-3.6,34.2-8.8c20.6-10.5,41.3-19.3,63.4-19.3c2.9-5.3,2.7-13.6,7.4-13.7
		c4.5,0,4.4,7.8,7.6,13.5c23-0.1,45.1,10.3,67.4,21.6c9.1,4.7,20.8,4.4,31.2,6.6c2.6,0.6,4.1,1.3,4.6,4c0.5,3-1.4,4.7-3.9,4.9
		c-8.3,0.7-16.8,0.3-26.1,0.3c0.3,1.4,0.6,4.6,1.5,7.7c5.9,20,11.7,40.1,18,60c1.1,3.4,4.8,8.5,7.1,8.4c13.1-0.7,10.4,8.2,10.7,15.6
		c0.3,10-2.8,18.9-13.7,19.5c-20.5,1.1-41,0.7-61.5,0c-7.7-0.3-12.5-5.8-12.9-14c-0.3-6.1,0.1-7.9,0.3-16.1
		c0.2-6.2,11.5-4.3,11.5-4.3s2.9-10.8,4-14.7c6.7-23.4,13.7-46.6,20.7-70.5c-18.7-12.6-38.6-19.2-61.4-19.4c0,50.8,0,100.6,0,151.4
		c6.3,0,12-0.1,17.7,0c12.3,0.4,17.8,5.7,18.5,17.6c1.3,21.8,1.3,21.8-20.3,21.8c-17.4,0-34.9-0.3-52.3,0.1
		c-7.4,0.2-10.9-2.2-10.3-9.9c0.3-4.2-0.1-8.5,0.1-12.8c0.5-10.6,6.2-16.4,16.8-16.8c6.1-0.2,12.3,0,19.2,0c0-50.5,0-100.3,0-151.1
		c-22.1-0.7-41.6,6.5-59.7,18.1c-1.6,1.1-2.3,5.6-1.6,7.9c7,24.1,14.2,48.2,21.7,72.2c0.7,2.3,4,5.6,5.9,5.4
		c13-1.2,10.7,7.8,10.9,15.3c0.3,9.9-2.6,19-13.5,19.6c-20.5,1.1-41.1,1-61.5-0.3c-9.9-0.6-13.2-5-13.5-10.5
		C90.1,231.4,90.5,227.6,90.7,217.8z M280.9,147.8c-0.9,0-1.9,0-2.8,0.1c-6.4,21.5-12.8,43.1-19.4,65.3c14.3,0,27.3,0,41.6,0
		C293.7,191,287.3,169.4,280.9,147.8z M153.9,213.3c-6.8-22.6-13.2-44.1-19.6-65.5c-0.9,0-1.8,0-2.6-0.1
		c-6.4,21.6-12.9,43.2-19.5,65.6C126.6,213.3,139.2,213.3,153.9,213.3z M238.5,290.3c2.3-19.5,1.5-20.3-16.5-20.3
		c-10.1,0-20.1,0-30.2,0c-17.2,0-18.8,2.1-15.1,20.3C197,290.3,217.4,290.3,238.5,290.3z M100.9,223.5c-1.7,15.4-1.3,15.9,13.1,15.9
		c14.3,0,28.5,0.1,42.8,0c12.8-0.1,13.8-1.4,11.5-15.9C146.2,223.5,124,223.5,100.9,223.5z M315.3,223.6c-23,0-45.5,0-68,0
		c-1.6,15.5-1.3,15.8,13.2,15.9c13.9,0,27.8-0.6,41.6,0.2C313.6,240.3,318.2,236.2,315.3,223.6z"/>
</g>
</svg>
