<?xml version="1.0" encoding="utf-8"?>
<!-- Generator: Adobe Illustrator 23.0.1, SVG Export Plug-In . SVG Version: 6.00 Build 0)  -->
<svg version="1.1" id="Layer_1" xmlns="http://www.w3.org/2000/svg" xmlns:xlink="http://www.w3.org/1999/xlink" x="0px" y="0px"
	 viewBox="0 0 384 384" style="enable-background:new 0 0 384 384;" xml:space="preserve">
<style type="text/css">
	.st0{fill:#808080;}
</style>
<g>
	<path class="st0" d="M250.2,215.2c0,4.9,1.7,6.5,6.5,6.5c20.9,0,42.1,0,63,0c4.8,0,6.5-1.6,6.5-6.5c0-20.9,0-42.1,0-63
		c0-4.8-1.6-6.5-6.5-6.5c-10.4,0-20.9,0-31.3,0c-10.6,0-21.1,0-31.7,0c-4.8,0-6.5,1.6-6.5,6.5c0,7.4,0,14.9,0,22.3l0,9.2l0,9.2
		C250.2,200.4,250.2,207.8,250.2,215.2z M260.4,155.9h55.5v55.7h-55.5V155.9z"/>
	<g>
		<path class="st0" d="M343.6,43.8c-99,0-198,0-297,0c-18.2,0-30.5,12.3-30.5,30.6c0,32.8,0,65.6,0,98.4l0,42.7h10l0-39.7
			c0-33.6,0-67.2,0-100.8c0-13.5,7.7-21.3,21.1-21.3c98.6,0,197.2,0,295.9,0c13.4,0,21,7.6,21,20.9c0,41.3,0,82.5,0,123.8l0,49.1
			h-14l0-166.5c0-9.2-4-13.3-13.1-13.3c-94.6,0-189.2,0-283.9,0c-8.9,0-13,4.1-13,13c0,23,0,46,0,69l0,29.7h10.2V77.9h289.6v170
			H148.4v9.9h215.4l0.1,0.9c1.1,7.3-0.4,13.6-4.3,18.1c-4,4.6-10.2,7.1-17.4,7.1c-0.1,0-0.1,0-0.2,0c-46.8-0.3-94.4-0.2-140.4-0.2
			c-16.6,0-33.1,0-49.7,0h-3.3v10.1h17.7l0,6.3c0,3.7,0,7.4,0,11c0,11.9-6.8,19.4-18.7,20.6c-3.3,0.3-5.4,2.3-5.3,5.1
			c0.1,2.9,2.2,4.8,5.5,4.8c31.9,0,63.1,0.1,94.9-0.1c1.5,0,3.6-1,4.6-2.2c1.1-1.3,1.3-2.8,0.7-4.3c-0.8-1.9-2.9-3.2-5.4-3.4
			c-10.1-0.9-17.4-7.6-18.2-16.7c-0.4-4.6-0.3-9.1-0.2-13.8c0-2.1,0.1-4.3,0.1-6.5v-1l39,0c26.7,0,53.5,0,80.2,0
			c18.4,0,30.7-12.4,30.7-30.8c0-62.9,0-125.7,0-188.6C374.1,56.1,361.9,43.8,343.6,43.8z M169.3,331.4l1.2-1.6
			c5.9-7.7,5.8-16.4,5.6-25.5c-0.1-3.1-0.1-6.2,0.1-9.4l0.1-0.9h37.6l0.1,0.9c0.2,3.2,0.2,6.5,0.1,9.6c-0.1,9-0.3,17.4,5.7,25.3
			l1.2,1.6H169.3z"/>
		<path class="st0" d="M134.2,290.3c0-6.8,0-13.7,0-20.6c-0.4-33.7-23.4-63.8-56.1-73c-10.4-3-21.3-2.9-31.8-2.9c-2,0-3.9,0-5.9,0
			c-2.3,0-3.8,0.5-4.8,1.4c-0.9,1-1.4,2.6-1.4,5c0,2.6,0,5.2,0,7.7c0,5.1,0,10.4-0.1,15.5c0,1.8-1,4-2.3,5.5
			c-2.7,2.9-5.5,5.7-8.2,8.4c-1.7,1.7-3.5,3.5-5.2,5.2c-3,3-3,5.4-0.1,8.4c5.2,5.4,10.9,11,16.7,16.7c3,2.9,5.3,2.9,8.4,0
			c0.6-0.6,1.2-1.2,1.7-1.8c1.1-1.1,2.2-2.3,3.5-3.2c0.9-0.6,2-0.6,3-0.6c0.4,0,0.8,0,1.1,0l1.1-0.1l0,1.1c0,0.3,0,0.7,0,1.1
			c0.1,1,0.1,2.1-0.4,3c-0.8,1.3-1.9,2.3-3,3.3c-0.3,0.2-0.5,0.5-0.8,0.7c-6.6,6.1-9.9,12.2-10.4,18.9c-0.3,3.8,0,7.6,0.3,11.6
			c0.1,1.8,0.3,3.7,0.4,5.6l0,0.8l-1.3,0.4c-0.6,0.2-1.6,0.5-2.6,0.8c-11.3,3.7-19.7,14.7-20,26.2c-0.1,2.2,0.4,3.8,1.4,4.8
			c0.9,1,2.5,1.5,4.5,1.5c33.7,0,69.4,0,106.1,0c2.3,0,4-0.6,5-1.8c0.9-1,1.2-2.5,0.9-4.3c-0.6-3.8-1.7-7.5-2.8-11.4
			c-0.5-1.7-1-3.5-1.5-5.3l-0.3-1l1-0.2c1.7-0.4,3.9-1.6,3.8-7.2C134.1,303.8,134.2,296.9,134.2,290.3z M54,281.1
			c1.2-1.4,2.5-2.7,3.8-3.9c0.7-0.7,1.3-1.3,2-2c5.9-6,6.4-14.1,1.2-19.7c-5.3-5.6-13.4-5.6-19.7,0.1c-0.3,0.2-0.5,0.5-0.8,0.7
			l-1.1,1l-11-10.8l0.7-0.7c1.2-1.2,2.4-2.4,3.6-3.6c2.8-2.8,5.8-5.7,8.7-8.5c2.1-2,3-4.1,2.9-6.9c-0.2-4.9,0.1-9,0.8-13.3l0.4-1.9
			l1.4,1.4c0.6,0.6,1.2,1.3,1.7,1.9c1.3,1.5,2.5,2.9,4,4c2.2,1.6,4.3,2.6,6,2.7c27,1.2,47.5,22.3,47.7,49.1c0.1,9.4,0,19,0,28.2
			l0,0.3c0,5.9-2.6,8.5-8.5,8.5c-4.6,0-9.2,0-13.8,0c-8.9,0-18.1,0-27.1,0.1c0,0-0.1,0-0.1,0c-2.7,0-4.4-1-5.7-3.6
			C47.1,296.6,48.2,287.5,54,281.1z M27.5,331.6l0.3-1.2c1.7-7,8.7-12.4,16.2-12.5c17.1-0.2,34.5-0.1,51.4-0.1l10.8,0
			c5.7,0,14.9,4.9,16.2,12.6l0.2,1.2H27.5z M123.7,292.3c-0.1,4.7-0.2,9.5-0.2,14.2v1h-7.3l0-11.7c0-7.7,0-15.4,0-23.1
			c0-31.8-21-56.1-52.2-60.3c-4.8-0.7-7.5-3.2-10.6-6.7l-1.4-1.5l2.1-0.1c34.3-2.1,66,24.2,69.2,57.3
			C124.2,271.5,123.9,282.1,123.7,292.3z"/>
		<rect x="64.5" y="110" class="st0" width="261.5" height="9.6"/>
		<rect x="148.3" y="199.9" class="st0" width="57.5" height="9.5"/>
		<rect x="160.3" y="151.9" class="st0" width="45.5" height="9.6"/>
		<rect x="184.5" y="176" class="st0" width="45.5" height="9.6"/>
		<rect x="100.3" y="175.9" class="st0" width="33.5" height="9.5"/>
		<rect x="88.5" y="152" class="st0" width="21.5" height="9.5"/>
		<rect x="124.4" y="151.9" class="st0" width="21.5" height="9.7"/>
		<rect x="64.3" y="175.9" class="st0" width="21.5" height="9.5"/>
		<rect x="148.4" y="175.8" class="st0" width="21.4" height="9.7"/>
		<rect x="118.4" y="200" class="st0" width="15.7" height="9.5"/>
		<rect x="220.4" y="152" class="st0" width="9.7" height="9.5"/>
		<path class="st0" d="M69.2,91.8C69.2,91.8,69.2,91.8,69.2,91.8c-2.7,0-5,2.3-5,5c0,2.7,2.3,5,5,5c0,0,0,0,0,0
			c1.3,0,2.5-0.5,3.5-1.5c1-0.9,1.5-2.2,1.5-3.5v0c0-1.3-0.5-2.5-1.5-3.5S70.5,91.8,69.2,91.8z"/>
		<path class="st0" d="M90.6,100.3c1-0.9,1.5-2.2,1.6-3.5c0-1.3-0.5-2.6-1.4-3.5c-0.9-1-2.2-1.5-3.5-1.6c0,0-0.1,0-0.1,0
			c-2.6,0-4.9,2.2-5,4.8c-0.1,2.7,2.1,5,4.8,5.1C88.3,101.7,89.6,101.3,90.6,100.3z"/>
		<path class="st0" d="M108.5,100.4c1-0.9,1.6-2.1,1.7-3.4c0.1-1.3-0.4-2.6-1.3-3.6c-0.9-1-2.1-1.6-3.4-1.7c-0.1,0-0.2,0-0.2,0
			c-1.2,0-2.4,0.5-3.3,1.3c-1,0.9-1.6,2.1-1.6,3.4c-0.1,2.7,2,5.1,4.7,5.2C106.2,101.8,107.5,101.3,108.5,100.4z"/>
		<path class="st0" d="M198.5,274.3c1-0.9,1.5-2.2,1.6-3.5c0-1.3-0.4-2.6-1.4-3.5c-0.9-1-2.2-1.5-3.5-1.6c0,0-0.1,0-0.1,0
			c-2.6,0-4.9,2.2-5,4.8c-0.1,2.7,2.1,5,4.8,5.1C196.3,275.8,197.6,275.3,198.5,274.3z"/>
	</g>
	<path class="st0" d="M291.3,179.1l-0.7,0.6l-0.6-0.7c-0.7-0.8-1.5-1.6-2.2-2.4c-1.6-1.8-3.1-3.5-4.8-5.1c-1.1-1.1-3.9-3.3-6.7-0.7
		c-3,2.8-5.8,5.8-8.5,8.6c-0.8,0.9-1.6,1.7-2.4,2.6l7.1,7.9l6.4-8.6l5.6,6l-7.9,6.9l7.5,7.7l13.8-14.6l6.8,8.3l7.5-7.5
		c-0.8-0.8-1.6-1.5-2.5-2.3c-2.3-2.1-4.7-4.3-6.9-6.6C298.3,174.9,297.1,174.5,291.3,179.1z"/>
</g>
</svg>
