<?xml version="1.0" encoding="utf-8"?>
<!-- Generator: Adobe Illustrator 23.0.1, SVG Export Plug-In . SVG Version: 6.00 Build 0)  -->
<svg version="1.1" id="Layer_1" xmlns="http://www.w3.org/2000/svg" xmlns:xlink="http://www.w3.org/1999/xlink" x="0px" y="0px"
	 viewBox="0 0 342.6 381.8" style="enable-background:new 0 0 342.6 381.8;" xml:space="preserve">
<style type="text/css">
	.st0{fill:#9A9A9A;}
</style>
<g>
	<path class="st0" d="M342.6,207.9c0-1.5,0-3,0-4.4c0-3.9,0-8-0.1-12c-0.1-2.6-1.5-4.1-3.9-4.1c-2.3-0.1-3.9,1.4-4.2,3.9
		c-0.1,0.8-0.1,1.6-0.1,2.4l0,0.8l0,14.6c0,6.4,0,12.8,0,19.2c0,6.9-1.9,8.8-8.7,8.8c-2.4,0-4.8,0-7.2,0c-8.1,0-16.5,0-24.7-0.1
		c-2.4,0-5-0.8-7-2.1c-6.1-3.8-13.3-4.5-19.9-1.9c-6.4,2.6-11.1,8-12.7,14.8c-1.3,5.3-0.7,10.6,1.7,15l0.6,1.1l-1,0.8
		c-1.4,1.1-2.8,2.1-4.2,3.1c-3.1,2.1-5.9,4.2-7.9,6.8c-2,2.6-3.1,6-4.3,9.5c-0.6,1.7-1.1,3.4-1.8,5.1l-0.4,1l-1,0
		c-5.3-0.1-10.7,2.2-15.1,6.5c-4.3,4.3-6.6,9.7-6.7,16.3l0,1.4l-1.4,0.1c-11.3,0.7-18.3,5.3-21.5,14.2c-3.3,9.1-1,17.3,6.7,24.5
		c1.7,1.6,3.5,3.2,5.2,4.8l3.4,3.2l-0.7,1.1c-0.6,0.9-1.1,1.6-1.6,2.4c-1,1.6-1.9,2.9-3,4.2c-3.6,4.3-8.3,5.9-13.6,4.5
		c-3.4-0.9-6.1-2.9-7.7-5.8c-1.9-3.3-2.3-7.5-1.1-11.8c0.8-2.8,0.2-4.5-1.9-5.6c-2.8-1.4-4.7,0.8-5.6,2.2c-0.1,0.2-0.2,0.4-0.3,0.5
		c-0.1,0.3-0.3,0.5-0.5,0.8c-3.8,5.8-10.9,7.9-17,5.1c-5.6-2.6-8.6-9.9-6.7-16.2c1.3-4.3-0.3-5.6-1.6-6.2c-1.4-0.7-3.6-1.1-6,2.9
		c-3.8,6.3-10.6,8.7-17,6c-6-2.6-9.1-9.9-7-16.7c1.3-4.1-0.5-5.4-2-6c-0.8-0.3-3.2-1.4-5.6,2.5c-4.4,7.3-12.1,9.6-18.6,5.6
		c-2.9-1.8-5-4.6-5.8-8c-0.9-3.8-0.2-7.9,2.1-11.5c16-25.5,31.3-50.7,48.2-78.6c2.2-3.6,4.8-5.4,8.9-5.9c4.7-0.6,8.6-1.7,11.8-3.2
		c5.8-2.7,11.3-5.6,17.2-8.7c2.4-1.3,4.8-2.5,7.2-3.8l1.1-0.6l1,1.4c0.4,0.5,1,1.3,1.5,2l2.4,3.4c5.1,7.3,10.2,14.5,15.3,21.8
		c3.5,5,8.1,8.4,13.7,10c6.4,1.9,13.1,0.6,17.9-3.4c4.4-3.7,6.5-9.3,5.8-15.4c-1.6-14-4.5-28-7.3-41.1c-1.7-8-6.6-15.4-14.9-22.5
		l-2.1-1.8l2.6-0.8c0.4-0.1,0.8-0.2,1.1-0.4c0.7-0.2,1.3-0.4,1.9-0.5c35.9-6.9,71.8-13.8,107.7-20.7c2.6-0.5,4.5-0.2,5.9,0.9
		c1.4,1.1,2.1,2.9,2.1,5.5c0,2.2,0,4.4,0,6.5c0,2.8,0,5.6,0.1,8.5c0.1,1.5,0.5,2.7,1.3,3.5c0.7,0.7,1.8,1,3,1
		c3.1-0.1,3.8-2.5,3.8-4.5c0.1-6,0.1-11,0-15.7c-0.1-4.6-1.9-8.6-5.1-11.2c-3.2-2.6-7.5-3.5-12-2.7l-15.4,2.9
		c-32.9,6.3-67,12.8-100.4,19.4c-7.8,1.5-14.1,1.3-20.5-0.6c-7.2-2.2-14.7-4.2-22-6c-3.7-1-7.5-1.9-11.2-2.9
		c-9.8-2.7-18.4-1.1-24.9,4.5c-7.2,6.2-14.5,7.5-24.6,4.4c-8.5-2.6-17.3-4.5-25.9-6.3c-2.7-0.6-5.5-1.2-8.2-1.8
		c-1.3-0.3-2.5-0.1-3.4,0.5c-0.9,0.6-1.4,1.4-1.7,2.6c-0.5,2.2,0.8,4,3.2,4.8c0.4,0.1,0.8,0.3,1.3,0.4c3.5,0.8,7,1.7,10.5,2.5
		c12.1,2.9,24.5,5.8,36.8,8.6c1.3,0.3,3.5-0.2,5.2-1.2c2.7-1.6,5.3-3.5,7.8-5.4c1-0.8,2.1-1.5,3.1-2.3c5.7-4,11.9-5.2,18.3-3.5
		c4.4,1.2,8.8,2.4,13.3,3.5c10.1,2.7,20.6,5.4,30.9,8.4c12.6,3.7,20.9,12.3,24.7,25.4c0.7,2.5,1.2,5.1,1.6,7.6
		c0.1,0.7,0.2,1.4,0.4,2.1l1,5.6c1.3,7.1,2.6,14.4,3.7,21.7c0.7,4.2-0.6,8.1-3.4,10.4c-2.7,2.2-6.5,2.6-10.3,1
		c-3.5-1.4-6.9-4.2-9.2-7.4c-7.2-10.2-14.3-20.7-21.2-30.9c-3.2-4.7-6.3-9.4-9.5-14c-1.3-1.9-3.5-3.9-6.2-2.1
		c-3,1.9-1.5,5.2-0.8,6.6c1.1,1.8,2.2,3.6,3.4,5.5c0.5,0.9,1.1,1.8,1.7,2.7l0.7,1.1l-1,0.8c-11.1,9.4-23.5,14.8-37,16.3
		c-3.3,0.4-5.3,1.6-7,4.3c-6.2,10.4-12.7,20.9-19,31.1c-2.1,3.4-4.2,6.8-6.2,10.2c-0.5,0.7-0.9,1.5-1.5,2.3l-1.9,2.9l-5-5.1
		c-2.6-2.7-5.1-5.3-7.7-7.9c-4.2-4.3-9-6.7-14.5-7.4l-3.8-0.4c-17.3-2-35.2-4.1-52.8-6.1c-6.9-0.8-8.5-2.5-8.5-9.1
		c0-27.6,0-55.2,0-82.9c0-3.4,0.4-6,2.1-7.4c1.7-1.4,4.3-1.2,7.5-0.4c3.1,0.7,6.2,1.5,9.3,2.2c5.3,1.3,10.8,2.6,16.2,3.8
		c2.2,0.5,4.2,0.2,5.3-0.9c0.9-0.8,1.2-2,1-3.5c-0.3-2-1.5-3-4.3-3.7c-2.7-0.6-5.4-1.2-8.1-1.8c-5.9-1.3-11.9-2.7-17.8-4.3
		c-5.2-1.5-10.1-0.7-13.8,2.1c-3.8,3-6,7.8-5.9,13.3c0.3,19.6,0.3,39.5,0.2,58.8c0,8.3-0.1,16.6-0.1,24.8c0,10.8,4.6,15.9,15.3,17.1
		c4.5,0.5,9,1,13.5,1.6c11.7,1.4,23.7,2.8,35.6,3.8c10.1,0.9,17.2,4.3,22.5,11c1.9,2.4,4.4,4.7,6.4,6.4c2.2,2,2.5,4,0.9,6.7
		c-5,8-10.5,16.8-17,27.8c-3.5,5.8-3.9,13.1-1,19.5c2.8,6.3,8.1,10.6,14.6,11.8c3.1,0.6,6.4,0.3,9.9,0.1c1.7-0.1,3.4-0.3,5.2-0.3
		l1.1,0l0.4,1c2,5.3,6.1,9.5,11.5,12c5.3,2.4,11.1,2.3,17.9-0.1l1.4-0.5l0.5,1.3c2.6,6.4,6.5,10.7,12,13c5.4,2.3,11.2,2.3,17.9-0.1
		l1.4-0.5l0.5,1.4c2.8,7.6,8.1,12.3,16.8,14.8h7.1c7.6-2,13.2-6.5,16.6-13.1l0.7-1.4l1.4,0.8c7.3,4.2,15.7,4.5,22.5,0.7
		c7-3.8,11.2-11.1,11.6-20l0.1-1.5l1.5,0c6.1,0.2,11.5-2,16.1-6.4c4.5-4.5,6.7-9.9,6.6-16.5l0-1.5l1.5,0c8.8,0.1,15.2-3.3,19.8-10.5
		c4.2-6.6,4.2-13.8,0.2-22.1l-0.8-1.6l1.6-0.5c9.3-3,14.7-8.7,16.3-17.5c1.5-8.2-1.5-15.2-9.8-22.7l-2.7-2.4l3.6-0.2
		c0.7,0,1.3-0.1,1.8-0.1c1-0.1,1.8-0.1,2.6-0.1c2.6,0,5.1,0,7.7,0c4.6,0,9.4,0,14.1,0c8.8-0.1,14.8-6.1,14.9-14.8
		c0.1-5.3,0.1-10.8,0-16.1C342.6,212.1,342.6,210,342.6,207.9z M237.2,355.9c-2.4,4.9-6.5,7.2-13.5,7.5l-0.4,0l-0.4-0.2
		c-0.3-0.2-0.8-0.4-1.3-0.6c-1.6-0.7-3.8-1.7-5.6-3.3c-4.6-4.1-8.8-8.6-13-12.9l-1.1-1.2c-5.1-5.4-5.2-13.5-0.2-18.6
		c5.3-5.3,13.1-5.4,18.6-0.2c4.7,4.5,9.6,9.4,14.6,14.7C238.9,345.4,239.8,350.7,237.2,355.9z M259.4,334.9c-2.6,2.7-6,4.1-9.4,4.1
		c-3.2,0-6.5-1.3-9.1-3.8c-4.7-4.5-9.5-9.3-14.5-14.6c-4-4.3-4.9-9.5-2.4-14.8c2.1-4.6,5.9-7.2,12-8.2l0.5-0.1l0.4,0.2
		c0.8,0.4,1.6,0.7,2.4,1.1c1.9,0.8,3.9,1.7,5.5,3.2c5.1,4.6,9.8,9.5,14.7,14.6C264.4,321.9,264.4,329.9,259.4,334.9z M286.4,307.1
		c-2.3,4.9-6.5,7.3-13.3,7.5l-0.3,0l-0.3-0.1c-0.3-0.1-0.7-0.3-1.2-0.4c-1.5-0.5-3.6-1.2-5.3-2.7c-5.3-4.8-10.5-10.1-15.7-15.7
		c-4.7-5.2-4.4-13,0.8-18c5.1-4.9,12.9-5,18-0.2c4.7,4.4,9.5,9.3,15.1,15.2C288.1,296.6,288.9,301.8,286.4,307.1z M299.5,259
		c4.4,5,3.8,12.9-1.3,17.7c-2.5,2.4-5.8,3.6-9,3.6c-3.1,0-6.3-1.1-8.7-3.4c-6.2-5.8-11-10.7-15.3-15.5c-1.4-1.5-2.1-3.4-2.8-5.3
		c-0.3-0.8-0.6-1.5-0.9-2.3l-0.2-0.4l0-0.4c0.7-5.8,3.2-9.7,7.8-12c5.1-2.5,10.1-2,13.9,1.5C289.1,248,294.6,253.5,299.5,259z"/>
	<path class="st0" d="M235.7,104.1c0,9.4,5.7,15.1,15.1,15.1c6.8,0,13.5,0,20.3,0l9,0c0,0,0.1,0,0.1,0c3,0,6,0,8.9,0
		c6.7,0,13.7,0,20.5,0c8.9-0.1,14.7-5.8,14.8-14.7c0-3.1,0-5.9,0-8.6c-0.1-13-9.5-22.6-22.3-22.9c-13.5-0.3-28-0.3-44.1,0
		c-10.9,0.2-19.9,7.6-21.8,17.9c-0.6,3.4-0.6,7-0.5,10.5C235.7,102.4,235.7,103.2,235.7,104.1z M243.9,95.7
		c0.2-8.5,5.9-14.3,14.1-14.5c14.7-0.2,29.4-0.2,43.9,0c8.2,0.1,14.1,6.2,14.2,14.8c0,2.6,0,5.3,0,7.9c-0.1,4.8-2.1,6.9-6.9,6.9
		c-4.1,0-8.3,0-12.4,0c-2.8,0-5.6,0-8.4,0l-8.4,0l-8.1,0c-6.9,0-13.8,0-20.7,0c-5.3,0-7.2-1.9-7.3-7.3
		C243.9,101.2,243.8,98.5,243.9,95.7z"/>
	<path class="st0" d="M18.4,104c0,9.5,5.6,15.1,15,15.2c6.9,0,13.7,0,20.6,0l8.7,0h0h0c0.1,0,0.2,0,0.3,0c3,0,6,0,9,0
		c6.9,0,14,0,21,0c8.2-0.1,13.8-5.7,14.1-13.9c0.1-3,0.1-6.2,0-9.7c-0.3-13.1-9.6-22.4-22.5-22.7c-14.5-0.2-29.3-0.2-43.8,0
		c-11.4,0.2-20.5,8.1-22.1,19.3c-0.4,2.9-0.4,5.9-0.3,8.9C18.4,102.1,18.4,103.1,18.4,104z M26.6,96c0.1-8.5,5.9-14.5,14-14.7
		c14.3-0.2,29.2-0.2,44.2,0c7.9,0.1,13.7,6,14,14.2c0.1,2.7,0.1,5.4,0,8.3c-0.1,5.2-2,7.1-7.4,7.1c-4,0-8,0-12,0c-2.8,0-5.6,0-8.4,0
		l-8.4,0l-8.3,0c-6.7,0-13.4,0-20.1,0c-5.6,0-7.4-1.9-7.5-7.5l0-0.3C26.6,100.8,26.6,98.4,26.6,96z"/>
	<path class="st0" d="M135,117.9c4.3,2.2,9.3,2.5,13.1,0.9c1.9-0.8,2.7-2.2,2.5-4.1c-0.2-2.2-1.3-3.3-3.5-3.6
		c-1.1-0.1-2.2-0.1-3.4-0.1c-0.8,0-1.6,0-2.5,0c-3.8-0.2-6-2.5-6-6.2c0-1.2,0-2.3,0-3.5c0-1.8,0-3.7,0-5.5
		c0.2-8.3,5.9-14.2,13.8-14.4c14.2-0.3,29.1-0.3,44.3,0c8.1,0.1,13.8,6.1,14,14.6c0,2.4,0,4.7,0,7.1l0,0.5c0,5.7-1.8,7.5-7.4,7.5
		c-3.8,0-7.5,0-11.3,0c-5.1,0-10.2,0-15.3,0c-3,0-4.8,1.5-4.9,3.9c0,1.1,0.3,2.1,1,2.8c0.9,0.9,2.3,1.4,3.9,1.5l2.8,0
		c8.5,0.1,17.3,0.1,26-0.1c7.6-0.2,13.3-5.9,13.5-13.7c0.1-2.8,0-5.7,0-8.4l0-0.5c-0.1-13.9-9.6-23.4-23.6-23.5
		c-4.8-0.1-9.8,0-14.5,0c-2,0-4,0-6.1,0c-2.3,0-4.6,0-6.9,0c-2.1,0-4.3,0-6.5,0c-2.8,0-5.6,0-8.3,0.1c-10.1,0.3-17.2,5-21,13.9
		c-2.6,6.1-3,13.4-1,22.3C128.5,112.8,131.2,115.9,135,117.9z"/>
	<path class="st0" d="M34,30c0,0.9,0,1.7,0,2.5c0,1.4,0,2.7,0,3.9C34.4,50.2,44.8,62,58.2,63.8c14.5,1.9,27.9-6.4,31.9-19.7
		c2.3-7.9,2.5-16.3,0.5-24.4c-2-8.1-8.3-14.6-17.3-17.8C69.7,0.6,66,0,62.3,0c-6.5,0-12.8,1.9-17.9,5.7C36.6,11.4,33.1,19.6,34,29.9
		L34,30z M42.3,25.5c0.3-9.1,7.5-16.1,16.6-16.4c1.6-0.1,3.2,0,4.8,0l1.3,0c11.2,0,18.3,7,18.5,18.2c0,0.8,0,1.6,0,2.4l0.4,0
		l-0.2,1.5c-0.1,1-0.2,1.9-0.2,2.9c-0.1,2.2-0.3,4.4-0.8,6.6c-2.2,9-10.5,15.2-19.8,15.2c-0.7,0-1.5,0-2.2-0.1
		c-10.2-1.1-17.9-9.2-18.3-19.3C42.1,32.9,42.1,29.2,42.3,25.5z"/>
	<path class="st0" d="M162.7,62.8c11.1,3.5,23.5-0.2,30.9-9.1c5-6.1,7.2-13.6,6.6-22.9l0-0.1c0-0.6,0-1.2,0-1.8c0-1.3,0-2.6,0-4
		c-0.7-12.6-9.6-22.3-21.9-23.9c-1.8-0.2-3.7-0.3-5.7-0.3c-1.3,0-2.6,0-3.9,0.1l-1.4,0c-11.5,0.3-21.1,7.8-23.5,18.4
		c-1.4,6.1-1.2,12.8-0.9,18.5C143.3,49.3,151.1,59.2,162.7,62.8z M150.9,24.8c0.6-8.8,7.5-15.4,16.4-15.7c1.8-0.1,3.5,0,5.3,0l1.2,0
		c10.9,0.1,17.8,6.8,18.1,17.7c0,0.9,0,1.8,0,2.8l0.1,0l0.1,1.5c-0.1,0.9-0.1,1.8-0.1,2.6c-0.1,2-0.1,4.1-0.5,6.1
		c-1.8,9.2-10.4,16.2-19.9,16.2c-0.3,0-0.7,0-1,0c-10.6-0.5-18.8-8.3-19.5-18.5C150.7,33.2,150.7,28.9,150.9,24.8z"/>
	<path class="st0" d="M273,63.3c11.5,3,23.4-1.4,30.5-11.2c4.1-5.7,5.9-12.5,5.3-20.2l0-0.1c0-0.9,0-1.7,0-2.4c0-1.4,0-2.5,0-3.6
		c-0.4-13-9.5-23.2-22.3-24.7c-1.8-0.2-3.6-0.3-5.5-0.3c-1.6,0-3.2,0.1-4.8,0.1l-0.8,0c-12.3,0.4-22.6,9.7-23.9,21.8
		c-0.6,5.2-0.6,10.7-0.1,16.1C252.7,50.8,260.9,60.2,273,63.3z M259.4,28.5c0-1.3,0-2.5,0-3.8c0-0.8,0.2-1.5,0.3-2.2l0.1-0.4
		c1.5-6.8,7.1-14.6,25.1-13.1c8.7,0.7,15.2,7.7,15.5,16.7c0,1.2,0,2.5,0,3.7c0,0.1,0,0.2,0,0.3l0.5,0.1l-0.2,1.5
		c-0.1,1-0.2,2.1-0.3,3.1c-0.2,2.3-0.4,4.8-1,7.1c-2.4,8.6-10.4,14.5-19.3,14.5c-0.5,0-1.1,0-1.6-0.1c-9.9-0.8-17.7-8-18.8-17.5
		C259.4,35.1,259.4,31.8,259.4,28.5z"/>
</g>
</svg>
