<?xml version="1.0" encoding="utf-8"?>
<!-- Generator: Adobe Illustrator 23.0.1, SVG Export Plug-In . SVG Version: 6.00 Build 0)  -->
<svg version="1.1" id="Layer_1" xmlns="http://www.w3.org/2000/svg" xmlns:xlink="http://www.w3.org/1999/xlink" x="0px" y="0px"
	 viewBox="0 0 505.3 505.3" style="enable-background:new 0 0 505.3 505.3;" xml:space="preserve">
<style type="text/css">
	.st0{fill:#9A9A9A;}
</style>
<g>
	<path class="st0" d="M121,345.3l-0.1,0.1L121,345.3c-0.3-0.5-0.7-1-1-1.5c-15.4-23.7-23.7-49.4-24.7-76.3
		c-0.6-17.4-0.6-35.1-0.5-52.2l0-0.3c0-6.1,0-12.4,0-18.6c0-17.2,0-34.6,0-51.5l0-19.5c0-0.2,0-0.4,0-0.6l0-0.1
		c0-2.1-0.1-6.9,5.7-8.3c26.1-6.4,52.6-17.9,83.5-36.2C201.1,70,220.2,64,240.6,62.2c29.9-2.5,58.5,4.3,85.1,20.3
		c26.5,15.9,52,26.9,78.2,33.5c5.9,1.5,6.7,5.5,6.7,8.8c-0.1,17.2-0.1,34.5-0.1,51.3l0,8.6c0,1.6,0,3.1,0.3,4.3
		c0.5,2.2,1.6,3.1,3.8,3.1c2.2,0,3.4-0.9,3.9-3c0.3-1.2,0.3-2.6,0.3-4.2c0-25.6,0-45.3,0-64c0-8.2-1.3-9.8-9.6-12.2
		c-7.1-2.1-14.2-4.4-21-6.7l-0.1,0c-4.6-1.5-9.4-3.1-14.1-4.6c-5.7-1.8-6.3-6.1-6.2-9.1c0.1-15.2,0.1-29.4,0-43.4
		c0-4.5,1.6-7.3,5.5-9.6c6.7-3.9,9.9-9.8,9.3-17.7c-0.5-7.7-4.4-13-11.8-16.3c-0.9-0.4-1.7-0.8-2.5-1.2L367.9,0l-8,0l0,0
		c-0.4,0.3-0.8,0.5-1.3,0.7C350,3.5,345.5,9,344.8,17.3c-0.7,8.2,2.7,14.5,10.5,19.1c2.6,1.6,4.1,5.3,4.1,8
		c0.2,10,0.1,20.1,0.1,29.8l0,6.2c0,1.1-0.1,2.3-0.2,3.6l0,0.1c-0.1,0.6-0.1,1.3-0.2,2.1l-0.4,5.3L345,83.9
		c-5.9-3.3-11.6-6.5-17.3-9.7c-50.2-28.1-100.9-28-150.6,0.4c-31.5,18-57.1,28.8-82.9,34.9c-5.9,1.4-7.6,3.5-7.6,9.9
		c-0.1,8-0.1,16.1,0,24l0,0.5c0,4.5,0,9,0,13.4c0,1.3-0.1,2.5-0.2,3.9l0,0.1c0,0.6-0.1,1.3-0.1,2l-0.2,3.2h-3.2c-3.5,0-7,0-10.5,0
		c-9.2,0-17.9,0-26.9,0.1c-3.6,0-7.3-0.6-10.1-5.6c-3.7-6.7-9.7-9.9-17.7-9.3c-7.7,0.5-13,4.4-16.3,11.8c-0.4,0.9-0.8,1.7-1.2,2.5
		L0,166.4l0,8l0,0c0.3,0.4,0.5,0.8,0.7,1.3c2.8,8.5,8.3,13.1,16.6,13.8c8.3,0.7,14.5-2.7,19.1-10.5c1.5-2.5,5-4,7.5-4.1
		c7.8-0.2,15.7-0.1,23.4-0.1c0.7,0,1.4,0,2.1,0c1.8,0,3.7,0,5.5,0h11v49.7h-3.4c-1.6,0-3.2,0-4.6,0c-3.3,0-6.5-0.1-9.6,0.1
		c-4.5,0.3-7.5-1.4-9.8-5.5c-4.4-7.9-13.5-11.5-22.2-8.7c-7.9,2.6-13.4,10.1-13.4,18.3c0.1,8.3,6,16,14,18.3
		c8.1,2.3,16.8-1.1,21.5-8.4l0.2-0.3c1.3-2.1,3.2-5,6.2-5.2c2.4-0.2,5-0.3,8.3-0.3c1.6,0,3.2,0,4.8,0c1.5,0,3.3,0,5,0h3.4l0,9.6
		c0,4.1,0,8.2,0,12.3c-0.1,30,6.1,56.4,19,80.6c2.8,5.3,6.2,10.7,10.5,17.1c0.7,1.1,1.7,1.7,2.8,1.8c0.1,0,0.2,0,0.3,0
		c0.8,0,1.6-0.3,2.4-0.8c1.9-1.3,2.3-3.4,1.1-5.8C122.1,346.9,121.6,346.2,121,345.3z M363.6,30c-5.7,0-10.4-4.5-10.7-10.2
		c-0.2-3,0.8-5.8,2.8-8c2-2.2,4.7-3.4,7.6-3.5c0.1,0,0.2,0,0.2,0c5.6,0,10.5,4.5,10.8,10.2c0.2,3-0.8,5.8-2.8,8
		c-2,2.2-4.7,3.4-7.6,3.5C363.8,30,363.7,30,363.6,30z M19.4,181.4c-3,0.1-5.8-1.1-7.9-3.1c-2.1-2.1-3.2-4.8-3.2-7.7
		c0.1-5.8,4.7-10.5,10.6-10.6c0.1,0,0.1,0,0.2,0c2.9,0,5.7,1.1,7.7,3.1c2.1,2.1,3.2,4.8,3.2,7.7C29.9,176.6,25.2,181.2,19.4,181.4
		L19.4,181.4z M42.4,239.4L42.4,239.4c-5.9,0-10.7-4.7-10.9-10.5c-0.1-2.9,1-5.6,3.1-7.7c2.1-2.1,4.9-3.3,7.8-3.3c0,0,0.1,0,0.1,0
		c3,0,5.7,1.2,7.7,3.3c2,2.1,3,4.9,2.9,7.9C52.9,234.9,48.3,239.4,42.4,239.4z"/>
	<path class="st0" d="M505.2,232.9c-0.3-0.4-0.5-0.8-0.7-1.3c-2.8-8.5-8.3-13.1-16.6-13.8c-8.3-0.7-14.5,2.7-19.1,10.5
		c-1.5,2.5-4.9,4.1-7.4,4.2c-7.2,0.2-14.8,0.2-21.4,0.1l-0.4,0c-2.2,0-4.4,0-6.6,0h-13.7l-0.3-4.9c-0.1-1-0.1-1.8-0.1-2.6
		c0-0.6,0-1.2,0-1.8c0-0.7,0-1.4,0-2.1c-0.1-1.4-0.7-4.8-4-4.9c-1.1,0-2,0.3-2.7,1c-0.9,0.9-1.4,2.2-1.4,3.8
		c-0.1,8.4-0.1,17-0.1,25.3c0,2.9,0,5.8,0,8.7c0,42.8-14.1,79.7-41.8,109.8c-30.4,33-67.2,58.6-109.4,76.1c-4.7,1.9-8.7,1.9-13.4,0
		c-39.4-16.4-73.7-39.4-102.1-68.5c-3.2-3.3-5.2-3.8-6.1-3.8c-0.5,0-1.3,0.1-2.3,1.2c-1.2,1.2-1.3,2-1.3,2.5c0,0.8,0.5,2.7,3.9,5.9
		c8.7,8.2,17.7,16.4,26.9,24.4c3.3,2.8,4.6,5.7,4.6,9.7c-0.1,16-0.1,32.1,0,47.9c0,4.5-1.6,7.3-5.5,9.6c-6.7,3.8-9.9,9.8-9.3,17.7
		c0.5,7.7,4.4,13,11.8,16.3c0.9,0.4,1.7,0.8,2.5,1.2l0.3,0.2l7.9,0l0,0c0.4-0.3,0.8-0.5,1.3-0.7c8.5-2.8,13-8.3,13.8-16.6
		c0.7-8.2-2.7-14.5-10.5-19.1c-2.6-1.5-4.1-5.3-4.1-8c-0.2-8.3-0.1-16.7-0.1-24.8v0c0-2.7,0-5.5,0-8.2v-14.5l5.1,3
		c0.6,0.4,1.2,0.7,1.7,1l0.2,0.1c1,0.6,1.7,1,2.5,1.5c18.1,12,38.2,22.5,59.9,31.3c3.9,1.6,7.3,1.6,11,0.1
		c38.9-15.6,73.4-37.6,102.7-65.5c27-25.7,43.4-51.2,51.6-80.2c0.8-2.9,4.6-5.4,7.4-5.6c3.1-0.2,6.2-0.2,8.9-0.2l0.2,0
		c2.4,0,4.7,0,6.9-0.1c5.3-0.2,8.7,1.6,11.3,6.2c4.4,7.7,14.3,10.8,22.9,7.4c8.6-3.5,13.5-12.6,11.5-21.7
		c-1.6-7.5-7.8-13.6-15.1-14.7c-8.3-1.3-15.6,2-20.1,9.2c-2.1,3.4-4.3,5.1-6.6,5.3c-4.9,0.3-9.8,0.3-14.5,0.2c-1.8,0-3.3,0-4.9,0
		h-3.6l2.8-49.7h3.2c3.2,0,6.4,0,9.6,0l0.6,0c8.4,0,17.9,0,27.2-0.1c0.1,0,0.2,0,0.2,0c4.4,0,7.2,1.6,9.4,5.5
		c3.8,6.7,9.8,9.9,17.7,9.3c7.7-0.5,13-4.4,16.3-11.8c0.4-0.9,0.8-1.7,1.2-2.5l0.2-0.3L505.2,232.9L505.2,232.9z M485.9,225.9
		c0.1,0,0.2,0,0.2,0c2.9,0,5.6,1.1,7.7,3.1c2.1,2.1,3.2,4.8,3.2,7.7c-0.1,5.8-4.7,10.5-10.6,10.6c-3,0.1-5.8-1-7.9-3.1
		c-2.1-2.1-3.2-4.8-3.2-7.7C475.3,230.7,480,226,485.9,225.9z M173.9,475.3c5.7,0.2,10.4,5,10.5,10.7c0,2.9-1.2,5.8-3.3,7.8
		c-2,2-4.7,3.1-7.5,3.1c-0.1,0-0.2,0-0.3,0c-5.7-0.2-10.4-5-10.5-10.8c0-2.9,1.2-5.8,3.3-7.8c2-2,4.7-3.1,7.6-3.1
		C173.8,475.3,173.8,475.3,173.9,475.3z M452.1,294.3c0.1-5.9,4.7-10.4,10.7-10.4c3,0,5.9,1.2,7.9,3.3c2,2.1,3.1,4.9,3,7.7
		c-0.2,5.7-5,10.4-10.8,10.4h-0.1c-3,0-5.7-1.1-7.7-3.2C453.1,300.1,452.1,297.3,452.1,294.3z"/>
	<path class="st0" d="M388.8,202.6l0-14.5c0-14.8,0-30.1,0-45.2c0-7-1.8-8.8-5.9-10.1c-23.7-7.8-45.8-19.5-67.2-30.9
		c-2.7-1.5-5.5-2.9-8.2-4.4c-37.9-20.1-76.7-19.1-115.4,3c-1.6,0.9-2.7,2.1-3,3.3c-0.2,0.9,0,1.9,0.6,2.9c1.7,2.7,4.4,2,6.5,0.9
		c1.1-0.6,2.2-1.2,3.3-1.8c1.8-1,3.7-2.1,5.6-3c35.2-16.2,69.9-14.8,103.1,4.4c18.8,10.8,41.4,23,66.5,31.4c5.9,2,5.9,6.7,5.9,9.3
		c0,18.1,0,36.5,0,54.2v2c0,17,0,34.5,0,51.7c0,32.8-10,61-29.6,83.7c-24.8,28.8-56,52.1-92.5,69.1c-3.9,1.8-7.4,1.8-11.3,0
		c-35.8-16.5-66.6-39.3-91.6-67.8c-19.2-21.9-29.4-46.9-30.1-74.3c-0.7-26.7-0.7-53.8-0.7-80v-0.2c0-13,0-26.5-0.1-39.8
		c0-5.5,3.9-7.1,6-7.9c8.9-3.6,17.9-7.3,26.6-10.9l8-3.3c0.6-0.2,1.3-0.6,2-0.9c3.2-1.7,4.3-3.7,3.2-6.1c-0.7-1.4-1.8-2.2-3.4-2.2
		c-1,0-2.1,0.3-3.3,0.8l-7.5,3.1c-10.4,4.3-21.1,8.8-31.7,12.9c-6.6,2.6-7.9,4.4-7.9,10.9l0,12.9c0,32.9-0.1,67,0,100.6
		c0.1,36.5,12.3,68.2,36.4,94.1c26.6,28.6,58.3,51.3,94.2,67.2c2,0.9,3.8,1.3,5.6,1.3c1.8,0,3.5-0.4,5.5-1.3
		c36-16,67.7-38.7,94.2-67.2c23.1-24.9,35.3-54.7,36.2-88.6c0.3-12.8,0.3-25.8,0.2-38.5l0-0.4c0-5.6-0.1-11.3-0.1-17v-3.4H388.8z"/>
	<path class="st0" d="M215.9,225c-0.6,0.1-1.1,0.2-1.5,0.3c-0.8,0.1-1.4,0.2-2,0.3c-9.3,1.1-13.9,6.1-13.9,15.2
		c-0.2,20.5-0.2,39.4,0,57.9c0.1,9.5,5.4,15,14.7,15.1c13.2,0.1,26.3,0.2,39.3,0.2c13.4,0,26.6-0.1,39.6-0.2
		c9.2-0.1,14.4-5.5,14.6-15.2c0.1-5.4,0.1-10.8,0.1-16.1c0-2.3,0-4.6,0-6.9c0-3.5,0-7,0-10.4l0-0.2c0-8,0.1-16.2-0.1-24.3
		c-0.1-8.9-4.7-14-13.6-15c-0.7-0.1-1.4-0.2-2.2-0.4l0,0c-0.4-0.1-0.8-0.2-1.3-0.2l-2.8-0.5l0-6.8c0-2.3,0-4.6,0-7
		c-0.1-12.1-4.7-21.6-13.9-28.3c-6.3-4.6-12.9-6.9-19.8-6.9c-4.6,0-9.4,1.1-14.2,3.2c-12.1,5.3-18.9,14.8-20.1,28.1
		c-0.3,3.3-0.2,6.6-0.1,10.1c0,1.6,0.1,3.3,0.1,4.9v2.9L215.9,225z M298.6,296.7c0,1.9-0.2,4.7-2.2,6.7c-2,2-4.9,2.2-6.8,2.2
		c-8.8-0.1-17.7-0.1-26.4-0.1l-0.6,0c-6.7,0-13.7,0-20.7,0c-8.1,0-17.4,0-26.2,0.1l-0.3,0c-1.8,0-4.5-0.2-6.5-2.2
		c-2-2-2.2-4.8-2.2-6.7c0.2-17.4,0.2-35.3,0-54.4c0-1.8,0.2-4.5,2.1-6.4c1.9-1.9,4.5-2.1,6.6-2.1c24.7,0.1,49.7,0.1,74.4,0
		c2.1,0,4.7,0.3,6.6,2.2c1.9,1.9,2.1,4.6,2.1,6.4C298.4,261.6,298.4,279.4,298.6,296.7z M252.6,183.8c13.3,0,24.3,9.9,25.5,23
		c0.3,3.4,0.2,6.8,0.2,10.3c0,1.6-0.1,3.3-0.1,5v3.4l-12.2,0c-2.8,0-5.6,0-8.4,0c-7.2,0-15.8,0-24.4-0.2c-3,0-6.1-3.5-6.4-6.2
		c-0.3-4.1-0.3-8.4,0.2-12.6c1.3-12.9,12.2-22.7,25.3-22.8L252.6,183.8z"/>
	<path class="st0" d="M252.9,243l-0.2,0c-8.4,0-15.8,5.4-18.3,13.5c-2.6,8.3,0.6,17,7.8,21.3c3.6,2.1,7.5,5.4,6.3,12.1
		c-0.1,0.5,0,1.2,0.1,2c0.1,1.3,0.8,4.3,4.1,4.3c3.2,0,3.9-3,4-4.2c0.1-0.9,0.2-1.9,0.1-2.7c-0.6-5,1.3-8.5,6-11.2
		c7.1-4,10.6-12.9,8.3-21.2C268.8,248.8,261.3,243.1,252.9,243z M241.9,261.5c0.3-5.8,5-10.2,10.7-10.2c0.1,0,0.2,0,0.3,0
		c2.9,0.1,5.6,1.3,7.6,3.5c2,2.2,3,5,2.8,8c-0.3,5.6-5.1,10.2-10.7,10.2c-0.1,0-0.2,0-0.3,0c-2.9-0.1-5.6-1.3-7.6-3.5
		C242.7,267.3,241.7,264.4,241.9,261.5z"/>
</g>
</svg>
