<?xml version="1.0" encoding="utf-8"?>
<!-- Generator: Adobe Illustrator 23.0.1, SVG Export Plug-In . SVG Version: 6.00 Build 0)  -->
<svg version="1.1" id="Layer_1" xmlns="http://www.w3.org/2000/svg" xmlns:xlink="http://www.w3.org/1999/xlink" x="0px" y="0px"
	 viewBox="0 0 351.1 381.1" style="enable-background:new 0 0 351.1 381.1;" xml:space="preserve">
<style type="text/css">
	.st0{fill:#9A9A9A;}
</style>
<path class="st0" d="M346,165.2c-16.5-16.7-34-34.3-55.1-55.2c-2.4-2.3-5.1-4.4-7.7-6.5c-0.9-0.7-1.9-1.4-2.8-2.2l-2.3,2V84.9l8.4,0
	c2.3,0,4.7,0,7,0c7.1,0,11.2-2.3,13.1-7.3c1.9-5.1,0.7-9.7-4-14.3c-12.2-12.1-24.6-24.5-36.5-36.5c-7.4-7.4-14.7-14.7-22.1-22.1
	c-6.3-6.3-12.8-6.3-19.2,0.1c-6.5,6.5-12.9,12.9-19.4,19.4c-12.8,12.9-26.1,26.1-39.2,39.2c-4.7,4.7-5.9,9.2-3.8,14.2
	c2.2,5.2,6.2,7.5,12.7,7.3c3.3-0.1,6.6-0.1,9.8-0.1c1.4,0,2.9,0,4.3,0h1.5v71.3h-40.5v-21.8h1.5c1.7,0,3.3,0,5,0c3.6,0,7.2,0,10.7,0
	c5.3,0,9.1-2.4,11-7.1c2.1-4.9,1.2-9.4-2.6-13.2c-8.6-8.7-17.5-17.6-25.4-25.4c-0.8-0.8-1.5-1.3-2.1-1.5c-2.2-0.7-3.7-0.2-4.8,1.5
	c-0.8,1.2-1.5,3.2,1,5.6l3.8,3.8c6.8,6.8,13.9,13.9,20.8,20.9c0.8,0.8,1.1,2,1.4,3c0.1,0.4,0.2,0.7,0.3,1.1l0.6,1.5l-1.5,0.5
	c-0.3,0.1-0.6,0.2-0.9,0.4c-0.8,0.4-1.8,0.8-2.9,0.8c-4.1,0.1-8.3,0.1-12.4,0.1c-1.9,0-3.8,0-5.6,0c-5.3,0-6.4,1.1-6.4,6.2
	c0,1.8,0,3.6,0,5.3c0,5.5-0.1,11.2,0.1,16.7c0.1,3.4-1.2,5.1-4.3,5.9c-3.1,0.8-6.3,1.7-9.2,3.1c-3.6,1.9-6.4,1.3-9.4-1.8
	c-11.2-11.4-22.7-22.8-33.8-33.9l-3-3c-4.9-4.9-11-5.7-15.2-2.2c-4,3.4-8.1,3.6-12.3,3.5c-0.9,0-1.8,0-2.7,0c-1.6,0-3.2,0-4.9-0.1
	c-1.1-0.1-2.1-0.6-3-1c-0.3-0.2-0.7-0.3-1-0.5l-1.5-0.6l0.7-1.5c0.2-0.3,0.3-0.7,0.4-1c0.4-0.9,0.8-2,1.6-2.8
	C54,109,63.8,99.2,73.6,89.4c9.7-9.8,19.5-19.5,29.2-29.3c0.9-0.9,2.2-2,3.9-2c0,0,0,0,0,0c1.7,0,3,1.2,3.8,2
	c4,4.2,8.1,8.3,12.2,12.3l1.8,1.8c3.5,3.4,5.5,2.2,6.7,1c0.8-0.8,1.3-1.7,1.3-2.6c0-1.3-0.7-2.7-2.1-4.1c-3.5-3.5-7-7.1-10.5-10.5
	l-3-3c-7.2-7.2-13.3-7.2-20.5,0c-19.2,19.2-38.4,38.4-57.5,57.5l-0.4,0.4c-0.8,0.8-1.6,1.6-2.3,2.4c-2.9,3.8-3.4,8-1.4,12.2
	c2,4.3,5.4,6.6,10.2,6.9c1.1,0.1,2.2,0,3.3,0c0.5,0,1.1,0,1.6,0h1l1.5,3.2l-1,0.7c-0.4,0.3-0.7,0.5-1.1,0.8c-0.7,0.5-1.4,1-2,1.6
	c-16.8,16.7-30.7,30.6-43.8,43.7c-4.4,4.5-5.6,9.2-3.4,14c2.3,5,6.2,7.3,12.2,7.2c3.3-0.1,6.6,0,10.1,0c1.6,0,3.1,0,4.7,0h1.5
	l0,42.7c0,35,0,70.1,0,105.1c0,9,4.5,13.6,13.5,13.6c22,0,41.6,0,60,0c1,0,2-0.2,3.1-0.4c1-0.2,2-0.3,3.1-0.4
	c1.7-0.1,3.7-0.1,5.4,0.5c3.5,1.3,7,2.8,10.5,4.1c6,2.4,12.2,4.9,18.4,7c3.7,1.2,7.8,1.8,11.8,2.4c1.8,0.3,3.6,0.5,5.4,0.8h18.4
	c0.2-0.1,0.4-0.1,0.6-0.2c0.6-0.2,1.2-0.3,1.8-0.5c2.7-0.6,5.4-1.1,8-1.6c5.8-1.1,11.8-2.2,17.3-4.2c6.6-2.4,12.9-5.5,19.6-8.8
	c2.8-1.4,5.7-2.8,8.7-4.2l1.1-0.5l0.7,1c1.7,2.2,4.8,4.9,10.1,4.9c0,0,0,0,0,0c7.1,0,14.2,0,21.3,0c13.4,0,27.3,0,40.9-0.1
	c2.4,0,5.3-0.9,7.6-2.4c3.4-2.2,4.9-5.6,4.8-11.9c0-41.1,0-82.2,0-123.3l0-42.4h1.5c1.9,0,3.7,0,5.4,0c3.8,0,7.3,0,10.9,0
	c3.7-0.1,7.1-1.8,9.4-4.6c2-2.5,2.7-5.6,2.1-8.6C350.3,170.8,348.4,167.6,346,165.2z M97.7,358.5c-0.6,0-1.1,0.1-1.5,0.1
	c-0.9,0.1-1.6,0.1-2.4,0.1c-9.5,0-19,0-28.5,0c-7,0-14,0-21,0c-5.7,0-6.5-0.8-6.5-6.6c0-34.5,0-69.1,0-103.6l0-42.7l0-1.1
	c0-0.9,0-1.8,0-2.6c-0.2-3.4-1.5-4.8-4.8-4.8c-2.9,0-5.8,0-8.7,0c-3.5,0-7.2,0-10.8-0.1c-1.2,0-2.2-0.5-3.1-1
	c-0.3-0.2-0.7-0.3-1-0.5L8,195.2l0.7-1.4c0.1-0.3,0.3-0.6,0.4-0.9c0.3-0.9,0.7-1.9,1.4-2.6c10.8-10.8,21.6-21.6,32.3-32.4
	c8.9-8.9,17.8-17.8,26.7-26.8c0.8-0.8,2-1.8,3.6-1.8c0,0,0,0,0,0c1.6,0,2.8,1,3.5,1.8c9.3,9.3,18.8,18.8,27.9,28l10.4,10.4l-1.6,1
	c-34,21.4-52.8,51.3-55.9,88.8c-3,37.5,10.7,70.1,41,96.7l2.7,2.4L97.7,358.5z M169.9,372.8c0,0-0.1,0-0.1,0
	c-57.6-0.1-104.5-47-104.4-104.6c0-27.8,10.9-54.1,30.7-73.9c19.8-19.7,45.9-30.6,73.7-30.6c0,0,0.1,0,0.1,0
	c57.7,0.1,104.5,47,104.5,104.6c0,27.8-11,54-30.8,73.8C223.8,362,197.7,372.8,169.9,372.8z M341.4,177.4c-0.4,0.1-0.9,0.3-1.3,0.4
	c-1.1,0.4-2.2,0.7-3.5,0.8c-3.9,0.1-7.8,0.1-11.6,0.1c-1.8,0-3.5,0-5.3,0c-5.5,0-6.4,1-6.4,6.5c0,43.2,0,86.4,0,129.6v35.4
	c0,8-0.6,8.6-8.6,8.6l-54.4,0c-0.3,0-0.6,0-0.8,0c-0.3,0-0.6,0-0.9,0c-0.5,0-1,0-1.5-0.1c-0.8-0.2-1.5-0.5-2.2-0.8
	c-0.2-0.1-0.5-0.2-0.7-0.3l-1.5-0.6l0.7-1.4c0.1-0.3,0.2-0.5,0.3-0.8c0.3-0.7,0.6-1.6,1.2-2.3c2.1-2.5,4.4-5,6.6-7.4
	c4.4-4.8,9-9.8,12.6-15.3c17.7-26.9,22.7-57.1,15-89.6c-0.6-2.4-0.9-4.8-0.9-7c0-14.4,0-29.1,0-43.2c0-6.2,0-12.4,0-18.6l0-0.7
	c0-1.1,0-2.1-0.2-3.1c-0.5-2.5-1.9-3.6-4.3-3.5c-2.4,0.2-3.7,1.5-3.8,3.9c-0.1,4.1-0.1,8.2-0.1,12.3c0,1.4,0,2.8,0,4.2
	c0,5.7,0,11.5,0,17.5l0,12.5l-2.7-3.6c-0.4-0.5-0.7-1-1-1.3c-0.5-0.7-0.9-1.1-1.2-1.7C250,185,229.5,169.2,204.1,161
	c-3.4-1.1-4.7-2.9-4.7-6.3c0.1-18.5,0.1-37.3,0.1-55.5l0-15.3c0-6.2-0.9-7.1-7.1-7.1c-1.6,0-3.2,0-4.8,0c-4.1,0-8.3,0-12.4-0.1
	c-1.1,0-2.2-0.5-3-1c-0.3-0.2-0.7-0.3-1-0.5l-1.5-0.6l0.6-1.4c0.1-0.3,0.2-0.6,0.3-0.9c0.3-0.9,0.6-1.9,1.4-2.7
	c9.7-9.7,19.3-19.4,29-29.1c10-10,20.1-20.1,30.1-30.1c1.2-1.3,2.4-1.8,3.6-1.8c1.6,0,2.9,1.1,3.8,2c8.6,8.7,17.2,17.3,25.9,25.9
	c11,11,22,22,32.9,33c0.8,0.8,1.2,1.9,1.5,2.9c0.1,0.4,0.2,0.7,0.4,1l0.6,1.5l-1.5,0.5c-0.3,0.1-0.6,0.2-0.9,0.4
	c-0.8,0.4-1.8,0.8-2.9,0.8c-3.9,0.1-7.9,0.1-11.8,0.1c-2.2,0-4.4,0-6.6,0c-4.8,0-6,1.2-6,5.8c0,18.9,0,38.3,0,57.7
	c0,4.8,2.1,5.5,4,5.5c1.2,0,2.2-0.3,2.8-1c0.9-0.9,1.4-2.5,1.4-4.7c0-6.2,0-12.5,0-18.7l0-8.7l3.1-1.7l0.8,0.9
	c0.5,0.6,1,1.2,1.5,1.8c1.1,1.3,2.1,2.6,3.3,3.7c6.6,6.7,13.3,13.3,19.9,19.9c10.8,10.9,22.1,22.1,33.1,33.1c0.9,1,1.5,2.2,1.9,3.3
	c0.2,0.5,0.4,0.9,0.6,1.3l0.9,1.7L341.4,177.4z"/>
<path class="st0" d="M169.6,178.2c-12.9,1-14.6,1.5-21.7,3.5l-2.2,0.6c-10.6,3.1-19.7,7.4-27.7,13.3c-2.4,1.7-2.9,4-1.4,6
	c1.4,1.9,3.6,2.2,6,0.7c0.4-0.3,0.8-0.5,1.2-0.8c0.3-0.2,0.6-0.4,0.9-0.6c18.2-12.1,38.3-16.3,59.8-12.4c41.9,7.6,71.5,47.6,66,89.2
	c-2.8,21.3-13.4,40.4-29.7,53.6c-16.3,13.2-37,19.5-58.2,17.6c-23.7-2.1-45.2-14.6-59-34.2c-13.8-19.6-18.2-44.1-12.1-67.2
	c2.5-9.5,6.8-18.5,12.6-26.7c1.5-2.1,1.7-3.8,0.5-5c-0.9-1-2.7-1.9-3.9-1.9c-0.1,0-0.1,0-0.2,0c-0.9,0.1-2.5,1.3-3.5,2.7
	c-13.4,19-18.7,40.3-15.7,63.2c6.2,47.2,48.5,81.2,96.2,77.3c42.2-3.4,77.1-37.7,81.2-79.8c2.5-25.4-5.4-49.8-22.4-68.8
	C219.5,189.8,195.1,178.7,169.6,178.2z"/>
<path class="st0" d="M169.7,329.5c16.4,0,31.8-6.3,43.4-17.8c11.6-11.5,18-26.8,18-43.1c0.1-33.8-27.3-61.4-60.9-61.5
	c-0.1,0-0.1,0-0.2,0c-16.4,0-31.8,6.3-43.4,17.8c-11.6,11.5-18,26.9-18,43.3C108.6,301.9,135.9,329.4,169.7,329.5z M132.5,230.7
	c10-9.9,23.3-15.4,37.5-15.4c0.1,0,0.1,0,0.2,0c29.1,0.1,52.7,24,52.6,53.3c0,14.1-5.6,27.3-15.6,37.3c-10,10-23.3,15.4-37.4,15.4
	c-0.1,0-0.1,0-0.2,0c-29.2-0.1-52.8-23.9-52.8-53.1C116.9,254,122.4,240.7,132.5,230.7z"/>
<path class="st0" d="M154.1,295.1c2.2,1.4,4.6,2.5,7.1,3.6c1.2,0.5,2.3,1,3.5,1.6l0.8,0.4l0.1,0.9c0.6,7.5,2,7.9,4.2,8
	c2.3,0,3.7-0.4,4.5-7.7l0.1-0.8l0.7-0.4c1.5-0.8,2.9-1.5,4.3-2.2c2.9-1.5,5.7-2.9,8-4.7c4.9-4,7.4-9.6,6.7-15.3
	c-0.6-5.8-4.3-10.8-10-13.6c-2.4-1.2-5-2-7.6-2.8c-0.9-0.3-1.8-0.6-2.7-0.9c-1.4-0.5-2.9-0.9-4.3-1.4c-2.6-0.8-5.3-1.6-7.8-2.7
	c-1.9-0.8-3.3-2.2-3.7-3.8c-0.4-1.6,0-3.3,1.2-4.9c3.2-4,7.7-5.5,13.6-4.5c3.5,0.6,8.2,2.2,9.2,8.3c0.5,2.7,2.1,4.1,4.6,3.8
	c2.4-0.3,3.6-2.1,3.4-4.9c-0.5-6.4-4-11-10.5-13.7c-3.2-1.3-6-2.9-5.7-8c0.2-2.4-1.7-3.4-3.5-3.6c-1.4-0.2-2.9,0.3-3.6,1
	c-0.4,0.4-0.4,0.7-0.4,1c0.7,6.7-3.7,8.7-7.3,10.3c-0.4,0.2-0.8,0.4-1.3,0.6c-1,0.5-2,1.3-2.9,2.2c-3.9,3.6-5.8,8.4-5.1,13
	c0.7,4.5,3.8,8.5,8.6,10.8c2.1,1,4.4,1.8,6.6,2.5l0.9,0.3c1.6,0.5,3.3,1,4.9,1.5c3,0.9,6.1,1.8,9.1,3c3.5,1.5,5.7,4.1,6.1,7.2
	c0.4,3.3-1.1,6.5-4.3,9c-6.5,5.1-17.1,5.1-23.2,0c-1.9-1.6-3.5-4.3-4.3-7.2c-1.1-3.9-2.8-4.6-4.2-4.6c-0.1,0-0.3,0-0.4,0
	c-1.1,0.1-2.1,0.6-2.7,1.3c-0.8,1-1.2,2.4-1,4C146.2,287.3,149.1,291.9,154.1,295.1z"/>
</svg>
