<?xml version="1.0" encoding="utf-8"?>
<!-- Generator: Adobe Illustrator 23.0.1, SVG Export Plug-In . SVG Version: 6.00 Build 0)  -->
<svg version="1.1" id="Layer_1" xmlns="http://www.w3.org/2000/svg" xmlns:xlink="http://www.w3.org/1999/xlink" x="0px" y="0px"
	 viewBox="0 0 384 384" style="enable-background:new 0 0 384 384;" xml:space="preserve">
<style type="text/css">
	.st0{fill:#5655A5;}
	.st1{fill:#818181;}
</style>
<g>
	<path class="st0" d="M102.2,291"/>
</g>
<path class="st1" d="M373.7,189.5h-19.1l-0.6-7.3C348,103,283.7,38.7,204.5,32.7l-7.3-0.6V13c0-2.9-2.3-5.2-5.2-5.2
	s-5.2,2.3-5.2,5.2v19.1l-7.3,0.6C100.3,38.7,36,103,29.9,182.2l-0.6,7.3H10.3c-2.9,0-5.2,2.3-5.2,5.2c0,2.9,2.3,5.2,5.2,5.2h19.1
	l0.6,7.3c6.1,79.2,70.4,143.5,149.6,149.6l7.3,0.6v19.1c0,2.9,2.3,5.2,5.2,5.2c2.9,0,5.2-2.3,5.2-5.2v-19.1l7.3-0.6
	c79.2-6.1,143.5-70.4,149.6-149.6l0.6-7.3h19.1c2.9,0,5.2-2.3,5.2-5.2S376.6,189.5,373.7,189.5z M325,200h19.3l-0.8,8.6
	c-3.2,35.3-18.8,68.5-44,93.7c-25.2,25.2-58.4,40.8-93.7,44l-8.6,0.8v-19.3c0-2.9-2.3-5.2-5.2-5.2s-5.2,2.3-5.2,5.2V347l-8.6-0.8
	c-35.3-3.2-68.5-18.8-93.7-44c-25.2-25.2-40.8-58.4-44-93.7l-0.8-8.6H59c2.9,0,5.2-2.3,5.2-5.2c0-2.9-2.3-5.2-5.2-5.2H39.7l0.8-8.6
	c3.2-35.3,18.8-68.5,44-93.7c25.2-25.2,58.4-40.8,93.7-44l8.6-0.8v19.3c0,2.9,2.3,5.2,5.2,5.2c2.9,0,5.2-2.3,5.2-5.2V42.5l8.6,0.8
	c35.3,3.2,68.5,18.8,93.7,44c25.2,25.2,40.8,58.4,44,93.7l0.8,8.6H325c-2.9,0-5.2,2.3-5.2,5.2S322.1,200,325,200z"/>
<path class="st1" d="M192,185.8c26.9,0,48.7-21.8,48.7-48.7S218.9,88.4,192,88.4c-26.9,0-48.7,21.8-48.7,48.7S165.1,185.8,192,185.8
	z M192,98.5c21.3,0,38.6,17.3,38.6,38.6s-17.3,38.6-38.6,38.6c-21.3,0-38.6-17.3-38.6-38.6S170.7,98.5,192,98.5z"/>
<path class="st1" d="M192,198.2c-54,0-97.9,43.9-97.9,97.9c0,2.8,2.3,5,5,5h185.6c2.8,0,5-2.3,5-5C289.9,242.1,246,198.2,192,198.2z
	 M281.8,291H102.2l5.3-18.7c10.6-37.7,45.4-64,84.5-64c39.2,0,73.9,26.3,84.5,64L281.8,291z"/>
</svg>
