<?xml version="1.0" encoding="utf-8"?>
<!-- Generator: Adobe Illustrator 23.0.1, SVG Export Plug-In . SVG Version: 6.00 Build 0)  -->
<svg version="1.1" id="Layer_1" xmlns="http://www.w3.org/2000/svg" xmlns:xlink="http://www.w3.org/1999/xlink" x="0px" y="0px"
	 viewBox="0 0 374.3 344.5" style="enable-background:new 0 0 374.3 344.5;" xml:space="preserve">
<style type="text/css">
	.st0{fill:#808080;}
</style>
<path class="st0" d="M364.9,295.5l-3.2,0.3l0-57.8c0-44.1,0-88.3,0-132.4c0-15.1-6.6-26-19.7-32.2c-3.3-1.6-7.1-2.5-11.2-3.4
	c-2-0.5-4.1-0.9-6.3-1.5l-2.2-0.6l0-18.3c0-10,0-19.9,0-29.9c0-12.5-7.2-19.7-19.8-19.7C225.7,0,148.9,0,72,0
	c-12.7,0-19.9,7.3-20,19.9c0,10.8,0,21.5,0,32.3l0,16.5l-2.4,0.4c-1.4,0.2-2.7,0.4-4,0.6c-2.7,0.4-5.3,0.7-7.7,1.5
	c-15.8,4.6-25.2,17.3-25.2,33.8c0,44.2,0,88.3,0,132.5l0,58H9.8c-0.6,0-1.3,0-1.9,0c-1.2,0-2.2,0-3.2,0c-1.3,0.1-4.2,0.7-4.4,3.6
	c-0.7,9.7-0.8,19.2,4.3,27.8c6.4,10.8,15.7,16.5,28.5,17.5c0.5,0,1.1,0,1.8,0l0.6,0l71.5,0c76,0,154.5,0,231.8,0
	c14.8,0,25.6-6.7,32.2-19.9c1-2,1.7-4.2,2.4-6.6c0.3-1,0.6-2,0.9-2.9v-16.6C372.7,295.9,370,295,364.9,295.5z M61,19.4
	C61.1,12.5,64.6,9,71.4,9C148.6,9,225.8,9,303,9c6.9,0,10.4,3.5,10.4,10.4c0,7.2,0,14.5,0,21.9l0,12.1H61.8l-0.4-2.5
	c0-0.2-0.1-0.5-0.1-0.7c-0.1-0.6-0.2-1.4-0.3-2.2C61,39.2,61,29.2,61,19.4z M21.7,105.7C21.7,90.1,32.1,79,47,78.8
	c0.5,0,1,0,1.6,0.1c0.2,0,0.5,0,0.8,0.1l2.7,0.2l0,146.5c0,14.1,6.9,21,21.1,21c76.1,0,152.2,0,228.3,0c14.1,0,20.9-6.8,20.9-20.8
	c0-3.4,0-6.9,0-10.3c0-11.1,0-22.5-0.1-33.8c0-1.7-0.7-3.8-1.6-5.2c-1.1-1.6-3-1.2-4-0.9c-2,0.7-3,1.9-3.1,4
	c-0.2,2.1-0.1,4.3-0.1,6.6c0,0.8,0,1.6,0,2.5c0,5.4,0,10.8,0,16.2c0,7.2,0,14.4,0,21.6c0,7.9-3.3,11.1-11.2,11.1
	c-76.7,0-153.4,0-230.1,0c-7.5,0-11-3.3-11-10.5c0-46.8,0-93.5,0-140.3l0-19.3c0-0.4,0-0.8,0.1-1.3l0.2-3.5h20.5l0,17.6
	c0,8.9,0,18,0,27c0,3.4,1.3,5.3,3.8,5.6c1.5,0.2,2.6-0.1,3.5-0.9c1-0.9,1.6-2.6,1.6-4.7c0-8.8,0-17.8,0-26.5c0-3.7,0-7.3,0-11v-7.2
	h222.7l0,17.1c0,12.7,0,25.4,0,38.1c0,1.2,0,2.5,0.3,3.7c0.5,1.9,2.3,3.3,4.1,3.2c2.3-0.2,3.6-1.1,4.2-3.2c0.3-1.1,0.3-2.4,0.3-3.6
	c0-8,0-16.1,0-24.1l0-14.4l2.6-0.3c13.2-1.5,25.2,7.7,27.4,21c0.3,1.6,0.4,3.4,0.4,5.7c0,54.1,0,108.1,0,162.2v27.3h-331l0-54.7
	C21.7,195.6,21.7,150.6,21.7,105.7z M360.9,324.5c-3.9,5.6-10,9.4-16.7,10.6c-2.2,0.4-4.5,0.4-6.4,0.4c-62.5,0-125,0-187.5,0
	c-38,0-75.9,0-113.9,0c-8.6,0-16-3-21-8.4c-4.7-5.1-6.9-12.2-6.2-19.9l0.2-2.7h354.8l0.5,2.4C366,313,364.6,319.2,360.9,324.5z"/>
<path class="st0" d="M225.7,117.4c-4.7-1.3-10.1-1.4-15.2-1.5l-0.5,0c-0.6,0-1.2,0-1.8,0c-3.1,0-5.8,0.2-6.8,1.2
	c-1.1,1.1-1.3,4.8-1.3,8.6l0,24.5c0,2.8,0,5.6,0,8.4c0,6.3,0,12.9,0,19.4c0,4.8,1.5,6.3,6.4,6.3l1,0c2.8,0,5.7,0,8.5,0
	c8-0.2,14.6-2.3,20-6.6c11.3-8.9,15.3-21.3,11.9-36.9C245.3,128.8,237.6,120.7,225.7,117.4z M236.8,163.3
	c-4.3,7.9-11.5,11.9-21.5,11.9c-1.1,0-2.3,0-3.4-0.1l-2.7-0.2v-49.5l2.6-0.3c10.7-1.2,18.8,2.1,24,9.9
	C241.6,143.7,241.9,153.8,236.8,163.3z"/>
<path class="st0" d="M173.3,175.9c-2.4-7.1-4.8-14.3-7.2-21.4l-2.6-7.7c-3-9-6.1-18-9.1-27.1c-1.1-3.4-3-3.8-4.5-3.8
	c-1.5,0-3.4,0.4-4.5,3.7c-0.1,0.3-0.2,0.6-0.3,1c-0.1,0.3-0.2,0.5-0.3,0.8l-2.9,8.6c-5.1,15.3-10.3,30.5-15.4,45.8
	c-0.4,1.1-0.8,2.4-0.9,3.6c-0.2,2.1,1,3.9,3.1,4.5c1.9,0.6,3.8-0.2,4.8-2c0.7-1.2,1.2-2.3,1.4-3.2c0.8-3.7,3.2-5.4,7.2-5.3l0.9,0
	c3.6,0.1,7.4,0.3,10.9-0.1c6.9-0.7,9,0.3,10.8,6.2c0,0.1,1.2,2.3,1.6,2.8c1.9,2.2,3.4,2,4.7,1.5c1.5-0.5,3.3-1.5,3.1-4.4
	c-0.1-0.2-0.1-0.5-0.2-0.7C173.9,177.9,173.6,176.8,173.3,175.9z M139.9,164.2l10-29.8l10,29.8H139.9z"/>
<path class="st0" d="M86.2,133.6C86.2,133.6,86.2,133.6,86.2,133.6c-1.2,0-2.3,0.5-3.2,1.4c-0.8,0.9-1.3,2-1.2,3
	c0,1.1,0.6,2.2,1.5,3.1c0.9,0.8,2,1.3,3,1.3c2.3-0.1,4.4-2.3,4.4-4.5C90.6,135.6,88.5,133.6,86.2,133.6z"/>
<path class="st0" d="M317.9,145.6C317.9,145.6,317.9,145.6,317.9,145.6c-2.3,0-4.4,2.1-4.5,4.4c0,2.2,2.1,4.4,4.4,4.5
	c1.1,0,2.2-0.5,3-1.3c0.9-0.9,1.4-2,1.4-3v0C322.3,147.8,320.2,145.6,317.9,145.6z"/>
<path class="st0" d="M199.8,315.5c-4.1-0.1-8.3-0.1-12.5-0.1c-4.2,0-8.4,0-12.6,0.1c-3.2,0-5.2,1.7-5.3,4.4
	c-0.1,3.2,2.8,4.5,5.4,4.5c2.8,0.1,5.6,0,8.3,0c1.3,0,2.5,0,3.8,0c1.3,0,2.6,0,3.9,0c2.8,0,5.8,0,8.7,0c3.4-0.1,5.5-1.8,5.5-4.5
	C205,317.4,202.9,315.6,199.8,315.5z"/>
<path class="st0" d="M197.8,35.2c1.2,0.4,2.8,0.5,4.1,0.5c9.6,0,19.3,0,28.7,0l9.1,0l8.9,0c9.6,0,19.3,0,28.9,0c1.4,0,2.8,0,3.9-0.4
	c2.1-0.6,3-1.9,3-4.1c0-2.2-0.9-3.4-3.1-4.1c-1-0.3-2.4-0.4-3.5-0.4c-13,0-25.3,0-37.1,0c-13.7,0-26.7,0-39.3,0
	c-1.6,0-2.8,0.2-3.7,0.5c-1.7,0.6-2.6,1.9-2.6,3.8C195.1,33.9,196.6,34.8,197.8,35.2z"/>
<path class="st0" d="M89,35.6C89,35.6,89,35.6,89,35.6c1.1,0,2.2-0.5,3-1.3c0.9-0.9,1.4-2,1.4-3.1c0-1.1-0.5-2.2-1.3-3.1
	c-0.9-0.9-2-1.4-3-1.4c0,0,0,0,0,0c-1.1,0-2.2,0.5-3,1.3c-0.8,0.9-1.3,2-1.3,3.1C84.6,33.6,86.7,35.6,89,35.6z"/>
<path class="st0" d="M122.1,35.6c1.1,0,2.2-0.4,3-1.2c0.9-0.8,1.4-2,1.4-3.1v0c0-2.4-1.9-4.5-4.3-4.5c0,0,0,0-0.1,0
	c-2.2,0-4.4,2.2-4.4,4.4C117.7,33.4,119.8,35.6,122.1,35.6z"/>
<path class="st0" d="M155.3,35.6C155.3,35.6,155.3,35.6,155.3,35.6c1.1,0,2.2-0.5,3-1.3c0.9-0.9,1.4-2,1.4-3v0c0-1.1-0.5-2.2-1.3-3
	c-0.9-0.9-2-1.4-3-1.4c0,0,0,0,0,0c-1,0-2.1,0.5-3,1.3c-0.9,0.9-1.4,2-1.4,3C150.8,33.4,153,35.6,155.3,35.6z"/>
</svg>
