<?xml version="1.0" encoding="utf-8"?>
<!-- Generator: Adobe Illustrator 23.0.1, SVG Export Plug-In . SVG Version: 6.00 Build 0)  -->
<svg version="1.1" id="Layer_1" xmlns="http://www.w3.org/2000/svg" xmlns:xlink="http://www.w3.org/1999/xlink" x="0px" y="0px"
	 viewBox="0 0 384 384" style="enable-background:new 0 0 384 384;" xml:space="preserve">
<style type="text/css">
	.st0{fill:#808080;}
	.st1{fill:none;}
	.st2{fill:none;stroke:#808081;stroke-width:10;stroke-miterlimit:10;}
</style>
<g>
	<path class="st0" d="M136.2,50.3c-1.9-14.7,8-13.6,18.2-13.6c57.8,0.2,115.6,0.1,173.4,0.1c18.1,0,18.1,0,19.7,18.1
		c9.4-0.9,15.6,2.4,13.3,13.9c2.6,0.2,4.5,0.8,6.3,0.5c9.8-1.4,12.5,2.9,12.5,12.5c-0.3,71-0.2,142-0.2,213
		c0,14.7-0.3,29.5,0.1,44.2c0.2,7.6-2.7,10.1-10.2,10.1c-63.2-0.2-126.5-0.3-189.7,0.1c-10.7,0.1-10.4-6.4-10-14.2
		c-14.3,1.9-23.1-1.4-18.6-15.1c-6.6-4.1-14.6-1.5-15.9-7.4c-0.1-0.6,0-3.7,0-4.5 M336.7,306.6c0-87.2,0-173.5,0-259.5
		c-63.8,0-126.8,0-189.7,0c0,86.9,0,173,0,259.5C210.3,306.6,273.1,306.6,336.7,306.6z M136.8,297c0-24.8,0-48.8,0-73.4 M136.3,139
		c0-26.4,0-52.3,0-78.2 M369.5,79.8c-10.9-3.4-8.7,4.3-8.7,9.5c-0.1,77.6-0.2,155.2,0.2,232.8c0,10-2.5,13.4-13,13.3
		c-52.4-0.5-104.7-0.2-157.1-0.2c-3.9,0-7.7,0.5-11.6,0.7c0.1,0.9,0.2,1.9,0.3,2.8c63.1,0,126.2,0,189.9,0
		C369.5,252.7,369.5,166.7,369.5,79.8z M350.4,65.4c-1.2,0-2.4,0-3.6,0c0,4.1,0,8.3,0,12.4c0,74.5,0,149,0,223.5
		c0,15.2,0,15.2-15.3,15.2c-53.9,0-107.8,0-161.8,0c-9.4,0-9.4,0.2-7.5,8.7c62.7,0,125.4,0,188.1,0
		C350.4,238.2,350.4,151.8,350.4,65.4z M136.5,212c0-20.6,0-41.3,0-62"/>
</g>
<path class="st0" d="M324.8,136.9V78.8c0-11.4-9.3-20.7-20.7-20.7h-15.8c-11.4,0-20.7,9.3-20.7,20.7v58.2l0,49.3v79.2
	c0,2.8,0.9,5.5,2.6,7.7l15.8,21c2.4,3.3,6.2,5.1,10.2,5.1s7.8-1.9,10.2-5.1l15.8-21c1.7-2.2,2.6-4.9,2.6-7.7v-47.7L324.8,136.9z
	 M288.3,67.9h15.8c6,0,10.9,4.9,10.9,10.9v10.9h-37.5l0-10.9C277.5,72.8,282.3,67.9,288.3,67.9z M314.9,99.4v140h-13.8v-140H314.9z
	 M277.5,99.4h13.8v140h-13.8V99.4z M277.5,249.3h37.5v16.1c0,0.6-0.2,1.3-0.6,1.8l-15.8,21c-0.6,0.8-1.4,1.2-2.4,1.2
	c-0.9,0-1.8-0.4-2.4-1.2l-15.8-21c-0.4-0.5-0.6-1.1-0.6-1.8V249.3z"/>
<g>
	<path class="st1" d="M121.8,129.7c-27.2,3.6-46.7,29.5-43.4,57.8c3.3,29.2,28,49.7,55.8,46.2c2.3-0.3,4.6-0.8,6.8-1.4V131.1
		C134.8,129.4,128.4,128.8,121.8,129.7z"/>
	<path class="st2" d="M134.1,233.7c-27.7,3.5-52.4-17-55.8-46.2c-3.2-28.3,16.2-54.2,43.4-57.8c6.6-0.9,13.1-0.3,19.1,1.4V73.6
		c-0.2-1.3-0.4-2.6-0.6-3.9c-1.4-9-8.1-14.6-16.9-13.7c-6.4,0.6-12.9,1.4-19.3,2.4c-8.5,1.3-13.9,8.6-13.3,17.6
		c0.2,2.3,0.5,4.6,0.7,6.9c0.7,6.8-1.9,12.1-7.4,15.7c-5.7,3.7-11.6,3.5-17.2-0.4c-2.2-1.5-4.1-3.3-6.2-4.8
		c-7.2-5.2-15.6-4.1-21.4,2.8c-2.5,3.1-4.9,6.3-7.3,9.5c-11.6,15.4-11.2,19.8,2.8,32.6c0.4,0.4,0.8,0.8,1.2,1.2
		c8.3,8.6,5.9,22.5-4.9,27.2c-3,1.3-6.4,1.6-9.7,2.1c-9.6,1.4-15.1,8.4-14.2,18.5c0.3,3.8,0.8,7.7,1.3,11.5c2.2,19,6.1,22.4,24.3,21
		c0.4,0,0.7-0.1,1.1-0.1c6.5-0.2,11.5,2.6,14.7,8.5c3.2,5.9,2.7,11.9-0.8,17.5c-1.6,2.6-3.7,4.8-5.3,7.4c-4.1,6.9-3.1,15.2,2.7,20.5
		c5.3,4.8,10.8,9.4,16.6,13.6c6.6,4.8,14.6,3.6,20.1-2.6c1.9-2.1,3.4-4.5,5.3-6.7c4.6-5.1,10.4-6.7,16.7-4.5
		c6.2,2.1,9.8,6.7,10.7,13.5c0.3,2.3,0.5,4.6,0.8,6.9c1.3,7.8,6.4,13.9,13.6,13.7c3.9-0.1,7.8-0.3,11.8-0.8v-74.2
		C138.7,233,136.4,233.4,134.1,233.7z"/>
</g>
<path class="st0" d="M166.2,83.4h71c2.7,0,4.9-2.2,4.9-4.9s-2.2-4.9-4.9-4.9h-71c-2.7,0-4.9,2.2-4.9,4.9S163.4,83.4,166.2,83.4z"/>
<path class="st0" d="M166.2,113.4h71c2.7,0,4.9-2.2,4.9-4.9s-2.2-4.9-4.9-4.9h-71c-2.7,0-4.9,2.2-4.9,4.9S163.4,113.4,166.2,113.4z"
	/>
<path class="st0" d="M166.2,143.4h71c2.7,0,4.9-2.2,4.9-4.9s-2.2-4.9-4.9-4.9h-71c-2.7,0-4.9,2.2-4.9,4.9S163.4,143.4,166.2,143.4z"
	/>
<path class="st0" d="M166.2,173.4h71c2.7,0,4.9-2.2,4.9-4.9s-2.2-4.9-4.9-4.9h-71c-2.7,0-4.9,2.2-4.9,4.9S163.4,173.4,166.2,173.4z"
	/>
<path class="st0" d="M166.2,203.4h71c2.7,0,4.9-2.2,4.9-4.9s-2.2-4.9-4.9-4.9h-71c-2.7,0-4.9,2.2-4.9,4.9S163.4,203.4,166.2,203.4z"
	/>
<path class="st0" d="M166.2,233.4h71c2.7,0,4.9-2.2,4.9-4.9s-2.2-4.9-4.9-4.9h-71c-2.7,0-4.9,2.2-4.9,4.9S163.4,233.4,166.2,233.4z"
	/>
</svg>
