<?xml version="1.0" encoding="utf-8"?>
<!-- Generator: Adobe Illustrator 23.0.1, SVG Export Plug-In . SVG Version: 6.00 Build 0)  -->
<svg version="1.1" id="Layer_1" xmlns="http://www.w3.org/2000/svg" xmlns:xlink="http://www.w3.org/1999/xlink" x="0px" y="0px"
	 viewBox="0 0 384 384" style="enable-background:new 0 0 384 384;" xml:space="preserve">
<style type="text/css">
	.st0{fill:none;stroke:#808080;stroke-width:10;stroke-miterlimit:10;}
	.st1{fill:#808080;}
</style>
<path class="st0" d="M257.9,292.4c-43.2,0-76.6-32.3-76.5-73.9c0.1-40.5,33.7-74.7,73.2-74.4c40.4,0.3,75.6,34.7,75.8,74.1
	C330.7,259.5,298.5,292.4,257.9,292.4z"/>
<g>
	<path class="st0" d="M136.4,299.9c-7.1,0.2-14.2-2.2-20.9-4.4c-20.8-7-25.2-16.5-18-37.1c7.5-21.4,28.2-33.7,48.8-29.2
		c19.6,4.3,35.8,25.8,34.1,46.4c-0.3,3.7-3.2,8.5-5.9,10.7c-4.6,3.9-6.4,5.3-15,8.9C154,297.4,142.8,299.7,136.4,299.9z"/>
	<path class="st0" d="M76.6,190.2c-0.8,0-1.6,0-2.4,0c-20.6-0.7-31.6-9.4-29.9-23.6c2.4-20.3,20.8-35,39.2-31.3
		c1.2,0.2,2.3,0.6,3.4,1c15,5,27,23.5,24.2,37.3C109.5,181.9,92.2,190.2,76.6,190.2z"/>
	<path class="st0" d="M165.9,197c0,15.4-12.9,28.1-28.4,28c-15.6-0.1-28.2-12.8-28.1-28.2c0.1-15.4,12.9-28.1,28.3-28.1
		C153,168.7,165.9,181.7,165.9,197z"/>
	<path class="st0" d="M55.9,110c0.1-12.7,9.2-21.7,21.9-21.7c12.5,0,21.8,9.3,21.7,21.9c-0.1,12.2-9.8,22-21.9,21.9
		C65.4,132.1,55.9,122.3,55.9,110z"/>
</g>
<path class="st0" d="M286.2,291c7.3-4.4,13.6-8.1,20.8-12.4c15.7,25.5,30.8,50.3,46.2,75c4.6,7.4,3.5,12.5-4.3,16.9
	c-7.9,4.5-12.7,2.1-17-5C317.1,341.1,302,316.8,286.2,291z"/>
<g>
	<path class="st1" d="M108.3,59v16.3v16.3c0,14.8,0,29.8,0,44.6c0,5.2,1.3,6.6,6.5,6.6c10.8,0,19.8,0,28.2,0c4.8,0,6.2-1.5,6.2-6.2
		c0-41,0-82,0-123c0-4.6-1.3-6-6-6c-4.8,0-9.6,0-14.4,0c-4.8,0-9.6,0-14.4,0c-4.5,0-6,1.4-6,6C108.3,28.6,108.3,43.7,108.3,59z
		 M117.5,16.4h22.3v117h-22.3V16.4z"/>
	<path class="st1" d="M167.3,47.2c0,29.6,0,59.3,0,88.9c0,5.2,1.3,6.5,6.6,6.5c5.2,0,10,0,14.6,0s9.1,0,13.3,0
		c5.1,0,6.4-1.3,6.4-6.6c0-10.7,0-21.3,0-32V91.7V79c0-10.5,0-21.1,0-31.6c0-5.2-1.3-6.6-6.4-6.6c-5,0-9.7,0-14.2,0
		c-4.8,0-9.4,0-13.9,0C168.7,40.8,167.3,42.1,167.3,47.2z M176.6,50h22.3v83.7h-22.3V50z"/>
	<path class="st1" d="M226.5,78.2c-0.1,18.7-0.1,38,0,58.9c0,4,1.5,5.5,5.5,5.5c5.2,0.1,10.3,0.1,15.3,0.1c4.9,0,9.7-0.1,14.4-0.1
		c3.9,0,5.4-1.5,5.4-5.6c0-6.8,0-13.8,0-20.6v-8.5v-7.3v-1.1c0-7.1,0-14.1,0-21.1c0-3.9-1.3-5.5-4.9-5.7c-0.2,0-0.4,0-0.7,0
		c-5,0-9.9,0-14.7,0c-5,0-10,0-14.7,0C227.9,72.7,226.4,74.2,226.5,78.2z M235.7,81.7h22.4v51.8h-22.4V81.7z"/>
</g>
</svg>
