<?xml version="1.0" encoding="utf-8"?>
<!-- Generator: Adobe Illustrator 23.0.1, SVG Export Plug-In . SVG Version: 6.00 Build 0)  -->
<svg version="1.1" id="Layer_1" xmlns="http://www.w3.org/2000/svg" xmlns:xlink="http://www.w3.org/1999/xlink" x="0px" y="0px"
	 viewBox="0 0 381.2 381.1" style="enable-background:new 0 0 381.2 381.1;" xml:space="preserve">
<style type="text/css">
	.st0{fill:#9A9A9A;}
</style>
<g>
	<path class="st0" d="M12.7,289c5.4,1.2,11.2-0.7,15.9-5.3h0c2.5-2.5,5-5,7.5-7.5c1.7-1.7,3.3-3.3,5-5c0.6-0.6,1.2-1.2,2-1.9
		c0.4-0.4,0.9-0.8,1.4-1.3l2.4-2.2l0,5.8c0,1.4,0,2.5,0,3.6c0,1.9,0,3.7,0,5.6c0,4.6,0,9.3,0.1,13.9c0.1,2.4,1.3,3.7,3.8,3.9
		c2.4,0.2,3.9-1.2,4.3-3.8c0.1-0.8,0.1-1.7,0.1-2.7l0-0.5c0-2.8,0-5.6,0-8.4c0-7.3,0-14.9,0.1-22.3c0.1-2.3,1.2-5.1,2.8-6.8
		c9-9.2,18.3-18.5,27.3-27.4c4.8-4.8,9.5-9.5,14.3-14.3c1-1,2-2.3,3.1-3.6c0.6-0.8,1.3-1.6,2-2.4l1.1-1.4l1.1,1.4
		c0.6,0.7,1.1,1.4,1.5,2c0.9,1.1,1.5,2,2.3,2.8c0.5,0.5,1,1,1.5,1.5c2.1,2.1,4.6,4.5,4.7,8.6c0.1,0.5,1.4,1.9,2,2
		c4.2-0.1,6.6,2.5,8.7,4.7c0.4,0.5,0.9,0.9,1.3,1.4c8.1,8,17.4,8,25.4,0.1c3.5-3.5,7-7,10.6-10.5c6.6-6.6,13.5-13.5,20.3-20.2
		c1.7-1.6,4.1-2.3,5.1-2.4c2.6-0.5,3.8-1.7,4.2-4.2c0.4-2.1,1.4-4.1,2.8-5.5c5-5.1,10.1-10.3,15.1-15.2c2.3-2.3,4.6-4.6,6.8-6.8
		c2.4-2.4,4.7-4.7,7.1-7.2l4.3-4.3l1,1c1.9,1.9,3.8,3.8,5.6,5.6c5.4,5.4,10.5,10.5,15.6,15.8c1.3,1.4,2.5,3.3,3.1,5.2
		c0.5,1.7,1.7,2.9,3,3.3c1.4,0.4,2.9-0.1,4.3-1.3c0.9-0.8,2.1-1.7,3.5-1.9c4.2-0.6,7.7-2.7,11.7-6.6c10.7-10.8,21.6-21.6,32.1-32.1
		l9-9c0.6-0.6,1.3-1.2,2.1-1.9c0.4-0.4,0.8-0.7,1.3-1.2l2.3-2.1l0.1,3.1c0,0.6,0.1,1.2,0.1,1.7c0.1,1,0.1,1.8,0.1,2.6
		c0,4.4,0,8.8,0,13.3l0,8.5l0,0.7c0,0.8,0,1.5,0.1,2.1c0.3,2.6,1.8,4,4.2,4c0,0,0,0,0.1,0c2.6,0,4-1.6,4-4.4c0.1-10.1,0.1-22,0-34.1
		c0-4.2,0.2-7.8,4-10.8c1.8-1.4,3.4-3.1,5.1-4.9c0.7-0.8,1.5-1.6,2.3-2.4l1.7-1.7l0.7,2.2c0.7,2.1,0.8,3.8,0.8,5.3
		c0,0.3,0,0.6,0,0.9c0.5,8.7,7.6,15.6,16.1,15.6c0,0,0,0,0.1,0c8.8,0,16.1-7.2,16.2-15.9c0.2-16.6,0.2-33.2,0-49.5
		c-0.1-8.7-6.9-15.5-15.6-15.6c-16.7-0.2-33.3-0.2-49.5,0c-8.9,0.1-15.9,7.1-16,16c-0.1,8.9,7,16.1,16.1,16.4c1.1,0,2.2,0,3.4,0
		c0.5,0,1.1,0,1.6,0h3.5l-58.3,58.3l0,0.4l-0.9,0.4c-0.6,0.2-1.2,0-1.6-0.3l-1.4-0.7l0.3-0.3c-6.2-6.2-12.4-12.4-18.7-18.6
		c-8.8-8.8-17.7-8.8-26.4,0c-13.2,13.2-26.4,26.4-39.6,39.6l-32,32c-0.6,0.6-1.3,1.3-2.1,2l-2.2,2.1l-7.8-7.8
		c-4.9-5-9.9-9.9-14.8-14.8c-8.8-8.7-17.6-8.7-26.4,0l-21.1,21.1C51.3,215,30.1,236.1,9.3,256.9c-4,4-7.5,7.7-9.3,12.7v6.7
		c0.2,0.2,0.4,0.5,0.5,0.9C2.8,283.4,7.3,287.7,12.7,289z M12.8,265.2c28.5-28.5,57.1-57.1,85.6-85.6c5.8-5.8,9.4-5.8,15.2,0
		l10.8,10.8c4.3,4.3,8.6,8.6,12.8,12.8c3.9,3.9,5.4,3.9,9.2,0.1c15.3-15.3,30.7-30.6,46-46l30.6-30.6c6-6,9.4-6,15.5,0.1l7.2,7.2
		c5,5,10,10,15.1,15c3.4,3.4,5.1,3.4,8.4,0.1c12.5-12.5,25-25,37.5-37.5c10.1-10.1,20.3-20.3,30.4-30.4c2.1-2.1,3-3.5,2.1-5.7
		c-0.8-2.1-2.3-2.8-5.7-2.7c-5.2,0.1-10.6,0.1-16.5,0c-5.1-0.1-8.7-3.3-8.7-7.8c0-2.1,0.7-4,2.1-5.4c1.6-1.6,3.9-2.5,6.5-2.5
		c5.5-0.1,11.2-0.1,16.6,0c2.5,0,4.9,0,7.4,0l6,0c5.5,0,11,0,16.5,0c6.3,0,9.2,3,9.2,9.2c0,13.7,0,28.6,0,45.8
		c0,3.1-0.9,5.6-2.6,7.3c-1.4,1.4-3.3,2.1-5.4,2.1c-4.6-0.1-7.7-3.7-7.8-9.2c-0.1-5.5,0-11.2,0-16.2c0-3.3-0.6-4.7-2.5-5.6
		c-2-0.9-3.5-0.4-6,2.1c-21.7,21.7-43.4,43.4-65.1,65.1L272.8,168c-6,6-9.4,5.9-15.4-0.1c-2.9-2.9-5.7-5.7-8.6-8.6
		c-4.5-4.5-8.9-9-13.4-13.4c-3.8-3.8-5.2-3.8-9,0c-14.3,14.3-28.6,28.6-42.9,42.9l-34,34c-5.7,5.7-9.4,5.7-15.2-0.1
		c-3.3-3.3-6.6-6.6-9.8-9.8c-4.6-4.6-9.2-9.2-13.8-13.8c-3.9-3.9-5.4-3.9-9.3,0L24,276.5c-3,3-5.7,4.4-8.2,4.4c0,0,0,0,0,0
		c-1.9,0-3.6-0.8-5.1-2.3C8.1,276,6.4,271.6,12.8,265.2z"/>
	<path class="st0" d="M381.1,362.6c0-0.8,0-1.7,0-2.5c0-7.3-4.1-11.4-11.3-11.4c-6.9,0-14,0-20.8,0c-3.1,0-6.1,0-9.2,0H334l0-159.9
		c0-1.1,0-2.1-0.1-3.1c-0.2-2.3-1.5-3.5-3.8-3.7c-2.3-0.1-3.7,0.9-4.2,3.2c-0.3,1.1-0.3,2.4-0.3,3.7l0,0.5c0,26.3,0,52.5,0,78.8
		c0,24.7,0,49.4,0,74.2c0,1.1-0.1,2.2-0.1,3.3c0,0.5-0.1,0.9-0.1,1.3l-0.1,1l-1,0.3c-0.2,0.1-0.4,0.1-0.6,0.2
		c-0.3,0.1-0.6,0.2-1,0.2l-7.3,0c-15.5,0-31.6,0.1-47.4,0c-1.6,0-3.3-1.2-4.2-2.4c-1.1-1.3-2.3-2-3.6-2c-1.3,0-2.6,0.7-3.8,2
		c-1.2,1.4-3.3,2.4-5,2.4c-17.6,0.1-35.2,0.1-52.5,0c-1.9,0-3.9-1.3-4.9-2.5c-1.1-1.2-2.3-1.9-3.6-1.9c-1.3-0.1-2.5,0.6-3.6,1.8
		c-1.1,1.2-3.2,2.5-5.2,2.6c-17.2,0.1-34.8,0.1-52.1,0c-2,0-4.1-1.3-5.2-2.5c-1.2-1.3-2.8-2-4.2-1.9c-1,0.1-1.9,0.6-2.5,1.6
		c-1.7,2.7-3.8,3-6.2,3c-12.9,0-25.9,0-38.8,0l-17.4,0v-5.9c0-2.1,0-4.2,0-6.3c0-4.9,0-10.1-0.1-15.1c0-1.5-0.5-2.7-1.4-3.6
		c-0.8-0.7-1.8-1.1-2.9-1c-2.3,0.1-3.8,1.9-4,4.7c-0.1,2-0.1,4.1-0.1,6.1c0,0.8,0,1.6,0,2.5l0,11.9l0,6.7h-6c-2.7,0-5.4,0-8.1,0.1
		c-6.2,0.1-12.6,0.1-18.9-0.2c-6.9-0.3-11.2,2-13.9,7.4v17.4c1.5,3.8,4.1,6.3,7.8,7.8h286.4c0.1-0.1,0.2-0.1,0.3-0.2
		c0.2-0.2,0.6-0.5,0.6-0.6c0.1-0.3,0.2-0.7,0.3-1.1c0.4-1.4,0.9-2.9,0.6-3.8c-0.2-0.5-0.9-1.3-3.6-2.6c-0.5-0.2-1.3-0.1-2.1-0.1
		c-0.5,0-0.9,0.1-1.4,0.1l-280.4,0v-15.6h364v15.6l-17.6,0c-11.1,0-22.5,0-33.8,0c-3.5,0-5.2,0.4-6.2,2.6c-0.8,2-0.3,3.5,2.1,5.7
		h56.2c6-2.5,8.5-6.8,7.9-13.5C381,365.9,381,364.2,381.1,362.6z"/>
	<path class="st0" d="M140.2,59.2c-5.4-32.4-32.9-57.2-65.3-59.1C41.4-1.8,11.6,19.5,2.6,51.8c-0.8,2.7-1.3,5.6-1.9,8.3
		C0.5,61.4,0.3,62.7,0,64v13.2l0.4,2.1c0.3,1.6,0.7,3.2,0.9,4.7c6.2,33,36.6,57.2,69.3,57.2c3.7,0,7.5-0.3,11.2-1
		C120.4,133.5,146.6,97.2,140.2,59.2z M114.4,114.6c-11.8,11.7-27.4,18.2-43.9,18.2c-0.1,0-0.1,0-0.2,0c-34.1-0.1-61.9-28-61.9-62.2
		c0-16.6,6.5-32.2,18.3-44C38.4,14.8,54,8.4,70.6,8.4c0,0,0,0,0,0c16.6,0,32.2,6.5,43.9,18.3c11.7,11.8,18.2,27.4,18.2,44
		C132.7,87.2,126.2,102.8,114.4,114.6z"/>
	<path class="st0" d="M264.3,283.5L264.3,283.5l0-1.5c0-0.6,0-1.2,0-1.8c0-1.3,0.1-2.5-0.1-3.7c-0.2-2.3-1.5-3.5-3.8-3.6
		c-0.1,0-0.2,0-0.4,0c-1.3,0-3.5,0.4-3.7,3c-0.4,3.7-0.4,7.6-0.1,11.6c0.2,2.5,2.2,3.3,4,3.3c2.4-0.1,3.8-1.3,4-3.7
		c0.1-1.1,0.1-2.2,0-3.4C264.3,283.6,264.3,283.6,264.3,283.5z"/>
	<path class="st0" d="M264.2,317.8L264.2,317.8c0-0.6,0-1.3,0-1.9c0-1.4,0.1-2.7-0.1-3.9c-0.3-2.8-2.3-3.4-3.9-3.5
		c-0.1,0-0.1,0-0.2,0c-1.7,0-3.5,0.7-3.7,2.8c-0.4,4.2-0.4,8.3,0,12.3c0.3,2.7,3.1,2.8,3.9,2.7c2.3-0.1,3.6-1.3,3.8-3.5
		c0.1-1.1,0.1-2.2,0.1-3.4C264.2,318.9,264.2,318.3,264.2,317.8z"/>
	<path class="st0" d="M264.2,205.5c-0.2-2.3-1.5-3.5-3.7-3.7c-0.1,0-0.2,0-0.4,0c-1.1,0-3.4,0.3-3.7,3c-0.4,3.9-0.4,8,0,11.9
		c0.2,2.4,2.3,3.1,4.1,3c1.6-0.1,3.5-0.8,3.8-3.7c0.1-1.1,0.1-2.3,0-3.5c0-0.5,0-1.1,0-1.6c0-0.6,0-1.2,0-1.8
		C264.3,207.9,264.3,206.7,264.2,205.5z"/>
	<path class="st0" d="M260.6,255.2c2.2-0.2,3.4-1.3,3.6-3.4c0.1-1.2,0.1-2.4,0.1-3.6c0-0.6,0-1.2,0-1.8l0-1.5c0-0.1,0-0.2,0-0.3
		c0-1.3,0.1-2.5-0.1-3.7c-0.2-2.2-1.5-3.4-3.8-3.6c-0.1,0-0.2,0-0.3,0c-1.1,0-3.5,0.3-3.8,3c-0.4,4.1-0.4,8.2,0.1,11.9
		C256.7,255.2,259.4,255.3,260.6,255.2z"/>
	<path class="st0" d="M124.8,278.7c-0.3-2.4-1.6-3.5-4-3.5c-0.1,0-0.1,0-0.2,0c-1.6,0-3.6,0.7-3.8,3.4c-0.3,3.5-0.3,7,0,10.6
		c0.2,2.8,2.2,3.4,3.8,3.5c2.4,0.1,3.8-1.1,4.2-3.5c0.1-1,0.1-2.1,0.1-3.3c0-0.6,0-1.1,0-1.7c0-0.6,0-1.2,0-1.8
		C124.9,281.1,125,279.9,124.8,278.7z"/>
	<path class="st0" d="M120.8,327.2C120.8,327.2,120.8,327.2,120.8,327.2c2.3,0,3.6-1.1,4-3.4c0.2-1.2,0.2-2.4,0.2-3.7
		c0-0.6,0-1.1,0-1.7c0-0.6,0-1.1,0-1.7c0-1.3,0-2.5-0.2-3.7c-0.3-2.3-1.6-3.4-4-3.4c0,0,0,0,0,0c-1.7,0-3.7,0.6-3.9,3.2
		c-0.3,3.6-0.3,7.3,0,10.9C117.1,326.6,119.1,327.2,120.8,327.2z"/>
	<path class="st0" d="M124.9,249.7c0-0.6,0-1.2,0-1.8c0-1.3,0.1-2.5-0.1-3.6c-0.3-2.4-1.6-3.6-4-3.6c0,0-0.1,0-0.1,0
		c-1.7,0-3.7,0.6-3.9,3.4c-0.3,3.7-0.3,7.4,0,11c0.2,2.6,2.4,3.1,3.7,3.2c2.4,0.1,3.7-1,4.1-3.2c0.2-1.1,0.2-2.3,0.3-3.6
		c0-0.1,0-0.2,0-0.3l-0.2,0V249.7z"/>
	<path class="st0" d="M194.5,220.9c0-0.6,0-1.2,0-1.8c0-1.3,0.1-2.5-0.1-3.6c-0.3-2.1-1.5-3.2-3.7-3.3c-0.1,0-0.3,0-0.4,0
		c-1.4,0-3.5,0.5-3.7,2.9c-0.4,3.6-0.4,7.4,0,11.2c0.3,2.9,3,3.1,4.1,3h0c1.5-0.1,3.3-0.7,3.7-3.3c0.2-1.1,0.2-2.2,0.2-3.4
		c0-0.1,0-0.1,0-0.2l-0.2,0V220.9z"/>
	<path class="st0" d="M194.6,252c0-1.2,0.1-2.3-0.1-3.4c-0.3-2.3-1.5-3.4-3.8-3.5c-0.1,0-0.2,0-0.3,0c-1.4,0-3.5,0.4-3.8,3.1
		c-0.4,3.5-0.4,7.2,0,10.9c0.3,3,2.9,3.2,4,3.2h0c2.3-0.1,3.6-1.2,3.9-3.5c0.1-1.1,0.1-2.2,0.1-3.4c0-0.6,0-1.1,0-1.7l0-1.5
		C194.6,252.2,194.6,252.1,194.6,252z"/>
	<path class="st0" d="M186.4,291.4c0.3,2.5,2,4.1,4.1,3.9c2.6-0.2,3.9-1.5,4-3.8c0.2-3.4,0.2-6.6,0-9.5c-0.1-2.4-1.4-3.7-3.9-3.8
		c-2.4-0.1-3.9,1.3-4.2,3.9c0,0.4-0.1,0.7-0.1,1.1c0,0.7,0,1.4,0,2c0,0.5,0,1,0,1.6c0,0.5,0,1,0,1.5
		C186.3,289.3,186.3,290.4,186.4,291.4z"/>
	<path class="st0" d="M190.6,328.3c1.5-0.1,3.4-0.7,3.8-3.2c0.2-1.2,0.2-2.4,0.2-3.7c0-0.6,0-1.1,0-1.7c0-0.6,0-1.1,0-1.7l0-1.4
		c0-0.7-0.1-1.5-0.2-2.2c-0.3-2.1-1.6-3.1-3.8-3.2c-0.1,0-0.1,0-0.2,0c-1.2,0-3.5,0.3-3.7,2.7c-0.4,3.8-0.4,7.7,0,11.6
		C186.9,327.6,188.9,328.3,190.6,328.3z"/>
	<path class="st0" d="M78.3,69c-2-0.8-3.8-2.1-3.8-5.4c0.1-4.8,0.1-9.7,0.1-14.4c0-2.6,0-5.1,0-7.7c0-0.7,0.2-1.3,0.3-1.9
		c0.1-0.2,0.1-0.4,0.1-0.7l0.1-0.7l2.7-1.3l0.7,0.9c0.6,0.7,1.2,1.4,1.8,2.1c1.3,1.6,2.7,3.2,4,4.9c1.5,2,3.8,2.7,5.7,1.6
		c1-0.6,1.7-1.5,2-2.5c0.2-0.7,0.3-1.7-0.4-2.9c-1.7-2.8-3.6-5.7-6.1-7.8c-2-1.6-4.3-2.8-6.8-4.1c-1.1-0.6-2.3-1.2-3.4-1.8L74.8,27
		l-0.1-0.9c0-0.3-0.1-0.6-0.1-1c-0.3-5.1-2.2-5.6-4.1-5.6c-2.3-0.1-3.7,0.8-4.4,5.5c-0.2,1.6-1.8,3.5-3.3,4.1
		c-5.6,2.1-9.8,5.5-12.6,10.3c-3.4,5.8-4.1,12.2-2.2,18.2c2.1,6.3,7,11.4,13.9,14.3c0.4,0.2,4.1,1.8,4.1,4.1
		c0.2,6.6,0.2,13.2,0.2,20.1c0,2.1,0,4.2,0,6.3v2.5l-2.2-1.2c-5.6-3.2-8.3-7.5-8.7-13.6c-0.1-1.4-0.6-2.7-1.6-3.5
		c-0.7-0.6-1.6-0.9-2.6-0.9c-0.1,0-0.2,0-0.4,0c-2.3,0.2-3.7,2-3.8,4.9c-0.1,9.3,6.1,18,15.1,21.3c1.8,0.7,4.1,1.5,4.1,5.1
		c0,3.1,1.4,4.8,4,4.8c1.9,0,3.7-0.6,4.3-5.1c0.2-1.6,1.5-3.7,3-4.3C88.2,108,93.9,100.5,94,90.6C94.1,80.5,88.9,73.4,78.3,69z
		 M66.1,63.6l-1.9-0.5c-5.1-1.5-8.4-5.8-8.7-11.2c-0.3-6.5,2.9-11.6,8.6-13.8l2-0.8V63.6z M76.6,103.3l-1.9,0.7l0-7.1
		c0-4.7,0-9.4,0-14v0c0-0.9,0.1-1.7,0.1-2.5c0-0.4,0.1-0.8,0.1-1.2l0.1-1.9l1.8,0.6c5.6,2,8.8,6.3,8.9,12.1
		C85.7,96.1,82.3,101.2,76.6,103.3z"/>
</g>
</svg>
