<?xml version="1.0" encoding="utf-8"?>
<!-- Generator: Adobe Illustrator 23.0.1, SVG Export Plug-In . SVG Version: 6.00 Build 0)  -->
<svg version="1.1" id="Layer_1" xmlns="http://www.w3.org/2000/svg" xmlns:xlink="http://www.w3.org/1999/xlink" x="0px" y="0px"
	 viewBox="0 0 287 380.1" style="enable-background:new 0 0 287 380.1;" xml:space="preserve">
<style type="text/css">
	.st0{fill:#9A9A9A;}
</style>
<g>
	<path class="st0" d="M283.8,133c-0.7-1.2-1.4-2.3-2.2-3.4c-1.6-2.5-3.3-5.2-4.6-8c-1.2-2.6-1.9-5.9-1.8-9c0.1-3.3,0.7-6.5,1.4-9.7
		l0.3-1.4c2-10.2-1-17.7-8.9-22.2C257.6,73.5,252,65,250.2,52.7c-1.3-9.1-7-14.9-16.2-16.1c-12.2-1.7-20.7-7.4-26.8-18
		c-4.4-7.6-11.7-10.5-21.7-8.7c-15.3,2.8-15.9,2.7-29-5.2l-0.3-0.2c-0.1-0.1-0.2-0.1-0.3-0.2c-8.3-5.8-16.4-5.8-25.6,0
		c-2.3,1.5-4.2,2.7-5.7,3.7c-7.2,4.7-7.7,4.8-15.9,3.3c-1.8-0.3-4-0.8-6.8-1.2c-10.5-1.7-17.9,1.3-24,9.9c-1.6,2.2-2.8,4-3.8,5.5
		c-4.8,7.2-5.2,7.4-13.7,9.2c-1.7,0.4-3.9,0.8-6.5,1.4c-10.2,2.3-15.9,7.9-18.2,18c-0.6,2.8-1.1,5-1.5,6.8c-1.8,8.4-2,8.8-9.1,13.6
		c-1.6,1.1-3.5,2.4-6,4.1c-8.2,5.9-11.2,13.1-9.5,23.5c0.5,3.1,0.9,5.4,1.3,7.3c1.5,7.9,1.4,8.4-3.3,15.5c-0.9,1.4-2.1,3.1-3.4,5.3
		c-5.8,9.2-5.9,17.4-0.1,26.6c1.3,2.1,2.4,3.8,3.3,5.2c4.7,7.2,4.8,7.6,3.4,15.6c-0.4,2-0.8,4.6-1.3,8c-0.1,0.4-0.1,0.7-0.2,1.1
		c-0.1,0.4-0.1,0.7-0.2,1.1c-1.1,8.4,1.7,14.8,8.6,19.6c0.7,0.5,1.4,1,2.1,1.5c2.6,1.8,5.3,3.6,7.7,5.9c2.5,2.4,4.5,5.3,5.5,8.2
		c1,2.8,1.7,5.6,2.3,8.4c0.5,2,0.9,4.1,1.6,6.1c1.8,6.1,6,10.3,12.2,12.3c1.5,0.5,3.1,0.9,4.8,1.3c0.8,0.2,1.7,0.4,2.5,0.7l2,0.6
		l-1.5,3.5c-0.4,1-0.8,1.9-1.2,2.9l-1.8,4c-12.5,27.8-24.9,55.7-37.4,83.5c-1.1,2.5-1.5,4.2-0.2,5.9c1.2,1.5,2.7,1.9,5.7,1.5
		c10.7-1.4,20.3-2.5,29.5-3.4c1.9-0.2,4.4,0.9,5.5,2.5c2.4,3.3,4.8,6.6,7,9.9c1.8,2.6,3.7,5.3,5.5,7.9c1.8,2.4,3.7,4.9,5.6,7.2
		c0.7,0.8,1.4,1.7,2,2.5h2.7c0.3-0.4,0.7-0.9,1-1.3c1.1-1.4,2.1-2.8,2.8-4.2c10.3-22.8,20.7-46.1,30.8-68.6l9-20.1
		c0.3-0.8,0.7-1.5,1.1-2.4l1.8-3.7l1.8,1.5c10,8.1,19.8,8,29.9-0.2l1.9-1.5l3.2,7c1.4,3.2,2.8,6.2,4.2,9.2l7.8,17.4
		c9.1,20.4,18.6,41.4,28,62.1c0.6,1.3,1.6,2.4,2.8,3.7c0.4,0.4,0.7,0.8,1.1,1.2h2.1c0.3-0.3,0.7-0.7,1-1c1.1-1.1,2.2-2.2,3-3.3
		c2.3-3.2,4.6-6.6,6.9-9.8c3-4.3,6.2-8.8,9.3-13.2c1.2-1.6,3.9-2.8,5.8-2.6c7.5,0.7,15.1,1.7,22.4,2.5c2.6,0.3,5.2,0.6,7.8,0.9
		c2.1,0.2,3.8-0.3,4.7-1.5c0.9-1.2,1-3,0.3-4.9c-0.2-0.5-0.5-1.1-0.7-1.7c-0.2-0.3-0.3-0.6-0.5-1l-3.9-8.7
		c-11.6-25.9-23.2-51.8-34.8-77.7c-0.4-0.8-0.7-1.7-1.1-2.6c-0.2-0.4-0.4-0.9-0.5-1.3l-0.8-1.9l2-0.6c0.6-0.2,1.1-0.3,1.6-0.4
		c1-0.3,1.9-0.5,2.8-0.8c8.6-2,13.8-7.2,15.7-15.9c0.1-0.7,0.3-1.4,0.4-2c0.7-3.4,1.5-6.8,2.7-10.2c1-2.8,2.8-5.5,4.9-7.3
		c2.2-2,4.7-3.7,7.1-5.4c1.5-1,3-2.1,4.4-3.2c5.6-4.3,8.1-9.9,7.5-16.6c-0.5-4.7-1.3-9.5-2-13.9c-0.8-4.5-0.1-8.1,2.1-11.4
		c1.6-2.3,3-4.8,4.5-7.2c0.6-1.1,1.3-2.2,2-3.3C288.1,147,288.1,140.1,283.8,133z M78,367.4l-1.9-2.7c-1.3-1.9-2.7-3.7-4-5.6
		c-3-4.2-5.9-8.1-8.4-12.4c-2.9-5-6.4-6.5-12.3-5.3c-4.8,1-9.6,1.4-14.7,1.9c-2.2,0.2-4.5,0.4-6.7,0.7l-3.2,0.4l40.9-91.3l1.9,2.5
		c1.1,1.4,2.2,2.8,3.2,4.2c3.4,4.4,6.6,8.6,9.7,12.9c0.8,1.1,0.7,2.8-0.4,5.2c-4.1,9.2-8.2,18.4-12.3,27.6l-5.5,12.3
		c-0.5,1-0.9,1.9-1.1,2.9c-0.6,2.2,0.2,3.7,2.2,4.7c2,1,3.6,0.5,5.1-1.3c0.5-0.6,0.8-1.4,1.2-2.3l0.3-0.7l3.6-7.9
		c4.7-10.4,9.5-21.1,14.2-31.7c1.3-3.1,3.3-3.8,6-4c3.6-0.2,7.2-0.8,10.8-1.4c1.7-0.3,3.4-0.5,5.1-0.8c1-0.1,2-0.2,3.1-0.3
		c0.6,0,1.2-0.1,1.8-0.1l3.1-0.3L78,367.4z M260.1,344.4l-3.2-0.4c-2.4-0.3-4.7-0.5-7-0.7c-5.2-0.5-10.1-1-15-2
		c-5.6-1.1-8.7,0.3-11.4,5c-2.5,4.3-5.4,8.3-8.5,12.5c-1.4,1.9-2.8,3.8-4.2,5.9l-1.9,2.7l-41.7-93l17.6,2.6c0.6,0.1,1.1,0.2,1.7,0.3
		c1.1,0.2,2.1,0.4,2.9,0.3c5.1-0.7,7.2,2.3,8.7,5.7c3.8,8.7,7.7,17.5,11.6,26.1c1.9,4.3,3.9,8.6,5.8,12.9c1.6,3.6,3.4,3.8,5.2,3.4
		c1.3-0.3,2.3-0.9,2.8-1.9c0.7-1.3,0.6-3.1-0.3-5c-1.3-3-2.6-6-4-9c-3.9-8.8-7.9-18-12.2-26.7c-2.5-5.1-4.1-10.7,1.8-16.5
		c2.1-2.1,3.8-4.6,5.6-7.3c0.9-1.3,1.8-2.6,2.8-4l1.9-2.5L260.1,344.4z M276.7,149.6c-0.5,0.8-1,1.7-1.5,2.6
		c-0.9,1.6-1.9,3.3-3.1,4.9c-5.1,6.6-6.5,14.1-4.6,23.7l0.1,0.4c2.9,14.6,2.6,15.5-8.1,22.5l-2,1.3c-8.4,5.5-12.9,12.7-13.8,21.8
		c-1.1,10.8-6.7,16.4-17.1,17.1c-1.7,0.1-3.4,0.6-5.2,1.2c-0.8,0.2-1.6,0.5-2.4,0.7c-4.2,1.1-7.7,3.4-10.2,6.9
		c-2.9,3.9-5.8,7.8-8.5,11.7l-0.1,0.1c-2.5,3.4-5.7,5.1-9.5,5l-0.2,0c-1.4-0.2-2.9-0.4-4.3-0.7c-3.2-0.5-6.5-1-9.8-1.6
		c-5.9-1-11-0.1-15.5,2.9c-1.7,1.1-3.5,2.2-5.2,3.2c-1.8,1-3.6,2.1-5.3,3.2c-2.3,1.5-4.6,2.3-6.9,2.3c-2.2,0-4.4-0.7-6.7-2.2
		c-2-1.4-4.2-2.7-6.3-3.9c-1.5-0.9-3-1.8-4.5-2.7c-4.7-2.9-9.8-3.8-15.6-2.8c-3.5,0.6-7.1,1.2-10.6,1.7l-2.4,0.3
		c-4.3,0.6-7.9-1-10.5-4.6c-3-4.2-6-8.3-8.6-11.8c-2.7-3.6-6.2-6-10.5-7.1c-1.4-0.3-2.8-0.7-4.1-1.1c-3.3-0.8-6.6-1.7-10-2.4
		c-4.8-1.1-7.7-4-8.8-8.9c-0.5-2.2-1-4.4-1.6-6.6c-0.5-1.9-1-3.8-1.4-5.8c-1.3-5.6-4.1-9.8-8.5-12.9c-2-1.4-4.1-2.9-6-4.3
		c-1.5-1.1-3.1-2.3-4.6-3.4c-3.9-2.8-5.5-6.5-4.8-11.2c0.2-1.3,0.4-2.6,0.6-4c0.4-2.7,0.8-5.5,1.3-8.3c1.1-6.2,0.1-11.5-3-16.2
		c-1.6-2.4-3-4.8-4.4-7.2c-0.8-1.4-1.6-2.7-2.4-4c-2.4-3.9-2.4-7.9,0-11.8c0.9-1.4,1.7-2.8,2.5-4.2c1.4-2.3,2.8-4.7,4.3-7
		c3.1-4.7,4.1-10,3-16.2c-0.4-2.5-0.8-5-1.2-7.4c-0.2-1.5-0.5-3-0.7-4.5c-0.8-5,0.9-9,5.1-11.8c1.8-1.2,3.6-2.5,5.3-3.8
		c1.6-1.2,3.3-2.5,5-3.6c4.5-3.1,7.2-7.3,8.5-12.9c0.4-1.7,0.8-3.4,1.2-5.1c0.6-2.3,1.2-4.6,1.6-6.9c1.1-5.2,4.2-8.3,9.3-9.4
		c2.5-0.5,5-1.1,7.5-1.8c1.6-0.4,3.2-0.8,4.8-1.2c5.4-1.3,9.5-4,12.6-8.4c1.1-1.6,2.3-3.2,3.4-4.7c1.4-1.8,2.8-3.7,4-5.6
		c2.9-4.3,7-6.1,12.2-5.2c1.8,0.3,3.5,0.6,5.3,0.9c2.1,0.3,4.1,0.7,6.2,1c6.3,1.1,11.8,0.1,16.6-3.1c2.2-1.5,4.6-2.9,6.8-4.2
		c1.4-0.8,2.7-1.6,4.1-2.5c3.9-2.5,7.9-2.5,11.8-0.1c0.8,0.5,1.6,1,2.4,1.4c1.7,1,3.5,2,5.1,3.2c6.6,5.2,14.4,6.7,24.4,4.7l0.4-0.1
		c14.2-2.8,15-2.5,22.1,8.5l0.8,1.2c5.7,8.7,12.9,13.4,22.2,14.4c10.6,1.1,16.1,6.6,16.9,16.8c0.1,1.6,0.6,3.3,1.2,5.1
		c0.3,0.9,0.5,1.7,0.7,2.6c1.1,4.5,3.5,8,7.3,10.8c1,0.7,1.9,1.4,2.9,2.1c2.7,2,5.5,4,8.3,6c4.1,2.8,5.7,6.7,5,11.5
		c-0.2,1.2-0.4,2.4-0.6,3.6c-0.4,2.8-0.9,5.7-1.4,8.6c-1.1,6.1-0.1,11.3,2.9,15.9c1.5,2.2,2.8,4.5,4.2,6.7c0.9,1.5,1.8,3,2.7,4.5
		C279.2,141.5,279.2,145.6,276.7,149.6z"/>
	<path class="st0" d="M77.7,135.7c2,1.8,4,3.8,5.9,5.6c3.7,3.6,7.6,7.3,11.7,10.4c7.5,5.6,9.6,11.9,6.8,21.1
		c-1.8,5.9-2.8,12-3.8,17.9c-0.4,2.4-0.8,4.7-1.3,7c-0.1,4.1,1.5,7.4,4.4,9.2c2.7,1.7,6.2,1.7,9.4-0.1c8.4-4.5,17.3-9.5,28.7-16.1
		c1.4-0.8,2.6-1.2,3.9-1.2c1.2,0,2.4,0.4,3.7,1.1c4.9,2.8,9.9,5.6,14.7,8.3c4.3,2.4,8.7,4.9,13,7.3c4.4,2.5,7.9,2.5,11.3,0
		c3.2-2.4,4.2-5.6,3.2-10.6c-0.5-2.7-1.1-5.4-1.6-8.1c-1.5-7.6-3.1-15.4-4.7-23c-0.6-2.9,0.1-5.1,2.2-7c6-5.4,11.9-11,17.7-16.3
		c2.2-2,4.3-4,6.5-6c3.2-2.9,4.1-6.2,2.9-9.9c-1.2-3.7-3.9-5.8-8.2-6.3c-3.8-0.4-7.6-0.9-11.3-1.3c-6.9-0.8-14-1.7-21-2.4
		c-3.1-0.3-5-1.7-6.2-4.5c-2.3-5.1-4.6-10.2-6.9-15.2c-2.1-4.5-4.2-9.1-6.3-13.7c-2-4.6-4.9-6.7-9-6.7c0,0-0.1,0-0.1,0
		c-4,0-6.8,2.2-8.8,6.6c-2.1,4.6-4.2,9.2-6.3,13.7c-2.3,5-4.7,10.1-7,15.2c-1.2,2.8-3.1,4.2-6.2,4.5c-4.6,0.5-9.4,1.1-13.9,1.6
		c-5.8,0.7-11.8,1.4-17.7,2c-4.9,0.5-7.6,2.5-8.9,6.3C73.1,129.1,74.1,132.4,77.7,135.7z M90.5,126.5c3.5-0.4,6.6-0.9,9.8-1.2
		c1.7-0.2,3.4-0.4,5.1-0.6c4.9-0.6,10-1.3,15.1-1.7c3.2-0.3,5-1.6,6.3-4.7c3.1-7,6.4-14,9.5-20.8c1.2-2.5,2.3-5,3.5-7.4
		c0.3-0.7,0.6-1.3,1.1-2.1c0.2-0.4,0.5-0.9,0.8-1.5l1.7-3.4l3,6.4c0.9,1.9,1.7,3.5,2.4,5.2c1,2.1,2,4.2,3,6.4
		c2.7,5.8,5.5,11.8,8.2,17.8c1.2,2.7,2.9,3.8,6,4.1c8.4,0.9,17,1.9,25.3,2.9c2.5,0.3,5,0.6,7.5,0.9c0.6,0.1,1.1,0.3,1.6,0.5
		c0.3,0.1,0.5,0.2,0.9,0.3l3,1l-7,6.5c-3.8,3.5-7.5,7-11.2,10.4c-0.9,0.8-1.8,1.7-2.7,2.5c-2.2,2.1-4.4,4.2-6.8,6.2
		c-2.7,2.2-3.4,4.4-2.6,8.1c1.7,7.7,3.2,15.5,4.7,23.1c0.5,2.6,1,5.2,1.5,7.7c0.1,0.7,0.2,1.3,0.2,2c0,0.4,0.1,0.8,0.1,1.2l0.3,3.4
		l-3-1.5c-0.5-0.3-1-0.5-1.5-0.8c-0.9-0.5-1.7-0.9-2.5-1.3c-2.3-1.3-4.6-2.6-7-3.9c-6.3-3.5-12.8-7.1-19.2-10.8
		c-3.1-1.8-5.5-1.8-8.6-0.1c-6.3,3.7-12.8,7.3-19.1,10.8c-2.3,1.3-4.7,2.6-7,3.9c-0.8,0.4-1.6,0.9-2.6,1.4c-0.5,0.3-1.1,0.6-1.8,0.9
		l-3.4,1.8l1.8-9.6c0.8-4.2,1.6-8.2,2.4-12.3l0.4-1.9c0.9-4.8,1.9-9.8,3-14.6c0.7-3.1,0-5.2-2.3-7.2c-6.1-5.5-12.1-11-18.4-16.9
		c-2.5-2.3-5.1-4.7-7.7-7.1l-2.9-2.7L90.5,126.5z"/>
	<path class="st0" d="M45.4,126.7c4.1-25.9,19.2-49.5,41.6-64.9c22.2-15.2,49.4-20.9,74.8-15.5c6.5,1.4,12.9,3.8,19.1,6.1
		c2,0.8,4,1.5,5.9,2.2c2.3,0.8,5.3,1.2,6.6-1.7c1.3-2.9-0.8-4.8-2.8-5.9c-0.4-0.2-0.9-0.4-1.3-0.6l-0.7-0.3
		c-18.7-8.7-38.5-11.9-58.9-9.5C76.3,43,35.7,88.8,35.2,143.2c0.2,2,0.4,3.9,0.6,5.9c0.4,4.2,0.8,8.6,1.5,12.9
		c2.8,16.9,9.6,32.6,20.2,46.4c1.2,1.5,2.7,2.5,4.1,2.5c1.1,0,2.1-0.4,3-1.3c1.2-1.3,2.1-2.9-0.8-6.8
		C47.2,180.1,41,154.5,45.4,126.7z"/>
	<path class="st0" d="M239.1,95.3c-0.6-1.2-1.4-2.1-2.5-2.5c-1-0.4-2.1-0.3-3.2,0.3c-2.2,1.1-2.9,3.3-1.8,6c0.2,0.4,0.3,0.7,0.5,1.1
		c0.1,0.3,0.3,0.5,0.4,0.8c8.2,17.5,11.1,36,8.7,55c-3.9,30.9-21.8,57.6-49,73.2c-27.1,15.6-59.1,17.5-87.7,5.3
		c-5.7-2.4-11-5.8-16.2-9c-1.8-1.1-3.6-2.3-5.4-3.4c-1.1-0.7-2.4-1.2-3.7-1.2c-1.1,0-2.1,0.4-2.9,1.5c-1.7,2.2-1.2,4.3,1.5,6.5
		c0.7,0.6,1.6,1.2,2.6,2c18.8,13.3,39.3,19.7,64.4,20.1c0.7-0.1,1.6-0.1,2.6-0.2c2.7-0.2,6.5-0.5,10.1-1
		c31.5-4.3,59.3-22.2,76.3-49.1c17-26.9,21.2-59.5,11.5-89.6C243.8,105.8,241.6,100.8,239.1,95.3z"/>
	<path class="st0" d="M218.5,78.6c0.5,0.4,2.6,0.5,3.9-0.1c0.7-0.3,1.4-1.3,2-2.3c0.1-0.2,0.3-0.5,0.5-0.7c-0.1-0.3-0.1-0.5-0.2-0.8
		c-0.1-0.3-0.1-0.7-0.2-0.9c-0.8-0.8-1.6-1.7-2.4-2.5c-3-3.2-6.1-6.5-9.5-9.3c-0.4-0.4-0.9-0.5-1.4-0.5c-1.1,0-2.2,0.7-3,1.7
		c-0.7,0.8-2.1,2.9-0.4,4.8C211.6,72.3,215.1,75.7,218.5,78.6z"/>
</g>
</svg>
