<?xml version="1.0" encoding="utf-8"?>
<!-- Generator: Adobe Illustrator 23.0.1, SVG Export Plug-In . SVG Version: 6.00 Build 0)  -->
<svg version="1.1" id="Layer_1" xmlns="http://www.w3.org/2000/svg" xmlns:xlink="http://www.w3.org/1999/xlink" x="0px" y="0px"
	 viewBox="0 0 494 455.1" style="enable-background:new 0 0 494 455.1;" xml:space="preserve">
<style type="text/css">
	.st0{fill:#9A9A9A;}
</style>
<g>
	<path class="st0" d="M479.8,223.5c-0.6,0-1.3,0-1.9,0l-2.3,0l-0.8-2.2c-0.1-0.2-0.2-0.4-0.3-0.6c-0.2-0.5-0.4-1.1-0.5-1.8
		c-0.2-1.2-0.2-2.3-0.3-3.2c-2.2-43.5-15.9-83.2-40.7-118c-6.6-9.3-14.5-18-22.2-26.4c-2.5-2.7-5-5.5-7.4-8.2
		c-0.7-0.8-1.8-1.7-3.1-1.7c-1.2,0-2.3,0.7-2.9,1.3c-0.7,0.7-2.7,2.7,0.6,6.3c0.9,1,1.8,1.9,2.8,2.8c0.7,0.6,1.3,1.3,2,1.9
		c29.2,29.8,48.3,64,56.7,101.8c2.7,12.4,4,25.3,5.2,37.7c0.4,3.8,0.7,7.6,1.2,11.5c0.7,6.4,1.1,6.8,6.9,6.9c1.1,0,2.2,0,3.6,0l9,0
		l-35.8,47.4l-35.8-47.4l9,0c1.2,0,2,0,2.8,0c3.6,0,5.7-0.4,6.5-1.2c0.7-0.8,0.9-2.7,0.7-5.9c-0.1-1.9-0.3-3.8-0.4-5.7
		c-0.6-9.2-1.3-18.8-3.1-27.8c-12.2-60.9-52.1-109.8-109.4-134.2c-56.6-24.1-121.2-18.7-172.9,14.3l-0.7,0.5c-2.2,1.4-4.3,2.7-6,4.3
		c-1.7,1.5-1.9,3.1-0.6,5c1.3,2,2.8,2.4,4.9,1.4c1.1-0.5,2.2-1.3,3.4-2.1c0.5-0.3,1-0.7,1.5-1c40.8-26.4,85.2-35.1,131.8-25.8
		c35.6,7,67.6,24.1,92.5,49.4c24.8,25.2,41.5,57.4,48.3,93.2c1,5.4,1.6,10.7,2.2,16.3c0.3,2.5,0.5,5.1,0.8,7.7l0.4,3.7h-3.7
		c-1.1,0-2,0-2.8,0c-1.7,0-3,0-4.3,0c-4.4-0.2-7.1,1.2-8.7,4.4c-1.5,3-1,5.6,1.8,9.2c1.4,1.8,2.8,3.7,4.1,5.5
		c2.1,2.9,4.2,5.7,6.4,8.3c4,4.6,3.7,9.1,3,12.6c-8.9,45.5-37.2,86.7-77.5,113.1c-29.5,19.2-62.5,29.2-95.6,29.2
		c-12.1,0-24.1-1.3-36.1-4C138.3,385.3,91.5,339,73.1,264.1c-1.6-6.3-2.3-12.7-3-19.4c-0.3-3-0.7-6.1-1.1-9.2l-0.5-3.7h3.8
		c1.2,0,2.2,0,3.2,0c1.9,0,3.4,0,5,0c3.9,0.1,6.3-1.1,7.8-4.2c1.5-2.9,1.1-5.6-1.4-8.8c-0.8-1.1-1.7-2.2-2.6-3.3
		c-3.2-4.1-6.5-8.4-9.5-12.9c-1.7-2.5-2.5-6.1-2-8.9c2.8-16,8.3-32.1,16.5-47.8c7.5-14.4,17-27.8,28.2-39.6l0.3-0.3
		c0.2-0.2,0.4-0.4,0.6-0.7c3.8-4.3,1.6-6.2,0.8-7c-2.4-2.1-4.9-0.5-6.6,1.3c-14.9,15.5-26.5,32.7-34.5,51c-3.1,7-5.7,14.1-8.4,21.7
		c-1.2,3.4-2.5,6.9-3.8,10.4l-2.1,5.5l-3.6-4.7c-0.9-1.2-1.8-2.3-2.7-3.5c-2-2.6-4.2-5.3-6.1-8.1c-2.3-3.3-5.3-4.4-10-3.8l-4.9,0.7
		l1.3-4.8c0.2-0.6,0.3-1.1,0.4-1.6c0.3-1,0.5-2,0.9-3c18.5-57.1,61.1-104.6,116.8-130.2C182.9,16.6,211.6,9.8,241,8.9
		c30.7-1,60.5,4.5,88.7,16.2c10,4.2,19.6,9.7,28.9,15c3.5,2,7,4,10.6,6c2.2,1.2,4.3,1.5,5.7,0.8c0.9-0.4,1.5-1.3,1.7-2.6
		c0.3-1.8-0.1-3.2-3.5-5.4C313.6,0.3,250.7-9.6,186.2,9.4C98.4,35.2,43.7,94.9,23.6,186.7c-0.7,3.2-2.1,6.4-4,9
		c-5,7-10.3,13.9-15.5,20.6l-1.9,2.5c-2.4,3.2-2.8,5.9-1.3,8.8c1.5,2.9,3.9,4.2,7.4,4.1c1,0,2,0,3.1,0c0.8,0,1.6,0,2.5,0
		c0.9,0,1.8,0,2.7,0h2.9l0.3,2.9c0.1,0.6,0.1,1.3,0.2,1.8c0.1,1.1,0.2,2.2,0.4,3.2c0.6,4.1,1,8.3,1.5,12.4c1,8.8,2,17.8,3.9,26.4
		c12.9,58.4,49.9,110.3,101.5,142.4c51.7,32.1,112,42,169.9,27.9c93.6-22.9,151.9-83.7,173.4-180.6c0.6-2.9,1.9-5.8,3.6-8.1
		c4.9-6.9,10.1-13.9,15-20.6c1.6-2.2,3.2-4.3,4.8-6.5v-4.1C491.4,223.6,486.8,223.4,479.8,223.5z M456.4,291.5
		c-5.4,18-12.5,33.9-21.8,48.6c-38,60.3-92.4,95.6-161.9,104.9c-9,1.2-18,1.8-26.9,1.8c-78.8,0-155.3-45.5-192.4-117
		c-15.5-29.8-24-61.5-25.1-94c-0.2-5.6-0.3-9.6-1.4-10.7c-1.1-1.1-5.2-1.5-11.4-2l-6-0.5L13,218l31.5-41.6l35.8,47.2h-6.6
		c-1.1,0-2,0-2.9,0c-1.6,0-2.9,0-4.2,0c-4.2,0.1-5.4,1.4-5.3,5.5c0.2,34.9,9.5,67,27.4,95.6c30.3,48.2,73.9,77.3,129.5,86.6
		c91.6,15.3,182.8-43.1,207.6-133c0.3-1.2,0.7-2.3,1.1-3.6c0.2-0.6,0.4-1.1,0.6-1.7l1.4-4.4l3.7,2.8c2.9,2.2,4.9,5.2,6.9,8
		c4,5.8,6.6,9,13.2,8l5.2-0.8L456.4,291.5z"/>
	<path class="st0" d="M358.3,305.8l-0.2,0.3c-0.4,0.5-0.7,1.1-1.1,1.6c-1.1,1.7-2.6,4.8,0.2,6.7c3,2,5.5-0.8,6.4-2.1
		c18.4-25.4,27.2-53.4,27.6-87.8c-0.1-1.2-0.2-2.6-0.3-4.2c-0.3-4.5-0.7-10-1.6-15.6c-11.4-70.3-72.3-121-142-121
		c-4.9,0-9.8,0.2-14.7,0.8c-40.5,4.1-77.5,25.4-101.7,58.3c-24,32.7-33.1,74.2-25,113.7c9.7,47.3,42.3,86.4,87.1,104.6
		c44.8,18.2,95.4,12.8,135.3-14.4c4.3-2.9,7.6-5.5,10.4-8.1c0.6-0.5,2.3-2.1,0.2-4.9c-1.5-2-3.1-2.2-5.3-1c-0.7,0.4-1.5,1-2.3,1.7
		c-0.4,0.3-0.8,0.7-1.3,1c-31,23.4-65.9,32.3-103.7,26.7c-34.9-5.2-65.9-23.7-87.5-52c-21.5-28.3-31.1-63.2-26.9-98.2
		c5.3-44.9,32.6-84.2,73-105.1c19.1-9.8,40.4-15.1,61.5-15.2c0.2,0,0.4,0,0.6,0c22.4,0,43.8,5.5,63.8,16.5
		c25,13.7,43.8,31.7,55.8,53.6c11.9,21.7,17.2,47.3,15.8,76.1C381.3,261.6,373.2,284.5,358.3,305.8z"/>
	<path class="st0" d="M248.1,273.8c-2,0-3.8,0-5.7,0.1c-6.1,0.3-10.6-2-14.3-7.2c-4.2-5.9-10.6-9-17.1-9c-4.1,0-8.3,1.2-12,3.8
		c-9.4,6.6-11.7,19-5.4,28.9c6.6,10.4,15.6,17.7,26.6,21.7c3.8,1.4,5.6,3.8,5.9,8.1c0.8,11.3,9.8,19.8,20.8,19.9c0,0,0.1,0,0.1,0
		c11.1,0,20.1-8.4,20.9-19.6c0.4-5.1,2.8-7.1,6.4-8.6c22.3-9,36.7-31.9,34.4-54.5c-3.1-30.2-25.7-50.6-56.1-50.7c-1.3,0-2.7,0-4,0
		c-3.1,0-6.2,0.1-9.4-0.2c-6.9-0.5-12-5.9-12-12.6c0-6.9,5.4-12.1,12.7-12.4c1.8-0.1,3.5,0,5.3,0c2.2,0,4.3,0.1,6.4-0.1
		c6.1-0.4,10.8,2,14.4,7.2c4.1,6,10,8.8,18.5,8.8c5.1-0.3,12.1-2.3,16.7-10.6c4-7.1,3.9-14.3-0.3-21.3
		c-6.3-10.4-15.1-17.8-26.2-22.2c-3.8-1.5-6.4-3.6-6.8-8.8c-0.8-11-9.7-19.3-20.8-19.4c-0.1,0-0.1,0-0.2,0
		c-10.9,0-20.1,8.6-20.8,19.6c-0.4,5.1-2.8,7.1-6.4,8.6c-23.9,9.4-37.8,33.9-33.8,59.7c3.8,24.4,24.5,43.4,49.4,45.3
		c3.5,0.3,7.1,0.3,10.6,0.3c2.9,0,5.9,0,8.8,0.2c6.9,0.4,12.1,5.7,12.1,12.4c0,6.7-5.1,11.9-12.1,12.4
		C252.5,273.8,250.3,273.8,248.1,273.8z M274.9,261.1c-0.1-11-8.5-19.7-19.6-20.3c-2.9-0.2-5.8-0.2-8.7-0.2c-3.4,0-6.9,0-10.4-0.3
		c-22.5-1.6-40.1-18.8-42.7-41.9c-2.4-21.4,11.6-42.4,32.6-48.8c3.9-1.2,6.6-2,7.2-2.9c0.7-0.9,0.6-3.9,0.6-7.8
		c0-4.8,0.8-11.5,8.4-14.6c4.2-1.7,9.1-1.1,12.7,1.6c3.4,2.5,5.1,6.4,4.7,10.6c-0.9,8.7,1.8,12.1,10.9,14.3
		c8.7,2,16.1,7.9,22.5,17.8c4.5,6.8,3.2,14.5-3,18.7c-6.1,4.1-13.8,2.4-18.2-3.9c-4.9-7.1-11.3-10.3-20.1-9.9
		c-2.4,0.1-4.8,0.1-7.1,0.1c-1.9,0-3.8,0-5.6,0c-11.1,0.3-19.9,9.2-20.1,20.3c-0.1,11.5,8.9,20.5,21.1,20.9c2.2,0.1,4.6,0.1,6.8,0.1
		c5.4,0,11,0,16.5,1c21.4,4,36.8,22.4,37.3,44.7c0.5,21-14.2,40.2-35,45.7c-5.8,1.6-5.8,1.6-5.9,7.7c0,0.4,0,0.8,0,1.3
		c0,0.9,0,1.8,0,2.7c-0.2,8.1-5.5,13.8-12.9,13.9c-0.1,0-0.1,0-0.2,0c-7.2,0-12.7-5.7-13-13.7c0-1,0-2,0-3c0-0.5,0-1,0-1.5
		c0-5.7-0.2-5.9-5.7-7.4c-11.5-3-20.7-9.5-27.2-19.3c-4.7-7.1-3.7-14.8,2.7-19.1c6.3-4.2,13.7-2.5,18.4,4.3
		c4.6,6.5,10.6,9.6,18.4,9.6c1.5,0,3.1,0,4.6,0c3.4,0,7,0.1,10.4-0.2C266.5,281,275,272,274.9,261.1z"/>
</g>
</svg>
