<?xml version="1.0" encoding="utf-8"?>
<!-- Generator: Adobe Illustrator 23.0.1, SVG Export Plug-In . SVG Version: 6.00 Build 0)  -->
<svg version="1.1" id="Layer_1" xmlns="http://www.w3.org/2000/svg" xmlns:xlink="http://www.w3.org/1999/xlink" x="0px" y="0px"
	 viewBox="0 0 384 384" style="enable-background:new 0 0 384 384;" xml:space="preserve">
<style type="text/css">
	.st0{fill:none;stroke:#808080;stroke-width:10;stroke-miterlimit:10;}
	.st1{fill:#808080;}
</style>
<g>
	<path class="st0" d="M303.6,189c-12,0-23.8,0-36.4,0c18.7-28.9,37-57.1,55.2-85.3c0.3,0,0.6,0,0.9,0c18.2,28.2,36.5,56.4,55.1,85.3
		c-12.9,0-25.1,0-37.6,0c-0.1,1.2-0.2,1.9-0.2,2.7c-1.1,46.8-20.4,84.8-56.6,114.1c-20.4,16.5-44,26.6-70.1,29.9
		c-46.3,5.9-87.1-6.7-121.8-38.2c-2.5-2.2-4.9-4.5-7.2-6.9c-0.5-0.5-0.8-1.8-0.4-2.2c6.6-10.5,13.4-20.9,20.2-31.6
		c20.3,24.6,45.8,39.7,77.7,42.7c22.7,2.1,44.2-1.9,64.3-13.3C286.2,263.5,303.9,224.4,303.6,189z"/>
	<path class="st0" d="M302.1,89c-7,10.9-13.8,21.4-20.7,32.2c-2.7-2.6-5.3-5-7.8-7.5c-10-10.3-21.1-19-34.2-25.1
		c-16.1-7.5-33.1-10.6-50.9-9.9c-33.7,1.3-60.8,15.8-82.1,41.5c-14.5,17.5-22.2,37.8-24,60.3c-0.2,2.4-0.1,4.8-0.1,7.2
		c0,0.4,0.1,0.8,0.1,1.6c11.8,0,23.5,0,35.3,0c0.1,0.3,0.3,0.5,0.4,0.8c-18.3,28.2-36.5,56.4-54.8,84.5c-0.3,0-0.6,0-0.9,0
		c-18.2-28.1-36.5-56.3-55-84.9c12.8-0.3,24.9-0.5,37.3-0.8c1.1-39.4,14.2-73.8,41.6-102.2c19.8-20.5,43.5-34.8,71.3-41.1
		C213.7,32.9,261.5,48.5,302.1,89z"/>
	<path class="st1" d="M180.7,115.1c8.2,0,16.2,0,24.4,0c0,45.4,0,90.6,0,136c-8.2,0-16.2,0-24.4,0
		C180.7,205.7,180.7,160.5,180.7,115.1z"/>
	<path class="st1" d="M230.2,139.9c8.2,0,16.2,0,24.4,0c0,37.1,0,74,0,111.1c-8.2,0-16.3,0-24.4,0
		C230.2,213.9,230.2,177,230.2,139.9z"/>
	<path class="st1" d="M131.1,251c0-28.9,0-57.5,0-86.3c8.2,0,16.3,0,24.5,0c0,28.7,0,57.5,0,86.3C147.5,251,139.4,251,131.1,251z"/>
</g>
</svg>
