<svg xmlns="http://www.w3.org/2000/svg" xmlns:xlink="http://www.w3.org/1999/xlink" version="1.1" id="layer" x="0px" y="0px" viewBox="0 0 614 185.8" style="enable-background:new 0 0 614 185.8;" xml:space="preserve" width="614"  height="185.8" >
<style type="text/css">
	.st0{fill:#00418D;}
	.st1{fill:#595757;}
	.st2{fill:#FFFFFF;}
	.st3{clip-path:url(#SVGID_2_);fill:#00A283;}
	.st4{clip-path:url(#SVGID_4_);fill:#0B308E;}
	.st5{fill-rule:evenodd;clip-rule:evenodd;fill:#FFFFFF;}
	.st6{clip-path:url(#SVGID_6_);fill:#00AA83;}
	.st7{clip-path:url(#SVGID_8_);fill:#00418D;}
	.st8{fill:#231815;}
</style>
<g>
	<path class="st0" d="M53.6,30.9h0.3l14.4,42.9H39.5L53.6,30.9z M42.7,4.8L2.9,114.5v6.8h21.4l9.6-29.6h40.4l9.9,29.6h25.9v-6.8   L70.2,4.8L42.7,4.8L42.7,4.8z"/>
</g>
<g>
	<path class="st0" d="M117.6,115.1v-18h7.9c4.1,3.7,11.6,7.3,22.1,7.3c10.1,0,15.4-2.7,15.4-8.2c0-5.3-3.2-7.8-15.9-9.3   c-19.7-2.3-30.2-9.5-30.2-26.6c0-17.6,13.6-27.5,35.6-27.5c13,0,21.1,2.5,28.3,6v17.6h-7.5c-4.1-3-11.3-5.8-20.6-5.8   c-9.8,0-13.5,2.8-13.5,7.8c0,4.5,4.4,6.8,16.8,8.3c21.4,2.7,30.3,9.5,30.3,27.1c0,17.2-11.5,28.3-37.5,28.3   C134.1,122.3,124.6,119,117.6,115.1"/>
	<path class="st0" d="M189.2,33.9h10.6V10.6h25v23.3H243v16.3h-18.1V95c0,8.3,3.4,10.6,11.6,10.6h6.9v14.7   c-3.8,1.2-8.7,2.3-15.8,2.3c-17.3,0-27.8-6.7-27.8-24.8V50.2h-10.6V33.9z"/>
	<path class="st0" d="M271.7,83c1.2,17.5,9.8,22.3,23.7,22.3c10.1,0,18-3.2,23.8-7.3h7.7v16c-7.2,4-17.3,8.5-35.3,8.5   c-29.5,0-45.6-17-45.6-44.4c0-28.1,18.9-45.4,43.8-45.4c26.4,0,40.5,14.1,40.5,42.9c0,3-0.4,6.7-0.4,7.5h-58.2V83z M272,68.4h33.6   c-0.5-15.5-6-20.5-15.8-20.5C281.1,47.9,273.9,52.1,272,68.4"/>
	<path class="st0" d="M367.4,58.2v63.1h-25V33.9h17c4.3,0,6.8,1.8,7.7,10.5c5.7-5.8,13.9-11.3,25-11.3c1.9,0,3.8,0.3,5.5,0.8V53   h-4.3C380.9,53.1,372.2,55.7,367.4,58.2"/>
	<polygon class="st1" points="71,169.4 69.9,169.4 64.9,147.9 62.5,147.9 57.5,169.4 56.4,169.4 52.1,147.6 50,147.6 54.8,171.2    59,171.2 63.7,150.5 68.3,171.2 72.6,171.2 77.4,147.6 75.3,147.6  "/>
	<path class="st1" d="M86.6,153.9c-4.1,0-7,2.3-7,8.9c0,5.7,1.5,8.7,6.6,8.8c2.6,0,6.5-0.5,6.5-0.5l-0.1-1.7c0,0-3.7,0.3-6.2,0.3   c-3.6,0-4.7-2.1-4.7-6.1h11.5l0.1-1.6C93.3,156.3,91,153.9,86.6,153.9 M81.7,161.9c0-4.5,1.8-6.2,4.9-6.2c3.2,0,4.7,1.6,4.7,6.2   H81.7z"/>
	<polygon class="st1" points="96.4,154.2 98.1,154.2 100,147 97.9,147  "/>
	<rect x="104.3" y="146.7" class="st1" width="2" height="24.5"/>
	<rect x="111.8" y="146.7" class="st1" width="2" height="24.5"/>
	<polygon class="st1" points="141.4,147.6 124.5,147.6 124.5,149.5 131.9,149.5 131.9,171.2 134,171.2 134,149.5 141.4,149.5  "/>
	<path class="st1" d="M143.2,154.3h-2v17h2v-12.7c0,0,3.2-1.9,6.4-2.5v-2c-3.5,0.6-6.4,2.8-6.4,2.8S143.2,154.3,143.2,154.3z"/>
	<path class="st1" d="M158.6,153.9c-4.1,0-7,2.3-7,8.9c0,5.7,1.5,8.7,6.6,8.8c2.6,0,6.5-0.5,6.5-0.5l-0.1-1.7c0,0-3.7,0.3-6.2,0.3   c-3.6,0-4.7-2.1-4.7-6.1h11.5l0.1-1.6C165.2,156.3,162.9,153.9,158.6,153.9 M153.6,161.9c0-4.5,1.8-6.2,4.9-6.2   c3.2,0,4.7,1.6,4.7,6.2H153.6z"/>
	<path class="st1" d="M181.1,168.4v-9.1c0-3.6-1.6-5.4-5.3-5.4c-2.9,0-6.6,0.7-6.6,0.7l0.1,1.6c0,0,4-0.5,6.4-0.5   c2.2,0,3.3,1,3.3,3.6v1.6l-5.8,0.6c-3.4,0.3-5,1.8-5,5c0,3.4,1.7,5.1,4.7,5.1c3.2,0,6.4-1.4,6.4-1.4c0.9,1,2.2,1.4,3.8,1.4l0.1-1.6   C182.2,169.8,181.2,169.4,181.1,168.4 M179.1,168.7c0,0-3.1,1.2-5.8,1.2c-1.9,0-2.8-1.3-2.8-3.4c0-2,0.8-3.1,3.1-3.3l5.5-0.6V168.7   z"/>
	<path class="st1" d="M192,169.8c-2.4,0-2.7-1.1-2.7-5.3v-8.4h5.7v-1.8h-5.7v-5.4h-2v5.3h-2.5v1.8h2.5v9.4c0,4.9,1.2,6.1,4.6,6.1   c1.2,0,3.4-0.3,3.4-0.3l-0.1-1.7C195.1,169.5,192.9,169.8,192,169.8"/>
	<polygon class="st1" points="218.4,147.6 212.1,159.1 205.8,147.6 203.5,147.6 211.1,161.3 211.1,171.2 213.2,171.2 213.2,161.3    220.8,147.6  "/>
	<path class="st1" d="M227.7,153.9c-5.3,0-7.1,2.6-7.1,8.6c0,6.4,1.4,9.1,7.1,9.1s7.1-2.7,7.1-9.1   C234.8,156.5,233,153.9,227.7,153.9 M227.7,169.8c-4.4,0-5-2.1-5-7.3c0-5.1,1.1-6.8,5-6.8s5,1.7,5,6.8   C232.8,167.7,232.1,169.8,227.7,169.8"/>
	<path class="st1" d="M250,168.3c0,0-2.3,1.4-5,1.4c-3.4,0-3.9-1.6-3.9-6.7v-8.8h-2v8.9c0,6.3,1,8.5,5.7,8.5c2.6,0,5.2-1.6,5.2-1.6   v1.3h2v-17h-2C250,154.3,250,168.3,250,168.3z"/>
	<polygon class="st1" points="284.1,169.4 283,169.4 278.1,147.9 275.6,147.9 270.6,169.4 269.5,169.4 265.2,147.6 263.1,147.6    268,171.2 272.2,171.2 276.8,150.5 281.5,171.2 285.7,171.2 290.5,147.6 288.4,147.6  "/>
	<path class="st1" d="M299.7,153.9c-4.1,0-7,2.3-7,8.9c0,5.7,1.5,8.7,6.6,8.8c2.6,0,6.5-0.5,6.5-0.5l-0.1-1.7c0,0-3.7,0.3-6.2,0.3   c-3.6,0-4.7-2.1-4.7-6.1h11.5l0.1-1.6C306.4,156.3,304.1,153.9,299.7,153.9 M294.8,161.9c0-4.5,1.8-6.2,4.9-6.2   c3.2,0,4.7,1.6,4.7,6.2H294.8z"/>
	<rect x="310.8" y="146.7" class="st1" width="2" height="24.5"/>
	<rect x="318.3" y="146.7" class="st1" width="2" height="24.5"/>
	<path class="st2" d="M602.1,88.2c0,45.6-37,82.6-82.6,82.6s-82.6-37-82.6-82.6c0-45.7,37-82.7,82.6-82.7   C565.1,5.6,602.1,42.6,602.1,88.2"/>
</g>
<g>
	<g>
		<defs>
			<path id="SVGID_1_" d="M461.3,86.6c0,32,25.9,57.9,57.9,57.9s57.9-25.9,57.9-57.9s-25.9-57.9-57.9-57.9     C487.2,28.7,461.3,54.6,461.3,86.6"/>
		</defs>
		<clipPath id="SVGID_2_">
			<use xlink:href="#SVGID_1_" style="overflow:visible;"/>
		</clipPath>
		<path class="st3" d="M458.6,86.5c0-33.4,27.1-60.5,60.6-60.5c33.4,0,60.5,27.1,60.5,60.5c0,33.5-27.1,60.6-60.5,60.6    C485.8,147,458.6,119.9,458.6,86.5"/>
	</g>
	<g>
		<defs>
			<path id="SVGID_3_" d="M461.3,86.6c0,32,25.9,57.9,57.9,57.9s57.9-25.9,57.9-57.9s-25.9-57.9-57.9-57.9     C487.2,28.7,461.3,54.6,461.3,86.6"/>
		</defs>
		<clipPath id="SVGID_4_">
			<use xlink:href="#SVGID_3_" style="overflow:visible;"/>
		</clipPath>
		<path class="st4" d="M458,85.6c0-33.5,27.1-60.5,60.5-60.5c27.7,0,52.1,17,59.3,42.2c-0.5,0.3-2.5,2-4.2,2    c-4.6,0-11.1,5.9-11.1,5.9l-12.1,13.7l-21.8,22c0,0-2,0.4-2.2-3.3c-0.2-3.7-3.1-16.8-3.1-16.8s-1.4,4-5.3,8.4    c-4,4.4-22,14.6-33,15.4s-16.9-5.7-16.9-5.7c-3.4-5-6.5-10.6-8.2-11.5C458.7,92.3,458,91,458,85.6"/>
	</g>
</g>
<g>
	<path class="st5" d="M528.1,69.5c0,0-0.6-0.6-1.5,2.6c-0.9,3.2-1,12.3-1,12.3c2-2.3,5.2-10.8,5.2-13.4   C530.7,68.4,528.1,69.5,528.1,69.5 M513.7,86.9l-0.1,0.2c0.2,0,1.1-0.2,1.7,0.2c0.9,0.6,1.3,2.3,0.9,2.6c-0.8,0.5-8.4,5.3-10.2,4.6   c-1.8-0.7-9-7.8-13.4-10.8c-4.4-2.9-25.9-9.9-26.8,8.2c-0.9,18,17.7,23.4,29.5,19.3c11.9-4,25-19.7,25-19.7   c-0.2-13.7,1.1-17.3,3.7-22.5c2.7-5.5,11.5-5.9,10.1,3.4c-1.5,9.3-8.8,18.1-8.8,18.1c2,4.9,3.7,17.9,3.7,17.9s20.6-24,29.6-33.2   c8.8-8.9,15.9-5.8,15.9-5.8c-2,0.9-2.6,7.7-2.9,8.8c-0.4,1.1-2.7,0-2.7,0l0.3-2.4c-3.8-5.7-11.5,4.4-15.5,12.8s-5.9,25.3-5.9,25.3   l5.5,0.4v2.9c-4.9,0.4-11.2,3.5-11.2,3.5s-0.2-1.1,0.2-6.2s4.4-21.2,4.4-21.2s-6.6,7-8.9,10.1c-2.4,3.1-13.7,16-13.7,16l-1.8-1.8   c0,0,1.6-7.9,1.3-10.8c-0.4-2.9-1.8-9.8-1.8-9.8l-4.6,4.6c-7,7.5-18.1,13-18.1,13c-35.2,11-42.8-20.6-33.4-32.1   c9.3-11.4,22.5-6.9,25.9-5.5c4,1.7,17.5,12.6,19.2,12.8c1.4,0.1,2.5-1.8,2.8-2.4L513.7,86.9"/>
	<path class="st2" d="M602.1,88.2c0,45.6-37,82.6-82.6,82.6s-82.6-37-82.6-82.6c0-45.7,37-82.7,82.6-82.7   C565.1,5.6,602.1,42.6,602.1,88.2"/>
</g>
<g>
	<g>
		<defs>
			<path id="SVGID_5_" d="M461.3,86.6c0,32,25.9,57.9,57.9,57.9s57.9-25.9,57.9-57.9s-25.9-57.9-57.9-57.9     C487.2,28.7,461.3,54.6,461.3,86.6"/>
		</defs>
		<clipPath id="SVGID_6_">
			<use xlink:href="#SVGID_5_" style="overflow:visible;"/>
		</clipPath>
		<path class="st6" d="M458.6,86.5c0-33.4,27.1-60.5,60.6-60.5c33.4,0,60.5,27.1,60.5,60.5c0,33.5-27.1,60.6-60.5,60.6    C485.8,147,458.6,119.9,458.6,86.5"/>
	</g>
	<g>
		<defs>
			<path id="SVGID_7_" d="M461.3,86.6c0,32,25.9,57.9,57.9,57.9s57.9-25.9,57.9-57.9s-25.9-57.9-57.9-57.9     C487.2,28.7,461.3,54.6,461.3,86.6"/>
		</defs>
		<clipPath id="SVGID_8_">
			<use xlink:href="#SVGID_7_" style="overflow:visible;"/>
		</clipPath>
		<path class="st7" d="M458,85.6c0-33.5,27.1-60.5,60.5-60.5c27.7,0,52.1,17,59.3,42.2c-0.5,0.3-2.5,2-4.2,2    c-4.6,0-11.1,5.9-11.1,5.9l-12.1,13.7l-21.8,22c0,0-2,0.4-2.2-3.3c-0.2-3.7-3.1-16.8-3.1-16.8s-1.4,4-5.3,8.4    c-4,4.4-22,14.6-33,15.4s-16.9-5.7-16.9-5.7c-3.4-5-6.5-10.6-8.2-11.5C458.7,92.3,458,91,458,85.6"/>
	</g>
</g>
<g>
	<path class="st5" d="M528.1,68.9c0,0-0.6-0.1-1.6,3.1c-0.9,3.2-1,12.3-1,12.3c2-2.3,5.2-10.8,5.2-13.4   C530.7,68.4,528.1,68.9,528.1,68.9 M513.6,87.1c0.2,0,1.1-0.2,1.7,0.2c0.9,0.6,1.3,2.3,0.9,2.6c-0.8,0.5-8.4,5.3-10.2,4.6   c-1.8-0.7-9-7.8-13.4-10.8c-4.4-2.9-25.9-9.9-26.8,8.2c-0.9,18,17.7,23.4,29.5,19.3c11.9-4,25-19.7,25-19.7   c-0.2-13.7,1.1-17.3,3.7-22.5c2.7-5.5,11.5-5.9,10.1,3.4c-1.5,9.3-8.8,18.1-8.8,18.1c2,4.9,3.7,17.9,3.7,17.9s20.6-24,29.6-33.2   c8.8-8.9,15.9-5.8,15.9-5.8c-2,0.9-2.6,7.7-2.9,8.8c-0.4,1.1-2.7,0-2.7,0l0.3-2.4c-3.8-5.7-11.5,4.3-15.5,12.8   c-4,8.4-5.9,25.3-5.9,25.3l5.5,0.4v2.9c-4.9,0.4-11.2,3.5-11.2,3.5s-0.2-1.1,0.2-6.2s4.4-21.2,4.4-21.2s-6.6,7-8.9,10.1   c-2.4,3.1-13.7,16-13.7,16l-1.8-1.8c0,0,1.6-7.9,1.3-10.8c-0.4-2.9-1.8-9.8-1.8-9.8l-4.6,4.6c-7,7.5-18.1,13-18.1,13   c-35.2,11-42.8-20.6-33.4-32.1c5.4-6.7,12.3-7.9,17.6-7.5c3.8,0.3,7.2,1.7,9,2.5c1.6,0.8,4,2.3,7.2,4.6c4.9,3.5,10.3,7.5,11.3,7.7   C512.1,89.6,513.3,87.6,513.6,87.1"/>
	<path class="st8" d="M449.3,108.8l-1.4-5.2l-3.3-0.6l-0.5-2l14.4,2.6l-11.3,9.1l-0.5-2L449.3,108.8z M450.8,107.6l3.6-2.9l-4.6-0.8   L450.8,107.6z"/>
	<path class="st8" d="M460.9,117.5l-1.4-1c0.3-0.5,0.5-0.8,0.6-1.1c0-0.3,0-0.7-0.2-1.1c-0.2-0.5-0.5-0.8-0.9-1s-0.8-0.2-1.2,0   c-0.6,0.2-0.8,0.9-0.8,1.8v1.3c0,1.1-0.1,2-0.5,2.6c-0.3,0.7-0.9,1.2-1.7,1.5c-1,0.5-2.1,0.5-3.1,0.1s-1.7-1.1-2.2-2.2   c-0.4-1-0.5-1.9-0.2-2.8s0.9-1.7,1.9-2.3l1.2,1.6c-0.6,0.4-1,0.7-1.2,1c-0.3,0.6-0.3,1.2,0,1.9c0.2,0.5,0.6,0.9,1.1,1.1   s1,0.2,1.6-0.1l0.6-0.4l0.4-0.5c0.1-0.2,0.2-0.4,0.2-0.7c0-0.3,0.1-0.6,0.1-0.9V115c0-1.8,0.6-3.1,1.8-3.6c0.9-0.4,1.7-0.4,2.6,0   s1.5,1.1,1.9,2.1C462,114.9,461.8,116.2,460.9,117.5"/>
	<polygon class="st8" points="463.9,122.5 454.8,128.1 453.8,126.5 463,120.9 461.5,118.5 463,117.5 466.9,124 465.4,124.9  "/>
	<polygon class="st8" points="470.5,131.3 467.4,127.4 465,129.3 468,133.1 466.7,134.2 463.6,130.4 460.4,133 463.5,136.9    462.1,138 457.8,132.6 467.6,124.9 471.8,130.2  "/>
	<path class="st8" d="M471.2,139.6l-0.9,6.5l-1.7-1.6l0.9-6.1l-0.2-0.2l-3.5,3.7l-1.4-1.3l8.6-9l1.6,1.5c1.2,1.1,1.8,2.2,1.9,3.1   c0.1,1.1-0.2,2-1,2.8c-0.6,0.6-1.3,1-2.1,1.1C472.7,140.2,471.9,140.1,471.2,139.6 M470.5,137l0.4,0.4c1.3,1.2,2.4,1.3,3.3,0.4   s0.7-2-0.6-3.2l-0.5-0.5L470.5,137z"/>
	<path class="st8" d="M477.3,151.3l6.2-10.8l2.3,1.3c1.1,0.6,1.9,1.2,2.4,1.8c0.6,0.6,1,1.3,1.2,2.1c0.5,1.7,0.3,3.3-0.6,5   c-1,1.7-2.3,2.7-4.1,3c-0.9,0.2-1.7,0.2-2.4,0c-0.7-0.1-1.6-0.5-2.7-1.2L477.3,151.3z M479.9,150.8l0.7,0.4c0.7,0.4,1.4,0.7,2,0.8   c0.6,0.1,1.2,0.1,1.8,0c1.2-0.3,2.2-1,2.9-2.2c0.7-1.2,0.8-2.4,0.5-3.6c-0.3-1.1-1.2-2-2.6-2.8l-0.7-0.4L479.9,150.8z"/>
	<polygon class="st8" points="488.8,157.8 495.5,145.9 496.5,156.4 503.8,148.6 501.8,162.1 500,161.5 501.2,154 495.1,160.5    494.3,151.7 490.6,158.4  "/>
	<polygon class="st8" points="513.6,156.1 519,156.3 519.2,151.5 521.1,151.5 520.5,164 518.7,163.9 518.9,158.1 513.6,157.8    513.3,163.6 511.4,163.6 512,151.1 513.9,151.2  "/>
	<polygon class="st8" points="530.4,152.4 525.4,152.9 525.7,155.9 530.5,155.4 530.7,157.1 525.9,157.7 526.4,161.8 531.3,161.2    531.5,163 524.7,163.8 523.3,151.4 530.2,150.6  "/>
	<path class="st8" d="M541.4,157.5l-5.1,1.4l-0.5,3.3l-2,0.5l2.4-14.4l9.2,11.2l-2,0.5L541.4,157.5z M540.2,156l-2.9-3.6l-0.8,4.6   L540.2,156z"/>
	<polygon class="st8" points="544.6,146.3 548.8,156.1 552.2,154.6 552.9,156.2 547.8,158.4 542.9,147  "/>
	<polygon class="st8" points="552.2,144.4 557.4,153.8 555.8,154.7 550.6,145.3 548.1,146.7 547.2,145.2 553.9,141.5 554.7,143  "/>
	<polygon class="st8" points="559.1,143.7 563.4,140.5 560.4,136.6 561.9,135.5 569.5,145.4 568,146.5 564.5,141.9 560.2,145.2    563.7,149.8 562.2,150.9 554.7,141 556.2,139.9  "/>
	<path class="st8" d="M570.3,127.7l1.6,1.5c-1.4,0.2-2.5,0.7-3.3,1.5c-0.9,0.9-1.3,2-1.2,3.3s0.6,2.4,1.6,3.2c1,0.9,2.1,1.3,3.3,1.3   c1.3,0,2.3-0.5,3.2-1.5c0.4-0.5,0.8-1,0.9-1.5c0.1-0.3,0.2-0.6,0.2-0.9c0.1-0.3,0.1-0.7,0.1-1.1l1.7,1.5c-0.3,1.2-0.8,2.2-1.6,3.1   c-1.2,1.3-2.7,2-4.5,2.1c-1.8,0.1-3.3-0.5-4.6-1.7c-1.2-1.1-1.8-2.4-2-4c-0.2-2,0.3-3.7,1.7-5.2   C568.1,128.7,569.1,128.1,570.3,127.7"/>
	<path class="st8" d="M582.7,124.7l-2.9,4.5l1.8,2.8l-1.1,1.7l-7.8-12.3l14.3,2.1l-1.1,1.7L582.7,124.7z M580.8,124.4l-4.6-0.7   l2.5,3.9L580.8,124.4z"/>
	<path class="st8" d="M585,115l6.4-1.4l-0.9,2.1l-6.1,1.3l-0.1,0.3l4.7,2l-0.7,1.7l-11.4-4.9l0.9-2c0.7-1.5,1.4-2.5,2.3-2.9   c1-0.5,1.9-0.5,3,0c0.8,0.3,1.4,0.9,1.8,1.6C585.1,113.4,585.2,114.2,585,115 M582.8,116.6l0.2-0.5c0.7-1.6,0.4-2.7-0.8-3.3   c-1.2-0.5-2.1,0-2.8,1.6l-0.3,0.6L582.8,116.6z"/>
	<polygon class="st8" points="583.8,101.3 582.5,106.1 585.4,106.9 586.6,102.2 588.3,102.7 587.1,107.4 591.1,108.5 592.4,103.7    594.1,104.1 592.3,110.8 580.3,107.5 582.1,100.8  "/>
	<path class="st8" d="M519.5,171.6c-46,0-83.4-37.4-83.4-83.4s37.4-83.4,83.4-83.4s83.4,37.4,83.4,83.4S565.5,171.6,519.5,171.6    M519.5,5.7c-45.5,0-82.5,37-82.5,82.5s37,82.5,82.5,82.5s82.5-37,82.5-82.5S565,5.7,519.5,5.7"/>
</g>
</svg>