<?xml version="1.0" encoding="utf-8"?>
<!-- Generator: Adobe Illustrator 25.2.0, SVG Export Plug-In . SVG Version: 6.00 Build 0)  -->
<svg version="1.1" id="Layer_1" xmlns="http://www.w3.org/2000/svg" xmlns:xlink="http://www.w3.org/1999/xlink" x="0px" y="0px"
	 viewBox="0 0 680.2 516.1" style="enable-background:new 0 0 680.2 516.1;" xml:space="preserve">
<style type="text/css">
	.st0{fill:#82235F;}
	.st1{fill:#B31983;}
</style>
<g>
	<g>
		<g>
			<path class="st0" d="M319.5,171.4c-2.6,2.6-7.1,7-10.1,10.1l-0.8,0.8l-0.5,0.5l-1.8,1.8c1.8,1.7,32.2,32.2,33.9,33.9
				c1.6-1.6,13.7-13.7,15.3-15.3c-1.7-1.7-32.1-32.2-33.9-33.9L319.5,171.4z"/>
			<path class="st0" d="M285.6,133.3l-19-19l-7.9-7.9c-3.6-3.6-5.5-7.5-5.5-11.4v0c0-5.3,3.3-9,4.3-10c1.4-1.4,5.1-4.6,10.3-4.6
				c3.9,0,7.8,1.8,11.4,5.4c0,0,6.4,6.4,7.9,7.9l0.1-0.1l15.2-15.2c-1.5-1.5-7.9-7.9-7.9-7.9c-4.2-4.2-5.6-8.1-5.6-11.4
				c0-4.8,2.9-8.4,4.7-10.2c3.8-3.8,11.6-8.7,21.4,1.1l7.9,7.9l9.6,9.6l8.6,8.6l0.1,0.1l0.8,0.8c3.4,3.4,15.2,15.2,16.7,16.6
				L374,78.4c-1.2-1.2-22.1-22.1-34.6-34.6l-1.3-1.3c-4.7-4.7-7.9-7.9-7.9-7.9c-8.6-8.6-17.5-12.9-26.6-12.9
				c-12.3,0-21.5,7.9-24.9,11.3c-8.8,8.8-10.1,17.2-11.3,24.7l-0.2,1.1l-1,0.2c-6.8,1.1-16.1,2.6-24.8,11.3
				c-3.3,3.3-11.1,12.4-11.1,24.7v0c0,9.1,4.4,18.1,12.9,26.7l8.9,8.8l17.2,17.3c0,0,15.9,15.9,17.6,17.6c0.3-0.2,0.8-0.8,1.5-1.5
				l13.8-13.7C300.8,148.6,288.8,136.5,285.6,133.3"/>
			<path class="st0" d="M409.9,114.3c-3.4-3.4-15.2-15.2-16.7-16.7c-0.3,0.4-1.2,1.2-2.4,2.4l-10.7,10.7c-1.1,1.1-1.9,1.9-2.3,2.3
				c0.9,0.8,8.7,8.7,16.6,16.6c8.1,8.1,16.4,16.4,17.3,17.3c1.6-1.6,13.7-13.7,15.3-15.3L409.9,114.3z"/>
			<path class="st0" d="M357.4,133.4l-19.2-19.2c-8.8-8.9-16-16-16.7-16.7l-10.3,10.3c-1.1,1.1-2.1,2.1-3,3l-0.4,0.4l-0.6,0.6
				l-0.9,0.9c1.5,1.5,13.2,13.2,16.7,16.6l0.8,0.7l0.2,0.2l8.6,8.6l9,9c2.4,2.4,15.6,15.6,17.2,17.2l2.1-2.1
				c4-4,11.9-11.9,13.2-13.2C373.4,149.4,366.2,142.3,357.4,133.4L357.4,133.4z"/>
			<path class="st1" d="M303.3,111.9l17.2-17.3c0,0,15.9-15.9,17.6-17.6l-0.6-0.6c-1.3-1.3-4.2-4.2-7.1-7.1l-7.1-7.1l-0.5-0.5
				c-0.8,0.8-8.6,8.6-16.7,16.7l-18.4,18.4c-1.9,1.9-15.8,15.8-17.4,17.4l15.3,15.3C287.5,127.8,303.3,111.9,303.3,111.9"/>
			<path class="st1" d="M320.9,166l0.6-0.6c3.4-3.4,15.2-15.1,16.6-16.6c-0.8-0.8-4.2-4.2-7.6-7.6l-7.7-7.7
				c-0.9,0.9-8.7,8.7-16.7,16.7L289,167.3c1.6,1.6,13.7,13.7,15.3,15.3c1.7-1.7,16.3-16.3,16.3-16.3L320.9,166"/>
			<path class="st1" d="M405.9,144.8l-7.4-7.4l-2.1-2l-1.9-1.9c-1.5,1.5-13.2,13.2-16.6,16.7l-19.2,19.2c-8,8-15.8,15.8-16.7,16.7
				c1.4,1.4,10.4,10.4,14,14l1.3,1.3c1.7-1.7,17.6-17.6,17.6-17.6l17.2-17.3c0,0,15.9-15.9,17.6-17.6l-1.8-1.9L405.9,144.8z"/>
			<path class="st1" d="M413.8,58.8l-1-0.2l-0.2-1c-1.1-6.8-2.6-16.1-11.3-24.8c-5.8-5.8-26.8-22.7-51.3,1.8c0,0-6.4,6.3-7.9,7.9
				c1.6,1.6,13.7,13.7,15.3,15.3c1.5-1.5,7.9-7.9,7.9-7.9c8.3-8.3,16.7-5.8,21.4-1.1c1.1,1.1,4.5,5,4.5,10.3c0,3.3-1.3,7.2-5.5,11.3
				l-7.9,7.9l-18.2,18.2c0,0-15.9,15.9-17.6,17.6l15.3,15.3c1.6-1.6,14.5-14.5,17.1-17.1l18.7-18.7l7.9-7.9
				c10.2-10.2,18.6-4,21.6-0.9c3,3,4.6,6.4,4.6,9.9v0c0,3.9-1.9,7.7-5.7,11.5c0,0-6.3,6.4-7.9,7.9l9.4,9.3c2.8,2.8,5.3,5.3,6,5.9
				c1.5-1.5,7.9-7.9,7.9-7.9c8.6-8.6,12.9-17.5,12.9-26.7v0c0-12.3-7.9-21.5-11.3-25C429.7,61.2,421.2,60,413.8,58.8"/>
		</g>
	</g>
	<g>
		<path class="st1" d="M118,430.9v42.5c0,2.6-2.2,4.6-4.8,4.6h-0.3c-2.6,0-4.8-2-4.8-4.6v-41.9c0-15.7-12.6-19.7-17.8-19.7
			c-11.5,0-16.3,7.7-16.3,19.2c0,1.9,0,42.4,0,42.4c0,2.6-2.2,4.6-4.8,4.6h-0.5c-2.6,0-4.7-2-4.7-4.6v-42.2
			c-0.2-15.4-12.6-19.4-17.7-19.4c-11.7,0-16.5,7.7-16.5,19.2c0,1.9,0,42.4,0,42.4c0,2.6-2.1,4.6-4.7,4.6h-0.5c-2.6,0-4.8-2-4.8-4.6
			v-64.2c0-2.6,2.2-4.8,4.8-4.8h0.5c2.3,0,4.7,1.5,4.7,3.7c0,0.3,0,2,0,2.3c0,0.8,0.6,0.9,1.1,0.5c5.2-6.2,9.2-8.3,15.4-8.3
			c5.5,0,15.2,1.4,20.7,9.5c1.7,2.6,2,2.8,3.5,0.2c3.7-5.7,10-9.7,19.7-9.7C99,402.7,118,406.7,118,430.9z"/>
		<path class="st1" d="M201.3,439.7h-58.8c-2.1,0-2.6,0.6-2.5,2.9c0.6,7.7,3.4,14,8.4,18.9c5.5,5.5,12.3,9.4,20.3,9.4
			c7.8,0,16-4.2,19.5-8.5c3.5-4.3,5.7-5.8,9.2-3.7c2.8,1.8,2.9,5.4,0.6,7.8c-0.6,0.8-1.2,1.4-1.8,2c-7.7,7.7-16.7,11.5-27.5,11.5
			c-10.7,0-19.8-3.8-27.5-11.4c-7.5-7.7-11.4-16.7-11.4-27.5c0-10.8,3.9-19.8,11.4-27.4c7.7-7.7,16.7-11.2,27.5-11.2
			c10.8,0,19.8,3.5,27.5,11.2c5.4,5.4,8.6,12,9.7,19.7C206.2,435.9,205.6,439.7,201.3,439.7z M193.7,427c-1.1-2-2.6-4-4.8-6
			c-5.7-5.7-12.4-9.1-20.3-9.1c-8,0-14.7,3.4-20.4,9.1c-2.5,2.5-4.1,4.8-5.4,6.8c-1.1,2-0.3,2.1,2.2,2.1h47.3
			C195.6,429.9,194.6,428.5,193.7,427z"/>
		<path class="st1" d="M292.9,409.3v58.2c0,10.4-3.7,19.3-11.2,26.9c-6.1,6.1-13.4,9.5-21.7,10.7c-2.8,0.5-6.5-0.6-6.9-4.4
			c-0.5-4.9,3.4-6.2,6-6.3c5.7-0.3,11.1-2.9,15.4-7.2c4.6-4.6,7.7-8.8,8.6-12.3c0.9-3.4,0-8.9-0.6-8c-7.2,8.9-18.6,13.2-29,13.2
			c-23.2,0-38.9-14.7-38.9-38.5c0-23.1,17.5-38.9,38.9-38.9c10.4,0,20.7,4.2,28.4,12.3c0.1,0.2,1.2,0.8,1.2-1.4c0-0.2,0-4.1,0-4.3
			c0-2.6,2.1-4.8,4.8-4.8h0.5C290.8,404.5,292.9,406.7,292.9,409.3z M283.1,441.6c0-16.1-13.5-29.7-29.6-29.7
			c-16,0-28.9,14.3-28.9,29.7c0,17.5,11.7,29.3,28.9,29.3C269.6,470.9,283.1,457.5,283.1,441.6z"/>
		<path class="st1" d="M343.6,402.7c10.6,0,21.2,4.3,27.2,11.8c0.5,0.8,2,1.2,2-0.8c0-0.2,0-2.6,0-4.4c0-2.6,2.2-4.8,4.8-4.8h0.3
			c2.6,0,4.8,2.1,4.8,4.8v64.2c0,2.6-2.2,4.8-4.8,4.8h-0.3c-2.6,0-4.8-2.2-4.8-4.8c0,0,0-3.5,0-4.6c0-1.9-1.1-1.5-1.4-1.1
			c-6.6,7.8-16.6,12.3-27.5,12.3c-21.5,0-39.2-17-39.2-38.5C304.8,420,322.1,402.7,343.6,402.7z M344,470.9
			c16,0,28.7-13.4,28.7-29.3c0-16-13.1-29.7-29-29.7c-16.1,0-29,13.7-29,29.7C314.6,457.5,327.8,470.9,344,470.9z"/>
		<path class="st0" d="M521.7,430.9v42.5c0,2.6-2.2,4.6-4.8,4.6h-0.3c-2.6,0-4.8-2-4.8-4.6v-41.9c0-15.7-12.6-19.7-17.8-19.7
			c-11.5,0-16.3,7.7-16.3,19.2c0,1.9,0,42.4,0,42.4c0,2.6-2.1,4.6-4.8,4.6h-0.5c-2.6,0-4.8-2-4.8-4.6v-42.2
			c-0.1-15.4-12.6-19.4-17.7-19.4c-11.7,0-16.4,7.7-16.4,19.2c0,1.9,0,42.4,0,42.4c0,2.6-2.2,4.6-4.8,4.6h-0.5c-2.6,0-4.8-2-4.8-4.6
			v-64.2c0-2.6,2.2-4.8,4.8-4.8h0.5c2.3,0,4.8,1.5,4.8,3.7c0,0.3,0,2,0,2.3c0,0.8,0.6,0.9,1.1,0.5c5.2-6.2,9.2-8.3,15.4-8.3
			c5.5,0,15.2,1.4,20.7,9.5c1.7,2.6,2,2.8,3.6,0.2c3.7-5.7,10-9.7,19.7-9.7C502.7,402.7,521.7,406.7,521.7,430.9z"/>
		<path class="st0" d="M572.4,402.7c10.6,0,21.2,4.3,27.2,11.8c0.5,0.8,2,1.2,2-0.8c0-0.2,0-2.6,0-4.4c0-2.6,2.2-4.8,4.8-4.8h0.3
			c2.6,0,4.8,2.1,4.8,4.8v64.2c0,2.6-2.2,4.8-4.8,4.8h-0.3c-2.6,0-4.8-2.2-4.8-4.8c0,0,0-3.5,0-4.6c0-1.9-1.1-1.5-1.4-1.1
			c-6.6,7.8-16.6,12.3-27.5,12.3c-21.5,0-39.2-17-39.2-38.5C533.5,420,550.9,402.7,572.4,402.7z M572.7,470.9
			c16,0,28.7-13.4,28.7-29.3c0-16-13.1-29.7-29-29.7c-16.1,0-29,13.7-29,29.7C543.4,457.5,556.6,470.9,572.7,470.9z"/>
		<path class="st0" d="M635.8,370.7v102.6c0,2.6-2.2,4.8-4.8,4.8h-0.3c-2.6,0-4.8-2.2-4.8-4.8V370.7c0-2.6,2.1-4.8,4.8-4.8h0.3
			C633.7,366,635.8,368.1,635.8,370.7z"/>
		<path class="st0" d="M660.2,370.7v102.6c0,2.6-2.1,4.8-4.8,4.8h-0.3c-2.6,0-4.8-2.2-4.8-4.8V370.7c0-2.6,2.2-4.8,4.8-4.8h0.3
			C658.1,366,660.2,368.1,660.2,370.7z"/>
	</g>
	<g>
		<path class="st1" d="M660.2,306.7c0-21.7-17.6-39.3-39.4-39.3c-21.7,0-39.2,17.6-39.2,39.3c0,11.6,5.1,22.1,13.2,29.3h-47.2
			c4.4-4.8,7.2-11.8,7.2-21.8v-41.9c0-2.6-2.2-4.8-4.8-4.8h-0.3c-2.7,0-4.8,2.2-4.8,4.8v41.3c0,15.1-9.7,22.1-20.4,22.4H408.7
			c-13.3-2.9-23.4-15.1-23.4-29.3c0-16.2,13.2-29.9,29.3-29.9c8.2,0,15.9,3.8,21.7,9.5c4.4,4.4,6.9,10,7.2,15.8
			c0.2,2.7,1.4,6.5,6.4,6.1c3.9-0.5,5-4.2,4.5-7c-1.3-8.4-4.7-15.7-10.9-22c-5.8-5.8-12.5-9.4-20-10.7c-2.8-0.6-5.8-1-8.9-1
			c-21.6,0-39.2,17.6-39.2,39.3c0,11.6,5.1,22.1,13.2,29.3h-25.8c-3.3,0-6.6-0.4-9.5-2c-2-1.1-3.4-2.5-4.4-4.6
			c-0.9-1.9-1.4-4-1.6-6.1c-0.1-1-0.1-2-0.1-3c0-1.1,0-61.7,0-61.7c0-2.7-2.2-4.8-4.8-4.8H342c-2.6,0-4.8,2.2-4.8,4.8c0,0,0,59,0,59
			c0,6,0.6,12.2,3.6,17.5c3.8,6.7,10.9,9.7,18.3,10.5c2.1,0.2,4.2,0.3,6.3,0.3h258c0.4,0,0.8-0.1,1.3-0.2
			C644.7,343.8,660.2,327.1,660.2,306.7z M620.8,336.6c-16,0-29.3-13.7-29.3-29.9c0-16.2,13.2-29.9,29.3-29.9
			c16.2,0,29.3,13.7,29.3,29.9C650.1,322.9,637,336.6,620.8,336.6z"/>
		<path class="st0" d="M93.4,232.2h-0.5c-2.7,0-4.8,2.2-4.8,4.8v88.9c0,0,0,0,0,0c0,0.3,0,0.5,0,0.7c0,16.2-13.1,29.9-29.3,29.9
			c-15,0-27.6-12-29.1-26.9c-0.4-3.8,0-7.8,0-11.6c0-2.6-2.2-4.8-4.8-4.8h-0.5c-2.6,0-4.8,2.2-4.8,4.8c0,0,0,8.7,0,8.7
			c0.1,21.6,17.6,39.1,39.2,39.1c21.8,0,39.4-17.6,39.4-39.3v-89.6C98.2,234.4,96,232.2,93.4,232.2z"/>
		<path class="st1" d="M533.4,358.7c-3.6,0-6.4,2.9-6.4,6.4c0,3.6,2.9,6.4,6.4,6.4c3.6,0,6.4-2.9,6.4-6.4
			C539.8,361.6,536.9,358.7,533.4,358.7z"/>
		<path class="st1" d="M514,358.7c-3.6,0-6.4,2.9-6.4,6.4c0,3.6,2.9,6.4,6.4,6.4c3.6,0,6.4-2.9,6.4-6.4
			C520.5,361.6,517.6,358.7,514,358.7z"/>
		<path class="st1" d="M414.9,253.8c3.6,0,6.4-2.9,6.4-6.4c0-3.6-2.9-6.4-6.4-6.4c-3.6,0-6.4,2.9-6.4,6.4
			C408.5,250.9,411.3,253.8,414.9,253.8z"/>
		<path class="st0" d="M287.1,331c0.6-0.8,1.3-1.7,1.9-2.5c0.2-0.3,0.3-0.5,0.5-0.8c0.5-0.8,1-1.6,1.5-2.4c0.2-0.4,0.4-0.7,0.5-1.1
			c0.4-0.8,0.8-1.5,1.1-2.3c0.2-0.5,0.3-1,0.5-1.5c0.2-0.7,0.5-1.4,0.8-2.1c0.2-0.6,0.3-1.3,0.5-1.9c0.1-0.6,0.3-1.2,0.5-1.8
			c0.2-0.8,0.3-1.6,0.4-2.4c0.1-0.5,0.2-0.9,0.2-1.4c0.1-1.3,0.2-2.7,0.2-4c0-21.7-17.6-39.3-39.4-39.3c-21.6,0-39.2,17.6-39.2,39.3
			c0,1.4,0.1,2.8,0.2,4.2c0,0.2,0,0.3,0.1,0.5c0.2,1.2,0.4,2.5,0.6,3.7c0,0,0,0.1,0,0.1c1.8,8.1,6.1,15.2,12.1,20.6
			c0,0,0.1,0.1,0.1,0.1h-40.3v-31.4c0,0-0.1,0-0.1,0.1c-1.1-20.7-18.2-37.2-39.3-37.2c-21.6,0-39.3,17.6-39.3,39.3
			c0,21.6,17.6,39.3,39.3,39.3c0,0,1.4,0,3.4,0h24.8c-1.1,3.3-3.3,7-7.5,11.2c-4.4,4.4-9.8,7-15.6,7.3c-2.7,0.2-6.5,1.4-6.1,6.4
			c0.5,3.9,4.2,5,7,4.5c8.4-1.2,15.7-4.7,22-10.9c5.4-5.4,8.8-11.6,10.4-18.5h67.7c0.1,0,0.2,0,0.3,0c9.4-0.2,18-3.6,24.7-9.2l0,0
			c0.9-0.8,1.9-1.6,2.7-2.5c0.1-0.1,0.1-0.1,0.2-0.2c0.8-0.8,1.6-1.7,2.3-2.6C286.8,331.3,286.9,331.1,287.1,331z M179.4,335.9
			c0,0-29.5,0.1-29.5,0.1c-16.1,0-28.8-13.2-28.8-29.4c0-16.2,13.2-29.9,29.3-29.9c14.7,0,26.8,11.3,28.9,25.5
			C179.4,311,179.5,326.2,179.4,335.9z M226.9,306.7c0-16.2,13.2-29.9,29.3-29.9c16.2,0,29.3,13.7,29.3,29.9
			c0,16.2-13.1,29.9-29.3,29.9C240.1,336.6,226.9,322.9,226.9,306.7z"/>
	</g>
</g>
</svg>
