<?xml version="1.0" encoding="utf-8"?>
<!-- Generator: Adobe Illustrator 23.0.1, SVG Export Plug-In . SVG Version: 6.00 Build 0)  -->
<svg version="1.1" id="Layer_1" xmlns="http://www.w3.org/2000/svg" xmlns:xlink="http://www.w3.org/1999/xlink" x="0px" y="0px"
	 viewBox="0 0 384 384" style="enable-background:new 0 0 384 384;" xml:space="preserve">
<style type="text/css">
	.st0{fill:#808080;}
	.st1{fill:#656666;}
</style>
<path class="st0" d="M63,131.8c-11.1-5.5-21.7-10.9-32.4-16.2c-4.7-2.3-9.4-4.7-14.1-7c-2.5-1.2-3.9-3-3.9-5.8
	c0-2.8,1.5-4.5,3.9-5.7C54.7,78,92.9,59,131,39.9c2.4-1.2,4.6-1.3,7.1-0.1c17.6,8.8,35.1,17.6,52.7,26.4c1.4,0.7,2.4,0.6,3.7-0.1
	c17.5-8.8,35.1-17.6,52.7-26.4c2.3-1.2,4.5-1.2,6.8,0c38.2,19.1,76.4,38.2,114.6,57.3c2.4,1.2,4,3,4,5.7c0,2.7-1.5,4.5-3.9,5.8
	c-14.6,7.3-29.2,14.6-43.9,21.9c-0.7,0.4-1.4,0.8-2.5,1.3c1,0.6,1.8,1,2.5,1.4c14.6,7.3,29.2,14.6,43.9,21.9c2.5,1.2,4,3,4,5.8
	c0,2.7-1.6,4.5-4,5.7c-17.4,8.6-34.7,17.4-52.1,26c-1.5,0.7-2,1.6-2,3.2c0.1,26.6,0,53.2,0.1,79.7c0,3.5-1.3,5.7-4.5,7.3
	c-38.1,19-76.1,38-114.2,57.1c-2.3,1.1-4.3,1.2-6.6,0.1c-38.2-19.1-76.4-38.3-114.7-57.3c-2.8-1.4-4.2-3.5-4.1-6.6
	c0-26.9,0-53.8,0.1-80.6c0-1.4-0.6-2.1-1.8-2.7c-17.3-8.6-34.5-17.2-51.7-25.8c-2.6-1.3-4.5-3-4.5-6.1c0-3,1.8-4.7,4.4-5.9
	c14.7-7.3,29.4-14.6,44-22C61.6,132.6,62.1,132.3,63,131.8z M90.3,131.8c0.9,0.5,1.4,0.8,1.9,1.1c32.9,16.5,65.8,32.9,98.7,49.3
	c0.9,0.4,2.4,0.4,3.3,0c33-16.4,66-32.9,99-49.4c0.5-0.2,0.9-0.6,1.6-1c-0.7-0.4-1.2-0.6-1.6-0.9c-32.9-16.5-65.9-32.9-98.8-49.4
	c-1.4-0.7-2.5-0.5-3.8,0.2c-23.7,11.9-47.4,23.7-71.2,35.6C109.8,122,100.3,126.8,90.3,131.8z M186.4,324.7c0-41.8,0-83.3,0-125
	c-0.8,0.4-1.4,0.6-2,0.9c-15.4,7.7-30.9,15.4-46.3,23.1c-2.4,1.2-4.6,1.2-7.1,0c-15.5-7.8-31-15.5-46.5-23.3c-0.6-0.3-1.2-0.5-2-0.8
	c0,1.1,0,1.8,0,2.5c0,22.8,0,45.5,0,68.3c0,1.8,0.6,2.8,2.2,3.6c33.1,16.5,66.1,33,99.2,49.6C184.7,324,185.5,324.3,186.4,324.7z
	 M198.8,324.7c0.9-0.4,1.6-0.7,2.4-1c33-16.5,66-33,99.1-49.5c1.6-0.8,2.2-1.7,2.2-3.5c-0.1-22.7,0-45.5,0-68.2c0-0.8,0-1.6,0-2.7
	c-0.9,0.4-1.5,0.6-2.1,0.9c-15.4,7.7-30.8,15.4-46.2,23.1c-2.3,1.2-4.5,1.4-6.8,0.2c-15.3-7.7-30.7-15.4-46-23
	c-0.8-0.4-1.6-0.7-2.5-1.2C198.8,241.5,198.8,283,198.8,324.7z M352.9,102.9c-0.6-0.4-0.9-0.6-1.2-0.7C318.5,85.6,285.2,69,252,52.4
	c-0.8-0.4-2.2-0.3-3,0.1c-13.6,6.7-27.2,13.5-40.8,20.3c-0.6,0.3-1.1,0.6-1.7,1c0.5,0.3,0.7,0.5,1,0.6
	c33.3,16.6,66.5,33.3,99.8,49.8c0.8,0.4,2.2,0.3,3-0.2c13-6.4,25.9-12.9,38.8-19.4C350.2,104.2,351.4,103.6,352.9,102.9z
	 M32.3,160.7c0.6,0.4,0.8,0.6,1.1,0.7c33.3,16.6,66.5,33.3,99.8,49.8c0.8,0.4,2.2,0.3,3-0.1c13.6-6.7,27.3-13.5,40.9-20.4
	c0.5-0.3,1-0.6,1.7-1c-0.5-0.3-0.7-0.5-1-0.6c-33.2-16.6-66.5-33.2-99.7-49.8c-0.8-0.4-2.2-0.3-3,0.1c-8.1,3.9-16.1,8-24.2,12
	C44.8,154.5,38.7,157.5,32.3,160.7z M352.9,160.8c-0.8-0.5-1.4-0.8-2-1.1c-13.5-6.7-26.9-13.5-40.4-20.2c-1.4-0.7-2.5-0.7-3.9,0
	c-24,12-48,24-72,36c-9.4,4.7-18.7,9.4-28.4,14.2c0.9,0.5,1.5,0.8,2.2,1.2c13.3,6.6,26.5,13.2,39.8,19.9c1.7,0.9,3,0.9,4.7,0.1
	c28.8-14.5,57.7-28.9,86.6-43.3C343.9,165.4,348.3,163.2,352.9,160.8z M32.3,102.8c0.7,0.4,1.1,0.7,1.5,0.9
	c13.8,6.9,27.6,13.8,41.4,20.7c1.3,0.7,2.2,0.3,3.3-0.3c32.1-16.1,64.2-32.1,96.2-48.1c1.3-0.7,2.6-1.3,4.2-2.1
	c-0.9-0.5-1.6-0.9-2.2-1.2c-13.3-6.7-26.7-13.3-40-20.1c-1.5-0.7-2.6-0.8-4.1,0C110.2,63.8,87.8,75,65.4,86.2
	C54.5,91.7,43.6,97.1,32.3,102.8z"/>
<g>
	<path class="st1" d="M162.6,155.7h9.1v0.5c0,1.4,0.4,2.5,1.1,3.3c0.7,0.7,1.8,1.1,3.3,1.1c1.5,0,2.7-0.4,3.5-1.1
		c0.8-0.7,1.2-1.7,1.2-3.1c0-1.5-0.4-2.6-1.3-3.3c-0.9-0.7-2.2-1.1-4-1.1c-0.3,0-0.5,0-0.7,0c-0.2,0-0.3,0-0.4,0v-5.3h0.5
		c1.7,0,2.9-0.3,3.8-1c0.9-0.7,1.3-1.6,1.3-2.9c0-1-0.4-1.8-1.1-2.4c-0.7-0.6-1.7-0.9-2.9-0.9c-1.2,0-2.2,0.3-2.9,0.9
		c-0.7,0.6-1,1.5-1.1,2.6h-8.7c0.1-3.1,1.2-5.4,3.5-7.1c2.3-1.7,5.5-2.5,9.6-2.5c3.7,0,6.6,0.8,8.7,2.3c2.1,1.5,3.2,3.6,3.2,6.2
		c0,1.7-0.5,3.1-1.4,4.2c-1,1.2-2.4,2-4.2,2.5c2.2,0.4,4,1.3,5.2,2.7c1.2,1.4,1.9,3.2,1.9,5.4c0,3.2-1.2,5.8-3.7,7.8
		c-2.5,2-5.7,3-9.7,3c-4.2,0-7.5-1-10-3.1c-2.4-2.1-3.7-4.8-3.7-8.4V155.7z"/>
	<path class="st1" d="M195.8,166.6v-32.8h7.5c5.6,0,9.5,0.2,11.9,0.7c2.3,0.5,4.4,1.3,6.1,2.4c2.3,1.5,4,3.3,5.2,5.6
		c1.2,2.3,1.8,4.9,1.8,7.8c0,2.9-0.6,5.5-1.8,7.8c-1.2,2.3-2.9,4.1-5.2,5.6c-1.7,1.1-3.7,1.9-5.9,2.4c-2.2,0.5-5.7,0.7-10.4,0.7
		h-1.6H195.8z M205.5,159.3h1.6c3.8,0,6.7-0.7,8.4-2.2c1.8-1.4,2.7-3.7,2.7-6.9c0-3.1-0.9-5.4-2.7-6.9c-1.8-1.5-4.6-2.2-8.4-2.2
		h-1.6V159.3z"/>
</g>
<g>
	<path class="st0" d="M194.8,166.8V134h7.5c5.6,0,9.5,0.2,11.9,0.7c2.3,0.5,4.4,1.3,6.1,2.4c2.3,1.5,4,3.3,5.2,5.6
		c1.2,2.3,1.8,4.9,1.8,7.8c0,2.9-0.6,5.5-1.8,7.8c-1.2,2.3-2.9,4.1-5.2,5.6c-1.7,1.1-3.7,1.9-5.9,2.4c-2.2,0.5-5.7,0.7-10.4,0.7
		h-1.6H194.8z M204.5,159.4h1.6c3.8,0,6.7-0.7,8.4-2.2c1.8-1.4,2.7-3.7,2.7-6.9c0-3.1-0.9-5.4-2.7-6.9c-1.8-1.5-4.6-2.2-8.4-2.2
		h-1.6V159.4z"/>
	<path class="st0" d="M161.6,155.9h9.1v0.5c0,1.4,0.4,2.5,1.1,3.3c0.7,0.7,1.8,1.1,3.3,1.1c1.5,0,2.7-0.4,3.5-1.1
		c0.8-0.7,1.2-1.7,1.2-3.1c0-1.5-0.4-2.6-1.3-3.3c-0.9-0.7-2.2-1.1-4-1.1c-0.3,0-0.5,0-0.7,0c-0.2,0-0.3,0-0.4,0V147h0.5
		c1.7,0,2.9-0.3,3.8-1c0.9-0.7,1.3-1.6,1.3-2.9c0-1-0.4-1.8-1.1-2.4c-0.7-0.6-1.7-0.9-2.9-0.9c-1.2,0-2.2,0.3-2.9,0.9
		c-0.7,0.6-1,1.5-1.1,2.6h-8.7c0.1-3.1,1.2-5.4,3.5-7.1c2.3-1.7,5.5-2.5,9.6-2.5c3.7,0,6.6,0.8,8.7,2.3c2.1,1.5,3.2,3.6,3.2,6.2
		c0,1.7-0.5,3.1-1.4,4.2c-1,1.2-2.4,2-4.2,2.5c2.2,0.4,4,1.3,5.2,2.7c1.2,1.4,1.9,3.2,1.9,5.4c0,3.2-1.2,5.8-3.7,7.8
		c-2.5,2-5.7,3-9.7,3c-4.2,0-7.5-1-10-3.1c-2.4-2.1-3.7-4.8-3.7-8.4V155.9z"/>
</g>
</svg>
