<?xml version="1.0" encoding="utf-8"?>
<!-- Generator: Adobe Illustrator 23.0.1, SVG Export Plug-In . SVG Version: 6.00 Build 0)  -->
<svg version="1.1"
	 id="Layer_1" shape-rendering="geometricPrecision" text-rendering="geometricPrecision" image-rendering="optimizeQuality"
	 xmlns="http://www.w3.org/2000/svg" xmlns:xlink="http://www.w3.org/1999/xlink" x="0px" y="0px" viewBox="0 0 512 502.9"
	 style="enable-background:new 0 0 512 502.9;" xml:space="preserve">
<style type="text/css">
	.st0{fill:#808080;}
</style>
<g>
	<path class="st0" d="M462.9,235.5c-3.4-4.1-6.8-8.3-10.2-12.4l-1.9-2.3l1.9-2.3c3.5-4.2,6.9-8.4,10.3-12.5
		c8-9.7,15.5-18.8,23.1-28.2c3.7-4.6,5.4-7.9,4.8-9.9c-0.5-1.9-3.5-3.9-8.8-6c-15.4-5.9-31.1-11.9-46.2-17.6l-15-5.7
		c-7.2-2.7-15.8-6-24.3-9.1c-7.6-2.8-9.2,1.4-9.9,3.3c-1,2.8-1.5,5.9,5.7,8.7c1.3,0.5,2.6,1,3.8,1.5c1.3,0.5,2.6,1,3.9,1.5
		c18,6.8,36,13.6,54.5,20.6l19.2,7.2l-3.2,4c-2.5,3.1-5,6-7.4,8.9c-5.7,6.9-11.1,13.4-16.1,20.1c-4.5,5.9-9.4,7.2-16.6,4.3
		c-9.5-3.8-19.3-7.5-28.7-11c-6.5-2.4-13.2-4.9-19.8-7.5c-3.3-1.3-7.5-2.6-9.8-1.5c-0.4,0.2-1.7,0.8-2.8,3.8
		c-1.6,4.4-0.5,6.6,8.5,9.9c8.1,3,16.2,6.1,24.7,9.3c3.7,1.4,7.5,2.9,11.4,4.3l7.9,3l-7.5,3.8c-1.1,0.6-2.1,1.1-2.9,1.5
		c-1.6,0.8-2.9,1.5-4.3,2.1l-20.5,7.8c-41.4,15.7-84.2,32-126.4,47.6c-5.2,1.9-11.5,0.9-15.3-0.5c-40.3-15-81.2-30.5-120.7-45.5
		l-20.3-7.7c-2.3-0.9-4.5-1.8-7.3-3c-1.4-0.6-3-1.3-4.7-2l-8.5-3.6l8.6-3.3c4.5-1.7,8.8-3.3,12.9-4.9c9.3-3.5,18.1-6.8,26.8-10.3
		c3.9-1.6,6-4.2,6.3-6.2c0.2-1.1-0.1-1.9-1-2.7c-2.3-2-7.9-3.2-10.9-2.2c-10,3.2-20,7.1-29.7,10.8c-6.8,2.6-13.9,5.3-20.9,7.8
		c-3.8,1.3-10.6,1.4-13.7-1.9c-6.6-7.2-12.6-14.7-19-22.7c-2.2-2.7-4.4-5.5-6.7-8.3l-3.2-3.9l4.6-1.9c1.4-0.6,2.7-1.1,3.9-1.6
		c2.4-1,4.5-1.9,6.7-2.7c15.7-6,31.4-11.9,47.1-17.9l19-7.2c6.8-2.6,6.7-5.7,5.6-8.8c-0.7-2-1.8-4-5.2-4c-1.3,0-2.8,0.3-4.8,1
		c-0.5,0.2-0.9,0.4-1.4,0.6c-0.5,0.2-0.9,0.4-1.4,0.6c-8.4,3.2-16.8,6.3-25.2,9.5c-18.8,7.1-38.3,14.5-57.5,21.8
		c-5.2,2-8.2,4-8.7,5.9c-0.5,2,1.1,5.3,4.9,9.9c7.6,9.4,15.3,18.7,22.9,28c3.3,4,6.6,8,9.9,12l1.4,1.7l-0.8,2
		c-0.1,0.3-0.2,0.6-0.3,0.8c-0.2,0.7-0.5,1.6-1.2,2.5l-1.2,1.4c-8,9.9-16.3,20.1-24.5,30c-5.7,7-12.3,14.9-11.5,17.6
		c0.7,2.7,10.6,6.3,18.5,9.1c8.4,3.1,11.7,7.8,11.6,17.1c-0.2,16.5-0.1,33.4-0.1,49.7c0,19.2,0.1,39.1-0.2,58.6
		c-0.1,9.3,2.6,13.3,11.1,16.5c31.3,11.6,63,23.6,93.6,35.1c31.2,11.8,63.4,24,95.2,35.7c5,1.9,12,1.9,17,0
		c33.2-12.3,66.9-25,99.5-37.3c29.3-11.1,59.5-22.5,89.3-33.6c8.5-3.2,11.2-6.9,11-15.5c-0.4-23.9-0.3-48.2-0.3-71.6
		c0-9.1,0-18.2,0-27.3c0-10.7-1.1-21.7-1.1-21.7s11.8-4.8,21.4-8.6c5.5-2.2,8.6-4.3,9.1-6.3c0.5-1.9-1-5.1-4.5-9.5
		C478.6,254.7,470.6,244.9,462.9,235.5z M41.2,272.2l-1.5-0.6c-1.3-0.5-4.5-1.7-5-2.2c-0.4-0.4-0.6-0.5-0.7-1c0-0.6,1.2-2.3,1.2-2.3
		l1.7-2.1c2.1-2.6,4.2-5.2,6.3-7.7c5.8-7.1,14.4-18.5,20.6-25.4c2.5-2.8,8.6-5,12.7-3.4c45.6,17,87.7,38,135,55.9l31.3,11.8l-3.3,4
		c-2.2,2.7-4.4,5.3-6.5,7.9c-7,8.5-13.6,16.6-20.5,24.5c-1.5,1.7-4,2.3-6.3,2.3c-1.6,0-3.2-0.3-4.2-0.7
		C148.3,312.9,93.8,292.2,41.2,272.2z M245.9,482.7L67.8,415.6c-4.3-1.6-10.1-3.7-10-12.6c0.3-23.5,0.3-47.3,0.3-70.4
		c0-9.8,0-19.6,0-29.4c0-1.2,0.2-2.2,0.5-3.4c0.1-0.6,0.2-1.2,0.4-2l0.7-4.4l24.2,9.1c20.5,7.7,40.8,15.4,61,23
		c5.5,2.1,11.1,4.1,16.6,6.2c13.7,5.1,27.9,9,41.7,14.7c7.8,3.2,12.3,2,17.1-4.7c3.8-5.3,8-8.9,12.5-14.2c2.1-2.5,4.3-5.1,6.6-7.9
		l6.5-8V482.7z M451,403.6c0,4.1-3.6,9.4-7.4,10.8c-52.6,20.1-108.9,40.3-160.8,59.8l-18.6,7.3c-0.5,0.2-3.9,1.4-3.9,1.4l0-3.7
		V311.7l6.5,7.8c2.3,2.7,4.5,5.3,6.7,7.8c4.7,5.5,9.1,10.6,13.2,16.1c4.4,6.1,8.7,7.2,16.4,4.2c32.2-12.4,65.1-24.8,96.9-36.7
		c10.8-4.1,21.6-8.1,32.4-12.2c2.1-0.8,4.2-1.6,6.8-2.5l9.4-3.4l0,26.7C448.6,348.5,451.3,375.8,451,403.6z M469,270.4
		c-1,0.5-1.9,0.9-2.7,1.4c-1.8,0.9-3.5,1.8-5.3,2.5c-14.7,5.6-29.5,11.1-44.2,16.7c-35.5,13.4-72.1,27.2-108.1,41
		c-2.8,1.1-5.3,1.7-7.8,1.7c-4,0-7.6-1.8-11.2-6.8c-4.5-6.3-9.6-12.4-15-18.8c-2.4-2.9-4.9-5.8-7.4-9l-3.2-4l83.7-31.7
		c7.3-2.7,14.5-5.5,21.8-8.2c19.9-7.5,41.8-16.6,62-24.5c7.6-3,12.8-1.6,17.4,4.6c4.9,6.5,10.1,14.1,15.6,20.7
		c2.3,2.8,4.1,5.9,6.6,8.9l2.7,3.4L469,270.4z"/>
	<g>
		<path class="st0" d="M360.4,216.5l-0.6-110.8c0-1.5,0.7-10.7-10.1-13.9l-92.4-36.4c-3.4-1.5-7.5-1.7-11.3-0.1l-92.6,37.3
			c-6.6,2.7-9.4,9.2-9,16L144,217.9c0,6,3.6,11.1,8.7,13.2l0,0l88.7,41.1c3.6,1.5,10.3,1.3,14-0.2l96.2-42.7l0,0
			C356.8,227.2,360.4,222.3,360.4,216.5z M243.2,263.1l-92.1-42.7l1.6-112.5l90.6,39V263.1z M248.4,138.9l-92.6-38.8L250,61.5
			l99.3,41.1L248.4,138.9z M253.2,263.1V146.9l96.6-33.8l0.5,106.8L253.2,263.1z"/>
	</g>
</g>
</svg>
