<?xml version="1.0" encoding="utf-8"?>
<!-- Generator: Adobe Illustrator 23.0.1, SVG Export Plug-In . SVG Version: 6.00 Build 0)  -->
<svg version="1.1" id="Layer_1" xmlns="http://www.w3.org/2000/svg" xmlns:xlink="http://www.w3.org/1999/xlink" x="0px" y="0px"
	 viewBox="0 0 384 384" style="enable-background:new 0 0 384 384;" xml:space="preserve">
<style type="text/css">
	.st0{fill:#808080;}
</style>
<rect x="203.8" y="49.6" class="st0" width="10.2" height="10.4"/>
<rect x="121.5" y="49.6" class="st0" width="25.6" height="10.4"/>
<path class="st0" d="M175.1,235.3l0.7,0.4L176,304c0,4,1.4,7,3.9,8.4c2,1.2,4.6,1.1,6.7-0.2c2.5-1.5,3.8-4.4,3.7-7.9l-1.9-69.1
	l1.2-0.3c12.7-3.3,17.6-21.5,15.7-37c-1.6-13-8.6-28.3-23-28.5c-0.1,0-0.1,0-0.2,0c-8.6,0-15.7,7.5-19.2,20.2
	C158.3,205.8,161.1,227.3,175.1,235.3z"/>
<rect x="162.7" y="49.6" class="st0" width="25.6" height="10.4"/>
<path class="st0" d="M275.2,8.3c-0.5-2.3-2.3-4-4.5-4H79.2c-2.5,0-4.6,2.3-4.6,5.1v47.2L44.6,109c-0.7,0.9-1.1,2-1.1,3.3v257.8
	c0,2.9,2,5.1,4.7,5.1c21.6,0,49.8,0.5,79.6,1c47.4,0.8,101.1,1.7,139.6,0.8l30.7-0.7l10.3-0.4l1-261.5L278.4,60L275.2,8.3z
	 M258.1,365.1H52.5V117.7h205.5V365.1z M266.2,16c-0.1,10.3-0.1,20.2-0.2,32l0,1.5h-1.5c-6,0-12.2,0.1-18.1,0.1
	c-5.4,0-10.9,0.1-16.4,0.1V60c4.9,0,10.6,0,16.4,0c6.4,0,12.7,0,17.9,0h1.9l-10.7,47.4H57.1l1.2-2.2c2.9-5.3,5.9-10.6,8.8-15.9
	c5.2-9.4,10.6-19.1,16-28.6l0.4-0.8h22.9V49.6H83.7V14.4h182.4L266.2,16z M266.7,365.1V117.7h30.6l0,1.5l0.4,245.9H266.7z
	 M264.5,107.5l9.3-41l22.4,41H264.5z"/>
<path class="st0" d="M114,228.5c1,0.4,2.4,0.8,4,1l1.3,0.2l-2.5,76.7c-0.1,1.8,0.6,3.5,1.9,4.8c1.2,1.3,2.9,2,4.7,2h1
	c2,0,3.9-0.8,5.4-2.3c1.5-1.5,2.3-3.5,2.2-5.6l-2.2-75.7l1.3-0.2c3-0.5,4.2-1.1,4.7-1.4c5.6-3.8,8.9-8.8,8.4-21.7l0-33.5
	c0-1.7-1.9-2.2-2.9-2.2c-0.3,0-2.9,0-3.1,2.3l-0.3,27.1c0,3.5-2.8,5.4-5.4,5.3c-2.6,0-5.2-1.9-5.2-5.4l0.3-28.1
	c0-1.7-1.5-2.4-2.8-2.4c0,0,0,0,0,0c-0.6,0-2.5,0.2-2.5,2.5c0,3.9-0.1,9-0.2,14c-0.1,5-0.2,10.1-0.2,13.9c0.1,2-0.7,3.7-2.2,4.7
	c-1.5,0.9-3.4,1-4.9,0.2c-1.6-0.9-2.5-2.7-2.4-4.9l0.3-27.9c-0.1-1.3-0.8-1.9-1.4-2.2c-0.5-0.2-1-0.4-1.5-0.4
	c-0.7,0-1.3,0.2-1.9,0.5c-1.7,1.1-1.8,3-1.8,6.1c0,0.6,0,1.2,0,1.7l-1.1,32C105.2,219.9,108,225.9,114,228.5z"/>
</svg>
