<?xml version="1.0" encoding="utf-8"?>
<!-- Generator: Adobe Illustrator 23.0.1, SVG Export Plug-In . SVG Version: 6.00 Build 0)  -->
<svg version="1.1" id="Layer_1" xmlns="http://www.w3.org/2000/svg" xmlns:xlink="http://www.w3.org/1999/xlink" x="0px" y="0px"
	 viewBox="0 0 511 344" style="enable-background:new 0 0 511 344;" xml:space="preserve">
<style type="text/css">
	.st0{clip-path:url(#SVGID_2_);fill:#808080;}
	.st1{fill:#808080;}
</style>
<g>
	<g>
		<defs>
			<rect id="SVGID_1_" width="511" height="344"/>
		</defs>
		<clipPath id="SVGID_2_">
			<use xlink:href="#SVGID_1_"  style="overflow:visible;"/>
		</clipPath>
		<path class="st0" d="M233.6,209.7c4.7,5.8,12.9,9.2,21.8,9.2c8.9,0,17.1-3.4,21.8-9.2c2.6-3.2,2.1-7.9-1.1-10.5
			c-3.2-2.6-7.9-2.1-10.5,1.1c-1.5,1.8-5.2,3.7-10.2,3.7c-4.9,0-8.7-1.9-10.2-3.7c-2.6-3.2-7.3-3.7-10.5-1.1
			C231.4,201.8,231,206.5,233.6,209.7L233.6,209.7z M233.6,209.7"/>
		<path class="st0" d="M510.1,91.4c-2-6.3-7.1-10.8-13.5-12.3l-62-13.9l-32.4-54.7c-3.4-5.7-9.3-9-15.9-9c-6.6,0-12.5,3.4-15.9,9
			L338,65.2l-27.3,6.1l-35-59c-4.3-7.2-11.8-11.5-20.2-11.5c-8.4,0-15.9,4.3-20.2,11.5l-35,59L173,65.2l-32.4-54.7
			c-3.4-5.7-9.3-9-15.9-9c-6.6,0-12.5,3.4-15.9,9L76.4,65.2l-62,13.9C8,80.6,3,85.1,0.9,91.4c-2,6.3-0.7,12.9,3.7,17.9l42,47.7
			l-5.9,63.3c-0.6,6.5,2.2,12.8,7.5,16.6c3.2,2.3,7,3.5,10.8,3.5c2.5,0,5-0.5,7.3-1.5l58.2-25.1l20.4,9.7l-8.7,93.9
			c-0.8,8.3,2.8,16.3,9.6,21.2c6.8,4.9,15.4,5.9,23.1,2.6l86.6-37.4l86.6,37.4c3,1.3,6.2,1.9,9.3,1.9c4.9,0,9.6-1.5,13.8-4.5
			c6.8-4.9,10.4-12.8,9.6-21.2l-8.7-93.9l20.4-9.7l58.2,25.1c2.4,1,4.9,1.5,7.3,1.5c3.8,0,7.6-1.2,10.8-3.5
			c5.3-3.9,8.1-10.1,7.5-16.6l-5.9-63.3l42-47.7C510.7,104.3,512.1,97.7,510.1,91.4L510.1,91.4z M121.7,198.7l-61.3,26.4
			c-1.6,0.7-2.8,0.1-3.4-0.4c-0.6-0.4-1.6-1.4-1.4-3.1l6.2-66.5c0.2-2.1-0.5-4.1-1.8-5.6L15.9,99.4c-1.1-1.3-0.9-2.7-0.7-3.4
			c0.2-0.7,0.9-1.9,2.5-2.3l65.2-14.7c2-0.4,3.7-1.7,4.8-3.5l34.1-57.4c0.9-1.5,2.2-1.7,3-1.7c0.7,0,2.1,0.2,3,1.7l34.1,57.4
			c1.1,1.8,2.8,3,4.8,3.5l25.7,5.8l-5.1,8.6l-92.1,20.7c-8.2,1.8-14.6,7.7-17.2,15.7c-2.6,8-0.8,16.5,4.7,22.8l40.2,45.8
			C122.5,198.5,122.1,198.6,121.7,198.7L121.7,198.7z M183,318.8v-13.8c0-6.7,4-12.8,10.2-15.4l17.9-7.7
			c7.8,6.1,17.4,10.5,27.8,12.8L183,318.8z M227.3,274.7c7.2-4.2,11.7-11.9,11.7-20.3v-8.5c5.2,1.6,10.8,2.5,16.5,2.5
			c5.7,0,11.3-0.9,16.5-2.5v8.5c0,8.5,4.5,16.1,11.7,20.3c-8.2,4.4-18,6.8-28.2,6.8C245.2,281.5,235.4,279.1,227.3,274.7
			L227.3,274.7z M328,318.8l-55.9-24.1c10.5-2.3,20.1-6.6,27.9-12.8l17.9,7.7c6.2,2.6,10.2,8.7,10.2,15.4V318.8z M495.1,99.4
			L451,149.5c-1.4,1.5-2,3.6-1.8,5.6l6.2,66.5c0.2,1.7-0.8,2.7-1.4,3.1c-0.6,0.4-1.8,1.1-3.4,0.4l-61.3-26.4
			c-0.4-0.2-0.7-0.3-1.1-0.4l40.2-45.7c5.5-6.3,7.3-14.8,4.7-22.8c-2.6-8-9-13.8-17.2-15.7l-54.7-12.3c-4-0.9-8,1.6-8.9,5.7
			c-0.9,4,1.6,8,5.7,8.9l54.7,12.3c4.3,1,5.8,4.3,6.2,5.7c0.5,1.4,1.2,5-1.7,8.3L352.7,216c-1.4,1.5-2,3.6-1.8,5.6l9.1,97.2
			c0.4,4.4-2.3,6.8-3.5,7.7c-1.2,0.9-4.4,2.7-8.4,0.9l-5.1-2.2v-20.3c0-12.7-7.5-24.2-19.2-29.2l-31.6-13.5
			c-3.1-1.3-5.2-4.4-5.2-7.8v-15.8c14.5-10,24-26.7,24-45.7v-80c0-4.1-3.4-7.5-7.5-7.5h-56c-11.8,0-22.2,6.6-27.6,16.3
			c-11.3,1.7-19.9,11.5-19.9,23.2v15.4c0,4.1,3.4,7.5,7.5,7.5c4.1,0,7.5-3.4,7.5-7.5V145c0-1.9,0.6-3.6,1.7-5
			c1.2,2.6,3.8,4.5,6.9,4.5c4.1,0,7.5-3.4,7.5-7.5c0-9.1,7.4-16.5,16.5-16.5H296v17h-40.5c-4.1,0-7.5,3.4-7.5,7.5
			c0,4.1,3.3,7.5,7.5,7.5H296V193c0,22.3-18.2,40.5-40.5,40.5c-22.3,0-40.5-18.2-40.5-40.5c0-4.1-3.3-7.5-7.5-7.5
			c-4.1,0-7.5,3.4-7.5,7.5c0,18.9,9.5,35.6,24,45.7v15.8c0,3.4-2,6.5-5.2,7.8l-31.6,13.5c-11.7,5-19.2,16.5-19.2,29.2v20.3l-5.1,2.2
			c-4,1.7-7.2-0.1-8.4-0.9c-1.2-0.9-3.9-3.3-3.5-7.7l9.1-97.2c0.2-2.1-0.5-4.1-1.8-5.6l-64.4-73.3c-2.9-3.3-2.2-6.9-1.7-8.2
			c0.5-1.4,2-4.7,6.2-5.7l95.2-21.4c2-0.5,3.7-1.7,4.8-3.5L248.2,20c2.2-3.8,5.9-4.2,7.3-4.2c1.5,0,5.1,0.4,7.3,4.2l49.8,83.9
			c1,1.8,2.8,3,4.8,3.5l8.5,1.9c4,0.9,8-1.6,8.9-5.7c0.9-4-1.6-8-5.7-8.9l-5.3-1.2l-5.1-8.6l25.7-5.8c2-0.4,3.7-1.7,4.8-3.5
			l34.1-57.4c0.9-1.5,2.2-1.7,3-1.7c0.7,0,2.1,0.2,3,1.7l34.1,57.4c1.1,1.8,2.8,3,4.8,3.5l65.2,14.7c1.7,0.4,2.3,1.6,2.5,2.3
			C496.1,96.7,496.3,98.1,495.1,99.4L495.1,99.4z M495.1,99.4"/>
	</g>
	<path class="st1" d="M239,176.9c0,4.1-3.4,7.5-7.5,7.5c-4.1,0-7.5-3.4-7.5-7.5c0-4.1,3.3-7.5,7.5-7.5
		C235.7,169.4,239,172.8,239,176.9L239,176.9z M239,176.9"/>
	<path class="st1" d="M287,176.9c0,4.1-3.4,7.5-7.5,7.5c-4.1,0-7.5-3.4-7.5-7.5c0-4.1,3.4-7.5,7.5-7.5
		C283.6,169.4,287,172.8,287,176.9L287,176.9z M287,176.9"/>
</g>
</svg>
