<?xml version="1.0" encoding="utf-8"?>
<!-- Generator: Adobe Illustrator 23.0.1, SVG Export Plug-In . SVG Version: 6.00 Build 0)  -->
<svg version="1.1" id="Layer_1" xmlns="http://www.w3.org/2000/svg" xmlns:xlink="http://www.w3.org/1999/xlink" x="0px" y="0px"
	 viewBox="0 0 384 384" style="enable-background:new 0 0 384 384;" xml:space="preserve">
<style type="text/css">
	.st0{fill:#808080;}
</style>
<path class="st0" d="M353.3,227.9c-5.9-10.3-11.9-21-17.4-31.7c-4.9-9.5-10.9-16.4-19-21.8c-6-3.9-12.8-8.9-18.2-15.9
	c-5-6.4-10.4-12.8-15.6-18.9c-2.2-2.6-4.4-5.2-6.6-7.9c-2.3-2.8-3.9-4-5.4-4c-1.5-0.1-3.2,0.9-5.6,3.4c-0.7,0.7-1.4,1.3-2,1.8
	l-1.3,1.2l-33.7-33.7l0.7-0.7c14.3-14.1,16.9-29.5,16.7-39.9c-0.4-14.7-7-29.1-17.6-38.5c-20.3-18-50.7-18-70.9,0
	c-10.6,9.5-17.2,23.9-17.6,38.6c-0.3,10.4,2.4,25.7,16.6,39.7l0.7,0.7l-34.4,34.5l-0.7-0.9c-0.2-0.3-0.5-0.7-0.8-1.1
	c-0.6-0.8-1.2-1.7-1.9-2.4c-1.8-1.8-3.4-2.7-4.8-2.6c-1.5,0.1-3,1.1-4.7,3.1c-1,1.2-2,2.4-3,3.5c-2.4,2.7-4.8,5.6-7,8.5
	c-12,16.1-25.3,28.8-40.6,38.9c-1.3,0.8-2.6,2.3-3.6,4.1c-5,8.9-10,17.8-14.9,26.7c-4.5,8.1-9,16.2-13.5,24.3
	c-1.3,2.4-1.5,4.5-0.7,7c3.5,10.3,7,20.8,10.4,30.9c2.2,6.6,4.4,13.2,6.6,19.8c0.9,2.7,2,4.2,3.3,4.8c1.4,0.6,3.3,0.2,5.9-1.1
	c4-2,7.9-3.9,12-5.9l6.1-3l4.4,7.7c5,8.8,9.8,17.1,14.5,25.6c0.8,1.4-0.2,3.8-0.9,4.9c-4,6.2-8.2,12.4-12.2,18.4
	c-2.4,3.6-4.7,7.1-7.1,10.7c-1.5,2.2-2,4-1.6,5.4c0.4,1.4,1.7,2.6,3.9,3.8c8,4,14.6,7.4,20.7,10.4c5,2.5,6.6,2,9.6-2.7
	c2.6-4.2,5.2-8.4,7.8-12.6c5.3-8.5,10.7-17.3,16.3-25.9c7.2-11.1,7.3-21.9,0.2-32.9c-2.3-3.6-4.4-7.2-6.7-11c-1-1.7-2-3.5-3.1-5.2
	l-0.6-1l32.9-14.1l6.4,9.6c4.8,7.1,9.5,14.2,14.2,21.3c1.6,2.5,3,3.7,4.4,3.9c1.4,0.2,3.1-0.5,5.6-2.3c2.9-2.2,5.8-4.3,8.7-6.5
	l4.5-3.4l4.4,3.3c3.1,2.3,6.2,4.6,9.2,6.9c2.2,1.6,3.8,2.3,5.2,2c1.4-0.2,2.7-1.4,4.2-3.6c3.7-5.6,7.4-11.1,11.1-16.7
	c2.2-3.4,4.5-6.7,6.7-10.1c0.6-0.8,1.1-1.7,1.7-2.5l1.3-1.8l2.8,1.2c9.2,4,18.2,7.8,27.1,11.7c0.3,0.1,0.6,0.3,1,0.5
	c0.2,0.1,0.4,0.2,0.7,0.4l0.9,0.5l-0.5,0.9c-1.2,2-2.4,4.1-3.6,6c-2.7,4.4-5.2,8.6-7.7,12.9c-5.3,9.2-5.2,18.5,0.3,27.4
	c7.1,11.6,14.5,23.3,21.6,34.7l4.4,6.9c2.4,3.8,4.4,4.4,8.5,2.3c7.6-3.7,14.5-7.2,21.1-10.5c2.5-1.3,3.9-2.5,4.3-4
	c0.4-1.4-0.2-3.2-1.8-5.7l-2.7-4.1c-5.4-8.1-10.9-16.4-16.4-24.6c-1.5-2.2-1.6-4.1-0.2-6.4c3.7-6.4,7.4-12.9,11-19.2
	c1.8-3.1,3.6-6.3,5.4-9.4c0.4-0.6,0.8-1.2,1.2-1.7c0.2-0.3,0.4-0.5,0.6-0.8l0.5-0.7l5.9,3c3.9,1.9,7.7,3.9,11.5,5.7
	c2.8,1.4,4.8,1.8,6.2,1.2c1.4-0.6,2.5-2.2,3.5-5.1c1.9-5.7,3.8-11.4,5.7-17.1c3.6-10.8,7.3-22,11.1-32.9c1-2.8,0.7-5.1-0.7-7.7
	C356.6,233.7,354.9,230.8,353.3,227.9z M149.8,60.8c0-11.4,4.5-22.2,12.6-30.4c8.1-8.1,18.9-12.6,30.4-12.6c0,0,0,0,0,0
	c23.7,0,43,19.3,43,43c0,11.4-4.5,22.2-12.6,30.4s-18.9,12.6-30.4,12.6c0,0,0,0,0,0C169,103.7,149.8,84.5,149.8,60.8z M176.1,293.5
	l-0.6-0.8c-0.3-0.4-0.5-0.7-0.8-1c-0.5-0.7-1-1.4-1.5-2.1c-2.3-3.4-4.6-6.9-6.9-10.3c-3.5-5.3-7-10.6-10.6-15.8
	c-2.7-4-4.3-4.4-8.6-2.6c-14,6-26.9,11.5-39.2,16.8c-2.3,1-3.7,2.2-4.1,3.6c-0.5,1.4,0,3.2,1.3,5.4c4.4,7.4,8.9,15,13.5,22.5
	c4,6.5,4,12.8-0.2,19.4c-4.8,7.7-9.7,15.5-14.5,23.1c-2.5,3.9-4.9,7.9-7.4,11.8c-0.3,0.4-0.6,0.9-1,1.3c-0.2,0.2-0.4,0.5-0.6,0.7
	l-0.5,0.7l-14.6-7.3l0.6-0.9c1.8-2.8,3.7-5.5,5.5-8.3c4.7-7,9-13.7,13.7-20.4c2.1-3.1,2.2-5.6,0.4-8.6c-1.4-2.3-2.7-4.6-3.9-6.9
	c-1.7-3.1-3.5-6.3-5.4-9.2c-9.7-14.5-16.7-31.6-22-53.6c-0.6-2.5-1.3-5-2.1-7.6c-0.3-0.9-0.6-1.9-0.9-2.9l-9.6,2.7l2.2,7.9
	c1.9,6.8,3.8,13.4,5.7,20.1c2.5,8.7,2.3,9.2-5.6,13.1c-1.2,0.6-2.4,1.2-3.7,1.8l-2.9,1.4l-0.4-1c-0.2-0.4-0.3-0.7-0.5-1.1
	c-0.3-0.7-0.7-1.4-0.9-2.1l-2.2-6.7c-3.5-10.5-7.1-21.3-10.5-32c-0.6-1.9-0.4-4.5,0.6-6.3c9.1-16.7,18.2-33.1,25.2-45.5
	c1.1-1.9,2.5-3.5,4-4.5c14.6-9.5,27.2-21.6,38.5-36.8c1.8-2.4,3.8-4.7,5.8-7c0.9-1.1,1.8-2.1,2.8-3.2l0.7-0.9l10.5,11.2l-32,36.6
	c-0.9,1-1.8,2-2.7,3c-1.1,1.2-2.2,2.5-3.3,3.7c-2.1,2.4-2.2,4.6-0.5,7c9.1,12.7,19.4,27.2,29.6,41.5c1.7,2.4,4,2.9,7.1,1.7
	c6-2.5,12.2-4.9,18.2-7.3l5.8-2.3c7.8-3.1,12.5-1.7,17.2,5.4c6.2,9.3,12.4,18.6,18.7,28l8.5,12.8L176.1,293.5z M192.9,264.5
	l-0.8-1.1c-0.3-0.4-0.6-0.8-0.9-1.1c-0.6-0.7-1-1.4-1.5-2c-2.2-3.3-4.4-6.6-6.6-9.9c-3.5-5.3-7.1-10.7-10.7-16
	c-6.6-9.7-16.6-12.9-27.6-8.6c-4.8,1.9-9.6,3.8-14.5,5.8c-2.3,0.9-4.7,1.9-7,2.8l-0.7,0.3l-25.4-35.6l6.7-7.7
	c4.8-5.5,9.5-10.9,14.3-16.3c5.5-6.3,11-12.6,16.5-18.9c4.3-4.9,4.2-6.3-0.4-11c-0.6-0.6-1.1-1.2-1.6-1.6l-1.1-1.1l35.3-35.3
	l0.7,0.3c16.7,8.7,33.7,8.6,50.7-0.3l0.7-0.3l36.2,36.3l-1.1,0.7c-0.3,0.2-0.7,0.4-1.1,0.6c-0.8,0.4-1.7,0.8-2.3,1.4
	c-3.9,3.8-4,5.6-0.4,9.8l3.1,3.6c10.7,12.2,21.4,24.5,32.1,36.7c0.4,0.5,0.9,1,1.3,1.6l1.4,1.6L263,234.6l-6.5-2.6
	c-4.8-1.9-9.6-3.8-14.4-5.8c-12.8-5.1-22.2-2.2-29.9,9.2c-4.4,6.6-8.8,13.3-13.4,20L192.9,264.5z M348.6,243.1
	c-3.7,11.4-7.4,22.6-11.4,34.4l-3.4,10.1l-1-0.5c-1.1-0.5-2.1-1-3.2-1.5c-3.1-1.5-5.9-2.9-8.7-4.5c-1.3-0.7-1.4-3.4-1.1-4.6
	c2.1-7.6,4.3-15.3,6.4-22.8c0.8-2.7,1.6-5.5,2.3-8.2c0.2-0.7,0.4-1.4,0.5-2.2c0-0.1,0-0.2,0.1-0.3l-9.4-2.7l-0.7,2.5
	c-0.7,2.5-1.5,4.9-2.2,7.3c-0.9,3.2-1.8,6.3-2.7,9.5c-1.7,5.9-3.4,11.9-5.1,17.9c-0.6,2.1-1.5,4.2-2.7,6.4l-3,5.4
	c-5.7,10.1-11.6,20.6-17.6,30.7c-2.1,3.6-2,6.4,0.4,9.9c4.5,6.5,8.8,12.9,13.3,19.8c1.8,2.7,3.6,5.5,5.5,8.2l0.6,0.9l-14.6,7.4
	l-0.5-0.7c-0.2-0.3-0.5-0.7-0.7-1c-0.5-0.7-1-1.4-1.4-2.1c-2.2-3.5-4.4-7.1-6.6-10.6c-4.6-7.5-9.4-15.2-14.3-22.7
	c-4.5-7-4.5-13.7-0.2-20.7c3.9-6.2,7.7-12.7,11.4-18.9l1.7-2.9c1.3-2.3,1.8-4,1.3-5.4c-0.5-1.4-1.8-2.6-4.2-3.6
	c-14.5-6.3-28.7-12.4-39.5-17c-3.8-1.6-5.6-1.1-8,2.5c-3.7,5.6-7.5,11.2-11.2,16.8c-2.1,3.1-4.2,6.3-6.3,9.4
	c-0.5,0.7-0.9,1.4-1.5,2.1c-0.3,0.4-0.6,0.8-0.9,1.2l-0.6,0.8l-8-6l0.7-0.8c2.4-2.9,2.1-5.6-0.9-9.2c-2.5-3-1.5-5.3-0.1-7.4
	c4.4-6.5,8.9-13.1,13.1-19.5c2.3-3.4,4.6-6.9,6.9-10.3c4.2-6.3,9-7.8,16-5c4.5,1.8,8.9,3.6,13.4,5.3c3.6,1.5,7.3,2.9,10.9,4.4
	c4.1,1.6,5.7,1.1,8.2-2.3c9.4-13.1,18.9-26.4,28.3-39.6c2.6-3.7,2.5-5.2-0.6-8.7c-7.1-8.1-14.2-16.2-21.3-24.3l-15.2-17.4
	c-0.2-0.2-0.3-0.5-0.4-0.6c0-0.1-0.1-0.1-0.1-0.2l-0.4-0.7l10.6-10.5l0.7,0.8c1.6,1.9,3.2,3.8,4.8,5.6c3.6,4.1,7.2,8.3,10.4,12.8
	c7.2,10.1,17,17.5,26.6,24.7c1.6,1.2,3.2,2.4,4.8,3.6c1.9,1.5,3.7,3.4,4.8,5.5c9.2,16.3,18.1,32.5,24.9,44.9
	C348.2,239.4,349.1,241.5,348.6,243.1z"/>
<path class="st0" d="M57.1,177.3c5.5-5.5,8.6-12.7,8.6-20.4c0-7.8-3-15.1-8.4-20.6c-5.5-5.5-12.7-8.6-20.4-8.6c0,0-0.1,0-0.1,0
	c-7.7,0-15,3-20.5,8.5c-5.5,5.5-8.5,12.8-8.5,20.5c0,15.9,12.9,28.9,28.7,29C44.2,185.8,51.6,182.8,57.1,177.3z M17.8,156.7
	c0-10.4,8.5-18.9,18.9-18.9c0,0,0.1,0,0.1,0c5.1,0,9.8,2,13.4,5.6c3.6,3.6,5.6,8.4,5.6,13.5c0,10.4-8.5,18.9-18.9,18.9
	c0,0-0.1,0-0.1,0c-5,0-9.8-2-13.4-5.6C19.7,166.5,17.7,161.8,17.8,156.7z"/>
<path class="st0" d="M369.3,136.4c-5.4-5.5-12.7-8.6-20.4-8.6c0,0-0.1,0-0.1,0c-7.7,0-15,3-20.5,8.4c-5.5,5.5-8.6,12.7-8.6,20.4
	c0,7.7,3,15,8.5,20.6c5.5,5.5,12.8,8.5,20.5,8.5c0,0,0,0,0,0c15.9,0,28.9-12.9,29-28.7C377.8,149.3,374.8,141.9,369.3,136.4z
	 M348.7,175.7c-0.1,0-0.2,0-0.3,0c-5-0.1-9.8-2.1-13.3-5.8c-3.6-3.7-5.5-8.6-5.3-13.7c0.2-10.2,8.8-18.4,19-18.4c0.1,0,0.2,0,0.3,0
	c5,0.1,9.8,2.1,13.3,5.8c3.6,3.7,5.5,8.6,5.3,13.7C367.5,167.5,359,175.7,348.7,175.7z"/>
<path class="st0" d="M187.9,89.5h9.9V77.8h1c0.4,0,0.8,0,1.1,0c0.7,0,1.4,0,2.1,0c3.3,0.1,5.9,0,7.3-3.1c1.3-3-0.3-4.9-2.9-7.3
	c-2.7-2.6-5.3-5.2-8-7.7l-3.9-3.8l1.2-2.1h13.8v-9.9h-12V32h-9.8v11.8h-1c-0.8,0-1.6-0.1-2.3-0.1c-1.4-0.1-2.5-0.2-3.4,0.2
	c-2.4,0.9-4.2,2.2-4.7,3.3c-0.5,1.1,0,3.6,1,5.1c1.3,1.9,3,3.5,4.8,5.1c0.8,0.7,1.6,1.5,2.4,2.3c1.3,1.3,2.6,2.6,4.1,4.2l4,4.1H176
	V78h11.9V89.5z"/>
</svg>
