<?xml version="1.0" encoding="utf-8"?>
<!-- Generator: Adobe Illustrator 23.0.1, SVG Export Plug-In . SVG Version: 6.00 Build 0)  -->
<svg version="1.1" id="Layer_1" xmlns="http://www.w3.org/2000/svg" xmlns:xlink="http://www.w3.org/1999/xlink" x="0px" y="0px"
	 viewBox="0 0 384 384" style="enable-background:new 0 0 384 384;" xml:space="preserve">
<style type="text/css">
	.st0{fill:#808080;}
</style>
<g>
	<path class="st0" d="M3.7,213.5c1.9-7.3,5.8-12.7,13.6-14.3c1.7-0.3,3.4-0.4,5.1-0.4c48.7,0,97.4,0,146.1,0
		c11.6,0,18.3,6.7,18.3,18.3c0,48.1,0,96.2,0,144.2c0,12-2.6,16-13.4,20.5c-27.8,0-55.6,0-83.4,0c-0.9-0.2-1.9-0.6-2.8-0.7
		c-38.7-4.2-71.9-33.5-80.6-71.3c-1.3-5.5-2-11.1-2.9-16.6C3.7,266.6,3.7,240,3.7,213.5z M175.8,290.3c0-24.2,0-48.5,0-72.7
		c0-6.2-1.7-7.8-7.9-7.8c-48.3,0-96.7,0-145,0c-6.3,0-8,1.7-8,8.1c0,22.8,0,45.5,0,68.3c0,4.2,0.2,8.4,0.8,12.5
		c5.8,41.5,40.5,71.8,82.4,72c23.4,0.1,46.7,0,70.1,0c5.9,0,7.6-1.7,7.6-7.7C175.8,338.8,175.8,314.5,175.8,290.3z"/>
	<path class="st0" d="M3.7,92.4C4.6,87,5.3,81.5,6.6,76.1C16.2,34.5,53.8,4.3,96.5,3.9c24.5-0.2,49-0.1,73.4,0
		c9.9,0,16.9,7.1,16.9,17c0,49.6,0,99.2,0,148.7c0,10.2-7,17.2-17.2,17.2c-49.5,0.1-98.9,0-148.4,0c-9.1,0-13.8-4-17.6-14.7
		c0-17.2,0-34.5,0-51.7c3.5,0,7.1,0,11.2,0c0,1.2,0,2.5,0,3.8c0,14.5,0,29,0,43.6c0,6.2,1.8,8,7.8,8c48.5,0,96.9,0,145.4,0
		c5.9,0,7.6-1.7,7.6-7.7c0-48.5,0-96.9,0-145.4c0-6.2-1.6-7.8-7.9-7.8c-22.9,0-45.8,0-68.6,0c-42.7,0.1-77,29.5-83.5,71.6
		c-0.7,4.7-0.7,9.6-0.9,14.3c-0.1,2.6,0,5.1,0,8.3c-4-0.2-7.6-0.4-11.2-0.5C3.7,103.2,3.7,97.8,3.7,92.4z"/>
	<path class="st0" d="M211.9,381.8c-0.4-0.2-0.8-0.5-1.3-0.7c-7.9-2.7-12.1-8.3-12.1-16.6c0-49.6,0-99.1,0-148.7
		c0-10,7-17.1,16.9-17.1c49.7-0.1,99.4-0.1,149.1,0c9.6,0,16.9,6.8,16.9,16.4c0.1,27.4,1.1,54.9-0.8,82.3c-2.6,37.7-30,69.8-67,80.6
		c-6,1.7-12.2,2.6-18.3,3.8c-6.4,0-12.8,0-19.2,0c0-3.5,0-7.1,0-11.1c3.8,0,7.2,0,10.6,0c40.3-0.2,73.8-27.3,82-66.8
		c1.2-5.7,1.7-11.7,1.7-17.6c0.2-22.9,0.1-45.7,0.1-68.6c0-6.2-1.8-7.9-7.9-8c-48.5,0-96.9,0-145.4,0c-6,0-7.6,1.7-7.6,7.7
		c0,48.6,0,97.2,0,145.7c0,5.8,1.7,7.5,7.4,7.5c8.2,0,16.5,0,24.7,0c0.2,0,0.5,0.1,1.2,0.3c0,3.5,0,7.1,0,10.8
		C232.6,381.8,222.2,381.8,211.9,381.8z"/>
	<path class="st0" d="M254,381.8c0-3.5,0-7,0-10.8c3.8,0,7.2,0,11.1,0c0,3.6,0,7.2,0,10.8C261.4,381.8,257.7,381.8,254,381.8z"/>
	<path class="st0" d="M283.3,259.5c0,20.8,0,40.8,0,61.1c-3.7,0-7,0-10.9,0c0-20.1,0-40.2,0-60.8c-6,0-11.6,0-17.4,0
		c0-3.9,0-7.2,0-10.9c15.1,0,30.1,0,45.5,0c0,3.4,0,6.7,0,10.6C294.9,259.5,289.3,259.5,283.3,259.5z"/>
	<path class="st0" d="M132.3,74.3c-3.2,3.7-5.4,6.4-6.9,8.2c-5.7-2.6-10.8-5.6-16.3-7.2c-3.1-0.9-7,0.1-10.3,1.1
		c-3.1,1-4.8,3.8-4.8,7.2c0,3.4,2.1,5.3,5.1,6.4c5.6,2.1,11.2,4.4,16.7,6.8c2.5,1.1,4.9,2.4,7,3.9c11.6,8.6,11.5,23.8-0.2,32.1
		c-10.9,7.7-22.4,6.4-33.4,0.4c-4.5-2.5-8.2-6.4-12.7-10.1c3.3-3,5.9-5.4,8.7-7.8c1.5,1.6,2.7,3,4.1,4.4c6.1,5.8,13.2,8.4,21.6,6.6
		c2.3-0.5,4.6-1.8,6.4-3.4c4.4-4,4.2-9.4-0.6-12.9c-2.6-1.9-5.8-3.1-8.8-4.4c-4.5-2-9.1-3.7-13.6-5.6C81.1,94.4,78.8,77.9,89.9,69
		c7.8-6.2,16.8-6.9,25.8-3.6C121.4,67.5,126.5,71.1,132.3,74.3z"/>
	<path class="st0" d="M198.5,95c0-24.2,0-48.5,0-72.7c0-11.9,6.6-18.5,18.4-18.5c23.1,0,46.2,0,69.4,0c48.5,0.1,87.9,34.4,94.4,82.4
		c0.6,4.5,0.8,9.1,0.8,13.6c0.1,22.6,0,45.3,0,67.9c0,12.5-6.6,19.1-19.1,19.1c-48.3,0-96.7,0-145,0c-12.4,0-18.9-6.5-18.9-18.8
		C198.5,143.7,198.5,119.3,198.5,95z M209.6,95.4c0,24.1,0,48.2,0,72.3c0,6.5,1.6,8.1,8,8.1c48.2,0,96.4,0,144.6,0
		c6.6,0,8.3-1.7,8.3-8.3c0-22.6,0-45.3,0-67.9c0-4.3-0.2-8.6-0.8-12.9c-6.3-42.1-40.7-71.8-83.2-71.8c-23,0-46,0-69,0
		c-6.2,0-7.8,1.6-7.8,7.9C209.6,46.9,209.6,71.2,209.6,95.4z"/>
	<path class="st0" d="M142.5,284.7c0,20.4-16.6,37.1-37,37.2C85,322,68,304.9,68.2,284.6c0.2-20.5,16.9-37.1,37.3-37
		C125.9,247.6,142.5,264.3,142.5,284.7z M131.4,284.9c0.1-14.4-11.5-26.1-25.8-26.3c-14.4-0.2-26.4,11.7-26.4,26.1
		c0,14.3,11.8,26.1,26,26.1C119.6,310.9,131.4,299.2,131.4,284.9z"/>
	<path class="st0" d="M277.4,86.6c-4.9,16.8-9.8,33.7-14.7,50.7c-3.8,0-7.6,0-11.5,0c-4.7-23.9-9.4-47.8-14.2-71.9
		c3.6-0.7,7.1-1.4,10.8-2.1c3.3,16.7,6.6,33,9.8,49.3c0.2,0,0.4,0,0.6,0.1c1-3.3,2-6.6,3-10c3.4-11.7,6.8-23.3,10.1-35
		c0.7-2.4,2.7-3.1,5.1-3.1c7.9,0,6.9-0.1,9.1,7.4c3.5,12.3,7.1,24.5,10.6,36.8c0.3,1.1,0.7,2.3,1.9,3.5c3.2-16.1,6.5-32.3,9.8-48.9
		c3.5,0.7,6.9,1.3,10.8,2.1c-4.8,24.1-9.5,48-14.3,72.1c-3.3,0-6.4,0.3-9.4-0.1c-1.1-0.1-2.4-1.7-2.8-2.9
		c-4.4-14.8-8.6-29.7-12.9-44.6c-0.3-1.1-0.6-2.1-1-3.2C277.9,86.7,277.7,86.6,277.4,86.6z"/>
	<path class="st0" d="M302.3,30.6c3.5,0,6.9,0,10.6,0c0,3.5,0,6.9,0,10.6c-3.4,0-6.8,0-10.6,0C302.3,37.8,302.3,34.3,302.3,30.6z"/>
	<path class="st0" d="M324.4,41.7c3.6,0,7,0,10.6,0c0,3.5,0,6.9,0,10.6c-3.4,0-6.9,0-10.6,0C324.4,48.9,324.4,45.5,324.4,41.7z"/>
</g>
</svg>
