<?xml version="1.0" encoding="utf-8"?>
<!-- Generator: Adobe Illustrator 23.0.1, SVG Export Plug-In . SVG Version: 6.00 Build 0)  -->
<svg version="1.1" id="Layer_1" xmlns="http://www.w3.org/2000/svg" xmlns:xlink="http://www.w3.org/1999/xlink" x="0px" y="0px"
	 viewBox="0 0 384 384" style="enable-background:new 0 0 384 384;" xml:space="preserve">
<style type="text/css">
	.st0{fill:#808080;}
</style>
<path class="st0" d="M360.5,334.7c-2.2-2.3-5.5-3.3-9.6-3.1c-0.3,0-0.5-0.1-0.7-0.3c-0.1-0.1-0.2-0.2-0.4-0.3l-0.2-0.1v-0.3
	c0-1.5,0-3,0-4.6c0-5,0-10.3,0.1-15.4c0-1.1,1.2-2.4,2.2-2.8c4.5-1.9,6.8-5.3,6.9-10.1c0.2-7,0.2-14.3,0-21.6
	c-0.1-4.8-2.4-8.2-6.9-10.2c-1.1-0.5-2.2-2.2-2.3-3.5c-0.1-4.1-0.1-8.2-0.1-12.2c0-1.7,0-3.4,0-5.2c0-9.1-3.8-12.9-12.5-12.9
	l-20.6,0c-35.7,0-72.6,0-108.9,0.1c0,0,0,0,0,0c-2.6,0-4-0.9-5.1-3.3c-18.4-39.6-57.7-62.4-100.2-58.3c-40.3,4-74.7,33.3-85.7,72.9
	c-1.3,4.6-2.1,9.4-3,14.1c-0.4,2.1-0.8,4.4-1.2,6.5v16.6c0.4,2.1,0.8,4.4,1.2,6.6c0.8,4.8,1.7,9.7,3,14.3
	c10.9,39.2,45,68.4,84.8,72.5c0.7,0.1,1.3,0.2,1.9,0.4c0.3,0.1,0.5,0.1,0.8,0.2h16.1c1.6-0.3,3.4-0.6,5.1-0.9
	c3.7-0.6,7.6-1.2,11.2-2.4c6.3-2,12.3-4.4,18.7-6.9c2.7-1.1,5.4-2.1,8.1-3.2l0.8-0.3L164,362c-0.7,5.8,2,10.2,7.7,12.8h134.2
	c2.9-1.9,3.8-3.9,3-6.5c-0.9-2.8-3.1-3.4-6.4-3.4c0,0,0,0,0,0c-33.2,0-66.5,0-99.7,0l-29.1,0v-0.5c0-1,0-2,0-2.9
	c0-2.5,0-4.8,0.1-7.1c0-0.8,0.6-1.8,1.7-2.9c0.6-0.6,1.2-1.1,1.8-1.6c0.9-0.7,1.7-1.4,2.3-2.2c4.1-5.9,9.7-6.3,15.7-6.3
	c39.3,0.2,79.3,0.2,117.9,0.1c11.9,0,23.8,0,35.8,0h5V365h-21.6c-0.4,0-0.7,0-1.1,0c-0.8,0-1.6,0-2.5,0c-3.2-0.2-5,0.8-5.9,3.1
	c-1,2.6,0.1,4.6,2.4,6.8H356c5.8-2.5,8.3-7,7.9-14.1c-0.3-5.1-0.3-10.1,0-14.9C364.1,341.1,363,337.2,360.5,334.7z M339.8,242.2
	v22.9H212.1l-4.2-22.9H339.8z M175.9,337.9c-17.1,17.5-39.7,27.1-63.7,27.1c0,0,0,0-0.1,0c-49.8,0-90.2-41.6-90.2-92.6
	c0-24.7,9.4-47.9,26.5-65.4c17.1-17.5,39.7-27.1,63.8-27.1c0,0,0,0,0.1,0c49.8,0,90.2,41.6,90.2,92.6
	C202.4,297.2,193,320.4,175.9,337.9z M339.7,331.6H194.4l0.4-0.7c0.8-1.6,1.6-3.3,2.4-4.9c2.5-5.3,5.2-10.7,7.9-16
	c0.5-1,2.4-1.5,3.6-1.6c5.4-0.1,10.9-0.1,16.2-0.1l5.3,0h109.5V331.6z M349.1,298.3H209.2l3.2-22.9h136.7V298.3z"/>
<path class="st0" d="M281.6,210.4c54.8-5.4,95-55.6,89.6-111.8c-5.1-53.5-48.4-92.4-102.9-92.5c-13.8,0.1-29.4,4.4-42.7,11.8
	c-5.5,3.1-10.7,7-15.8,10.7l-2.2,1.7c-1.3,0.9-2,2.1-2.2,3.5c-0.2,1.3,0.3,2.6,1.2,3.7c1.8,2.1,4.6,2.2,7.2,0.2
	c0.3-0.2,0.6-0.5,0.9-0.7c0.2-0.2,0.5-0.4,0.7-0.6c20.7-16.6,44-23.1,69.3-19.4c23.7,3.4,44.7,16.1,59.1,35.6
	c15.1,20.5,21.2,46,17.1,71.7c-3.7,23.6-16.5,44.6-35.9,59.1c-19.4,14.5-42.8,20.5-65.9,16.9c-30.8-4.8-56.8-24.9-69.4-53.8
	c-13-29.7-10-63.5,8.1-90.6c0.2-0.2,0.3-0.5,0.5-0.7c0.5-0.7,1.1-1.5,1-2c-0.2-1.9-0.6-4.7-1.7-5.5c-0.5-0.3-1.1-0.5-1.9-0.5
	c-1.2,0-2.7,0.3-3.8,0.6c-0.5,0.1-1.1,1-1.5,1.8c-0.1,0.2-0.3,0.5-0.4,0.7c-14.7,22-20.4,46.4-16.9,72.3
	C180.5,177,228.2,215.7,281.6,210.4z"/>
<path class="st0" d="M216.3,165.5c14.9,15.3,34.6,23.7,55.6,23.7c0,0,0,0,0,0c20.6,0,40.1-8.2,54.9-23
	c15.4-15.4,23.8-35.9,23.8-57.8c0-21.9-8.5-42.4-23.9-57.8c-14.8-14.8-34.3-22.9-54.8-22.9c0,0-0.1,0-0.1,0
	c-43.3,0.1-78.5,36.2-78.5,80.6C193.2,129.9,201.4,150.2,216.3,165.5z M223.1,58.4C236.2,45,253.5,37.6,272,37.6c0,0,0.1,0,0.1,0
	c18.4,0,35.8,7.4,48.8,20.9c13.1,13.5,20.2,31.3,20.2,50.2c0,19.2-7.5,37.2-21,50.7c-13,12.9-30.1,20.1-48.2,20.1
	c-0.1,0-0.2,0-0.2,0c-38-0.1-68.9-31.9-68.9-70.9C202.8,89.6,210,71.8,223.1,58.4z"/>
<path class="st0" d="M112.1,191.2c-1.8,0.2-3.5,0.4-5.3,0.7c-3.7,0.4-7.6,0.9-11.3,1.7c-40.9,9.5-66.7,47.3-61.3,90
	c1.3,9.9,4.5,19.6,9.5,28.6c0.9,1.5,2.7,3.9,5.4,2.7c1.5-0.7,3-2.5,3.5-4.2c0.4-1.3-0.8-3.6-1.3-4.6c-4.8-9.2-7.6-19.1-8.2-29.4
	c-1.3-22.4,7.5-43.6,24.2-58.2c16-14,37-19.7,57.7-15.7c18.4,3.6,34.3,14.4,44.8,30.5c10.5,16.2,14.1,36.2,9.8,54.9
	c-4.5,19.7-16.4,36-33.3,45.8c-16.2,9.5-35.1,11.8-53.1,6.5c-9.9-2.9-19-8-27.1-15.3c-1.3-1.2-2.8-1.8-4.3-1.8
	c-0.5,0-1.1,0.1-1.5,0.3c-1.4,0.5-2.3,1.7-2.5,3.2c-0.2,1.7,0.8,4.4,2.2,5.7c19.1,17,41.2,23.5,65.8,19.1
	c39.7-7,68.1-44.4,64.8-85.1C187.1,224.2,153.4,191.7,112.1,191.2z"/>
<path class="st0" d="M103.4,283.1c-0.2-3.1-2.2-5.3-4.8-5.3c-0.1,0-0.1,0-0.2,0c-2.7,0.1-4.4,2.2-4.5,5.4c-0.1,2.3-0.1,4.6,0,7.2
	c0.2,6.4,4.5,11.3,10.8,12.2c0.7,0.1,1.3,0.2,2,0.2l1.6,0.2v0.5c0,0.7,0,1.5,0,2.2c0,1.5,0,2.8,0,4.2c0.2,3.4,1.9,5.5,4.7,5.5
	c0,0,0,0,0.1,0c2.8,0,4.6-2,4.7-5.4c0.1-1.5,0-3,0-4.4c0-0.7,0-1.4,0-2V303l0.4-0.1c0.3,0,0.5-0.1,0.7-0.1c0.4-0.1,0.7-0.1,1-0.2
	c8-0.7,12.3-5.4,12.4-13.5c0-3.6,0-8.3,0-13c-0.1-8.1-4.8-12.9-12.7-13.1c-3.6-0.1-7.5-0.1-12.6,0c-1.3,0-2.3-0.3-2.9-0.9
	c-0.6-0.6-0.9-1.5-0.8-2.8c0.1-3.9,0.1-8,0-12.6c0-1.3,0.3-2.3,0.9-2.9c0.6-0.6,1.5-0.9,2.7-0.9c3.7,0,7.8,0,12.3,0
	c1.2,0,2.1,0.3,2.7,0.9c0.6,0.7,0.9,1.6,0.8,3c-0.1,2.1-0.1,4.3,0,6.4c0.2,2.8,2.3,4.7,4.9,4.6c2.6-0.1,4.4-2.1,4.6-4.9
	c0.1-2.4,0.1-4.7,0-7.5c-0.2-6.3-4-10.9-10.1-12.1c-0.8-0.2-1.7-0.3-2.6-0.4l-1.8-0.3v-0.4c0-0.7,0-1.4,0-2.1c0-1.5,0-3,0-4.4
	c-0.2-3.3-1.8-5.1-4.7-5.2c-2.8,0-4.6,1.8-4.8,5c-0.1,1.5-0.1,3,0,4.6c0,0.7,0,1.4,0,2.2v0.4l-1.4,0.2c-0.5,0.1-0.8,0.1-1.2,0.2
	c-8,1-11.9,5.5-11.9,13.6c0,5.2,0,9.2,0,13c0.1,8.1,4.8,13,12.6,13.1c3.7,0.1,7.6,0.1,12.6,0c1.4,0,2.3,0.3,2.9,0.9
	c0.6,0.6,0.9,1.5,0.8,2.8c-0.1,3.9-0.1,8,0,12.6c0,1.3-0.3,2.2-0.9,2.8c-0.6,0.6-1.5,0.9-2.8,0.9c-3.6,0-7.5-0.1-12.3,0
	c-1.2,0-2.1-0.3-2.6-0.9c-0.6-0.6-0.9-1.5-0.8-2.7C103.5,287.4,103.6,285.3,103.4,283.1z"/>
<path class="st0" d="M263.2,119c-0.2-3-2.2-5.1-4.8-5.1c0,0-0.1,0-0.1,0c-2.7,0-4.5,2.1-4.6,5.2c-0.1,2.9-0.1,5.5,0,7.9
	c0.2,5.3,3.6,9.7,8.7,11.1c1.1,0.3,2.2,0.5,3.5,0.7c0.6,0.1,1.2,0.2,1.9,0.3l0.4,0.1v0.4c0,0.7,0,1.4,0,2.1c0,1.5,0,3,0,4.4
	c0.2,3.4,2.1,5.4,4.9,5.3c2.7-0.1,4.4-2.1,4.6-5.3c0.1-1.5,0.1-3.1,0-4.6c0-0.7,0-1.4,0-2v-0.5l0.5,0c5-0.3,8.7-1.8,11.1-4.6
	c2.3-2.7,3.4-6.6,3-11.2c-0.2-2.4-0.1-4.8-0.1-7.2c0-1.2,0.1-2.5,0-3.7c-0.1-8.3-4.8-13.1-12.9-13.2c-4.1-0.1-8.2,0-12.7,0
	c0,0,0,0-0.1,0c-1.2,0-2-0.3-2.6-0.8c-0.6-0.6-0.8-1.5-0.8-2.7c0.1-4.1,0.1-8.3,0-13c0-1.2,0.3-2.1,0.9-2.7c0.6-0.6,1.4-0.9,2.6-0.9
	c1.3,0,2.5,0,3.8,0c2.8,0,5.7,0,8.5,0c1.3,0,2.2,0.3,2.8,0.9c0.7,0.7,0.9,1.7,0.9,3.2c-0.1,2.2-0.2,4.3,0.1,6.4
	c0.4,2.8,2,4.4,4.7,4.4c0,0,0,0,0,0c2.6,0,4.4-1.5,4.6-4c0.3-4,0.3-7.5-0.1-10.7c-0.6-4.8-4.3-8.6-9.4-9.6c-0.9-0.2-1.8-0.3-2.8-0.5
	c-0.5-0.1-1.1-0.2-1.6-0.2l-0.4-0.1v-0.4c0-0.7,0-1.5,0-2.2c0-1.6,0-3.1,0-4.7c-0.2-3.1-1.8-4.8-4.5-4.9c-2.8-0.1-4.7,1.7-4.9,4.9
	c-0.1,1.5-0.1,3-0.1,4.7c0,0.7,0,1.5,0,2.3v0.4l-0.4,0.1c-10.8,1.4-14.1,5.2-14.1,16l0,3.3c0,2.5,0,5,0,7.5
	c0.1,8.3,4.7,13.1,12.9,13.2c4.2,0.1,8.6,0,12.7,0c1.2,0,2.1,0.3,2.7,0.9c0.6,0.6,0.9,1.5,0.8,2.7c-0.1,3.8-0.1,7.9,0,13
	c0,1.2-0.3,2-0.8,2.6c-0.6,0.6-1.5,0.9-2.7,0.9c-4.6,0-8.4-0.1-12.3,0c-1.2,0-2.2-0.3-2.8-0.9c-0.6-0.6-0.9-1.6-0.8-2.9
	C263.4,122.7,263.4,120.7,263.2,119z"/>
</svg>
