<?xml version="1.0" encoding="utf-8"?>
<!-- Generator: Adobe Illustrator 23.0.1, SVG Export Plug-In . SVG Version: 6.00 Build 0)  -->
<svg version="1.1" id="Layer_1" xmlns="http://www.w3.org/2000/svg" xmlns:xlink="http://www.w3.org/1999/xlink" x="0px" y="0px"
	 viewBox="0 0 381 375.4" style="enable-background:new 0 0 381 375.4;" xml:space="preserve">
<style type="text/css">
	.st0{fill:#9A9A9A;}
</style>
<g>
	<path class="st0" d="M373,106.4c-21.6,4.4-39.4,8.2-56.1,11.7c-2.8,0.6-4.8,2.2-5.5,4.5c-0.7,2.3,0.1,4.8,2.1,7
		c1.5,1.5,3.1,3,4.5,4.4c0.6,0.6,1.2,1.1,1.8,1.7l1.1,1L308,150l-1.1-1.2c-0.4-0.4-0.7-0.9-1.1-1.3c-0.8-0.9-1.6-1.9-2.4-2.7
		c-5.9-5.7-13.4-5.7-19.3,0c-2.3,2.2-4.5,4.4-6.6,6.6c-2.2,2.3-4.6,2.8-7.8,1.4c-5.1-2.3-9.7-4.2-14.1-5.8c-3.3-1.2-4.7-3.4-4.6-6.8
		c0.1-2.7,0.1-5.5,0-8.2l0-0.4c-0.2-8.8-5.5-14.1-14.4-14.2c-3.5,0-7,0-10.5,0l-6.2,0l-0.1-1.3c-0.1-1.1-0.2-2.2-0.3-3.2
		c-0.2-2.1-0.4-4.1-0.7-6.1C210.4,49.2,158.4,8,100.3,12.9C55.2,16.7,16.6,48.5,4.4,92c-1.4,4.8-2.3,9.9-3.1,14.8
		c-0.4,2.3-0.8,4.6-1.3,6.9v17.6c0.1,0.2,0.1,0.4,0.2,0.5c0.2,0.6,0.4,1.3,0.5,2C5.2,170.7,23.8,199,56,218
		c10.4,6.1,22.2,10.4,36.3,12.9l1.2,0.2l0,5.4c0,2.5,0,5.1,0,7.6c0,5.7,0,11.6,0.1,17.5c0.2,7.7,5.5,13,13.3,13.2
		c3.1,0,6.4,0.1,9.7,0c3-0.1,5.1,1.3,6.2,4.3c0.7,1.8,1.5,3.6,2.2,5.3c1.3,3.1,2.7,6.4,3.8,9.7c0.7,1.9,0.2,4.9-1.1,6.6
		c-1.3,1.8-3,3.4-4.6,4.9c-0.8,0.7-1.6,1.5-2.3,2.2c-5.7,5.9-5.7,13.5,0,19.3c6.7,6.9,13.8,13.9,20.9,20.9c5.8,5.7,13.4,5.7,19.3,0
		c0.8-0.8,1.6-1.6,2.3-2.4c1.5-1.6,3-3.2,4.8-4.5c1.2-0.9,3-1.4,4.7-1.4c0.7,0,1.4,0.1,1.9,0.3c3.2,1.1,6.3,2.4,9.4,3.7
		c1.8,0.8,3.7,1.6,5.6,2.3c2.9,1.1,4.3,3.2,4.3,6.2c-0.1,3.6-0.1,6.7,0,9.7c0.2,7.9,5.6,13.3,13.5,13.4c9.3,0.1,19,0.1,29.6,0
		c8.1-0.1,13.5-5.4,13.8-13.6c0.1-2.8,0.1-5.8,0-9.7c-0.1-4,2.5-5.4,4.4-6.1c4.5-1.7,9.2-3.7,14.4-6c2.9-1.3,5.3-0.9,7.4,1.3
		c2.4,2.5,4.6,4.7,6.8,6.8c5.7,5.4,13.3,5.6,18.8,0.3c7.3-7,14.6-14.3,21.7-21.7c5.2-5.4,5.2-12.9,0-18.5c-2-2.1-4.2-4.4-7.1-7.1
		c-2.2-2.1-2.6-4.5-1.3-7.4c2.1-4.7,4.1-9.6,6-14.4c1.2-3.1,3.3-4.6,6.5-4.5c3,0.1,6,0.1,9,0l0.3,0c7.9-0.1,13.5-5.6,13.6-13.3
		c0.2-10.4,0.2-20.6,0-30.3c-0.1-7.6-5.7-13.1-13.4-13.3c-3.9-0.1-6.9-0.1-9.6,0c-3.2,0.1-5.3-1.4-6.5-4.6c-0.6-1.6-1.2-3.1-1.8-4.7
		c-0.8-2-1.6-4.1-2.3-6.2c-0.4-1.3-0.4-3.7,0.8-5c8-8.1,15.9-16.2,24.4-24.7l7.3-7.3l1.1,1.2c0.7,0.8,1.4,1.7,2.1,2.5
		c1.4,1.8,2.8,3.4,4.3,4.8c1.9,1.8,4.4,2.5,6.6,1.8c2.2-0.7,3.7-2.5,4.3-5c3.8-17.7,7.7-36.3,11.9-56.8c0.5-2.3-0.1-4.5-1.6-5.9
		C377.7,106.5,375.4,105.9,373,106.4z M93.5,222.6c-0.5,0-1,0-1.6-0.1c-20.1-3.4-39.4-13.6-54.3-28.7
		c-14.9-15.1-24.8-34.5-27.9-54.6C5.4,111.3,11.9,84,28.1,62c16.1-21.9,40.3-36.3,68.1-40.5C149,13.6,201.1,51.5,210,104.1
		c0.4,2.6,0.8,5.2,1.1,7.5c0.1,1,0.2,1.9,0.4,2.7l0.2,1.2l-16.8,6.4l-0.3-1.8c-0.4-2-0.7-4-1-6.2c-0.7-4.8-1.5-9.7-2.8-14.4
		c-7.2-25.7-25.7-46-50.8-55.5c-25.2-9.6-52.5-6.7-75,7.8L64.2,52c-1,0.6-1.9,1.2-2.8,1.9c-2,1.6-2.4,3.7-1.2,5.6
		c1.3,1.9,3.5,2.3,6,1c1.7-0.9,3.4-1.9,5.1-2.8c4.1-2.3,8.2-4.7,12.7-6.3c23.8-8.9,50.4-5.1,71,10.1c20.6,15.2,31.9,39.5,30.4,64.8
		c-0.4,7.2-2.3,14.4-4,20.8c-0.7,2.9-2.9,5-5.7,5.8c-3,0.8-6.3-0.1-8.7-2.4c-0.8-0.7-1.5-1.5-2.3-2.3c-1.2-1.3-2.5-2.6-3.8-3.8
		c-5.9-5.5-13.4-5.5-19.1,0.1l-2.5,2.4c-4.4,4.2-8.9,8.6-13,13.2c-3.2,3.6-7.2,5.4-12.5,5.7c-16.4,1-29.6-5.1-39.3-18.1
		c-0.3-0.4-0.5-0.7-0.8-1.1c-0.2-0.4-0.5-0.7-0.7-1c-1.7-2.2-3.9-2.7-5.9-1.4c-1.1,0.7-1.8,1.7-1.9,2.8c-0.2,1,0.1,2,0.8,2.9
		l0.4,0.5c3.7,4.6,7.5,9.3,12,13c8.4,7,18.8,10.6,31,10.8c1.2,0,2.3,0,3.6,0l3.6,0l0.1,1.4c0.3,5.5,3.6,8.8,7.5,12.6
		c1.6,1.6,3.3,3.2,4.8,5.1l1.6,1.9l-2.4,0.5c-1,0.2-2,0.4-2.9,0.6c-2,0.4-3.8,0.8-5.8,1c-32.6,3-57.4-9-73.8-35.7
		c-16.2-26.3-15.7-53.6,1.3-81.2c0.2-0.4,0.5-0.7,0.8-1.1c0.4-0.5,0.7-1,0.9-1.5c1-2.4,0.5-4.1-1.5-5.4c-1.9-1.2-3.6-0.9-5.2,0.8
		c-0.4,0.4-0.8,0.9-1.1,1.5l-0.3,0.4c-16.3,23.5-19,53.6-7.4,80.4c11.6,26.8,35.4,45.3,63.6,49.5c4.6,0.7,9,1,13.2,1.1
		c2.9,0,5.9-0.2,9-0.5c1.5-0.1,2.9-0.2,4.5-0.3l2.3-0.1l-0.8,2.2c-0.3,0.7-0.5,1.5-0.8,2.2c-0.6,1.8-1.2,3.8-2.2,5.5
		c-1,1.7-3.4,2.5-4.9,2.6c-1.5,0.1-3,0.1-4.4,0c-1.8-0.1-3.5-0.1-5.2,0.2c-3.5,0.6-6.5,1.6-8.9,2.9
		C96.9,221.9,95.4,222.6,93.5,222.6z M328.3,226.1c1.6,0,3.3,0,4.9,0c1.5,0,3,0,4.4,0c3.5,0,5.7,2.2,5.7,5.7c0,9.6,0,19.3,0,28.9
		c0,1.9-0.5,3.4-1.6,4.4c-1,1-2.5,1.5-4.3,1.5c-3.1,0-6.2,0-9.3,0c-6.7,0.1-11.1,3.1-13.5,9.4c-2.1,5.3-4.3,10.5-6.2,14.9
		c-2.5,5.8-1.7,10.8,2.5,15.3c2.2,2.3,4.5,4.6,6.8,6.8c1.6,1.5,2.3,2.9,2.3,4.4c0,1.5-0.7,3-2.2,4.4c-5.9,5.8-12.2,12.1-19.9,19.9
		c-1.5,1.5-2.9,2.2-4.4,2.2c-1.5,0-3-0.8-4.4-2.3c-2.1-2.2-4.3-4.4-6.6-6.6c-4.7-4.4-9.6-5.3-15.6-2.7c-3.9,1.7-7.9,3.3-11.7,4.9
		l-3.5,1.4c-5.9,2.4-8.8,6.6-8.9,12.7c0,2.5,0,5,0,7.4l0,2.3c0,2-0.5,3.5-1.6,4.6c-1,1-2.5,1.5-4.4,1.5c0,0,0,0-0.1,0
		c-9.2-0.1-18.8-0.1-28.5,0c0,0-0.1,0-0.1,0c-2,0-3.4-0.5-4.4-1.5c-1-1-1.5-2.6-1.5-4.6c0.1-2.9,0.1-6.3,0-9.6
		c-0.3-6.3-3.3-10.5-9.3-12.9c-5.5-2.2-10.4-4.2-14.9-6.1c-5.9-2.5-11-1.7-15.6,2.7c-2.1,2-4.2,4.1-6.6,6.6c-1.5,1.5-3,2.3-4.5,2.3
		c0,0,0,0,0,0c-1.5,0-2.9-0.7-4.4-2.1c-6.4-6.4-13-13.1-19.9-19.9c-1.5-1.5-2.2-2.9-2.2-4.4c0-1.5,0.8-3,2.3-4.4
		c2.5-2.4,4.8-4.7,7.1-7.1c3.9-4.3,4.7-9,2.5-14.4c-2.2-5.2-4.5-10.9-6.9-16.6c-2.2-5.3-6.2-8-12.1-8.3c-3.1-0.2-6.3-0.1-10,0
		c-2.1,0.1-3.6-0.4-4.6-1.5c-1-1-1.6-2.5-1.5-4.5c0-10.9,0-20,0-28.5c0-2,0.5-3.5,1.5-4.6c1-1,2.5-1.5,4.5-1.5c3.4,0,6.8,0.1,10.1,0
		c5.8-0.2,9.8-2.9,12.1-8.2c2.4-5.5,4.7-11.1,7-16.9c2.1-5.2,1.2-9.9-2.6-14.1c-2.1-2.4-4.5-4.6-6.8-6.9l-0.6-0.5
		c-1.4-1.4-2.1-2.8-2.1-4.2c0-1.5,0.7-2.9,2.1-4.4c5.9-5.9,12.3-12.3,20.1-20.1c1.3-1.3,2.7-2,4.1-2c0,0,0,0,0,0
		c1.4,0,2.8,0.7,4.1,2l0.5,0.5c2.2,2.2,4.4,4.5,6.6,6.6c4.5,4.2,9.5,5,15.4,2.6l0.5-0.2c4.8-2,9.8-4.1,14.8-6.1
		c5.8-2.3,8.8-6.5,9.1-12.7c0.1-2.9,0.1-6,0.1-8.9l0-1.1c0-1.9,0.5-3.4,1.5-4.4c1-1,2.4-1.5,4.3-1.5c0,0,0,0,0,0l0.2,0
		c9.3,0,18.9,0,28.3,0c2,0,3.5,0.5,4.6,1.5c1,1,1.6,2.5,1.6,4.5c0,1.2,0,2.4,0,3.6c0,2.1,0,4.3,0,6.5c0.1,6,3,10,8.8,12.4
		c3.4,1.4,6.7,2.8,10.1,4.2l5.4,2.2c5.8,2.4,10.9,1.5,15.3-2.7c1.3-1.2,2.5-2.5,3.7-3.7c0.9-0.9,1.8-1.8,2.7-2.7
		c3.8-3.7,5.7-3.7,9.5-0.1c0.7,0.6,1.4,1.2,2.3,1.9c0.5,0.4,0.9,0.7,1.5,1.1l1.3,1.1l-1.2,1.2c-1.4,1.4-2.7,2.7-4.1,4
		c-2.8,2.8-5.5,5.4-8.1,8c-2.6,2.6-5.1,5.2-7.8,8c-1.2,1.2-2.3,2.4-3.5,3.6l-0.9,0.9l-2.3-1.6c-0.8-0.5-1.4-1-2.1-1.5
		c-24.3-18.1-55.6-21.9-83.8-10.2c-28.1,11.7-47.4,36.5-51.6,66.4c-3.3,23.4,3,46.5,17.7,65c14.7,18.5,35.7,29.8,59.2,31.9
		c20,1.8,38.6-3.1,55.5-14.5c1.6-1.1,2.8-2.7,3-3.8c0.2-1.1-0.9-3.3-1.6-3.7c-1.2-0.6-3.6-0.5-5.2,0.3c-2.6,1.2-5.2,2.6-7.7,4
		c-3.7,2-7.5,4-11.5,5.5c-21.6,7.8-45.5,5.1-65.6-7.4c-20.2-12.6-33.2-33.1-35.7-56.2c-2.2-20.5,3.3-40.6,15.6-56.4
		c12.3-15.9,30.3-26.1,50.8-29c20-2.8,38.7,2,55.6,14.3c0.5,0.4,1,0.8,1.5,1.3c0.2,0.2,0.4,0.3,0.5,0.5l1.1,1l-7.7,8l-1.1-0.8
		c-8.3-6.1-17.1-10.1-26.9-12.2c-20.1-4.3-40.6,1.2-56.4,15.1c-15.8,13.9-23.8,33.7-22,54.2c2.9,33.3,29.2,58.7,62.4,60.3
		c32.7,1.6,61.5-21.6,67.2-53.9c1.1-6,1.1-13,0.1-21.9c-0.4-3.8-0.2-7.8,4.1-11c0.4-0.3,0.8-0.7,1.4-1.3c0.3-0.3,0.7-0.7,1.1-1.1
		l1.8-1.7l0.7,2.4c6.5,23.5,3.7,44.4-8.5,64c-0.4,0.6-0.8,1.3-1.2,1.9c-0.6,0.8-1.1,1.6-1.6,2.5c-1.2,2.1-0.7,4.4,1.2,5.6
		c2,1.2,3.8,0.9,5.5-1c0.6-0.7,1.2-1.5,1.8-2.4l0.1-0.1c14.5-22.3,18.1-46.6,10.7-72.2l-0.1-0.3c-2.2-7.6-1.9-8.2,5.1-13.7l1.6-1.2
		l3.7,9.9C317,223.1,321.1,226.1,328.3,226.1z M257,200.9l-23.3,23.4l-1-1.5c-0.3-0.4-0.5-0.8-0.8-1.2c-0.6-0.9-1.2-2-2-2.8
		c-9.5-9.4-21.2-9.5-30.7-0.1c-8.4,8.4-16.9,16.9-25.2,25.2l-2.9,2.9c-0.5,0.5-0.9,1-1.3,1.6c-0.3,0.3-0.5,0.7-0.8,1.1l-1.7,2.1
		l-0.9-2.5c-4.7-12.5,6.5-37.1,22.1-48.7c19.9-14.8,48.2-15,67.2-0.5L257,200.9z M186.2,290.2l29.7-29.1l1,1.3
		c0.3,0.4,0.6,0.8,1,1.2c0.8,1.1,1.7,2.2,2.8,3.2c8.6,8.1,20.4,8,28.9-0.2c5.4-5.3,10.9-10.8,16.2-16.1c2.6-2.6,5.1-5.2,7.7-7.7
		c0.7-0.7,1.3-1.3,2-1.9l2.9-2.8l0.6,2.5c3.1,12.7-2.4,38.5-24.2,53.2c-9.6,6.5-21.2,9.7-32.6,9.7c-12.9,0-25.5-4.1-34.6-12.3
		L186.2,290.2z M362.1,163l-2.9,2.3l-0.9-1.2c-0.5-0.6-0.9-1.2-1.3-1.8c-0.9-1.3-1.8-2.5-2.8-3.6c-1.7-1.8-3-2.6-4.1-2.6
		c0,0,0,0,0,0c-1.1,0-2.4,0.8-4.2,2.6c-10.6,10.6-21.3,21.2-31.9,31.9l-28.1,28.1c-13.5,13.5-27,27-40.5,40.5
		c-7.4,7.4-13.4,7.4-20.7,0.1c-0.7-0.7-1.4-1.4-2.1-2.1c-1.4-1.4-2.8-2.9-4.3-4.2c-3-2.9-4.7-2.9-7.6,0c-6.6,6.5-13.1,13-19.6,19.6
		l-8.5,8.5c-0.4,0.4-0.7,0.7-1.2,1.1l-1.8,1.8l-1-1.1c-4.5-5-7.8-11-10.2-18.3c-0.5-1.6,0.6-3.7,1.6-4.6
		c11.4-11.5,23.6-23.8,35.8-35.8c5.3-5.3,12.1-5.2,17.7,0.1c1.3,1.3,2.7,2.6,4,3.9c1.3,1.3,2.7,2.7,4,4c2.6,2.5,4.6,2.5,7.1,0
		c29.8-29.7,60.4-60.3,90.9-90.9c2.6-2.6,2.6-4.5-0.1-7.3c-1.2-1.2-2.5-2.3-3.9-3.5c-0.6-0.5-1.3-1-1.9-1.6l-0.9-0.8l1.5-2.8
		l48.2-10.1L362.1,163z"/>
	<path class="st0" d="M232.7,44.7c2.5,0.7,4.3-0.4,5.3-3.3c0.1-0.4,0.3-0.8,0.4-1.3c0.1-0.3,0.2-0.6,0.3-0.8
		C245.9,16.9,269.3,4,292,9.8c23,5.9,37.6,28.5,33.2,51.4c-3.8,19.9-20.2,34.9-40,36.5c-20.6,1.7-39.3-10.4-46.4-30.2
		c-0.8-2.3-1.9-3.8-3.1-4.3c-0.4-0.2-0.8-0.3-1.3-0.3c-0.5,0-1.1,0.1-1.7,0.3c-3,1.1-2.6,4.4-1.8,7c8.2,24,33.2,39.1,58.3,35.2
		c26.7-4.2,46.8-28.9,44.8-55.1C331.9,21.8,309.3,0.2,281.5,0c-1,0.1-2,0.2-3,0.3c-2.1,0.2-4.4,0.4-6.5,0.7
		c-19.5,3.1-37.1,19.1-41.9,38C229.8,40.4,229.3,43.7,232.7,44.7z"/>
	<path class="st0" d="M285.3,43.2c0-1.9,0-3.8,0-5.8c0-4.4,0-8.9,0-13.3c0-4.5-2.1-5.1-4-5.2c0,0-0.1,0-0.1,0c-1.2,0-2.1,0.3-2.8,1
		c-0.9,0.8-1.3,2.3-1.4,4.3c-0.1,9.4-0.1,18.7,0,27.7c0,4,1.4,5.4,5.4,5.4c7.4,0,15,0,21.3,0c3.6,0,5.5-1.4,5.5-4
		c0-1.2-0.3-2.1-0.9-2.8c-0.9-0.9-2.5-1.4-4.7-1.4c-3.8,0-7.6,0-11.5,0l-6.9,0V43.2z"/>
	<path class="st0" d="M63.5,126.4c5.8,0,11.6,0,17.5,0c2.6,0,5.2,0,7.8,0h0.9l0.7,1.4c0.2,0.3,0.3,0.6,0.4,0.8
		c3.6,8.9,9.9,13.6,18.8,13.7c8.9,0.2,15.4-4.2,19.3-13c0.7-1.6,3-2.7,4.6-2.8c4.2-0.1,8.4-0.1,12.5-0.1c3.8,0,7.7,0,11.5-0.1
		c2.4,0,4.6-1,6.1-2.7c1.5-1.7,2.1-3.9,1.9-6.4c-1.7-16.2-9.1-29.4-21.8-39.3c-7.8-6.1-17.2-9.8-27.9-11.2l-1.2-0.1l-0.1-1.1
		c-0.9-6.6-2.2-7.2-4.2-7.4c-2-0.2-3.3,0.3-5,7.6l-0.2,1l-1.6,0.2c-0.4,0.1-0.8,0.1-1.2,0.2c-25.7,4-45.7,24.8-47.6,49.4
		c-0.2,3.2,0.4,5.7,1.9,7.3C58,125.5,60.4,126.4,63.5,126.4z M114,82.4c0-1.7,0-3.4,0-5.1v-1.4l1.4-0.1c8.1-0.5,17.5,3.6,25.7,11.1
		c9.3,8.6,15.3,19.9,15.5,29.7l0,1.5h-1.5c-1.8,0-3.6,0-5.3,0c-1.8,0-3.5,0-5.2,0c-4.1,0-8.1,0-12.2-0.1c-1.7,0-3.3-1.7-3.8-3
		c-2.3-5.4-6.1-9.2-11.6-11.5c-1.4-0.6-2.9-2.3-2.9-3.8C114,93.9,114,88.1,114,82.4z M110.3,110.6c6.5,0.2,11.5,5.5,11.4,12
		c-0.1,6.5-5.2,11.5-11.7,11.5c0,0-0.1,0-0.1,0c-6.5-0.1-11.6-5.3-11.6-11.8c0-3.2,1.3-6.2,3.6-8.4
		C104.1,111.7,107.1,110.5,110.3,110.6z M63.3,116.4c0.5-17.7,18.1-39,40.7-40.9l1.6-0.1v26.8l-0.8,0.4c-9.4,4.8-10.4,5.7-14.5,14.5
		l-0.4,0.9H63.3L63.3,116.4z"/>
</g>
</svg>
