<?xml version="1.0" encoding="utf-8"?>
<!-- Generator: Adobe Illustrator 23.0.1, SVG Export Plug-In . SVG Version: 6.00 Build 0)  -->
<svg version="1.1" id="Layer_1" xmlns="http://www.w3.org/2000/svg" xmlns:xlink="http://www.w3.org/1999/xlink" x="0px" y="0px"
	 viewBox="0 0 356.1 356" style="enable-background:new 0 0 356.1 356;" xml:space="preserve">
<style type="text/css">
	.st0{fill:#9A9A9A;}
</style>
<g>
	<path class="st0" d="M337.3,60L327,60l-8.4,0l-8.6,0h-2v-2c0-0.7,0-1.3,0.1-1.8c0.1-1,0.1-1.8-0.1-2.4c-0.1-0.3-0.2-0.6-0.2-0.9
		c-0.5-1.7-1-3.6-1.9-4.5C291.1,33.2,275.5,17.6,259.6,2c-1.1-1-3-1.9-4.5-1.9C218.4,0,180.5,0,139.4,0c-24,0-48.6,0-75.2,0
		c-9.1,0-16,6.9-16.1,16.1c-0.1,8.7-0.1,17.6,0,26.2c0,3.8,0,7.5,0,11.3l0,2.7l0,1.7v2h-2l-9,0l-8.7,0c-3.6,0-7.2,0-10.8,0
		c-11,0-17.6,6.6-17.6,17.6c0,14.2,0,28.4,0,42.7l0,14.3c0,1.3,0,2.6,0,3.9c0,3.1,0,6.4,0.1,9.6c0.1,2.5,1.5,4,3.9,4
		c0.1,0,0.2,0,0.3,0c1.7-0.1,3.7-0.7,3.7-5c0-10.2,0-20.5,0-30.5c0-4,0-7.9,0-11.9c0-2.7,0-5.3,0-8c0-6.5,0-13.2,0-19.8
		c0-5.4,2.8-8.7,7.3-8.8C19.3,68,23.5,68,28.7,68c2.8,0,5.7,0,8.6,0c2.9,0,5.8,0,8.7,0h2v2v12v2h-2l-5,0L36,84c-2,0-4.1,0-6.1,0
		c-4.8,0-5.9,1.1-5.9,5.9c0,54.7,0,109.5,0,164.2c0,4.8,1.1,5.9,5.9,5.9c49.5,0,99.1,0,148.6,0c49.2,0,98.4,0,147.6,0
		c4.8,0,5.9-1.1,5.9-5.9c0-54.7,0-109.5,0-164.2c0-4.8-1.1-5.9-5.9-5.9c-2.1,0-4.1,0-6.2,0l-4.9,0l-4.9,0h-2v-2V70v-2h2l8.3,0l8.2,0
		c3.7,0,7.3,0,10.9,0c7.7,0,10.4,2.6,10.4,10.5c0,70.4,0,140.7,0,211.1c0,7.8-2.6,10.4-10.4,10.4l-161.6,0l-157.5,0
		c-7.8,0-10.5-2.6-10.5-10.4c0-15.9,0-31.8,0-47.7l0-37c0-0.3,0-0.6,0-1c0-0.9,0-1.8-0.1-2.5c-0.3-2.2-1.7-3.4-3.9-3.4
		c-0.1,0-0.2,0-0.2,0c-1.9,0.1-3.8,0.8-3.8,5.3c0,27,0,54,0,80.9l0,5.3c0,12.3,6.3,18.5,18.6,18.5c17.3,0,34.5,0,51.8,0l33.2,0
		l33.2,0h4.6h2.5l-0.6,2.5c-2.8,11.8-8.3,22.3-18,34.1c-1.3,1.6-3.3,3.5-6.7,3.5c-0.2,0-0.4,0-0.7,0c-1.3-0.1-2.7-0.1-4.4-0.1
		c-1.2,0-2.5,0-3.7,0c-0.9,0-1.7,0-2.6,0c-2.3,0-5.2,0.7-5.2,3.9c-0.1,3.6,3.5,4,5.1,4.1c0.4,0,0.7,0,1.1,0c0.3,0,0.6,0,0.9,0
		c0.3,0,0.6,0,0.9,0l71.1,0h47.4l5.7,0l5.7,0c2.5,0,4.9,0,7.4,0c6.6,0,6.7-2.6,6.7-4c0-1.1-0.3-2-0.8-2.5c-1-1-2.9-1.5-5.7-1.5
		l-0.1,0c-1,0-1.9,0-2.9,0c-1,0-1.9,0-2.9,0c-1.8,0-3.3,0-4.7-0.1c-1.5-0.1-3.6-0.7-4.9-2.1c-8.2-9.4-13.9-18.6-17.4-28.2
		c-0.6-1.5-1-3.1-1.4-4.7c-0.2-0.8-0.4-1.5-0.6-2.3l-0.7-2.5h2.6h5.1l33.2,0l33.2,0c17.1,0,34.3,0,51.4,0c12.3,0,18.6-6.2,18.6-18.6
		c0-70.2,0-140.5,0-210.7C356.1,66.1,349.9,60,337.3,60z M47.8,94.3v155.5v2h-2H34.3h-2v-2V94.3v-2h2h11.6h2V94.3z M260.1,25.7
		c0-2,0-4.1,0-6.1v-4.8l3.4,3.4l3.1,3.1L290,44.6l3.4,3.4h-4.8l-2.8,0l-2.9,0l-3.6,0l-0.2,0c-1,0-2.1,0-3.1,0c-1,0-2.1,0-3.1,0
		c-1.9,0-3.4,0-4.8,0c-4.6-0.1-7.7-2.8-7.9-7C260,35.9,260.1,30.7,260.1,25.7z M299.8,58v191.8v2h-2H58.1h-2v-2v-4.2l0-52.7l0-174.2
		C56.1,10.4,58.5,8,66.9,8l95,0l41.9,0l41.9,0h4.3h2v2v1.3v2.4c0,2.6,0,5.2,0,7.9c0,5.8,0,11.8,0,17.6c0.1,9.8,6.9,16.7,16.6,16.7
		c3.3,0,6.9,0,11.2,0c2.9,0,5.9,0,8.8,0c3,0,6,0,9.1,0h2V58z M308.3,249.8V94.3v-2h2h11.6h2v2v155.5v2h-2h-11.6h-2V249.8z
		 M220.5,344.6l2.4,3.2h-4h-81.6h-4l2.3-3.2c9.2-12.5,14.2-23.2,16-34.7l0.3-1.7h1.7h48.8h1.7l0.3,1.7
		C206.5,321.5,211.6,332.5,220.5,344.6z"/>
	<path class="st0" d="M178.1,284c3.8,0,7.7,0,11.6-0.1c2.7,0,4.4-1.6,4.4-4c0-3.5-3.3-4-4.7-4c-1.3,0-2.6,0-4.3,0
		c-1.2,0-2.4,0-3.5,0c-1.1,0-2.2,0-3.4,0H178c-1.2,0-2.3,0-3.5,0c-1.2,0-2.3,0-3.5,0c-1.7,0-3.2,0-4.5,0c-2.7,0.1-4.4,1.6-4.4,3.9
		c0,2.4,1.7,4,4.3,4C170.3,284,174.2,284,178.1,284z"/>
	<path class="st0" d="M4.1,167l0,1c-2.3,0-3.8,1.6-4,4c-0.1,2.1-0.2,4.5,0.1,6.7c0.3,2.3,1.5,3.3,3.9,3.3c2.3,0,3.6-1,3.9-3.4
		c0.1-0.6,0.1-1.4,0-2.1c0-0.4,0-0.8,0-1.3v-2h0.1c0-0.4,0-0.8,0-1.2c-0.2-2.5-1.7-4-4-4.1L4.1,167C4.1,167,4.1,167,4.1,167
		C4.1,167,4.1,167,4.1,167z"/>
	<path class="st0" d="M199.5,185.9c-5-13.3-10-26.6-14.9-39.9c-6.8-18.1-13.6-36.2-20.3-54.4c-1.2-3.1-2.6-3.6-4.1-3.6l-0.1,0
		c-1.7,0-3,0.6-4.2,3.7c-6.6,17.7-13.3,35.5-19.9,53.2c-5,13.4-10.1,26.9-15.1,40.3c-1.6,4.4,0,5.7,1.9,6.4c0.6,0.2,1.1,0.3,1.6,0.3
		c1.6,0,3-1.3,4-4l0.7-1.8c2.5-6.6,5.1-13.4,7.5-20.2c1-2.8,2.8-4.1,5.8-4.1l0.1,0c4.5,0,9.2,0.1,15.3,0.1c2.8,0,5.6,0,8.4,0
		c2.8,0,5.6,0,8.4,0c6.8,0,7.5,0.5,9.9,6.7c2.5,6.5,5.2,13.9,8,21c0.9,2.2,2.2,2.5,3.2,2.5c0.4,0,0.9-0.1,1.4-0.2
		c2-0.5,2.9-1.6,3.1-3.9c0-0.1-0.1-0.2-0.1-0.4C199.9,187.2,199.7,186.5,199.5,185.9z M176.1,153.8h-32h-2.9l1-2.7l7.4-19.9
		l8.5-22.8l1.9-5l1.9,5l3.4,9l12.6,33.6l1,2.7H176.1z"/>
	<path class="st0" d="M214,70c-3.2,0-3.9,2.7-4,5c0,2.4,0,4.9,0,7.4c0,1.2,0,2.3,0,3.5v2h-2c-1.3,0-2.5,0-3.7,0c-1.1,0-2.3,0-3.4,0
		c-1.6,0-2.9,0-4.2,0c-1.8,0-3.1,0.5-3.9,1.3c-0.6,0.7-0.9,1.6-0.9,2.9c0,1.7,0.6,3.8,4.8,3.8c1.4,0,2.8,0,4.3,0c1.1,0,2.3,0,3.4,0
		c1.2,0,2.4,0,3.6,0h2v2l0,3.7c0,2.5,0,4.9,0,7.3c0,5.4,2.7,5.4,3.9,5.4l0.1,0c1.2,0,3.9,0,4-5.3c0-2.5,0-5.1,0-7.7
		c0-1.2,0-2.3,0-3.5v-2h2c1.4,0,2.7,0,4,0c1.2,0,2.3,0,3.5,0c1.7,0,3.1,0,4.4-0.1c1.9-0.1,4.3-0.8,4.2-4c0-2.5-1.5-3.9-4.3-3.9
		c-1.3,0-2.6,0-4.3,0c-1.1,0-2.3,0-3.4,0c-1.1,0-2.3,0-3.4,0h-1.1l-0.6-1c-0.1-0.2-0.2-0.3-0.3-0.4c-0.2-0.3-0.5-0.7-0.5-1.3
		c0-1.4,0-2.7,0-4.1c0-2,0-4-0.1-6C218,72.8,217.3,70,214,70l0-1c0,0,0,0,0,0L214,70z"/>
</g>
</svg>
