<?xml version="1.0" encoding="utf-8"?>
<!-- Generator: Adobe Illustrator 23.0.1, SVG Export Plug-In . SVG Version: 6.00 Build 0)  -->
<svg version="1.1" id="Layer_1" xmlns="http://www.w3.org/2000/svg" xmlns:xlink="http://www.w3.org/1999/xlink" x="0px" y="0px"
	 viewBox="0 0 356 356.2" style="enable-background:new 0 0 356 356.2;" xml:space="preserve">
<style type="text/css">
	.st0{fill:#9A9A9A;}
</style>
<g>
	<path class="st0" d="M126,7.9c-18.3,5.5-35.5,14-51.1,25.1C59.6,43.8,46.2,57,35,72.1s-19.9,31.8-25.8,49.6
		C3.1,139.9,0,158.9,0,178.1c0,23.4,3.7,43.8,11.3,62.3C25.5,274.8,45.6,302,71,321.1c25.6,19.3,57.3,30.8,94.1,34.4
		c5.5,0.5,11.1,0.8,16.5,0.8c34.1,0,66.6-10.4,96.4-31c30.1-20.8,52.9-49.1,65.7-81.9c12.8-32.7,15.5-68.9,7.6-104.6
		c-1.5-6.9-3.9-13.9-6.2-20.6c-0.9-2.5-1.8-5.2-2.6-7.7c-0.7-2-1.9-3-3.7-3c-0.3,0-0.7,0-1.1,0.1c-2,0.4-3,1.6-3.1,3.6
		c0,1,0.5,2.3,0.9,3.5l0.1,0.4c10.9,27.9,14.5,56.4,10.7,84.8c-6.1,45.8-26.8,83-61.6,110.4c-32.4,25.5-67.6,38.5-104.5,38.5
		c-21,0-42.8-4.2-64.9-12.5c-61-23.2-105.1-85.1-107.2-150.9c-1-32.3,5.6-61.6,19.8-86.9C59.5,42,108.4,11.6,173.1,8.3
		c2.5-0.1,4.9-0.2,7.4-0.2c20.1,0,40.8,4.2,61.5,12.6c1.1,0.5,2.2,0.7,3.1,0.7c1.7,0,2.8-0.8,3.5-2.3c1-2.5-0.2-4.4-3.6-5.7
		C222.9,4.5,200.4,0,178.1,0l0,0C160.8,0,143.3,2.7,126,7.9z"/>
	<path class="st0" d="M44.1,201.6c2.9,16.5,8.6,32,17.1,46.2c8.1,13.5,18.4,25.5,30.7,35.5c24.5,19.9,55.2,30.9,86.4,30.9
		c20.3,0,40.1-4.5,58.7-13.5c27.2-13.1,48.8-34.3,62.3-61.2c13.6-26.9,17.8-56.8,12.3-86.6c-1.2-6.2-3.2-12.5-5.1-18.5
		c-0.5-1.5-1-3.1-1.5-4.6c-0.7-2.4-2.2-3.7-4-3.7c-0.5,0-0.9,0.1-1.4,0.2c-1.1,0.4-1.9,1.1-2.3,2.1c-0.4,1.1-0.3,2.7,0.3,4.4
		c0.1,0.2,0.1,0.4,0.2,0.5c0.1,0.2,0.1,0.3,0.2,0.5c7.9,21.8,9.9,44.5,5.8,67.4c-10.5,59.8-64.6,105-125.8,105
		c-11.1,0-22.2-1.5-32.9-4.4c-60.6-16.5-100.2-73.3-94.4-135.1c4.4-46,27.5-80.4,68.6-102.2c18.4-9.7,37.7-14.6,57.6-14.6
		c14.7,0,30,2.7,45.3,8.1c1.7,0.6,3.2,0.9,4.3,0.9c1.7,0,2.7-0.7,3.3-2.3c0.4-1,0.4-1.9,0.1-2.7c-0.6-1.3-2.4-2.5-5.1-3.5
		c-14.9-5.4-30.6-8.2-46.6-8.3c-15.4,1-22.8,1.6-33.7,4.3c-33.4,8.4-62,28.9-80.7,57.8C45.2,133,38.2,167.6,44.1,201.6z"/>
	<path class="st0" d="M246,65.3c0,5.4,0,11,0.1,16.6c0,3.2-1,5.5-3.4,7.9c-20.5,20.4-41.3,41.2-61.4,61.3l-13.1,13.1l-0.6,0.6
		c-0.8,0.8-1.5,1.5-2.2,2.3c-3.9,4.6-5.2,10.7-3.3,16.4c1.9,5.6,6.6,9.7,12.5,10.9c1.2,0.3,2.5,0.4,3.6,0.4c4.5,0,8.7-2,12.8-6.1
		c10.8-10.8,21.6-21.7,32.5-32.5c14.1-14.1,28.7-28.7,43.1-43.1c2.1-2.1,4.3-3.1,7.1-3.1h0.1c7,0.1,12.3,0.1,17.3,0.1
		c6.2,0,11.8-0.1,17.1-0.2c1.9,0,4.2-0.9,5.3-2c10.6-10.3,21.2-21,31.4-31.2c3.1-3.1,6.1-6.1,9.2-9.2c2.2-2.2,2-3.6,1.5-4.9
		c-0.8-1.8-2.1-2.6-4.7-2.6h-0.1c-3,0-6.2,0-9.9,0c-3.6,0-7.2,0-10.8,0h-2.3c-0.7,0-1.4-0.1-2.1-0.2c-0.3,0-0.7-0.1-1-0.1l-3.8-0.4
		l2.5-2.9c10.6-12,11.9-20.4,4.4-28.1c-3.2-3.3-6.6-4.9-10.3-4.9c-5.2,0-11.1,3.1-18.3,9.3l-3.3,2.9v-4.4c0-2.6,0-5.1,0-7.5
		c0-6,0-11.7,0-17.4c0-3.7-0.6-5.1-2.6-5.9c-0.5-0.2-1-0.3-1.5-0.3c-1.5,0-2.8,1.2-4.5,2.9l-3.7,3.7c-11.4,11.4-23.1,23.2-34.8,34.7
		c-2.2,2.2-3.1,4.2-3,7.1C246,54.1,246,59.8,246,65.3z M325.3,68.1c1.9,0,3.8,0,5.8,0c2.1,0,4.2,0,6.4,0h4.8l-3.4,3.4l-5.8,5.8
		c-8,8-15.5,15.5-23.1,23c-1,1-2.6,1.7-4,1.7c-4.4,0.1-8.6,0.1-12.2,0.1c-1.7,0-3.5,0-5.3,0s-3.7,0-5.6,0h-4.3l2.8-3.3
		c0.3-0.4,0.6-0.8,0.9-1.1c0.5-0.7,1-1.2,1.5-1.8c1.5-1.5,3-3.1,4.6-4.6c6.7-6.8,13.7-13.8,20.7-20.5c1.5-1.5,4-2.5,6.1-2.6
		C318.1,68.1,321.2,68.1,325.3,68.1z M254.9,47.9c1.7-4.2,5.5-7.5,9.1-10.6c1.5-1.3,3-2.5,4.3-3.9c3.6-3.6,7.1-7.2,10.9-11l5.3-5.3
		l3.4-3.4v4.8c0,2.1,0,4.1,0,6.1c0,6,0,11.6-0.1,17.2c0,1.6-0.7,3.3-1.7,4.3c-7.4,7.5-14.9,15-22.8,22.9l-6,6l-3.4,3.4v-4.8
		c0-0.9,0-1.6,0-2.3c0-1.3,0-2.4,0-3.5c0-1.9-0.1-3.9-0.2-5.9C253.5,57.2,253.2,52.2,254.9,47.9z M295.2,48.6L307.8,36l0.4-0.4
		l0.1-0.1c2.8-2.8,5.5-4.1,8.1-4.1c2.1,0,4,0.9,5.7,2.6s2.6,3.7,2.6,5.8c0,2.6-1.4,5.3-4.2,8.1l-9.3,9.3
		c-41.2,41.2-83.7,83.7-125.6,125.6c-1.3,1.3-4.5,6.2-11,3.4c-1.6-1.1-3.3-2.2-4.1-3.9c-3.3-5.2,1.4-10.4,2.4-11.3
		c0.3-0.2,0.5-0.5,0.7-0.7C214.2,129.6,254.7,89.1,295.2,48.6z"/>
	<path class="st0" d="M210.3,97.7c1.8,0,2.9-0.7,3.5-2.5c0.4-1.1,0.4-2,0-2.7c-0.6-1.2-2.2-2.3-4.6-3.1c-9.9-3.5-20.4-5.3-31.3-5.6
		c-1.4,0.1-2.9,0.2-4.3,0.3c-3.1,0.2-6.2,0.4-9.2,0.9c-25.4,4-47.6,17.4-62.4,37.8S81.3,168.5,85.4,194c3.6,22,15.2,42,32.6,56.4
		c17.1,14.1,38.5,21.8,60.2,21.8c10.1,0,20.1-1.7,29.7-5c20.8-7.2,38.5-21.2,50-39.6c11.4-18.4,16.1-40.5,13.1-62.2
		c-0.7-5.5-2.4-11.1-4-16.5c-0.4-1.4-0.8-2.8-1.2-4.2c-0.5-1.7-1.7-2.7-3.5-2.7c-0.2,0-0.5,0-0.7,0c-1.4,0.2-3.1,0.9-3.4,3.4
		c-0.1,1.1,0.4,2.6,0.8,3.8c4.9,14,6.2,28.1,4,42c-6.8,42.2-42.3,72.8-84.3,72.8c-5.3,0-10.7-0.5-16-1.5
		c-32.9-6.1-55.9-26-66.2-57.6c-10.5-32-3.9-61.6,19.1-85.7c17.2-18,37.6-27.2,60.4-27.2c9.7,0,20,1.7,30.6,5
		C208.1,97.5,209.3,97.7,210.3,97.7z"/>
	<path class="st0" d="M177.5,132.4c0.5-0.7,0.8-1.7,0.6-2.6c-0.3-2.1-2.1-3.4-4.6-3.4c-0.2,0-0.5,0-0.8,0
		c-27.4,2.8-48,26.8-46.7,54.7c1.2,27.5,25.1,49,54.3,49.1c14-0.3,27.3-6.9,37.4-18.6c6.8-7.9,10.8-17.5,12-28.4
		c0.3-2.6-1.1-4.5-3.4-4.9c-0.2,0-0.4,0-0.6,0c-1.9,0-3.4,1.5-3.8,3.9c-0.2,1.1-0.4,2-0.5,2.9c-3.4,21.5-21.6,37.1-43.4,37.1
		c-3,0-6.1-0.3-9.1-0.9c-11.7-2.4-22-9.7-28.3-19.9s-8.1-22.2-5.1-33.7c5-19.1,18-30.3,38.5-33.3C175.6,134,176.8,133.3,177.5,132.4
		z"/>
</g>
</svg>
