<?xml version="1.0" encoding="utf-8"?>
<!-- Generator: Adobe Illustrator 23.0.1, SVG Export Plug-In . SVG Version: 6.00 Build 0)  -->
<svg version="1.1" id="Layer_1" xmlns="http://www.w3.org/2000/svg" xmlns:xlink="http://www.w3.org/1999/xlink" x="0px" y="0px"
	 viewBox="0 0 380.8 244.3" style="enable-background:new 0 0 380.8 244.3;" xml:space="preserve">
<style type="text/css">
	.st0{fill:#9A9A9A;}
</style>
<g>
	<path class="st0" d="M376.8,203.6L376.8,203.6c-2.6,0-4,2-4,5.4c0,2.4,0,4.8,0,7.5l0,5.1h-64.3V67.8h64.3v21.1
		c0,30.1,0,60.2,0,90.4c0,0.3,0,0.7,0,1c0,0.9,0,1.7,0.1,2.4c0.5,2.3,1.7,3.4,3.9,3.4c1.4,0,3.3-0.3,3.9-3.3
		c0.1-0.6,0.1-1.4,0.1-2.2c0-0.3,0-0.6,0-0.9c0-49.7,0-99.5,0-149.2c0-5.8-0.8-6.6-6.5-6.6c-20,0-40,0-60,0c-1,0-2-0.1-3.1-0.1
		c-0.5,0-1-0.1-1.5-0.1l-1.5-0.1v-1.6c0-1.8,0-3.6,0-5.3c0-3.9,0-7.6,0-11.3c0-4.2-1.2-5.3-5.4-5.3C227.9,0,153,0,78.1,0
		c-4.4,0-5.5,1.1-5.5,5.6c0,3.7,0,7.3,0,11.2l0,6.9h-6.4c-5,0-10,0-15,0c-5,0-10,0-15,0c-11.8,0-20.8,0-29.2-0.1l-0.1,0
		c-3.1,0-5.1,0.7-6.7,2.2L0,26v57.3l0.1,0.1c1.8,1.9,3.2,2.9,5.3,2c2.1-0.8,2.7-2.3,2.6-5.9C8,77.2,8,75,8,72.6c0-1,0-2.1,0-3.2
		v-1.6h64.3v153.8H8l0-32.4c0-26.8,0-53.5,0-80.3c0-3.4-1.5-5.7-3.7-5.7c-0.5,0-1,0.1-1.6,0.3c-0.7,0.3-1.4,0.9-2.1,1.6L0,105.7
		v121.7l0.1,0.1c1.4,1.7,3.3,2.4,6.6,2.4h0.1c8.5,0,17.7-0.1,28.8-0.1c6.8,0,13.7,0,20.5,0l10.3,0c1,0,2,0.1,3.1,0.1l0.1,0
		c0.5,0,0.9,0.1,1.4,0.1l1.5,0.1l0,3.2l0,2.8c0,3.3,0.1,6.1,1.1,7.1c1,1,3.9,1,7.2,1l219.9,0l0.5,0c6.2,0,6.8-0.7,6.8-7v-7.5l42.1,0
		c8.1,0,16.3,0,24.4,0c4.9,0,6-1.1,6-6c0-4.9,0-9.9,0-15C380.7,205.5,379.3,203.6,376.8,203.6z M372.5,32v27.1h-64V32H372.5z
		 M299.9,55.5v180.6H80.8V55.5H299.9z M300,8.2V47h-219V8.2H300z M72.4,32v27.2H8.2V32H72.4z"/>
	<path class="st0" d="M133.4,213.7c19.3-0.1,38.5-0.1,56.9-0.1c19.2,0,38.3,0,56.8,0.1c3.8,0,6-1.1,8.1-4
		c10.1-14.1,15.9-28.7,17.1-43.5c1.2-14.8-2.1-30.1-9.9-45.5c-2.7-5.3-6.7-10.2-10.6-14.9l-0.3,0.2l0,0v0l0,0l0.3-0.2
		c-1.1-1.3-2.2-2.7-3.3-4.1c-0.9-1.1-2-1.7-3.2-1.7c-1,0-1.9,0.4-2.7,1.1c-1.7,1.6-1.6,3.9,0.3,6.1c0.2,0.3,0.5,0.5,0.8,0.8
		c0.3,0.3,0.5,0.5,0.8,0.8c18,20.1,23.9,43.8,17.4,70.4c-0.6,2.3-1.6,4.6-5.5,4.6c-0.1,0-0.2,0-0.4,0c-2.5-0.1-5.2-0.1-8.6-0.1
		c-1.9,0-3.9,0-5.8,0l-0.4,0c-1.8,0-3.6,0-5.4,0h-34.2l0.8-2.2c0.9-2.4,1.8-4.8,2.7-7.1c1.9-5,3.6-9.7,5.3-14.5
		c3.1-9.2,6.1-18.6,9-27.7l1-3.2c1-3.3-0.4-4.6-1.6-5.4c-1.7-1.1-3.4-0.9-4.9,0.6l-4.9,4.9c-11.4,11.4-23.2,23.3-34.6,35.1
		c-3.7,3.8-5,8.9-3.7,15c0.1,0.5,0.2,1,0.3,1.6l0.6,2.9l-18.9,0c-9.1,0-18.8,0-28.8-0.1c-1.9,0-3.7-2.3-4.2-3.9
		c-3.3-11.4-3.8-23.1-1.5-34.5c7.2-35.1,37-59.6,72.3-59.6c10.5,0,20.9,2.2,30.8,6.5c1.4,0.6,2.7,0.9,3.7,0.9c1.6,0,2.6-0.7,3.3-2.3
		c0.5-1.1,1.5-3.5-3.8-5.9c-14.6-6.7-29.9-8.8-45.1-6.4c-31.3,4.9-53,21.9-64.5,50.5c-11.3,28.1-7.6,55.4,11.2,80.9
		C127.8,212.7,129.9,213.7,133.4,213.7z M179.7,170.2c5.3-6.1,10.8-12.1,16.2-17.8c2.2-2.3,4.3-4.7,6.5-7l0.9-1l3.4,2.1l-0.5,1.3
		c-1.1,3-2.3,5.9-3.4,9c-2.8,7.3-5.7,14.9-8.7,22.3c-1.3,3-4.1,4.9-7.4,4.9c-1.7,0-3.4-0.5-4.8-1.4c-2.1-1.4-3.6-3.6-3.9-6.1
		C177.6,174.1,178.2,171.9,179.7,170.2z M124.6,192h132.7l-1.7,2.5c-0.7,1-1.3,2-1.9,2.9c-1.5,2.3-2.9,4.5-4.6,6.5
		c-1,1.1-2.8,1.7-5.6,1.7c-22.6,0-45.2,0-66.4,0l-31.5,0c-0.4,0-0.8,0-1.3,0c-0.8,0-1.6-0.1-2.1,0c-1.3,0.3-2.5,0.4-3.7,0.4
		c-7.5,0-10.9-6-13.2-11.9L124.6,192z"/>
	<path class="st0" d="M144.9,137.3c1.8,0,3.7-1.5,3.9-4.3l0-0.1l-0.2-0.5c-0.4-0.7-0.9-1.7-1.5-2.2c-2-1.6-4.4-2.8-6.5-3.8
		c-2-1-3.7-0.4-5,1.7c-1.1,1.9-0.8,3.6,1,4.9c2.2,1.7,4.5,3,6.8,3.9C143.9,137.2,144.4,137.3,144.9,137.3z"/>
	<path class="st0" d="M186.5,107c0.3,3.3,2.3,4,3.9,4c2.3,0,3.7-1.4,3.9-3.8c0.2-2.3,0.2-4.6,0-6.8c-0.2-2.4-1.7-3.8-3.9-3.8l-0.1,0
		c-2.2,0-3.6,1.5-3.8,4.1c-0.1,0.7,0,1.4,0,2.1c0,0.4,0,0.7,0,1.1c0,0.4,0,0.7,0,1.1C186.4,105.6,186.4,106.3,186.5,107z"/>
	<path class="st0" d="M158.1,105.2L158.1,105.2c-1.9,1.3-2.2,3.3-1,5.6c0.3,0.6,0.7,1.2,1.2,1.8c0.2,0.3,0.4,0.6,0.6,0.9
		c0.2,0.3,0.4,0.6,0.6,0.9c0.4,0.6,0.8,1.2,1.2,1.7c1.1,1.4,2.3,1.9,3.3,1.9c0.8,0,1.6-0.3,2.2-0.7c1.9-1.3,2.3-3.2,1.1-5.4
		c-1.1-2-2.4-3.9-3.8-5.7C161.9,104.3,159.9,103.9,158.1,105.2z"/>
	<path class="st0" d="M136.7,163.6c0.4,0,0.8,0,1.1,0c2.5-0.2,3.9-1.6,4-3.9c0-2.3-1.4-3.7-3.9-3.9c-2.3-0.2-4.7-0.2-6.8,0
		c-2.5,0.2-3.9,1.7-3.7,4c0.1,2.4,1.3,3.6,3.7,3.8c0.6,0.1,1.4,0.1,2.3,0l0.1,0c0.4,0,0.8,0,1.2,0h1.6v0.1H136.7z"/>
	<path class="st0" d="M242,163.4c0.7,0.1,1.5,0.2,2.2,0.2l1.9,0c0.4,0,0.7,0,1.1,0c0.8,0,1.6,0,2.1,0c2.6-0.2,4-1.5,4-3.8
		c0-2.3-1.4-3.8-3.8-4c-3-0.2-5.6-0.1-7.9,0.2c-1.9,0.3-2.9,1.5-2.8,3.7C239.1,161.8,240,163,242,163.4z"/>
	<path class="st0" d="M221.3,31.4c0.5,0.1,1,0.1,1.6,0.1c0.5,0,1,0,1.5,0c0.5,0,1,0,1.6,0h1.6v0.1l0.4,0c0.3,0,0.5,0,0.8,0
		c0.6,0,1.1,0,1.6,0c2.4-0.1,3.7-1.4,3.8-3.7c0.2-2.3-1-3.8-3.2-4c-3.4-0.3-6.9-0.3-10.1,0.1c-1.4,0.2-3,1-2.8,4
		C218.2,29.9,219.3,31.1,221.3,31.4z"/>
	<path class="st0" d="M248.7,31.4c0.5,0.1,1,0.1,1.6,0.1c0.4,0,0.7,0,1.1,0l1.9-0.1c0.6,0,1.1,0,1.7,0c0.5,0,1,0,1.5,0
		c0.7,0,1.2,0,1.7-0.1c2-0.3,3.1-1.5,3.2-3.6c0.1-2.2-0.8-3.6-2.5-3.8c-3.7-0.4-7.6-0.4-11.1,0c-2.1,0.3-2.6,2.2-2.5,3.8
		C245.6,30,246.8,31.2,248.7,31.4z"/>
	<path class="st0" d="M276.1,31.4c0.8,0.1,1.8,0.1,3,0.1c0.5,0,1.1,0,1.6,0h1.6l0,0.1l0.4,0c0.3,0,0.7,0,1,0c0.7,0,1.2,0,1.7-0.1
		c2.2-0.2,3.4-1.4,3.6-3.6c0.1-1.7-0.5-3.7-2.8-3.9c-3.5-0.4-7.2-0.4-10.8,0.1c-1.7,0.2-2.6,1.6-2.5,3.8
		C273,29.9,274.1,31.1,276.1,31.4z"/>
</g>
</svg>
