<?xml version="1.0" encoding="utf-8"?>
<!-- Generator: Adobe Illustrator 23.0.1, SVG Export Plug-In . SVG Version: 6.00 Build 0)  -->
<svg version="1.1" id="Layer_1" xmlns="http://www.w3.org/2000/svg" xmlns:xlink="http://www.w3.org/1999/xlink" x="0px" y="0px"
	 viewBox="0 0 381.1 337.4" style="enable-background:new 0 0 381.1 337.4;" xml:space="preserve">
<style type="text/css">
	.st0{fill:#9A9A9A;}
</style>
<g>
	<path class="st0" d="M377.2,159.7c-27.5-32.7-59.2-58.2-94.3-75.9c-27.3-13.7-55.3-21.5-83.3-23c-28.9-1.6-57.6,3.9-87.6,16.6
		c-35.3,15-66.5,37.2-95.5,68.1c-4.2,4.4-7.9,9.4-11.6,14.3c-1.6,2.1-3.2,4.3-4.9,6.4v5.1c0.5,0.8,0.9,1.5,1.4,2.3
		c1.1,1.9,2.1,3.7,3.4,5.3c25,29.5,53.8,53.3,85.4,70.7c28.9,15.8,58.8,24.9,89,27c26.3,1.8,53.5-2.5,80.8-12.9
		c44.4-16.9,82.8-45.2,117.7-86.4C382.3,171.6,382.2,165.6,377.2,159.7z M370.9,172.5c-37.4,43.6-78.4,72.2-125.3,87.4
		c-16.9,5.5-37.9,8.8-56.1,8.8h0c-29.9-0.4-59.9-8.2-89.3-23.4c-33.5-17.2-62.9-40.9-89.7-72.4c-1.8-2.1-3.2-4.7-0.3-8.1
		C44.7,124.5,82.5,97.1,125.6,81c47.4-17.7,95.7-15.9,143.6,5.5c37.8,16.9,71,42.4,101.3,77.9C371.7,165.9,374.1,168.7,370.9,172.5z
		"/>
	<path class="st0" d="M19.9,65.1c9-1.5,14.3-8.6,14.4-19.2c0-2.2,0-4.4,0-6.7l0-4.8h1.5c1.2,0,2.4,0,3.5,0c2.5,0,4.9,0.1,7.2-0.1
		c2.3-0.1,5-0.3,7.3-1.1c7.6-2.5,12.5-10.6,11.2-18.4c-1.4-8.7-8.2-14.6-17-14.7c-4.4-0.1-8.9,0-13.2,0c-6,0-12.2,0.1-18.3-0.1
		C7.8-0.3,2.7,2.8,0,10v41.2c0.1,0.2,0.2,0.4,0.3,0.6C3.8,61.6,11.1,66.6,19.9,65.1z M8.3,14.8c0-5.1,1.4-6.5,6.5-6.5
		c3.7,0,7.5,0,11.2,0l4.9,0c1.6,0,3.2,0,4.9,0c3.6,0,7.3,0,10.9,0c6,0.1,10.1,3.6,10.2,8.7c0.1,2.4-0.7,4.5-2.3,6.1
		c-1.9,1.9-4.7,3-8,3c-3,0-5.9,0-8.9,0c-1.9,0-3.8,0-5.8,0c-5,0-6,1-6,6.1c0,1.9,0,3.9,0,5.8c0,2.9,0,5.9,0,8.8
		c-0.1,6.2-3.5,10-8.8,10.1c0,0-0.1,0-0.1,0c-2.4,0-4.5-0.8-6-2.3c-1.8-1.8-2.8-4.6-2.8-8C8.2,36.1,8.2,25.4,8.3,14.8z"/>
	<path class="st0" d="M48.1,303.1c-2.7-0.1-5.5-0.1-8.4,0c-1.4,0-2.8,0-4.2,0h-1.5v-1.5c0-1.7,0-3.4,0.1-5c0.1-3.4,0.2-6.6-0.2-9.7
		c-0.8-7.6-7-13.8-14.6-14.6c-8.1-0.9-15.2,3.4-18.1,10.9c-0.3,0.7-0.6,1.4-0.8,2.1L0,286v41.4c2.8,7,7.6,10.2,14.7,9.9
		c5.5-0.2,5.6-3,5.6-4.1c0-1.3-0.3-2.3-1.2-3c-0.9-0.7-2.4-1.1-4.5-1.2c-5-0.1-6.4-1.6-6.4-6.6c0-10.6,0-21.3,0-31.9
		c0-6.2,3.3-10.1,8.7-10.2c2.4,0,4.6,0.7,6.1,2.3c1.9,1.8,2.9,4.6,2.9,8c0,3,0,6,0,8.9c0,1.7,0,3.3,0,5c0,5.9,0.8,6.7,6.6,6.7
		c1.6,0,3.1,0,4.7,0c3.4,0,6.9,0,10.3,0.1c5.4,0.1,9.3,3.9,9.3,8.8c0,4.9-3.9,8.6-9.3,8.9c-0.9,0.1-1.9,0-2.7,0c-0.9,0-1.7,0-2.5,0
		c-2.5,0.1-4.1,1.7-4.2,3.9c-0.1,2.3,1.5,4,3.8,4.2c2.3,0.1,5.7,0.2,9-0.3c4.9-0.9,8.9-3.6,11.5-7.6c2.6-4.1,3.3-9,1.9-13.8
		C62.5,308.3,55.9,303.3,48.1,303.1z"/>
	<path class="st0" d="M363.9,272.2C363.9,272.2,363.9,272.2,363.9,272.2c-10,0-17,7.6-17.1,18.6c0,2.3,0,4.7,0,7.2l0,5.1h-1.5
		c-1.3,0-2.6,0-3.9,0c-1.2,0-2.4,0-3.5,0c-1.4,0-2.8,0-4.2,0c-10.2,0.2-17.9,7.5-17.9,17.2c0,9.7,7.7,17,17.9,17.1
		c11.8,0.1,23.5,0,33.4,0c8.7,0,13.9-5.3,13.9-14c0-11.9,0-23.7,0-32.6C381,279.8,373.9,272.2,363.9,272.2z M371.3,327.6
		c-1,1-2.5,1.5-4.5,1.5c0,0,0,0,0,0c-4.6,0-9.3,0-13.9,0c-6.2,0-12.7,0-19,0c-5.6,0-9.7-3.8-9.8-8.8c-0.1-5.2,4.1-8.9,10-9
		c2.7,0,5.3,0,8,0c2.7,0,5.4,0,8.1,0c3.4,0,4.7-1.3,4.8-4.7c0.1-2.8,0-5.7,0-8.4c0-2.5,0-5.1,0-7.7c0.1-6.1,3.6-10,8.9-10
		c0,0,0,0,0,0c5.4,0,8.8,3.9,8.8,10c0,3.7,0,7.5,0,11.2l0,4.9c0,1.6,0,3.3,0,4.9c0,3.8,0,7.7,0,11.6
		C372.8,325.1,372.4,326.6,371.3,327.6z"/>
	<path class="st0" d="M333.4,34.4c2.5,0.1,5,0,7.7,0c1.3,0,2.7,0,4.1,0h1.5v1.5c0,1.4,0,2.7,0,4c0,2.7,0,5.3,0,7.9
		c0.3,10.3,7.7,17.6,17.6,17.4c9.6-0.2,16.6-7.7,16.6-17.9c0-10.1,0-21,0-33.4c0-8.5-5.3-13.8-13.7-13.9c-12.5-0.1-23.5-0.1-33.7,0
		c-10,0.1-17.7,7.3-17.8,16.9C315.7,26.7,323.2,34.2,333.4,34.4z M326.4,11.3c1.8-1.9,4.5-2.9,7.5-3c5.6,0,11.3,0,16.7,0
		c5.3,0,10.6,0,15.9,0c2.2,0,3.7,0.5,4.8,1.6c1,1.1,1.5,2.6,1.5,4.6c-0.1,3.8-0.1,7.8-0.1,11.6c0,1.6,0,3.3,0,4.9v0
		c0,1.7,0,3.4,0,5.1c0,3.7,0,7.6,0,11.4c-0.1,5.6-3.4,9.4-8.5,9.6c-0.1,0-0.3,0-0.4,0c-2.3,0-4.3-0.8-5.9-2.2
		c-1.8-1.7-2.8-4.2-2.9-7.1c-0.1-3.3-0.1-6.5-0.1-9.7c0-2,0-4,0-6c0-4.6-1.1-5.7-5.6-5.7c-2,0-4.1,0-6.2,0c-3,0-6.1,0-9.2,0
		c-5.7-0.1-9.7-3.6-9.9-8.7C324,15.1,324.8,12.9,326.4,11.3z"/>
	<path class="st0" d="M261.2,100c-24-11-47.2-16.4-70.3-16.4c-11.2,0-22.3,1.3-33.5,3.8c-44.4,10.1-83,34.4-118,74.2
		c-5,5.7-2.7,11,0.1,14.4c0.5,0.7,1.1,1.3,1.7,2c21.5,24.2,45.8,43.2,72.4,56.5c25,12.5,50.7,19.1,76.4,19.4
		c16.1-0.2,31.1-2.5,45.7-6.9c39.3-11.8,73.6-34.7,104.8-69.9c5.5-6.2,5.4-10.6-0.1-16.9C316.7,133.3,290.8,113.6,261.2,100z
		 M128.8,232.2c-31.5-13.3-58.9-33.6-83.6-62.2l-0.8-0.9l0.8-1c19.4-25.1,55.6-52.2,84.3-63.1l6.5-2.5l-4.9,4.9
		c-34.1,34.3-34.4,88-0.6,122.2l5.3,5.4L128.8,232.2z M336.1,169.7c-24.5,28.4-52.1,49.1-84.6,63.1l-5.7,2.5l4-4.8
		c1.2-1.4,2.3-2.7,3.4-4c2.2-2.6,4.1-4.8,5.8-7.2c14-19.2,19.3-41.2,15.5-65.2c-0.3-1.8-1.3-4.8-4.9-4.3c-1.2,0.2-2,0.6-2.5,1.4
		c-0.8,1.1-1,2.8-0.6,5c2.4,14.8,0.7,29.1-5.1,42.7c-12.2,28.6-40.5,46.9-70.9,46.9c-3.2,0-6.4-0.2-9.6-0.6
		c-34.4-4.4-61.7-31.6-66.6-66.2c-5-35.6,16.1-70.3,50.1-82.6c16.3-5.9,34.5-5.9,51.3-0.1c16.8,5.8,31,17,40.1,31.6
		c0.2,0.3,0.4,0.7,0.6,1c0.4,0.7,0.9,1.4,1.3,2.1c1.4,2,3.7,2.7,5.6,1.6c1-0.6,1.8-1.5,2-2.6c0.2-0.7,0.2-1.8-0.6-3
		c-2.8-4.3-6-8.5-9-12.5c-0.9-1.3-1.9-2.5-2.8-3.8c-0.4-0.6-1-1.2-1.6-1.7c-0.3-0.3-0.6-0.6-0.9-0.9l-4.6-5l6.3,2.6
		c31.4,12.9,58.9,33.2,84,62.1l0.8,1L336.1,169.7z"/>
	<path class="st0" d="M218.2,148.8c-1.3,0-2.6,0-4,0c-0.6,0-1.2,0-1.8,0H211l-0.1-1.4c-0.1-1.5-0.2-2.9-0.3-4.2
		c-0.2-2.8-0.3-5.4-0.9-7.9c-2.3-9.3-10.9-15.3-21-14.6c-9.1,0.6-16.8,8.2-17.8,17.6c-0.2,2-0.3,4-0.4,5.9c0,0.9-0.1,1.8-0.1,2.6
		l-0.1,1.3l-1.2,0.2c-1.5,0.2-3,0.3-4.4,0.4c-3.1,0.2-5.9,0.4-8.4,1.4c-4,1.6-7.7,4.4-9.9,7.3c-1.8,2.5-3.1,6.2-3.8,11.4
		c-0.6,4.2,1,8.6,4.6,12.9c5.9,7,14.1,7.4,21.3,6.9l1.5-0.1l0.1,1.5c0.1,1.5,0.2,2.9,0.3,4.3c0.2,2.7,0.3,5.3,0.9,7.7
		c2.2,9.2,10.9,15.4,20.9,14.8c9.2-0.6,16.9-8,18-17.4c0.2-2,0.3-4.1,0.4-6.2c0-1,0.1-2,0.2-3.1l0.1-1.4h1.4c0.7,0,1.5,0,2.1,0
		c1.4,0,2.6,0,3.8,0c11.8-0.3,20.4-8.7,20.4-19.9C238.5,157.4,230,149.1,218.2,148.8z M218,180.4c-1.6,0.1-3.3,0.1-4.9,0
		c-1.1,0-2.3,0-3.4,0c-5.2,0.1-7.4,2.3-7.5,7.6c0,1.1,0,2.2,0,3.3c0,2.4,0,4.9-0.3,7.3c-0.7,5.7-5.5,9.8-11.3,9.8c0,0,0,0,0,0
		c-5.9,0-10.6-4.1-11.4-9.7c-0.3-2.5-0.3-4.9-0.3-7.4c0-1.2,0-2.4-0.1-3.6c-0.2-5-2.4-7.2-7.4-7.3c-1.1,0-2.2,0-3.3,0
		c-2.3,0-4.6,0-6.9-0.3c-6.2-0.7-10.4-5.5-10.4-11.6c0.1-6,4.3-10.6,10.3-11.3c2.4-0.3,4.7-0.3,7.1-0.3c1.1,0,2.1,0,3.2,0
		c5.2-0.1,7.4-2.3,7.5-7.6c0-1.2,0-2.4,0-3.5c0-1.7,0-3.4,0.1-5.1c0.4-6.9,5.2-11.7,11.6-11.8c6.6,0,11.3,4.7,11.7,11.7
		c0.1,1.7,0.1,3.5,0.1,5.1c0,1.5,0,3.1,0.1,4.6c0.2,4.2,2.5,6.4,6.7,6.6c1.4,0.1,2.9,0,4.4,0c1.5,0,3.1,0,4.6,0
		c7.5,0.3,12.4,5.1,12.3,11.9C230.2,175.4,225.3,180.1,218,180.4z"/>
</g>
</svg>
