<?xml version="1.0" encoding="utf-8"?>
<!-- Generator: Adobe Illustrator 23.0.1, SVG Export Plug-In . SVG Version: 6.00 Build 0)  -->
<svg version="1.1" id="Layer_1" xmlns="http://www.w3.org/2000/svg" xmlns:xlink="http://www.w3.org/1999/xlink" x="0px" y="0px"
	 viewBox="0 0 343.8 380.8" style="enable-background:new 0 0 343.8 380.8;" xml:space="preserve">
<style type="text/css">
	.st0{fill:#9A9A9A;}
</style>
<g>
	<path class="st0" d="M253.9,256.4c-2.8,0-5.6,0.2-8.3,0.5c-29.3,3.8-52.5,28.4-54,57.1c-0.8,15.1,3.5,29.8,12.2,41.6
		c8.6,11.8,21.3,20.1,35.6,23.5c1.8,0.4,3.6,0.8,5.4,1.2l0.1,0c0.8,0.2,1.6,0.3,2.4,0.5h13.1l0,0c0.2-0.1,0.4-0.1,0.7-0.2
		c0.7-0.2,1.4-0.4,2.1-0.5c11.1-1.8,21-6.2,29.4-13c2.1-1.7,2.6-4.2,1.1-6.1c-0.8-0.9-1.8-1.4-2.9-1.4c-1,0-2.1,0.4-3.1,1.1
		c-0.4,0.3-0.8,0.6-1.2,0.9c-0.2,0.1-0.4,0.3-0.6,0.4c-9.5,7-20.6,10.7-32.2,10.7c-10.8,0-21.2-3.2-30.3-9.3
		c-19-12.8-27.8-36.4-22-58.6c6.2-23.7,27.8-40.2,52.4-40.2c3.3,0,6.7,0.3,9.9,0.9c27.7,5.2,47.2,32,43.4,59.8c-0.6,4-1.8,8-3,11.8
		c-0.4,1.2-0.8,2.6-1.2,3.9c-0.8,2.8-0.2,4.7,2,5.7c0.6,0.3,1.1,0.4,1.7,0.4c1.5,0,2.8-1,3.8-2.7c0.4-0.8,0.7-1.6,1-2.3
		c7.9-19.4,5.7-40.5-6-57.9C293.6,266.8,274.4,256.4,253.9,256.4z"/>
	<path class="st0" d="M340.3,200.8c-0.8-0.1-1.7-0.1-2.8-0.1l-1.5,0c-1.5,0-3.2,0-5.3,0l-8.8,0l0-23.5c0-14.5,0-29.6,0-44.5
		c0-6.1-3-9.1-9-9.2c-3.5,0-7.2,0-11.6,0c-3,0-6,0-9,0l-6.4,0c-7.7,0-10.3,2.6-10.3,10.2c0,13.2,0,26.6,0,39.6l0,27h-37.9l0-30.1
		c0-20.9,0-41.4,0-62.1c0-7.8-2.7-10.4-10.5-10.5c-4.6,0-8.9,0-13,0c-4.2,0-8.4,0-12.5,0c-7.7,0-10.3,2.6-10.3,10.2
		c0,20.8,0,42,0,62.4v29.9h-23.2v-6.4c0-5.3,0-10.6,0-15.9l0-2.6c0-14.6,0-31.1,0-47.1c0-6.9-4-11.1-11-11.5c-0.5,0-1-0.1-1.6-0.2
		c-0.3,0-0.6-0.1-0.9-0.1l-1.3-0.2v-5.6c0-2.3,0-4.6,0-6.9l0-1.7c0-6.5,0-13.2,0-19.8c0-7.5-2.6-10.1-10-10.1c-4.6,0-9,0-13.3,0
		c-4.4,0-8.8,0-13,0c-7.1,0-9.9,2.8-9.9,9.9c0,5.8,0,11.7,0,17.4l0,0.2c0,3.8,0,7.8,0,11.7c0,1-0.1,1.9-0.1,2.8l0,0
		c0,0.4-0.1,0.8-0.1,1.2l-0.1,1.5H69.2l0-21.6c0-12.2,0-25.9,0-39.4c0-6.4-2.9-9.2-9.3-9.2c-3.7,0-7.7,0-12.2,0c-5,0-10,0-14.8,0
		c-7.1,0-10,2.8-10,9.8c0,7.2,0,14.5,0,21.5c0,3.1,0,6.1,0,9.2v29.9l-7.1,0c-1,0-2,0-3.1,0c-8.7,0-12.6,4-12.7,12.8
		c0,11.7,0,23.5,0,34.9l0,5.9c0,1,0,1.9,0.1,2.8c0.3,1.9,1.5,3,3.4,3.2c0.2,0,0.4,0,0.6,0c1.9,0,3-0.9,3.6-2.7
		c0.4-1.2,0.4-2.6,0.4-4c0-9.2,0-18.5,0-27.6l0-10.7c0-2.8,0-4.4,1.1-5.5c1.1-1.1,2.6-1.1,5.6-1.1l68.4,0l70.4,0
		c5.8,0,6.5,0.7,6.5,6.3c0,69.1,0,138.2,0,207.3c0,5.7-0.7,6.4-6.4,6.4l-69.6,0l-69.6,0c-5.7,0-6.4-0.7-6.4-6.5l0-35.4
		c0-33.1,0-67.4,0-101.1v-0.3c0-1.4,0-2.9-0.3-4.2c-0.5-2-1.7-3-3.7-3c-0.2,0-0.3,0-0.5,0c-2.1,0.2-3.2,1.2-3.5,3.4
		C0,199,0,199.9,0,200.8l0,0.5c0,42.7,0,91,0,138.7c0,9.4,3.9,13.2,13.3,13.2c23.5,0,46.9,0,70.4,0c23.7,0,47.3,0,71,0
		c9.7,0,13.5-3.8,13.5-13.4c0-30.4,0-60.8,0-91.2l0-39.8h44.2c37.5,0,81.1,0,124,0l1.3,0c0.9,0,1.9,0,2.8-0.2c2.2-0.5,3.3-1.8,3.2-4
		C343.7,202.3,342.6,201.1,340.3,200.8z M229.3,106.2v94.3h-29.4v-94.3H229.3z M283.9,200.4v-68.5h29.6v68.5H283.9z M144.9,80.4
		v36.2h-29.3V80.4H144.9z M60.7,54.7v61.9H31.3V54.7H60.7z"/>
	<path class="st0" d="M126.4,213.5c-5,0-10.3,0-17.3,0l-24.3,0l-25.4,0c-6.7,0-12.2,0-17.3,0c-7.1,0-10.1,3.1-10.1,10.2
		c0,31.3,0,58.7,0,84c0,6.9,3.2,10.1,10,10.1c13.2,0,27,0,42,0c14,0,28.3,0,42.3,0c6.9,0,10.1-3.1,10.1-9.9
		c0.1-30.1,0.1-57.8,0-84.7C136.2,216.5,133.2,213.5,126.4,213.5z M88.5,261.5V222h39.4v39.5H88.5z M127.9,270v39.5H88.4V270H127.9z
		 M79.8,270v39.5H40.3V270H79.8z M40.3,261.3v-39.4h39.4v39.4H40.3z"/>
	<path class="st0" d="M42.8,8.1c0.2,0.1,0.5,0.1,0.7,0.2c0.2,0,0.4,0.1,0.7,0.2C126.8,29.8,209.4,51.2,292,72.6
		c3.9,1,7.6,2,12.2,3.2l10.2,2.7l-3.4,1.9c-1.8,1-3.6,2-5.3,2.9l-0.1,0c-3.6,2-7.3,4-10.9,5.9c-1.7,0.9-2.7,2.1-3.1,3.3
		c-0.3,0.9-0.1,1.9,0.5,2.9c0.8,1.3,1.8,2,3.2,2c1,0,2.1-0.3,3.2-1c7.7-4.2,16-8.6,24-13c2.9-1.6,4.6-3.5,5.2-5.7
		c0.6-2.2,0-4.7-1.8-7.5c-4.7-7.5-9.6-15.1-14.3-22.5l-0.2-0.3c-0.9-1.4-2.4-3.1-4.2-3.1c-0.7,0-1.4,0.2-2.1,0.7
		c-1,0.6-1.6,1.4-1.8,2.3c-0.3,1.3,0.2,2.9,1.3,4.7c2,3.2,4.1,6.4,6.2,9.8l0.9,1.3c0.8,1.2,1.6,2.5,2.4,3.8l1.9,3l-3.4-0.6
		c-0.6-0.1-1.2-0.2-1.6-0.3c-0.8-0.1-1.4-0.2-1.9-0.4c-69.2-17.9-145-37.5-231.9-60c-4-1-8.1-2.1-12-3.1l-0.1,0
		c-6.6-1.7-13.4-3.5-20.1-5.2C44.3,0.1,43.8,0,43.3,0c-2,0-3.5,1.1-4,2.9C38.7,5.3,40,7.2,42.8,8.1z"/>
	<path class="st0" d="M136.3,161.8c-0.1-6.4-3.3-9.5-9.7-9.6c-14.5,0-28.8,0-42.6,0c-14.5,0-28.7,0-42.4,0c-6.2,0-9.5,3.4-9.6,9.7
		c-0.1,6-0.1,12.1,0,18c0.1,6.5,3.3,9.7,10,9.7c5.4,0,11.1,0,17.5,0l24.8,0c4.1,0,8.3,0,12.4,0c4.2,0,8.3,0,12.5,0
		c6.8,0,12.4,0,17.5,0c6.5,0,9.6-3,9.7-9.5C136.4,174.2,136.4,168,136.3,161.8z M127.9,160.6v20.6H40.3v-20.6H127.9z"/>
	<path class="st0" d="M262.4,345.9c4.9-1.8,10.9-5.8,11.3-14.4c0.3-6.4-2.9-11.2-9.8-14.8c-1.4-0.7-2.9-1.3-4.5-1.9l-0.2-0.1
		c-0.6-0.2-1.1-0.4-1.7-0.7c-1-0.4-2.1-0.8-3.1-1.2c-2.1-0.8-4.2-1.6-6.3-2.6c-2.2-1-3.6-2.8-3.8-4.8c-0.2-2,0.9-4,2.9-5.5
		c1.4-1,3.2-1.5,4.4-1.7c0.9-0.2,1.8-0.2,2.7-0.2c4.5,0,8.3,2.1,11.1,3.9c1,0.7,2.1,1,3,1c1.3,0,2.3-0.6,3.1-1.8c0.6-1,0.9-2,0.7-3
		c-0.2-1.1-1-2.1-2.2-2.9c-3-2-5.5-3.2-7.9-4c-2.7-0.9-4.5-2.2-4.4-5.9c0.1-1.9-0.4-3.3-1.2-4.2c-0.6-0.7-1.6-1-2.7-1l-0.1,0
		c-1.1,0-2.1,0.4-2.8,1.1c-0.8,0.9-1.2,2.2-1.2,3.9c0.1,3.8-1.7,5.4-4.4,6.6c-5.8,2.6-9,7.3-9,13.6c-0.1,5.7,2.9,9.9,8.7,12.4
		c1.7,0.7,3.4,1.4,5.1,2l0.1,0.1c1.6,0.6,3.2,1.3,4.8,1.9c0.4,0.2,0.7,0.3,1.1,0.5c2.1,0.9,4.2,1.8,6.2,3c2.1,1.4,3.4,3.2,3.5,5.3
		c0.1,2-0.8,4-2.7,5.6c-1.7,1.4-3.9,2.5-6,2.8c-1,0.2-2,0.2-3,0.2c-4.5,0-8.8-1.7-12.7-5.2c-0.8-0.7-1.7-1.2-2.9-1.9
		c-0.3-0.2-0.7-0.4-1.1-0.6l0,0l0,0c-0.3,0.2-0.6,0.5-0.9,0.7c-1,0.7-2,1.5-2.2,2.2c-0.4,1.3,0,3.6,0.6,4.1c3.4,3.1,6.8,5.4,9.9,6.8
		c2.9,1.3,5.3,2.7,5.1,7.2c-0.1,1.4,0.3,2.6,1.1,3.4c0.7,0.7,1.7,1.2,2.9,1.2c1.2,0,2.2-0.4,2.9-1.1c0.7-0.8,1.1-2,1-3.4
		C257.3,348.6,259.2,347.1,262.4,345.9z"/>
</g>
</svg>
