<?xml version="1.0" encoding="utf-8"?>
<!-- Generator: Adobe Illustrator 23.0.1, SVG Export Plug-In . SVG Version: 6.00 Build 0)  -->
<svg version="1.1" id="Layer_1" xmlns="http://www.w3.org/2000/svg" xmlns:xlink="http://www.w3.org/1999/xlink" x="0px" y="0px"
	 viewBox="0 0 381.1 347" style="enable-background:new 0 0 381.1 347;" xml:space="preserve">
<style type="text/css">
	.st0{fill:#9A9A9A;}
</style>
<g>
	<path class="st0" d="M381,83.8c0-20.8,0-41.5,0-62.3C381,7.6,373.4,0,359.5,0c-21,0-42.1,0-63.1,0l-13.7,0l-0.6,0
		c-0.9,0-1.8,0-2.7,0.1c-2.3,0.2-3.5,1.4-3.7,3.7c-0.2,2.4,0.9,3.8,3.4,4.3c1.1,0.2,2.2,0.2,3.4,0.2l0.4,0c25.5,0,51,0,76.5,0
		c9.4,0,13.3,3.8,13.3,13.2c0,56.5,0,112.9,0,169.4v39.3H8.3l0-208.8c0-1,0-1.9,0.1-2.9c0.5-5.6,4.5-9.6,10.1-10.1
		c1.3-0.1,2.6-0.1,3.8-0.1l0.8,0l51.9,0c58.6,0,117.1,0,175.7,0c1.6,0,3.3,0,4.8-0.4c2-0.5,2.9-1.9,2.8-4.1
		c-0.1-2.1-1.2-3.4-3.3-3.7C254,0,253.1,0,252.2,0l-0.5,0l-9.4,0C168.5,0,94.6,0,20.8,0C10,0,3.8,4.6,0.5,14.8
		c-0.1,0.4-0.3,0.7-0.5,1v257.2c5.4,12.7,9.7,15.5,23.8,15.5h117.8l-6.7,50.3h-1.3c-1.3,0-2.5,0-3.7,0c-1.2,0-2.3,0-3.4,0
		c-1.5,0-2.9,0-4.3,0.1c-1.7,0.1-3.1,0.6-4,1.6c-0.7,0.7-1,1.7-1,2.7c0.2,3.4,3.6,3.8,5,3.9c0.7,0,1.4,0,2.1,0l0.9,0l96.5,0
		c12.3,0,24.7,0,37,0c3.2,0,5.1-1.5,5.1-4c0-2.5-1.9-4.1-5.2-4.2c-2.6-0.1-5.6-0.2-8.5,0c-2.8,0.2-4.4-1.2-4.7-4.1
		c-0.3-2.8-0.6-6.1-1.1-9.2c-0.5-2.8-2.4-4.5-4.7-4.2c-2.3,0.3-3.6,2.2-3.4,4.9c0.2,2.3,0.5,4.7,0.8,7.1c0.1,1.1,0.3,2.2,0.4,3.3
		l0.2,1.7h-94.3l0.2-1.7c0.5-3.8,1-7.6,1.5-11.4c1.2-8.8,2.3-17.2,3.4-25.7l0-0.3c1.4-11,2.1-11.6,13.3-10.8c0.5,0,0.9,0.3,1.1,0.4
		l0.6,0.3l0.2,0.6c4.7,13.7,13.3,21.1,24.9,21.5c14.3,0.4,24-6.9,28.7-21.6l0.3-0.9l1-0.1c11.7-1.1,12.5-0.5,13.9,10.5
		c0,0.1,0,0.2,0,0.3c0.3,2,1.2,5.1,4.7,4.8c3.3-0.3,3.7-3.1,3.6-5.4c-0.1-1.9-0.4-3.8-0.6-5.8c-0.1-1-0.2-1.9-0.3-3l-0.2-1.7h6.6
		c10.8,0,21.5,0,32.3,0c26.5-0.1,54-0.1,80.9,0.2c0.1,0,0.2,0,0.3,0c6.1,0,11.3-2,15.2-5.8c4-4,6.2-9.5,6.2-15.7
		C380.9,206,381,143.9,381,83.8z M207.5,290.1c-0.2,6.2-7.6,12.4-15.4,13.1c-0.5,0-1.1,0.1-1.6,0.1c-8.1,0-15.5-5.4-17.3-12.9
		l-0.5-1.9h34.8L207.5,290.1z M360,280.2l-0.8,0l-337.4,0l-0.6,0c-0.2,0-0.4,0-0.6,0c-0.6,0-1.2,0-1.9,0c-6-0.4-10.3-4.6-10.4-10.2
		c-0.1-6.9-0.1-13.6-0.1-20.7c0-2.9,0-5.9,0-8.9v-1.5h364.2l0.1,1.4c0,0.4,0.1,0.7,0.1,1.1c0.1,0.8,0.1,1.6,0.1,2.3c0,8,0,16,0,24
		C372.7,276.1,368.7,280.1,360,280.2z"/>
	<path class="st0" d="M202.6,152.5c0.9-0.1,1.8-0.1,2.6-0.1c0.3,0,0.6,0,0.9,0h30.3c21.6,0,43.3,0,64.9,0c4.2,0,5.4-0.9,6.2-4.7
		c2.3-11.7,4.7-23.4,7-35.1c2-9.8,3.9-19.7,5.9-29.5c1.2-5.8,2.3-11.6,3.5-17.5l1.9-9.6h1.2c0.8,0,1.5,0,2.2,0c1.5,0,2.9,0,4.3,0
		c2.7-0.1,4.5-1.7,4.6-4c0.1-2.3-1.7-4-4.3-4.1c-3.2-0.2-6.3-0.1-10-0.1c-3.9,0.1-4.9,0.9-5.7,4.8c-0.2,1.1-0.5,2.2-0.7,3.2
		c-0.6,2.6-1.1,5.4-1.5,8c-0.5,3.9-3,4.5-5.3,4.6c-6.3,0.3-12.8,0.8-19,1.3l-4.9,0.4c-9.1,0.7-18.3,1.4-27.4,2
		c-19.7,1.5-40,3-60,4.4c-3,0.2-4.9,0.9-5.7,1.9c-0.8,1.1-0.7,3,0.1,5.9c3.3,11.9,6.6,23.8,10,35.6l2.7,9.8c1.4,5,1.9,5.4,7.3,5.4
		l87.8,0l-1.7,8.9l-31.2,0c-8.4,0-16.9,0-25.3,0c-13,0-26,0-38.9,0c-9.1,0-15.3,5.5-15.3,13.7c0,8.1,6.1,13.9,15.1,14
		c0.8,0,1.5,0.1,2.3,0.1c0.4,0,0.7,0.1,1.1,0.1l1.9,0.1l-0.5,1.8c-2.5,8.7-0.6,15.3,5.9,20.1c5.8,4.3,12,4.6,18.1,1.1
		c7.7-4.5,10.2-11.6,7.7-21.2l-0.5-1.9h33.5l-0.5,1.9c-2.5,8.8-0.5,15.4,6.1,20.2c5.8,4.2,12.1,4.5,18.1,0.9
		c7.5-4.5,9.9-11.5,7.4-21.3L304,172h1.9c0.6,0,1.2,0,1.8,0c1.2,0,2.2,0,3.2,0c2.6-0.2,4.3-1.8,4.2-4.2c-0.1-2.3-1.6-3.8-4.2-3.9
		c-0.7-0.1-1.5,0-2.3,0c-0.3,0-0.6,0-1,0l-101.6,0c-0.3,0-0.6,0-0.9,0c-0.8,0-1.7,0-2.6-0.1c-3.3-0.3-5.4-2.4-5.4-5.6
		C197.2,154.9,199.2,152.8,202.6,152.5z M268.6,127.1c-16.3,0-33.2,0-49.8,0.1c0,0,0,0-0.1,0c-3.4,0-5-1.3-5.9-4.6
		c-2-7.5-4.1-15.1-6.2-22.5c-0.9-3.3-1.9-6.6-2.8-9.9c-0.2-0.8-0.3-1.5-0.5-2.4c-0.1-0.4-0.2-0.9-0.3-1.3l-0.3-1.7l110.6-8.2
		l-10.1,50.5L268.6,127.1z M282.8,174.4c1.7-1.6,3.9-2.4,6.2-2.3c4.6,0.2,8.2,3.9,8.2,8.5c0,2.3-0.9,4.5-2.6,6.2
		c-1.6,1.6-3.7,2.5-6,2.5c0,0-0.1,0-0.1,0c-2.2,0-4.4-1-6-2.7c-1.6-1.7-2.5-3.9-2.5-6.2C280.2,178.1,281.1,175.9,282.8,174.4z
		 M224.1,172c2.3-0.1,4.5,0.7,6.2,2.3c1.7,1.6,2.7,3.7,2.8,6c0.1,2.2-0.8,4.5-2.4,6.1c-1.6,1.7-3.8,2.7-6.1,2.8c-0.1,0-0.1,0-0.2,0
		c-2.2,0-4.3-0.9-5.9-2.4c-1.7-1.6-2.6-3.8-2.6-6.1C216,176,219.5,172.2,224.1,172z"/>
	<path class="st0" d="M59.8,97.6c-8.4,0-12.8,4.5-12.9,13c-0.1,7.7-0.1,14.1,0,20.2c0.1,8.2,4.7,12.7,12.8,12.7
		c11.6,0,23.4,0,33.7,0c3.8,0,5.8-1.4,5.8-4.1c0-1.2-0.3-2-1-2.7c-0.9-0.9-2.6-1.4-4.8-1.4l-6.6,0c-8.6,0-17.6,0-26.3,0.1
		c-1.2,0-3-0.1-4.2-1.3c-1.2-1.2-1.3-2.9-1.3-4.1c0.1-5.8,0.2-12.1,0-18.3c0-1.3,0-3.1,1.3-4.4c1.3-1.3,3.1-1.4,4.7-1.4
		c6,0.1,12,0.1,17.9,0.1c2.4,0,4.8,0,7.2,0l13.6,0c13.7,0,27.9,0,41.9,0c1.7,0,3.4,0.2,4.6,1.4c0.9,0.9,1.3,2.2,1.2,4.1
		c-0.2,6-0.1,12.2,0,18.2l0,0.9c0,1.7-0.4,2.9-1.2,3.8c-1.2,1.1-2.8,1.2-3.9,1.2c-4.7-0.1-9.5-0.1-14.1,0c-1.6,0-3.3,0-4.9,0
		c-2.7,0-4.6,0.5-5.5,1.5c-0.6,0.6-0.9,1.5-0.9,2.7c0,2,0.9,4.1,6.6,4.1l3.6,0c5.2,0,10.4,0,15.5,0c8.5,0,13.1-4.6,13.2-13.2
		c0.1-6.1,0.1-12.5,0-19.5c-0.1-8.9-4.4-13.2-13.4-13.3c-9.6,0-19.2,0-28.8,0l-12.1,0c-4.1,0-8.3,0-12.5,0c-4,0-8.1,0-12.2,0
		C71,97.5,65.4,97.6,59.8,97.6z"/>
	<path class="st0" d="M49.9,193.8c1,0.2,2.2,0.2,3.4,0.2h0.4c13.2,0,26.4,0,39.6,0l7.6,0l13.8,0c11.7,0,23.5,0,35.2,0
		c4.9,0,5.5-2.3,5.5-4c0-1,0.1-4.1-5.7-4.3c-0.3,0-0.7,0-1,0l-16.2,0c-26.2,0-52.4,0-78.6,0c-0.3,0-0.7,0-1.1,0
		c-0.9,0-2.3-0.1-2.7,0.2c-1.6,1.3-2.8,3.1-3.1,4.5C46.7,192.4,48.4,193.5,49.9,193.8z"/>
	<path class="st0" d="M92.7,60.2c2.2-2.5,0.4-5-0.8-6.2c-3.1-3-6.2-5.9-9.3-8.8L80.1,43c-1.4-1.3-3.4-2.4-5.4-0.7
		c-4.7,4.1-9.2,8.4-13.5,12.8c-2.2,2.3-0.5,4.5,0.3,5.3c1.6,1.6,3.3,1.7,5.2,0.4c0.7-0.4,1.3-1,2.1-1.7c0.4-0.4,1-0.8,1.5-1.3l2.4-2
		l0,7.4c0,2.8,0,5.3,0,7.9c0,5.8,3.1,5.8,4.1,5.8c1.3,0,2.3-0.4,3-1.2c0.7-0.9,1.1-2.5,1.1-4.5c0-2.6,0-5.3,0-8.2l0-7.5l3.7,3.2
		c0.6,0.5,1,0.9,1.4,1.2C88,61.5,90.5,62.7,92.7,60.2z"/>
	<path class="st0" d="M138,60.4c0.8-0.8,1.2-1.8,1.2-2.7c0-1.2-0.7-2.5-1.9-3.7c-3.5-3.4-7.3-7-11.7-11c-3-2.8-5.1-1-5.7-0.4
		c-4.5,4-8.9,8.2-13,12.3c-1.6,1.6-1.7,3.5-0.1,5.4c1.4,1.8,3.6,1.9,5.7,0.4c0.7-0.5,1.3-1,2.1-1.7c0.4-0.4,0.9-0.7,1.4-1.2l2.4-2
		l0,7.4c0,2.9,0,5.6,0,8.3c0,4.8,2.3,5.4,4,5.4c0,0,0,0,0,0c3.4,0,4.1-2.9,4.2-5.3c0-2.7,0-5.5,0-8.4c0-1.4,0-2.8,0-4.3v-3.3
		l3.7,3.2c0.6,0.5,1,0.9,1.4,1.2C135.4,63.1,137.4,61.1,138,60.4z"/>
	<path class="st0" d="M52.2,174.2c12.3,0,24.5,0,36.3,0c1.8,0,3.3-0.5,4.2-1.5c0.7-0.7,1-1.7,1-2.8c-0.1-3.4-3.4-3.9-5.3-3.9
		c-4.3,0-8.6,0-12.9,0l-5.5,0l-5.4,0c-1.8,0-3.6,0-5.4,0c-2.4,0-4.8,0-7.2,0c-3.4,0-5.1,1.4-5.2,4c0,1.2,0.3,2.1,1,2.9
		C48.8,173.7,50.3,174.2,52.2,174.2z"/>
</g>
</svg>
