<?xml version="1.0" encoding="utf-8"?>
<!-- Generator: Adobe Illustrator 23.0.1, SVG Export Plug-In . SVG Version: 6.00 Build 0)  -->
<svg version="1.1" id="Layer_1" xmlns="http://www.w3.org/2000/svg" xmlns:xlink="http://www.w3.org/1999/xlink" x="0px" y="0px"
	 viewBox="0 0 384 384" style="enable-background:new 0 0 384 384;" xml:space="preserve">
<style type="text/css">
	.st0{fill:#808080;}
</style>
<g>
	<path class="st0" d="M249.4,319.5l-4.5,2c-32.8,14.2-69.6,16.2-103.9,5.6c-34.3-10.6-63.5-33.1-82.6-63.3l-2.6-4.2l38.8-20.4
		l-6.7-12.7l-39.2,20.7l-1.7-4c-14.3-33-16.2-70.1-5.6-104.5c10.7-34.5,33.3-64,63.7-83.1l4.5-2.8l20.8,39.4L142,86l-20.8-39.4
		l4.5-1.9c33-14.3,70-16.3,104.5-5.6c34.4,10.7,64,33.3,83.1,63.7l2.3,3.6l-39.9,21l6.7,12.7l39.9-21l1.8,4.2
		c14.3,33,16.2,70.1,5.6,104.5c-2.9,9.5-6.8,18.4-11.4,27.1l10.4,8.3c24.4-43.9,28.4-98.4,6.8-146.8l-1.6-3.6l19.8-10.4l-6.7-12.7
		l-20.1,10.6l-2.2-3.7C282,27.1,193.5-0.2,118.8,32.9l-3.9,1.8l-10.6-20.1l-11.5,6.1l10.6,20.1L99.7,43C30.2,85.9,2.6,174.5,36,249
		l1.8,3.9l-20.1,10.6l6.7,12.7l20.2-10.6l2.2,3.7c42.7,69.2,131.2,96.3,206,63l3.9-1.8l11.2-5.9l3.6-2.2c4.5-2.8,8.8-5.7,12.8-8.8
		l-10.5-8.5c-2.6,1.8-5.2,3.6-8,5.4l-4.2,2.6L249.4,319.5L249.4,319.5z"/>
	<g>
		<path class="st0" d="M264.7,245.1l4.7-7.2c10.2-15.7,15.6-33.9,15.7-52.7c0.1-26-10-50.4-28.3-68.8
			c-18.3-18.4-42.7-28.6-68.7-28.7h0c-0.2,0-0.3,0-0.5,0c-19.4,0-38.1,5.7-54.2,16.5C89,134.2,77.1,194.7,107,239.2
			c29.9,44.5,90.4,56.4,134.9,26.5l11.4-8.9l94.3,98.5l27-25L264.7,245.1z M188.2,271.6C188.2,271.6,188.1,271.6,188.2,271.6
			c-47.6,0-86.3-38.8-86.2-86.3c0-47.6,38.7-86.3,86.2-86.3h5l0,0.3c21.2,1.2,40.9,10,56,25.2c16.3,16.3,25.2,38,25.2,61
			C274.4,233,235.7,271.6,188.2,271.6z"/>
	</g>
	<g>
		<path class="st0" d="M129.3,201.9c3,1.8,7.3,3.3,11.9,3.3c6.8,0,10.7-3.6,10.7-8.7c0-4.8-2.7-7.5-9.7-10.2
			c-8.4-3-13.5-7.3-13.5-14.5c0-8,6.6-13.9,16.6-13.9c5.2,0,9,1.2,11.3,2.5l-1.8,5.4c-1.7-0.9-5.1-2.4-9.7-2.4c-7,0-9.7,4.2-9.7,7.7
			c0,4.8,3.1,7.1,10.2,9.9c8.7,3.3,13.1,7.5,13.1,15.1c0,7.9-5.9,14.8-17.9,14.8c-4.9,0-10.3-1.4-13.1-3.3L129.3,201.9z"/>
		<path class="st0" d="M194.2,186h-19.9v18.5h22.2v5.6h-28.8v-51.3h27.7v5.6h-21.1v16.2h19.9V186z"/>
		<path class="st0" d="M248.9,183.8c0,17.6-10.7,27-23.8,27c-13.5,0-23-10.5-23-26c0-16.3,10.1-26.9,23.8-26.9
			C239.8,157.9,248.9,168.6,248.9,183.8z M209.1,184.7c0,10.9,5.9,20.8,16.3,20.8c10.5,0,16.4-9.7,16.4-21.3
			c0-10.2-5.3-20.8-16.3-20.8C214.6,163.3,209.1,173.4,209.1,184.7z"/>
	</g>
</g>
</svg>
