<?xml version="1.0" encoding="utf-8"?>
<!-- Generator: Adobe Illustrator 23.0.1, SVG Export Plug-In . SVG Version: 6.00 Build 0)  -->
<svg version="1.1" id="Layer_1" xmlns="http://www.w3.org/2000/svg" xmlns:xlink="http://www.w3.org/1999/xlink" x="0px" y="0px"
	 viewBox="0 0 384 384" style="enable-background:new 0 0 384 384;" xml:space="preserve">
<style type="text/css">
	.st0{fill:none;stroke:#818181;stroke-width:10;stroke-miterlimit:10;}
</style>
<circle class="st0" cx="192.1" cy="193.4" r="184.6"/>
<path class="st0" d="M82.4,160.7c22.2,0,42.7-1,64.6-1c-15.6,33-12,62,18.8,82.5c18.8,12.5,45.4,11.1,63-3
	c26.8-21.6,28.5-48.5,14.1-78.7c21.8,0,42.6,0,64.2,0c0.3,2.9,0.8,5.5,0.8,8.2c-0.3,31.8-0.6,63.7-1.1,95.5
	c-0.3,20.9-17.9,40.5-38.8,40.8c-48.6,0.7-97.2,0.7-145.8,0c-21.1-0.3-39-20.8-39.1-41.8c-0.2-30.1-0.4-60.2-0.6-90.3
	C82.3,169,82.4,165.3,82.4,160.7z"/>
<path class="st0" d="M140.8,79.3c19.3,0,37.1-0.1,54.8,0c23.1,0.1,46.2-0.1,69.3,0.7c24.1,0.8,40.5,17.3,41.8,41.2
	c0.5,10.1,0.1,20.2,0.1,32.1c-3.7,0-8.1,0-12.5,0c-12.9,0-25.9-0.4-38.8,0.1c-11.8,0.5-21.7-1.9-32.1-8.8
	c-20.1-13.2-40.9-10.1-61.3,2c-6.2,3.7-13.9,6-21.1,6.3c-18.8,0.9-40.1,2.7-58.8,2.7c-0.8-23.8,1.4-52.3,19.9-67.9
	C102.1,87.7,110.3,78.5,140.8,79.3z M249.3,117.6c0,19.1,0.3,19.4,21.3,19.4c15.2,0,16.4-1.5,16.3-20.3c0-17.7-0.5-18.2-20.4-18.1
	C249.8,98.6,249.3,99.1,249.3,117.6z"/>
<path class="st0" d="M226.7,193.8c0,17.9-13.9,31.9-31.6,32c-17.5,0-32.1-14.3-32.3-31.7c-0.2-17.5,14.3-32.3,31.6-32.3
	C213.5,161.8,226.8,174.9,226.7,193.8z"/>
</svg>
