<?xml version="1.0" encoding="utf-8"?>
<!-- Generator: Adobe Illustrator 23.0.1, SVG Export Plug-In . SVG Version: 6.00 Build 0)  -->
<svg version="1.1" id="Layer_1" xmlns="http://www.w3.org/2000/svg" xmlns:xlink="http://www.w3.org/1999/xlink" x="0px" y="0px"
	 viewBox="0 0 381 362.4" style="enable-background:new 0 0 381 362.4;" xml:space="preserve">
<style type="text/css">
	.st0{fill:#9A9A9A;}
</style>
<g>
	<path class="st0" d="M368.8,304.3c-4.1-1.8-4.9-4.1-4.9-7.7c0-21.9,0-44.2,0-65.7c0-41.3-0.1-83.9,0.3-125.9
		c0.1-9.9-3.7-19.3-10.4-25.8c-6.4-6.2-14.9-9.3-24.5-8.9c-4.2,0.2-8.4,0.1-12.5,0.1c-2.9,0-6-0.1-8.9,0c-2.7,0-4.4-1-5.7-3.4
		c-3.8-6.8-7.2-12.9-11-19.1c-6.5-10.4-19.2-13.8-30.1-8.1c-2.1,1.1-4.2,2.3-6.2,3.5c-1,0.6-1.9,1.1-2.9,1.7l-0.8,0.4l-0.8-0.5
		c-1.1-0.7-2.2-1.5-3.2-2.2c-2.3-1.6-4.4-3.1-6.7-3.9c-7.7-2.8-10.8-7.6-10.4-16.4c0.5-11.7-8.7-21.7-20.3-22.2
		c-12-0.5-24.8-0.5-38.1,0c-10,0.4-18.4,8.1-20,18.5c-0.6,3.7-0.5,7.5-0.5,11c0,2.8-1,4.5-3.5,5.7l-1.5,0.7
		c-3.2,1.5-6.6,3.1-9.3,5.3c-4.6,3.7-8.6,3.8-13.5,0.3c-6-4.3-12.5-5.6-19.4-3.8c-2,0.5-5.1,1.9-4.2,5.3c0.3,1.2,0.9,2,1.7,2.5
		c1,0.6,2.5,0.7,4.2,0.2c4.2-1.1,8.2-0.4,12.3,2c1.9,1.1,3.8,2.2,5.7,3.3c1.5,0.8,2.9,1.7,4.4,2.5c2.1,1.2,3.8,1.1,6.1-0.3
		c7.3-4.5,14.7-8.8,22-12.7c2.5-1.4,3.4-2.7,3.3-5.1c-0.1-3.6-0.1-7.6,0-12.1c0.2-9.1,6.1-15.1,15.1-15.2c11.1-0.1,22.1-0.1,32.7,0
		c8.9,0.1,14.7,5.9,15,14.9c0.1,3.8,0.1,7.9,0,12.4c0,2.3,0.9,3.7,3.4,5c8.1,4.4,15.2,8.5,21.7,12.5c2.5,1.6,4.3,1.7,6.4,0.4
		l1.9-1.1c2.9-1.7,5.9-3.5,8.9-5.1c7.6-4.2,15.7-2,20.1,5.4c5.4,9.1,10.9,18.7,16.5,28.6c4.3,7.6,2.2,15.5-5.2,20.1
		c-3.2,2-6.7,4-10.8,6.2c-2.2,1.2-3,2.7-2.9,5.4c0.2,8.8,0.2,17.5,0,25.9c-0.1,2.7,0.8,4.2,2.9,5.4c4,2.2,7.3,4.2,10.4,6
		c7.9,4.8,10,12.7,5.4,20.7c-5.5,9.7-10.9,19.1-16.1,27.9c-4.6,7.8-12.7,10-20.7,5.5c-3.2-1.8-6.3-3.6-9.4-5.4l-1.3-0.8
		c-1.9-1.1-3.5-1-5.8,0.4c-8,4.8-15.2,9-22,12.8c-2.5,1.4-3.5,2.7-3.4,5c0.1,4.1,0.1,8.5,0,12.8c-0.3,8.7-6.3,14.5-14.9,14.6
		c-10.4,0.1-21.1,0.1-32.6,0c-8.8-0.1-14.8-6-15.1-14.8c-0.1-4-0.1-8.2,0-12.5c0.1-2.4-0.9-3.8-3.6-5.3c-7.3-3.9-14.5-8.1-21.4-12.4
		c-2.7-1.7-4.5-1.8-6.7-0.4c-3,1.9-6.3,3.8-10.4,6c-7.7,4.2-15.9,2-20.4-5.6c-5.6-9.4-11-19-16.3-28.2c-4.4-7.8-2.3-15.8,5.4-20.4
		c3.8-2.3,7.2-4.2,10.4-6c2.2-1.2,3.1-2.8,3-5.7c-0.2-7.8-0.2-16.1,0-25.5c0.1-2.8-0.7-4.3-2.8-5.4c-3.2-1.7-6.3-3.6-9.4-5.4
		l-0.7-0.4c-8.3-4.9-10.5-12.8-5.7-21.2c1.4-2.5,2.8-4.9,4.2-7.4c1.7-3,3.6-6.1,5.3-9.2c1.4-2.5,1-4.6-1.1-5.9
		c-1.1-0.7-2.5-0.9-3.7-0.5c-0.7,0.2-1.5,0.8-2,2c-3.7,10.7-11.9,11.2-19.4,10.4c-3.6-0.4-7.3-0.3-10.9-0.1l-2,0.1
		c-3.1,0.1-6.1,0.3-9,0.9c-15.2,3.5-24.7,16-24.7,32.6c0,61.1,0,126,0.1,189.7c0,4.7,0,9.2-6.6,11.7C4.8,307.5,2,313.4,0,319.4v7.7
		l1.4,3.3c1.1,2.7,2.3,5.4,3.4,8c6.7,16,18.8,23.8,36.9,23.8c0,0,0.1,0,0.1,0c72.2-0.1,145.5-0.1,216.5-0.1c27,0,53.9,0,80.9,0
		l0.8,0c1.8,0,3.7,0,5.5-0.1c12-1,21.2-6.6,27.3-16.8c2.6-4.3,4.9-9.3,7.1-15.4C383.4,320,378.4,308.5,368.8,304.3z M372.2,326.4
		l-0.9,2.1c-2.1,5.1-4.3,10.3-7.4,14.9c-4.2,6.4-11,10.1-19.7,10.5c-1.5,0.1-3,0.1-4.5,0.1l-1.2,0c-24.2,0-48.4,0-72.6,0
		c-73.5,0-149.6,0-224.4,0.1c0,0-0.1,0-0.1,0c-14.6,0-24.2-6.2-29.3-19.1c-0.4-1.1-0.9-2.1-1.4-3.1c-0.6-1.2-1.1-2.4-1.6-3.7
		c-1.5-3.9-1.2-8,0.8-11.4c2-3.4,5.5-5.6,9.6-6.2c1.8-0.3,3.7-0.2,5.5-0.2c0.5,0,1,0,1.5,0c3.8,0,7.6,0,11.4,0c10,0,20.4,0,30.6-0.1
		c1.7,0,3.9-1.1,4.7-2.2c0.8-1.1,0.9-2.3,0.4-3.3c-0.7-1.5-2.6-2.5-4.7-2.5c-4.6-0.1-9.4-0.1-14-0.1c-2,0-4,0-5.9,0H25.4l0-49.5
		c0-48.7,0-99.1,0-148.6c0-8.5,2.5-14.7,7.7-18.9c4.2-3.5,8.1-5.4,11.6-5.7c5.9-0.6,11.8-0.5,17.6-0.4c2.4,0,4.8,0.1,7.2,0.1h1.7
		l-2,13.7l-4.2,0c-2.2,0-4.5,0-6.8,0c-12,0.1-18.6,6.7-18.6,18.5c0,51.9,0,103.7,0,155.6c0,13.3,7.6,20.9,20.9,20.9
		c86.6,0,173.2,0,259.9,0c13.3,0,21-7.7,21-21.1c0-19.4,0-38.8,0-58.2l0-15c0-0.3,0-0.5,0-0.8c0-0.8,0-1.6-0.1-2.4
		c-0.3-2.2-1.5-3.3-3.6-3.4c-2.2-0.2-3.6,0.7-4.2,2.7c-0.3,1.2-0.4,2.5-0.4,4c0,14.3,0,28.5,0,42.8c0,10,0,20,0,30
		c0,9.2-3.9,13.1-13,13.1c-86.4,0-172.7,0-259.1,0c-9.2,0-13.1-3.9-13.1-13c0-51.6,0-103.2,0-154.9c0-7.8,2.8-10.6,10.8-10.6
		c0.5,0,1,0,1.4,0c0.9,0,1.8,0,2.6,0c6.1-0.3,11.4-0.1,15.9,5.5c1.2,1.5,3.2,2.6,5.3,3.7c1.3,0.7,2.7,1.4,4,2.3
		c1.3,0.9,2.3,2.9,2.4,4.7c0.2,5.9,0.2,11.9,0,17.7c-0.1,1.7-1.1,3.6-2.4,4.6c-1.4,1-3,1.9-4.4,2.7c-1.1,0.6-2,1.1-3,1.8
		c-10.1,6.5-13.5,19.2-7.9,29.6c5.7,10.6,11.8,21.1,18,31c3.1,5.1,8.2,8.8,13.9,10.1c5.3,1.2,10.6,0.4,15.1-2.4
		c8.4-5.2,14.7-5,21.1,1c1,0.9,2.3,1.6,3.6,2c6.5,1.6,7.1,6.5,6.8,11c-0.7,11.1,3.7,19,12.9,23.5c2.9,1.4,6.5,2.2,10.2,2.3
		c9.9,0.3,20,0.2,29.8,0.1l3.2,0c6.6-0.1,12.7-2.5,17-7c4-4.1,6.1-9.6,5.9-15.6c-0.2-6.7,0.9-13.2,10.1-16.2
		c2.5-0.8,4.7-2.5,6.1-3.8c3.9-3.5,7.2-2,9.7-0.3c6.8,4.6,12.6,6.3,18.6,5.4c7.3-1,12.9-4.6,16.5-10.7c4.8-8.1,11.2-18.8,17.2-29.8
		c3.1-5.7,3.9-12,2.2-17.7c-1.6-5.5-5.4-10.1-10.7-12.9c-6.5-3.5-10.5-7.6-8.8-16.2c0.4-1.8,0.2-3.7,0-5.8c-0.1-1.4-0.2-2.9-0.2-4.4
		c0.1-1.7,1-3.6,2.3-4.6c4.7-3.8,9.7-7.4,14-10.5c1.3-0.9,2.9-1.1,3.6-1.1c5.1-0.1,9.3-0.1,13.2,0c6.1,0.1,9.2,3.3,9.2,9.4
		c0,12.2,0,24.4,0,36.5l0,15c0,0.7,0,1.4,0,2c0.2,3.2,1.8,5,4.3,4.9c2.4-0.1,3.9-1.9,3.9-4.9c0-5.8,0-11.7,0-17.4l0-6.9
		c0-3,0-5.9,0-8.9c0-6.8,0-13.8,0-20.7c-0.1-10.1-6.6-16.9-16.7-17.3c-2.6-0.1-5.3-0.1-7.8-0.1c-1.2,0-2.4,0-3.7,0h-1.3l-2-13.7
		l1.5-0.2c0.2,0,0.5-0.1,0.7-0.1c0.6-0.1,1.3-0.2,2.1-0.2l2.4,0c4.9,0,9.9-0.1,14.9,0c14.1,0.2,24.1,10.2,24.2,24.2
		c0.1,8.3,0.1,16.7,0,24.9c0,3.6,0,7.2,0,10.7v163.6l-255.5,0c-0.4,0-0.7,0-1.1,0c-0.9,0-1.7,0-2.6,0c-3,0.2-4.6,1.8-4.5,4.4
		c0.1,3.1,2.6,3.8,4.6,3.8c6.6,0.1,13.3,0,19.8,0c2.7,0,5.3,0,8,0h6.2v1.5c0,0.5,0,1.1,0,1.6c0,1,0,2,0,2.9
		c0.3,9.4,7.6,16.9,16.6,16.9c27.7,0.2,56.8,0.2,86.6,0c9-0.1,16.4-7.4,16.7-16.8c0-0.9,0-1.8,0-2.8c0-0.6,0-1.2,0-1.8v-1.5l32.5,0
		c24.9,0,49.9,0,74.8,0c7.9,0,12.7,3.2,14.4,9.6C372.9,322.6,372.9,324.8,372.2,326.4z M239.8,322.2c-1.8,2-4.8,2.9-9.2,2.9
		c-13.4,0-26.7,0-40.1,0c-13.4,0-26.7,0-40.1,0c-4.5,0-7.4-0.9-9.2-2.9c-1.9-2.1-2.6-5.2-2.2-10.2l0.1-1.4h102.8l0.1,1.4
		C242.4,317,241.8,320.1,239.8,322.2z"/>
	<path class="st0" d="M190,179.4c0.3,0,0.6,0,0.9,0c28.1,0,52.2-23.6,52.8-51.9c0.3-14.2-5-27.8-15-38.2
		c-9.8-10.2-22.8-15.9-36.5-16.1c-0.3,0-0.6,0-0.9,0c-29.2,0-53.3,23-53.9,51.8c-0.3,14.3,5,27.8,14.8,38
		C162.1,173.3,175.5,179.1,190,179.4z M164.8,90c12.7-11.5,39.2-11.4,51.5,0l2.8,2.6h-57.1L164.8,90z M151,104.9
		c1.4-2.7,3.2-3.8,6.3-3.8c8.2,0.1,16.4,0.1,24.5,0.1c5.9,0,11.8,0,17.7,0c7.9,0,16.1,0,24.1-0.1c3.2,0,5.2,1.2,6.6,4
		c8.6,17.7,7,34.2-4.8,49c-9,11.2-20.5,17-33.7,17c-4.1,0-8.3-0.5-12.7-1.6c-17.3-4.3-30.2-18.8-32.8-36.8
		C144.8,123.1,146.3,114,151,104.9z"/>
</g>
</svg>
