<?xml version="1.0" encoding="utf-8"?>
<!-- Generator: Adobe Illustrator 23.0.1, SVG Export Plug-In . SVG Version: 6.00 Build 0)  -->
<svg version="1.1" id="Layer_1" xmlns="http://www.w3.org/2000/svg" xmlns:xlink="http://www.w3.org/1999/xlink" x="0px" y="0px"
	 viewBox="0 0 380.7 380.7" style="enable-background:new 0 0 380.7 380.7;" xml:space="preserve">
<style type="text/css">
	.st0{fill:#9A9A9A;}
</style>
<g>
	<path class="st0" d="M374.2,348.8c-1.2-0.1-2.5-0.1-3.9,0c-0.7,0-1.4,0-2.2,0h-1.7v-6.2c0-1.6,0-3.2,0-4.8c0-3.7,0-7.5-0.1-11.3
		c-0.1-2.3-1.6-3.9-3.9-3.9c0,0,0,0-0.1,0c-2.1,0-3.7,1.6-3.9,3.9c-0.1,0.9-0.1,1.8-0.1,2.8c0,0.4,0,0.8,0,1.2l0,11.7l0,6.4H231.7
		v-89.1h126.8l0,12.5c0,9,0,18,0,26.9c0,2.1,0.5,3.7,1.3,4.6c0.6,0.6,1.5,0.9,2.7,0.9c1.8,0,3.8-0.7,3.9-5.4c0-14.9,0-27.2,0-38.6
		c0-6.3-2.9-9.1-9.3-9.1c-5.7,0-11.4,0-17.1,0l-12.8,0l0-165.3c0-6.6-0.6-7.2-7.4-7.2l-46.9,0l-0.1-1.5c-1.1-12.5-4.1-23.3-9.2-33.1
		C247.8,13.7,211.5-4.5,177.4,1c-21.4,3.4-39.1,14-52.6,31.4c-1.4,1.8-2.1,3.5-1.9,4.8c0.1,0.9,0.6,1.6,1.5,2.3
		c0.9,0.7,3,2.2,6.6-2.2c1-1.2,2.1-2.4,3.1-3.6c1-1.1,2.1-2.3,3-3.5c1.2-1.5,2.5-2.3,3.9-2.4c1.4-0.1,2.8,0.5,4.3,1.9l0.9,0.9
		l-0.6,1.1c-6.9,13.1-10.8,27.9-11.9,45.1l-0.1,1.6H115l0.4-2c0.3-1.6,0.7-3.2,1-4.7c0.7-3.5,1.5-6.9,2.2-10.3
		c0.6-2.9-0.1-4.7-2.2-5.6c-1.1-0.4-2.2-0.4-3.1,0.1c-1.1,0.6-1.9,1.7-2.3,3.2c-1,4.2-1.8,8.3-2.7,12.7c-0.4,1.9-0.7,3.7-1.1,5.6
		l-0.3,1.3l-46.2,0c-6.7,0-7.4,0.6-7.4,7.2l0,121.8h-6.2c-3.6,0-7.1,0-10.7,0c-8.7,0-17.6,0.1-26.5-0.1c-5-0.1-8,1.4-10,4.9v74.1
		c1.7,2.4,3.2,3.1,5.3,2.4c2.3-0.8,2.7-2.5,2.7-5.8c0-15.4,0-30.8,0-46.2l0-21.1h96.8V321H8v-1.7c0-0.5,0-1.1,0-1.6
		c0-1.2,0-2.4,0-3.6c0.1-3.4-0.2-5.1-2.5-5.9c-2-0.7-3.6-0.2-5.5,2v66.2c0,0.8,0.7,2.3,1.3,2.8c1,0.9,1.9,1.4,3.9,1.6h102.3
		c3.9-1.8,5.5-4.4,5.5-8.8c-0.1-37-0.1-74.6-0.1-110.9c0-14.9,0-29.8,0-44.7c0-6.2-2.4-8.6-8.7-8.6c-7.2,0-14.3,0-21.5,0
		c-5.2,0-10.4,0-15.6,0c-1,0-1.9-0.1-2.8-0.1c-0.4,0-0.8,0-1.2-0.1l-1.6-0.1V86.9h45.9l0.2,1.5c6.2,52.4,43.3,73.8,75.9,76.3
		c20.4,1.5,38.8-3.3,54.7-14.3c20.2-14,31.5-34.2,34.7-61.9l0.2-1.5h46v164.3l-28.3,0c-19,0-38.1,0-57.1,0
		c-7.7,0-10.2,2.5-10.2,10.4l0,57.9l0,29.2l-3.3,0c-1,0-1.8,0-2.6,0c-5.8,0.1-8.2,2.6-8.3,8.3l0,0.2c0,2,0,4.1,0,6.1
		c0.2,5.9,2.5,10.5,7.1,13.8c1.5,1.1,3.2,1.8,5.1,2.6c0.8,0.3,1.5,0.7,2.3,1h142.5l0.4-0.2c0.6-0.2,1.1-0.5,1.7-0.7
		c6.8-2.4,10.8-7,11.9-13.4c0.7-4.2,0.5-8.6,0.3-11.9C380.3,351.4,377.7,349.1,374.2,348.8z M104.8,372.5H8.3v-43.1h96.6V372.5z
		 M236.1,27.7l1.4,0.3c0.4,0.1,0.9,0.1,1.4,0.2c1.3,0.2,2.9,0.3,3.9,1.4c12.4,12.2,19.7,27.2,21.9,44.8c0.1,0.6,0.1,1.1,0,1.7
		c0,0.3,0,0.5,0,0.8v1.6h-17.6L247,77c-1.1-17.5-5-32.3-11.9-45.2l-0.3-0.7L236.1,27.7z M227.4,34.4c7,12.5,10.7,26.4,11.5,42.5
		l0.1,1.7h-25.4l-3.6-43.7l1.5-0.3c1-0.2,2-0.4,3-0.6c2.8-0.6,5.8-1.2,8.7-1.6C224.5,32.2,226.6,33,227.4,34.4z M206.5,11.5
		l15.5,12.8l-3.3,0.7c-3.1,0.7-5.3,1.1-6.9,1.1c-3.4,0-4.5-1.9-6.4-7.7c-0.3-0.8-0.5-1.6-0.7-2.4l-0.6-2.1L206.5,11.5z M188.2,8.3
		l4.2,0l8.1,19.3h-20.2L188.2,8.3z M178.7,35.9H202l3.6,42.6h-30.3L178.7,35.9z M174,11.6l2.7,2.3l-0.3,1c-0.2,0.8-0.4,1.6-0.7,2.4
		c-0.6,2.2-1.2,4.4-2,6.5c-0.5,1.4-2.5,2.5-3.9,2.5c0,0-0.1,0-0.1,0c-1.5,0-3-0.3-4.9-0.6c-0.8-0.1-1.8-0.3-2.8-0.5l-3.6-0.5
		L174,11.6z M141.9,76.9c0.4-12.2,2.9-23.6,7.6-34.8c4-9.6,4.9-10,14.9-8.4c1.1,0.2,2.2,0.4,3.3,0.6c0.5,0.1,1,0.2,1.6,0.3l1.5,0.3
		l-3.6,43.7h-25.3L141.9,76.9z M144.6,137.5l-1.3-0.2c-0.4-0.1-0.8-0.1-1.3-0.1c-1.3-0.1-2.9-0.2-3.9-1.2
		c-13-12.7-20.5-28.6-22.3-47.2l-0.2-1.8h18l0.1,1.6c1,17.2,4.9,32,11.9,45.1l0.4,0.7L144.6,137.5z M156.9,133
		c-1.5,0-3.1-1.3-3.7-2.3c-6.1-9.7-11.4-29.8-11.1-42.2l0-1.6h25.1l3.6,43.6l-1.5,0.3c-1,0.2-2,0.4-3,0.6c-3,0.6-6,1.2-9.1,1.6
		C157.1,133,157,133,156.9,133z M174.1,153.7l-12.9-10.6l1.3-3l10.5-1.7l3.9,13.2L174.1,153.7z M192.5,157.2l-3.3-0.2l-0.4-0.6
		c-3.9-4.8-5.4-10.5-7-16.5l-0.6-2.1h19.4L192.5,157.2z M178.7,129.5l-3.6-42.6h30.4l-3.6,42.6H178.7z M206.5,153.8l-2.5-2.3l3.8-13
		l10.7,1.7l0.9,3.2L206.5,153.8z M228,129.8c-0.8,2.2-2.2,3.3-4.2,3.3c-0.5,0-1.1-0.1-1.7-0.2c-2.5-0.6-5.1-1.1-7.6-1.5
		c-1.1-0.2-2.2-0.4-3.2-0.6l-1.5-0.3l3.6-43.7h26l-0.3,1.9c-0.3,1.9-0.5,3.8-0.7,5.7c-0.5,4.2-1,8.5-2.2,12.5
		c-1.5,5.4-3.6,10.8-5.6,15.9C229.8,125.1,228.9,127.5,228,129.8z M265.2,89c-0.4,1.6-0.7,3.3-1,4.9c-0.7,3.6-1.4,7-2.4,10.5
		c-3.2,11.3-9.4,21.7-18.3,30.9c-1.5,1.5-2.4,2.2-3.6,2.2c-1,0-2.2-0.5-4.1-1.4l-1.5-0.7l0.7-1.5c7-13.4,10.9-28.2,11.9-45.2L247,87
		h18.7L265.2,89z M372.7,362.2c-0.1,6.6-3.9,10.5-10.5,10.5c-23.8,0-46.2,0-67.7,0c-23.3,0-45.5,0-66.9,0c-3.4,0-6-0.9-7.7-2.8
		c-2.2-2.3-3-6-2.5-11.4l0.1-1.5h155.2l0,2.9C372.8,360.7,372.8,361.5,372.7,362.2z"/>
	<path class="st0" d="M287.3,267.9c-2.3,0.1-3.8,1.7-3.7,4c0,2.2,1.6,3.7,4,3.8c1.6,0.1,3.4,0.1,5,0c0.8,0,1.6,0,2.4,0
		c0.7,0,1.5,0,2.2,0c1.7,0,3.5,0,5.2,0c2.5-0.1,4-1.5,4.1-3.7c0.1-1.1-0.3-2.1-1-2.9c-0.7-0.8-1.7-1.2-3-1.3
		C297.2,267.7,292.1,267.7,287.3,267.9z"/>
	<path class="st0" d="M39.2,231.3c-4,0-8,0-11.9,0c-6,0-8.5,2.5-8.5,8.5l0,0.3c0,4.5-0.1,9.3,0,13.9c0.1,3.5,1.4,7.6,7.3,7.7
		c20,0.1,40.5,0.1,60.7,0c6,0,7.3-4.2,7.4-7.7c0.1-3.8,0-7.6,0-11.3l0-2.6c0-6.4-2.4-8.8-8.9-8.9c-6.7,0-13.5,0-20.1,0l-8.4,0
		c-3,0-6,0-9,0C45,231.3,42.1,231.3,39.2,231.3z M86.1,239.6v13.9H26.9v-13.9H86.1z"/>
	<path class="st0" d="M56.5,271.6c-10.8,0-21.5,0-32.2,0c-2.1,0-3.7,0.5-4.6,1.4c-0.6,0.7-0.9,1.6-0.9,2.7c0,1,0.1,3.8,5.4,3.8
		c7.6,0,15.2,0,22.7,0l9.1,0l9.4,0c7.7,0,15.5,0,23.2,0c5.3,0,5.4-2.9,5.5-3.8c0-1.1-0.3-2-0.9-2.7c-0.9-0.9-2.5-1.4-4.5-1.4
		C78,271.6,67.2,271.6,56.5,271.6z"/>
	<path class="st0" d="M33.8,364.5C33.8,364.5,33.8,364.5,33.8,364.5c3.6,0,7-1.4,9.6-4c2.6-2.6,4-6,4.1-9.5c0-8-5.7-13.8-13.6-13.8
		c0,0,0,0,0,0c-3.8,0-7.3,1.4-9.8,3.9c-2.5,2.5-3.9,6-3.9,9.8C20.2,358.4,26.3,364.4,33.8,364.5z M33.7,344.6h0.2
		c3.4,0,6.2,2.8,6.2,6.2c0,3.4-2.8,6.2-6.2,6.2h-0.2c-3.4,0-6.2-2.8-6.2-6.2C27.5,347.4,30.3,344.6,33.7,344.6z"/>
</g>
</svg>
